G04 #@! TF.GenerationSoftware,KiCad,Pcbnew,(6.0.10)*
G04 #@! TF.CreationDate,2023-07-05T14:15:12+02:00*
G04 #@! TF.ProjectId,USB-Tag,5553422d-5461-4672-9e6b-696361645f70,rev?*
G04 #@! TF.SameCoordinates,Original*
G04 #@! TF.FileFunction,Copper,L2,Bot*
G04 #@! TF.FilePolarity,Positive*
%FSLAX46Y46*%
G04 Gerber Fmt 4.6, Leading zero omitted, Abs format (unit mm)*
G04 Created by KiCad (PCBNEW (6.0.10)) date 2023-07-05 14:15:12*
%MOMM*%
%LPD*%
G01*
G04 APERTURE LIST*
G04 #@! TA.AperFunction,ComponentPad*
%ADD10O,0.900000X2.000000*%
G04 #@! TD*
G04 #@! TA.AperFunction,ComponentPad*
%ADD11O,0.900000X1.700000*%
G04 #@! TD*
G04 #@! TA.AperFunction,ComponentPad*
%ADD12C,2.000000*%
G04 #@! TD*
G04 #@! TA.AperFunction,ComponentPad*
%ADD13C,0.800000*%
G04 #@! TD*
G04 #@! TA.AperFunction,ComponentPad*
%ADD14C,7.000000*%
G04 #@! TD*
G04 #@! TA.AperFunction,ComponentPad*
%ADD15R,1.150000X1.150000*%
G04 #@! TD*
G04 #@! TA.AperFunction,ComponentPad*
%ADD16C,1.150000*%
G04 #@! TD*
G04 #@! TA.AperFunction,ViaPad*
%ADD17C,0.800000*%
G04 #@! TD*
G04 #@! TA.AperFunction,Conductor*
%ADD18C,0.250000*%
G04 #@! TD*
G04 #@! TA.AperFunction,Conductor*
%ADD19C,0.500000*%
G04 #@! TD*
G04 APERTURE END LIST*
D10*
X138375000Y-103180000D03*
X147025000Y-103180000D03*
D11*
X138375000Y-107350000D03*
X147025000Y-107350000D03*
D12*
X135228400Y-93685800D03*
X128728400Y-93685800D03*
X135228400Y-98185800D03*
X128728400Y-98185800D03*
D13*
X130938955Y-102943845D03*
X127226645Y-102943845D03*
X129082800Y-102175000D03*
X126457800Y-104800000D03*
X129082800Y-107425000D03*
D14*
X129082800Y-104800000D03*
D13*
X130938955Y-106656155D03*
X131707800Y-104800000D03*
X127226645Y-106656155D03*
X157124400Y-102175000D03*
X154499400Y-104800000D03*
X159749400Y-104800000D03*
X158980555Y-102943845D03*
X158980555Y-106656155D03*
X157124400Y-107425000D03*
D14*
X157124400Y-104800000D03*
D13*
X155268245Y-106656155D03*
X155268245Y-102943845D03*
D12*
X150750000Y-93685800D03*
X157250000Y-93685800D03*
X157250000Y-98185800D03*
X150750000Y-98185800D03*
D15*
X145200000Y-86100000D03*
D16*
X145200000Y-84100000D03*
X143200000Y-86100000D03*
X143200000Y-84100000D03*
X141200000Y-86100000D03*
X141200000Y-84100000D03*
D17*
X139000000Y-98600000D03*
X145150000Y-99500000D03*
X144250500Y-100822460D03*
X149347550Y-102527049D03*
X145500000Y-94250000D03*
D18*
X144250500Y-100822460D02*
X147642961Y-100822460D01*
X147642961Y-100822460D02*
X149347550Y-102527049D01*
D19*
X139000000Y-98600000D02*
X144250000Y-98600000D01*
X144250000Y-98600000D02*
X145150000Y-99500000D01*
D18*
X143200000Y-86100000D02*
X143200000Y-90214200D01*
X143200000Y-90214200D02*
X135228400Y-98185800D01*
G04 #@! TA.AperFunction,Conductor*
G36*
X140420524Y-83128502D02*
G01*
X140467017Y-83182158D01*
X140477121Y-83252432D01*
X140447627Y-83317012D01*
X140435481Y-83329231D01*
X140410690Y-83350972D01*
X140407118Y-83355503D01*
X140328777Y-83454878D01*
X140287407Y-83507355D01*
X140194688Y-83683586D01*
X140135637Y-83873763D01*
X140112231Y-84071516D01*
X140125255Y-84270223D01*
X140174272Y-84463229D01*
X140257641Y-84644071D01*
X140260974Y-84648787D01*
X140308709Y-84716330D01*
X140372570Y-84806692D01*
X140515210Y-84945645D01*
X140520014Y-84948855D01*
X140602432Y-85003925D01*
X140647960Y-85058402D01*
X140656808Y-85128845D01*
X140643946Y-85155162D01*
X140640343Y-85175269D01*
X140644513Y-85185303D01*
X141187188Y-85727978D01*
X141201132Y-85735592D01*
X141202965Y-85735461D01*
X141209580Y-85731210D01*
X141752155Y-85188635D01*
X141759769Y-85174691D01*
X141759100Y-85165330D01*
X141742595Y-85121079D01*
X141757686Y-85051705D01*
X141806704Y-85002157D01*
X141811291Y-84999588D01*
X141816330Y-84996766D01*
X141856299Y-84963525D01*
X141965001Y-84873119D01*
X141969433Y-84869433D01*
X142096766Y-84716330D01*
X142098892Y-84712534D01*
X142153598Y-84668013D01*
X142224150Y-84660084D01*
X142287790Y-84691557D01*
X142305270Y-84711465D01*
X142372570Y-84806692D01*
X142515210Y-84945645D01*
X142520014Y-84948855D01*
X142587403Y-84993883D01*
X142632931Y-85048360D01*
X142641779Y-85118803D01*
X142611137Y-85182847D01*
X142581827Y-85206931D01*
X142560406Y-85219675D01*
X142410690Y-85350972D01*
X142407118Y-85355503D01*
X142291549Y-85502101D01*
X142233668Y-85543214D01*
X142162747Y-85546508D01*
X142160589Y-85545237D01*
X142160462Y-85545722D01*
X142127567Y-85537117D01*
X142119442Y-85539768D01*
X141572022Y-86087188D01*
X141564408Y-86101132D01*
X141564539Y-86102965D01*
X141568790Y-86109580D01*
X142111866Y-86652656D01*
X142125810Y-86660270D01*
X142132671Y-86659780D01*
X142181431Y-86641593D01*
X142250805Y-86656684D01*
X142293317Y-86694552D01*
X142311102Y-86719717D01*
X142372570Y-86806692D01*
X142515210Y-86945645D01*
X142519835Y-86948735D01*
X142560146Y-87007091D01*
X142566500Y-87046597D01*
X142566500Y-89899606D01*
X142546498Y-89967727D01*
X142529595Y-89988701D01*
X135806859Y-96711436D01*
X135744547Y-96745462D01*
X135688351Y-96744860D01*
X135635504Y-96732173D01*
X135469924Y-96692420D01*
X135469918Y-96692419D01*
X135465111Y-96691265D01*
X135228400Y-96672635D01*
X134991689Y-96691265D01*
X134986882Y-96692419D01*
X134986876Y-96692420D01*
X134845408Y-96726384D01*
X134760806Y-96746695D01*
X134756235Y-96748588D01*
X134756233Y-96748589D01*
X134546011Y-96835665D01*
X134546007Y-96835667D01*
X134541437Y-96837560D01*
X134537217Y-96840146D01*
X134343198Y-96959041D01*
X134343192Y-96959045D01*
X134338984Y-96961624D01*
X134158431Y-97115831D01*
X134155223Y-97119587D01*
X134137432Y-97140418D01*
X134004224Y-97296384D01*
X134001645Y-97300592D01*
X134001641Y-97300598D01*
X133882746Y-97494617D01*
X133880160Y-97498837D01*
X133878267Y-97503407D01*
X133878265Y-97503411D01*
X133791189Y-97713633D01*
X133789295Y-97718206D01*
X133770040Y-97798409D01*
X133741000Y-97919371D01*
X133733865Y-97949089D01*
X133715235Y-98185800D01*
X133733865Y-98422511D01*
X133789295Y-98653394D01*
X133791188Y-98657965D01*
X133791189Y-98657967D01*
X133858775Y-98821134D01*
X133880160Y-98872763D01*
X133882746Y-98876983D01*
X134001641Y-99071002D01*
X134001645Y-99071008D01*
X134004224Y-99075216D01*
X134158431Y-99255769D01*
X134338984Y-99409976D01*
X134343192Y-99412555D01*
X134343198Y-99412559D01*
X134537217Y-99531454D01*
X134541437Y-99534040D01*
X134546007Y-99535933D01*
X134546011Y-99535935D01*
X134756233Y-99623011D01*
X134760806Y-99624905D01*
X134841009Y-99644160D01*
X134986876Y-99679180D01*
X134986882Y-99679181D01*
X134991689Y-99680335D01*
X135228400Y-99698965D01*
X135465111Y-99680335D01*
X135469918Y-99679181D01*
X135469924Y-99679180D01*
X135615791Y-99644160D01*
X135695994Y-99624905D01*
X135700567Y-99623011D01*
X135910789Y-99535935D01*
X135910793Y-99535933D01*
X135915363Y-99534040D01*
X135919583Y-99531454D01*
X136113602Y-99412559D01*
X136113608Y-99412555D01*
X136117816Y-99409976D01*
X136298369Y-99255769D01*
X136452576Y-99075216D01*
X136455155Y-99071008D01*
X136455159Y-99071002D01*
X136574054Y-98876983D01*
X136576640Y-98872763D01*
X136598026Y-98821134D01*
X136665611Y-98657967D01*
X136665612Y-98657965D01*
X136667505Y-98653394D01*
X136680324Y-98600000D01*
X138086496Y-98600000D01*
X138087186Y-98606565D01*
X138092589Y-98657967D01*
X138106458Y-98789928D01*
X138165473Y-98971556D01*
X138260960Y-99136944D01*
X138388747Y-99278866D01*
X138487843Y-99350864D01*
X138537904Y-99387235D01*
X138543248Y-99391118D01*
X138549276Y-99393802D01*
X138549278Y-99393803D01*
X138711681Y-99466109D01*
X138717712Y-99468794D01*
X138811112Y-99488647D01*
X138898056Y-99507128D01*
X138898061Y-99507128D01*
X138904513Y-99508500D01*
X139095487Y-99508500D01*
X139101939Y-99507128D01*
X139101944Y-99507128D01*
X139188888Y-99488647D01*
X139282288Y-99468794D01*
X139288319Y-99466109D01*
X139450722Y-99393803D01*
X139450724Y-99393802D01*
X139456752Y-99391118D01*
X139462091Y-99387239D01*
X139462098Y-99387235D01*
X139468528Y-99382563D01*
X139542587Y-99358500D01*
X143883629Y-99358500D01*
X143951750Y-99378502D01*
X143972724Y-99395405D01*
X144229875Y-99652556D01*
X144260612Y-99702712D01*
X144275660Y-99749025D01*
X144277688Y-99819991D01*
X144241026Y-99880789D01*
X144177314Y-99912114D01*
X144168143Y-99912902D01*
X144168182Y-99913270D01*
X144161615Y-99913960D01*
X144155013Y-99913960D01*
X144148561Y-99915332D01*
X144148556Y-99915332D01*
X144061613Y-99933813D01*
X143968212Y-99953666D01*
X143962182Y-99956351D01*
X143962181Y-99956351D01*
X143799778Y-100028657D01*
X143799776Y-100028658D01*
X143793748Y-100031342D01*
X143788407Y-100035222D01*
X143788406Y-100035223D01*
X143774911Y-100045028D01*
X143639247Y-100143594D01*
X143634826Y-100148504D01*
X143634825Y-100148505D01*
X143525703Y-100269698D01*
X143511460Y-100285516D01*
X143415973Y-100450904D01*
X143356958Y-100632532D01*
X143336996Y-100822460D01*
X143356958Y-101012388D01*
X143415973Y-101194016D01*
X143511460Y-101359404D01*
X143515878Y-101364311D01*
X143515879Y-101364312D01*
X143587644Y-101444015D01*
X143639247Y-101501326D01*
X143738343Y-101573324D01*
X143773060Y-101598547D01*
X143793748Y-101613578D01*
X143799776Y-101616262D01*
X143799778Y-101616263D01*
X143941830Y-101679508D01*
X143968212Y-101691254D01*
X144057002Y-101710127D01*
X144148556Y-101729588D01*
X144148561Y-101729588D01*
X144155013Y-101730960D01*
X144345987Y-101730960D01*
X144352439Y-101729588D01*
X144352444Y-101729588D01*
X144443998Y-101710127D01*
X144532788Y-101691254D01*
X144559170Y-101679508D01*
X144701222Y-101616263D01*
X144701224Y-101616262D01*
X144707252Y-101613578D01*
X144727941Y-101598547D01*
X144840171Y-101517006D01*
X144861753Y-101501326D01*
X144866168Y-101496423D01*
X144871080Y-101492000D01*
X144872205Y-101493249D01*
X144925514Y-101460409D01*
X144958700Y-101455960D01*
X146732693Y-101455960D01*
X146800814Y-101475962D01*
X146847307Y-101529618D01*
X146857411Y-101599892D01*
X146827917Y-101664472D01*
X146776201Y-101700210D01*
X146608640Y-101761860D01*
X146608635Y-101761862D01*
X146602654Y-101764063D01*
X146437160Y-101866674D01*
X146432527Y-101871055D01*
X146432526Y-101871056D01*
X146300588Y-101995823D01*
X146295678Y-102000466D01*
X146183989Y-102159975D01*
X146181452Y-102165838D01*
X146124434Y-102297600D01*
X146106655Y-102338684D01*
X146105350Y-102344931D01*
X146105349Y-102344934D01*
X146070631Y-102511124D01*
X146066835Y-102529293D01*
X146066500Y-102535685D01*
X146066500Y-102803050D01*
X146046498Y-102871171D01*
X145992842Y-102917664D01*
X145922568Y-102927768D01*
X145897409Y-102921452D01*
X145781315Y-102879197D01*
X145641231Y-102861500D01*
X145544390Y-102861500D01*
X145409745Y-102876603D01*
X145403092Y-102878920D01*
X145403091Y-102878920D01*
X145245106Y-102933936D01*
X145245103Y-102933938D01*
X145238448Y-102936255D01*
X145232469Y-102939991D01*
X145224367Y-102945054D01*
X145084624Y-103032374D01*
X145079628Y-103037335D01*
X145079627Y-103037336D01*
X144960915Y-103155222D01*
X144960912Y-103155226D01*
X144955918Y-103160185D01*
X144952144Y-103166131D01*
X144952143Y-103166133D01*
X144926897Y-103205915D01*
X144858727Y-103313334D01*
X144856362Y-103319976D01*
X144800243Y-103477575D01*
X144800242Y-103477580D01*
X144797881Y-103484210D01*
X144797048Y-103491198D01*
X144797047Y-103491201D01*
X144785312Y-103589615D01*
X144776404Y-103664320D01*
X144795364Y-103844712D01*
X144853818Y-104016421D01*
X144948862Y-104170912D01*
X144953793Y-104175947D01*
X144953795Y-104175950D01*
X145070843Y-104295475D01*
X145075771Y-104300507D01*
X145228238Y-104398765D01*
X145234858Y-104401174D01*
X145234861Y-104401176D01*
X145392066Y-104458394D01*
X145398685Y-104460803D01*
X145538769Y-104478500D01*
X145635610Y-104478500D01*
X145770255Y-104463397D01*
X145784622Y-104458394D01*
X145934894Y-104406064D01*
X145934897Y-104406062D01*
X145941552Y-104403745D01*
X145949522Y-104398765D01*
X146089396Y-104311363D01*
X146089398Y-104311362D01*
X146095376Y-104307626D01*
X146097813Y-104305206D01*
X146162299Y-104279107D01*
X146232063Y-104292279D01*
X146270418Y-104322492D01*
X146337859Y-104401176D01*
X146360591Y-104427698D01*
X146365633Y-104431609D01*
X146365634Y-104431610D01*
X146425578Y-104478107D01*
X146514453Y-104547046D01*
X146520176Y-104549862D01*
X146520179Y-104549864D01*
X146683444Y-104630200D01*
X146689171Y-104633018D01*
X146695349Y-104634627D01*
X146695351Y-104634628D01*
X146871425Y-104680492D01*
X146871428Y-104680492D01*
X146877607Y-104682102D01*
X146961597Y-104686504D01*
X147065683Y-104691959D01*
X147065687Y-104691959D01*
X147072064Y-104692293D01*
X147227413Y-104668799D01*
X147258285Y-104664130D01*
X147258286Y-104664130D01*
X147264599Y-104663175D01*
X147270585Y-104660972D01*
X147270591Y-104660971D01*
X147441360Y-104598140D01*
X147441365Y-104598138D01*
X147447346Y-104595937D01*
X147612840Y-104493326D01*
X147646940Y-104461080D01*
X147749685Y-104363919D01*
X147754322Y-104359534D01*
X147788055Y-104311359D01*
X147862346Y-104205259D01*
X147866011Y-104200025D01*
X147907802Y-104103451D01*
X147940810Y-104027175D01*
X147940811Y-104027171D01*
X147943345Y-104021316D01*
X147944651Y-104015066D01*
X147982176Y-103835443D01*
X147982177Y-103835438D01*
X147983165Y-103830707D01*
X147983500Y-103824315D01*
X147983500Y-102581337D01*
X147968765Y-102436273D01*
X147943205Y-102354710D01*
X147941922Y-102283726D01*
X147979219Y-102223316D01*
X148043256Y-102192660D01*
X148113702Y-102201492D01*
X148152531Y-102227934D01*
X148400430Y-102475834D01*
X148434454Y-102538144D01*
X148436643Y-102551755D01*
X148454008Y-102716977D01*
X148513023Y-102898605D01*
X148516326Y-102904327D01*
X148516327Y-102904328D01*
X148529860Y-102927768D01*
X148608510Y-103063993D01*
X148612928Y-103068900D01*
X148612929Y-103068901D01*
X148731875Y-103201004D01*
X148736297Y-103205915D01*
X148890798Y-103318167D01*
X148896826Y-103320851D01*
X148896828Y-103320852D01*
X149059231Y-103393158D01*
X149065262Y-103395843D01*
X149158662Y-103415696D01*
X149245606Y-103434177D01*
X149245611Y-103434177D01*
X149252063Y-103435549D01*
X149443037Y-103435549D01*
X149449489Y-103434177D01*
X149449494Y-103434177D01*
X149536438Y-103415696D01*
X149629838Y-103395843D01*
X149635869Y-103393158D01*
X149798272Y-103320852D01*
X149798274Y-103320851D01*
X149804302Y-103318167D01*
X149958803Y-103205915D01*
X149963225Y-103201004D01*
X150082171Y-103068901D01*
X150082172Y-103068900D01*
X150086590Y-103063993D01*
X150165240Y-102927768D01*
X150178773Y-102904328D01*
X150178774Y-102904327D01*
X150182077Y-102898605D01*
X150241092Y-102716977D01*
X150255820Y-102576853D01*
X150260364Y-102533614D01*
X150261054Y-102527049D01*
X150255330Y-102472591D01*
X150241782Y-102343684D01*
X150241782Y-102343682D01*
X150241092Y-102337121D01*
X150182077Y-102155493D01*
X150086590Y-101990105D01*
X149958803Y-101848183D01*
X149883283Y-101793314D01*
X154480734Y-101793314D01*
X154486484Y-101802874D01*
X157111588Y-104427978D01*
X157125532Y-104435592D01*
X157127365Y-104435461D01*
X157133980Y-104431210D01*
X159760863Y-101804327D01*
X159768477Y-101790383D01*
X159768455Y-101790072D01*
X159762604Y-101781406D01*
X159684543Y-101710127D01*
X159679816Y-101706217D01*
X159370819Y-101475059D01*
X159365713Y-101471614D01*
X159035635Y-101271711D01*
X159030222Y-101268784D01*
X158682208Y-101102044D01*
X158676541Y-101099662D01*
X158313926Y-100967682D01*
X158308038Y-100965860D01*
X157934276Y-100869893D01*
X157928254Y-100868657D01*
X157546885Y-100809618D01*
X157540797Y-100808978D01*
X157155485Y-100787436D01*
X157149333Y-100787393D01*
X156763787Y-100803552D01*
X156757661Y-100804109D01*
X156375523Y-100857815D01*
X156369470Y-100858970D01*
X155994400Y-100949709D01*
X155988503Y-100951445D01*
X155624081Y-101078350D01*
X155618368Y-101080658D01*
X155268067Y-101242519D01*
X155262613Y-101245371D01*
X154929776Y-101440646D01*
X154924628Y-101444015D01*
X154612425Y-101670843D01*
X154607647Y-101674684D01*
X154489111Y-101779926D01*
X154480734Y-101793314D01*
X149883283Y-101793314D01*
X149804302Y-101735931D01*
X149798274Y-101733247D01*
X149798272Y-101733246D01*
X149635869Y-101660940D01*
X149635868Y-101660940D01*
X149629838Y-101658255D01*
X149536437Y-101638402D01*
X149449494Y-101619921D01*
X149449489Y-101619921D01*
X149443037Y-101618549D01*
X149387144Y-101618549D01*
X149319023Y-101598547D01*
X149298049Y-101581644D01*
X148735072Y-101018666D01*
X148146613Y-100430207D01*
X148139073Y-100421921D01*
X148134961Y-100415442D01*
X148085309Y-100368816D01*
X148082468Y-100366062D01*
X148062731Y-100346325D01*
X148059534Y-100343845D01*
X148050512Y-100336140D01*
X148024061Y-100311301D01*
X148018282Y-100305874D01*
X148011336Y-100302055D01*
X148011333Y-100302053D01*
X148000527Y-100296112D01*
X147984008Y-100285261D01*
X147978009Y-100280608D01*
X147968002Y-100272846D01*
X147960733Y-100269701D01*
X147960729Y-100269698D01*
X147927424Y-100255286D01*
X147916774Y-100250069D01*
X147878021Y-100228765D01*
X147858398Y-100223727D01*
X147839695Y-100217323D01*
X147828381Y-100212427D01*
X147828380Y-100212427D01*
X147821106Y-100209279D01*
X147813283Y-100208040D01*
X147813273Y-100208037D01*
X147777437Y-100202361D01*
X147765817Y-100199955D01*
X147730672Y-100190932D01*
X147730671Y-100190932D01*
X147722991Y-100188960D01*
X147702737Y-100188960D01*
X147683026Y-100187409D01*
X147670847Y-100185480D01*
X147663018Y-100184240D01*
X147655126Y-100184986D01*
X147619000Y-100188401D01*
X147607142Y-100188960D01*
X146019512Y-100188960D01*
X145951391Y-100168958D01*
X145904898Y-100115302D01*
X145894794Y-100045028D01*
X145910393Y-99999960D01*
X145981223Y-99877279D01*
X145981224Y-99877278D01*
X145984527Y-99871556D01*
X146043542Y-99689928D01*
X146044510Y-99680723D01*
X146062814Y-99506565D01*
X146063504Y-99500000D01*
X146043542Y-99310072D01*
X145984527Y-99128444D01*
X145889040Y-98963056D01*
X145803622Y-98868189D01*
X145765675Y-98826045D01*
X145765674Y-98826044D01*
X145761253Y-98821134D01*
X145606752Y-98708882D01*
X145600724Y-98706198D01*
X145600722Y-98706197D01*
X145438319Y-98633891D01*
X145438318Y-98633891D01*
X145432288Y-98631206D01*
X145425833Y-98629834D01*
X145425824Y-98629831D01*
X145369228Y-98617801D01*
X145306331Y-98583650D01*
X144908481Y-98185800D01*
X149236835Y-98185800D01*
X149255465Y-98422511D01*
X149310895Y-98653394D01*
X149312788Y-98657965D01*
X149312789Y-98657967D01*
X149380375Y-98821134D01*
X149401760Y-98872763D01*
X149404346Y-98876983D01*
X149523241Y-99071002D01*
X149523245Y-99071008D01*
X149525824Y-99075216D01*
X149680031Y-99255769D01*
X149860584Y-99409976D01*
X149864792Y-99412555D01*
X149864798Y-99412559D01*
X150058817Y-99531454D01*
X150063037Y-99534040D01*
X150067607Y-99535933D01*
X150067611Y-99535935D01*
X150277833Y-99623011D01*
X150282406Y-99624905D01*
X150362609Y-99644160D01*
X150508476Y-99679180D01*
X150508482Y-99679181D01*
X150513289Y-99680335D01*
X150750000Y-99698965D01*
X150986711Y-99680335D01*
X150991518Y-99679181D01*
X150991524Y-99679180D01*
X151137391Y-99644160D01*
X151217594Y-99624905D01*
X151222167Y-99623011D01*
X151432389Y-99535935D01*
X151432393Y-99535933D01*
X151436963Y-99534040D01*
X151441183Y-99531454D01*
X151635202Y-99412559D01*
X151635208Y-99412555D01*
X151639416Y-99409976D01*
X151819969Y-99255769D01*
X151974176Y-99075216D01*
X151976755Y-99071008D01*
X151976759Y-99071002D01*
X152095654Y-98876983D01*
X152098240Y-98872763D01*
X152119626Y-98821134D01*
X152187211Y-98657967D01*
X152187212Y-98657965D01*
X152189105Y-98653394D01*
X152244535Y-98422511D01*
X152263165Y-98185800D01*
X155736835Y-98185800D01*
X155755465Y-98422511D01*
X155810895Y-98653394D01*
X155812788Y-98657965D01*
X155812789Y-98657967D01*
X155880375Y-98821134D01*
X155901760Y-98872763D01*
X155904346Y-98876983D01*
X156023241Y-99071002D01*
X156023245Y-99071008D01*
X156025824Y-99075216D01*
X156180031Y-99255769D01*
X156360584Y-99409976D01*
X156364792Y-99412555D01*
X156364798Y-99412559D01*
X156558817Y-99531454D01*
X156563037Y-99534040D01*
X156567607Y-99535933D01*
X156567611Y-99535935D01*
X156777833Y-99623011D01*
X156782406Y-99624905D01*
X156862609Y-99644160D01*
X157008476Y-99679180D01*
X157008482Y-99679181D01*
X157013289Y-99680335D01*
X157250000Y-99698965D01*
X157486711Y-99680335D01*
X157491518Y-99679181D01*
X157491524Y-99679180D01*
X157637391Y-99644160D01*
X157717594Y-99624905D01*
X157722167Y-99623011D01*
X157932389Y-99535935D01*
X157932393Y-99535933D01*
X157936963Y-99534040D01*
X157941183Y-99531454D01*
X158135202Y-99412559D01*
X158135208Y-99412555D01*
X158139416Y-99409976D01*
X158319969Y-99255769D01*
X158474176Y-99075216D01*
X158476755Y-99071008D01*
X158476759Y-99071002D01*
X158595654Y-98876983D01*
X158598240Y-98872763D01*
X158619626Y-98821134D01*
X158687211Y-98657967D01*
X158687212Y-98657965D01*
X158689105Y-98653394D01*
X158744535Y-98422511D01*
X158763165Y-98185800D01*
X158744535Y-97949089D01*
X158737401Y-97919371D01*
X158708360Y-97798409D01*
X158689105Y-97718206D01*
X158687211Y-97713633D01*
X158600135Y-97503411D01*
X158600133Y-97503407D01*
X158598240Y-97498837D01*
X158595654Y-97494617D01*
X158476759Y-97300598D01*
X158476755Y-97300592D01*
X158474176Y-97296384D01*
X158340968Y-97140418D01*
X158323177Y-97119587D01*
X158319969Y-97115831D01*
X158139416Y-96961624D01*
X158135208Y-96959045D01*
X158135202Y-96959041D01*
X157941183Y-96840146D01*
X157936963Y-96837560D01*
X157932393Y-96835667D01*
X157932389Y-96835665D01*
X157722167Y-96748589D01*
X157722165Y-96748588D01*
X157717594Y-96746695D01*
X157632992Y-96726384D01*
X157491524Y-96692420D01*
X157491518Y-96692419D01*
X157486711Y-96691265D01*
X157250000Y-96672635D01*
X157013289Y-96691265D01*
X157008482Y-96692419D01*
X157008476Y-96692420D01*
X156867008Y-96726384D01*
X156782406Y-96746695D01*
X156777835Y-96748588D01*
X156777833Y-96748589D01*
X156567611Y-96835665D01*
X156567607Y-96835667D01*
X156563037Y-96837560D01*
X156558817Y-96840146D01*
X156364798Y-96959041D01*
X156364792Y-96959045D01*
X156360584Y-96961624D01*
X156180031Y-97115831D01*
X156176823Y-97119587D01*
X156159032Y-97140418D01*
X156025824Y-97296384D01*
X156023245Y-97300592D01*
X156023241Y-97300598D01*
X155904346Y-97494617D01*
X155901760Y-97498837D01*
X155899867Y-97503407D01*
X155899865Y-97503411D01*
X155812789Y-97713633D01*
X155810895Y-97718206D01*
X155791640Y-97798409D01*
X155762600Y-97919371D01*
X155755465Y-97949089D01*
X155736835Y-98185800D01*
X152263165Y-98185800D01*
X152244535Y-97949089D01*
X152237401Y-97919371D01*
X152208360Y-97798409D01*
X152189105Y-97718206D01*
X152187211Y-97713633D01*
X152100135Y-97503411D01*
X152100133Y-97503407D01*
X152098240Y-97498837D01*
X152095654Y-97494617D01*
X151976759Y-97300598D01*
X151976755Y-97300592D01*
X151974176Y-97296384D01*
X151840968Y-97140418D01*
X151823177Y-97119587D01*
X151819969Y-97115831D01*
X151639416Y-96961624D01*
X151635208Y-96959045D01*
X151635202Y-96959041D01*
X151441183Y-96840146D01*
X151436963Y-96837560D01*
X151432393Y-96835667D01*
X151432389Y-96835665D01*
X151222167Y-96748589D01*
X151222165Y-96748588D01*
X151217594Y-96746695D01*
X151132992Y-96726384D01*
X150991524Y-96692420D01*
X150991518Y-96692419D01*
X150986711Y-96691265D01*
X150750000Y-96672635D01*
X150513289Y-96691265D01*
X150508482Y-96692419D01*
X150508476Y-96692420D01*
X150367008Y-96726384D01*
X150282406Y-96746695D01*
X150277835Y-96748588D01*
X150277833Y-96748589D01*
X150067611Y-96835665D01*
X150067607Y-96835667D01*
X150063037Y-96837560D01*
X150058817Y-96840146D01*
X149864798Y-96959041D01*
X149864792Y-96959045D01*
X149860584Y-96961624D01*
X149680031Y-97115831D01*
X149676823Y-97119587D01*
X149659032Y-97140418D01*
X149525824Y-97296384D01*
X149523245Y-97300592D01*
X149523241Y-97300598D01*
X149404346Y-97494617D01*
X149401760Y-97498837D01*
X149399867Y-97503407D01*
X149399865Y-97503411D01*
X149312789Y-97713633D01*
X149310895Y-97718206D01*
X149291640Y-97798409D01*
X149262600Y-97919371D01*
X149255465Y-97949089D01*
X149236835Y-98185800D01*
X144908481Y-98185800D01*
X144833770Y-98111089D01*
X144821384Y-98096677D01*
X144812851Y-98085082D01*
X144812846Y-98085077D01*
X144808508Y-98079182D01*
X144802930Y-98074443D01*
X144802927Y-98074440D01*
X144768232Y-98044965D01*
X144760716Y-98038035D01*
X144755021Y-98032340D01*
X144748880Y-98027482D01*
X144732749Y-98014719D01*
X144729345Y-98011928D01*
X144679297Y-97969409D01*
X144679295Y-97969408D01*
X144673715Y-97964667D01*
X144667199Y-97961339D01*
X144662150Y-97957972D01*
X144657021Y-97954805D01*
X144651284Y-97950266D01*
X144585125Y-97919345D01*
X144581225Y-97917439D01*
X144580857Y-97917251D01*
X144516192Y-97884231D01*
X144509084Y-97882492D01*
X144503441Y-97880393D01*
X144497678Y-97878476D01*
X144491050Y-97875378D01*
X144419583Y-97860513D01*
X144415299Y-97859543D01*
X144344390Y-97842192D01*
X144338788Y-97841844D01*
X144338785Y-97841844D01*
X144333236Y-97841500D01*
X144333238Y-97841464D01*
X144329245Y-97841225D01*
X144325053Y-97840851D01*
X144317885Y-97839360D01*
X144251675Y-97841151D01*
X144240479Y-97841454D01*
X144237072Y-97841500D01*
X139542587Y-97841500D01*
X139468528Y-97817437D01*
X139462098Y-97812765D01*
X139462091Y-97812761D01*
X139456752Y-97808882D01*
X139450724Y-97806198D01*
X139450722Y-97806197D01*
X139288319Y-97733891D01*
X139288318Y-97733891D01*
X139282288Y-97731206D01*
X139188887Y-97711353D01*
X139101944Y-97692872D01*
X139101939Y-97692872D01*
X139095487Y-97691500D01*
X138904513Y-97691500D01*
X138898061Y-97692872D01*
X138898056Y-97692872D01*
X138811113Y-97711353D01*
X138717712Y-97731206D01*
X138711682Y-97733891D01*
X138711681Y-97733891D01*
X138549278Y-97806197D01*
X138549276Y-97806198D01*
X138543248Y-97808882D01*
X138537907Y-97812762D01*
X138537906Y-97812763D01*
X138531473Y-97817437D01*
X138388747Y-97921134D01*
X138384326Y-97926044D01*
X138384325Y-97926045D01*
X138280229Y-98041656D01*
X138260960Y-98063056D01*
X138165473Y-98228444D01*
X138106458Y-98410072D01*
X138105768Y-98416633D01*
X138105768Y-98416635D01*
X138104645Y-98427324D01*
X138086496Y-98600000D01*
X136680324Y-98600000D01*
X136722935Y-98422511D01*
X136741565Y-98185800D01*
X136722935Y-97949089D01*
X136715801Y-97919371D01*
X136669340Y-97725849D01*
X136672887Y-97654941D01*
X136702764Y-97607340D01*
X138340561Y-95969544D01*
X153036936Y-95969544D01*
X153038932Y-96000000D01*
X153050861Y-96182006D01*
X153052283Y-96187604D01*
X153052283Y-96187606D01*
X153075006Y-96277075D01*
X153103272Y-96388372D01*
X153105689Y-96393615D01*
X153142389Y-96473223D01*
X153192411Y-96581731D01*
X153315296Y-96755609D01*
X153467809Y-96904181D01*
X153472605Y-96907386D01*
X153472608Y-96907388D01*
X153558430Y-96964732D01*
X153644843Y-97022471D01*
X153650146Y-97024749D01*
X153650149Y-97024751D01*
X153736544Y-97061869D01*
X153840470Y-97106519D01*
X153881624Y-97115831D01*
X154042501Y-97152234D01*
X154042506Y-97152235D01*
X154048138Y-97153509D01*
X154053909Y-97153736D01*
X154053911Y-97153736D01*
X154115252Y-97156146D01*
X154260891Y-97161869D01*
X154266600Y-97161041D01*
X154266604Y-97161041D01*
X154465890Y-97132145D01*
X154465894Y-97132144D01*
X154471605Y-97131316D01*
X154673223Y-97062876D01*
X154858993Y-96958840D01*
X155022693Y-96822693D01*
X155158840Y-96658993D01*
X155262876Y-96473223D01*
X155331316Y-96271605D01*
X155346645Y-96165890D01*
X155361337Y-96064561D01*
X155361337Y-96064559D01*
X155361869Y-96060891D01*
X155363463Y-96000000D01*
X155350461Y-95858500D01*
X155344510Y-95793730D01*
X155344509Y-95793727D01*
X155343981Y-95787976D01*
X155308971Y-95663841D01*
X155287754Y-95588611D01*
X155287753Y-95588609D01*
X155286186Y-95583052D01*
X155236872Y-95483052D01*
X155194570Y-95397273D01*
X155192015Y-95392092D01*
X155064622Y-95221491D01*
X154908271Y-95076963D01*
X154728201Y-94963347D01*
X154615716Y-94918470D01*
X156382160Y-94918470D01*
X156387887Y-94926120D01*
X156559042Y-95031005D01*
X156567837Y-95035487D01*
X156777988Y-95122534D01*
X156787373Y-95125583D01*
X157008554Y-95178685D01*
X157018301Y-95180228D01*
X157245070Y-95198075D01*
X157254930Y-95198075D01*
X157481699Y-95180228D01*
X157491446Y-95178685D01*
X157712627Y-95125583D01*
X157722012Y-95122534D01*
X157932163Y-95035487D01*
X157940958Y-95031005D01*
X158108445Y-94928368D01*
X158117907Y-94917910D01*
X158114124Y-94909134D01*
X157262812Y-94057822D01*
X157248868Y-94050208D01*
X157247035Y-94050339D01*
X157240420Y-94054590D01*
X156388920Y-94906090D01*
X156382160Y-94918470D01*
X154615716Y-94918470D01*
X154530441Y-94884449D01*
X154524781Y-94883323D01*
X154524777Y-94883322D01*
X154327282Y-94844038D01*
X154327280Y-94844038D01*
X154321615Y-94842911D01*
X154315840Y-94842835D01*
X154315836Y-94842835D01*
X154209161Y-94841439D01*
X154108716Y-94840124D01*
X154103019Y-94841103D01*
X154103018Y-94841103D01*
X153904564Y-94875203D01*
X153904561Y-94875204D01*
X153898874Y-94876181D01*
X153699116Y-94949875D01*
X153516134Y-95058739D01*
X153356054Y-95199125D01*
X153224238Y-95366333D01*
X153221549Y-95371444D01*
X153221547Y-95371447D01*
X153180406Y-95449644D01*
X153125100Y-95554762D01*
X153123386Y-95560283D01*
X153123384Y-95560287D01*
X153094727Y-95652579D01*
X153061961Y-95758102D01*
X153036936Y-95969544D01*
X138340561Y-95969544D01*
X139391635Y-94918470D01*
X149882160Y-94918470D01*
X149887887Y-94926120D01*
X150059042Y-95031005D01*
X150067837Y-95035487D01*
X150277988Y-95122534D01*
X150287373Y-95125583D01*
X150508554Y-95178685D01*
X150518301Y-95180228D01*
X150745070Y-95198075D01*
X150754930Y-95198075D01*
X150981699Y-95180228D01*
X150991446Y-95178685D01*
X151212627Y-95125583D01*
X151222012Y-95122534D01*
X151432163Y-95035487D01*
X151440958Y-95031005D01*
X151608445Y-94928368D01*
X151617907Y-94917910D01*
X151614124Y-94909134D01*
X150762812Y-94057822D01*
X150748868Y-94050208D01*
X150747035Y-94050339D01*
X150740420Y-94054590D01*
X149888920Y-94906090D01*
X149882160Y-94918470D01*
X139391635Y-94918470D01*
X140619375Y-93690730D01*
X149237725Y-93690730D01*
X149255572Y-93917499D01*
X149257115Y-93927246D01*
X149310217Y-94148427D01*
X149313266Y-94157812D01*
X149400313Y-94367963D01*
X149404795Y-94376758D01*
X149507432Y-94544245D01*
X149517890Y-94553707D01*
X149526666Y-94549924D01*
X150377978Y-93698612D01*
X150384356Y-93686932D01*
X151114408Y-93686932D01*
X151114539Y-93688765D01*
X151118790Y-93695380D01*
X151970290Y-94546880D01*
X151982670Y-94553640D01*
X151990320Y-94547913D01*
X152095205Y-94376758D01*
X152099687Y-94367963D01*
X152186734Y-94157812D01*
X152189783Y-94148427D01*
X152242885Y-93927246D01*
X152244428Y-93917499D01*
X152262275Y-93690730D01*
X155737725Y-93690730D01*
X155755572Y-93917499D01*
X155757115Y-93927246D01*
X155810217Y-94148427D01*
X155813266Y-94157812D01*
X155900313Y-94367963D01*
X155904795Y-94376758D01*
X156007432Y-94544245D01*
X156017890Y-94553707D01*
X156026666Y-94549924D01*
X156877978Y-93698612D01*
X156884356Y-93686932D01*
X157614408Y-93686932D01*
X157614539Y-93688765D01*
X157618790Y-93695380D01*
X158470290Y-94546880D01*
X158482670Y-94553640D01*
X158490320Y-94547913D01*
X158595205Y-94376758D01*
X158599687Y-94367963D01*
X158686734Y-94157812D01*
X158689783Y-94148427D01*
X158742885Y-93927246D01*
X158744428Y-93917499D01*
X158762275Y-93690730D01*
X158762275Y-93680870D01*
X158744428Y-93454101D01*
X158742885Y-93444354D01*
X158689783Y-93223173D01*
X158686734Y-93213788D01*
X158599687Y-93003637D01*
X158595205Y-92994842D01*
X158492568Y-92827355D01*
X158482110Y-92817893D01*
X158473334Y-92821676D01*
X157622022Y-93672988D01*
X157614408Y-93686932D01*
X156884356Y-93686932D01*
X156885592Y-93684668D01*
X156885461Y-93682835D01*
X156881210Y-93676220D01*
X156029710Y-92824720D01*
X156017330Y-92817960D01*
X156009680Y-92823687D01*
X155904795Y-92994842D01*
X155900313Y-93003637D01*
X155813266Y-93213788D01*
X155810217Y-93223173D01*
X155757115Y-93444354D01*
X155755572Y-93454101D01*
X155737725Y-93680870D01*
X155737725Y-93690730D01*
X152262275Y-93690730D01*
X152262275Y-93680870D01*
X152244428Y-93454101D01*
X152242885Y-93444354D01*
X152189783Y-93223173D01*
X152186734Y-93213788D01*
X152099687Y-93003637D01*
X152095205Y-92994842D01*
X151992568Y-92827355D01*
X151982110Y-92817893D01*
X151973334Y-92821676D01*
X151122022Y-93672988D01*
X151114408Y-93686932D01*
X150384356Y-93686932D01*
X150385592Y-93684668D01*
X150385461Y-93682835D01*
X150381210Y-93676220D01*
X149529710Y-92824720D01*
X149517330Y-92817960D01*
X149509680Y-92823687D01*
X149404795Y-92994842D01*
X149400313Y-93003637D01*
X149313266Y-93213788D01*
X149310217Y-93223173D01*
X149257115Y-93444354D01*
X149255572Y-93454101D01*
X149237725Y-93680870D01*
X149237725Y-93690730D01*
X140619375Y-93690730D01*
X143592253Y-90717852D01*
X143600539Y-90710312D01*
X143607018Y-90706200D01*
X143653644Y-90656548D01*
X143656398Y-90653707D01*
X143676135Y-90633970D01*
X143678615Y-90630773D01*
X143686320Y-90621751D01*
X143711159Y-90595300D01*
X143716586Y-90589521D01*
X143720405Y-90582575D01*
X143720407Y-90582572D01*
X143726348Y-90571766D01*
X143737199Y-90555247D01*
X143744758Y-90545501D01*
X143749614Y-90539241D01*
X143752759Y-90531972D01*
X143752762Y-90531968D01*
X143767174Y-90498663D01*
X143772391Y-90488013D01*
X143793695Y-90449260D01*
X143798733Y-90429637D01*
X143805137Y-90410934D01*
X143810033Y-90399620D01*
X143810033Y-90399619D01*
X143813181Y-90392345D01*
X143814420Y-90384522D01*
X143814423Y-90384512D01*
X143820099Y-90348676D01*
X143822505Y-90337056D01*
X143831528Y-90301911D01*
X143831528Y-90301910D01*
X143833500Y-90294230D01*
X143833500Y-90273976D01*
X143835051Y-90254265D01*
X143836980Y-90242086D01*
X143838220Y-90234257D01*
X143834059Y-90190238D01*
X143833500Y-90178381D01*
X143833500Y-87041577D01*
X143853502Y-86973456D01*
X143878931Y-86944703D01*
X143964995Y-86873125D01*
X143965001Y-86873119D01*
X143966054Y-86872243D01*
X143966058Y-86872241D01*
X143969433Y-86869434D01*
X143969984Y-86870097D01*
X144027976Y-86838430D01*
X144098791Y-86843495D01*
X144155627Y-86886042D01*
X144166392Y-86905716D01*
X144166923Y-86905425D01*
X144171233Y-86913297D01*
X144174385Y-86921705D01*
X144261739Y-87038261D01*
X144378295Y-87125615D01*
X144514684Y-87176745D01*
X144576866Y-87183500D01*
X145823134Y-87183500D01*
X145885316Y-87176745D01*
X146021705Y-87125615D01*
X146138261Y-87038261D01*
X146225615Y-86921705D01*
X146276745Y-86785316D01*
X146283500Y-86723134D01*
X146283500Y-85476866D01*
X146276745Y-85414684D01*
X146225615Y-85278295D01*
X146138261Y-85161739D01*
X146021705Y-85074385D01*
X146013297Y-85071233D01*
X146005425Y-85066923D01*
X146006634Y-85064715D01*
X145960549Y-85030089D01*
X145935856Y-84963525D01*
X145951071Y-84894178D01*
X145969554Y-84869534D01*
X145969433Y-84869433D01*
X146028940Y-84797883D01*
X146093077Y-84720766D01*
X146093079Y-84720764D01*
X146096766Y-84716330D01*
X146125529Y-84664970D01*
X146191244Y-84547628D01*
X146191244Y-84547627D01*
X146194067Y-84542587D01*
X146258077Y-84354022D01*
X146271064Y-84264455D01*
X146286118Y-84160623D01*
X146286651Y-84156949D01*
X146288142Y-84100000D01*
X146269921Y-83901702D01*
X146263660Y-83879500D01*
X146217436Y-83715604D01*
X146217435Y-83715602D01*
X146215868Y-83710045D01*
X146213314Y-83704865D01*
X146130349Y-83536627D01*
X146130346Y-83536623D01*
X146127794Y-83531447D01*
X146106502Y-83502933D01*
X146012100Y-83376515D01*
X146008647Y-83371891D01*
X145960111Y-83327024D01*
X145923666Y-83266097D01*
X145925947Y-83195137D01*
X145966229Y-83136674D01*
X146031724Y-83109271D01*
X146045640Y-83108500D01*
X148150633Y-83108500D01*
X148170018Y-83110000D01*
X148184851Y-83112310D01*
X148184855Y-83112310D01*
X148193724Y-83113691D01*
X148206397Y-83112034D01*
X148233707Y-83111449D01*
X148361194Y-83122603D01*
X148382817Y-83126415D01*
X148528466Y-83165442D01*
X148549104Y-83172954D01*
X148685760Y-83236678D01*
X148704780Y-83247660D01*
X148828297Y-83334147D01*
X148845122Y-83348265D01*
X148951735Y-83454878D01*
X148965853Y-83471703D01*
X149052340Y-83595220D01*
X149063322Y-83614240D01*
X149127046Y-83750896D01*
X149134557Y-83771534D01*
X149173583Y-83917178D01*
X149177397Y-83938806D01*
X149182344Y-83995341D01*
X149187947Y-84059393D01*
X149187393Y-84075871D01*
X149187800Y-84075876D01*
X149187690Y-84084853D01*
X149186309Y-84093724D01*
X149187473Y-84102626D01*
X149187473Y-84102628D01*
X149190436Y-84125283D01*
X149191500Y-84141621D01*
X149191500Y-84596109D01*
X149171498Y-84664230D01*
X149117842Y-84710723D01*
X149047568Y-84720827D01*
X148999665Y-84703541D01*
X148936732Y-84664975D01*
X148936721Y-84664969D01*
X148932502Y-84662384D01*
X148927932Y-84660491D01*
X148927928Y-84660489D01*
X148703164Y-84567389D01*
X148703162Y-84567388D01*
X148698591Y-84565495D01*
X148613968Y-84545179D01*
X148457216Y-84507546D01*
X148457210Y-84507545D01*
X148452403Y-84506391D01*
X148200000Y-84486526D01*
X147947597Y-84506391D01*
X147942790Y-84507545D01*
X147942784Y-84507546D01*
X147786032Y-84545179D01*
X147701409Y-84565495D01*
X147696838Y-84567388D01*
X147696836Y-84567389D01*
X147472072Y-84660489D01*
X147472068Y-84660491D01*
X147467498Y-84662384D01*
X147251624Y-84794672D01*
X147059102Y-84959102D01*
X146894672Y-85151624D01*
X146762384Y-85367498D01*
X146760491Y-85372068D01*
X146760489Y-85372072D01*
X146671154Y-85587746D01*
X146665495Y-85601409D01*
X146657272Y-85635660D01*
X146616798Y-85804250D01*
X146606391Y-85847597D01*
X146586526Y-86100000D01*
X146606391Y-86352403D01*
X146607545Y-86357210D01*
X146607546Y-86357216D01*
X146631613Y-86457462D01*
X146665495Y-86598591D01*
X146667388Y-86603162D01*
X146667389Y-86603164D01*
X146753365Y-86810727D01*
X146762384Y-86832502D01*
X146894672Y-87048376D01*
X147059102Y-87240898D01*
X147251624Y-87405328D01*
X147467498Y-87537616D01*
X147472068Y-87539509D01*
X147472072Y-87539511D01*
X147627500Y-87603891D01*
X147701409Y-87634505D01*
X147786032Y-87654821D01*
X147942784Y-87692454D01*
X147942790Y-87692455D01*
X147947597Y-87693609D01*
X148200000Y-87713474D01*
X148452403Y-87693609D01*
X148457210Y-87692455D01*
X148457216Y-87692454D01*
X148613968Y-87654821D01*
X148698591Y-87634505D01*
X148772500Y-87603891D01*
X148927928Y-87539511D01*
X148927932Y-87539509D01*
X148932502Y-87537616D01*
X148936722Y-87535030D01*
X148936732Y-87535025D01*
X148999665Y-87496459D01*
X149068198Y-87477920D01*
X149135875Y-87499376D01*
X149181208Y-87554015D01*
X149191500Y-87603891D01*
X149191500Y-91691377D01*
X149191498Y-91692147D01*
X149191024Y-91769721D01*
X149193491Y-91778352D01*
X149199150Y-91798153D01*
X149202728Y-91814915D01*
X149206920Y-91844187D01*
X149210634Y-91852355D01*
X149210634Y-91852356D01*
X149217548Y-91867562D01*
X149223996Y-91885086D01*
X149231051Y-91909771D01*
X149235843Y-91917365D01*
X149235844Y-91917368D01*
X149246830Y-91934780D01*
X149254969Y-91949863D01*
X149267208Y-91976782D01*
X149273069Y-91983584D01*
X149283970Y-91996235D01*
X149295073Y-92011239D01*
X149308776Y-92032958D01*
X149315501Y-92038897D01*
X149315504Y-92038901D01*
X149330938Y-92052532D01*
X149342982Y-92064724D01*
X149356427Y-92080327D01*
X149356430Y-92080329D01*
X149362287Y-92087127D01*
X149369816Y-92092007D01*
X149369817Y-92092008D01*
X149383835Y-92101094D01*
X149398709Y-92112385D01*
X149411217Y-92123431D01*
X149417951Y-92129378D01*
X149444711Y-92141942D01*
X149459691Y-92150263D01*
X149476983Y-92161471D01*
X149476988Y-92161473D01*
X149484515Y-92166352D01*
X149493108Y-92168922D01*
X149493113Y-92168924D01*
X149509120Y-92173711D01*
X149526564Y-92180372D01*
X149541676Y-92187467D01*
X149541678Y-92187468D01*
X149549800Y-92191281D01*
X149558667Y-92192662D01*
X149558668Y-92192662D01*
X149568310Y-92194163D01*
X149579017Y-92195830D01*
X149595732Y-92199613D01*
X149615466Y-92205515D01*
X149615472Y-92205516D01*
X149624066Y-92208086D01*
X149633037Y-92208141D01*
X149633038Y-92208141D01*
X149643097Y-92208202D01*
X149658506Y-92208296D01*
X149659289Y-92208329D01*
X149660386Y-92208500D01*
X149691377Y-92208500D01*
X149692147Y-92208502D01*
X149765785Y-92208952D01*
X149765786Y-92208952D01*
X149769721Y-92208976D01*
X149771065Y-92208592D01*
X149772410Y-92208500D01*
X149827841Y-92208500D01*
X149895962Y-92228502D01*
X149942455Y-92282158D01*
X149952559Y-92352432D01*
X149923065Y-92417012D01*
X149893677Y-92441932D01*
X149891554Y-92443233D01*
X149882093Y-92453690D01*
X149885876Y-92462466D01*
X150737188Y-93313778D01*
X150751132Y-93321392D01*
X150752965Y-93321261D01*
X150759580Y-93317010D01*
X151611080Y-92465510D01*
X151617840Y-92453130D01*
X151612114Y-92445481D01*
X151606323Y-92441932D01*
X151558692Y-92389284D01*
X151547086Y-92319242D01*
X151575190Y-92254045D01*
X151634081Y-92214391D01*
X151672159Y-92208500D01*
X156327841Y-92208500D01*
X156395962Y-92228502D01*
X156442455Y-92282158D01*
X156452559Y-92352432D01*
X156423065Y-92417012D01*
X156393677Y-92441932D01*
X156391554Y-92443233D01*
X156382093Y-92453690D01*
X156385876Y-92462466D01*
X157237188Y-93313778D01*
X157251132Y-93321392D01*
X157252965Y-93321261D01*
X157259580Y-93317010D01*
X158111080Y-92465510D01*
X158117840Y-92453130D01*
X158112114Y-92445481D01*
X158106323Y-92441932D01*
X158058692Y-92389284D01*
X158047086Y-92319242D01*
X158075190Y-92254045D01*
X158134081Y-92214391D01*
X158172159Y-92208500D01*
X159550633Y-92208500D01*
X159570018Y-92210000D01*
X159584851Y-92212310D01*
X159584855Y-92212310D01*
X159593724Y-92213691D01*
X159606397Y-92212034D01*
X159633707Y-92211449D01*
X159761194Y-92222603D01*
X159782817Y-92226415D01*
X159928466Y-92265442D01*
X159949104Y-92272954D01*
X160085760Y-92336678D01*
X160104780Y-92347660D01*
X160228297Y-92434147D01*
X160245122Y-92448265D01*
X160351735Y-92554878D01*
X160365853Y-92571703D01*
X160452340Y-92695220D01*
X160463322Y-92714240D01*
X160527046Y-92850896D01*
X160534557Y-92871534D01*
X160573583Y-93017178D01*
X160577398Y-93038809D01*
X160587947Y-93159393D01*
X160587393Y-93175871D01*
X160587800Y-93175876D01*
X160587690Y-93184853D01*
X160586309Y-93193724D01*
X160587473Y-93202625D01*
X160587473Y-93202629D01*
X160590795Y-93228029D01*
X160591854Y-93243281D01*
X160671160Y-102442622D01*
X160671418Y-102472591D01*
X160652004Y-102540881D01*
X160598751Y-102587835D01*
X160528567Y-102598544D01*
X160463734Y-102569609D01*
X160444006Y-102548448D01*
X160235947Y-102266244D01*
X160232067Y-102261487D01*
X160144718Y-102164475D01*
X160131197Y-102156145D01*
X160131120Y-102156146D01*
X160121834Y-102161776D01*
X154486947Y-107796663D01*
X154479333Y-107810607D01*
X154479388Y-107811386D01*
X154484742Y-107819436D01*
X154521360Y-107853821D01*
X154526038Y-107857803D01*
X154795961Y-108065671D01*
X154837728Y-108123082D01*
X154841827Y-108193961D01*
X154806955Y-108255803D01*
X154744184Y-108288974D01*
X154719083Y-108291500D01*
X148026897Y-108291500D01*
X147958776Y-108271498D01*
X147912283Y-108217842D01*
X147902179Y-108147568D01*
X147911259Y-108115463D01*
X147943345Y-108041316D01*
X147962460Y-107949818D01*
X147982176Y-107855443D01*
X147982177Y-107855438D01*
X147983165Y-107850707D01*
X147983500Y-107844315D01*
X147983500Y-106901337D01*
X147968765Y-106756273D01*
X147951111Y-106699939D01*
X147912444Y-106576549D01*
X147912442Y-106576544D01*
X147910535Y-106570459D01*
X147816130Y-106400150D01*
X147811981Y-106395309D01*
X147811978Y-106395305D01*
X147693560Y-106257145D01*
X147689409Y-106252302D01*
X147535547Y-106132954D01*
X147529824Y-106130138D01*
X147529821Y-106130136D01*
X147366556Y-106049800D01*
X147360829Y-106046982D01*
X147354651Y-106045373D01*
X147354649Y-106045372D01*
X147178575Y-105999508D01*
X147178572Y-105999508D01*
X147172393Y-105997898D01*
X147088403Y-105993496D01*
X146984317Y-105988041D01*
X146984313Y-105988041D01*
X146977936Y-105987707D01*
X146822587Y-106011201D01*
X146791715Y-106015870D01*
X146791714Y-106015870D01*
X146785401Y-106016825D01*
X146779415Y-106019028D01*
X146779409Y-106019029D01*
X146608640Y-106081860D01*
X146608635Y-106081862D01*
X146602654Y-106084063D01*
X146437160Y-106186674D01*
X146432527Y-106191055D01*
X146432526Y-106191056D01*
X146344491Y-106274306D01*
X146295678Y-106320466D01*
X146292016Y-106325696D01*
X146292015Y-106325697D01*
X146243275Y-106395305D01*
X146183989Y-106479975D01*
X146181452Y-106485838D01*
X146118443Y-106631444D01*
X146106655Y-106658684D01*
X146105350Y-106664931D01*
X146105349Y-106664934D01*
X146080327Y-106784712D01*
X146066835Y-106849293D01*
X146066500Y-106855685D01*
X146066500Y-107798663D01*
X146081235Y-107943727D01*
X146083144Y-107949818D01*
X146138926Y-108127821D01*
X146140210Y-108198806D01*
X146102913Y-108259217D01*
X146038876Y-108289873D01*
X146018692Y-108291500D01*
X139376897Y-108291500D01*
X139308776Y-108271498D01*
X139262283Y-108217842D01*
X139252179Y-108147568D01*
X139261259Y-108115463D01*
X139293345Y-108041316D01*
X139312460Y-107949818D01*
X139332176Y-107855443D01*
X139332177Y-107855438D01*
X139333165Y-107850707D01*
X139333500Y-107844315D01*
X139333500Y-106901337D01*
X139318765Y-106756273D01*
X139301111Y-106699939D01*
X139262444Y-106576549D01*
X139262442Y-106576544D01*
X139260535Y-106570459D01*
X139166130Y-106400150D01*
X139161981Y-106395309D01*
X139161978Y-106395305D01*
X139043560Y-106257145D01*
X139039409Y-106252302D01*
X138885547Y-106132954D01*
X138879824Y-106130138D01*
X138879821Y-106130136D01*
X138716556Y-106049800D01*
X138710829Y-106046982D01*
X138704651Y-106045373D01*
X138704649Y-106045372D01*
X138528575Y-105999508D01*
X138528572Y-105999508D01*
X138522393Y-105997898D01*
X138438403Y-105993496D01*
X138334317Y-105988041D01*
X138334313Y-105988041D01*
X138327936Y-105987707D01*
X138172587Y-106011201D01*
X138141715Y-106015870D01*
X138141714Y-106015870D01*
X138135401Y-106016825D01*
X138129415Y-106019028D01*
X138129409Y-106019029D01*
X137958640Y-106081860D01*
X137958635Y-106081862D01*
X137952654Y-106084063D01*
X137787160Y-106186674D01*
X137782527Y-106191055D01*
X137782526Y-106191056D01*
X137694491Y-106274306D01*
X137645678Y-106320466D01*
X137642016Y-106325696D01*
X137642015Y-106325697D01*
X137593275Y-106395305D01*
X137533989Y-106479975D01*
X137531452Y-106485838D01*
X137468443Y-106631444D01*
X137456655Y-106658684D01*
X137455350Y-106664931D01*
X137455349Y-106664934D01*
X137430327Y-106784712D01*
X137416835Y-106849293D01*
X137416500Y-106855685D01*
X137416500Y-107798663D01*
X137431235Y-107943727D01*
X137433144Y-107949818D01*
X137488926Y-108127821D01*
X137490210Y-108198806D01*
X137452913Y-108259217D01*
X137388876Y-108289873D01*
X137368692Y-108291500D01*
X131483675Y-108291500D01*
X131415554Y-108271498D01*
X131369061Y-108217842D01*
X131358957Y-108147568D01*
X131388451Y-108082988D01*
X131411044Y-108062540D01*
X131550834Y-107963929D01*
X131555672Y-107960149D01*
X131718040Y-107819998D01*
X131726455Y-107806958D01*
X131720516Y-107796926D01*
X128724722Y-104801132D01*
X129447208Y-104801132D01*
X129447339Y-104802965D01*
X129451590Y-104809580D01*
X132080164Y-107438154D01*
X132094108Y-107445768D01*
X132095123Y-107445696D01*
X132102854Y-107440593D01*
X132118367Y-107424302D01*
X132122395Y-107419637D01*
X132359968Y-107115558D01*
X132363522Y-107110518D01*
X132570286Y-106784712D01*
X132573329Y-106779356D01*
X132747320Y-106434910D01*
X132749816Y-106429306D01*
X132889368Y-106069518D01*
X132891309Y-106063684D01*
X132995088Y-105691988D01*
X132996444Y-105686017D01*
X133063460Y-105305959D01*
X133064227Y-105299886D01*
X133093919Y-104914000D01*
X133094096Y-104910085D01*
X133095606Y-104801974D01*
X133095538Y-104798030D01*
X133093045Y-104747061D01*
X153112065Y-104747061D01*
X153125532Y-105132706D01*
X153126047Y-105138838D01*
X153177085Y-105521347D01*
X153178192Y-105527383D01*
X153266313Y-105903090D01*
X153268008Y-105909000D01*
X153392368Y-106274306D01*
X153394635Y-106280031D01*
X153554043Y-106631444D01*
X153556865Y-106636934D01*
X153749807Y-106971119D01*
X153753137Y-106976287D01*
X153977775Y-107290059D01*
X153981597Y-107294881D01*
X154104433Y-107435195D01*
X154117647Y-107443593D01*
X154127443Y-107437747D01*
X156752378Y-104812812D01*
X156759992Y-104798868D01*
X156759861Y-104797035D01*
X156755610Y-104790420D01*
X154128302Y-102163112D01*
X154114358Y-102155498D01*
X154113812Y-102155537D01*
X154105455Y-102161136D01*
X154052477Y-102218347D01*
X154048532Y-102223049D01*
X153815221Y-102530426D01*
X153811743Y-102535504D01*
X153609541Y-102864179D01*
X153606576Y-102869572D01*
X153437414Y-103216406D01*
X153434988Y-103222064D01*
X153300476Y-103583758D01*
X153298618Y-103589615D01*
X153200040Y-103962718D01*
X153198765Y-103968718D01*
X153137067Y-104349648D01*
X153136380Y-104355776D01*
X153112151Y-104740886D01*
X153112065Y-104747061D01*
X133093045Y-104747061D01*
X133076632Y-104411489D01*
X133076031Y-104405365D01*
X133019662Y-104023631D01*
X133018462Y-104017569D01*
X132958896Y-103778663D01*
X137416500Y-103778663D01*
X137431235Y-103923727D01*
X137433144Y-103929818D01*
X137487556Y-104103451D01*
X137487558Y-104103456D01*
X137489465Y-104109541D01*
X137492558Y-104115120D01*
X137545774Y-104211123D01*
X137583870Y-104279850D01*
X137588019Y-104284691D01*
X137588022Y-104284695D01*
X137643694Y-104349648D01*
X137710591Y-104427698D01*
X137715633Y-104431609D01*
X137715634Y-104431610D01*
X137775578Y-104478107D01*
X137864453Y-104547046D01*
X137870176Y-104549862D01*
X137870179Y-104549864D01*
X138033444Y-104630200D01*
X138039171Y-104633018D01*
X138045349Y-104634627D01*
X138045351Y-104634628D01*
X138221425Y-104680492D01*
X138221428Y-104680492D01*
X138227607Y-104682102D01*
X138311597Y-104686504D01*
X138415683Y-104691959D01*
X138415687Y-104691959D01*
X138422064Y-104692293D01*
X138577413Y-104668799D01*
X138608285Y-104664130D01*
X138608286Y-104664130D01*
X138614599Y-104663175D01*
X138620585Y-104660972D01*
X138620591Y-104660971D01*
X138791360Y-104598140D01*
X138791365Y-104598138D01*
X138797346Y-104595937D01*
X138962840Y-104493326D01*
X138996940Y-104461080D01*
X139099685Y-104363919D01*
X139104322Y-104359534D01*
X139122901Y-104333001D01*
X139178355Y-104288674D01*
X139248975Y-104281365D01*
X139294527Y-104302437D01*
X139295771Y-104300507D01*
X139448238Y-104398765D01*
X139454858Y-104401174D01*
X139454861Y-104401176D01*
X139612066Y-104458394D01*
X139618685Y-104460803D01*
X139758769Y-104478500D01*
X139855610Y-104478500D01*
X139990255Y-104463397D01*
X140004622Y-104458394D01*
X140154894Y-104406064D01*
X140154897Y-104406062D01*
X140161552Y-104403745D01*
X140169522Y-104398765D01*
X140309402Y-104311359D01*
X140315376Y-104307626D01*
X140320373Y-104302664D01*
X140439085Y-104184778D01*
X140439088Y-104184774D01*
X140444082Y-104179815D01*
X140541273Y-104026666D01*
X140580189Y-103917378D01*
X140599757Y-103862425D01*
X140599758Y-103862420D01*
X140602119Y-103855790D01*
X140604546Y-103835443D01*
X140622762Y-103682673D01*
X140623596Y-103675680D01*
X140604636Y-103495288D01*
X140546182Y-103323579D01*
X140483729Y-103222064D01*
X140454834Y-103175095D01*
X140454832Y-103175092D01*
X140451138Y-103169088D01*
X140446207Y-103164053D01*
X140446205Y-103164050D01*
X140329157Y-103044525D01*
X140329156Y-103044524D01*
X140324229Y-103039493D01*
X140171762Y-102941235D01*
X140165142Y-102938826D01*
X140165139Y-102938824D01*
X140007934Y-102881606D01*
X140007933Y-102881606D01*
X140001315Y-102879197D01*
X139861231Y-102861500D01*
X139764390Y-102861500D01*
X139629745Y-102876603D01*
X139500936Y-102921459D01*
X139430028Y-102924973D01*
X139368475Y-102889592D01*
X139335823Y-102826549D01*
X139333500Y-102802468D01*
X139333500Y-102581337D01*
X139318765Y-102436273D01*
X139291045Y-102347818D01*
X139262444Y-102256549D01*
X139262442Y-102256544D01*
X139260535Y-102250459D01*
X139207477Y-102154741D01*
X139169223Y-102085729D01*
X139169221Y-102085726D01*
X139166130Y-102080150D01*
X139161981Y-102075309D01*
X139161978Y-102075305D01*
X139043560Y-101937145D01*
X139039409Y-101932302D01*
X138885547Y-101812954D01*
X138879824Y-101810138D01*
X138879821Y-101810136D01*
X138716556Y-101729800D01*
X138710829Y-101726982D01*
X138704651Y-101725373D01*
X138704649Y-101725372D01*
X138528575Y-101679508D01*
X138528572Y-101679508D01*
X138522393Y-101677898D01*
X138438403Y-101673496D01*
X138334317Y-101668041D01*
X138334313Y-101668041D01*
X138327936Y-101667707D01*
X138189992Y-101688569D01*
X138141715Y-101695870D01*
X138141714Y-101695870D01*
X138135401Y-101696825D01*
X138129415Y-101699028D01*
X138129409Y-101699029D01*
X137958640Y-101761860D01*
X137958635Y-101761862D01*
X137952654Y-101764063D01*
X137787160Y-101866674D01*
X137782527Y-101871055D01*
X137782526Y-101871056D01*
X137650588Y-101995823D01*
X137645678Y-102000466D01*
X137533989Y-102159975D01*
X137531452Y-102165838D01*
X137474434Y-102297600D01*
X137456655Y-102338684D01*
X137455350Y-102344931D01*
X137455349Y-102344934D01*
X137420631Y-102511124D01*
X137416835Y-102529293D01*
X137416500Y-102535685D01*
X137416500Y-103778663D01*
X132958896Y-103778663D01*
X132925112Y-103643165D01*
X132923327Y-103637250D01*
X132793882Y-103273727D01*
X132791539Y-103268043D01*
X132627234Y-102918877D01*
X132624345Y-102913443D01*
X132426755Y-102581983D01*
X132423347Y-102576853D01*
X132194347Y-102266244D01*
X132190467Y-102261487D01*
X132103118Y-102164475D01*
X132089597Y-102156145D01*
X132089520Y-102156146D01*
X132080234Y-102161776D01*
X129454822Y-104787188D01*
X129447208Y-104801132D01*
X128724722Y-104801132D01*
X126086702Y-102163112D01*
X126072758Y-102155498D01*
X126072212Y-102155537D01*
X126063855Y-102161136D01*
X126010877Y-102218347D01*
X126006940Y-102223040D01*
X125912228Y-102347818D01*
X125855110Y-102389984D01*
X125784262Y-102394577D01*
X125722178Y-102360138D01*
X125688569Y-102297600D01*
X125685871Y-102272729D01*
X125681738Y-101793314D01*
X126439134Y-101793314D01*
X126444884Y-101802874D01*
X129069988Y-104427978D01*
X129083932Y-104435592D01*
X129085765Y-104435461D01*
X129092380Y-104431210D01*
X131719263Y-101804327D01*
X131726877Y-101790383D01*
X131726855Y-101790072D01*
X131721004Y-101781406D01*
X131642943Y-101710127D01*
X131638216Y-101706217D01*
X131329219Y-101475059D01*
X131324113Y-101471614D01*
X130994035Y-101271711D01*
X130988622Y-101268784D01*
X130640608Y-101102044D01*
X130634941Y-101099662D01*
X130272326Y-100967682D01*
X130266438Y-100965860D01*
X129892676Y-100869893D01*
X129886654Y-100868657D01*
X129505285Y-100809618D01*
X129499197Y-100808978D01*
X129113885Y-100787436D01*
X129107733Y-100787393D01*
X128722187Y-100803552D01*
X128716061Y-100804109D01*
X128333923Y-100857815D01*
X128327870Y-100858970D01*
X127952800Y-100949709D01*
X127946903Y-100951445D01*
X127582481Y-101078350D01*
X127576768Y-101080658D01*
X127226467Y-101242519D01*
X127221013Y-101245371D01*
X126888176Y-101440646D01*
X126883028Y-101444015D01*
X126570825Y-101670843D01*
X126566047Y-101674684D01*
X126447511Y-101779926D01*
X126439134Y-101793314D01*
X125681738Y-101793314D01*
X125650638Y-98185800D01*
X127215235Y-98185800D01*
X127233865Y-98422511D01*
X127289295Y-98653394D01*
X127291188Y-98657965D01*
X127291189Y-98657967D01*
X127358775Y-98821134D01*
X127380160Y-98872763D01*
X127382746Y-98876983D01*
X127501641Y-99071002D01*
X127501645Y-99071008D01*
X127504224Y-99075216D01*
X127658431Y-99255769D01*
X127838984Y-99409976D01*
X127843192Y-99412555D01*
X127843198Y-99412559D01*
X128037217Y-99531454D01*
X128041437Y-99534040D01*
X128046007Y-99535933D01*
X128046011Y-99535935D01*
X128256233Y-99623011D01*
X128260806Y-99624905D01*
X128341009Y-99644160D01*
X128486876Y-99679180D01*
X128486882Y-99679181D01*
X128491689Y-99680335D01*
X128728400Y-99698965D01*
X128965111Y-99680335D01*
X128969918Y-99679181D01*
X128969924Y-99679180D01*
X129115791Y-99644160D01*
X129195994Y-99624905D01*
X129200567Y-99623011D01*
X129410789Y-99535935D01*
X129410793Y-99535933D01*
X129415363Y-99534040D01*
X129419583Y-99531454D01*
X129613602Y-99412559D01*
X129613608Y-99412555D01*
X129617816Y-99409976D01*
X129798369Y-99255769D01*
X129952576Y-99075216D01*
X129955155Y-99071008D01*
X129955159Y-99071002D01*
X130074054Y-98876983D01*
X130076640Y-98872763D01*
X130098026Y-98821134D01*
X130165611Y-98657967D01*
X130165612Y-98657965D01*
X130167505Y-98653394D01*
X130222935Y-98422511D01*
X130241565Y-98185800D01*
X130222935Y-97949089D01*
X130215801Y-97919371D01*
X130186760Y-97798409D01*
X130167505Y-97718206D01*
X130165611Y-97713633D01*
X130078535Y-97503411D01*
X130078533Y-97503407D01*
X130076640Y-97498837D01*
X130074054Y-97494617D01*
X129955159Y-97300598D01*
X129955155Y-97300592D01*
X129952576Y-97296384D01*
X129819368Y-97140418D01*
X129801577Y-97119587D01*
X129798369Y-97115831D01*
X129617816Y-96961624D01*
X129613608Y-96959045D01*
X129613602Y-96959041D01*
X129419583Y-96840146D01*
X129415363Y-96837560D01*
X129410793Y-96835667D01*
X129410789Y-96835665D01*
X129200567Y-96748589D01*
X129200565Y-96748588D01*
X129195994Y-96746695D01*
X129111392Y-96726384D01*
X128969924Y-96692420D01*
X128969918Y-96692419D01*
X128965111Y-96691265D01*
X128728400Y-96672635D01*
X128491689Y-96691265D01*
X128486882Y-96692419D01*
X128486876Y-96692420D01*
X128345408Y-96726384D01*
X128260806Y-96746695D01*
X128256235Y-96748588D01*
X128256233Y-96748589D01*
X128046011Y-96835665D01*
X128046007Y-96835667D01*
X128041437Y-96837560D01*
X128037217Y-96840146D01*
X127843198Y-96959041D01*
X127843192Y-96959045D01*
X127838984Y-96961624D01*
X127658431Y-97115831D01*
X127655223Y-97119587D01*
X127637432Y-97140418D01*
X127504224Y-97296384D01*
X127501645Y-97300592D01*
X127501641Y-97300598D01*
X127382746Y-97494617D01*
X127380160Y-97498837D01*
X127378267Y-97503407D01*
X127378265Y-97503411D01*
X127291189Y-97713633D01*
X127289295Y-97718206D01*
X127270040Y-97798409D01*
X127241000Y-97919371D01*
X127233865Y-97949089D01*
X127215235Y-98185800D01*
X125650638Y-98185800D01*
X125630670Y-95869544D01*
X130836936Y-95869544D01*
X130838932Y-95900000D01*
X130850861Y-96082006D01*
X130852283Y-96087604D01*
X130852283Y-96087606D01*
X130874793Y-96176239D01*
X130903272Y-96288372D01*
X130905689Y-96293615D01*
X130942389Y-96373223D01*
X130992411Y-96481731D01*
X131115296Y-96655609D01*
X131172604Y-96711436D01*
X131231530Y-96768839D01*
X131267809Y-96804181D01*
X131272605Y-96807386D01*
X131272608Y-96807388D01*
X131344088Y-96855149D01*
X131444843Y-96922471D01*
X131450146Y-96924749D01*
X131450149Y-96924751D01*
X131635163Y-97004239D01*
X131640470Y-97006519D01*
X131696782Y-97019261D01*
X131842501Y-97052234D01*
X131842506Y-97052235D01*
X131848138Y-97053509D01*
X131853909Y-97053736D01*
X131853911Y-97053736D01*
X131915252Y-97056146D01*
X132060891Y-97061869D01*
X132066600Y-97061041D01*
X132066604Y-97061041D01*
X132265890Y-97032145D01*
X132265894Y-97032144D01*
X132271605Y-97031316D01*
X132473223Y-96962876D01*
X132658993Y-96858840D01*
X132822693Y-96722693D01*
X132958840Y-96558993D01*
X133062876Y-96373223D01*
X133131316Y-96171605D01*
X133160440Y-95970750D01*
X133161337Y-95964561D01*
X133161337Y-95964559D01*
X133161869Y-95960891D01*
X133163463Y-95900000D01*
X133143981Y-95687976D01*
X133107969Y-95560287D01*
X133087754Y-95488611D01*
X133087753Y-95488609D01*
X133086186Y-95483052D01*
X132992015Y-95292092D01*
X132864622Y-95121491D01*
X132708271Y-94976963D01*
X132615565Y-94918470D01*
X134360560Y-94918470D01*
X134366287Y-94926120D01*
X134537442Y-95031005D01*
X134546237Y-95035487D01*
X134756388Y-95122534D01*
X134765773Y-95125583D01*
X134986954Y-95178685D01*
X134996701Y-95180228D01*
X135223470Y-95198075D01*
X135233330Y-95198075D01*
X135460099Y-95180228D01*
X135469846Y-95178685D01*
X135691027Y-95125583D01*
X135700412Y-95122534D01*
X135910563Y-95035487D01*
X135919358Y-95031005D01*
X136086845Y-94928368D01*
X136096307Y-94917910D01*
X136092524Y-94909134D01*
X135241212Y-94057822D01*
X135227268Y-94050208D01*
X135225435Y-94050339D01*
X135218820Y-94054590D01*
X134367320Y-94906090D01*
X134360560Y-94918470D01*
X132615565Y-94918470D01*
X132528201Y-94863347D01*
X132330441Y-94784449D01*
X132324781Y-94783323D01*
X132324777Y-94783322D01*
X132127282Y-94744038D01*
X132127280Y-94744038D01*
X132121615Y-94742911D01*
X132115840Y-94742835D01*
X132115836Y-94742835D01*
X132009161Y-94741439D01*
X131908716Y-94740124D01*
X131903019Y-94741103D01*
X131903018Y-94741103D01*
X131704564Y-94775203D01*
X131704561Y-94775204D01*
X131698874Y-94776181D01*
X131499116Y-94849875D01*
X131316134Y-94958739D01*
X131156054Y-95099125D01*
X131024238Y-95266333D01*
X131021549Y-95271444D01*
X131021547Y-95271447D01*
X130974012Y-95361796D01*
X130925100Y-95454762D01*
X130923386Y-95460283D01*
X130923384Y-95460287D01*
X130895638Y-95549644D01*
X130861961Y-95658102D01*
X130836936Y-95869544D01*
X125630670Y-95869544D01*
X125622471Y-94918470D01*
X127860560Y-94918470D01*
X127866287Y-94926120D01*
X128037442Y-95031005D01*
X128046237Y-95035487D01*
X128256388Y-95122534D01*
X128265773Y-95125583D01*
X128486954Y-95178685D01*
X128496701Y-95180228D01*
X128723470Y-95198075D01*
X128733330Y-95198075D01*
X128960099Y-95180228D01*
X128969846Y-95178685D01*
X129191027Y-95125583D01*
X129200412Y-95122534D01*
X129410563Y-95035487D01*
X129419358Y-95031005D01*
X129586845Y-94928368D01*
X129596307Y-94917910D01*
X129592524Y-94909134D01*
X128741212Y-94057822D01*
X128727268Y-94050208D01*
X128725435Y-94050339D01*
X128718820Y-94054590D01*
X127867320Y-94906090D01*
X127860560Y-94918470D01*
X125622471Y-94918470D01*
X125611887Y-93690730D01*
X127216125Y-93690730D01*
X127233972Y-93917499D01*
X127235515Y-93927246D01*
X127288617Y-94148427D01*
X127291666Y-94157812D01*
X127378713Y-94367963D01*
X127383195Y-94376758D01*
X127485832Y-94544245D01*
X127496290Y-94553707D01*
X127505066Y-94549924D01*
X128356378Y-93698612D01*
X128362756Y-93686932D01*
X129092808Y-93686932D01*
X129092939Y-93688765D01*
X129097190Y-93695380D01*
X129948690Y-94546880D01*
X129961070Y-94553640D01*
X129968720Y-94547913D01*
X130073605Y-94376758D01*
X130078087Y-94367963D01*
X130165134Y-94157812D01*
X130168183Y-94148427D01*
X130221285Y-93927246D01*
X130222828Y-93917499D01*
X130240675Y-93690730D01*
X133716125Y-93690730D01*
X133733972Y-93917499D01*
X133735515Y-93927246D01*
X133788617Y-94148427D01*
X133791666Y-94157812D01*
X133878713Y-94367963D01*
X133883195Y-94376758D01*
X133985832Y-94544245D01*
X133996290Y-94553707D01*
X134005066Y-94549924D01*
X134856378Y-93698612D01*
X134862756Y-93686932D01*
X135592808Y-93686932D01*
X135592939Y-93688765D01*
X135597190Y-93695380D01*
X136448690Y-94546880D01*
X136461070Y-94553640D01*
X136468720Y-94547913D01*
X136573605Y-94376758D01*
X136578087Y-94367963D01*
X136665134Y-94157812D01*
X136668183Y-94148427D01*
X136721285Y-93927246D01*
X136722828Y-93917499D01*
X136740675Y-93690730D01*
X136740675Y-93680870D01*
X136722828Y-93454101D01*
X136721285Y-93444354D01*
X136668183Y-93223173D01*
X136665134Y-93213788D01*
X136578087Y-93003637D01*
X136573605Y-92994842D01*
X136470968Y-92827355D01*
X136460510Y-92817893D01*
X136451734Y-92821676D01*
X135600422Y-93672988D01*
X135592808Y-93686932D01*
X134862756Y-93686932D01*
X134863992Y-93684668D01*
X134863861Y-93682835D01*
X134859610Y-93676220D01*
X134008110Y-92824720D01*
X133995730Y-92817960D01*
X133988080Y-92823687D01*
X133883195Y-92994842D01*
X133878713Y-93003637D01*
X133791666Y-93213788D01*
X133788617Y-93223173D01*
X133735515Y-93444354D01*
X133733972Y-93454101D01*
X133716125Y-93680870D01*
X133716125Y-93690730D01*
X130240675Y-93690730D01*
X130240675Y-93680870D01*
X130222828Y-93454101D01*
X130221285Y-93444354D01*
X130168183Y-93223173D01*
X130165134Y-93213788D01*
X130078087Y-93003637D01*
X130073605Y-92994842D01*
X129970968Y-92827355D01*
X129960510Y-92817893D01*
X129951734Y-92821676D01*
X129100422Y-93672988D01*
X129092808Y-93686932D01*
X128362756Y-93686932D01*
X128363992Y-93684668D01*
X128363861Y-93682835D01*
X128359610Y-93676220D01*
X127508110Y-92824720D01*
X127495730Y-92817960D01*
X127488080Y-92823687D01*
X127383195Y-92994842D01*
X127378713Y-93003637D01*
X127291666Y-93213788D01*
X127288617Y-93223173D01*
X127235515Y-93444354D01*
X127233972Y-93454101D01*
X127216125Y-93680870D01*
X127216125Y-93690730D01*
X125611887Y-93690730D01*
X125608963Y-93351605D01*
X125610705Y-93329616D01*
X125612769Y-93317349D01*
X125612769Y-93317348D01*
X125613576Y-93312552D01*
X125613729Y-93300000D01*
X125612542Y-93291709D01*
X125611748Y-93262870D01*
X125614797Y-93228029D01*
X125622603Y-93138804D01*
X125626417Y-93117178D01*
X125665443Y-92971534D01*
X125672954Y-92950896D01*
X125736678Y-92814240D01*
X125747660Y-92795220D01*
X125834147Y-92671703D01*
X125848265Y-92654878D01*
X125954878Y-92548265D01*
X125971703Y-92534147D01*
X126095220Y-92447660D01*
X126114240Y-92436678D01*
X126250896Y-92372954D01*
X126271534Y-92365443D01*
X126417178Y-92326417D01*
X126438806Y-92322603D01*
X126495341Y-92317656D01*
X126559393Y-92312053D01*
X126575871Y-92312607D01*
X126575876Y-92312200D01*
X126584853Y-92312310D01*
X126593724Y-92313691D01*
X126602626Y-92312527D01*
X126602628Y-92312527D01*
X126617677Y-92310559D01*
X126625286Y-92309564D01*
X126641621Y-92308500D01*
X127734979Y-92308500D01*
X127803100Y-92328502D01*
X127849593Y-92382158D01*
X127858475Y-92449008D01*
X127864276Y-92462466D01*
X128715588Y-93313778D01*
X128729532Y-93321392D01*
X128731365Y-93321261D01*
X128737980Y-93317010D01*
X129589480Y-92465510D01*
X129597095Y-92451565D01*
X129596517Y-92443488D01*
X129611609Y-92374114D01*
X129661811Y-92323912D01*
X129722196Y-92308500D01*
X134234979Y-92308500D01*
X134303100Y-92328502D01*
X134349593Y-92382158D01*
X134358475Y-92449008D01*
X134364276Y-92462466D01*
X135215588Y-93313778D01*
X135229532Y-93321392D01*
X135231365Y-93321261D01*
X135237980Y-93317010D01*
X136089480Y-92465510D01*
X136097095Y-92451565D01*
X136096517Y-92443488D01*
X136111609Y-92374114D01*
X136161811Y-92323912D01*
X136222196Y-92308500D01*
X136691377Y-92308500D01*
X136692148Y-92308502D01*
X136769721Y-92308976D01*
X136798152Y-92300850D01*
X136814915Y-92297272D01*
X136844187Y-92293080D01*
X136867564Y-92282451D01*
X136885087Y-92276004D01*
X136909771Y-92268949D01*
X136917365Y-92264157D01*
X136917368Y-92264156D01*
X136934780Y-92253170D01*
X136949865Y-92245030D01*
X136976782Y-92232792D01*
X136996235Y-92216030D01*
X137011239Y-92204927D01*
X137032958Y-92191224D01*
X137038897Y-92184499D01*
X137038901Y-92184496D01*
X137052532Y-92169062D01*
X137064724Y-92157018D01*
X137080327Y-92143573D01*
X137080329Y-92143570D01*
X137087127Y-92137713D01*
X137101094Y-92116165D01*
X137112385Y-92101291D01*
X137123431Y-92088783D01*
X137123432Y-92088782D01*
X137129378Y-92082049D01*
X137141943Y-92055287D01*
X137150263Y-92040309D01*
X137161471Y-92023017D01*
X137161473Y-92023012D01*
X137166352Y-92015485D01*
X137168922Y-92006892D01*
X137168924Y-92006887D01*
X137173711Y-91990880D01*
X137180372Y-91973436D01*
X137187467Y-91958324D01*
X137187468Y-91958322D01*
X137191281Y-91950200D01*
X137195830Y-91920983D01*
X137199613Y-91904268D01*
X137205515Y-91884534D01*
X137205516Y-91884528D01*
X137208086Y-91875934D01*
X137208296Y-91841494D01*
X137208329Y-91840711D01*
X137208500Y-91839614D01*
X137208500Y-91808623D01*
X137208502Y-91807853D01*
X137208952Y-91734215D01*
X137208952Y-91734214D01*
X137208976Y-91730279D01*
X137208592Y-91728935D01*
X137208500Y-91727590D01*
X137208500Y-87023270D01*
X140641091Y-87023270D01*
X140650971Y-87035757D01*
X140676222Y-87052629D01*
X140686330Y-87058117D01*
X140858598Y-87132129D01*
X140869531Y-87135681D01*
X141052398Y-87177060D01*
X141063807Y-87178562D01*
X141251155Y-87185922D01*
X141262637Y-87185320D01*
X141448191Y-87158417D01*
X141459374Y-87155732D01*
X141636911Y-87095467D01*
X141647426Y-87090785D01*
X141749662Y-87033530D01*
X141759526Y-87023452D01*
X141756571Y-87015781D01*
X141212812Y-86472022D01*
X141198868Y-86464408D01*
X141197035Y-86464539D01*
X141190420Y-86468790D01*
X140647287Y-87011923D01*
X140641091Y-87023270D01*
X137208500Y-87023270D01*
X137208500Y-86077295D01*
X140113111Y-86077295D01*
X140125373Y-86264376D01*
X140127174Y-86275746D01*
X140173323Y-86457462D01*
X140177164Y-86468308D01*
X140255658Y-86638574D01*
X140261410Y-86648538D01*
X140263725Y-86651813D01*
X140274314Y-86660203D01*
X140287616Y-86653174D01*
X140827978Y-86112812D01*
X140835592Y-86098868D01*
X140835461Y-86097035D01*
X140831210Y-86090420D01*
X140287054Y-85546264D01*
X140274674Y-85539504D01*
X140268708Y-85543970D01*
X140197841Y-85678668D01*
X140193440Y-85689292D01*
X140137841Y-85868350D01*
X140135449Y-85879604D01*
X140113412Y-86065794D01*
X140113111Y-86077295D01*
X137208500Y-86077295D01*
X137208500Y-85603891D01*
X137228502Y-85535770D01*
X137282158Y-85489277D01*
X137352432Y-85479173D01*
X137400335Y-85496459D01*
X137463268Y-85535025D01*
X137463278Y-85535030D01*
X137467498Y-85537616D01*
X137472068Y-85539509D01*
X137472072Y-85539511D01*
X137627500Y-85603891D01*
X137701409Y-85634505D01*
X137786032Y-85654821D01*
X137942784Y-85692454D01*
X137942790Y-85692455D01*
X137947597Y-85693609D01*
X138200000Y-85713474D01*
X138452403Y-85693609D01*
X138457210Y-85692455D01*
X138457216Y-85692454D01*
X138613968Y-85654821D01*
X138698591Y-85634505D01*
X138772500Y-85603891D01*
X138927928Y-85539511D01*
X138927932Y-85539509D01*
X138932502Y-85537616D01*
X139148376Y-85405328D01*
X139340898Y-85240898D01*
X139505328Y-85048376D01*
X139637616Y-84832502D01*
X139646636Y-84810727D01*
X139732611Y-84603164D01*
X139732612Y-84603162D01*
X139734505Y-84598591D01*
X139768347Y-84457629D01*
X139792454Y-84357216D01*
X139792455Y-84357210D01*
X139793609Y-84352403D01*
X139813474Y-84100000D01*
X139793609Y-83847597D01*
X139791132Y-83837276D01*
X139735660Y-83606221D01*
X139734505Y-83601409D01*
X139732611Y-83596836D01*
X139639511Y-83372072D01*
X139639509Y-83372068D01*
X139637616Y-83367498D01*
X139635031Y-83363279D01*
X139635025Y-83363268D01*
X139596459Y-83300335D01*
X139577920Y-83231802D01*
X139599376Y-83164125D01*
X139654015Y-83118792D01*
X139703891Y-83108500D01*
X140352403Y-83108500D01*
X140420524Y-83128502D01*
G37*
G04 #@! TD.AperFunction*
G04 #@! TA.AperFunction,Conductor*
G36*
X158533855Y-105866347D02*
G01*
X158578918Y-105895308D01*
X159718875Y-107035265D01*
X159752901Y-107097577D01*
X159747836Y-107168392D01*
X159723141Y-107208976D01*
X159710200Y-107223255D01*
X159673015Y-107264282D01*
X159664282Y-107273015D01*
X159529661Y-107395028D01*
X159465757Y-107425953D01*
X159395275Y-107417420D01*
X159355952Y-107390762D01*
X158219708Y-106254518D01*
X158185682Y-106192206D01*
X158190747Y-106121391D01*
X158219708Y-106076328D01*
X158400728Y-105895308D01*
X158463040Y-105861282D01*
X158533855Y-105866347D01*
G37*
G04 #@! TD.AperFunction*
G04 #@! TA.AperFunction,Conductor*
G36*
X127761409Y-105866347D02*
G01*
X127806472Y-105895308D01*
X127987492Y-106076328D01*
X128021518Y-106138640D01*
X128016453Y-106209455D01*
X127987492Y-106254518D01*
X126915234Y-107326776D01*
X126852922Y-107360802D01*
X126782107Y-107355737D01*
X126737044Y-107326776D01*
X126584299Y-107174031D01*
X126575473Y-107164230D01*
X126550170Y-107132983D01*
X126522845Y-107067455D01*
X126535285Y-106997557D01*
X126558996Y-106964594D01*
X127628282Y-105895308D01*
X127690594Y-105861282D01*
X127761409Y-105866347D01*
G37*
G04 #@! TD.AperFunction*
M02*
