G04 #@! TF.GenerationSoftware,KiCad,Pcbnew,(6.0.10)*
G04 #@! TF.CreationDate,2023-07-05T14:15:12+02:00*
G04 #@! TF.ProjectId,USB-Tag,5553422d-5461-4672-9e6b-696361645f70,rev?*
G04 #@! TF.SameCoordinates,Original*
G04 #@! TF.FileFunction,Copper,L1,Top*
G04 #@! TF.FilePolarity,Positive*
%FSLAX46Y46*%
G04 Gerber Fmt 4.6, Leading zero omitted, Abs format (unit mm)*
G04 Created by KiCad (PCBNEW (6.0.10)) date 2023-07-05 14:15:12*
%MOMM*%
%LPD*%
G01*
G04 APERTURE LIST*
G04 Aperture macros list*
%AMRoundRect*
0 Rectangle with rounded corners*
0 $1 Rounding radius*
0 $2 $3 $4 $5 $6 $7 $8 $9 X,Y pos of 4 corners*
0 Add a 4 corners polygon primitive as box body*
4,1,4,$2,$3,$4,$5,$6,$7,$8,$9,$2,$3,0*
0 Add four circle primitives for the rounded corners*
1,1,$1+$1,$2,$3*
1,1,$1+$1,$4,$5*
1,1,$1+$1,$6,$7*
1,1,$1+$1,$8,$9*
0 Add four rect primitives between the rounded corners*
20,1,$1+$1,$2,$3,$4,$5,0*
20,1,$1+$1,$4,$5,$6,$7,0*
20,1,$1+$1,$6,$7,$8,$9,0*
20,1,$1+$1,$8,$9,$2,$3,0*%
%AMFreePoly0*
4,1,22,0.500000,-0.750000,0.000000,-0.750000,0.000000,-0.745033,-0.079941,-0.743568,-0.215256,-0.701293,-0.333266,-0.622738,-0.424486,-0.514219,-0.481581,-0.384460,-0.499164,-0.250000,-0.500000,-0.250000,-0.500000,0.250000,-0.499164,0.250000,-0.499963,0.256109,-0.478152,0.396186,-0.417904,0.524511,-0.324060,0.630769,-0.204165,0.706417,-0.067858,0.745374,0.000000,0.744959,0.000000,0.750000,
0.500000,0.750000,0.500000,-0.750000,0.500000,-0.750000,$1*%
%AMFreePoly1*
4,1,20,0.000000,0.744959,0.073905,0.744508,0.209726,0.703889,0.328688,0.626782,0.421226,0.519385,0.479903,0.390333,0.500000,0.250000,0.500000,-0.250000,0.499851,-0.262216,0.476331,-0.402017,0.414519,-0.529596,0.319384,-0.634700,0.198574,-0.708877,0.061801,-0.746166,0.000000,-0.745033,0.000000,-0.750000,-0.500000,-0.750000,-0.500000,0.750000,0.000000,0.750000,0.000000,0.744959,
0.000000,0.744959,$1*%
G04 Aperture macros list end*
G04 #@! TA.AperFunction,SMDPad,CuDef*
%ADD10RoundRect,0.135000X-0.185000X0.135000X-0.185000X-0.135000X0.185000X-0.135000X0.185000X0.135000X0*%
G04 #@! TD*
G04 #@! TA.AperFunction,SMDPad,CuDef*
%ADD11FreePoly0,90.000000*%
G04 #@! TD*
G04 #@! TA.AperFunction,SMDPad,CuDef*
%ADD12FreePoly1,90.000000*%
G04 #@! TD*
G04 #@! TA.AperFunction,SMDPad,CuDef*
%ADD13R,0.600000X1.140000*%
G04 #@! TD*
G04 #@! TA.AperFunction,SMDPad,CuDef*
%ADD14R,0.300000X1.140000*%
G04 #@! TD*
G04 #@! TA.AperFunction,ComponentPad*
%ADD15O,0.900000X2.000000*%
G04 #@! TD*
G04 #@! TA.AperFunction,ComponentPad*
%ADD16O,0.900000X1.700000*%
G04 #@! TD*
G04 #@! TA.AperFunction,SMDPad,CuDef*
%ADD17RoundRect,0.150000X0.150000X-0.512500X0.150000X0.512500X-0.150000X0.512500X-0.150000X-0.512500X0*%
G04 #@! TD*
G04 #@! TA.AperFunction,SMDPad,CuDef*
%ADD18RoundRect,0.135000X-0.135000X-0.185000X0.135000X-0.185000X0.135000X0.185000X-0.135000X0.185000X0*%
G04 #@! TD*
G04 #@! TA.AperFunction,SMDPad,CuDef*
%ADD19RoundRect,0.140000X0.170000X-0.140000X0.170000X0.140000X-0.170000X0.140000X-0.170000X-0.140000X0*%
G04 #@! TD*
G04 #@! TA.AperFunction,ComponentPad*
%ADD20C,2.000000*%
G04 #@! TD*
G04 #@! TA.AperFunction,ComponentPad*
%ADD21C,0.800000*%
G04 #@! TD*
G04 #@! TA.AperFunction,ComponentPad*
%ADD22C,7.000000*%
G04 #@! TD*
G04 #@! TA.AperFunction,SMDPad,CuDef*
%ADD23RoundRect,0.135000X0.135000X0.185000X-0.135000X0.185000X-0.135000X-0.185000X0.135000X-0.185000X0*%
G04 #@! TD*
G04 #@! TA.AperFunction,SMDPad,CuDef*
%ADD24R,0.450000X0.600000*%
G04 #@! TD*
G04 #@! TA.AperFunction,SMDPad,CuDef*
%ADD25RoundRect,0.140000X-0.140000X-0.170000X0.140000X-0.170000X0.140000X0.170000X-0.140000X0.170000X0*%
G04 #@! TD*
G04 #@! TA.AperFunction,SMDPad,CuDef*
%ADD26RoundRect,0.140000X0.140000X0.170000X-0.140000X0.170000X-0.140000X-0.170000X0.140000X-0.170000X0*%
G04 #@! TD*
G04 #@! TA.AperFunction,SMDPad,CuDef*
%ADD27RoundRect,0.140000X-0.170000X0.140000X-0.170000X-0.140000X0.170000X-0.140000X0.170000X0.140000X0*%
G04 #@! TD*
G04 #@! TA.AperFunction,SMDPad,CuDef*
%ADD28R,0.600000X0.450000*%
G04 #@! TD*
G04 #@! TA.AperFunction,ComponentPad*
%ADD29R,1.150000X1.150000*%
G04 #@! TD*
G04 #@! TA.AperFunction,ComponentPad*
%ADD30C,1.150000*%
G04 #@! TD*
G04 #@! TA.AperFunction,ViaPad*
%ADD31C,0.800000*%
G04 #@! TD*
G04 #@! TA.AperFunction,Conductor*
%ADD32C,0.250000*%
G04 #@! TD*
G04 #@! TA.AperFunction,Conductor*
%ADD33C,0.500000*%
G04 #@! TD*
G04 #@! TA.AperFunction,Conductor*
%ADD34C,0.200000*%
G04 #@! TD*
G04 APERTURE END LIST*
G36*
X151200000Y-105850000D02*
G01*
X150600000Y-105850000D01*
X150600000Y-105350000D01*
X151200000Y-105350000D01*
X151200000Y-105850000D01*
G37*
D10*
X150350000Y-102240000D03*
X150350000Y-103260000D03*
X151400000Y-102240000D03*
X151400000Y-103260000D03*
D11*
X150900000Y-106250000D03*
D12*
X150900000Y-104950000D03*
D13*
X139500000Y-102600000D03*
X140300000Y-102600000D03*
D14*
X141450000Y-102600000D03*
X142450000Y-102600000D03*
X142950000Y-102600000D03*
X143950000Y-102600000D03*
D13*
X145100000Y-102600000D03*
X145900000Y-102600000D03*
D14*
X144450000Y-102600000D03*
X143450000Y-102600000D03*
X141950000Y-102600000D03*
X140950000Y-102600000D03*
D15*
X138375000Y-103180000D03*
X147025000Y-103180000D03*
D16*
X138375000Y-107350000D03*
X147025000Y-107350000D03*
D17*
X141925000Y-96844700D03*
X142875000Y-96844700D03*
X143825000Y-96844700D03*
X143825000Y-94569700D03*
X141925000Y-94569700D03*
D18*
X141857000Y-92862400D03*
X142877000Y-92862400D03*
D19*
X145161000Y-97459800D03*
X145161000Y-96499800D03*
D20*
X135228400Y-93685800D03*
X128728400Y-93685800D03*
X135228400Y-98185800D03*
X128728400Y-98185800D03*
D21*
X130938955Y-102943845D03*
X127226645Y-102943845D03*
X129082800Y-102175000D03*
X126457800Y-104800000D03*
X129082800Y-107425000D03*
D22*
X129082800Y-104800000D03*
D21*
X130938955Y-106656155D03*
X131707800Y-104800000D03*
X127226645Y-106656155D03*
D23*
X144810000Y-92887800D03*
X143790000Y-92887800D03*
D19*
X146202400Y-97482600D03*
X146202400Y-96522600D03*
D24*
X141859000Y-98568800D03*
X141859000Y-100668800D03*
D21*
X157124400Y-102175000D03*
X154499400Y-104800000D03*
X159749400Y-104800000D03*
X158980555Y-102943845D03*
X158980555Y-106656155D03*
X157124400Y-107425000D03*
D22*
X157124400Y-104800000D03*
D21*
X155268245Y-106656155D03*
X155268245Y-102943845D03*
D20*
X150750000Y-93685800D03*
X157250000Y-93685800D03*
X157250000Y-98185800D03*
X150750000Y-98185800D03*
D25*
X139440000Y-99734800D03*
X140400000Y-99734800D03*
D26*
X140400000Y-100700000D03*
X139440000Y-100700000D03*
D27*
X137400000Y-92620000D03*
X137400000Y-93580000D03*
D28*
X144350000Y-91200000D03*
X142250000Y-91200000D03*
D29*
X145200000Y-86100000D03*
D30*
X145200000Y-84100000D03*
X143200000Y-86100000D03*
X143200000Y-84100000D03*
X141200000Y-86100000D03*
X141200000Y-84100000D03*
D31*
X139000000Y-98600000D03*
X145150000Y-99500000D03*
X144250500Y-100822460D03*
X149347550Y-102527049D03*
X145500000Y-94250000D03*
D32*
X141800000Y-104650000D02*
X141450000Y-104300000D01*
X148250000Y-103601016D02*
X147201016Y-104650000D01*
X147201016Y-104650000D02*
X141800000Y-104650000D01*
X148250000Y-102600000D02*
X148250000Y-103601016D01*
X141450000Y-104300000D02*
X141450000Y-102600000D01*
X149205000Y-101645000D02*
X148250000Y-102600000D01*
X151400000Y-102240000D02*
X150805000Y-101645000D01*
X149634599Y-102240000D02*
X149347550Y-102527049D01*
X150805000Y-101645000D02*
X149205000Y-101645000D01*
X150350000Y-102240000D02*
X149634599Y-102240000D01*
D33*
X139449586Y-98600000D02*
X139000000Y-98600000D01*
X140384998Y-99719798D02*
X140384998Y-99535412D01*
X140384998Y-99535412D02*
X139449586Y-98600000D01*
X140400000Y-99734800D02*
X140384998Y-99719798D01*
X145100000Y-99550000D02*
X145150000Y-99500000D01*
X145100000Y-102600000D02*
X145100000Y-99550000D01*
X145900000Y-99951375D02*
X145900000Y-102600000D01*
X146202400Y-97482600D02*
X146202400Y-99648975D01*
D32*
X144450000Y-102600000D02*
X144450000Y-101021960D01*
D33*
X146202400Y-99648975D02*
X145900000Y-99951375D01*
D32*
X144450000Y-101021960D02*
X144250500Y-100822460D01*
D33*
X140300000Y-100800000D02*
X140300000Y-102600000D01*
X140400000Y-100700000D02*
X140300000Y-100800000D01*
X139440000Y-102540000D02*
X139500000Y-102600000D01*
X139440000Y-100700000D02*
X139440000Y-102540000D01*
D32*
X150350000Y-104400000D02*
X150900000Y-104950000D01*
X150350000Y-103260000D02*
X150350000Y-104400000D01*
X150350000Y-103260000D02*
X151400000Y-103260000D01*
D34*
X142450000Y-101280000D02*
X141950000Y-101780000D01*
X142450000Y-100142000D02*
X142450000Y-101280000D01*
X142208000Y-99900000D02*
X142450000Y-100142000D01*
X141650000Y-99900000D02*
X142208000Y-99900000D01*
X140325000Y-84975000D02*
X140325000Y-98575000D01*
X141200000Y-84100000D02*
X140325000Y-84975000D01*
X142325000Y-86211730D02*
X142325000Y-84975000D01*
X140325000Y-98575000D02*
X141650000Y-99900000D01*
X141287000Y-87249730D02*
X142325000Y-86211730D01*
X141950000Y-101780000D02*
X141950000Y-102600000D01*
X141287000Y-98972020D02*
X141287000Y-87249730D01*
X141483780Y-99168800D02*
X141287000Y-98972020D01*
X142048980Y-99168800D02*
X141483780Y-99168800D01*
X143450000Y-102600000D02*
X143450000Y-100569820D01*
X142325000Y-84975000D02*
X143200000Y-84100000D01*
X143450000Y-100569820D02*
X142048980Y-99168800D01*
D33*
X144350000Y-86950000D02*
X145200000Y-86100000D01*
X144350000Y-91200000D02*
X144350000Y-86950000D01*
D32*
X146476667Y-93912467D02*
X146476667Y-85376667D01*
X150750000Y-98185800D02*
X146476667Y-93912467D01*
X150750000Y-98185800D02*
X157250000Y-98185800D01*
X146476667Y-85376667D02*
X145200000Y-84100000D01*
X128728400Y-98185800D02*
X135228400Y-98185800D01*
X137400000Y-96014200D02*
X135228400Y-98185800D01*
X137400000Y-93580000D02*
X137400000Y-96014200D01*
X144810000Y-92887800D02*
X144810000Y-93560000D01*
X144192800Y-95557200D02*
X145500000Y-94250000D01*
X142875000Y-96460449D02*
X143778249Y-95557200D01*
X142875000Y-96844700D02*
X142875000Y-96460449D01*
X144810000Y-93560000D02*
X145500000Y-94250000D01*
X143778249Y-95557200D02*
X144192800Y-95557200D01*
D33*
X140400000Y-99734800D02*
X140400000Y-100700000D01*
X140431200Y-100668800D02*
X140400000Y-100700000D01*
X141859000Y-100668800D02*
X140431200Y-100668800D01*
D32*
X145183800Y-96522600D02*
X145161000Y-96499800D01*
X144169900Y-96499800D02*
X143825000Y-96844700D01*
D33*
X141859000Y-98568800D02*
X141859000Y-96910700D01*
D32*
X143825000Y-97228951D02*
X142485151Y-98568800D01*
D33*
X141859000Y-96910700D02*
X141925000Y-96844700D01*
D32*
X143825000Y-96844700D02*
X143825000Y-97228951D01*
X142485151Y-98568800D02*
X141859000Y-98568800D01*
X146202400Y-96522600D02*
X145183800Y-96522600D01*
X145161000Y-96499800D02*
X144169900Y-96499800D01*
D33*
X141925000Y-92930400D02*
X141857000Y-92862400D01*
X141857000Y-91593000D02*
X141857000Y-92862400D01*
X142250000Y-91200000D02*
X141857000Y-91593000D01*
X141925000Y-94569700D02*
X141925000Y-92930400D01*
D32*
X143764600Y-92862400D02*
X143790000Y-92887800D01*
X143790000Y-92887800D02*
X143790000Y-94534700D01*
X143790000Y-94534700D02*
X143825000Y-94569700D01*
X142877000Y-92862400D02*
X143764600Y-92862400D01*
G04 #@! TA.AperFunction,Conductor*
G36*
X139685133Y-85059474D02*
G01*
X139715086Y-85123843D01*
X139716500Y-85142664D01*
X139716500Y-97723859D01*
X139696498Y-97791980D01*
X139642842Y-97838473D01*
X139572568Y-97848577D01*
X139560552Y-97846248D01*
X139559312Y-97845945D01*
X139543976Y-97842192D01*
X139535333Y-97841656D01*
X139534013Y-97841181D01*
X139532828Y-97841001D01*
X139532863Y-97840768D01*
X139469070Y-97817832D01*
X139456752Y-97808882D01*
X139450722Y-97806197D01*
X139288319Y-97733891D01*
X139288318Y-97733891D01*
X139282288Y-97731206D01*
X139188887Y-97711353D01*
X139101944Y-97692872D01*
X139101939Y-97692872D01*
X139095487Y-97691500D01*
X138904513Y-97691500D01*
X138898061Y-97692872D01*
X138898056Y-97692872D01*
X138811113Y-97711353D01*
X138717712Y-97731206D01*
X138711682Y-97733891D01*
X138711681Y-97733891D01*
X138549278Y-97806197D01*
X138549276Y-97806198D01*
X138543248Y-97808882D01*
X138388747Y-97921134D01*
X138260960Y-98063056D01*
X138257659Y-98068774D01*
X138185033Y-98194566D01*
X138165473Y-98228444D01*
X138106458Y-98410072D01*
X138105768Y-98416633D01*
X138105768Y-98416635D01*
X138104645Y-98427324D01*
X138086496Y-98600000D01*
X138087186Y-98606565D01*
X138092589Y-98657967D01*
X138106458Y-98789928D01*
X138165473Y-98971556D01*
X138260960Y-99136944D01*
X138388747Y-99278866D01*
X138543248Y-99391118D01*
X138549277Y-99393802D01*
X138549280Y-99393804D01*
X138590979Y-99412369D01*
X138645075Y-99458349D01*
X138649872Y-99469889D01*
X138657581Y-99477709D01*
X138669513Y-99480800D01*
X138760950Y-99480800D01*
X138787147Y-99483553D01*
X138898056Y-99507128D01*
X138898061Y-99507128D01*
X138904513Y-99508500D01*
X139095487Y-99508500D01*
X139111320Y-99505135D01*
X139185198Y-99489432D01*
X139255988Y-99494834D01*
X139300489Y-99523584D01*
X139574595Y-99797690D01*
X139608621Y-99860002D01*
X139611500Y-99886785D01*
X139611500Y-99970284D01*
X139611693Y-99972732D01*
X139611693Y-99972740D01*
X139613184Y-99991676D01*
X139614394Y-100007054D01*
X139616187Y-100013226D01*
X139616188Y-100013231D01*
X139636497Y-100083133D01*
X139641500Y-100118286D01*
X139641500Y-100316514D01*
X139636497Y-100351667D01*
X139616188Y-100421569D01*
X139616187Y-100421574D01*
X139614394Y-100427746D01*
X139613890Y-100434153D01*
X139613889Y-100434157D01*
X139611993Y-100458256D01*
X139598598Y-100505673D01*
X139584231Y-100533808D01*
X139582492Y-100540914D01*
X139580393Y-100546559D01*
X139578476Y-100552322D01*
X139575378Y-100558950D01*
X139573888Y-100566112D01*
X139573888Y-100566113D01*
X139560514Y-100630412D01*
X139559544Y-100634696D01*
X139542192Y-100705610D01*
X139541500Y-100716764D01*
X139541464Y-100716762D01*
X139541225Y-100720755D01*
X139540851Y-100724947D01*
X139539360Y-100732115D01*
X139539558Y-100739432D01*
X139541454Y-100809521D01*
X139541500Y-100812928D01*
X139541500Y-101781487D01*
X139533482Y-101825716D01*
X139518128Y-101866674D01*
X139498255Y-101919684D01*
X139497402Y-101927534D01*
X139497402Y-101927535D01*
X139497263Y-101928815D01*
X139496877Y-101929745D01*
X139495574Y-101935223D01*
X139494688Y-101935012D01*
X139470021Y-101994377D01*
X139411659Y-102034804D01*
X139340704Y-102037260D01*
X139279686Y-102000965D01*
X139247977Y-101937443D01*
X139246000Y-101915208D01*
X139246000Y-101576115D01*
X139241526Y-101560876D01*
X139229488Y-101550446D01*
X139191104Y-101490720D01*
X139186000Y-101455221D01*
X139186000Y-100972115D01*
X139181525Y-100956876D01*
X139180135Y-100955671D01*
X139172452Y-100954000D01*
X138671576Y-100954000D01*
X138656781Y-100958344D01*
X138654937Y-100968775D01*
X138656688Y-100978359D01*
X138698357Y-101121784D01*
X138704604Y-101136220D01*
X138779876Y-101263499D01*
X138789516Y-101275926D01*
X138894074Y-101380484D01*
X138906501Y-101390124D01*
X138911804Y-101393260D01*
X138960258Y-101445152D01*
X138972964Y-101515003D01*
X138945890Y-101580634D01*
X138923232Y-101602541D01*
X138844276Y-101661715D01*
X138831716Y-101674275D01*
X138829652Y-101677029D01*
X138826917Y-101679074D01*
X138825365Y-101680626D01*
X138825141Y-101680402D01*
X138772793Y-101719545D01*
X138697065Y-101723396D01*
X138562360Y-101688309D01*
X138522393Y-101677898D01*
X138438403Y-101673496D01*
X138334317Y-101668041D01*
X138334313Y-101668041D01*
X138327936Y-101667707D01*
X138172587Y-101691201D01*
X138141715Y-101695870D01*
X138141714Y-101695870D01*
X138135401Y-101696825D01*
X138129415Y-101699028D01*
X138129409Y-101699029D01*
X137958640Y-101761860D01*
X137958635Y-101761862D01*
X137952654Y-101764063D01*
X137878346Y-101810136D01*
X137805961Y-101855017D01*
X137787160Y-101866674D01*
X137645678Y-102000466D01*
X137642016Y-102005696D01*
X137642015Y-102005697D01*
X137618048Y-102039926D01*
X137533989Y-102159975D01*
X137531452Y-102165838D01*
X137474434Y-102297600D01*
X137456655Y-102338684D01*
X137455350Y-102344931D01*
X137455349Y-102344934D01*
X137428681Y-102472591D01*
X137416835Y-102529293D01*
X137416500Y-102535685D01*
X137416500Y-103778663D01*
X137431235Y-103923727D01*
X137443454Y-103962718D01*
X137487556Y-104103451D01*
X137487558Y-104103456D01*
X137489465Y-104109541D01*
X137512084Y-104150346D01*
X137563696Y-104243455D01*
X137583870Y-104279850D01*
X137588019Y-104284691D01*
X137588022Y-104284695D01*
X137655926Y-104363919D01*
X137710591Y-104427698D01*
X137715633Y-104431609D01*
X137715634Y-104431610D01*
X137775578Y-104478107D01*
X137864453Y-104547046D01*
X137870176Y-104549862D01*
X137870179Y-104549864D01*
X138009839Y-104618585D01*
X138039171Y-104633018D01*
X138045349Y-104634627D01*
X138045351Y-104634628D01*
X138221425Y-104680492D01*
X138221428Y-104680492D01*
X138227607Y-104682102D01*
X138311597Y-104686504D01*
X138415683Y-104691959D01*
X138415687Y-104691959D01*
X138422064Y-104692293D01*
X138577413Y-104668799D01*
X138608285Y-104664130D01*
X138608286Y-104664130D01*
X138614599Y-104663175D01*
X138620585Y-104660972D01*
X138620591Y-104660971D01*
X138791360Y-104598140D01*
X138791365Y-104598138D01*
X138797346Y-104595937D01*
X138952244Y-104499896D01*
X138957418Y-104496688D01*
X138957419Y-104496687D01*
X138962840Y-104493326D01*
X138996940Y-104461080D01*
X139099685Y-104363919D01*
X139104322Y-104359534D01*
X139122901Y-104333001D01*
X139178355Y-104288674D01*
X139248975Y-104281365D01*
X139294527Y-104302437D01*
X139295771Y-104300507D01*
X139448238Y-104398765D01*
X139454858Y-104401174D01*
X139454861Y-104401176D01*
X139591559Y-104450930D01*
X139618685Y-104460803D01*
X139758769Y-104478500D01*
X139855610Y-104478500D01*
X139990255Y-104463397D01*
X139997704Y-104460803D01*
X140154894Y-104406064D01*
X140154897Y-104406062D01*
X140161552Y-104403745D01*
X140169522Y-104398765D01*
X140309402Y-104311359D01*
X140315376Y-104307626D01*
X140320373Y-104302664D01*
X140439085Y-104184778D01*
X140439088Y-104184774D01*
X140444082Y-104179815D01*
X140541273Y-104026666D01*
X140571801Y-103940933D01*
X140613495Y-103883469D01*
X140679638Y-103857669D01*
X140749229Y-103871724D01*
X140800175Y-103921172D01*
X140816500Y-103983200D01*
X140816500Y-104221233D01*
X140815973Y-104232416D01*
X140814298Y-104239909D01*
X140814547Y-104247835D01*
X140814547Y-104247836D01*
X140816438Y-104307986D01*
X140816500Y-104311945D01*
X140816500Y-104339856D01*
X140816997Y-104343790D01*
X140816997Y-104343791D01*
X140817005Y-104343856D01*
X140817938Y-104355693D01*
X140819327Y-104399889D01*
X140822830Y-104411945D01*
X140824978Y-104419339D01*
X140828987Y-104438700D01*
X140831526Y-104458797D01*
X140834445Y-104466168D01*
X140834445Y-104466170D01*
X140847804Y-104499912D01*
X140851649Y-104511142D01*
X140861771Y-104545983D01*
X140863982Y-104553593D01*
X140868015Y-104560412D01*
X140868017Y-104560417D01*
X140874293Y-104571028D01*
X140882988Y-104588776D01*
X140890448Y-104607617D01*
X140895110Y-104614033D01*
X140895110Y-104614034D01*
X140916436Y-104643387D01*
X140922952Y-104653307D01*
X140945458Y-104691362D01*
X140951064Y-104696969D01*
X140959780Y-104705685D01*
X140972620Y-104720718D01*
X140984528Y-104737107D01*
X140990635Y-104742159D01*
X141018593Y-104765288D01*
X141027374Y-104773278D01*
X141296353Y-105042258D01*
X141303887Y-105050537D01*
X141308000Y-105057018D01*
X141329095Y-105076827D01*
X141357652Y-105103644D01*
X141360494Y-105106399D01*
X141380230Y-105126135D01*
X141383427Y-105128615D01*
X141392447Y-105136318D01*
X141424679Y-105166586D01*
X141431625Y-105170405D01*
X141431628Y-105170407D01*
X141442434Y-105176348D01*
X141458953Y-105187199D01*
X141474959Y-105199614D01*
X141482228Y-105202759D01*
X141482232Y-105202762D01*
X141515537Y-105217174D01*
X141526187Y-105222391D01*
X141564940Y-105243695D01*
X141572615Y-105245666D01*
X141572616Y-105245666D01*
X141584562Y-105248733D01*
X141603267Y-105255137D01*
X141621855Y-105263181D01*
X141629678Y-105264420D01*
X141629688Y-105264423D01*
X141665524Y-105270099D01*
X141677144Y-105272505D01*
X141708959Y-105280673D01*
X141719970Y-105283500D01*
X141740224Y-105283500D01*
X141759934Y-105285051D01*
X141779943Y-105288220D01*
X141787835Y-105287474D01*
X141806580Y-105285702D01*
X141823962Y-105284059D01*
X141835819Y-105283500D01*
X147122249Y-105283500D01*
X147133432Y-105284027D01*
X147140925Y-105285702D01*
X147148851Y-105285453D01*
X147148852Y-105285453D01*
X147209002Y-105283562D01*
X147212961Y-105283500D01*
X147240872Y-105283500D01*
X147244807Y-105283003D01*
X147244872Y-105282995D01*
X147256709Y-105282062D01*
X147288967Y-105281048D01*
X147292986Y-105280922D01*
X147300905Y-105280673D01*
X147320359Y-105275021D01*
X147339716Y-105271013D01*
X147351946Y-105269468D01*
X147351947Y-105269468D01*
X147359813Y-105268474D01*
X147367184Y-105265555D01*
X147367186Y-105265555D01*
X147400928Y-105252196D01*
X147412158Y-105248351D01*
X147446999Y-105238229D01*
X147447000Y-105238229D01*
X147454609Y-105236018D01*
X147461428Y-105231985D01*
X147461433Y-105231983D01*
X147472044Y-105225707D01*
X147489792Y-105217012D01*
X147508633Y-105209552D01*
X147544403Y-105183564D01*
X147554323Y-105177048D01*
X147585551Y-105158580D01*
X147585554Y-105158578D01*
X147592378Y-105154542D01*
X147606699Y-105140221D01*
X147621733Y-105127380D01*
X147631710Y-105120131D01*
X147638123Y-105115472D01*
X147666314Y-105081395D01*
X147674304Y-105072616D01*
X148642247Y-104104673D01*
X148650537Y-104097129D01*
X148657018Y-104093016D01*
X148703659Y-104043348D01*
X148706413Y-104040507D01*
X148726134Y-104020786D01*
X148728612Y-104017591D01*
X148736318Y-104008569D01*
X148761158Y-103982117D01*
X148766586Y-103976337D01*
X148776346Y-103958584D01*
X148787199Y-103942061D01*
X148794753Y-103932322D01*
X148799613Y-103926057D01*
X148817176Y-103885473D01*
X148822383Y-103874843D01*
X148843695Y-103836076D01*
X148845666Y-103828399D01*
X148845668Y-103828394D01*
X148848732Y-103816458D01*
X148855138Y-103797746D01*
X148860034Y-103786433D01*
X148863181Y-103779161D01*
X148870097Y-103735497D01*
X148872504Y-103723876D01*
X148881528Y-103688727D01*
X148881528Y-103688726D01*
X148883500Y-103681046D01*
X148883500Y-103660785D01*
X148885051Y-103641074D01*
X148886979Y-103628901D01*
X148888219Y-103621073D01*
X148884059Y-103577062D01*
X148883500Y-103565205D01*
X148883500Y-103508941D01*
X148903502Y-103440820D01*
X148957158Y-103394327D01*
X149027432Y-103384223D01*
X149052811Y-103391543D01*
X149052950Y-103391117D01*
X149059230Y-103393157D01*
X149065262Y-103395843D01*
X149158662Y-103415696D01*
X149245606Y-103434177D01*
X149245611Y-103434177D01*
X149252063Y-103435549D01*
X149412069Y-103435549D01*
X149480190Y-103455551D01*
X149526683Y-103509207D01*
X149533066Y-103526396D01*
X149566991Y-103643165D01*
X149569731Y-103652596D01*
X149573766Y-103659418D01*
X149573766Y-103659419D01*
X149585335Y-103678981D01*
X149652494Y-103792541D01*
X149679595Y-103819642D01*
X149713621Y-103881954D01*
X149716500Y-103908737D01*
X149716500Y-104321233D01*
X149715973Y-104332416D01*
X149714298Y-104339909D01*
X149714547Y-104347835D01*
X149714547Y-104347836D01*
X149716438Y-104407986D01*
X149716500Y-104411945D01*
X149716500Y-104439856D01*
X149716997Y-104443790D01*
X149716997Y-104443791D01*
X149717005Y-104443856D01*
X149717938Y-104455693D01*
X149719294Y-104498826D01*
X149719327Y-104499890D01*
X149719145Y-104499896D01*
X149709632Y-104568459D01*
X149699252Y-104590924D01*
X149686182Y-104634628D01*
X149662835Y-104712698D01*
X149658216Y-104728142D01*
X149657554Y-104732574D01*
X149657553Y-104732577D01*
X149637350Y-104867765D01*
X149636688Y-104872196D01*
X149635813Y-105015417D01*
X149636148Y-105017861D01*
X149636271Y-105021656D01*
X149636271Y-105450000D01*
X149641500Y-105523111D01*
X149682696Y-105663411D01*
X149687567Y-105670990D01*
X149756878Y-105778841D01*
X149756880Y-105778844D01*
X149761750Y-105786421D01*
X149768560Y-105792322D01*
X149865445Y-105876274D01*
X149865448Y-105876276D01*
X149872257Y-105882176D01*
X150005266Y-105942919D01*
X150150000Y-105963729D01*
X150611047Y-105963729D01*
X150611047Y-105963727D01*
X150614015Y-105963318D01*
X150710438Y-105964497D01*
X150714723Y-105963937D01*
X150721760Y-105963729D01*
X151111047Y-105963729D01*
X151111047Y-105963727D01*
X151114015Y-105963318D01*
X151210438Y-105964497D01*
X151214723Y-105963937D01*
X151221760Y-105963729D01*
X151650000Y-105963729D01*
X151681986Y-105961441D01*
X151716373Y-105958982D01*
X151716374Y-105958982D01*
X151723111Y-105958500D01*
X151802618Y-105935155D01*
X151854765Y-105919843D01*
X151854767Y-105919842D01*
X151863411Y-105917304D01*
X151927255Y-105876274D01*
X151978841Y-105843122D01*
X151978844Y-105843120D01*
X151986421Y-105838250D01*
X152031331Y-105786421D01*
X152076274Y-105734555D01*
X152076276Y-105734552D01*
X152082176Y-105727743D01*
X152142919Y-105594734D01*
X152163729Y-105450000D01*
X152163729Y-104962678D01*
X152163750Y-104960369D01*
X152164830Y-104901453D01*
X152164912Y-104896980D01*
X152154428Y-104812812D01*
X152147460Y-104756872D01*
X152147459Y-104756868D01*
X152146907Y-104752435D01*
X152145442Y-104747061D01*
X153112065Y-104747061D01*
X153125532Y-105132706D01*
X153126047Y-105138838D01*
X153177085Y-105521347D01*
X153178192Y-105527383D01*
X153266313Y-105903090D01*
X153268008Y-105909000D01*
X153392368Y-106274306D01*
X153394635Y-106280031D01*
X153554043Y-106631444D01*
X153556865Y-106636934D01*
X153749807Y-106971119D01*
X153753137Y-106976287D01*
X153977775Y-107290059D01*
X153981597Y-107294881D01*
X154104433Y-107435195D01*
X154117647Y-107443593D01*
X154127443Y-107437747D01*
X156752378Y-104812812D01*
X156759992Y-104798868D01*
X156759861Y-104797035D01*
X156755610Y-104790420D01*
X154128302Y-102163112D01*
X154114358Y-102155498D01*
X154113812Y-102155537D01*
X154105455Y-102161136D01*
X154052477Y-102218347D01*
X154048532Y-102223049D01*
X153815221Y-102530426D01*
X153811743Y-102535504D01*
X153609541Y-102864179D01*
X153606576Y-102869572D01*
X153437414Y-103216406D01*
X153434988Y-103222064D01*
X153300476Y-103583758D01*
X153298618Y-103589615D01*
X153200040Y-103962718D01*
X153198765Y-103968718D01*
X153137067Y-104349648D01*
X153136380Y-104355776D01*
X153112151Y-104740886D01*
X153112065Y-104747061D01*
X152145442Y-104747061D01*
X152109234Y-104614255D01*
X152107451Y-104610134D01*
X152053173Y-104484704D01*
X152053171Y-104484699D01*
X152051388Y-104480580D01*
X151976448Y-104358528D01*
X151973584Y-104355078D01*
X151886270Y-104249907D01*
X151886268Y-104249905D01*
X151883408Y-104246460D01*
X151822914Y-104191703D01*
X151785833Y-104131159D01*
X151787371Y-104060179D01*
X151827040Y-104001299D01*
X151843328Y-103989836D01*
X151982541Y-103907506D01*
X152097506Y-103792541D01*
X152164665Y-103678981D01*
X152176234Y-103659419D01*
X152176234Y-103659418D01*
X152180269Y-103652596D01*
X152183617Y-103641074D01*
X152208841Y-103554250D01*
X152225629Y-103496466D01*
X152228500Y-103459989D01*
X152228499Y-103060012D01*
X152225629Y-103023534D01*
X152180269Y-102867404D01*
X152176233Y-102860579D01*
X152176231Y-102860575D01*
X152148769Y-102814139D01*
X152131309Y-102745323D01*
X152148769Y-102685861D01*
X152176231Y-102639425D01*
X152176233Y-102639421D01*
X152180269Y-102632596D01*
X152194974Y-102581983D01*
X152223834Y-102482644D01*
X152225629Y-102476466D01*
X152228500Y-102439989D01*
X152228499Y-102040012D01*
X152225629Y-102003534D01*
X152187141Y-101871056D01*
X152182481Y-101855017D01*
X152182480Y-101855015D01*
X152180269Y-101847404D01*
X152154794Y-101804327D01*
X152148281Y-101793314D01*
X154480734Y-101793314D01*
X154486484Y-101802874D01*
X157111588Y-104427978D01*
X157125532Y-104435592D01*
X157127365Y-104435461D01*
X157133980Y-104431210D01*
X159760863Y-101804327D01*
X159768477Y-101790383D01*
X159768455Y-101790072D01*
X159762604Y-101781406D01*
X159684543Y-101710127D01*
X159679816Y-101706217D01*
X159370819Y-101475059D01*
X159365713Y-101471614D01*
X159035635Y-101271711D01*
X159030222Y-101268784D01*
X158682208Y-101102044D01*
X158676541Y-101099662D01*
X158313926Y-100967682D01*
X158308038Y-100965860D01*
X157934276Y-100869893D01*
X157928254Y-100868657D01*
X157546885Y-100809618D01*
X157540797Y-100808978D01*
X157155485Y-100787436D01*
X157149333Y-100787393D01*
X156763787Y-100803552D01*
X156757661Y-100804109D01*
X156375523Y-100857815D01*
X156369470Y-100858970D01*
X155994400Y-100949709D01*
X155988503Y-100951445D01*
X155624081Y-101078350D01*
X155618368Y-101080658D01*
X155268067Y-101242519D01*
X155262613Y-101245371D01*
X154929776Y-101440646D01*
X154924628Y-101444015D01*
X154612425Y-101670843D01*
X154607647Y-101674684D01*
X154489111Y-101779926D01*
X154480734Y-101793314D01*
X152148281Y-101793314D01*
X152101540Y-101714280D01*
X152097506Y-101707459D01*
X151982541Y-101592494D01*
X151863342Y-101522000D01*
X151849419Y-101513766D01*
X151849418Y-101513766D01*
X151842596Y-101509731D01*
X151834985Y-101507520D01*
X151834983Y-101507519D01*
X151716594Y-101473124D01*
X151686466Y-101464371D01*
X151680059Y-101463867D01*
X151680055Y-101463866D01*
X151652444Y-101461693D01*
X151652438Y-101461693D01*
X151649989Y-101461500D01*
X151569595Y-101461500D01*
X151501474Y-101441498D01*
X151480500Y-101424595D01*
X151308652Y-101252747D01*
X151301112Y-101244461D01*
X151297000Y-101237982D01*
X151271034Y-101213598D01*
X151247349Y-101191357D01*
X151244507Y-101188602D01*
X151224770Y-101168865D01*
X151221573Y-101166385D01*
X151212551Y-101158680D01*
X151199122Y-101146069D01*
X151180321Y-101128414D01*
X151173375Y-101124595D01*
X151173372Y-101124593D01*
X151162566Y-101118652D01*
X151146047Y-101107801D01*
X151145583Y-101107441D01*
X151130041Y-101095386D01*
X151122772Y-101092241D01*
X151122768Y-101092238D01*
X151089463Y-101077826D01*
X151078813Y-101072609D01*
X151040060Y-101051305D01*
X151020437Y-101046267D01*
X151001734Y-101039863D01*
X150990420Y-101034967D01*
X150990419Y-101034967D01*
X150983145Y-101031819D01*
X150975322Y-101030580D01*
X150975312Y-101030577D01*
X150939476Y-101024901D01*
X150927856Y-101022495D01*
X150892711Y-101013472D01*
X150892710Y-101013472D01*
X150885030Y-101011500D01*
X150864776Y-101011500D01*
X150845065Y-101009949D01*
X150832886Y-101008020D01*
X150825057Y-101006780D01*
X150795786Y-101009547D01*
X150781039Y-101010941D01*
X150769181Y-101011500D01*
X149283767Y-101011500D01*
X149272584Y-101010973D01*
X149265091Y-101009298D01*
X149257165Y-101009547D01*
X149257164Y-101009547D01*
X149197001Y-101011438D01*
X149193043Y-101011500D01*
X149165144Y-101011500D01*
X149161154Y-101012004D01*
X149149320Y-101012936D01*
X149105111Y-101014326D01*
X149097497Y-101016538D01*
X149097492Y-101016539D01*
X149085659Y-101019977D01*
X149066296Y-101023988D01*
X149046203Y-101026526D01*
X149038836Y-101029443D01*
X149038831Y-101029444D01*
X149005092Y-101042802D01*
X148993865Y-101046646D01*
X148951407Y-101058982D01*
X148944581Y-101063019D01*
X148933972Y-101069293D01*
X148916224Y-101077988D01*
X148897383Y-101085448D01*
X148890967Y-101090110D01*
X148890966Y-101090110D01*
X148861613Y-101111436D01*
X148851693Y-101117952D01*
X148820465Y-101136420D01*
X148820462Y-101136422D01*
X148813638Y-101140458D01*
X148799317Y-101154779D01*
X148784284Y-101167619D01*
X148767893Y-101179528D01*
X148762843Y-101185632D01*
X148762838Y-101185637D01*
X148739707Y-101213598D01*
X148731717Y-101222379D01*
X147939027Y-102015068D01*
X147876715Y-102049093D01*
X147805899Y-102044028D01*
X147754264Y-102007969D01*
X147693565Y-101937150D01*
X147693561Y-101937146D01*
X147689409Y-101932302D01*
X147683264Y-101927535D01*
X147589774Y-101855017D01*
X147535547Y-101812954D01*
X147529824Y-101810138D01*
X147529821Y-101810136D01*
X147366556Y-101729800D01*
X147360829Y-101726982D01*
X147354651Y-101725373D01*
X147354649Y-101725372D01*
X147178575Y-101679508D01*
X147178572Y-101679508D01*
X147172393Y-101677898D01*
X147088403Y-101673496D01*
X146984317Y-101668041D01*
X146984313Y-101668041D01*
X146977936Y-101667707D01*
X146822587Y-101691201D01*
X146791715Y-101695870D01*
X146791714Y-101695870D01*
X146785401Y-101696825D01*
X146779413Y-101699028D01*
X146779406Y-101699030D01*
X146716521Y-101722167D01*
X146645683Y-101726917D01*
X146583523Y-101692615D01*
X146572189Y-101679483D01*
X146568292Y-101674283D01*
X146555721Y-101661712D01*
X146453649Y-101585214D01*
X146438054Y-101576676D01*
X146317606Y-101531522D01*
X146302351Y-101527895D01*
X146251486Y-101522369D01*
X146244672Y-101522000D01*
X146172115Y-101522000D01*
X146156876Y-101526475D01*
X146155671Y-101527865D01*
X146154000Y-101535548D01*
X146154000Y-101915208D01*
X146133998Y-101983329D01*
X146080342Y-102029822D01*
X146010068Y-102039926D01*
X145945488Y-102010432D01*
X145907104Y-101950706D01*
X145902737Y-101928815D01*
X145902598Y-101927535D01*
X145902598Y-101927534D01*
X145901745Y-101919684D01*
X145881873Y-101866674D01*
X145866518Y-101825716D01*
X145858500Y-101781487D01*
X145858500Y-100118744D01*
X145878502Y-100050623D01*
X145882564Y-100044683D01*
X145884621Y-100041852D01*
X145889040Y-100036944D01*
X145928952Y-99967815D01*
X145981223Y-99877279D01*
X145981224Y-99877278D01*
X145984527Y-99871556D01*
X146043542Y-99689928D01*
X146044510Y-99680723D01*
X146062814Y-99506565D01*
X146063504Y-99500000D01*
X146053705Y-99406765D01*
X146044232Y-99316635D01*
X146044232Y-99316633D01*
X146043542Y-99310072D01*
X145984527Y-99128444D01*
X145889040Y-98963056D01*
X145813775Y-98879465D01*
X145765675Y-98826045D01*
X145765674Y-98826044D01*
X145761253Y-98821134D01*
X145606752Y-98708882D01*
X145600724Y-98706198D01*
X145600722Y-98706197D01*
X145438319Y-98633891D01*
X145438318Y-98633891D01*
X145432288Y-98631206D01*
X145316362Y-98606565D01*
X145251944Y-98592872D01*
X145251939Y-98592872D01*
X145245487Y-98591500D01*
X145054513Y-98591500D01*
X145048061Y-98592872D01*
X145048056Y-98592872D01*
X144983638Y-98606565D01*
X144867712Y-98631206D01*
X144861682Y-98633891D01*
X144861681Y-98633891D01*
X144699278Y-98706197D01*
X144699276Y-98706198D01*
X144693248Y-98708882D01*
X144538747Y-98821134D01*
X144534326Y-98826044D01*
X144534325Y-98826045D01*
X144486226Y-98879465D01*
X144410960Y-98963056D01*
X144315473Y-99128444D01*
X144256458Y-99310072D01*
X144255768Y-99316633D01*
X144255768Y-99316635D01*
X144246295Y-99406765D01*
X144236496Y-99500000D01*
X144237186Y-99506565D01*
X144255491Y-99680723D01*
X144256458Y-99689928D01*
X144275660Y-99749025D01*
X144277688Y-99819990D01*
X144241026Y-99880789D01*
X144177314Y-99912114D01*
X144168143Y-99912902D01*
X144168182Y-99913270D01*
X144161615Y-99913960D01*
X144155013Y-99913960D01*
X144148561Y-99915332D01*
X144148556Y-99915332D01*
X144061613Y-99933813D01*
X143968212Y-99953666D01*
X143962182Y-99956351D01*
X143962181Y-99956351D01*
X143857859Y-100002798D01*
X143787492Y-100012232D01*
X143723195Y-99982125D01*
X143717515Y-99976786D01*
X142936661Y-99195932D01*
X142902635Y-99133620D01*
X142907700Y-99062805D01*
X142928670Y-99026523D01*
X142950448Y-99000197D01*
X142958439Y-98991416D01*
X143897250Y-98052605D01*
X143959562Y-98018579D01*
X143986345Y-98015700D01*
X144041502Y-98015700D01*
X144043950Y-98015507D01*
X144043958Y-98015507D01*
X144072421Y-98013267D01*
X144072426Y-98013266D01*
X144078831Y-98012762D01*
X144191569Y-97980009D01*
X144230988Y-97968557D01*
X144230990Y-97968556D01*
X144238601Y-97966345D01*
X144290427Y-97935695D01*
X144359240Y-97918237D01*
X144426571Y-97940754D01*
X144463015Y-97980009D01*
X144470872Y-97993294D01*
X144480516Y-98005726D01*
X144585074Y-98110284D01*
X144597501Y-98119924D01*
X144724780Y-98195196D01*
X144739216Y-98201443D01*
X144882641Y-98243112D01*
X144890609Y-98244568D01*
X144904031Y-98241748D01*
X144907000Y-98230287D01*
X144907000Y-98228224D01*
X145415000Y-98228224D01*
X145419344Y-98243019D01*
X145429775Y-98244863D01*
X145439359Y-98243112D01*
X145582784Y-98201443D01*
X145597219Y-98195196D01*
X145598283Y-98194567D01*
X145599226Y-98194328D01*
X145604494Y-98192048D01*
X145604862Y-98192898D01*
X145667099Y-98177107D01*
X145726562Y-98194566D01*
X145766180Y-98217996D01*
X145780616Y-98224243D01*
X145924041Y-98265912D01*
X145932009Y-98267368D01*
X145945431Y-98264548D01*
X145948400Y-98253087D01*
X145948400Y-98251024D01*
X146456400Y-98251024D01*
X146460744Y-98265819D01*
X146471175Y-98267663D01*
X146480759Y-98265912D01*
X146624184Y-98224243D01*
X146638620Y-98217996D01*
X146765899Y-98142724D01*
X146778326Y-98133084D01*
X146882884Y-98028526D01*
X146892524Y-98016099D01*
X146967796Y-97888820D01*
X146974043Y-97874384D01*
X147009019Y-97753995D01*
X147008979Y-97739895D01*
X147001709Y-97736600D01*
X146474515Y-97736600D01*
X146459276Y-97741075D01*
X146458071Y-97742465D01*
X146456400Y-97750148D01*
X146456400Y-98251024D01*
X145948400Y-98251024D01*
X145948400Y-97754715D01*
X145943925Y-97739476D01*
X145942535Y-97738271D01*
X145934852Y-97736600D01*
X145433115Y-97736600D01*
X145417876Y-97741075D01*
X145416671Y-97742465D01*
X145415000Y-97750148D01*
X145415000Y-98228224D01*
X144907000Y-98228224D01*
X144907000Y-97414300D01*
X144927002Y-97346179D01*
X144980658Y-97299686D01*
X145033000Y-97288300D01*
X145396484Y-97288300D01*
X145398932Y-97288107D01*
X145398940Y-97288107D01*
X145426844Y-97285911D01*
X145426849Y-97285910D01*
X145433254Y-97285406D01*
X145568389Y-97246146D01*
X145582984Y-97241906D01*
X145582986Y-97241905D01*
X145590597Y-97239694D01*
X145597422Y-97235658D01*
X145597426Y-97235656D01*
X145598289Y-97235146D01*
X145599054Y-97234952D01*
X145604697Y-97232510D01*
X145605091Y-97233420D01*
X145667105Y-97217688D01*
X145726562Y-97235147D01*
X145772803Y-97262494D01*
X145780414Y-97264705D01*
X145780416Y-97264706D01*
X145831395Y-97279516D01*
X145930146Y-97308206D01*
X145936551Y-97308710D01*
X145936556Y-97308711D01*
X145964460Y-97310907D01*
X145964468Y-97310907D01*
X145966916Y-97311100D01*
X146437884Y-97311100D01*
X146440332Y-97310907D01*
X146440340Y-97310907D01*
X146468244Y-97308711D01*
X146468249Y-97308710D01*
X146474654Y-97308206D01*
X146573405Y-97279516D01*
X146624384Y-97264706D01*
X146624386Y-97264705D01*
X146631997Y-97262494D01*
X146659640Y-97246146D01*
X146723779Y-97228600D01*
X146995958Y-97228600D01*
X147009489Y-97224627D01*
X147010624Y-97216729D01*
X146974043Y-97090816D01*
X146967795Y-97076378D01*
X146962384Y-97067228D01*
X146944926Y-96998412D01*
X146962385Y-96938953D01*
X146968257Y-96929023D01*
X146972294Y-96922197D01*
X146976597Y-96907388D01*
X147001202Y-96822693D01*
X147018006Y-96764854D01*
X147019287Y-96748589D01*
X147020707Y-96730540D01*
X147020707Y-96730532D01*
X147020900Y-96728084D01*
X147020900Y-96317116D01*
X147020707Y-96314660D01*
X147018511Y-96286756D01*
X147018510Y-96286751D01*
X147018006Y-96280346D01*
X146972294Y-96123003D01*
X146948049Y-96082006D01*
X146892922Y-95988792D01*
X146888888Y-95981971D01*
X146773029Y-95866112D01*
X146710699Y-95829250D01*
X146638820Y-95786741D01*
X146638819Y-95786741D01*
X146631997Y-95782706D01*
X146624386Y-95780495D01*
X146624384Y-95780494D01*
X146553518Y-95759906D01*
X146474654Y-95736994D01*
X146468249Y-95736490D01*
X146468244Y-95736489D01*
X146440340Y-95734293D01*
X146440332Y-95734293D01*
X146437884Y-95734100D01*
X145966916Y-95734100D01*
X145964468Y-95734293D01*
X145964460Y-95734293D01*
X145936556Y-95736489D01*
X145936551Y-95736490D01*
X145930146Y-95736994D01*
X145851282Y-95759906D01*
X145780416Y-95780494D01*
X145780414Y-95780495D01*
X145772803Y-95782706D01*
X145765978Y-95786742D01*
X145765974Y-95786744D01*
X145765111Y-95787254D01*
X145764346Y-95787448D01*
X145758703Y-95789890D01*
X145758309Y-95788980D01*
X145696295Y-95804712D01*
X145636838Y-95787253D01*
X145590597Y-95759906D01*
X145582986Y-95757695D01*
X145582984Y-95757694D01*
X145517911Y-95738789D01*
X145433254Y-95714194D01*
X145426849Y-95713690D01*
X145426844Y-95713689D01*
X145398940Y-95711493D01*
X145398932Y-95711493D01*
X145396484Y-95711300D01*
X144925516Y-95711300D01*
X144923068Y-95711493D01*
X144923060Y-95711493D01*
X144895156Y-95713689D01*
X144895151Y-95713690D01*
X144888746Y-95714194D01*
X144804089Y-95738789D01*
X144739016Y-95757694D01*
X144739014Y-95757695D01*
X144731403Y-95759906D01*
X144724581Y-95763941D01*
X144724580Y-95763941D01*
X144597195Y-95839276D01*
X144597193Y-95839277D01*
X144590371Y-95843312D01*
X144589857Y-95842444D01*
X144530365Y-95865806D01*
X144519217Y-95866300D01*
X144492550Y-95866300D01*
X144424429Y-95846298D01*
X144403455Y-95829395D01*
X144381807Y-95807747D01*
X144377998Y-95805494D01*
X144337345Y-95749204D01*
X144333494Y-95678312D01*
X144368582Y-95616591D01*
X144376276Y-95609924D01*
X144381807Y-95606653D01*
X144499453Y-95489007D01*
X144503489Y-95482183D01*
X144503491Y-95482180D01*
X144572002Y-95366333D01*
X144584145Y-95345801D01*
X144630562Y-95186031D01*
X144631141Y-95178685D01*
X144633307Y-95151158D01*
X144633307Y-95151150D01*
X144633500Y-95148702D01*
X144633500Y-93990698D01*
X144633307Y-93988242D01*
X144631067Y-93959779D01*
X144631066Y-93959774D01*
X144630562Y-93953369D01*
X144584145Y-93793599D01*
X144573312Y-93775281D01*
X144557366Y-93707815D01*
X144556000Y-93707815D01*
X144556000Y-93689700D01*
X145064000Y-93689700D01*
X145067973Y-93703231D01*
X145075871Y-93704366D01*
X145194783Y-93669819D01*
X145209222Y-93663570D01*
X145335405Y-93588946D01*
X145347841Y-93579299D01*
X145451499Y-93475641D01*
X145461146Y-93463205D01*
X145535770Y-93337022D01*
X145542019Y-93322583D01*
X145583338Y-93180364D01*
X145585637Y-93167777D01*
X145586260Y-93159857D01*
X145583090Y-93144770D01*
X145571626Y-93141800D01*
X145082115Y-93141800D01*
X145066876Y-93146275D01*
X145065671Y-93147665D01*
X145064000Y-93155348D01*
X145064000Y-93689700D01*
X144556000Y-93689700D01*
X144556000Y-93225342D01*
X144561003Y-93190190D01*
X144563834Y-93180447D01*
X144563835Y-93180440D01*
X144565629Y-93174266D01*
X144568185Y-93141800D01*
X144568307Y-93140244D01*
X144568307Y-93140238D01*
X144568500Y-93137789D01*
X144568499Y-92759799D01*
X144588501Y-92691680D01*
X144642156Y-92645187D01*
X144694499Y-92633800D01*
X145569566Y-92633800D01*
X145584361Y-92629456D01*
X145586421Y-92617797D01*
X145585637Y-92607823D01*
X145583338Y-92595236D01*
X145542019Y-92453017D01*
X145535770Y-92438578D01*
X145461146Y-92312395D01*
X145451499Y-92299959D01*
X145347841Y-92196301D01*
X145335405Y-92186654D01*
X145209222Y-92112030D01*
X145194783Y-92105781D01*
X145052572Y-92064465D01*
X145039968Y-92062163D01*
X145017924Y-92060428D01*
X144951583Y-92035143D01*
X144909443Y-91978004D01*
X144904884Y-91907154D01*
X144939353Y-91845087D01*
X144952245Y-91833990D01*
X145006081Y-91793642D01*
X145013261Y-91788261D01*
X145100615Y-91671705D01*
X145151745Y-91535316D01*
X145158500Y-91473134D01*
X145158500Y-90926866D01*
X145158131Y-90923469D01*
X145152598Y-90872534D01*
X145152598Y-90872532D01*
X145151745Y-90864684D01*
X145148972Y-90857285D01*
X145116518Y-90770716D01*
X145108500Y-90726487D01*
X145108500Y-87316371D01*
X145128502Y-87248250D01*
X145145405Y-87227276D01*
X145152276Y-87220405D01*
X145214588Y-87186379D01*
X145241371Y-87183500D01*
X145717167Y-87183500D01*
X145785288Y-87203502D01*
X145831781Y-87257158D01*
X145843167Y-87309500D01*
X145843167Y-93833700D01*
X145842640Y-93844883D01*
X145840965Y-93852376D01*
X145841214Y-93860302D01*
X145841214Y-93860303D01*
X145843105Y-93920453D01*
X145843167Y-93924412D01*
X145843167Y-93952323D01*
X145843664Y-93956257D01*
X145843664Y-93956258D01*
X145843672Y-93956323D01*
X145844605Y-93968160D01*
X145845994Y-94012356D01*
X145851645Y-94031806D01*
X145855654Y-94051167D01*
X145858193Y-94071264D01*
X145861112Y-94078635D01*
X145861112Y-94078637D01*
X145874471Y-94112379D01*
X145878316Y-94123609D01*
X145890649Y-94166060D01*
X145894682Y-94172879D01*
X145894684Y-94172884D01*
X145900960Y-94183495D01*
X145909655Y-94201243D01*
X145917115Y-94220084D01*
X145921777Y-94226500D01*
X145921777Y-94226501D01*
X145943103Y-94255854D01*
X145949619Y-94265774D01*
X145972125Y-94303829D01*
X145986446Y-94318150D01*
X145999286Y-94333183D01*
X146011195Y-94349574D01*
X146044055Y-94376758D01*
X146045272Y-94377765D01*
X146054051Y-94385755D01*
X149275636Y-97607340D01*
X149309662Y-97669652D01*
X149309060Y-97725849D01*
X149262872Y-97918237D01*
X149255465Y-97949089D01*
X149236835Y-98185800D01*
X149255465Y-98422511D01*
X149310895Y-98653394D01*
X149312788Y-98657965D01*
X149312789Y-98657967D01*
X149384807Y-98831834D01*
X149401760Y-98872763D01*
X149404346Y-98876983D01*
X149523241Y-99071002D01*
X149523245Y-99071008D01*
X149525824Y-99075216D01*
X149680031Y-99255769D01*
X149860584Y-99409976D01*
X149864792Y-99412555D01*
X149864798Y-99412559D01*
X150045974Y-99523584D01*
X150063037Y-99534040D01*
X150067607Y-99535933D01*
X150067611Y-99535935D01*
X150277833Y-99623011D01*
X150282406Y-99624905D01*
X150362609Y-99644160D01*
X150508476Y-99679180D01*
X150508482Y-99679181D01*
X150513289Y-99680335D01*
X150750000Y-99698965D01*
X150986711Y-99680335D01*
X150991518Y-99679181D01*
X150991524Y-99679180D01*
X151137391Y-99644160D01*
X151217594Y-99624905D01*
X151222167Y-99623011D01*
X151432389Y-99535935D01*
X151432393Y-99535933D01*
X151436963Y-99534040D01*
X151454026Y-99523584D01*
X151635202Y-99412559D01*
X151635208Y-99412555D01*
X151639416Y-99409976D01*
X151819969Y-99255769D01*
X151974176Y-99075216D01*
X151976755Y-99071008D01*
X151976759Y-99071002D01*
X152094133Y-98879465D01*
X152146781Y-98831834D01*
X152201566Y-98819300D01*
X155798434Y-98819300D01*
X155866555Y-98839302D01*
X155905867Y-98879465D01*
X156023241Y-99071002D01*
X156023245Y-99071008D01*
X156025824Y-99075216D01*
X156180031Y-99255769D01*
X156360584Y-99409976D01*
X156364792Y-99412555D01*
X156364798Y-99412559D01*
X156545974Y-99523584D01*
X156563037Y-99534040D01*
X156567607Y-99535933D01*
X156567611Y-99535935D01*
X156777833Y-99623011D01*
X156782406Y-99624905D01*
X156862609Y-99644160D01*
X157008476Y-99679180D01*
X157008482Y-99679181D01*
X157013289Y-99680335D01*
X157250000Y-99698965D01*
X157486711Y-99680335D01*
X157491518Y-99679181D01*
X157491524Y-99679180D01*
X157637391Y-99644160D01*
X157717594Y-99624905D01*
X157722167Y-99623011D01*
X157932389Y-99535935D01*
X157932393Y-99535933D01*
X157936963Y-99534040D01*
X157954026Y-99523584D01*
X158135202Y-99412559D01*
X158135208Y-99412555D01*
X158139416Y-99409976D01*
X158319969Y-99255769D01*
X158474176Y-99075216D01*
X158476755Y-99071008D01*
X158476759Y-99071002D01*
X158595654Y-98876983D01*
X158598240Y-98872763D01*
X158615194Y-98831834D01*
X158687211Y-98657967D01*
X158687212Y-98657965D01*
X158689105Y-98653394D01*
X158744535Y-98422511D01*
X158763165Y-98185800D01*
X158744535Y-97949089D01*
X158737129Y-97918237D01*
X158697697Y-97753995D01*
X158689105Y-97718206D01*
X158687211Y-97713633D01*
X158600135Y-97503411D01*
X158600133Y-97503407D01*
X158598240Y-97498837D01*
X158552197Y-97423702D01*
X158476759Y-97300598D01*
X158476755Y-97300592D01*
X158474176Y-97296384D01*
X158340968Y-97140418D01*
X158323177Y-97119587D01*
X158319969Y-97115831D01*
X158139416Y-96961624D01*
X158135208Y-96959045D01*
X158135202Y-96959041D01*
X157941183Y-96840146D01*
X157936963Y-96837560D01*
X157932393Y-96835667D01*
X157932389Y-96835665D01*
X157722167Y-96748589D01*
X157722165Y-96748588D01*
X157717594Y-96746695D01*
X157629789Y-96725615D01*
X157491524Y-96692420D01*
X157491518Y-96692419D01*
X157486711Y-96691265D01*
X157250000Y-96672635D01*
X157013289Y-96691265D01*
X157008482Y-96692419D01*
X157008476Y-96692420D01*
X156870211Y-96725615D01*
X156782406Y-96746695D01*
X156777835Y-96748588D01*
X156777833Y-96748589D01*
X156567611Y-96835665D01*
X156567607Y-96835667D01*
X156563037Y-96837560D01*
X156558817Y-96840146D01*
X156364798Y-96959041D01*
X156364792Y-96959045D01*
X156360584Y-96961624D01*
X156180031Y-97115831D01*
X156176823Y-97119587D01*
X156159032Y-97140418D01*
X156025824Y-97296384D01*
X156023245Y-97300592D01*
X156023241Y-97300598D01*
X155905867Y-97492135D01*
X155853219Y-97539766D01*
X155798434Y-97552300D01*
X152201566Y-97552300D01*
X152133445Y-97532298D01*
X152094133Y-97492135D01*
X151976759Y-97300598D01*
X151976755Y-97300592D01*
X151974176Y-97296384D01*
X151840968Y-97140418D01*
X151823177Y-97119587D01*
X151819969Y-97115831D01*
X151639416Y-96961624D01*
X151635208Y-96959045D01*
X151635202Y-96959041D01*
X151441183Y-96840146D01*
X151436963Y-96837560D01*
X151432393Y-96835667D01*
X151432389Y-96835665D01*
X151222167Y-96748589D01*
X151222165Y-96748588D01*
X151217594Y-96746695D01*
X151129789Y-96725615D01*
X150991524Y-96692420D01*
X150991518Y-96692419D01*
X150986711Y-96691265D01*
X150750000Y-96672635D01*
X150513289Y-96691265D01*
X150508482Y-96692419D01*
X150508476Y-96692420D01*
X150342896Y-96732173D01*
X150290049Y-96744860D01*
X150219142Y-96741313D01*
X150171541Y-96711436D01*
X149429649Y-95969544D01*
X153036936Y-95969544D01*
X153038932Y-96000000D01*
X153050861Y-96182006D01*
X153052283Y-96187604D01*
X153052283Y-96187606D01*
X153076454Y-96282777D01*
X153103272Y-96388372D01*
X153105689Y-96393615D01*
X153142389Y-96473223D01*
X153192411Y-96581731D01*
X153315296Y-96755609D01*
X153467809Y-96904181D01*
X153472605Y-96907386D01*
X153472608Y-96907388D01*
X153558430Y-96964732D01*
X153644843Y-97022471D01*
X153650146Y-97024749D01*
X153650149Y-97024751D01*
X153795769Y-97087314D01*
X153840470Y-97106519D01*
X153881624Y-97115831D01*
X154042501Y-97152234D01*
X154042506Y-97152235D01*
X154048138Y-97153509D01*
X154053909Y-97153736D01*
X154053911Y-97153736D01*
X154115252Y-97156146D01*
X154260891Y-97161869D01*
X154266600Y-97161041D01*
X154266604Y-97161041D01*
X154465890Y-97132145D01*
X154465894Y-97132144D01*
X154471605Y-97131316D01*
X154673223Y-97062876D01*
X154858993Y-96958840D01*
X155022693Y-96822693D01*
X155158840Y-96658993D01*
X155262876Y-96473223D01*
X155331316Y-96271605D01*
X155346645Y-96165890D01*
X155361337Y-96064561D01*
X155361337Y-96064559D01*
X155361869Y-96060891D01*
X155363463Y-96000000D01*
X155347787Y-95829395D01*
X155344510Y-95793730D01*
X155344509Y-95793727D01*
X155343981Y-95787976D01*
X155330109Y-95738789D01*
X155287754Y-95588611D01*
X155287753Y-95588609D01*
X155286186Y-95583052D01*
X155277862Y-95566171D01*
X155194570Y-95397273D01*
X155192015Y-95392092D01*
X155064622Y-95221491D01*
X154908271Y-95076963D01*
X154728201Y-94963347D01*
X154615716Y-94918470D01*
X156382160Y-94918470D01*
X156387887Y-94926120D01*
X156559042Y-95031005D01*
X156567837Y-95035487D01*
X156777988Y-95122534D01*
X156787373Y-95125583D01*
X157008554Y-95178685D01*
X157018301Y-95180228D01*
X157245070Y-95198075D01*
X157254930Y-95198075D01*
X157481699Y-95180228D01*
X157491446Y-95178685D01*
X157712627Y-95125583D01*
X157722012Y-95122534D01*
X157932163Y-95035487D01*
X157940958Y-95031005D01*
X158108445Y-94928368D01*
X158117907Y-94917910D01*
X158114124Y-94909134D01*
X157262812Y-94057822D01*
X157248868Y-94050208D01*
X157247035Y-94050339D01*
X157240420Y-94054590D01*
X156388920Y-94906090D01*
X156382160Y-94918470D01*
X154615716Y-94918470D01*
X154530441Y-94884449D01*
X154524781Y-94883323D01*
X154524777Y-94883322D01*
X154327282Y-94844038D01*
X154327280Y-94844038D01*
X154321615Y-94842911D01*
X154315840Y-94842835D01*
X154315836Y-94842835D01*
X154209161Y-94841439D01*
X154108716Y-94840124D01*
X154103019Y-94841103D01*
X154103018Y-94841103D01*
X153904564Y-94875203D01*
X153904561Y-94875204D01*
X153898874Y-94876181D01*
X153699116Y-94949875D01*
X153516134Y-95058739D01*
X153356054Y-95199125D01*
X153224238Y-95366333D01*
X153221549Y-95371444D01*
X153221547Y-95371447D01*
X153180406Y-95449644D01*
X153125100Y-95554762D01*
X153123386Y-95560283D01*
X153123384Y-95560287D01*
X153075752Y-95713689D01*
X153061961Y-95758102D01*
X153036936Y-95969544D01*
X149429649Y-95969544D01*
X148378575Y-94918470D01*
X149882160Y-94918470D01*
X149887887Y-94926120D01*
X150059042Y-95031005D01*
X150067837Y-95035487D01*
X150277988Y-95122534D01*
X150287373Y-95125583D01*
X150508554Y-95178685D01*
X150518301Y-95180228D01*
X150745070Y-95198075D01*
X150754930Y-95198075D01*
X150981699Y-95180228D01*
X150991446Y-95178685D01*
X151212627Y-95125583D01*
X151222012Y-95122534D01*
X151432163Y-95035487D01*
X151440958Y-95031005D01*
X151608445Y-94928368D01*
X151617907Y-94917910D01*
X151614124Y-94909134D01*
X150762812Y-94057822D01*
X150748868Y-94050208D01*
X150747035Y-94050339D01*
X150740420Y-94054590D01*
X149888920Y-94906090D01*
X149882160Y-94918470D01*
X148378575Y-94918470D01*
X147150835Y-93690730D01*
X149237725Y-93690730D01*
X149255572Y-93917499D01*
X149257115Y-93927246D01*
X149310217Y-94148427D01*
X149313266Y-94157812D01*
X149400313Y-94367963D01*
X149404795Y-94376758D01*
X149507432Y-94544245D01*
X149517890Y-94553707D01*
X149526666Y-94549924D01*
X150377978Y-93698612D01*
X150384356Y-93686932D01*
X151114408Y-93686932D01*
X151114539Y-93688765D01*
X151118790Y-93695380D01*
X151970290Y-94546880D01*
X151982670Y-94553640D01*
X151990320Y-94547913D01*
X152095205Y-94376758D01*
X152099687Y-94367963D01*
X152186734Y-94157812D01*
X152189783Y-94148427D01*
X152242885Y-93927246D01*
X152244428Y-93917499D01*
X152262275Y-93690730D01*
X155737725Y-93690730D01*
X155755572Y-93917499D01*
X155757115Y-93927246D01*
X155810217Y-94148427D01*
X155813266Y-94157812D01*
X155900313Y-94367963D01*
X155904795Y-94376758D01*
X156007432Y-94544245D01*
X156017890Y-94553707D01*
X156026666Y-94549924D01*
X156877978Y-93698612D01*
X156884356Y-93686932D01*
X157614408Y-93686932D01*
X157614539Y-93688765D01*
X157618790Y-93695380D01*
X158470290Y-94546880D01*
X158482670Y-94553640D01*
X158490320Y-94547913D01*
X158595205Y-94376758D01*
X158599687Y-94367963D01*
X158686734Y-94157812D01*
X158689783Y-94148427D01*
X158742885Y-93927246D01*
X158744428Y-93917499D01*
X158762275Y-93690730D01*
X158762275Y-93680870D01*
X158744428Y-93454101D01*
X158742885Y-93444354D01*
X158689783Y-93223173D01*
X158686734Y-93213788D01*
X158599687Y-93003637D01*
X158595205Y-92994842D01*
X158492568Y-92827355D01*
X158482110Y-92817893D01*
X158473334Y-92821676D01*
X157622022Y-93672988D01*
X157614408Y-93686932D01*
X156884356Y-93686932D01*
X156885592Y-93684668D01*
X156885461Y-93682835D01*
X156881210Y-93676220D01*
X156029710Y-92824720D01*
X156017330Y-92817960D01*
X156009680Y-92823687D01*
X155904795Y-92994842D01*
X155900313Y-93003637D01*
X155813266Y-93213788D01*
X155810217Y-93223173D01*
X155757115Y-93444354D01*
X155755572Y-93454101D01*
X155737725Y-93680870D01*
X155737725Y-93690730D01*
X152262275Y-93690730D01*
X152262275Y-93680870D01*
X152244428Y-93454101D01*
X152242885Y-93444354D01*
X152189783Y-93223173D01*
X152186734Y-93213788D01*
X152099687Y-93003637D01*
X152095205Y-92994842D01*
X151992568Y-92827355D01*
X151982110Y-92817893D01*
X151973334Y-92821676D01*
X151122022Y-93672988D01*
X151114408Y-93686932D01*
X150384356Y-93686932D01*
X150385592Y-93684668D01*
X150385461Y-93682835D01*
X150381210Y-93676220D01*
X149529710Y-92824720D01*
X149517330Y-92817960D01*
X149509680Y-92823687D01*
X149404795Y-92994842D01*
X149400313Y-93003637D01*
X149313266Y-93213788D01*
X149310217Y-93223173D01*
X149257115Y-93444354D01*
X149255572Y-93454101D01*
X149237725Y-93680870D01*
X149237725Y-93690730D01*
X147150835Y-93690730D01*
X147147072Y-93686967D01*
X147113046Y-93624655D01*
X147110167Y-93597872D01*
X147110167Y-87543633D01*
X147130169Y-87475512D01*
X147183825Y-87429019D01*
X147254099Y-87418915D01*
X147302002Y-87436200D01*
X147370083Y-87477920D01*
X147467498Y-87537616D01*
X147472068Y-87539509D01*
X147472072Y-87539511D01*
X147627500Y-87603891D01*
X147701409Y-87634505D01*
X147786032Y-87654821D01*
X147942784Y-87692454D01*
X147942790Y-87692455D01*
X147947597Y-87693609D01*
X148200000Y-87713474D01*
X148452403Y-87693609D01*
X148457210Y-87692455D01*
X148457216Y-87692454D01*
X148613968Y-87654821D01*
X148698591Y-87634505D01*
X148772500Y-87603891D01*
X148927928Y-87539511D01*
X148927932Y-87539509D01*
X148932502Y-87537616D01*
X148936722Y-87535030D01*
X148936732Y-87535025D01*
X148999665Y-87496459D01*
X149068198Y-87477920D01*
X149135875Y-87499376D01*
X149181208Y-87554015D01*
X149191500Y-87603891D01*
X149191500Y-91691377D01*
X149191498Y-91692147D01*
X149191024Y-91769721D01*
X149193491Y-91778352D01*
X149199150Y-91798153D01*
X149202728Y-91814915D01*
X149206920Y-91844187D01*
X149210634Y-91852355D01*
X149210634Y-91852356D01*
X149217548Y-91867562D01*
X149223996Y-91885086D01*
X149231051Y-91909771D01*
X149235843Y-91917365D01*
X149235844Y-91917368D01*
X149246830Y-91934780D01*
X149254969Y-91949863D01*
X149267208Y-91976782D01*
X149273069Y-91983584D01*
X149283970Y-91996235D01*
X149295073Y-92011239D01*
X149308776Y-92032958D01*
X149315501Y-92038897D01*
X149315504Y-92038901D01*
X149330938Y-92052532D01*
X149342982Y-92064724D01*
X149356427Y-92080327D01*
X149356430Y-92080329D01*
X149362287Y-92087127D01*
X149369816Y-92092007D01*
X149369817Y-92092008D01*
X149383835Y-92101094D01*
X149398709Y-92112385D01*
X149411217Y-92123431D01*
X149417951Y-92129378D01*
X149444711Y-92141942D01*
X149459691Y-92150263D01*
X149476983Y-92161471D01*
X149476988Y-92161473D01*
X149484515Y-92166352D01*
X149493108Y-92168922D01*
X149493113Y-92168924D01*
X149509120Y-92173711D01*
X149526564Y-92180372D01*
X149541676Y-92187467D01*
X149541678Y-92187468D01*
X149549800Y-92191281D01*
X149558667Y-92192662D01*
X149558668Y-92192662D01*
X149568310Y-92194163D01*
X149579017Y-92195830D01*
X149595732Y-92199613D01*
X149615466Y-92205515D01*
X149615472Y-92205516D01*
X149624066Y-92208086D01*
X149633037Y-92208141D01*
X149633038Y-92208141D01*
X149643097Y-92208202D01*
X149658506Y-92208296D01*
X149659289Y-92208329D01*
X149660386Y-92208500D01*
X149691377Y-92208500D01*
X149692147Y-92208502D01*
X149765785Y-92208952D01*
X149765786Y-92208952D01*
X149769721Y-92208976D01*
X149771065Y-92208592D01*
X149772410Y-92208500D01*
X149827841Y-92208500D01*
X149895962Y-92228502D01*
X149942455Y-92282158D01*
X149952559Y-92352432D01*
X149923065Y-92417012D01*
X149893677Y-92441932D01*
X149891554Y-92443233D01*
X149882093Y-92453690D01*
X149885876Y-92462466D01*
X150737188Y-93313778D01*
X150751132Y-93321392D01*
X150752965Y-93321261D01*
X150759580Y-93317010D01*
X151611080Y-92465510D01*
X151617840Y-92453130D01*
X151612114Y-92445481D01*
X151606323Y-92441932D01*
X151558692Y-92389284D01*
X151547086Y-92319242D01*
X151575190Y-92254045D01*
X151634081Y-92214391D01*
X151672159Y-92208500D01*
X156327841Y-92208500D01*
X156395962Y-92228502D01*
X156442455Y-92282158D01*
X156452559Y-92352432D01*
X156423065Y-92417012D01*
X156393677Y-92441932D01*
X156391554Y-92443233D01*
X156382093Y-92453690D01*
X156385876Y-92462466D01*
X157237188Y-93313778D01*
X157251132Y-93321392D01*
X157252965Y-93321261D01*
X157259580Y-93317010D01*
X158111080Y-92465510D01*
X158117840Y-92453130D01*
X158112114Y-92445481D01*
X158106323Y-92441932D01*
X158058692Y-92389284D01*
X158047086Y-92319242D01*
X158075190Y-92254045D01*
X158134081Y-92214391D01*
X158172159Y-92208500D01*
X159550633Y-92208500D01*
X159570018Y-92210000D01*
X159584851Y-92212310D01*
X159584855Y-92212310D01*
X159593724Y-92213691D01*
X159606397Y-92212034D01*
X159633707Y-92211449D01*
X159761194Y-92222603D01*
X159782817Y-92226415D01*
X159885932Y-92254045D01*
X159928466Y-92265442D01*
X159949104Y-92272954D01*
X160085760Y-92336678D01*
X160104780Y-92347660D01*
X160228297Y-92434147D01*
X160245122Y-92448265D01*
X160351735Y-92554878D01*
X160365853Y-92571703D01*
X160452340Y-92695220D01*
X160463322Y-92714240D01*
X160527046Y-92850896D01*
X160534557Y-92871534D01*
X160573583Y-93017178D01*
X160577398Y-93038809D01*
X160587947Y-93159393D01*
X160587393Y-93175871D01*
X160587800Y-93175876D01*
X160587690Y-93184853D01*
X160586309Y-93193724D01*
X160587473Y-93202625D01*
X160587473Y-93202629D01*
X160590795Y-93228029D01*
X160591854Y-93243281D01*
X160671116Y-102437520D01*
X160671418Y-102472591D01*
X160652004Y-102540881D01*
X160598751Y-102587835D01*
X160528567Y-102598544D01*
X160463734Y-102569609D01*
X160444006Y-102548448D01*
X160235947Y-102266244D01*
X160232067Y-102261487D01*
X160144718Y-102164475D01*
X160131197Y-102156145D01*
X160131120Y-102156146D01*
X160121834Y-102161776D01*
X154486947Y-107796663D01*
X154479333Y-107810607D01*
X154479388Y-107811386D01*
X154484742Y-107819436D01*
X154521360Y-107853821D01*
X154526038Y-107857803D01*
X154795961Y-108065671D01*
X154837728Y-108123082D01*
X154841827Y-108193961D01*
X154806955Y-108255803D01*
X154744184Y-108288974D01*
X154719083Y-108291500D01*
X148026897Y-108291500D01*
X147958776Y-108271498D01*
X147912283Y-108217842D01*
X147902179Y-108147568D01*
X147911259Y-108115463D01*
X147943345Y-108041316D01*
X147962460Y-107949818D01*
X147982176Y-107855443D01*
X147982177Y-107855438D01*
X147983165Y-107850707D01*
X147983500Y-107844315D01*
X147983500Y-106901337D01*
X147968765Y-106756273D01*
X147951111Y-106699939D01*
X147912444Y-106576549D01*
X147912442Y-106576544D01*
X147910535Y-106570459D01*
X147816130Y-106400150D01*
X147811981Y-106395309D01*
X147811978Y-106395305D01*
X147693560Y-106257145D01*
X147689409Y-106252302D01*
X147535547Y-106132954D01*
X147529824Y-106130138D01*
X147529821Y-106130136D01*
X147366556Y-106049800D01*
X147360829Y-106046982D01*
X147354651Y-106045373D01*
X147354649Y-106045372D01*
X147178575Y-105999508D01*
X147178572Y-105999508D01*
X147172393Y-105997898D01*
X147088403Y-105993496D01*
X146984317Y-105988041D01*
X146984313Y-105988041D01*
X146977936Y-105987707D01*
X146822587Y-106011201D01*
X146791715Y-106015870D01*
X146791714Y-106015870D01*
X146785401Y-106016825D01*
X146779415Y-106019028D01*
X146779409Y-106019029D01*
X146608640Y-106081860D01*
X146608635Y-106081862D01*
X146602654Y-106084063D01*
X146437160Y-106186674D01*
X146432527Y-106191055D01*
X146432526Y-106191056D01*
X146344491Y-106274306D01*
X146295678Y-106320466D01*
X146292016Y-106325696D01*
X146292015Y-106325697D01*
X146243275Y-106395305D01*
X146183989Y-106479975D01*
X146181452Y-106485838D01*
X146118443Y-106631444D01*
X146106655Y-106658684D01*
X146105350Y-106664931D01*
X146105349Y-106664934D01*
X146080327Y-106784712D01*
X146066835Y-106849293D01*
X146066500Y-106855685D01*
X146066500Y-107798663D01*
X146081235Y-107943727D01*
X146083144Y-107949818D01*
X146138926Y-108127821D01*
X146140210Y-108198806D01*
X146102913Y-108259217D01*
X146038876Y-108289873D01*
X146018692Y-108291500D01*
X139376897Y-108291500D01*
X139308776Y-108271498D01*
X139262283Y-108217842D01*
X139252179Y-108147568D01*
X139261259Y-108115463D01*
X139293345Y-108041316D01*
X139312460Y-107949818D01*
X139332176Y-107855443D01*
X139332177Y-107855438D01*
X139333165Y-107850707D01*
X139333500Y-107844315D01*
X139333500Y-106901337D01*
X139318765Y-106756273D01*
X139301111Y-106699939D01*
X139262444Y-106576549D01*
X139262442Y-106576544D01*
X139260535Y-106570459D01*
X139166130Y-106400150D01*
X139161981Y-106395309D01*
X139161978Y-106395305D01*
X139043560Y-106257145D01*
X139039409Y-106252302D01*
X138885547Y-106132954D01*
X138879824Y-106130138D01*
X138879821Y-106130136D01*
X138716556Y-106049800D01*
X138710829Y-106046982D01*
X138704651Y-106045373D01*
X138704649Y-106045372D01*
X138528575Y-105999508D01*
X138528572Y-105999508D01*
X138522393Y-105997898D01*
X138438403Y-105993496D01*
X138334317Y-105988041D01*
X138334313Y-105988041D01*
X138327936Y-105987707D01*
X138172587Y-106011201D01*
X138141715Y-106015870D01*
X138141714Y-106015870D01*
X138135401Y-106016825D01*
X138129415Y-106019028D01*
X138129409Y-106019029D01*
X137958640Y-106081860D01*
X137958635Y-106081862D01*
X137952654Y-106084063D01*
X137787160Y-106186674D01*
X137782527Y-106191055D01*
X137782526Y-106191056D01*
X137694491Y-106274306D01*
X137645678Y-106320466D01*
X137642016Y-106325696D01*
X137642015Y-106325697D01*
X137593275Y-106395305D01*
X137533989Y-106479975D01*
X137531452Y-106485838D01*
X137468443Y-106631444D01*
X137456655Y-106658684D01*
X137455350Y-106664931D01*
X137455349Y-106664934D01*
X137430327Y-106784712D01*
X137416835Y-106849293D01*
X137416500Y-106855685D01*
X137416500Y-107798663D01*
X137431235Y-107943727D01*
X137433144Y-107949818D01*
X137488926Y-108127821D01*
X137490210Y-108198806D01*
X137452913Y-108259217D01*
X137388876Y-108289873D01*
X137368692Y-108291500D01*
X131483675Y-108291500D01*
X131415554Y-108271498D01*
X131369061Y-108217842D01*
X131358957Y-108147568D01*
X131388451Y-108082988D01*
X131411044Y-108062540D01*
X131550834Y-107963929D01*
X131555672Y-107960149D01*
X131718040Y-107819998D01*
X131726455Y-107806958D01*
X131720516Y-107796926D01*
X128724722Y-104801132D01*
X129447208Y-104801132D01*
X129447339Y-104802965D01*
X129451590Y-104809580D01*
X132080164Y-107438154D01*
X132094108Y-107445768D01*
X132095123Y-107445696D01*
X132102854Y-107440593D01*
X132118367Y-107424302D01*
X132122395Y-107419637D01*
X132359968Y-107115558D01*
X132363522Y-107110518D01*
X132570286Y-106784712D01*
X132573329Y-106779356D01*
X132747320Y-106434910D01*
X132749816Y-106429306D01*
X132889368Y-106069518D01*
X132891309Y-106063684D01*
X132995088Y-105691988D01*
X132996444Y-105686017D01*
X133063460Y-105305959D01*
X133064227Y-105299886D01*
X133093919Y-104914000D01*
X133094096Y-104910085D01*
X133095606Y-104801974D01*
X133095538Y-104798030D01*
X133076632Y-104411489D01*
X133076031Y-104405365D01*
X133019662Y-104023631D01*
X133018462Y-104017569D01*
X132925112Y-103643165D01*
X132923327Y-103637250D01*
X132793882Y-103273727D01*
X132791539Y-103268043D01*
X132627234Y-102918877D01*
X132624345Y-102913443D01*
X132426755Y-102581983D01*
X132423347Y-102576853D01*
X132194347Y-102266244D01*
X132190467Y-102261487D01*
X132103118Y-102164475D01*
X132089597Y-102156145D01*
X132089520Y-102156146D01*
X132080234Y-102161776D01*
X129454822Y-104787188D01*
X129447208Y-104801132D01*
X128724722Y-104801132D01*
X126086702Y-102163112D01*
X126072758Y-102155498D01*
X126072212Y-102155537D01*
X126063855Y-102161136D01*
X126010877Y-102218347D01*
X126006940Y-102223040D01*
X125912228Y-102347818D01*
X125855110Y-102389984D01*
X125784262Y-102394577D01*
X125722178Y-102360138D01*
X125688569Y-102297600D01*
X125685871Y-102272729D01*
X125681738Y-101793314D01*
X126439134Y-101793314D01*
X126444884Y-101802874D01*
X129069988Y-104427978D01*
X129083932Y-104435592D01*
X129085765Y-104435461D01*
X129092380Y-104431210D01*
X131719263Y-101804327D01*
X131726877Y-101790383D01*
X131726855Y-101790072D01*
X131721004Y-101781406D01*
X131642943Y-101710127D01*
X131638216Y-101706217D01*
X131329219Y-101475059D01*
X131324113Y-101471614D01*
X130994035Y-101271711D01*
X130988622Y-101268784D01*
X130640608Y-101102044D01*
X130634941Y-101099662D01*
X130272326Y-100967682D01*
X130266438Y-100965860D01*
X129892676Y-100869893D01*
X129886654Y-100868657D01*
X129505285Y-100809618D01*
X129499197Y-100808978D01*
X129113885Y-100787436D01*
X129107733Y-100787393D01*
X128722187Y-100803552D01*
X128716061Y-100804109D01*
X128333923Y-100857815D01*
X128327870Y-100858970D01*
X127952800Y-100949709D01*
X127946903Y-100951445D01*
X127582481Y-101078350D01*
X127576768Y-101080658D01*
X127226467Y-101242519D01*
X127221013Y-101245371D01*
X126888176Y-101440646D01*
X126883028Y-101444015D01*
X126570825Y-101670843D01*
X126566047Y-101674684D01*
X126447511Y-101779926D01*
X126439134Y-101793314D01*
X125681738Y-101793314D01*
X125666309Y-100003575D01*
X138654937Y-100003575D01*
X138656688Y-100013159D01*
X138698357Y-100156584D01*
X138703020Y-100167359D01*
X138711717Y-100237821D01*
X138703020Y-100267441D01*
X138698357Y-100278216D01*
X138656688Y-100421641D01*
X138655232Y-100429609D01*
X138658052Y-100443031D01*
X138669513Y-100446000D01*
X139167885Y-100446000D01*
X139183124Y-100441525D01*
X139184329Y-100440135D01*
X139186000Y-100432452D01*
X139186000Y-100006915D01*
X139181525Y-99991676D01*
X139180135Y-99990471D01*
X139172452Y-99988800D01*
X138671576Y-99988800D01*
X138656781Y-99993144D01*
X138654937Y-100003575D01*
X125666309Y-100003575D01*
X125650638Y-98185800D01*
X127215235Y-98185800D01*
X127233865Y-98422511D01*
X127289295Y-98653394D01*
X127291188Y-98657965D01*
X127291189Y-98657967D01*
X127363207Y-98831834D01*
X127380160Y-98872763D01*
X127382746Y-98876983D01*
X127501641Y-99071002D01*
X127501645Y-99071008D01*
X127504224Y-99075216D01*
X127658431Y-99255769D01*
X127838984Y-99409976D01*
X127843192Y-99412555D01*
X127843198Y-99412559D01*
X128024374Y-99523584D01*
X128041437Y-99534040D01*
X128046007Y-99535933D01*
X128046011Y-99535935D01*
X128256233Y-99623011D01*
X128260806Y-99624905D01*
X128341009Y-99644160D01*
X128486876Y-99679180D01*
X128486882Y-99679181D01*
X128491689Y-99680335D01*
X128728400Y-99698965D01*
X128965111Y-99680335D01*
X128969918Y-99679181D01*
X128969924Y-99679180D01*
X129115791Y-99644160D01*
X129195994Y-99624905D01*
X129200567Y-99623011D01*
X129410789Y-99535935D01*
X129410793Y-99535933D01*
X129415363Y-99534040D01*
X129432426Y-99523584D01*
X129613602Y-99412559D01*
X129613608Y-99412555D01*
X129617816Y-99409976D01*
X129798369Y-99255769D01*
X129952576Y-99075216D01*
X129955155Y-99071008D01*
X129955159Y-99071002D01*
X130072533Y-98879465D01*
X130125181Y-98831834D01*
X130179966Y-98819300D01*
X133776834Y-98819300D01*
X133844955Y-98839302D01*
X133884267Y-98879465D01*
X134001641Y-99071002D01*
X134001645Y-99071008D01*
X134004224Y-99075216D01*
X134158431Y-99255769D01*
X134338984Y-99409976D01*
X134343192Y-99412555D01*
X134343198Y-99412559D01*
X134524374Y-99523584D01*
X134541437Y-99534040D01*
X134546007Y-99535933D01*
X134546011Y-99535935D01*
X134756233Y-99623011D01*
X134760806Y-99624905D01*
X134841009Y-99644160D01*
X134986876Y-99679180D01*
X134986882Y-99679181D01*
X134991689Y-99680335D01*
X135228400Y-99698965D01*
X135465111Y-99680335D01*
X135469918Y-99679181D01*
X135469924Y-99679180D01*
X135615791Y-99644160D01*
X135695994Y-99624905D01*
X135700567Y-99623011D01*
X135910789Y-99535935D01*
X135910793Y-99535933D01*
X135915363Y-99534040D01*
X135932426Y-99523584D01*
X136113602Y-99412559D01*
X136113608Y-99412555D01*
X136117816Y-99409976D01*
X136298369Y-99255769D01*
X136452576Y-99075216D01*
X136455155Y-99071008D01*
X136455159Y-99071002D01*
X136574054Y-98876983D01*
X136576640Y-98872763D01*
X136593594Y-98831834D01*
X136665611Y-98657967D01*
X136665612Y-98657965D01*
X136667505Y-98653394D01*
X136722935Y-98422511D01*
X136741565Y-98185800D01*
X136722935Y-97949089D01*
X136715529Y-97918237D01*
X136669340Y-97725849D01*
X136672887Y-97654941D01*
X136702764Y-97607340D01*
X137792247Y-96517857D01*
X137800537Y-96510313D01*
X137807018Y-96506200D01*
X137853659Y-96456532D01*
X137856413Y-96453691D01*
X137876134Y-96433970D01*
X137878612Y-96430775D01*
X137886318Y-96421753D01*
X137911158Y-96395301D01*
X137916586Y-96389521D01*
X137926346Y-96371768D01*
X137937199Y-96355245D01*
X137944753Y-96345506D01*
X137949613Y-96339241D01*
X137967176Y-96298657D01*
X137972383Y-96288027D01*
X137993695Y-96249260D01*
X137995666Y-96241583D01*
X137995668Y-96241578D01*
X137998732Y-96229642D01*
X138005138Y-96210930D01*
X138010033Y-96199619D01*
X138013181Y-96192345D01*
X138014421Y-96184517D01*
X138014423Y-96184510D01*
X138020099Y-96148676D01*
X138022505Y-96137056D01*
X138031528Y-96101911D01*
X138031528Y-96101910D01*
X138033500Y-96094230D01*
X138033500Y-96073976D01*
X138035051Y-96054265D01*
X138036980Y-96042086D01*
X138038220Y-96034257D01*
X138034059Y-95990238D01*
X138033500Y-95978381D01*
X138033500Y-94225807D01*
X138053502Y-94157686D01*
X138070405Y-94136712D01*
X138086488Y-94120629D01*
X138128135Y-94050208D01*
X138165859Y-93986420D01*
X138165859Y-93986419D01*
X138169894Y-93979597D01*
X138174941Y-93962227D01*
X138206855Y-93852376D01*
X138215606Y-93822254D01*
X138217263Y-93801212D01*
X138218307Y-93787940D01*
X138218307Y-93787932D01*
X138218500Y-93785484D01*
X138218500Y-93374516D01*
X138218307Y-93372060D01*
X138216111Y-93344156D01*
X138216110Y-93344151D01*
X138215606Y-93337746D01*
X138176351Y-93202629D01*
X138172106Y-93188016D01*
X138172105Y-93188014D01*
X138169894Y-93180403D01*
X138159985Y-93163647D01*
X138142526Y-93094830D01*
X138159984Y-93035372D01*
X138165395Y-93026222D01*
X138171643Y-93011784D01*
X138206619Y-92891395D01*
X138206579Y-92877295D01*
X138199309Y-92874000D01*
X137921379Y-92874000D01*
X137857240Y-92856454D01*
X137836420Y-92844141D01*
X137836419Y-92844141D01*
X137829597Y-92840106D01*
X137821986Y-92837895D01*
X137821984Y-92837894D01*
X137753369Y-92817960D01*
X137672254Y-92794394D01*
X137665849Y-92793890D01*
X137665844Y-92793889D01*
X137637940Y-92791693D01*
X137637932Y-92791693D01*
X137635484Y-92791500D01*
X137164516Y-92791500D01*
X137162068Y-92791693D01*
X137162060Y-92791693D01*
X137134156Y-92793889D01*
X137134151Y-92793890D01*
X137127746Y-92794394D01*
X137046631Y-92817960D01*
X136978016Y-92837894D01*
X136978014Y-92837895D01*
X136970403Y-92840106D01*
X136963581Y-92844141D01*
X136963580Y-92844141D01*
X136942760Y-92856454D01*
X136878621Y-92874000D01*
X136588327Y-92874000D01*
X136588327Y-92873428D01*
X136537393Y-92873428D01*
X136484479Y-92839422D01*
X136484401Y-92839508D01*
X136483881Y-92839038D01*
X136477667Y-92835044D01*
X136474138Y-92830223D01*
X136460510Y-92817893D01*
X136451734Y-92821676D01*
X135600422Y-93672988D01*
X135592808Y-93686932D01*
X135592939Y-93688765D01*
X135597190Y-93695380D01*
X136448690Y-94546880D01*
X136461070Y-94553640D01*
X136468720Y-94547913D01*
X136533068Y-94442908D01*
X136585715Y-94395277D01*
X136655757Y-94383670D01*
X136720954Y-94411773D01*
X136760608Y-94470664D01*
X136766500Y-94508743D01*
X136766500Y-95699605D01*
X136746498Y-95767726D01*
X136729595Y-95788700D01*
X135806859Y-96711436D01*
X135744547Y-96745462D01*
X135688351Y-96744860D01*
X135635504Y-96732173D01*
X135469924Y-96692420D01*
X135469918Y-96692419D01*
X135465111Y-96691265D01*
X135228400Y-96672635D01*
X134991689Y-96691265D01*
X134986882Y-96692419D01*
X134986876Y-96692420D01*
X134848611Y-96725615D01*
X134760806Y-96746695D01*
X134756235Y-96748588D01*
X134756233Y-96748589D01*
X134546011Y-96835665D01*
X134546007Y-96835667D01*
X134541437Y-96837560D01*
X134537217Y-96840146D01*
X134343198Y-96959041D01*
X134343192Y-96959045D01*
X134338984Y-96961624D01*
X134158431Y-97115831D01*
X134155223Y-97119587D01*
X134137432Y-97140418D01*
X134004224Y-97296384D01*
X134001645Y-97300592D01*
X134001641Y-97300598D01*
X133884267Y-97492135D01*
X133831619Y-97539766D01*
X133776834Y-97552300D01*
X130179966Y-97552300D01*
X130111845Y-97532298D01*
X130072533Y-97492135D01*
X129955159Y-97300598D01*
X129955155Y-97300592D01*
X129952576Y-97296384D01*
X129819368Y-97140418D01*
X129801577Y-97119587D01*
X129798369Y-97115831D01*
X129617816Y-96961624D01*
X129613608Y-96959045D01*
X129613602Y-96959041D01*
X129419583Y-96840146D01*
X129415363Y-96837560D01*
X129410793Y-96835667D01*
X129410789Y-96835665D01*
X129200567Y-96748589D01*
X129200565Y-96748588D01*
X129195994Y-96746695D01*
X129108189Y-96725615D01*
X128969924Y-96692420D01*
X128969918Y-96692419D01*
X128965111Y-96691265D01*
X128728400Y-96672635D01*
X128491689Y-96691265D01*
X128486882Y-96692419D01*
X128486876Y-96692420D01*
X128348611Y-96725615D01*
X128260806Y-96746695D01*
X128256235Y-96748588D01*
X128256233Y-96748589D01*
X128046011Y-96835665D01*
X128046007Y-96835667D01*
X128041437Y-96837560D01*
X128037217Y-96840146D01*
X127843198Y-96959041D01*
X127843192Y-96959045D01*
X127838984Y-96961624D01*
X127658431Y-97115831D01*
X127655223Y-97119587D01*
X127637432Y-97140418D01*
X127504224Y-97296384D01*
X127501645Y-97300592D01*
X127501641Y-97300598D01*
X127426203Y-97423702D01*
X127380160Y-97498837D01*
X127378267Y-97503407D01*
X127378265Y-97503411D01*
X127291189Y-97713633D01*
X127289295Y-97718206D01*
X127280703Y-97753995D01*
X127241272Y-97918237D01*
X127233865Y-97949089D01*
X127215235Y-98185800D01*
X125650638Y-98185800D01*
X125630670Y-95869544D01*
X130836936Y-95869544D01*
X130838932Y-95900000D01*
X130850861Y-96082006D01*
X130852283Y-96087604D01*
X130852283Y-96087606D01*
X130896890Y-96263242D01*
X130903272Y-96288372D01*
X130905689Y-96293615D01*
X130966759Y-96426086D01*
X130992411Y-96481731D01*
X131115296Y-96655609D01*
X131172604Y-96711436D01*
X131231530Y-96768839D01*
X131267809Y-96804181D01*
X131272605Y-96807386D01*
X131272608Y-96807388D01*
X131344088Y-96855149D01*
X131444843Y-96922471D01*
X131450146Y-96924749D01*
X131450149Y-96924751D01*
X131561754Y-96972700D01*
X131640470Y-97006519D01*
X131696782Y-97019261D01*
X131842501Y-97052234D01*
X131842506Y-97052235D01*
X131848138Y-97053509D01*
X131853909Y-97053736D01*
X131853911Y-97053736D01*
X131915252Y-97056146D01*
X132060891Y-97061869D01*
X132066600Y-97061041D01*
X132066604Y-97061041D01*
X132265890Y-97032145D01*
X132265894Y-97032144D01*
X132271605Y-97031316D01*
X132473223Y-96962876D01*
X132658993Y-96858840D01*
X132822693Y-96722693D01*
X132958840Y-96558993D01*
X133062876Y-96373223D01*
X133131316Y-96171605D01*
X133137260Y-96130616D01*
X133161337Y-95964561D01*
X133161337Y-95964559D01*
X133161869Y-95960891D01*
X133163463Y-95900000D01*
X133146124Y-95711300D01*
X133144510Y-95693730D01*
X133144509Y-95693727D01*
X133143981Y-95687976D01*
X133141755Y-95680084D01*
X133087754Y-95488611D01*
X133087753Y-95488609D01*
X133086186Y-95483052D01*
X132992015Y-95292092D01*
X132864622Y-95121491D01*
X132708271Y-94976963D01*
X132615565Y-94918470D01*
X134360560Y-94918470D01*
X134366287Y-94926120D01*
X134537442Y-95031005D01*
X134546237Y-95035487D01*
X134756388Y-95122534D01*
X134765773Y-95125583D01*
X134986954Y-95178685D01*
X134996701Y-95180228D01*
X135223470Y-95198075D01*
X135233330Y-95198075D01*
X135460099Y-95180228D01*
X135469846Y-95178685D01*
X135691027Y-95125583D01*
X135700412Y-95122534D01*
X135910563Y-95035487D01*
X135919358Y-95031005D01*
X136086845Y-94928368D01*
X136096307Y-94917910D01*
X136092524Y-94909134D01*
X135241212Y-94057822D01*
X135227268Y-94050208D01*
X135225435Y-94050339D01*
X135218820Y-94054590D01*
X134367320Y-94906090D01*
X134360560Y-94918470D01*
X132615565Y-94918470D01*
X132528201Y-94863347D01*
X132330441Y-94784449D01*
X132324781Y-94783323D01*
X132324777Y-94783322D01*
X132127282Y-94744038D01*
X132127280Y-94744038D01*
X132121615Y-94742911D01*
X132115840Y-94742835D01*
X132115836Y-94742835D01*
X132009161Y-94741439D01*
X131908716Y-94740124D01*
X131903019Y-94741103D01*
X131903018Y-94741103D01*
X131704564Y-94775203D01*
X131704561Y-94775204D01*
X131698874Y-94776181D01*
X131499116Y-94849875D01*
X131316134Y-94958739D01*
X131156054Y-95099125D01*
X131024238Y-95266333D01*
X131021549Y-95271444D01*
X131021547Y-95271447D01*
X130978836Y-95352627D01*
X130925100Y-95454762D01*
X130923386Y-95460283D01*
X130923384Y-95460287D01*
X130911026Y-95500086D01*
X130861961Y-95658102D01*
X130836936Y-95869544D01*
X125630670Y-95869544D01*
X125622471Y-94918470D01*
X127860560Y-94918470D01*
X127866287Y-94926120D01*
X128037442Y-95031005D01*
X128046237Y-95035487D01*
X128256388Y-95122534D01*
X128265773Y-95125583D01*
X128486954Y-95178685D01*
X128496701Y-95180228D01*
X128723470Y-95198075D01*
X128733330Y-95198075D01*
X128960099Y-95180228D01*
X128969846Y-95178685D01*
X129191027Y-95125583D01*
X129200412Y-95122534D01*
X129410563Y-95035487D01*
X129419358Y-95031005D01*
X129586845Y-94928368D01*
X129596307Y-94917910D01*
X129592524Y-94909134D01*
X128741212Y-94057822D01*
X128727268Y-94050208D01*
X128725435Y-94050339D01*
X128718820Y-94054590D01*
X127867320Y-94906090D01*
X127860560Y-94918470D01*
X125622471Y-94918470D01*
X125611887Y-93690730D01*
X127216125Y-93690730D01*
X127233972Y-93917499D01*
X127235515Y-93927246D01*
X127288617Y-94148427D01*
X127291666Y-94157812D01*
X127378713Y-94367963D01*
X127383195Y-94376758D01*
X127485832Y-94544245D01*
X127496290Y-94553707D01*
X127505066Y-94549924D01*
X128356378Y-93698612D01*
X128362756Y-93686932D01*
X129092808Y-93686932D01*
X129092939Y-93688765D01*
X129097190Y-93695380D01*
X129948690Y-94546880D01*
X129961070Y-94553640D01*
X129968720Y-94547913D01*
X130073605Y-94376758D01*
X130078087Y-94367963D01*
X130165134Y-94157812D01*
X130168183Y-94148427D01*
X130221285Y-93927246D01*
X130222828Y-93917499D01*
X130240675Y-93690730D01*
X133716125Y-93690730D01*
X133733972Y-93917499D01*
X133735515Y-93927246D01*
X133788617Y-94148427D01*
X133791666Y-94157812D01*
X133878713Y-94367963D01*
X133883195Y-94376758D01*
X133985832Y-94544245D01*
X133996290Y-94553707D01*
X134005066Y-94549924D01*
X134856378Y-93698612D01*
X134863992Y-93684668D01*
X134863861Y-93682835D01*
X134859610Y-93676220D01*
X134008110Y-92824720D01*
X133995730Y-92817960D01*
X133988080Y-92823687D01*
X133883195Y-92994842D01*
X133878713Y-93003637D01*
X133791666Y-93213788D01*
X133788617Y-93223173D01*
X133735515Y-93444354D01*
X133733972Y-93454101D01*
X133716125Y-93680870D01*
X133716125Y-93690730D01*
X130240675Y-93690730D01*
X130240675Y-93680870D01*
X130222828Y-93454101D01*
X130221285Y-93444354D01*
X130168183Y-93223173D01*
X130165134Y-93213788D01*
X130078087Y-93003637D01*
X130073605Y-92994842D01*
X129970968Y-92827355D01*
X129960510Y-92817893D01*
X129951734Y-92821676D01*
X129100422Y-93672988D01*
X129092808Y-93686932D01*
X128362756Y-93686932D01*
X128363992Y-93684668D01*
X128363861Y-93682835D01*
X128359610Y-93676220D01*
X127508110Y-92824720D01*
X127495730Y-92817960D01*
X127488080Y-92823687D01*
X127383195Y-92994842D01*
X127378713Y-93003637D01*
X127291666Y-93213788D01*
X127288617Y-93223173D01*
X127235515Y-93444354D01*
X127233972Y-93454101D01*
X127216125Y-93680870D01*
X127216125Y-93690730D01*
X125611887Y-93690730D01*
X125608963Y-93351605D01*
X125610705Y-93329616D01*
X125612769Y-93317349D01*
X125612769Y-93317348D01*
X125613576Y-93312552D01*
X125613729Y-93300000D01*
X125612542Y-93291709D01*
X125611748Y-93262870D01*
X125614797Y-93228029D01*
X125622603Y-93138804D01*
X125626417Y-93117178D01*
X125665443Y-92971534D01*
X125672954Y-92950896D01*
X125736678Y-92814240D01*
X125747660Y-92795220D01*
X125834147Y-92671703D01*
X125848265Y-92654878D01*
X125954878Y-92548265D01*
X125971703Y-92534147D01*
X126095220Y-92447660D01*
X126114240Y-92436678D01*
X126250896Y-92372954D01*
X126271534Y-92365443D01*
X126417178Y-92326417D01*
X126438806Y-92322603D01*
X126495341Y-92317656D01*
X126559393Y-92312053D01*
X126575871Y-92312607D01*
X126575876Y-92312200D01*
X126584853Y-92312310D01*
X126593724Y-92313691D01*
X126602626Y-92312527D01*
X126602628Y-92312527D01*
X126617677Y-92310559D01*
X126625286Y-92309564D01*
X126641621Y-92308500D01*
X127734979Y-92308500D01*
X127803100Y-92328502D01*
X127849593Y-92382158D01*
X127858475Y-92449008D01*
X127864276Y-92462466D01*
X128715588Y-93313778D01*
X128729532Y-93321392D01*
X128731365Y-93321261D01*
X128737980Y-93317010D01*
X129589480Y-92465510D01*
X129597095Y-92451565D01*
X129596517Y-92443488D01*
X129611609Y-92374114D01*
X129661811Y-92323912D01*
X129722196Y-92308500D01*
X134234979Y-92308500D01*
X134303100Y-92328502D01*
X134349593Y-92382158D01*
X134358475Y-92449008D01*
X134364276Y-92462466D01*
X135215588Y-93313778D01*
X135229532Y-93321392D01*
X135231365Y-93321261D01*
X135237980Y-93317010D01*
X136089480Y-92465510D01*
X136097095Y-92451565D01*
X136096517Y-92443488D01*
X136111609Y-92374114D01*
X136161811Y-92323912D01*
X136222196Y-92308500D01*
X136488652Y-92308500D01*
X136556773Y-92328502D01*
X136589117Y-92360754D01*
X136600691Y-92366000D01*
X137127885Y-92366000D01*
X137143124Y-92361525D01*
X137144329Y-92360135D01*
X137146000Y-92352452D01*
X137146000Y-92347885D01*
X137654000Y-92347885D01*
X137658475Y-92363124D01*
X137659865Y-92364329D01*
X137667548Y-92366000D01*
X138193558Y-92366000D01*
X138207089Y-92362027D01*
X138208224Y-92354129D01*
X138171643Y-92228216D01*
X138165396Y-92213780D01*
X138090124Y-92086501D01*
X138080484Y-92074074D01*
X137975926Y-91969516D01*
X137963499Y-91959876D01*
X137836220Y-91884604D01*
X137821784Y-91878357D01*
X137678359Y-91836688D01*
X137670391Y-91835232D01*
X137656969Y-91838052D01*
X137654000Y-91849513D01*
X137654000Y-92347885D01*
X137146000Y-92347885D01*
X137146000Y-92084147D01*
X137161205Y-92032781D01*
X137157705Y-92031164D01*
X137161468Y-92023020D01*
X137166352Y-92015485D01*
X137168924Y-92006884D01*
X137168926Y-92006880D01*
X137173711Y-91990880D01*
X137180372Y-91973436D01*
X137187467Y-91958324D01*
X137187468Y-91958322D01*
X137191281Y-91950200D01*
X137195830Y-91920983D01*
X137199613Y-91904268D01*
X137205515Y-91884534D01*
X137205516Y-91884528D01*
X137208086Y-91875934D01*
X137208296Y-91841494D01*
X137208329Y-91840711D01*
X137208500Y-91839614D01*
X137208500Y-91808623D01*
X137208502Y-91807853D01*
X137208952Y-91734215D01*
X137208952Y-91734214D01*
X137208976Y-91730279D01*
X137208592Y-91728935D01*
X137208500Y-91727590D01*
X137208500Y-85603891D01*
X137228502Y-85535770D01*
X137282158Y-85489277D01*
X137352432Y-85479173D01*
X137400335Y-85496459D01*
X137463268Y-85535025D01*
X137463278Y-85535030D01*
X137467498Y-85537616D01*
X137472068Y-85539509D01*
X137472072Y-85539511D01*
X137627500Y-85603891D01*
X137701409Y-85634505D01*
X137786032Y-85654821D01*
X137942784Y-85692454D01*
X137942790Y-85692455D01*
X137947597Y-85693609D01*
X138200000Y-85713474D01*
X138452403Y-85693609D01*
X138457210Y-85692455D01*
X138457216Y-85692454D01*
X138613968Y-85654821D01*
X138698591Y-85634505D01*
X138772500Y-85603891D01*
X138927928Y-85539511D01*
X138927932Y-85539509D01*
X138932502Y-85537616D01*
X139148376Y-85405328D01*
X139340898Y-85240898D01*
X139405924Y-85164763D01*
X139494689Y-85060833D01*
X139554140Y-85022024D01*
X139625135Y-85021518D01*
X139685133Y-85059474D01*
G37*
G04 #@! TD.AperFunction*
G04 #@! TA.AperFunction,Conductor*
G36*
X158533855Y-105866347D02*
G01*
X158578918Y-105895308D01*
X159718875Y-107035265D01*
X159752901Y-107097577D01*
X159747836Y-107168392D01*
X159723141Y-107208976D01*
X159710200Y-107223255D01*
X159673015Y-107264282D01*
X159664282Y-107273015D01*
X159529661Y-107395028D01*
X159465757Y-107425953D01*
X159395275Y-107417420D01*
X159355952Y-107390762D01*
X158219708Y-106254518D01*
X158185682Y-106192206D01*
X158190747Y-106121391D01*
X158219708Y-106076328D01*
X158400728Y-105895308D01*
X158463040Y-105861282D01*
X158533855Y-105866347D01*
G37*
G04 #@! TD.AperFunction*
G04 #@! TA.AperFunction,Conductor*
G36*
X127761409Y-105866347D02*
G01*
X127806472Y-105895308D01*
X127987492Y-106076328D01*
X128021518Y-106138640D01*
X128016453Y-106209455D01*
X127987492Y-106254518D01*
X126915234Y-107326776D01*
X126852922Y-107360802D01*
X126782107Y-107355737D01*
X126737044Y-107326776D01*
X126584299Y-107174031D01*
X126575473Y-107164230D01*
X126550170Y-107132983D01*
X126522845Y-107067455D01*
X126535285Y-106997557D01*
X126558996Y-106964594D01*
X127628282Y-105895308D01*
X127690594Y-105861282D01*
X127761409Y-105866347D01*
G37*
G04 #@! TD.AperFunction*
G04 #@! TA.AperFunction,Conductor*
G36*
X142995996Y-93710900D02*
G01*
X143042489Y-93764556D01*
X143052594Y-93834829D01*
X143048873Y-93852052D01*
X143019438Y-93953369D01*
X143018934Y-93959774D01*
X143018933Y-93959779D01*
X143016693Y-93988242D01*
X143016500Y-93990698D01*
X143016500Y-95148702D01*
X143016693Y-95151150D01*
X143016693Y-95151158D01*
X143018860Y-95178685D01*
X143019438Y-95186031D01*
X143065855Y-95345801D01*
X143150547Y-95489007D01*
X143156156Y-95494616D01*
X143160399Y-95500086D01*
X143186346Y-95566171D01*
X143172445Y-95635794D01*
X143134554Y-95677316D01*
X143129000Y-95689570D01*
X143129000Y-95927358D01*
X143111453Y-95991497D01*
X143090832Y-96026365D01*
X143065855Y-96068599D01*
X143063644Y-96076210D01*
X143063643Y-96076212D01*
X143056177Y-96101911D01*
X143019438Y-96228369D01*
X143018934Y-96234774D01*
X143018933Y-96234779D01*
X143017247Y-96256205D01*
X143016500Y-96265698D01*
X143016500Y-96972700D01*
X142996498Y-97040821D01*
X142942842Y-97087314D01*
X142890500Y-97098700D01*
X142859500Y-97098700D01*
X142791379Y-97078698D01*
X142744886Y-97025042D01*
X142733500Y-96972700D01*
X142733500Y-96265698D01*
X142732753Y-96256205D01*
X142731067Y-96234779D01*
X142731066Y-96234774D01*
X142730562Y-96228369D01*
X142693823Y-96101911D01*
X142686357Y-96076212D01*
X142686356Y-96076210D01*
X142684145Y-96068599D01*
X142659168Y-96026365D01*
X142638547Y-95991497D01*
X142621000Y-95927358D01*
X142621000Y-95695322D01*
X142616526Y-95680084D01*
X142607118Y-95671932D01*
X142568734Y-95612206D01*
X142568734Y-95541210D01*
X142590071Y-95499480D01*
X142593845Y-95494615D01*
X142599453Y-95489007D01*
X142603489Y-95482183D01*
X142603491Y-95482180D01*
X142672002Y-95366333D01*
X142684145Y-95345801D01*
X142730562Y-95186031D01*
X142731141Y-95178685D01*
X142733307Y-95151158D01*
X142733307Y-95151150D01*
X142733500Y-95148702D01*
X142733500Y-93990698D01*
X142733307Y-93988242D01*
X142731067Y-93959779D01*
X142731066Y-93959774D01*
X142730562Y-93953369D01*
X142728769Y-93947197D01*
X142728768Y-93947192D01*
X142701127Y-93852053D01*
X142701330Y-93781057D01*
X142739884Y-93721440D01*
X142804549Y-93692132D01*
X142822123Y-93690900D01*
X142873071Y-93690900D01*
X142927876Y-93690899D01*
X142995996Y-93710900D01*
G37*
G04 #@! TD.AperFunction*
M02*
