M48
; DRILL file {KiCad (6.0.10)} date Wed Jul  5 14:15:21 2023
; FORMAT={3:3/ absolute / metric / suppress trailing zeros}
; #@! TF.CreationDate,2023-07-05T14:15:21+02:00
; #@! TF.GenerationSoftware,Kicad,Pcbnew,(6.0.10)
; #@! TF.FileFunction,Plated,1,2,PTH
FMAT,2
METRIC,LZ
; #@! TA.AperFunction,Plated,PTH,ViaDrill
T1C0.400
; #@! TA.AperFunction,Plated,PTH,ComponentDrill
T2C0.500
; #@! TA.AperFunction,Plated,PTH,ComponentDrill
T3C0.600
; #@! TA.AperFunction,Plated,PTH,ComponentDrill
T4C0.750
; #@! TA.AperFunction,Plated,PTH,ComponentDrill
T5C1.100
; #@! TA.AperFunction,Plated,PTH,ComponentDrill
T6C3.500
%
G90
G05
T1
X139Y-0986
X144251Y-100822
X14515Y-0995
X1455Y-09425
X149348Y-102527
T2
X126458Y-1048
X127227Y-102944
X127227Y-106656
X129083Y-102175
X129083Y-107425
X130939Y-102944
X130939Y-106656
X131708Y-1048
X154499Y-1048
X155268Y-102944
X155268Y-106656
X157124Y-102175
X157124Y-107425
X158981Y-102944
X158981Y-106656
X159749Y-1048
T4
X1412Y-0841
X1412Y-0861
X1432Y-0841
X1432Y-0861
X1452Y-0841
X1452Y-0861
T5
X128728Y-093686
X128728Y-098186
X135228Y-093686
X135228Y-098186
X15075Y-093686
X15075Y-098186
X15725Y-093686
X15725Y-098186
T6
X129083Y-1048
X157124Y-1048
T3
X138375Y-10263G85X138375Y-10373
G05
X138375Y-10695G85X138375Y-10775
G05
X147025Y-10263G85X147025Y-10373
G05
X147025Y-10695G85X147025Y-10775
G05
T0
M30
