G04 #@! TF.GenerationSoftware,KiCad,Pcbnew,(6.0.10)*
G04 #@! TF.CreationDate,2023-07-05T14:15:12+02:00*
G04 #@! TF.ProjectId,USB-Tag,5553422d-5461-4672-9e6b-696361645f70,rev?*
G04 #@! TF.SameCoordinates,Original*
G04 #@! TF.FileFunction,Legend,Top*
G04 #@! TF.FilePolarity,Positive*
%FSLAX46Y46*%
G04 Gerber Fmt 4.6, Leading zero omitted, Abs format (unit mm)*
G04 Created by KiCad (PCBNEW (6.0.10)) date 2023-07-05 14:15:12*
%MOMM*%
%LPD*%
G01*
G04 APERTURE LIST*
G04 Aperture macros list*
%AMRoundRect*
0 Rectangle with rounded corners*
0 $1 Rounding radius*
0 $2 $3 $4 $5 $6 $7 $8 $9 X,Y pos of 4 corners*
0 Add a 4 corners polygon primitive as box body*
4,1,4,$2,$3,$4,$5,$6,$7,$8,$9,$2,$3,0*
0 Add four circle primitives for the rounded corners*
1,1,$1+$1,$2,$3*
1,1,$1+$1,$4,$5*
1,1,$1+$1,$6,$7*
1,1,$1+$1,$8,$9*
0 Add four rect primitives between the rounded corners*
20,1,$1+$1,$2,$3,$4,$5,0*
20,1,$1+$1,$4,$5,$6,$7,0*
20,1,$1+$1,$6,$7,$8,$9,0*
20,1,$1+$1,$8,$9,$2,$3,0*%
%AMFreePoly0*
4,1,22,0.500000,-0.750000,0.000000,-0.750000,0.000000,-0.745033,-0.079941,-0.743568,-0.215256,-0.701293,-0.333266,-0.622738,-0.424486,-0.514219,-0.481581,-0.384460,-0.499164,-0.250000,-0.500000,-0.250000,-0.500000,0.250000,-0.499164,0.250000,-0.499963,0.256109,-0.478152,0.396186,-0.417904,0.524511,-0.324060,0.630769,-0.204165,0.706417,-0.067858,0.745374,0.000000,0.744959,0.000000,0.750000,
0.500000,0.750000,0.500000,-0.750000,0.500000,-0.750000,$1*%
%AMFreePoly1*
4,1,20,0.000000,0.744959,0.073905,0.744508,0.209726,0.703889,0.328688,0.626782,0.421226,0.519385,0.479903,0.390333,0.500000,0.250000,0.500000,-0.250000,0.499851,-0.262216,0.476331,-0.402017,0.414519,-0.529596,0.319384,-0.634700,0.198574,-0.708877,0.061801,-0.746166,0.000000,-0.745033,0.000000,-0.750000,-0.500000,-0.750000,-0.500000,0.750000,0.000000,0.750000,0.000000,0.744959,
0.000000,0.744959,$1*%
G04 Aperture macros list end*
%ADD10C,0.150000*%
%ADD11C,0.175000*%
%ADD12C,0.100000*%
%ADD13C,0.120000*%
%ADD14C,0.127000*%
%ADD15C,0.200000*%
%ADD16C,0.010000*%
%ADD17RoundRect,0.135000X-0.185000X0.135000X-0.185000X-0.135000X0.185000X-0.135000X0.185000X0.135000X0*%
%ADD18FreePoly0,90.000000*%
%ADD19FreePoly1,90.000000*%
%ADD20C,0.600000*%
%ADD21O,0.900000X2.000000*%
%ADD22O,0.900000X1.700000*%
%ADD23RoundRect,0.150000X0.150000X-0.512500X0.150000X0.512500X-0.150000X0.512500X-0.150000X-0.512500X0*%
%ADD24RoundRect,0.135000X-0.135000X-0.185000X0.135000X-0.185000X0.135000X0.185000X-0.135000X0.185000X0*%
%ADD25RoundRect,0.140000X0.170000X-0.140000X0.170000X0.140000X-0.170000X0.140000X-0.170000X-0.140000X0*%
%ADD26C,2.000000*%
%ADD27C,0.800000*%
%ADD28C,7.000000*%
%ADD29RoundRect,0.135000X0.135000X0.185000X-0.135000X0.185000X-0.135000X-0.185000X0.135000X-0.185000X0*%
%ADD30R,0.450000X0.600000*%
%ADD31RoundRect,0.140000X-0.140000X-0.170000X0.140000X-0.170000X0.140000X0.170000X-0.140000X0.170000X0*%
%ADD32RoundRect,0.140000X0.140000X0.170000X-0.140000X0.170000X-0.140000X-0.170000X0.140000X-0.170000X0*%
%ADD33RoundRect,0.140000X-0.170000X0.140000X-0.170000X-0.140000X0.170000X-0.140000X0.170000X0.140000X0*%
%ADD34R,0.600000X0.450000*%
%ADD35R,1.150000X1.150000*%
%ADD36C,1.150000*%
G04 APERTURE END LIST*
D10*
X139216666Y-105266666D02*
X139216666Y-105766666D01*
X139183333Y-105866666D01*
X139116666Y-105933333D01*
X139016666Y-105966666D01*
X138950000Y-105966666D01*
X139883333Y-105966666D02*
X139550000Y-105966666D01*
X139550000Y-105266666D01*
X140516666Y-105900000D02*
X140483333Y-105933333D01*
X140383333Y-105966666D01*
X140316666Y-105966666D01*
X140216666Y-105933333D01*
X140150000Y-105866666D01*
X140116666Y-105800000D01*
X140083333Y-105666666D01*
X140083333Y-105566666D01*
X140116666Y-105433333D01*
X140150000Y-105366666D01*
X140216666Y-105300000D01*
X140316666Y-105266666D01*
X140383333Y-105266666D01*
X140483333Y-105300000D01*
X140516666Y-105333333D01*
X140816666Y-105966666D02*
X140816666Y-105266666D01*
X141083333Y-105266666D01*
X141150000Y-105300000D01*
X141183333Y-105333333D01*
X141216666Y-105400000D01*
X141216666Y-105500000D01*
X141183333Y-105566666D01*
X141150000Y-105600000D01*
X141083333Y-105633333D01*
X140816666Y-105633333D01*
X141916666Y-105900000D02*
X141883333Y-105933333D01*
X141783333Y-105966666D01*
X141716666Y-105966666D01*
X141616666Y-105933333D01*
X141550000Y-105866666D01*
X141516666Y-105800000D01*
X141483333Y-105666666D01*
X141483333Y-105566666D01*
X141516666Y-105433333D01*
X141550000Y-105366666D01*
X141616666Y-105300000D01*
X141716666Y-105266666D01*
X141783333Y-105266666D01*
X141883333Y-105300000D01*
X141916666Y-105333333D01*
X142450000Y-105600000D02*
X142550000Y-105633333D01*
X142583333Y-105666666D01*
X142616666Y-105733333D01*
X142616666Y-105833333D01*
X142583333Y-105900000D01*
X142550000Y-105933333D01*
X142483333Y-105966666D01*
X142216666Y-105966666D01*
X142216666Y-105266666D01*
X142450000Y-105266666D01*
X142516666Y-105300000D01*
X142550000Y-105333333D01*
X142583333Y-105400000D01*
X142583333Y-105466666D01*
X142550000Y-105533333D01*
X142516666Y-105566666D01*
X142450000Y-105600000D01*
X142216666Y-105600000D01*
X143116666Y-105266666D02*
X143116666Y-105766666D01*
X143083333Y-105866666D01*
X143016666Y-105933333D01*
X142916666Y-105966666D01*
X142850000Y-105966666D01*
X143783333Y-105966666D02*
X143450000Y-105966666D01*
X143450000Y-105266666D01*
X144416666Y-105900000D02*
X144383333Y-105933333D01*
X144283333Y-105966666D01*
X144216666Y-105966666D01*
X144116666Y-105933333D01*
X144050000Y-105866666D01*
X144016666Y-105800000D01*
X143983333Y-105666666D01*
X143983333Y-105566666D01*
X144016666Y-105433333D01*
X144050000Y-105366666D01*
X144116666Y-105300000D01*
X144216666Y-105266666D01*
X144283333Y-105266666D01*
X144383333Y-105300000D01*
X144416666Y-105333333D01*
X144716666Y-105966666D02*
X144716666Y-105266666D01*
X144983333Y-105266666D01*
X145050000Y-105300000D01*
X145083333Y-105333333D01*
X145116666Y-105400000D01*
X145116666Y-105500000D01*
X145083333Y-105566666D01*
X145050000Y-105600000D01*
X144983333Y-105633333D01*
X144716666Y-105633333D01*
X145816666Y-105900000D02*
X145783333Y-105933333D01*
X145683333Y-105966666D01*
X145616666Y-105966666D01*
X145516666Y-105933333D01*
X145450000Y-105866666D01*
X145416666Y-105800000D01*
X145383333Y-105666666D01*
X145383333Y-105566666D01*
X145416666Y-105433333D01*
X145450000Y-105366666D01*
X145516666Y-105300000D01*
X145616666Y-105266666D01*
X145683333Y-105266666D01*
X145783333Y-105300000D01*
X145816666Y-105333333D01*
X146350000Y-105600000D02*
X146450000Y-105633333D01*
X146483333Y-105666666D01*
X146516666Y-105733333D01*
X146516666Y-105833333D01*
X146483333Y-105900000D01*
X146450000Y-105933333D01*
X146383333Y-105966666D01*
X146116666Y-105966666D01*
X146116666Y-105266666D01*
X146350000Y-105266666D01*
X146416666Y-105300000D01*
X146450000Y-105333333D01*
X146483333Y-105400000D01*
X146483333Y-105466666D01*
X146450000Y-105533333D01*
X146416666Y-105566666D01*
X146350000Y-105600000D01*
X146116666Y-105600000D01*
D11*
X144716666Y-87900000D02*
X144816666Y-87933333D01*
X144850000Y-87966666D01*
X144883333Y-88033333D01*
X144883333Y-88133333D01*
X144850000Y-88200000D01*
X144816666Y-88233333D01*
X144750000Y-88266666D01*
X144483333Y-88266666D01*
X144483333Y-87566666D01*
X144716666Y-87566666D01*
X144783333Y-87600000D01*
X144816666Y-87633333D01*
X144850000Y-87700000D01*
X144850000Y-87766666D01*
X144816666Y-87833333D01*
X144783333Y-87866666D01*
X144716666Y-87900000D01*
X144483333Y-87900000D01*
X145283333Y-88266666D02*
X145216666Y-88233333D01*
X145183333Y-88200000D01*
X145150000Y-88133333D01*
X145150000Y-87933333D01*
X145183333Y-87866666D01*
X145216666Y-87833333D01*
X145283333Y-87800000D01*
X145383333Y-87800000D01*
X145450000Y-87833333D01*
X145483333Y-87866666D01*
X145516666Y-87933333D01*
X145516666Y-88133333D01*
X145483333Y-88200000D01*
X145450000Y-88233333D01*
X145383333Y-88266666D01*
X145283333Y-88266666D01*
X145916666Y-88266666D02*
X145850000Y-88233333D01*
X145816666Y-88200000D01*
X145783333Y-88133333D01*
X145783333Y-87933333D01*
X145816666Y-87866666D01*
X145850000Y-87833333D01*
X145916666Y-87800000D01*
X146016666Y-87800000D01*
X146083333Y-87833333D01*
X146116666Y-87866666D01*
X146150000Y-87933333D01*
X146150000Y-88133333D01*
X146116666Y-88200000D01*
X146083333Y-88233333D01*
X146016666Y-88266666D01*
X145916666Y-88266666D01*
X146350000Y-87800000D02*
X146616666Y-87800000D01*
X146450000Y-87566666D02*
X146450000Y-88166666D01*
X146483333Y-88233333D01*
X146550000Y-88266666D01*
X146616666Y-88266666D01*
X142433333Y-88266666D02*
X142433333Y-87566666D01*
X142600000Y-87566666D01*
X142700000Y-87600000D01*
X142766666Y-87666666D01*
X142800000Y-87733333D01*
X142833333Y-87866666D01*
X142833333Y-87966666D01*
X142800000Y-88100000D01*
X142766666Y-88166666D01*
X142700000Y-88233333D01*
X142600000Y-88266666D01*
X142433333Y-88266666D01*
X143133333Y-88000000D02*
X143666666Y-88000000D01*
X143400000Y-88266666D02*
X143400000Y-87733333D01*
X140183333Y-88266666D02*
X140183333Y-87566666D01*
X140350000Y-87566666D01*
X140450000Y-87600000D01*
X140516666Y-87666666D01*
X140550000Y-87733333D01*
X140583333Y-87866666D01*
X140583333Y-87966666D01*
X140550000Y-88100000D01*
X140516666Y-88166666D01*
X140450000Y-88233333D01*
X140350000Y-88266666D01*
X140183333Y-88266666D01*
X140883333Y-88000000D02*
X141416666Y-88000000D01*
X142908333Y-89466666D02*
X142675000Y-89133333D01*
X142508333Y-89466666D02*
X142508333Y-88766666D01*
X142775000Y-88766666D01*
X142841666Y-88800000D01*
X142875000Y-88833333D01*
X142908333Y-88900000D01*
X142908333Y-89000000D01*
X142875000Y-89066666D01*
X142841666Y-89100000D01*
X142775000Y-89133333D01*
X142508333Y-89133333D01*
X143475000Y-89433333D02*
X143408333Y-89466666D01*
X143275000Y-89466666D01*
X143208333Y-89433333D01*
X143175000Y-89366666D01*
X143175000Y-89100000D01*
X143208333Y-89033333D01*
X143275000Y-89000000D01*
X143408333Y-89000000D01*
X143475000Y-89033333D01*
X143508333Y-89100000D01*
X143508333Y-89166666D01*
X143175000Y-89233333D01*
X143775000Y-89433333D02*
X143841666Y-89466666D01*
X143975000Y-89466666D01*
X144041666Y-89433333D01*
X144075000Y-89366666D01*
X144075000Y-89333333D01*
X144041666Y-89266666D01*
X143975000Y-89233333D01*
X143875000Y-89233333D01*
X143808333Y-89200000D01*
X143775000Y-89133333D01*
X143775000Y-89100000D01*
X143808333Y-89033333D01*
X143875000Y-89000000D01*
X143975000Y-89000000D01*
X144041666Y-89033333D01*
X140266666Y-88800000D02*
X140200000Y-88766666D01*
X140100000Y-88766666D01*
X140000000Y-88800000D01*
X139933333Y-88866666D01*
X139900000Y-88933333D01*
X139866666Y-89066666D01*
X139866666Y-89166666D01*
X139900000Y-89300000D01*
X139933333Y-89366666D01*
X140000000Y-89433333D01*
X140100000Y-89466666D01*
X140166666Y-89466666D01*
X140266666Y-89433333D01*
X140300000Y-89400000D01*
X140300000Y-89166666D01*
X140166666Y-89166666D01*
X140600000Y-89466666D02*
X140600000Y-88766666D01*
X141000000Y-89466666D01*
X141000000Y-88766666D01*
X141333333Y-89466666D02*
X141333333Y-88766666D01*
X141500000Y-88766666D01*
X141600000Y-88800000D01*
X141666666Y-88866666D01*
X141700000Y-88933333D01*
X141733333Y-89066666D01*
X141733333Y-89166666D01*
X141700000Y-89300000D01*
X141666666Y-89366666D01*
X141600000Y-89433333D01*
X141500000Y-89466666D01*
X141333333Y-89466666D01*
X144783333Y-88766666D02*
X145216666Y-88766666D01*
X144983333Y-89033333D01*
X145083333Y-89033333D01*
X145150000Y-89066666D01*
X145183333Y-89100000D01*
X145216666Y-89166666D01*
X145216666Y-89333333D01*
X145183333Y-89400000D01*
X145150000Y-89433333D01*
X145083333Y-89466666D01*
X144883333Y-89466666D01*
X144816666Y-89433333D01*
X144783333Y-89400000D01*
X145416666Y-88766666D02*
X145650000Y-89466666D01*
X145883333Y-88766666D01*
X146050000Y-88766666D02*
X146483333Y-88766666D01*
X146250000Y-89033333D01*
X146350000Y-89033333D01*
X146416666Y-89066666D01*
X146450000Y-89100000D01*
X146483333Y-89166666D01*
X146483333Y-89333333D01*
X146450000Y-89400000D01*
X146416666Y-89433333D01*
X146350000Y-89466666D01*
X146150000Y-89466666D01*
X146083333Y-89433333D01*
X146050000Y-89400000D01*
D10*
X148388771Y-97219047D02*
X148436390Y-97076190D01*
X148484009Y-97028571D01*
X148579247Y-96980952D01*
X148722104Y-96980952D01*
X148817342Y-97028571D01*
X148864961Y-97076190D01*
X148912580Y-97171428D01*
X148912580Y-97552380D01*
X147912580Y-97552380D01*
X147912580Y-97219047D01*
X147960200Y-97123809D01*
X148007819Y-97076190D01*
X148103057Y-97028571D01*
X148198295Y-97028571D01*
X148293533Y-97076190D01*
X148341152Y-97123809D01*
X148388771Y-97219047D01*
X148388771Y-97552380D01*
X148912580Y-96409523D02*
X148864961Y-96504761D01*
X148817342Y-96552380D01*
X148722104Y-96600000D01*
X148436390Y-96600000D01*
X148341152Y-96552380D01*
X148293533Y-96504761D01*
X148245914Y-96409523D01*
X148245914Y-96266666D01*
X148293533Y-96171428D01*
X148341152Y-96123809D01*
X148436390Y-96076190D01*
X148722104Y-96076190D01*
X148817342Y-96123809D01*
X148864961Y-96171428D01*
X148912580Y-96266666D01*
X148912580Y-96409523D01*
X148912580Y-95504761D02*
X148864961Y-95600000D01*
X148817342Y-95647619D01*
X148722104Y-95695238D01*
X148436390Y-95695238D01*
X148341152Y-95647619D01*
X148293533Y-95600000D01*
X148245914Y-95504761D01*
X148245914Y-95361904D01*
X148293533Y-95266666D01*
X148341152Y-95219047D01*
X148436390Y-95171428D01*
X148722104Y-95171428D01*
X148817342Y-95219047D01*
X148864961Y-95266666D01*
X148912580Y-95361904D01*
X148912580Y-95504761D01*
X148245914Y-94885714D02*
X148245914Y-94504761D01*
X147912580Y-94742857D02*
X148769723Y-94742857D01*
X148864961Y-94695238D01*
X148912580Y-94600000D01*
X148912580Y-94504761D01*
X136947619Y-95161904D02*
X137423809Y-94828571D01*
X136947619Y-94590476D02*
X137947619Y-94590476D01*
X137947619Y-94971428D01*
X137900000Y-95066666D01*
X137852380Y-95114285D01*
X137757142Y-95161904D01*
X137614285Y-95161904D01*
X137519047Y-95114285D01*
X137471428Y-95066666D01*
X137423809Y-94971428D01*
X137423809Y-94590476D01*
X136995238Y-95971428D02*
X136947619Y-95876190D01*
X136947619Y-95685714D01*
X136995238Y-95590476D01*
X137090476Y-95542857D01*
X137471428Y-95542857D01*
X137566666Y-95590476D01*
X137614285Y-95685714D01*
X137614285Y-95876190D01*
X137566666Y-95971428D01*
X137471428Y-96019047D01*
X137376190Y-96019047D01*
X137280952Y-95542857D01*
X136995238Y-96400000D02*
X136947619Y-96495238D01*
X136947619Y-96685714D01*
X136995238Y-96780952D01*
X137090476Y-96828571D01*
X137138095Y-96828571D01*
X137233333Y-96780952D01*
X137280952Y-96685714D01*
X137280952Y-96542857D01*
X137328571Y-96447619D01*
X137423809Y-96400000D01*
X137471428Y-96400000D01*
X137566666Y-96447619D01*
X137614285Y-96542857D01*
X137614285Y-96685714D01*
X137566666Y-96780952D01*
X136995238Y-97638095D02*
X136947619Y-97542857D01*
X136947619Y-97352380D01*
X136995238Y-97257142D01*
X137090476Y-97209523D01*
X137471428Y-97209523D01*
X137566666Y-97257142D01*
X137614285Y-97352380D01*
X137614285Y-97542857D01*
X137566666Y-97638095D01*
X137471428Y-97685714D01*
X137376190Y-97685714D01*
X137280952Y-97209523D01*
X137614285Y-97971428D02*
X137614285Y-98352380D01*
X137947619Y-98114285D02*
X137090476Y-98114285D01*
X136995238Y-98161904D01*
X136947619Y-98257142D01*
X136947619Y-98352380D01*
D12*
X150626190Y-101333333D02*
X150388095Y-101500000D01*
X150626190Y-101619047D02*
X150126190Y-101619047D01*
X150126190Y-101428571D01*
X150150000Y-101380952D01*
X150173809Y-101357142D01*
X150221428Y-101333333D01*
X150292857Y-101333333D01*
X150340476Y-101357142D01*
X150364285Y-101380952D01*
X150388095Y-101428571D01*
X150388095Y-101619047D01*
X150173809Y-101142857D02*
X150150000Y-101119047D01*
X150126190Y-101071428D01*
X150126190Y-100952380D01*
X150150000Y-100904761D01*
X150173809Y-100880952D01*
X150221428Y-100857142D01*
X150269047Y-100857142D01*
X150340476Y-100880952D01*
X150626190Y-101166666D01*
X150626190Y-100857142D01*
X151626190Y-101333333D02*
X151388095Y-101500000D01*
X151626190Y-101619047D02*
X151126190Y-101619047D01*
X151126190Y-101428571D01*
X151150000Y-101380952D01*
X151173809Y-101357142D01*
X151221428Y-101333333D01*
X151292857Y-101333333D01*
X151340476Y-101357142D01*
X151364285Y-101380952D01*
X151388095Y-101428571D01*
X151388095Y-101619047D01*
X151626190Y-100857142D02*
X151626190Y-101142857D01*
X151626190Y-101000000D02*
X151126190Y-101000000D01*
X151197619Y-101047619D01*
X151245238Y-101095238D01*
X151269047Y-101142857D01*
X148976190Y-106016666D02*
X149333333Y-106016666D01*
X149404761Y-106040476D01*
X149452380Y-106088095D01*
X149476190Y-106159523D01*
X149476190Y-106207142D01*
X149476190Y-105778571D02*
X148976190Y-105778571D01*
X148976190Y-105588095D01*
X149000000Y-105540476D01*
X149023809Y-105516666D01*
X149071428Y-105492857D01*
X149142857Y-105492857D01*
X149190476Y-105516666D01*
X149214285Y-105540476D01*
X149238095Y-105588095D01*
X149238095Y-105778571D01*
X149476190Y-105016666D02*
X149476190Y-105302380D01*
X149476190Y-105159523D02*
X148976190Y-105159523D01*
X149047619Y-105207142D01*
X149095238Y-105254761D01*
X149119047Y-105302380D01*
X136483333Y-103876190D02*
X136483333Y-104233333D01*
X136459523Y-104304761D01*
X136411904Y-104352380D01*
X136340476Y-104376190D01*
X136292857Y-104376190D01*
X136983333Y-104376190D02*
X136697619Y-104376190D01*
X136840476Y-104376190D02*
X136840476Y-103876190D01*
X136792857Y-103947619D01*
X136745238Y-103995238D01*
X136697619Y-104019047D01*
X140201190Y-96088152D02*
X140605952Y-96088152D01*
X140653571Y-96064342D01*
X140677380Y-96040533D01*
X140701190Y-95992914D01*
X140701190Y-95897676D01*
X140677380Y-95850057D01*
X140653571Y-95826247D01*
X140605952Y-95802438D01*
X140201190Y-95802438D01*
X140701190Y-95302438D02*
X140701190Y-95588152D01*
X140701190Y-95445295D02*
X140201190Y-95445295D01*
X140272619Y-95492914D01*
X140320238Y-95540533D01*
X140344047Y-95588152D01*
X140816666Y-93126190D02*
X140650000Y-92888095D01*
X140530952Y-93126190D02*
X140530952Y-92626190D01*
X140721428Y-92626190D01*
X140769047Y-92650000D01*
X140792857Y-92673809D01*
X140816666Y-92721428D01*
X140816666Y-92792857D01*
X140792857Y-92840476D01*
X140769047Y-92864285D01*
X140721428Y-92888095D01*
X140530952Y-92888095D01*
X140983333Y-92626190D02*
X141292857Y-92626190D01*
X141126190Y-92816666D01*
X141197619Y-92816666D01*
X141245238Y-92840476D01*
X141269047Y-92864285D01*
X141292857Y-92911904D01*
X141292857Y-93030952D01*
X141269047Y-93078571D01*
X141245238Y-93102380D01*
X141197619Y-93126190D01*
X141054761Y-93126190D01*
X141007142Y-93102380D01*
X140983333Y-93078571D01*
X145441171Y-95612733D02*
X145464980Y-95636542D01*
X145488790Y-95707971D01*
X145488790Y-95755590D01*
X145464980Y-95827019D01*
X145417361Y-95874638D01*
X145369742Y-95898447D01*
X145274504Y-95922257D01*
X145203076Y-95922257D01*
X145107838Y-95898447D01*
X145060219Y-95874638D01*
X145012600Y-95827019D01*
X144988790Y-95755590D01*
X144988790Y-95707971D01*
X145012600Y-95636542D01*
X145036409Y-95612733D01*
X144988790Y-95446066D02*
X144988790Y-95136542D01*
X145179266Y-95303209D01*
X145179266Y-95231780D01*
X145203076Y-95184161D01*
X145226885Y-95160352D01*
X145274504Y-95136542D01*
X145393552Y-95136542D01*
X145441171Y-95160352D01*
X145464980Y-95184161D01*
X145488790Y-95231780D01*
X145488790Y-95374638D01*
X145464980Y-95422257D01*
X145441171Y-95446066D01*
X131311733Y-100506980D02*
X131383161Y-100530790D01*
X131502209Y-100530790D01*
X131549828Y-100506980D01*
X131573638Y-100483171D01*
X131597447Y-100435552D01*
X131597447Y-100387933D01*
X131573638Y-100340314D01*
X131549828Y-100316504D01*
X131502209Y-100292695D01*
X131406971Y-100268885D01*
X131359352Y-100245076D01*
X131335542Y-100221266D01*
X131311733Y-100173647D01*
X131311733Y-100126028D01*
X131335542Y-100078409D01*
X131359352Y-100054600D01*
X131406971Y-100030790D01*
X131526019Y-100030790D01*
X131597447Y-100054600D01*
X131764114Y-100030790D02*
X131883161Y-100530790D01*
X131978400Y-100173647D01*
X132073638Y-100530790D01*
X132192685Y-100030790D01*
X132645066Y-100530790D02*
X132359352Y-100530790D01*
X132502209Y-100530790D02*
X132502209Y-100030790D01*
X132454590Y-100102219D01*
X132406971Y-100149838D01*
X132359352Y-100173647D01*
X128701847Y-100526190D02*
X128701847Y-100026190D01*
X128701847Y-100264285D02*
X128987561Y-100264285D01*
X128987561Y-100526190D02*
X128987561Y-100026190D01*
X129487561Y-100526190D02*
X129201847Y-100526190D01*
X129344704Y-100526190D02*
X129344704Y-100026190D01*
X129297085Y-100097619D01*
X129249466Y-100145238D01*
X129201847Y-100169047D01*
X145616666Y-93126190D02*
X145450000Y-92888095D01*
X145330952Y-93126190D02*
X145330952Y-92626190D01*
X145521428Y-92626190D01*
X145569047Y-92650000D01*
X145592857Y-92673809D01*
X145616666Y-92721428D01*
X145616666Y-92792857D01*
X145592857Y-92840476D01*
X145569047Y-92864285D01*
X145521428Y-92888095D01*
X145330952Y-92888095D01*
X146045238Y-92792857D02*
X146045238Y-93126190D01*
X145926190Y-92602380D02*
X145807142Y-92959523D01*
X146116666Y-92959523D01*
X146330171Y-95612733D02*
X146353980Y-95636542D01*
X146377790Y-95707971D01*
X146377790Y-95755590D01*
X146353980Y-95827019D01*
X146306361Y-95874638D01*
X146258742Y-95898447D01*
X146163504Y-95922257D01*
X146092076Y-95922257D01*
X145996838Y-95898447D01*
X145949219Y-95874638D01*
X145901600Y-95827019D01*
X145877790Y-95755590D01*
X145877790Y-95707971D01*
X145901600Y-95636542D01*
X145925409Y-95612733D01*
X145925409Y-95422257D02*
X145901600Y-95398447D01*
X145877790Y-95350828D01*
X145877790Y-95231780D01*
X145901600Y-95184161D01*
X145925409Y-95160352D01*
X145973028Y-95136542D01*
X146020647Y-95136542D01*
X146092076Y-95160352D01*
X146377790Y-95446066D01*
X146377790Y-95136542D01*
X143526190Y-99719047D02*
X143026190Y-99719047D01*
X143026190Y-99600000D01*
X143050000Y-99528571D01*
X143097619Y-99480952D01*
X143145238Y-99457142D01*
X143240476Y-99433333D01*
X143311904Y-99433333D01*
X143407142Y-99457142D01*
X143454761Y-99480952D01*
X143502380Y-99528571D01*
X143526190Y-99600000D01*
X143526190Y-99719047D01*
X143526190Y-98957142D02*
X143526190Y-99242857D01*
X143526190Y-99100000D02*
X143026190Y-99100000D01*
X143097619Y-99147619D01*
X143145238Y-99195238D01*
X143169047Y-99242857D01*
X156743447Y-100526190D02*
X156743447Y-100026190D01*
X156743447Y-100264285D02*
X157029161Y-100264285D01*
X157029161Y-100526190D02*
X157029161Y-100026190D01*
X157243447Y-100073809D02*
X157267257Y-100050000D01*
X157314876Y-100026190D01*
X157433923Y-100026190D01*
X157481542Y-100050000D01*
X157505352Y-100073809D01*
X157529161Y-100121428D01*
X157529161Y-100169047D01*
X157505352Y-100240476D01*
X157219638Y-100526190D01*
X157529161Y-100526190D01*
X153358733Y-100557780D02*
X153430161Y-100581590D01*
X153549209Y-100581590D01*
X153596828Y-100557780D01*
X153620638Y-100533971D01*
X153644447Y-100486352D01*
X153644447Y-100438733D01*
X153620638Y-100391114D01*
X153596828Y-100367304D01*
X153549209Y-100343495D01*
X153453971Y-100319685D01*
X153406352Y-100295876D01*
X153382542Y-100272066D01*
X153358733Y-100224447D01*
X153358733Y-100176828D01*
X153382542Y-100129209D01*
X153406352Y-100105400D01*
X153453971Y-100081590D01*
X153573019Y-100081590D01*
X153644447Y-100105400D01*
X153811114Y-100081590D02*
X153930161Y-100581590D01*
X154025400Y-100224447D01*
X154120638Y-100581590D01*
X154239685Y-100081590D01*
X154406352Y-100129209D02*
X154430161Y-100105400D01*
X154477780Y-100081590D01*
X154596828Y-100081590D01*
X154644447Y-100105400D01*
X154668257Y-100129209D01*
X154692066Y-100176828D01*
X154692066Y-100224447D01*
X154668257Y-100295876D01*
X154382542Y-100581590D01*
X154692066Y-100581590D01*
X138338066Y-99887971D02*
X138314257Y-99911780D01*
X138242828Y-99935590D01*
X138195209Y-99935590D01*
X138123780Y-99911780D01*
X138076161Y-99864161D01*
X138052352Y-99816542D01*
X138028542Y-99721304D01*
X138028542Y-99649876D01*
X138052352Y-99554638D01*
X138076161Y-99507019D01*
X138123780Y-99459400D01*
X138195209Y-99435590D01*
X138242828Y-99435590D01*
X138314257Y-99459400D01*
X138338066Y-99483209D01*
X138766638Y-99602257D02*
X138766638Y-99935590D01*
X138647590Y-99411780D02*
X138528542Y-99768923D01*
X138838066Y-99768923D01*
X138439666Y-100802371D02*
X138415857Y-100826180D01*
X138344428Y-100849990D01*
X138296809Y-100849990D01*
X138225380Y-100826180D01*
X138177761Y-100778561D01*
X138153952Y-100730942D01*
X138130142Y-100635704D01*
X138130142Y-100564276D01*
X138153952Y-100469038D01*
X138177761Y-100421419D01*
X138225380Y-100373800D01*
X138296809Y-100349990D01*
X138344428Y-100349990D01*
X138415857Y-100373800D01*
X138439666Y-100397609D01*
X138892047Y-100349990D02*
X138653952Y-100349990D01*
X138630142Y-100588085D01*
X138653952Y-100564276D01*
X138701571Y-100540466D01*
X138820619Y-100540466D01*
X138868238Y-100564276D01*
X138892047Y-100588085D01*
X138915857Y-100635704D01*
X138915857Y-100754752D01*
X138892047Y-100802371D01*
X138868238Y-100826180D01*
X138820619Y-100849990D01*
X138701571Y-100849990D01*
X138653952Y-100826180D01*
X138630142Y-100802371D01*
X138738571Y-93183333D02*
X138762380Y-93207142D01*
X138786190Y-93278571D01*
X138786190Y-93326190D01*
X138762380Y-93397619D01*
X138714761Y-93445238D01*
X138667142Y-93469047D01*
X138571904Y-93492857D01*
X138500476Y-93492857D01*
X138405238Y-93469047D01*
X138357619Y-93445238D01*
X138310000Y-93397619D01*
X138286190Y-93326190D01*
X138286190Y-93278571D01*
X138310000Y-93207142D01*
X138333809Y-93183333D01*
X138786190Y-92707142D02*
X138786190Y-92992857D01*
X138786190Y-92850000D02*
X138286190Y-92850000D01*
X138357619Y-92897619D01*
X138405238Y-92945238D01*
X138429047Y-92992857D01*
X145030952Y-91526190D02*
X145030952Y-91026190D01*
X145150000Y-91026190D01*
X145221428Y-91050000D01*
X145269047Y-91097619D01*
X145292857Y-91145238D01*
X145316666Y-91240476D01*
X145316666Y-91311904D01*
X145292857Y-91407142D01*
X145269047Y-91454761D01*
X145221428Y-91502380D01*
X145150000Y-91526190D01*
X145030952Y-91526190D01*
X145507142Y-91073809D02*
X145530952Y-91050000D01*
X145578571Y-91026190D01*
X145697619Y-91026190D01*
X145745238Y-91050000D01*
X145769047Y-91073809D01*
X145792857Y-91121428D01*
X145792857Y-91169047D01*
X145769047Y-91240476D01*
X145483333Y-91526190D01*
X145792857Y-91526190D01*
X139276190Y-87147619D02*
X139276190Y-86861904D01*
X139776190Y-87004761D02*
X139276190Y-87004761D01*
X139776190Y-86480952D02*
X139514285Y-86480952D01*
X139466666Y-86504761D01*
X139442857Y-86552380D01*
X139442857Y-86647619D01*
X139466666Y-86695238D01*
X139752380Y-86480952D02*
X139776190Y-86528571D01*
X139776190Y-86647619D01*
X139752380Y-86695238D01*
X139704761Y-86719047D01*
X139657142Y-86719047D01*
X139609523Y-86695238D01*
X139585714Y-86647619D01*
X139585714Y-86528571D01*
X139561904Y-86480952D01*
X139442857Y-86028571D02*
X139847619Y-86028571D01*
X139895238Y-86052380D01*
X139919047Y-86076190D01*
X139942857Y-86123809D01*
X139942857Y-86195238D01*
X139919047Y-86242857D01*
X139752380Y-86028571D02*
X139776190Y-86076190D01*
X139776190Y-86171428D01*
X139752380Y-86219047D01*
X139728571Y-86242857D01*
X139680952Y-86266666D01*
X139538095Y-86266666D01*
X139490476Y-86242857D01*
X139466666Y-86219047D01*
X139442857Y-86171428D01*
X139442857Y-86076190D01*
X139466666Y-86028571D01*
X139728571Y-85504761D02*
X139752380Y-85528571D01*
X139776190Y-85600000D01*
X139776190Y-85647619D01*
X139752380Y-85719047D01*
X139704761Y-85766666D01*
X139657142Y-85790476D01*
X139561904Y-85814285D01*
X139490476Y-85814285D01*
X139395238Y-85790476D01*
X139347619Y-85766666D01*
X139300000Y-85719047D01*
X139276190Y-85647619D01*
X139276190Y-85600000D01*
X139300000Y-85528571D01*
X139323809Y-85504761D01*
X139776190Y-85219047D02*
X139752380Y-85266666D01*
X139728571Y-85290476D01*
X139680952Y-85314285D01*
X139538095Y-85314285D01*
X139490476Y-85290476D01*
X139466666Y-85266666D01*
X139442857Y-85219047D01*
X139442857Y-85147619D01*
X139466666Y-85100000D01*
X139490476Y-85076190D01*
X139538095Y-85052380D01*
X139680952Y-85052380D01*
X139728571Y-85076190D01*
X139752380Y-85100000D01*
X139776190Y-85147619D01*
X139776190Y-85219047D01*
X139442857Y-84838095D02*
X139776190Y-84838095D01*
X139490476Y-84838095D02*
X139466666Y-84814285D01*
X139442857Y-84766666D01*
X139442857Y-84695238D01*
X139466666Y-84647619D01*
X139514285Y-84623809D01*
X139776190Y-84623809D01*
D13*
X150730000Y-102596359D02*
X150730000Y-102903641D01*
X149970000Y-102596359D02*
X149970000Y-102903641D01*
X151780000Y-102596359D02*
X151780000Y-102903641D01*
X151020000Y-102596359D02*
X151020000Y-102903641D01*
X151900000Y-104900000D02*
X151900000Y-106300000D01*
X149900000Y-106300000D02*
X149900000Y-104900000D01*
X151200000Y-107000000D02*
X150600000Y-107000000D01*
X150600000Y-104200000D02*
X151200000Y-104200000D01*
X149900000Y-106300000D02*
G75*
G03*
X150600000Y-107000000I699999J-1D01*
G01*
X151200000Y-107000000D02*
G75*
G03*
X151900000Y-106300000I1J699999D01*
G01*
X151900000Y-104900000D02*
G75*
G03*
X151200000Y-104200000I-700000J0D01*
G01*
X150600000Y-104200000D02*
G75*
G03*
X149900000Y-104900000I0J-700000D01*
G01*
D14*
X147170000Y-109950000D02*
X147170000Y-108520000D01*
X147170000Y-104500000D02*
X147170000Y-106180000D01*
X138230000Y-104500000D02*
X138230000Y-106180000D01*
X138230000Y-109950000D02*
X138230000Y-108520000D01*
X138230000Y-109950000D02*
X147170000Y-109950000D01*
D15*
X139600000Y-101350000D02*
G75*
G03*
X139600000Y-101350000I-100000J0D01*
G01*
D13*
X144435000Y-95707200D02*
X144435000Y-94907200D01*
X141315000Y-95707200D02*
X141315000Y-97507200D01*
X144435000Y-95707200D02*
X144435000Y-96507200D01*
X141315000Y-95707200D02*
X141315000Y-94907200D01*
X142213359Y-93242400D02*
X142520641Y-93242400D01*
X142213359Y-92482400D02*
X142520641Y-92482400D01*
X145521000Y-97087636D02*
X145521000Y-96871964D01*
X144801000Y-97087636D02*
X144801000Y-96871964D01*
X134228400Y-92685800D02*
X129728400Y-92685800D01*
X128478400Y-95185800D02*
X128478400Y-96685800D01*
X135478400Y-96685800D02*
X135478400Y-95185800D01*
X129728400Y-99185800D02*
X134228400Y-99185800D01*
X144453641Y-92507800D02*
X144146359Y-92507800D01*
X144453641Y-93267800D02*
X144146359Y-93267800D01*
X145842400Y-97110436D02*
X145842400Y-96894764D01*
X146562400Y-97110436D02*
X146562400Y-96894764D01*
X141009000Y-98118800D02*
X141009000Y-100668800D01*
X142709000Y-98118800D02*
X142709000Y-100668800D01*
X142709000Y-98118800D02*
X141009000Y-98118800D01*
X150500000Y-95185800D02*
X150500000Y-96685800D01*
X156250000Y-92685800D02*
X151750000Y-92685800D01*
X151750000Y-99185800D02*
X156250000Y-99185800D01*
X157500000Y-96685800D02*
X157500000Y-95185800D01*
X139812164Y-99374800D02*
X140027836Y-99374800D01*
X139812164Y-100094800D02*
X140027836Y-100094800D01*
X140027836Y-100340000D02*
X139812164Y-100340000D01*
X140027836Y-101060000D02*
X139812164Y-101060000D01*
X137040000Y-92992164D02*
X137040000Y-93207836D01*
X137760000Y-92992164D02*
X137760000Y-93207836D01*
X144800000Y-90350000D02*
X142250000Y-90350000D01*
X144800000Y-92050000D02*
X142250000Y-92050000D01*
X144800000Y-92050000D02*
X144800000Y-90350000D01*
%LPC*%
G36*
X144150000Y-103220000D02*
G01*
X143750000Y-103220000D01*
X143750000Y-101980000D01*
X144150000Y-101980000D01*
X144150000Y-103220000D01*
G37*
D16*
X144150000Y-103220000D02*
X143750000Y-103220000D01*
X143750000Y-101980000D01*
X144150000Y-101980000D01*
X144150000Y-103220000D01*
G36*
X139850000Y-103220000D02*
G01*
X139150000Y-103220000D01*
X139150000Y-101980000D01*
X139850000Y-101980000D01*
X139850000Y-103220000D01*
G37*
X139850000Y-103220000D02*
X139150000Y-103220000D01*
X139150000Y-101980000D01*
X139850000Y-101980000D01*
X139850000Y-103220000D01*
G36*
X143150000Y-103220000D02*
G01*
X142750000Y-103220000D01*
X142750000Y-101980000D01*
X143150000Y-101980000D01*
X143150000Y-103220000D01*
G37*
X143150000Y-103220000D02*
X142750000Y-103220000D01*
X142750000Y-101980000D01*
X143150000Y-101980000D01*
X143150000Y-103220000D01*
G36*
X143650000Y-103220000D02*
G01*
X143250000Y-103220000D01*
X143250000Y-101980000D01*
X143650000Y-101980000D01*
X143650000Y-103220000D01*
G37*
X143650000Y-103220000D02*
X143250000Y-103220000D01*
X143250000Y-101980000D01*
X143650000Y-101980000D01*
X143650000Y-103220000D01*
G36*
X144650000Y-103220000D02*
G01*
X144250000Y-103220000D01*
X144250000Y-101980000D01*
X144650000Y-101980000D01*
X144650000Y-103220000D01*
G37*
X144650000Y-103220000D02*
X144250000Y-103220000D01*
X144250000Y-101980000D01*
X144650000Y-101980000D01*
X144650000Y-103220000D01*
G36*
X142650000Y-103220000D02*
G01*
X142250000Y-103220000D01*
X142250000Y-101980000D01*
X142650000Y-101980000D01*
X142650000Y-103220000D01*
G37*
X142650000Y-103220000D02*
X142250000Y-103220000D01*
X142250000Y-101980000D01*
X142650000Y-101980000D01*
X142650000Y-103220000D01*
G36*
X140650000Y-103220000D02*
G01*
X139950000Y-103220000D01*
X139950000Y-101980000D01*
X140650000Y-101980000D01*
X140650000Y-103220000D01*
G37*
X140650000Y-103220000D02*
X139950000Y-103220000D01*
X139950000Y-101980000D01*
X140650000Y-101980000D01*
X140650000Y-103220000D01*
G36*
X141150000Y-103220000D02*
G01*
X140750000Y-103220000D01*
X140750000Y-101980000D01*
X141150000Y-101980000D01*
X141150000Y-103220000D01*
G37*
X141150000Y-103220000D02*
X140750000Y-103220000D01*
X140750000Y-101980000D01*
X141150000Y-101980000D01*
X141150000Y-103220000D01*
G36*
X146250000Y-103220000D02*
G01*
X145550000Y-103220000D01*
X145550000Y-101980000D01*
X146250000Y-101980000D01*
X146250000Y-103220000D01*
G37*
X146250000Y-103220000D02*
X145550000Y-103220000D01*
X145550000Y-101980000D01*
X146250000Y-101980000D01*
X146250000Y-103220000D01*
G36*
X142150000Y-103220000D02*
G01*
X141750000Y-103220000D01*
X141750000Y-101980000D01*
X142150000Y-101980000D01*
X142150000Y-103220000D01*
G37*
X142150000Y-103220000D02*
X141750000Y-103220000D01*
X141750000Y-101980000D01*
X142150000Y-101980000D01*
X142150000Y-103220000D01*
G36*
X145450000Y-103220000D02*
G01*
X144750000Y-103220000D01*
X144750000Y-101980000D01*
X145450000Y-101980000D01*
X145450000Y-103220000D01*
G37*
X145450000Y-103220000D02*
X144750000Y-103220000D01*
X144750000Y-101980000D01*
X145450000Y-101980000D01*
X145450000Y-103220000D01*
G36*
X141650000Y-103220000D02*
G01*
X141250000Y-103220000D01*
X141250000Y-101980000D01*
X141650000Y-101980000D01*
X141650000Y-103220000D01*
G37*
X141650000Y-103220000D02*
X141250000Y-103220000D01*
X141250000Y-101980000D01*
X141650000Y-101980000D01*
X141650000Y-103220000D01*
D17*
X150350000Y-102240000D03*
X150350000Y-103260000D03*
X151400000Y-102240000D03*
X151400000Y-103260000D03*
D18*
X150900000Y-106250000D03*
D19*
X150900000Y-104950000D03*
D20*
X145590000Y-103670000D03*
X139810000Y-103670000D03*
D21*
X138375000Y-103180000D03*
X147025000Y-103180000D03*
D22*
X138375000Y-107350000D03*
X147025000Y-107350000D03*
D23*
X141925000Y-96844700D03*
X142875000Y-96844700D03*
X143825000Y-96844700D03*
X143825000Y-94569700D03*
X141925000Y-94569700D03*
D24*
X141857000Y-92862400D03*
X142877000Y-92862400D03*
D25*
X145161000Y-97459800D03*
X145161000Y-96499800D03*
D26*
X135228400Y-93685800D03*
X128728400Y-93685800D03*
X135228400Y-98185800D03*
X128728400Y-98185800D03*
D27*
X130938955Y-102943845D03*
X127226645Y-102943845D03*
X129082800Y-102175000D03*
X126457800Y-104800000D03*
X129082800Y-107425000D03*
D28*
X129082800Y-104800000D03*
D27*
X130938955Y-106656155D03*
X131707800Y-104800000D03*
X127226645Y-106656155D03*
D29*
X144810000Y-92887800D03*
X143790000Y-92887800D03*
D25*
X146202400Y-97482600D03*
X146202400Y-96522600D03*
D30*
X141859000Y-98568800D03*
X141859000Y-100668800D03*
D27*
X157124400Y-102175000D03*
X154499400Y-104800000D03*
X159749400Y-104800000D03*
X158980555Y-102943845D03*
X158980555Y-106656155D03*
X157124400Y-107425000D03*
D28*
X157124400Y-104800000D03*
D27*
X155268245Y-106656155D03*
X155268245Y-102943845D03*
D26*
X150750000Y-93685800D03*
X157250000Y-93685800D03*
X157250000Y-98185800D03*
X150750000Y-98185800D03*
D31*
X139440000Y-99734800D03*
X140400000Y-99734800D03*
D32*
X140400000Y-100700000D03*
X139440000Y-100700000D03*
D33*
X137400000Y-92620000D03*
X137400000Y-93580000D03*
D34*
X144350000Y-91200000D03*
X142250000Y-91200000D03*
D35*
X145200000Y-86100000D03*
D36*
X145200000Y-84100000D03*
X143200000Y-86100000D03*
X143200000Y-84100000D03*
X141200000Y-86100000D03*
X141200000Y-84100000D03*
M02*
