G04 #@! TF.GenerationSoftware,KiCad,Pcbnew,(6.0.10)*
G04 #@! TF.CreationDate,2023-07-05T14:15:12+02:00*
G04 #@! TF.ProjectId,USB-Tag,5553422d-5461-4672-9e6b-696361645f70,rev?*
G04 #@! TF.SameCoordinates,Original*
G04 #@! TF.FileFunction,Legend,Bot*
G04 #@! TF.FilePolarity,Positive*
%FSLAX46Y46*%
G04 Gerber Fmt 4.6, Leading zero omitted, Abs format (unit mm)*
G04 Created by KiCad (PCBNEW (6.0.10)) date 2023-07-05 14:15:12*
%MOMM*%
%LPD*%
G01*
G04 APERTURE LIST*
%ADD10C,0.200000*%
%ADD11C,0.600000*%
%ADD12O,0.900000X2.000000*%
%ADD13O,0.900000X1.700000*%
%ADD14C,2.000000*%
%ADD15C,0.800000*%
%ADD16C,7.000000*%
%ADD17R,1.150000X1.150000*%
%ADD18C,1.150000*%
G04 APERTURE END LIST*
D10*
X146200000Y-87100000D02*
X140200000Y-87100000D01*
X140200000Y-83100000D02*
X145200000Y-83100000D01*
X146200000Y-86100000D02*
X146200000Y-87100000D01*
X140200000Y-87100000D02*
X140200000Y-83100000D01*
%LPC*%
D11*
X145590000Y-103670000D03*
X139810000Y-103670000D03*
D12*
X138375000Y-103180000D03*
X147025000Y-103180000D03*
D13*
X138375000Y-107350000D03*
X147025000Y-107350000D03*
D14*
X135228400Y-93685800D03*
X128728400Y-93685800D03*
X135228400Y-98185800D03*
X128728400Y-98185800D03*
D15*
X130938955Y-102943845D03*
X127226645Y-102943845D03*
X129082800Y-102175000D03*
X126457800Y-104800000D03*
X129082800Y-107425000D03*
D16*
X129082800Y-104800000D03*
D15*
X130938955Y-106656155D03*
X131707800Y-104800000D03*
X127226645Y-106656155D03*
X157124400Y-102175000D03*
X154499400Y-104800000D03*
X159749400Y-104800000D03*
X158980555Y-102943845D03*
X158980555Y-106656155D03*
X157124400Y-107425000D03*
D16*
X157124400Y-104800000D03*
D15*
X155268245Y-106656155D03*
X155268245Y-102943845D03*
D14*
X150750000Y-93685800D03*
X157250000Y-93685800D03*
X157250000Y-98185800D03*
X150750000Y-98185800D03*
D17*
X145200000Y-86100000D03*
D18*
X145200000Y-84100000D03*
X143200000Y-86100000D03*
X143200000Y-84100000D03*
X141200000Y-86100000D03*
X141200000Y-84100000D03*
M02*
