G04 #@! TF.GenerationSoftware,KiCad,Pcbnew,(6.0.10)*
G04 #@! TF.CreationDate,2023-07-07T16:54:03+02:00*
G04 #@! TF.ProjectId,SprinklerBoardESP32V3,53707269-6e6b-46c6-9572-426f61726445,rev?*
G04 #@! TF.SameCoordinates,Original*
G04 #@! TF.FileFunction,Legend,Top*
G04 #@! TF.FilePolarity,Positive*
%FSLAX46Y46*%
G04 Gerber Fmt 4.6, Leading zero omitted, Abs format (unit mm)*
G04 Created by KiCad (PCBNEW (6.0.10)) date 2023-07-07 16:54:03*
%MOMM*%
%LPD*%
G01*
G04 APERTURE LIST*
G04 Aperture macros list*
%AMRoundRect*
0 Rectangle with rounded corners*
0 $1 Rounding radius*
0 $2 $3 $4 $5 $6 $7 $8 $9 X,Y pos of 4 corners*
0 Add a 4 corners polygon primitive as box body*
4,1,4,$2,$3,$4,$5,$6,$7,$8,$9,$2,$3,0*
0 Add four circle primitives for the rounded corners*
1,1,$1+$1,$2,$3*
1,1,$1+$1,$4,$5*
1,1,$1+$1,$6,$7*
1,1,$1+$1,$8,$9*
0 Add four rect primitives between the rounded corners*
20,1,$1+$1,$2,$3,$4,$5,0*
20,1,$1+$1,$4,$5,$6,$7,0*
20,1,$1+$1,$6,$7,$8,$9,0*
20,1,$1+$1,$8,$9,$2,$3,0*%
G04 Aperture macros list end*
%ADD10C,0.125000*%
%ADD11C,0.100000*%
%ADD12C,0.120000*%
%ADD13C,0.127000*%
%ADD14C,0.200000*%
%ADD15RoundRect,0.135000X-0.185000X0.135000X-0.185000X-0.135000X0.185000X-0.135000X0.185000X0.135000X0*%
%ADD16RoundRect,0.140000X-0.170000X0.140000X-0.170000X-0.140000X0.170000X-0.140000X0.170000X0.140000X0*%
%ADD17RoundRect,0.140000X-0.140000X-0.170000X0.140000X-0.170000X0.140000X0.170000X-0.140000X0.170000X0*%
%ADD18C,0.800000*%
%ADD19C,6.400000*%
%ADD20RoundRect,0.140000X0.140000X0.170000X-0.140000X0.170000X-0.140000X-0.170000X0.140000X-0.170000X0*%
%ADD21RoundRect,0.091000X-0.864000X-0.364000X0.864000X-0.364000X0.864000X0.364000X-0.864000X0.364000X0*%
%ADD22O,1.700000X1.700000*%
%ADD23R,1.700000X1.700000*%
%ADD24R,0.450000X0.600000*%
%ADD25RoundRect,0.135000X-0.135000X-0.185000X0.135000X-0.185000X0.135000X0.185000X-0.135000X0.185000X0*%
%ADD26RoundRect,0.147500X0.172500X-0.147500X0.172500X0.147500X-0.172500X0.147500X-0.172500X-0.147500X0*%
%ADD27RoundRect,0.147500X-0.147500X-0.172500X0.147500X-0.172500X0.147500X0.172500X-0.147500X0.172500X0*%
%ADD28RoundRect,0.135000X0.185000X-0.135000X0.185000X0.135000X-0.185000X0.135000X-0.185000X-0.135000X0*%
%ADD29R,0.900000X1.500000*%
%ADD30R,0.800000X0.800000*%
%ADD31RoundRect,0.135000X0.135000X0.185000X-0.135000X0.185000X-0.135000X-0.185000X0.135000X-0.185000X0*%
%ADD32RoundRect,0.140000X0.170000X-0.140000X0.170000X0.140000X-0.170000X0.140000X-0.170000X-0.140000X0*%
%ADD33R,1.800000X2.500000*%
%ADD34R,1.193800X0.812800*%
%ADD35RoundRect,0.150000X0.587500X0.150000X-0.587500X0.150000X-0.587500X-0.150000X0.587500X-0.150000X0*%
%ADD36RoundRect,0.150000X-0.825000X-0.150000X0.825000X-0.150000X0.825000X0.150000X-0.825000X0.150000X0*%
%ADD37C,1.950000*%
%ADD38RoundRect,0.250000X0.625000X-0.350000X0.625000X0.350000X-0.625000X0.350000X-0.625000X-0.350000X0*%
%ADD39O,1.750000X1.200000*%
%ADD40R,1.500000X2.500000*%
%ADD41O,1.500000X2.500000*%
%ADD42R,1.350000X1.350000*%
%ADD43O,1.350000X1.350000*%
G04 APERTURE END LIST*
D10*
X92323809Y-115423809D02*
X92300000Y-115400000D01*
X92276190Y-115352380D01*
X92276190Y-115233333D01*
X92300000Y-115185714D01*
X92323809Y-115161904D01*
X92371428Y-115138095D01*
X92419047Y-115138095D01*
X92490476Y-115161904D01*
X92776190Y-115447619D01*
X92776190Y-115138095D01*
X92442857Y-114709523D02*
X92776190Y-114709523D01*
X92252380Y-114828571D02*
X92609523Y-114947619D01*
X92609523Y-114638095D01*
X92276190Y-114519047D02*
X92776190Y-114352380D01*
X92276190Y-114185714D01*
X92585714Y-114090476D02*
X92561904Y-114066666D01*
X92538095Y-114019047D01*
X92585714Y-113923809D01*
X92561904Y-113876190D01*
X92538095Y-113852380D01*
X92323809Y-118023809D02*
X92300000Y-118000000D01*
X92276190Y-117952380D01*
X92276190Y-117833333D01*
X92300000Y-117785714D01*
X92323809Y-117761904D01*
X92371428Y-117738095D01*
X92419047Y-117738095D01*
X92490476Y-117761904D01*
X92776190Y-118047619D01*
X92776190Y-117738095D01*
X92442857Y-117309523D02*
X92776190Y-117309523D01*
X92252380Y-117428571D02*
X92609523Y-117547619D01*
X92609523Y-117238095D01*
X92276190Y-117119047D02*
X92776190Y-116952380D01*
X92276190Y-116785714D01*
X92585714Y-116690476D02*
X92561904Y-116666666D01*
X92538095Y-116619047D01*
X92585714Y-116523809D01*
X92561904Y-116476190D01*
X92538095Y-116452380D01*
X92300000Y-122980952D02*
X92276190Y-123028571D01*
X92276190Y-123100000D01*
X92300000Y-123171428D01*
X92347619Y-123219047D01*
X92395238Y-123242857D01*
X92490476Y-123266666D01*
X92561904Y-123266666D01*
X92657142Y-123242857D01*
X92704761Y-123219047D01*
X92752380Y-123171428D01*
X92776190Y-123100000D01*
X92776190Y-123052380D01*
X92752380Y-122980952D01*
X92728571Y-122957142D01*
X92561904Y-122957142D01*
X92561904Y-123052380D01*
X92776190Y-122742857D02*
X92276190Y-122742857D01*
X92776190Y-122457142D01*
X92276190Y-122457142D01*
X92776190Y-122219047D02*
X92276190Y-122219047D01*
X92276190Y-122100000D01*
X92300000Y-122028571D01*
X92347619Y-121980952D01*
X92395238Y-121957142D01*
X92490476Y-121933333D01*
X92561904Y-121933333D01*
X92657142Y-121957142D01*
X92704761Y-121980952D01*
X92752380Y-122028571D01*
X92776190Y-122100000D01*
X92776190Y-122219047D01*
X92776190Y-121097619D02*
X92538095Y-121264285D01*
X92776190Y-121383333D02*
X92276190Y-121383333D01*
X92276190Y-121192857D01*
X92300000Y-121145238D01*
X92323809Y-121121428D01*
X92371428Y-121097619D01*
X92442857Y-121097619D01*
X92490476Y-121121428D01*
X92514285Y-121145238D01*
X92538095Y-121192857D01*
X92538095Y-121383333D01*
X92752380Y-120907142D02*
X92776190Y-120835714D01*
X92776190Y-120716666D01*
X92752380Y-120669047D01*
X92728571Y-120645238D01*
X92680952Y-120621428D01*
X92633333Y-120621428D01*
X92585714Y-120645238D01*
X92561904Y-120669047D01*
X92538095Y-120716666D01*
X92514285Y-120811904D01*
X92490476Y-120859523D01*
X92466666Y-120883333D01*
X92419047Y-120907142D01*
X92371428Y-120907142D01*
X92323809Y-120883333D01*
X92300000Y-120859523D01*
X92276190Y-120811904D01*
X92276190Y-120692857D01*
X92300000Y-120621428D01*
X92442857Y-120192857D02*
X92776190Y-120192857D01*
X92252380Y-120311904D02*
X92609523Y-120430952D01*
X92609523Y-120121428D01*
X92490476Y-119859523D02*
X92466666Y-119907142D01*
X92442857Y-119930952D01*
X92395238Y-119954761D01*
X92371428Y-119954761D01*
X92323809Y-119930952D01*
X92300000Y-119907142D01*
X92276190Y-119859523D01*
X92276190Y-119764285D01*
X92300000Y-119716666D01*
X92323809Y-119692857D01*
X92371428Y-119669047D01*
X92395238Y-119669047D01*
X92442857Y-119692857D01*
X92466666Y-119716666D01*
X92490476Y-119764285D01*
X92490476Y-119859523D01*
X92514285Y-119907142D01*
X92538095Y-119930952D01*
X92585714Y-119954761D01*
X92680952Y-119954761D01*
X92728571Y-119930952D01*
X92752380Y-119907142D01*
X92776190Y-119859523D01*
X92776190Y-119764285D01*
X92752380Y-119716666D01*
X92728571Y-119692857D01*
X92680952Y-119669047D01*
X92585714Y-119669047D01*
X92538095Y-119692857D01*
X92514285Y-119716666D01*
X92490476Y-119764285D01*
X92276190Y-119216666D02*
X92276190Y-119454761D01*
X92514285Y-119478571D01*
X92490476Y-119454761D01*
X92466666Y-119407142D01*
X92466666Y-119288095D01*
X92490476Y-119240476D01*
X92514285Y-119216666D01*
X92561904Y-119192857D01*
X92680952Y-119192857D01*
X92728571Y-119216666D01*
X92752380Y-119240476D01*
X92776190Y-119288095D01*
X92776190Y-119407142D01*
X92752380Y-119454761D01*
X92728571Y-119478571D01*
X92514285Y-118811904D02*
X92538095Y-118740476D01*
X92561904Y-118716666D01*
X92609523Y-118692857D01*
X92680952Y-118692857D01*
X92728571Y-118716666D01*
X92752380Y-118740476D01*
X92776190Y-118788095D01*
X92776190Y-118978571D01*
X92276190Y-118978571D01*
X92276190Y-118811904D01*
X92300000Y-118764285D01*
X92323809Y-118740476D01*
X92371428Y-118716666D01*
X92419047Y-118716666D01*
X92466666Y-118740476D01*
X92490476Y-118764285D01*
X92514285Y-118811904D01*
X92514285Y-118978571D01*
X92776190Y-126261904D02*
X92538095Y-126428571D01*
X92776190Y-126547619D02*
X92276190Y-126547619D01*
X92276190Y-126357142D01*
X92300000Y-126309523D01*
X92323809Y-126285714D01*
X92371428Y-126261904D01*
X92442857Y-126261904D01*
X92490476Y-126285714D01*
X92514285Y-126309523D01*
X92538095Y-126357142D01*
X92538095Y-126547619D01*
X92752380Y-126071428D02*
X92776190Y-126000000D01*
X92776190Y-125880952D01*
X92752380Y-125833333D01*
X92728571Y-125809523D01*
X92680952Y-125785714D01*
X92633333Y-125785714D01*
X92585714Y-125809523D01*
X92561904Y-125833333D01*
X92538095Y-125880952D01*
X92514285Y-125976190D01*
X92490476Y-126023809D01*
X92466666Y-126047619D01*
X92419047Y-126071428D01*
X92371428Y-126071428D01*
X92323809Y-126047619D01*
X92300000Y-126023809D01*
X92276190Y-125976190D01*
X92276190Y-125857142D01*
X92300000Y-125785714D01*
X92442857Y-125357142D02*
X92776190Y-125357142D01*
X92252380Y-125476190D02*
X92609523Y-125595238D01*
X92609523Y-125285714D01*
X92490476Y-125023809D02*
X92466666Y-125071428D01*
X92442857Y-125095238D01*
X92395238Y-125119047D01*
X92371428Y-125119047D01*
X92323809Y-125095238D01*
X92300000Y-125071428D01*
X92276190Y-125023809D01*
X92276190Y-124928571D01*
X92300000Y-124880952D01*
X92323809Y-124857142D01*
X92371428Y-124833333D01*
X92395238Y-124833333D01*
X92442857Y-124857142D01*
X92466666Y-124880952D01*
X92490476Y-124928571D01*
X92490476Y-125023809D01*
X92514285Y-125071428D01*
X92538095Y-125095238D01*
X92585714Y-125119047D01*
X92680952Y-125119047D01*
X92728571Y-125095238D01*
X92752380Y-125071428D01*
X92776190Y-125023809D01*
X92776190Y-124928571D01*
X92752380Y-124880952D01*
X92728571Y-124857142D01*
X92680952Y-124833333D01*
X92585714Y-124833333D01*
X92538095Y-124857142D01*
X92514285Y-124880952D01*
X92490476Y-124928571D01*
X92276190Y-124380952D02*
X92276190Y-124619047D01*
X92514285Y-124642857D01*
X92490476Y-124619047D01*
X92466666Y-124571428D01*
X92466666Y-124452380D01*
X92490476Y-124404761D01*
X92514285Y-124380952D01*
X92561904Y-124357142D01*
X92680952Y-124357142D01*
X92728571Y-124380952D01*
X92752380Y-124404761D01*
X92776190Y-124452380D01*
X92776190Y-124571428D01*
X92752380Y-124619047D01*
X92728571Y-124642857D01*
X92633333Y-124166666D02*
X92633333Y-123928571D01*
X92776190Y-124214285D02*
X92276190Y-124047619D01*
X92776190Y-123880952D01*
X96326190Y-115276190D02*
X95992857Y-115276190D01*
X96088095Y-115276190D02*
X96040476Y-115252380D01*
X96016666Y-115228571D01*
X95992857Y-115180952D01*
X95992857Y-115133333D01*
X96302380Y-114776190D02*
X96326190Y-114823809D01*
X96326190Y-114919047D01*
X96302380Y-114966666D01*
X96254761Y-114990476D01*
X96064285Y-114990476D01*
X96016666Y-114966666D01*
X95992857Y-114919047D01*
X95992857Y-114823809D01*
X96016666Y-114776190D01*
X96064285Y-114752380D01*
X96111904Y-114752380D01*
X96159523Y-114990476D01*
X96326190Y-114323809D02*
X95826190Y-114323809D01*
X96302380Y-114323809D02*
X96326190Y-114371428D01*
X96326190Y-114466666D01*
X96302380Y-114514285D01*
X96278571Y-114538095D01*
X96230952Y-114561904D01*
X96088095Y-114561904D01*
X96040476Y-114538095D01*
X96016666Y-114514285D01*
X95992857Y-114466666D01*
X95992857Y-114371428D01*
X96016666Y-114323809D01*
X95992857Y-118483333D02*
X96326190Y-118364285D01*
X95992857Y-118245238D02*
X96326190Y-118364285D01*
X96445238Y-118411904D01*
X96469047Y-118435714D01*
X96492857Y-118483333D01*
X96302380Y-117864285D02*
X96326190Y-117911904D01*
X96326190Y-118007142D01*
X96302380Y-118054761D01*
X96254761Y-118078571D01*
X96064285Y-118078571D01*
X96016666Y-118054761D01*
X95992857Y-118007142D01*
X95992857Y-117911904D01*
X96016666Y-117864285D01*
X96064285Y-117840476D01*
X96111904Y-117840476D01*
X96159523Y-118078571D01*
X96326190Y-117554761D02*
X96302380Y-117602380D01*
X96254761Y-117626190D01*
X95826190Y-117626190D01*
X96326190Y-117292857D02*
X96302380Y-117340476D01*
X96254761Y-117364285D01*
X95826190Y-117364285D01*
X96326190Y-117030952D02*
X96302380Y-117078571D01*
X96278571Y-117102380D01*
X96230952Y-117126190D01*
X96088095Y-117126190D01*
X96040476Y-117102380D01*
X96016666Y-117078571D01*
X95992857Y-117030952D01*
X95992857Y-116959523D01*
X96016666Y-116911904D01*
X96040476Y-116888095D01*
X96088095Y-116864285D01*
X96230952Y-116864285D01*
X96278571Y-116888095D01*
X96302380Y-116911904D01*
X96326190Y-116959523D01*
X96326190Y-117030952D01*
X95992857Y-116697619D02*
X96326190Y-116602380D01*
X96088095Y-116507142D01*
X96326190Y-116411904D01*
X95992857Y-116316666D01*
X95992857Y-125652380D02*
X96397619Y-125652380D01*
X96445238Y-125676190D01*
X96469047Y-125700000D01*
X96492857Y-125747619D01*
X96492857Y-125819047D01*
X96469047Y-125866666D01*
X96302380Y-125652380D02*
X96326190Y-125700000D01*
X96326190Y-125795238D01*
X96302380Y-125842857D01*
X96278571Y-125866666D01*
X96230952Y-125890476D01*
X96088095Y-125890476D01*
X96040476Y-125866666D01*
X96016666Y-125842857D01*
X95992857Y-125795238D01*
X95992857Y-125700000D01*
X96016666Y-125652380D01*
X96326190Y-125414285D02*
X95992857Y-125414285D01*
X96088095Y-125414285D02*
X96040476Y-125390476D01*
X96016666Y-125366666D01*
X95992857Y-125319047D01*
X95992857Y-125271428D01*
X96302380Y-124914285D02*
X96326190Y-124961904D01*
X96326190Y-125057142D01*
X96302380Y-125104761D01*
X96254761Y-125128571D01*
X96064285Y-125128571D01*
X96016666Y-125104761D01*
X95992857Y-125057142D01*
X95992857Y-124961904D01*
X96016666Y-124914285D01*
X96064285Y-124890476D01*
X96111904Y-124890476D01*
X96159523Y-125128571D01*
X96302380Y-124485714D02*
X96326190Y-124533333D01*
X96326190Y-124628571D01*
X96302380Y-124676190D01*
X96254761Y-124700000D01*
X96064285Y-124700000D01*
X96016666Y-124676190D01*
X95992857Y-124628571D01*
X95992857Y-124533333D01*
X96016666Y-124485714D01*
X96064285Y-124461904D01*
X96111904Y-124461904D01*
X96159523Y-124700000D01*
X95992857Y-124247619D02*
X96326190Y-124247619D01*
X96040476Y-124247619D02*
X96016666Y-124223809D01*
X95992857Y-124176190D01*
X95992857Y-124104761D01*
X96016666Y-124057142D01*
X96064285Y-124033333D01*
X96326190Y-124033333D01*
X96326190Y-120678571D02*
X95826190Y-120678571D01*
X96016666Y-120678571D02*
X95992857Y-120630952D01*
X95992857Y-120535714D01*
X96016666Y-120488095D01*
X96040476Y-120464285D01*
X96088095Y-120440476D01*
X96230952Y-120440476D01*
X96278571Y-120464285D01*
X96302380Y-120488095D01*
X96326190Y-120535714D01*
X96326190Y-120630952D01*
X96302380Y-120678571D01*
X96326190Y-120154761D02*
X96302380Y-120202380D01*
X96254761Y-120226190D01*
X95826190Y-120226190D01*
X95992857Y-119750000D02*
X96326190Y-119750000D01*
X95992857Y-119964285D02*
X96254761Y-119964285D01*
X96302380Y-119940476D01*
X96326190Y-119892857D01*
X96326190Y-119821428D01*
X96302380Y-119773809D01*
X96278571Y-119750000D01*
X96302380Y-119321428D02*
X96326190Y-119369047D01*
X96326190Y-119464285D01*
X96302380Y-119511904D01*
X96254761Y-119535714D01*
X96064285Y-119535714D01*
X96016666Y-119511904D01*
X95992857Y-119464285D01*
X95992857Y-119369047D01*
X96016666Y-119321428D01*
X96064285Y-119297619D01*
X96111904Y-119297619D01*
X96159523Y-119535714D01*
X96326190Y-123230952D02*
X95826190Y-123230952D01*
X96016666Y-123230952D02*
X95992857Y-123183333D01*
X95992857Y-123088095D01*
X96016666Y-123040476D01*
X96040476Y-123016666D01*
X96088095Y-122992857D01*
X96230952Y-122992857D01*
X96278571Y-123016666D01*
X96302380Y-123040476D01*
X96326190Y-123088095D01*
X96326190Y-123183333D01*
X96302380Y-123230952D01*
X96326190Y-122707142D02*
X96302380Y-122754761D01*
X96254761Y-122778571D01*
X95826190Y-122778571D01*
X96326190Y-122302380D02*
X96064285Y-122302380D01*
X96016666Y-122326190D01*
X95992857Y-122373809D01*
X95992857Y-122469047D01*
X96016666Y-122516666D01*
X96302380Y-122302380D02*
X96326190Y-122350000D01*
X96326190Y-122469047D01*
X96302380Y-122516666D01*
X96254761Y-122540476D01*
X96207142Y-122540476D01*
X96159523Y-122516666D01*
X96135714Y-122469047D01*
X96135714Y-122350000D01*
X96111904Y-122302380D01*
X96302380Y-121850000D02*
X96326190Y-121897619D01*
X96326190Y-121992857D01*
X96302380Y-122040476D01*
X96278571Y-122064285D01*
X96230952Y-122088095D01*
X96088095Y-122088095D01*
X96040476Y-122064285D01*
X96016666Y-122040476D01*
X95992857Y-121992857D01*
X95992857Y-121897619D01*
X96016666Y-121850000D01*
X96326190Y-121635714D02*
X95826190Y-121635714D01*
X96135714Y-121588095D02*
X96326190Y-121445238D01*
X95992857Y-121445238D02*
X96183333Y-121635714D01*
D11*
X99071428Y-111192857D02*
X99157142Y-111221428D01*
X99300000Y-111221428D01*
X99357142Y-111192857D01*
X99385714Y-111164285D01*
X99414285Y-111107142D01*
X99414285Y-111050000D01*
X99385714Y-110992857D01*
X99357142Y-110964285D01*
X99300000Y-110935714D01*
X99185714Y-110907142D01*
X99128571Y-110878571D01*
X99100000Y-110850000D01*
X99071428Y-110792857D01*
X99071428Y-110735714D01*
X99100000Y-110678571D01*
X99128571Y-110650000D01*
X99185714Y-110621428D01*
X99328571Y-110621428D01*
X99414285Y-110650000D01*
X99671428Y-111221428D02*
X99671428Y-110621428D01*
X99814285Y-110621428D01*
X99900000Y-110650000D01*
X99957142Y-110707142D01*
X99985714Y-110764285D01*
X100014285Y-110878571D01*
X100014285Y-110964285D01*
X99985714Y-111078571D01*
X99957142Y-111135714D01*
X99900000Y-111192857D01*
X99814285Y-111221428D01*
X99671428Y-111221428D01*
X100242857Y-111050000D02*
X100528571Y-111050000D01*
X100185714Y-111221428D02*
X100385714Y-110621428D01*
X100585714Y-111221428D01*
X99082542Y-105008028D02*
X99453971Y-105008028D01*
X99253971Y-105236600D01*
X99339685Y-105236600D01*
X99396828Y-105265171D01*
X99425400Y-105293742D01*
X99453971Y-105350885D01*
X99453971Y-105493742D01*
X99425400Y-105550885D01*
X99396828Y-105579457D01*
X99339685Y-105608028D01*
X99168257Y-105608028D01*
X99111114Y-105579457D01*
X99082542Y-105550885D01*
X99625400Y-105008028D02*
X99825400Y-105608028D01*
X100025400Y-105008028D01*
X100168257Y-105008028D02*
X100539685Y-105008028D01*
X100339685Y-105236600D01*
X100425400Y-105236600D01*
X100482542Y-105265171D01*
X100511114Y-105293742D01*
X100539685Y-105350885D01*
X100539685Y-105493742D01*
X100511114Y-105550885D01*
X100482542Y-105579457D01*
X100425400Y-105608028D01*
X100253971Y-105608028D01*
X100196828Y-105579457D01*
X100168257Y-105550885D01*
X99342857Y-102522000D02*
X99285714Y-102493428D01*
X99200000Y-102493428D01*
X99114285Y-102522000D01*
X99057142Y-102579142D01*
X99028571Y-102636285D01*
X99000000Y-102750571D01*
X99000000Y-102836285D01*
X99028571Y-102950571D01*
X99057142Y-103007714D01*
X99114285Y-103064857D01*
X99200000Y-103093428D01*
X99257142Y-103093428D01*
X99342857Y-103064857D01*
X99371428Y-103036285D01*
X99371428Y-102836285D01*
X99257142Y-102836285D01*
X99628571Y-103093428D02*
X99628571Y-102493428D01*
X99971428Y-103093428D01*
X99971428Y-102493428D01*
X100257142Y-103093428D02*
X100257142Y-102493428D01*
X100400000Y-102493428D01*
X100485714Y-102522000D01*
X100542857Y-102579142D01*
X100571428Y-102636285D01*
X100600000Y-102750571D01*
X100600000Y-102836285D01*
X100571428Y-102950571D01*
X100542857Y-103007714D01*
X100485714Y-103064857D01*
X100400000Y-103093428D01*
X100257142Y-103093428D01*
X99135714Y-108271857D02*
X99221428Y-108300428D01*
X99364285Y-108300428D01*
X99421428Y-108271857D01*
X99450000Y-108243285D01*
X99478571Y-108186142D01*
X99478571Y-108129000D01*
X99450000Y-108071857D01*
X99421428Y-108043285D01*
X99364285Y-108014714D01*
X99250000Y-107986142D01*
X99192857Y-107957571D01*
X99164285Y-107929000D01*
X99135714Y-107871857D01*
X99135714Y-107814714D01*
X99164285Y-107757571D01*
X99192857Y-107729000D01*
X99250000Y-107700428D01*
X99392857Y-107700428D01*
X99478571Y-107729000D01*
X100078571Y-108243285D02*
X100050000Y-108271857D01*
X99964285Y-108300428D01*
X99907142Y-108300428D01*
X99821428Y-108271857D01*
X99764285Y-108214714D01*
X99735714Y-108157571D01*
X99707142Y-108043285D01*
X99707142Y-107957571D01*
X99735714Y-107843285D01*
X99764285Y-107786142D01*
X99821428Y-107729000D01*
X99907142Y-107700428D01*
X99964285Y-107700428D01*
X100050000Y-107729000D01*
X100078571Y-107757571D01*
X100621428Y-108300428D02*
X100335714Y-108300428D01*
X100335714Y-107700428D01*
X105726190Y-117171428D02*
X105488095Y-117338095D01*
X105726190Y-117457142D02*
X105226190Y-117457142D01*
X105226190Y-117266666D01*
X105250000Y-117219047D01*
X105273809Y-117195238D01*
X105321428Y-117171428D01*
X105392857Y-117171428D01*
X105440476Y-117195238D01*
X105464285Y-117219047D01*
X105488095Y-117266666D01*
X105488095Y-117457142D01*
X105726190Y-116695238D02*
X105726190Y-116980952D01*
X105726190Y-116838095D02*
X105226190Y-116838095D01*
X105297619Y-116885714D01*
X105345238Y-116933333D01*
X105369047Y-116980952D01*
X105726190Y-116457142D02*
X105726190Y-116361904D01*
X105702380Y-116314285D01*
X105678571Y-116290476D01*
X105607142Y-116242857D01*
X105511904Y-116219047D01*
X105321428Y-116219047D01*
X105273809Y-116242857D01*
X105250000Y-116266666D01*
X105226190Y-116314285D01*
X105226190Y-116409523D01*
X105250000Y-116457142D01*
X105273809Y-116480952D01*
X105321428Y-116504761D01*
X105440476Y-116504761D01*
X105488095Y-116480952D01*
X105511904Y-116457142D01*
X105535714Y-116409523D01*
X105535714Y-116314285D01*
X105511904Y-116266666D01*
X105488095Y-116242857D01*
X105440476Y-116219047D01*
X86278571Y-84291428D02*
X86302380Y-84315238D01*
X86326190Y-84386666D01*
X86326190Y-84434285D01*
X86302380Y-84505714D01*
X86254761Y-84553333D01*
X86207142Y-84577142D01*
X86111904Y-84600952D01*
X86040476Y-84600952D01*
X85945238Y-84577142D01*
X85897619Y-84553333D01*
X85850000Y-84505714D01*
X85826190Y-84434285D01*
X85826190Y-84386666D01*
X85850000Y-84315238D01*
X85873809Y-84291428D01*
X86326190Y-83815238D02*
X86326190Y-84100952D01*
X86326190Y-83958095D02*
X85826190Y-83958095D01*
X85897619Y-84005714D01*
X85945238Y-84053333D01*
X85969047Y-84100952D01*
X85992857Y-83386666D02*
X86326190Y-83386666D01*
X85802380Y-83505714D02*
X86159523Y-83624761D01*
X86159523Y-83315238D01*
X73716666Y-113178571D02*
X73692857Y-113202380D01*
X73621428Y-113226190D01*
X73573809Y-113226190D01*
X73502380Y-113202380D01*
X73454761Y-113154761D01*
X73430952Y-113107142D01*
X73407142Y-113011904D01*
X73407142Y-112940476D01*
X73430952Y-112845238D01*
X73454761Y-112797619D01*
X73502380Y-112750000D01*
X73573809Y-112726190D01*
X73621428Y-112726190D01*
X73692857Y-112750000D01*
X73716666Y-112773809D01*
X73883333Y-112726190D02*
X74192857Y-112726190D01*
X74026190Y-112916666D01*
X74097619Y-112916666D01*
X74145238Y-112940476D01*
X74169047Y-112964285D01*
X74192857Y-113011904D01*
X74192857Y-113130952D01*
X74169047Y-113178571D01*
X74145238Y-113202380D01*
X74097619Y-113226190D01*
X73954761Y-113226190D01*
X73907142Y-113202380D01*
X73883333Y-113178571D01*
X113125989Y-122976633D02*
X113125989Y-122476633D01*
X113125989Y-122714728D02*
X113411703Y-122714728D01*
X113411703Y-122976633D02*
X113411703Y-122476633D01*
X113602180Y-122476633D02*
X113911703Y-122476633D01*
X113745037Y-122667109D01*
X113816465Y-122667109D01*
X113864084Y-122690919D01*
X113887894Y-122714728D01*
X113911703Y-122762347D01*
X113911703Y-122881395D01*
X113887894Y-122929014D01*
X113864084Y-122952823D01*
X113816465Y-122976633D01*
X113673608Y-122976633D01*
X113625989Y-122952823D01*
X113602180Y-122929014D01*
X90916666Y-113828571D02*
X90892857Y-113852380D01*
X90821428Y-113876190D01*
X90773809Y-113876190D01*
X90702380Y-113852380D01*
X90654761Y-113804761D01*
X90630952Y-113757142D01*
X90607142Y-113661904D01*
X90607142Y-113590476D01*
X90630952Y-113495238D01*
X90654761Y-113447619D01*
X90702380Y-113400000D01*
X90773809Y-113376190D01*
X90821428Y-113376190D01*
X90892857Y-113400000D01*
X90916666Y-113423809D01*
X91345238Y-113376190D02*
X91250000Y-113376190D01*
X91202380Y-113400000D01*
X91178571Y-113423809D01*
X91130952Y-113495238D01*
X91107142Y-113590476D01*
X91107142Y-113780952D01*
X91130952Y-113828571D01*
X91154761Y-113852380D01*
X91202380Y-113876190D01*
X91297619Y-113876190D01*
X91345238Y-113852380D01*
X91369047Y-113828571D01*
X91392857Y-113780952D01*
X91392857Y-113661904D01*
X91369047Y-113614285D01*
X91345238Y-113590476D01*
X91297619Y-113566666D01*
X91202380Y-113566666D01*
X91154761Y-113590476D01*
X91130952Y-113614285D01*
X91107142Y-113661904D01*
X79678571Y-117871428D02*
X79702380Y-117895238D01*
X79726190Y-117966666D01*
X79726190Y-118014285D01*
X79702380Y-118085714D01*
X79654761Y-118133333D01*
X79607142Y-118157142D01*
X79511904Y-118180952D01*
X79440476Y-118180952D01*
X79345238Y-118157142D01*
X79297619Y-118133333D01*
X79250000Y-118085714D01*
X79226190Y-118014285D01*
X79226190Y-117966666D01*
X79250000Y-117895238D01*
X79273809Y-117871428D01*
X79726190Y-117395238D02*
X79726190Y-117680952D01*
X79726190Y-117538095D02*
X79226190Y-117538095D01*
X79297619Y-117585714D01*
X79345238Y-117633333D01*
X79369047Y-117680952D01*
X79226190Y-116942857D02*
X79226190Y-117180952D01*
X79464285Y-117204761D01*
X79440476Y-117180952D01*
X79416666Y-117133333D01*
X79416666Y-117014285D01*
X79440476Y-116966666D01*
X79464285Y-116942857D01*
X79511904Y-116919047D01*
X79630952Y-116919047D01*
X79678571Y-116942857D01*
X79702380Y-116966666D01*
X79726190Y-117014285D01*
X79726190Y-117133333D01*
X79702380Y-117180952D01*
X79678571Y-117204761D01*
X101945064Y-84563771D02*
X101945064Y-84063771D01*
X102064112Y-84063771D01*
X102135540Y-84087581D01*
X102183159Y-84135200D01*
X102206969Y-84182819D01*
X102230778Y-84278057D01*
X102230778Y-84349485D01*
X102206969Y-84444723D01*
X102183159Y-84492342D01*
X102135540Y-84539961D01*
X102064112Y-84563771D01*
X101945064Y-84563771D01*
X102659350Y-84230438D02*
X102659350Y-84563771D01*
X102540302Y-84039961D02*
X102421254Y-84397104D01*
X102730778Y-84397104D01*
X73716666Y-114995237D02*
X73692857Y-115019046D01*
X73621428Y-115042856D01*
X73573809Y-115042856D01*
X73502380Y-115019046D01*
X73454761Y-114971427D01*
X73430952Y-114923808D01*
X73407142Y-114828570D01*
X73407142Y-114757142D01*
X73430952Y-114661904D01*
X73454761Y-114614285D01*
X73502380Y-114566666D01*
X73573809Y-114542856D01*
X73621428Y-114542856D01*
X73692857Y-114566666D01*
X73716666Y-114590475D01*
X74145238Y-114709523D02*
X74145238Y-115042856D01*
X74026190Y-114519046D02*
X73907142Y-114876189D01*
X74216666Y-114876189D01*
X97683333Y-126976190D02*
X97683333Y-127333333D01*
X97659523Y-127404761D01*
X97611904Y-127452380D01*
X97540476Y-127476190D01*
X97492857Y-127476190D01*
X98159523Y-126976190D02*
X97921428Y-126976190D01*
X97897619Y-127214285D01*
X97921428Y-127190476D01*
X97969047Y-127166666D01*
X98088095Y-127166666D01*
X98135714Y-127190476D01*
X98159523Y-127214285D01*
X98183333Y-127261904D01*
X98183333Y-127380952D01*
X98159523Y-127428571D01*
X98135714Y-127452380D01*
X98088095Y-127476190D01*
X97969047Y-127476190D01*
X97921428Y-127452380D01*
X97897619Y-127428571D01*
X88926190Y-88219047D02*
X88426190Y-88219047D01*
X88426190Y-88100000D01*
X88450000Y-88028571D01*
X88497619Y-87980952D01*
X88545238Y-87957142D01*
X88640476Y-87933333D01*
X88711904Y-87933333D01*
X88807142Y-87957142D01*
X88854761Y-87980952D01*
X88902380Y-88028571D01*
X88926190Y-88100000D01*
X88926190Y-88219047D01*
X88926190Y-87457142D02*
X88926190Y-87742857D01*
X88926190Y-87600000D02*
X88426190Y-87600000D01*
X88497619Y-87647619D01*
X88545238Y-87695238D01*
X88569047Y-87742857D01*
X93502866Y-91299990D02*
X93336200Y-91061895D01*
X93217152Y-91299990D02*
X93217152Y-90799990D01*
X93407628Y-90799990D01*
X93455247Y-90823800D01*
X93479057Y-90847609D01*
X93502866Y-90895228D01*
X93502866Y-90966657D01*
X93479057Y-91014276D01*
X93455247Y-91038085D01*
X93407628Y-91061895D01*
X93217152Y-91061895D01*
X93931438Y-90966657D02*
X93931438Y-91299990D01*
X93812390Y-90776180D02*
X93693342Y-91133323D01*
X94002866Y-91133323D01*
X104076190Y-102771428D02*
X103838095Y-102938095D01*
X104076190Y-103057142D02*
X103576190Y-103057142D01*
X103576190Y-102866666D01*
X103600000Y-102819047D01*
X103623809Y-102795238D01*
X103671428Y-102771428D01*
X103742857Y-102771428D01*
X103790476Y-102795238D01*
X103814285Y-102819047D01*
X103838095Y-102866666D01*
X103838095Y-103057142D01*
X104076190Y-102295238D02*
X104076190Y-102580952D01*
X104076190Y-102438095D02*
X103576190Y-102438095D01*
X103647619Y-102485714D01*
X103695238Y-102533333D01*
X103719047Y-102580952D01*
X103576190Y-101842857D02*
X103576190Y-102080952D01*
X103814285Y-102104761D01*
X103790476Y-102080952D01*
X103766666Y-102033333D01*
X103766666Y-101914285D01*
X103790476Y-101866666D01*
X103814285Y-101842857D01*
X103861904Y-101819047D01*
X103980952Y-101819047D01*
X104028571Y-101842857D01*
X104052380Y-101866666D01*
X104076190Y-101914285D01*
X104076190Y-102033333D01*
X104052380Y-102080952D01*
X104028571Y-102104761D01*
X90551371Y-117681190D02*
X90384704Y-117443095D01*
X90265657Y-117681190D02*
X90265657Y-117181190D01*
X90456133Y-117181190D01*
X90503752Y-117205000D01*
X90527561Y-117228809D01*
X90551371Y-117276428D01*
X90551371Y-117347857D01*
X90527561Y-117395476D01*
X90503752Y-117419285D01*
X90456133Y-117443095D01*
X90265657Y-117443095D01*
X91027561Y-117681190D02*
X90741847Y-117681190D01*
X90884704Y-117681190D02*
X90884704Y-117181190D01*
X90837085Y-117252619D01*
X90789466Y-117300238D01*
X90741847Y-117324047D01*
X91503752Y-117681190D02*
X91218038Y-117681190D01*
X91360895Y-117681190D02*
X91360895Y-117181190D01*
X91313276Y-117252619D01*
X91265657Y-117300238D01*
X91218038Y-117324047D01*
X77276190Y-113433333D02*
X77038095Y-113600000D01*
X77276190Y-113719047D02*
X76776190Y-113719047D01*
X76776190Y-113528571D01*
X76800000Y-113480952D01*
X76823809Y-113457142D01*
X76871428Y-113433333D01*
X76942857Y-113433333D01*
X76990476Y-113457142D01*
X77014285Y-113480952D01*
X77038095Y-113528571D01*
X77038095Y-113719047D01*
X77276190Y-112957142D02*
X77276190Y-113242857D01*
X77276190Y-113100000D02*
X76776190Y-113100000D01*
X76847619Y-113147619D01*
X76895238Y-113195238D01*
X76919047Y-113242857D01*
X71469047Y-90476190D02*
X71469047Y-89976190D01*
X71469047Y-90214285D02*
X71754761Y-90214285D01*
X71754761Y-90476190D02*
X71754761Y-89976190D01*
X72254761Y-90476190D02*
X71969047Y-90476190D01*
X72111904Y-90476190D02*
X72111904Y-89976190D01*
X72064285Y-90047619D01*
X72016666Y-90095238D01*
X71969047Y-90119047D01*
X80176190Y-114833333D02*
X79938095Y-115000000D01*
X80176190Y-115119047D02*
X79676190Y-115119047D01*
X79676190Y-114928571D01*
X79700000Y-114880952D01*
X79723809Y-114857142D01*
X79771428Y-114833333D01*
X79842857Y-114833333D01*
X79890476Y-114857142D01*
X79914285Y-114880952D01*
X79938095Y-114928571D01*
X79938095Y-115119047D01*
X79723809Y-114642857D02*
X79700000Y-114619047D01*
X79676190Y-114571428D01*
X79676190Y-114452380D01*
X79700000Y-114404761D01*
X79723809Y-114380952D01*
X79771428Y-114357142D01*
X79819047Y-114357142D01*
X79890476Y-114380952D01*
X80176190Y-114666666D01*
X80176190Y-114357142D01*
X104176190Y-104619047D02*
X103676190Y-104619047D01*
X103676190Y-104500000D01*
X103700000Y-104428571D01*
X103747619Y-104380952D01*
X103795238Y-104357142D01*
X103890476Y-104333333D01*
X103961904Y-104333333D01*
X104057142Y-104357142D01*
X104104761Y-104380952D01*
X104152380Y-104428571D01*
X104176190Y-104500000D01*
X104176190Y-104619047D01*
X103676190Y-103904761D02*
X103676190Y-104000000D01*
X103700000Y-104047619D01*
X103723809Y-104071428D01*
X103795238Y-104119047D01*
X103890476Y-104142857D01*
X104080952Y-104142857D01*
X104128571Y-104119047D01*
X104152380Y-104095238D01*
X104176190Y-104047619D01*
X104176190Y-103952380D01*
X104152380Y-103904761D01*
X104128571Y-103880952D01*
X104080952Y-103857142D01*
X103961904Y-103857142D01*
X103914285Y-103880952D01*
X103890476Y-103904761D01*
X103866666Y-103952380D01*
X103866666Y-104047619D01*
X103890476Y-104095238D01*
X103914285Y-104119047D01*
X103961904Y-104142857D01*
X104019590Y-111511047D02*
X103519590Y-111511047D01*
X103519590Y-111392000D01*
X103543400Y-111320571D01*
X103591019Y-111272952D01*
X103638638Y-111249142D01*
X103733876Y-111225333D01*
X103805304Y-111225333D01*
X103900542Y-111249142D01*
X103948161Y-111272952D01*
X103995780Y-111320571D01*
X104019590Y-111392000D01*
X104019590Y-111511047D01*
X103519590Y-111058666D02*
X103519590Y-110725333D01*
X104019590Y-110939619D01*
X88478571Y-84321428D02*
X88502380Y-84345238D01*
X88526190Y-84416666D01*
X88526190Y-84464285D01*
X88502380Y-84535714D01*
X88454761Y-84583333D01*
X88407142Y-84607142D01*
X88311904Y-84630952D01*
X88240476Y-84630952D01*
X88145238Y-84607142D01*
X88097619Y-84583333D01*
X88050000Y-84535714D01*
X88026190Y-84464285D01*
X88026190Y-84416666D01*
X88050000Y-84345238D01*
X88073809Y-84321428D01*
X88526190Y-83845238D02*
X88526190Y-84130952D01*
X88526190Y-83988095D02*
X88026190Y-83988095D01*
X88097619Y-84035714D01*
X88145238Y-84083333D01*
X88169047Y-84130952D01*
X88073809Y-83654761D02*
X88050000Y-83630952D01*
X88026190Y-83583333D01*
X88026190Y-83464285D01*
X88050000Y-83416666D01*
X88073809Y-83392857D01*
X88121428Y-83369047D01*
X88169047Y-83369047D01*
X88240476Y-83392857D01*
X88526190Y-83678571D01*
X88526190Y-83369047D01*
X104076190Y-100871428D02*
X103838095Y-101038095D01*
X104076190Y-101157142D02*
X103576190Y-101157142D01*
X103576190Y-100966666D01*
X103600000Y-100919047D01*
X103623809Y-100895238D01*
X103671428Y-100871428D01*
X103742857Y-100871428D01*
X103790476Y-100895238D01*
X103814285Y-100919047D01*
X103838095Y-100966666D01*
X103838095Y-101157142D01*
X104076190Y-100395238D02*
X104076190Y-100680952D01*
X104076190Y-100538095D02*
X103576190Y-100538095D01*
X103647619Y-100585714D01*
X103695238Y-100633333D01*
X103719047Y-100680952D01*
X103576190Y-99966666D02*
X103576190Y-100061904D01*
X103600000Y-100109523D01*
X103623809Y-100133333D01*
X103695238Y-100180952D01*
X103790476Y-100204761D01*
X103980952Y-100204761D01*
X104028571Y-100180952D01*
X104052380Y-100157142D01*
X104076190Y-100109523D01*
X104076190Y-100014285D01*
X104052380Y-99966666D01*
X104028571Y-99942857D01*
X103980952Y-99919047D01*
X103861904Y-99919047D01*
X103814285Y-99942857D01*
X103790476Y-99966666D01*
X103766666Y-100014285D01*
X103766666Y-100109523D01*
X103790476Y-100157142D01*
X103814285Y-100180952D01*
X103861904Y-100204761D01*
X87561066Y-115703171D02*
X87537257Y-115726980D01*
X87465828Y-115750790D01*
X87418209Y-115750790D01*
X87346780Y-115726980D01*
X87299161Y-115679361D01*
X87275352Y-115631742D01*
X87251542Y-115536504D01*
X87251542Y-115465076D01*
X87275352Y-115369838D01*
X87299161Y-115322219D01*
X87346780Y-115274600D01*
X87418209Y-115250790D01*
X87465828Y-115250790D01*
X87537257Y-115274600D01*
X87561066Y-115298409D01*
X88013447Y-115250790D02*
X87775352Y-115250790D01*
X87751542Y-115488885D01*
X87775352Y-115465076D01*
X87822971Y-115441266D01*
X87942019Y-115441266D01*
X87989638Y-115465076D01*
X88013447Y-115488885D01*
X88037257Y-115536504D01*
X88037257Y-115655552D01*
X88013447Y-115703171D01*
X87989638Y-115726980D01*
X87942019Y-115750790D01*
X87822971Y-115750790D01*
X87775352Y-115726980D01*
X87751542Y-115703171D01*
X106826190Y-123957142D02*
X106326190Y-123957142D01*
X106326190Y-123838095D01*
X106350000Y-123766666D01*
X106397619Y-123719047D01*
X106445238Y-123695238D01*
X106540476Y-123671428D01*
X106611904Y-123671428D01*
X106707142Y-123695238D01*
X106754761Y-123719047D01*
X106802380Y-123766666D01*
X106826190Y-123838095D01*
X106826190Y-123957142D01*
X106826190Y-123195238D02*
X106826190Y-123480952D01*
X106826190Y-123338095D02*
X106326190Y-123338095D01*
X106397619Y-123385714D01*
X106445238Y-123433333D01*
X106469047Y-123480952D01*
X106326190Y-122885714D02*
X106326190Y-122838095D01*
X106350000Y-122790476D01*
X106373809Y-122766666D01*
X106421428Y-122742857D01*
X106516666Y-122719047D01*
X106635714Y-122719047D01*
X106730952Y-122742857D01*
X106778571Y-122766666D01*
X106802380Y-122790476D01*
X106826190Y-122838095D01*
X106826190Y-122885714D01*
X106802380Y-122933333D01*
X106778571Y-122957142D01*
X106730952Y-122980952D01*
X106635714Y-123004761D01*
X106516666Y-123004761D01*
X106421428Y-122980952D01*
X106373809Y-122957142D01*
X106350000Y-122933333D01*
X106326190Y-122885714D01*
X97571752Y-89263390D02*
X97571752Y-88763390D01*
X97690800Y-88763390D01*
X97762228Y-88787200D01*
X97809847Y-88834819D01*
X97833657Y-88882438D01*
X97857466Y-88977676D01*
X97857466Y-89049104D01*
X97833657Y-89144342D01*
X97809847Y-89191961D01*
X97762228Y-89239580D01*
X97690800Y-89263390D01*
X97571752Y-89263390D01*
X98024133Y-88763390D02*
X98333657Y-88763390D01*
X98166990Y-88953866D01*
X98238419Y-88953866D01*
X98286038Y-88977676D01*
X98309847Y-89001485D01*
X98333657Y-89049104D01*
X98333657Y-89168152D01*
X98309847Y-89215771D01*
X98286038Y-89239580D01*
X98238419Y-89263390D01*
X98095561Y-89263390D01*
X98047942Y-89239580D01*
X98024133Y-89215771D01*
X73716666Y-116078571D02*
X73692857Y-116102380D01*
X73621428Y-116126190D01*
X73573809Y-116126190D01*
X73502380Y-116102380D01*
X73454761Y-116054761D01*
X73430952Y-116007142D01*
X73407142Y-115911904D01*
X73407142Y-115840476D01*
X73430952Y-115745238D01*
X73454761Y-115697619D01*
X73502380Y-115650000D01*
X73573809Y-115626190D01*
X73621428Y-115626190D01*
X73692857Y-115650000D01*
X73716666Y-115673809D01*
X73907142Y-115673809D02*
X73930952Y-115650000D01*
X73978571Y-115626190D01*
X74097619Y-115626190D01*
X74145238Y-115650000D01*
X74169047Y-115673809D01*
X74192857Y-115721428D01*
X74192857Y-115769047D01*
X74169047Y-115840476D01*
X73883333Y-116126190D01*
X74192857Y-116126190D01*
X87493466Y-114779371D02*
X87469657Y-114803180D01*
X87398228Y-114826990D01*
X87350609Y-114826990D01*
X87279180Y-114803180D01*
X87231561Y-114755561D01*
X87207752Y-114707942D01*
X87183942Y-114612704D01*
X87183942Y-114541276D01*
X87207752Y-114446038D01*
X87231561Y-114398419D01*
X87279180Y-114350800D01*
X87350609Y-114326990D01*
X87398228Y-114326990D01*
X87469657Y-114350800D01*
X87493466Y-114374609D01*
X87779180Y-114541276D02*
X87731561Y-114517466D01*
X87707752Y-114493657D01*
X87683942Y-114446038D01*
X87683942Y-114422228D01*
X87707752Y-114374609D01*
X87731561Y-114350800D01*
X87779180Y-114326990D01*
X87874419Y-114326990D01*
X87922038Y-114350800D01*
X87945847Y-114374609D01*
X87969657Y-114422228D01*
X87969657Y-114446038D01*
X87945847Y-114493657D01*
X87922038Y-114517466D01*
X87874419Y-114541276D01*
X87779180Y-114541276D01*
X87731561Y-114565085D01*
X87707752Y-114588895D01*
X87683942Y-114636514D01*
X87683942Y-114731752D01*
X87707752Y-114779371D01*
X87731561Y-114803180D01*
X87779180Y-114826990D01*
X87874419Y-114826990D01*
X87922038Y-114803180D01*
X87945847Y-114779371D01*
X87969657Y-114731752D01*
X87969657Y-114636514D01*
X87945847Y-114588895D01*
X87922038Y-114565085D01*
X87874419Y-114541276D01*
X105776190Y-119069047D02*
X105276190Y-119069047D01*
X105276190Y-118950000D01*
X105300000Y-118878571D01*
X105347619Y-118830952D01*
X105395238Y-118807142D01*
X105490476Y-118783333D01*
X105561904Y-118783333D01*
X105657142Y-118807142D01*
X105704761Y-118830952D01*
X105752380Y-118878571D01*
X105776190Y-118950000D01*
X105776190Y-119069047D01*
X105490476Y-118497619D02*
X105466666Y-118545238D01*
X105442857Y-118569047D01*
X105395238Y-118592857D01*
X105371428Y-118592857D01*
X105323809Y-118569047D01*
X105300000Y-118545238D01*
X105276190Y-118497619D01*
X105276190Y-118402380D01*
X105300000Y-118354761D01*
X105323809Y-118330952D01*
X105371428Y-118307142D01*
X105395238Y-118307142D01*
X105442857Y-118330952D01*
X105466666Y-118354761D01*
X105490476Y-118402380D01*
X105490476Y-118497619D01*
X105514285Y-118545238D01*
X105538095Y-118569047D01*
X105585714Y-118592857D01*
X105680952Y-118592857D01*
X105728571Y-118569047D01*
X105752380Y-118545238D01*
X105776190Y-118497619D01*
X105776190Y-118402380D01*
X105752380Y-118354761D01*
X105728571Y-118330952D01*
X105680952Y-118307142D01*
X105585714Y-118307142D01*
X105538095Y-118330952D01*
X105514285Y-118354761D01*
X105490476Y-118402380D01*
X100376190Y-102016666D02*
X100733333Y-102016666D01*
X100804761Y-102040476D01*
X100852380Y-102088095D01*
X100876190Y-102159523D01*
X100876190Y-102207142D01*
X100590476Y-101707142D02*
X100566666Y-101754761D01*
X100542857Y-101778571D01*
X100495238Y-101802380D01*
X100471428Y-101802380D01*
X100423809Y-101778571D01*
X100400000Y-101754761D01*
X100376190Y-101707142D01*
X100376190Y-101611904D01*
X100400000Y-101564285D01*
X100423809Y-101540476D01*
X100471428Y-101516666D01*
X100495238Y-101516666D01*
X100542857Y-101540476D01*
X100566666Y-101564285D01*
X100590476Y-101611904D01*
X100590476Y-101707142D01*
X100614285Y-101754761D01*
X100638095Y-101778571D01*
X100685714Y-101802380D01*
X100780952Y-101802380D01*
X100828571Y-101778571D01*
X100852380Y-101754761D01*
X100876190Y-101707142D01*
X100876190Y-101611904D01*
X100852380Y-101564285D01*
X100828571Y-101540476D01*
X100780952Y-101516666D01*
X100685714Y-101516666D01*
X100638095Y-101540476D01*
X100614285Y-101564285D01*
X100590476Y-101611904D01*
X75826771Y-90779371D02*
X75802961Y-90803180D01*
X75731533Y-90826990D01*
X75683914Y-90826990D01*
X75612485Y-90803180D01*
X75564866Y-90755561D01*
X75541057Y-90707942D01*
X75517247Y-90612704D01*
X75517247Y-90541276D01*
X75541057Y-90446038D01*
X75564866Y-90398419D01*
X75612485Y-90350800D01*
X75683914Y-90326990D01*
X75731533Y-90326990D01*
X75802961Y-90350800D01*
X75826771Y-90374609D01*
X76302961Y-90826990D02*
X76017247Y-90826990D01*
X76160104Y-90826990D02*
X76160104Y-90326990D01*
X76112485Y-90398419D01*
X76064866Y-90446038D01*
X76017247Y-90469847D01*
X76612485Y-90326990D02*
X76660104Y-90326990D01*
X76707723Y-90350800D01*
X76731533Y-90374609D01*
X76755342Y-90422228D01*
X76779152Y-90517466D01*
X76779152Y-90636514D01*
X76755342Y-90731752D01*
X76731533Y-90779371D01*
X76707723Y-90803180D01*
X76660104Y-90826990D01*
X76612485Y-90826990D01*
X76564866Y-90803180D01*
X76541057Y-90779371D01*
X76517247Y-90731752D01*
X76493438Y-90636514D01*
X76493438Y-90517466D01*
X76517247Y-90422228D01*
X76541057Y-90374609D01*
X76564866Y-90350800D01*
X76612485Y-90326990D01*
X91781066Y-105200190D02*
X91614400Y-104962095D01*
X91495352Y-105200190D02*
X91495352Y-104700190D01*
X91685828Y-104700190D01*
X91733447Y-104724000D01*
X91757257Y-104747809D01*
X91781066Y-104795428D01*
X91781066Y-104866857D01*
X91757257Y-104914476D01*
X91733447Y-104938285D01*
X91685828Y-104962095D01*
X91495352Y-104962095D01*
X92066780Y-104914476D02*
X92019161Y-104890666D01*
X91995352Y-104866857D01*
X91971542Y-104819238D01*
X91971542Y-104795428D01*
X91995352Y-104747809D01*
X92019161Y-104724000D01*
X92066780Y-104700190D01*
X92162019Y-104700190D01*
X92209638Y-104724000D01*
X92233447Y-104747809D01*
X92257257Y-104795428D01*
X92257257Y-104819238D01*
X92233447Y-104866857D01*
X92209638Y-104890666D01*
X92162019Y-104914476D01*
X92066780Y-104914476D01*
X92019161Y-104938285D01*
X91995352Y-104962095D01*
X91971542Y-105009714D01*
X91971542Y-105104952D01*
X91995352Y-105152571D01*
X92019161Y-105176380D01*
X92066780Y-105200190D01*
X92162019Y-105200190D01*
X92209638Y-105176380D01*
X92233447Y-105152571D01*
X92257257Y-105104952D01*
X92257257Y-105009714D01*
X92233447Y-104962095D01*
X92209638Y-104938285D01*
X92162019Y-104914476D01*
X76026190Y-101038095D02*
X75526190Y-101038095D01*
X75978571Y-100514285D02*
X76002380Y-100538095D01*
X76026190Y-100609523D01*
X76026190Y-100657142D01*
X76002380Y-100728571D01*
X75954761Y-100776190D01*
X75907142Y-100800000D01*
X75811904Y-100823809D01*
X75740476Y-100823809D01*
X75645238Y-100800000D01*
X75597619Y-100776190D01*
X75550000Y-100728571D01*
X75526190Y-100657142D01*
X75526190Y-100609523D01*
X75550000Y-100538095D01*
X75573809Y-100514285D01*
X76026190Y-100038095D02*
X76026190Y-100323809D01*
X76026190Y-100180952D02*
X75526190Y-100180952D01*
X75597619Y-100228571D01*
X75645238Y-100276190D01*
X75669047Y-100323809D01*
X84201371Y-115852390D02*
X84034704Y-115614295D01*
X83915657Y-115852390D02*
X83915657Y-115352390D01*
X84106133Y-115352390D01*
X84153752Y-115376200D01*
X84177561Y-115400009D01*
X84201371Y-115447628D01*
X84201371Y-115519057D01*
X84177561Y-115566676D01*
X84153752Y-115590485D01*
X84106133Y-115614295D01*
X83915657Y-115614295D01*
X84677561Y-115852390D02*
X84391847Y-115852390D01*
X84534704Y-115852390D02*
X84534704Y-115352390D01*
X84487085Y-115423819D01*
X84439466Y-115471438D01*
X84391847Y-115495247D01*
X84987085Y-115352390D02*
X85034704Y-115352390D01*
X85082323Y-115376200D01*
X85106133Y-115400009D01*
X85129942Y-115447628D01*
X85153752Y-115542866D01*
X85153752Y-115661914D01*
X85129942Y-115757152D01*
X85106133Y-115804771D01*
X85082323Y-115828580D01*
X85034704Y-115852390D01*
X84987085Y-115852390D01*
X84939466Y-115828580D01*
X84915657Y-115804771D01*
X84891847Y-115757152D01*
X84868038Y-115661914D01*
X84868038Y-115542866D01*
X84891847Y-115447628D01*
X84915657Y-115400009D01*
X84939466Y-115376200D01*
X84987085Y-115352390D01*
X104026190Y-107771428D02*
X103788095Y-107938095D01*
X104026190Y-108057142D02*
X103526190Y-108057142D01*
X103526190Y-107866666D01*
X103550000Y-107819047D01*
X103573809Y-107795238D01*
X103621428Y-107771428D01*
X103692857Y-107771428D01*
X103740476Y-107795238D01*
X103764285Y-107819047D01*
X103788095Y-107866666D01*
X103788095Y-108057142D01*
X104026190Y-107295238D02*
X104026190Y-107580952D01*
X104026190Y-107438095D02*
X103526190Y-107438095D01*
X103597619Y-107485714D01*
X103645238Y-107533333D01*
X103669047Y-107580952D01*
X103740476Y-107009523D02*
X103716666Y-107057142D01*
X103692857Y-107080952D01*
X103645238Y-107104761D01*
X103621428Y-107104761D01*
X103573809Y-107080952D01*
X103550000Y-107057142D01*
X103526190Y-107009523D01*
X103526190Y-106914285D01*
X103550000Y-106866666D01*
X103573809Y-106842857D01*
X103621428Y-106819047D01*
X103645238Y-106819047D01*
X103692857Y-106842857D01*
X103716666Y-106866666D01*
X103740476Y-106914285D01*
X103740476Y-107009523D01*
X103764285Y-107057142D01*
X103788095Y-107080952D01*
X103835714Y-107104761D01*
X103930952Y-107104761D01*
X103978571Y-107080952D01*
X104002380Y-107057142D01*
X104026190Y-107009523D01*
X104026190Y-106914285D01*
X104002380Y-106866666D01*
X103978571Y-106842857D01*
X103930952Y-106819047D01*
X103835714Y-106819047D01*
X103788095Y-106842857D01*
X103764285Y-106866666D01*
X103740476Y-106914285D01*
X80628571Y-122433333D02*
X80652380Y-122457142D01*
X80676190Y-122528571D01*
X80676190Y-122576190D01*
X80652380Y-122647619D01*
X80604761Y-122695238D01*
X80557142Y-122719047D01*
X80461904Y-122742857D01*
X80390476Y-122742857D01*
X80295238Y-122719047D01*
X80247619Y-122695238D01*
X80200000Y-122647619D01*
X80176190Y-122576190D01*
X80176190Y-122528571D01*
X80200000Y-122457142D01*
X80223809Y-122433333D01*
X80176190Y-122266666D02*
X80176190Y-121933333D01*
X80676190Y-122147619D01*
X91988990Y-97403333D02*
X91750895Y-97570000D01*
X91988990Y-97689047D02*
X91488990Y-97689047D01*
X91488990Y-97498571D01*
X91512800Y-97450952D01*
X91536609Y-97427142D01*
X91584228Y-97403333D01*
X91655657Y-97403333D01*
X91703276Y-97427142D01*
X91727085Y-97450952D01*
X91750895Y-97498571D01*
X91750895Y-97689047D01*
X91488990Y-97236666D02*
X91488990Y-96903333D01*
X91988990Y-97117619D01*
X101326952Y-116297290D02*
X101326952Y-115797290D01*
X101446000Y-115797290D01*
X101517428Y-115821100D01*
X101565047Y-115868719D01*
X101588857Y-115916338D01*
X101612666Y-116011576D01*
X101612666Y-116083004D01*
X101588857Y-116178242D01*
X101565047Y-116225861D01*
X101517428Y-116273480D01*
X101446000Y-116297290D01*
X101326952Y-116297290D01*
X101803142Y-115844909D02*
X101826952Y-115821100D01*
X101874571Y-115797290D01*
X101993619Y-115797290D01*
X102041238Y-115821100D01*
X102065047Y-115844909D01*
X102088857Y-115892528D01*
X102088857Y-115940147D01*
X102065047Y-116011576D01*
X101779333Y-116297290D01*
X102088857Y-116297290D01*
X94283333Y-126926190D02*
X94283333Y-127283333D01*
X94259523Y-127354761D01*
X94211904Y-127402380D01*
X94140476Y-127426190D01*
X94092857Y-127426190D01*
X94735714Y-126926190D02*
X94640476Y-126926190D01*
X94592857Y-126950000D01*
X94569047Y-126973809D01*
X94521428Y-127045238D01*
X94497619Y-127140476D01*
X94497619Y-127330952D01*
X94521428Y-127378571D01*
X94545238Y-127402380D01*
X94592857Y-127426190D01*
X94688095Y-127426190D01*
X94735714Y-127402380D01*
X94759523Y-127378571D01*
X94783333Y-127330952D01*
X94783333Y-127211904D01*
X94759523Y-127164285D01*
X94735714Y-127140476D01*
X94688095Y-127116666D01*
X94592857Y-127116666D01*
X94545238Y-127140476D01*
X94521428Y-127164285D01*
X94497619Y-127211904D01*
X90765066Y-109020190D02*
X90598400Y-108782095D01*
X90479352Y-109020190D02*
X90479352Y-108520190D01*
X90669828Y-108520190D01*
X90717447Y-108544000D01*
X90741257Y-108567809D01*
X90765066Y-108615428D01*
X90765066Y-108686857D01*
X90741257Y-108734476D01*
X90717447Y-108758285D01*
X90669828Y-108782095D01*
X90479352Y-108782095D01*
X91003161Y-109020190D02*
X91098400Y-109020190D01*
X91146019Y-108996380D01*
X91169828Y-108972571D01*
X91217447Y-108901142D01*
X91241257Y-108805904D01*
X91241257Y-108615428D01*
X91217447Y-108567809D01*
X91193638Y-108544000D01*
X91146019Y-108520190D01*
X91050780Y-108520190D01*
X91003161Y-108544000D01*
X90979352Y-108567809D01*
X90955542Y-108615428D01*
X90955542Y-108734476D01*
X90979352Y-108782095D01*
X91003161Y-108805904D01*
X91050780Y-108829714D01*
X91146019Y-108829714D01*
X91193638Y-108805904D01*
X91217447Y-108782095D01*
X91241257Y-108734476D01*
X73716666Y-114086504D02*
X73692857Y-114110313D01*
X73621428Y-114134123D01*
X73573809Y-114134123D01*
X73502380Y-114110313D01*
X73454761Y-114062694D01*
X73430952Y-114015075D01*
X73407142Y-113919837D01*
X73407142Y-113848409D01*
X73430952Y-113753171D01*
X73454761Y-113705552D01*
X73502380Y-113657933D01*
X73573809Y-113634123D01*
X73621428Y-113634123D01*
X73692857Y-113657933D01*
X73716666Y-113681742D01*
X74192857Y-114134123D02*
X73907142Y-114134123D01*
X74050000Y-114134123D02*
X74050000Y-113634123D01*
X74002380Y-113705552D01*
X73954761Y-113753171D01*
X73907142Y-113776980D01*
X75136990Y-115121933D02*
X74898895Y-115288600D01*
X75136990Y-115407647D02*
X74636990Y-115407647D01*
X74636990Y-115217171D01*
X74660800Y-115169552D01*
X74684609Y-115145742D01*
X74732228Y-115121933D01*
X74803657Y-115121933D01*
X74851276Y-115145742D01*
X74875085Y-115169552D01*
X74898895Y-115217171D01*
X74898895Y-115407647D01*
X74636990Y-114955266D02*
X74636990Y-114645742D01*
X74827466Y-114812409D01*
X74827466Y-114740980D01*
X74851276Y-114693361D01*
X74875085Y-114669552D01*
X74922704Y-114645742D01*
X75041752Y-114645742D01*
X75089371Y-114669552D01*
X75113180Y-114693361D01*
X75136990Y-114740980D01*
X75136990Y-114883838D01*
X75113180Y-114931457D01*
X75089371Y-114955266D01*
X92755552Y-111016990D02*
X92755552Y-110516990D01*
X93041266Y-111016990D02*
X92826980Y-110731276D01*
X93041266Y-110516990D02*
X92755552Y-110802704D01*
X93231742Y-110564609D02*
X93255552Y-110540800D01*
X93303171Y-110516990D01*
X93422219Y-110516990D01*
X93469838Y-110540800D01*
X93493647Y-110564609D01*
X93517457Y-110612228D01*
X93517457Y-110659847D01*
X93493647Y-110731276D01*
X93207933Y-111016990D01*
X93517457Y-111016990D01*
X100441152Y-121509390D02*
X100441152Y-121009390D01*
X100560200Y-121009390D01*
X100631628Y-121033200D01*
X100679247Y-121080819D01*
X100703057Y-121128438D01*
X100726866Y-121223676D01*
X100726866Y-121295104D01*
X100703057Y-121390342D01*
X100679247Y-121437961D01*
X100631628Y-121485580D01*
X100560200Y-121509390D01*
X100441152Y-121509390D01*
X100964961Y-121509390D02*
X101060200Y-121509390D01*
X101107819Y-121485580D01*
X101131628Y-121461771D01*
X101179247Y-121390342D01*
X101203057Y-121295104D01*
X101203057Y-121104628D01*
X101179247Y-121057009D01*
X101155438Y-121033200D01*
X101107819Y-121009390D01*
X101012580Y-121009390D01*
X100964961Y-121033200D01*
X100941152Y-121057009D01*
X100917342Y-121104628D01*
X100917342Y-121223676D01*
X100941152Y-121271295D01*
X100964961Y-121295104D01*
X101012580Y-121318914D01*
X101107819Y-121318914D01*
X101155438Y-121295104D01*
X101179247Y-121271295D01*
X101203057Y-121223676D01*
X105576190Y-95525069D02*
X105338095Y-95691736D01*
X105576190Y-95810783D02*
X105076190Y-95810783D01*
X105076190Y-95620307D01*
X105100000Y-95572688D01*
X105123809Y-95548879D01*
X105171428Y-95525069D01*
X105242857Y-95525069D01*
X105290476Y-95548879D01*
X105314285Y-95572688D01*
X105338095Y-95620307D01*
X105338095Y-95810783D01*
X105576190Y-95048879D02*
X105576190Y-95334593D01*
X105576190Y-95191736D02*
X105076190Y-95191736D01*
X105147619Y-95239355D01*
X105195238Y-95286974D01*
X105219047Y-95334593D01*
X105076190Y-94882212D02*
X105076190Y-94572688D01*
X105266666Y-94739355D01*
X105266666Y-94667926D01*
X105290476Y-94620307D01*
X105314285Y-94596498D01*
X105361904Y-94572688D01*
X105480952Y-94572688D01*
X105528571Y-94596498D01*
X105552380Y-94620307D01*
X105576190Y-94667926D01*
X105576190Y-94810783D01*
X105552380Y-94858402D01*
X105528571Y-94882212D01*
X92857152Y-103244590D02*
X92857152Y-102744590D01*
X93142866Y-103244590D02*
X92928580Y-102958876D01*
X93142866Y-102744590D02*
X92857152Y-103030304D01*
X93619057Y-103244590D02*
X93333342Y-103244590D01*
X93476200Y-103244590D02*
X93476200Y-102744590D01*
X93428580Y-102816019D01*
X93380961Y-102863638D01*
X93333342Y-102887447D01*
X105776190Y-115271428D02*
X105538095Y-115438095D01*
X105776190Y-115557142D02*
X105276190Y-115557142D01*
X105276190Y-115366666D01*
X105300000Y-115319047D01*
X105323809Y-115295238D01*
X105371428Y-115271428D01*
X105442857Y-115271428D01*
X105490476Y-115295238D01*
X105514285Y-115319047D01*
X105538095Y-115366666D01*
X105538095Y-115557142D01*
X105323809Y-115080952D02*
X105300000Y-115057142D01*
X105276190Y-115009523D01*
X105276190Y-114890476D01*
X105300000Y-114842857D01*
X105323809Y-114819047D01*
X105371428Y-114795238D01*
X105419047Y-114795238D01*
X105490476Y-114819047D01*
X105776190Y-115104761D01*
X105776190Y-114795238D01*
X105276190Y-114485714D02*
X105276190Y-114438095D01*
X105300000Y-114390476D01*
X105323809Y-114366666D01*
X105371428Y-114342857D01*
X105466666Y-114319047D01*
X105585714Y-114319047D01*
X105680952Y-114342857D01*
X105728571Y-114366666D01*
X105752380Y-114390476D01*
X105776190Y-114438095D01*
X105776190Y-114485714D01*
X105752380Y-114533333D01*
X105728571Y-114557142D01*
X105680952Y-114580952D01*
X105585714Y-114604761D01*
X105466666Y-114604761D01*
X105371428Y-114580952D01*
X105323809Y-114557142D01*
X105300000Y-114533333D01*
X105276190Y-114485714D01*
X105576190Y-93571428D02*
X105338095Y-93738095D01*
X105576190Y-93857142D02*
X105076190Y-93857142D01*
X105076190Y-93666666D01*
X105100000Y-93619047D01*
X105123809Y-93595238D01*
X105171428Y-93571428D01*
X105242857Y-93571428D01*
X105290476Y-93595238D01*
X105314285Y-93619047D01*
X105338095Y-93666666D01*
X105338095Y-93857142D01*
X105576190Y-93095238D02*
X105576190Y-93380952D01*
X105576190Y-93238095D02*
X105076190Y-93238095D01*
X105147619Y-93285714D01*
X105195238Y-93333333D01*
X105219047Y-93380952D01*
X105242857Y-92666666D02*
X105576190Y-92666666D01*
X105052380Y-92785714D02*
X105409523Y-92904761D01*
X105409523Y-92595238D01*
X90551371Y-122129371D02*
X90527561Y-122153180D01*
X90456133Y-122176990D01*
X90408514Y-122176990D01*
X90337085Y-122153180D01*
X90289466Y-122105561D01*
X90265657Y-122057942D01*
X90241847Y-121962704D01*
X90241847Y-121891276D01*
X90265657Y-121796038D01*
X90289466Y-121748419D01*
X90337085Y-121700800D01*
X90408514Y-121676990D01*
X90456133Y-121676990D01*
X90527561Y-121700800D01*
X90551371Y-121724609D01*
X91027561Y-122176990D02*
X90741847Y-122176990D01*
X90884704Y-122176990D02*
X90884704Y-121676990D01*
X90837085Y-121748419D01*
X90789466Y-121796038D01*
X90741847Y-121819847D01*
X91503752Y-122176990D02*
X91218038Y-122176990D01*
X91360895Y-122176990D02*
X91360895Y-121676990D01*
X91313276Y-121748419D01*
X91265657Y-121796038D01*
X91218038Y-121819847D01*
X106272047Y-84488190D02*
X106272047Y-83988190D01*
X106272047Y-84226285D02*
X106557761Y-84226285D01*
X106557761Y-84488190D02*
X106557761Y-83988190D01*
X106772047Y-84035809D02*
X106795857Y-84012000D01*
X106843476Y-83988190D01*
X106962523Y-83988190D01*
X107010142Y-84012000D01*
X107033952Y-84035809D01*
X107057761Y-84083428D01*
X107057761Y-84131047D01*
X107033952Y-84202476D01*
X106748238Y-84488190D01*
X107057761Y-84488190D01*
X92116390Y-92303333D02*
X91878295Y-92470000D01*
X92116390Y-92589047D02*
X91616390Y-92589047D01*
X91616390Y-92398571D01*
X91640200Y-92350952D01*
X91664009Y-92327142D01*
X91711628Y-92303333D01*
X91783057Y-92303333D01*
X91830676Y-92327142D01*
X91854485Y-92350952D01*
X91878295Y-92398571D01*
X91878295Y-92589047D01*
X91616390Y-91874761D02*
X91616390Y-91970000D01*
X91640200Y-92017619D01*
X91664009Y-92041428D01*
X91735438Y-92089047D01*
X91830676Y-92112857D01*
X92021152Y-92112857D01*
X92068771Y-92089047D01*
X92092580Y-92065238D01*
X92116390Y-92017619D01*
X92116390Y-91922380D01*
X92092580Y-91874761D01*
X92068771Y-91850952D01*
X92021152Y-91827142D01*
X91902104Y-91827142D01*
X91854485Y-91850952D01*
X91830676Y-91874761D01*
X91806866Y-91922380D01*
X91806866Y-92017619D01*
X91830676Y-92065238D01*
X91854485Y-92089047D01*
X91902104Y-92112857D01*
X90729171Y-120398990D02*
X90562504Y-120160895D01*
X90443457Y-120398990D02*
X90443457Y-119898990D01*
X90633933Y-119898990D01*
X90681552Y-119922800D01*
X90705361Y-119946609D01*
X90729171Y-119994228D01*
X90729171Y-120065657D01*
X90705361Y-120113276D01*
X90681552Y-120137085D01*
X90633933Y-120160895D01*
X90443457Y-120160895D01*
X91205361Y-120398990D02*
X90919647Y-120398990D01*
X91062504Y-120398990D02*
X91062504Y-119898990D01*
X91014885Y-119970419D01*
X90967266Y-120018038D01*
X90919647Y-120041847D01*
X91395838Y-119946609D02*
X91419647Y-119922800D01*
X91467266Y-119898990D01*
X91586314Y-119898990D01*
X91633933Y-119922800D01*
X91657742Y-119946609D01*
X91681552Y-119994228D01*
X91681552Y-120041847D01*
X91657742Y-120113276D01*
X91372028Y-120398990D01*
X91681552Y-120398990D01*
X105549390Y-97350447D02*
X105049390Y-97350447D01*
X105049390Y-97231400D01*
X105073200Y-97159971D01*
X105120819Y-97112352D01*
X105168438Y-97088542D01*
X105263676Y-97064733D01*
X105335104Y-97064733D01*
X105430342Y-97088542D01*
X105477961Y-97112352D01*
X105525580Y-97159971D01*
X105549390Y-97231400D01*
X105549390Y-97350447D01*
X105049390Y-96612352D02*
X105049390Y-96850447D01*
X105287485Y-96874257D01*
X105263676Y-96850447D01*
X105239866Y-96802828D01*
X105239866Y-96683780D01*
X105263676Y-96636161D01*
X105287485Y-96612352D01*
X105335104Y-96588542D01*
X105454152Y-96588542D01*
X105501771Y-96612352D01*
X105525580Y-96636161D01*
X105549390Y-96683780D01*
X105549390Y-96802828D01*
X105525580Y-96850447D01*
X105501771Y-96874257D01*
X104026190Y-109571428D02*
X103788095Y-109738095D01*
X104026190Y-109857142D02*
X103526190Y-109857142D01*
X103526190Y-109666666D01*
X103550000Y-109619047D01*
X103573809Y-109595238D01*
X103621428Y-109571428D01*
X103692857Y-109571428D01*
X103740476Y-109595238D01*
X103764285Y-109619047D01*
X103788095Y-109666666D01*
X103788095Y-109857142D01*
X104026190Y-109095238D02*
X104026190Y-109380952D01*
X104026190Y-109238095D02*
X103526190Y-109238095D01*
X103597619Y-109285714D01*
X103645238Y-109333333D01*
X103669047Y-109380952D01*
X103526190Y-108928571D02*
X103526190Y-108595238D01*
X104026190Y-108809523D01*
X86230190Y-120248952D02*
X86634952Y-120248952D01*
X86682571Y-120225142D01*
X86706380Y-120201333D01*
X86730190Y-120153714D01*
X86730190Y-120058476D01*
X86706380Y-120010857D01*
X86682571Y-119987047D01*
X86634952Y-119963238D01*
X86230190Y-119963238D01*
X86277809Y-119748952D02*
X86254000Y-119725142D01*
X86230190Y-119677523D01*
X86230190Y-119558476D01*
X86254000Y-119510857D01*
X86277809Y-119487047D01*
X86325428Y-119463238D01*
X86373047Y-119463238D01*
X86444476Y-119487047D01*
X86730190Y-119772761D01*
X86730190Y-119463238D01*
X87428571Y-84291428D02*
X87452380Y-84315238D01*
X87476190Y-84386666D01*
X87476190Y-84434285D01*
X87452380Y-84505714D01*
X87404761Y-84553333D01*
X87357142Y-84577142D01*
X87261904Y-84600952D01*
X87190476Y-84600952D01*
X87095238Y-84577142D01*
X87047619Y-84553333D01*
X87000000Y-84505714D01*
X86976190Y-84434285D01*
X86976190Y-84386666D01*
X87000000Y-84315238D01*
X87023809Y-84291428D01*
X87476190Y-83815238D02*
X87476190Y-84100952D01*
X87476190Y-83958095D02*
X86976190Y-83958095D01*
X87047619Y-84005714D01*
X87095238Y-84053333D01*
X87119047Y-84100952D01*
X86976190Y-83648571D02*
X86976190Y-83339047D01*
X87166666Y-83505714D01*
X87166666Y-83434285D01*
X87190476Y-83386666D01*
X87214285Y-83362857D01*
X87261904Y-83339047D01*
X87380952Y-83339047D01*
X87428571Y-83362857D01*
X87452380Y-83386666D01*
X87476190Y-83434285D01*
X87476190Y-83577142D01*
X87452380Y-83624761D01*
X87428571Y-83648571D01*
X97615966Y-90304790D02*
X97449300Y-90066695D01*
X97330252Y-90304790D02*
X97330252Y-89804790D01*
X97520728Y-89804790D01*
X97568347Y-89828600D01*
X97592157Y-89852409D01*
X97615966Y-89900028D01*
X97615966Y-89971457D01*
X97592157Y-90019076D01*
X97568347Y-90042885D01*
X97520728Y-90066695D01*
X97330252Y-90066695D01*
X98068347Y-89804790D02*
X97830252Y-89804790D01*
X97806442Y-90042885D01*
X97830252Y-90019076D01*
X97877871Y-89995266D01*
X97996919Y-89995266D01*
X98044538Y-90019076D01*
X98068347Y-90042885D01*
X98092157Y-90090504D01*
X98092157Y-90209552D01*
X98068347Y-90257171D01*
X98044538Y-90280980D01*
X97996919Y-90304790D01*
X97877871Y-90304790D01*
X97830252Y-90280980D01*
X97806442Y-90257171D01*
X77184989Y-129453633D02*
X77184989Y-128953633D01*
X77184989Y-129191728D02*
X77470703Y-129191728D01*
X77470703Y-129453633D02*
X77470703Y-128953633D01*
X77923084Y-129120300D02*
X77923084Y-129453633D01*
X77804037Y-128929823D02*
X77684989Y-129286966D01*
X77994513Y-129286966D01*
X100464866Y-127177771D02*
X100441057Y-127201580D01*
X100369628Y-127225390D01*
X100322009Y-127225390D01*
X100250580Y-127201580D01*
X100202961Y-127153961D01*
X100179152Y-127106342D01*
X100155342Y-127011104D01*
X100155342Y-126939676D01*
X100179152Y-126844438D01*
X100202961Y-126796819D01*
X100250580Y-126749200D01*
X100322009Y-126725390D01*
X100369628Y-126725390D01*
X100441057Y-126749200D01*
X100464866Y-126773009D01*
X100702961Y-127225390D02*
X100798200Y-127225390D01*
X100845819Y-127201580D01*
X100869628Y-127177771D01*
X100917247Y-127106342D01*
X100941057Y-127011104D01*
X100941057Y-126820628D01*
X100917247Y-126773009D01*
X100893438Y-126749200D01*
X100845819Y-126725390D01*
X100750580Y-126725390D01*
X100702961Y-126749200D01*
X100679152Y-126773009D01*
X100655342Y-126820628D01*
X100655342Y-126939676D01*
X100679152Y-126987295D01*
X100702961Y-127011104D01*
X100750580Y-127034914D01*
X100845819Y-127034914D01*
X100893438Y-127011104D01*
X100917247Y-126987295D01*
X100941057Y-126939676D01*
D12*
X105030000Y-116686359D02*
X105030000Y-116993641D01*
X104270000Y-116686359D02*
X104270000Y-116993641D01*
X86510000Y-85742164D02*
X86510000Y-85957836D01*
X85790000Y-85742164D02*
X85790000Y-85957836D01*
X72292164Y-113310000D02*
X72507836Y-113310000D01*
X72292164Y-112590000D02*
X72507836Y-112590000D01*
X91457836Y-114090000D02*
X91242164Y-114090000D01*
X91457836Y-114810000D02*
X91242164Y-114810000D01*
X78153400Y-115873964D02*
X78153400Y-116089636D01*
X78873400Y-115873964D02*
X78873400Y-116089636D01*
D13*
X100432500Y-89650000D02*
X100432500Y-90230000D01*
X100432500Y-85270000D02*
X104632500Y-85270000D01*
X104632500Y-90230000D02*
X104632500Y-89650000D01*
X100432500Y-90230000D02*
X104632500Y-90230000D01*
X100432500Y-85800000D02*
X100432500Y-85270000D01*
X104632500Y-85270000D02*
X104632500Y-85850000D01*
D14*
X98132500Y-86500000D02*
G75*
G03*
X98132500Y-86500000I-100000J0D01*
G01*
D12*
X72292164Y-114556666D02*
X72507836Y-114556666D01*
X72292164Y-115276666D02*
X72507836Y-115276666D01*
X99280000Y-123700000D02*
X99280000Y-113480000D01*
X99280000Y-123700000D02*
X96620000Y-123700000D01*
X96620000Y-126300000D02*
X96620000Y-124970000D01*
X96620000Y-123700000D02*
X96620000Y-113480000D01*
X97950000Y-126300000D02*
X96620000Y-126300000D01*
X99280000Y-113480000D02*
X96620000Y-113480000D01*
X89700000Y-89350000D02*
X89700000Y-86800000D01*
X91400000Y-89350000D02*
X91400000Y-86800000D01*
X89700000Y-89350000D02*
X91400000Y-89350000D01*
X92086359Y-90770000D02*
X92393641Y-90770000D01*
X92086359Y-91530000D02*
X92393641Y-91530000D01*
X105030000Y-102281359D02*
X105030000Y-102588641D01*
X104270000Y-102281359D02*
X104270000Y-102588641D01*
X91049359Y-117913200D02*
X91356641Y-117913200D01*
X91049359Y-118673200D02*
X91356641Y-118673200D01*
X78380000Y-113296359D02*
X78380000Y-113603641D01*
X77620000Y-113296359D02*
X77620000Y-113603641D01*
X78820000Y-113296359D02*
X78820000Y-113603641D01*
X79580000Y-113296359D02*
X79580000Y-113603641D01*
D11*
X104700000Y-105425000D02*
G75*
G03*
X104700000Y-105425000I-50000J0D01*
G01*
X104600000Y-112240000D02*
G75*
G03*
X104600000Y-112240000I-50000J0D01*
G01*
D12*
X87940000Y-85742164D02*
X87940000Y-85957836D01*
X88660000Y-85742164D02*
X88660000Y-85957836D01*
X104270000Y-100381359D02*
X104270000Y-100688641D01*
X105030000Y-100381359D02*
X105030000Y-100688641D01*
X88986964Y-115935400D02*
X89202636Y-115935400D01*
X88986964Y-115215400D02*
X89202636Y-115215400D01*
X105600000Y-121850000D02*
X105600000Y-124400000D01*
X103900000Y-121850000D02*
X103900000Y-124400000D01*
X105600000Y-121850000D02*
X103900000Y-121850000D01*
D11*
X94884700Y-89037200D02*
G75*
G03*
X94884700Y-89037200I-50000J0D01*
G01*
D12*
X72292164Y-115540000D02*
X72507836Y-115540000D01*
X72292164Y-116260000D02*
X72507836Y-116260000D01*
X88942164Y-114190000D02*
X89157836Y-114190000D01*
X88942164Y-114910000D02*
X89157836Y-114910000D01*
D11*
X104700000Y-119840000D02*
G75*
G03*
X104700000Y-119840000I-50000J0D01*
G01*
D12*
X103404900Y-101520000D02*
X103404900Y-102850000D01*
X100744900Y-104120000D02*
X100744900Y-111800000D01*
X100744900Y-111800000D02*
X103404900Y-111800000D01*
X102074900Y-101520000D02*
X103404900Y-101520000D01*
X100744900Y-104120000D02*
X103404900Y-104120000D01*
X103404900Y-104120000D02*
X103404900Y-111800000D01*
X77742164Y-90910000D02*
X77957836Y-90910000D01*
X77742164Y-90190000D02*
X77957836Y-90190000D01*
X92244400Y-103857641D02*
X92244400Y-103550359D01*
X91484400Y-103857641D02*
X91484400Y-103550359D01*
D14*
X70850000Y-110900000D02*
X64100000Y-110900000D01*
D11*
X71590000Y-111900000D02*
X71590000Y-111900000D01*
D14*
X89600000Y-92900000D02*
X88850000Y-92900000D01*
X88850000Y-110900000D02*
X89600000Y-110900000D01*
X64100000Y-110900000D02*
X64100000Y-92900000D01*
D11*
X71590000Y-111800000D02*
X71590000Y-111800000D01*
D14*
X64100000Y-92900000D02*
X70850000Y-92900000D01*
X89600000Y-110900000D02*
X89600000Y-92900000D01*
D11*
X71590000Y-111800000D02*
G75*
G03*
X71590000Y-111900000I0J-50000D01*
G01*
X71590000Y-111900000D02*
G75*
G03*
X71590000Y-111800000I0J50000D01*
G01*
D12*
X86403641Y-115930000D02*
X86096359Y-115930000D01*
X86403641Y-115170000D02*
X86096359Y-115170000D01*
X104170000Y-107196359D02*
X104170000Y-107503641D01*
X104930000Y-107196359D02*
X104930000Y-107503641D01*
X80890000Y-122507836D02*
X80890000Y-122292164D01*
X81610000Y-122507836D02*
X81610000Y-122292164D01*
X91484400Y-98997641D02*
X91484400Y-98690359D01*
X92244400Y-98997641D02*
X92244400Y-98690359D01*
X103400000Y-119450000D02*
X103400000Y-114050000D01*
X100100000Y-119450000D02*
X103400000Y-119450000D01*
X100100000Y-119450000D02*
X100100000Y-114050000D01*
X95655000Y-123730000D02*
X95655000Y-113510000D01*
X95655000Y-113510000D02*
X92995000Y-113510000D01*
X92995000Y-126330000D02*
X92995000Y-125000000D01*
X94325000Y-126330000D02*
X92995000Y-126330000D01*
X92995000Y-123730000D02*
X92995000Y-113510000D01*
X95655000Y-123730000D02*
X92995000Y-123730000D01*
X92244400Y-108947641D02*
X92244400Y-108640359D01*
X91484400Y-108947641D02*
X91484400Y-108640359D01*
X72507836Y-114293333D02*
X72292164Y-114293333D01*
X72507836Y-113573333D02*
X72292164Y-113573333D01*
X75240000Y-113386359D02*
X75240000Y-113693641D01*
X74480000Y-113386359D02*
X74480000Y-113693641D01*
X94140600Y-109969653D02*
X94140600Y-111103947D01*
X94140600Y-112365600D02*
X94140600Y-112679748D01*
X98534800Y-112654348D02*
X98534800Y-112340200D01*
X94140600Y-112679748D02*
X98534800Y-112695800D01*
X98534800Y-111103947D02*
X98534800Y-109969653D01*
X98534800Y-108563947D02*
X98534800Y-107429653D01*
X98534800Y-103607274D02*
X98534800Y-103293126D01*
X94140600Y-107429653D02*
X94140600Y-108563947D01*
X94140600Y-104889653D02*
X94140600Y-106023947D01*
X94115200Y-103293126D02*
X94115200Y-103607274D01*
X98534800Y-103293126D02*
X94115200Y-103293126D01*
X98534800Y-106023947D02*
X98534800Y-104889653D01*
X101750000Y-120790000D02*
X101100000Y-120790000D01*
X101750000Y-123910000D02*
X103425000Y-123910000D01*
X101750000Y-123910000D02*
X101100000Y-123910000D01*
X101750000Y-120790000D02*
X102400000Y-120790000D01*
X104170000Y-94896359D02*
X104170000Y-95203641D01*
X104930000Y-94896359D02*
X104930000Y-95203641D01*
X98534800Y-96067147D02*
X98534800Y-94932853D01*
X98534800Y-101147147D02*
X98534800Y-100012853D01*
X94140600Y-102722948D02*
X98534800Y-102739000D01*
X94115200Y-93336326D02*
X94115200Y-93650474D01*
X98534800Y-102697548D02*
X98534800Y-102383400D01*
X98534800Y-93336326D02*
X94115200Y-93336326D01*
X94140600Y-102408800D02*
X94140600Y-102722948D01*
X94140600Y-97472853D02*
X94140600Y-98607147D01*
X94140600Y-94932853D02*
X94140600Y-96067147D01*
X98534800Y-98607147D02*
X98534800Y-97472853D01*
X98534800Y-93650474D02*
X98534800Y-93336326D01*
X94140600Y-100012853D02*
X94140600Y-101147147D01*
X105030000Y-114786359D02*
X105030000Y-115093641D01*
X104270000Y-114786359D02*
X104270000Y-115093641D01*
X104170000Y-92996359D02*
X104170000Y-93303641D01*
X104930000Y-92996359D02*
X104930000Y-93303641D01*
X89063164Y-122387000D02*
X89278836Y-122387000D01*
X89063164Y-121667000D02*
X89278836Y-121667000D01*
X92219400Y-93897641D02*
X92219400Y-93590359D01*
X91459400Y-93897641D02*
X91459400Y-93590359D01*
X91049359Y-119663800D02*
X91356641Y-119663800D01*
X91049359Y-118903800D02*
X91356641Y-118903800D01*
D11*
X104600000Y-98040000D02*
G75*
G03*
X104600000Y-98040000I-50000J0D01*
G01*
D12*
X104930000Y-109096359D02*
X104930000Y-109403641D01*
X104170000Y-109096359D02*
X104170000Y-109403641D01*
X86504000Y-121412000D02*
X84554000Y-121412000D01*
X86504000Y-121412000D02*
X88454000Y-121412000D01*
X86504000Y-116292000D02*
X88454000Y-116292000D01*
X86504000Y-116292000D02*
X83054000Y-116292000D01*
X87560000Y-85742164D02*
X87560000Y-85957836D01*
X86840000Y-85742164D02*
X86840000Y-85957836D01*
X96074941Y-89647800D02*
X95767659Y-89647800D01*
X96074941Y-90407800D02*
X95767659Y-90407800D01*
X102142164Y-126690000D02*
X102357836Y-126690000D01*
X102142164Y-127410000D02*
X102357836Y-127410000D01*
%LPC*%
D15*
X104650000Y-116330000D03*
X104650000Y-117350000D03*
D16*
X86150000Y-85370000D03*
X86150000Y-86330000D03*
D17*
X71920000Y-112950000D03*
X72880000Y-112950000D03*
D18*
X112645942Y-125850016D03*
X110245942Y-128250016D03*
X111942998Y-124152960D03*
D19*
X110245942Y-125850016D03*
D18*
X111942998Y-127547072D03*
X108548886Y-124152960D03*
X110245942Y-123450016D03*
X107845942Y-125850016D03*
X108548886Y-127547072D03*
D20*
X91830000Y-114450000D03*
X90870000Y-114450000D03*
D16*
X78513400Y-115501800D03*
X78513400Y-116461800D03*
D21*
X99632500Y-86525000D03*
X99632500Y-88975000D03*
X105432500Y-88975000D03*
X105432500Y-86525000D03*
D17*
X71920000Y-114916666D03*
X72880000Y-114916666D03*
D22*
X97950000Y-114810000D03*
X97950000Y-117350000D03*
X97950000Y-119890000D03*
X97950000Y-122430000D03*
D23*
X97950000Y-124970000D03*
D24*
X90550000Y-88900000D03*
X90550000Y-86800000D03*
D25*
X91730000Y-91150000D03*
X92750000Y-91150000D03*
D15*
X104650000Y-101925000D03*
X104650000Y-102945000D03*
D25*
X90693000Y-118293200D03*
X91713000Y-118293200D03*
D15*
X78000000Y-112940000D03*
X78000000Y-113960000D03*
D18*
X75000000Y-84600000D03*
X75000000Y-89400000D03*
D19*
X75000000Y-87000000D03*
D18*
X76697056Y-85302944D03*
X76697056Y-88697056D03*
X77400000Y-87000000D03*
X72600000Y-87000000D03*
X73302944Y-85302944D03*
X73302944Y-88697056D03*
D15*
X79200000Y-112940000D03*
X79200000Y-113960000D03*
D26*
X104650000Y-104820000D03*
X104650000Y-103850000D03*
X104550000Y-111635000D03*
X104550000Y-110665000D03*
D16*
X88300000Y-85370000D03*
X88300000Y-86330000D03*
D15*
X104650000Y-100025000D03*
X104650000Y-101045000D03*
D17*
X88614800Y-115575400D03*
X89574800Y-115575400D03*
D24*
X104750000Y-122300000D03*
X104750000Y-124400000D03*
D27*
X95439700Y-89037200D03*
X96409700Y-89037200D03*
D17*
X71920000Y-115900000D03*
X72880000Y-115900000D03*
X88570000Y-114550000D03*
X89530000Y-114550000D03*
D26*
X104650000Y-119235000D03*
X104650000Y-118265000D03*
D23*
X102074900Y-102850000D03*
D22*
X102074900Y-105390000D03*
X102074900Y-107930000D03*
X102074900Y-110470000D03*
D17*
X77370000Y-90550000D03*
X78330000Y-90550000D03*
D28*
X91864400Y-104214000D03*
X91864400Y-103194000D03*
D29*
X71590000Y-110650000D03*
X72860000Y-110650000D03*
X74130000Y-110650000D03*
X75400000Y-110650000D03*
X76670000Y-110650000D03*
X77940000Y-110650000D03*
X79210000Y-110650000D03*
X80480000Y-110650000D03*
X81750000Y-110650000D03*
X83020000Y-110650000D03*
X84290000Y-110650000D03*
X85560000Y-110650000D03*
X86830000Y-110650000D03*
X88100000Y-110650000D03*
X88100000Y-93150000D03*
X86830000Y-93150000D03*
X85560000Y-93150000D03*
X84290000Y-93150000D03*
X83020000Y-93150000D03*
X81750000Y-93150000D03*
X80480000Y-93150000D03*
X79210000Y-93150000D03*
X77940000Y-93150000D03*
X76670000Y-93150000D03*
X75400000Y-93150000D03*
X74130000Y-93150000D03*
X72860000Y-93150000D03*
X71590000Y-93150000D03*
D30*
X77310000Y-103405000D03*
X76060000Y-103405000D03*
X76060000Y-104655000D03*
X77310000Y-104655000D03*
X78560000Y-104655000D03*
X78560000Y-103405000D03*
X78560000Y-102155000D03*
X77310000Y-102155000D03*
X76060000Y-102155000D03*
D31*
X86760000Y-115550000D03*
X85740000Y-115550000D03*
D15*
X104550000Y-106840000D03*
X104550000Y-107860000D03*
D32*
X81250000Y-122880000D03*
X81250000Y-121920000D03*
D28*
X91864400Y-99354000D03*
X91864400Y-98334000D03*
D33*
X101750000Y-118050000D03*
X101750000Y-114050000D03*
D23*
X94325000Y-125000000D03*
D22*
X94325000Y-122460000D03*
X94325000Y-119920000D03*
X94325000Y-117380000D03*
X94325000Y-114840000D03*
D28*
X91864400Y-109304000D03*
X91864400Y-108284000D03*
D20*
X72880000Y-113933333D03*
X71920000Y-113933333D03*
D15*
X74860000Y-113030000D03*
X74860000Y-114050000D03*
D34*
X93250000Y-104186800D03*
X93250000Y-106726800D03*
X93250000Y-109266800D03*
X93250000Y-111806800D03*
X99400000Y-111806800D03*
X99400000Y-109266800D03*
X99400000Y-106726800D03*
X99400000Y-104186800D03*
D35*
X102687500Y-123300000D03*
X102687500Y-121400000D03*
X100812500Y-122350000D03*
D15*
X104550000Y-94540000D03*
X104550000Y-95560000D03*
D34*
X93250000Y-94230000D03*
X93250000Y-96770000D03*
X93250000Y-99310000D03*
X93250000Y-101850000D03*
X99400000Y-101850000D03*
X99400000Y-99310000D03*
X99400000Y-96770000D03*
X99400000Y-94230000D03*
D15*
X104650000Y-114430000D03*
X104650000Y-115450000D03*
X104550000Y-92640000D03*
X104550000Y-93660000D03*
D17*
X88691000Y-122027000D03*
X89651000Y-122027000D03*
D18*
X108552944Y-88697056D03*
X111947056Y-85302944D03*
X111947056Y-88697056D03*
X110250000Y-84600000D03*
X108552944Y-85302944D03*
X107850000Y-87000000D03*
X112650000Y-87000000D03*
X110250000Y-89400000D03*
D19*
X110250000Y-87000000D03*
D28*
X91839400Y-94254000D03*
X91839400Y-93234000D03*
D25*
X90693000Y-119283800D03*
X91713000Y-119283800D03*
D26*
X104550000Y-97435000D03*
X104550000Y-96465000D03*
D15*
X104550000Y-108740000D03*
X104550000Y-109760000D03*
D36*
X84029000Y-116947000D03*
X84029000Y-118217000D03*
X84029000Y-119487000D03*
X84029000Y-120757000D03*
X88979000Y-120757000D03*
X88979000Y-119487000D03*
X88979000Y-118217000D03*
X88979000Y-116947000D03*
D16*
X87200000Y-85370000D03*
X87200000Y-86330000D03*
D31*
X96431300Y-90027800D03*
X95411300Y-90027800D03*
D18*
X72595942Y-125849501D03*
D19*
X74995942Y-125849501D03*
D18*
X74995942Y-128249501D03*
X77395942Y-125849501D03*
X76692998Y-124152445D03*
X76692998Y-127546557D03*
X73298886Y-127546557D03*
X73298886Y-124152445D03*
X74995942Y-123449501D03*
D17*
X101770000Y-127050000D03*
X102730000Y-127050000D03*
D37*
X107457000Y-116466326D03*
X112457000Y-116466326D03*
X107457000Y-92564288D03*
X112457000Y-92564288D03*
X107457000Y-108498980D03*
X112457000Y-108498980D03*
X107457000Y-104515307D03*
X112457000Y-104515307D03*
X107457000Y-112482653D03*
X112457000Y-112482653D03*
D38*
X102800000Y-98050000D03*
D39*
X102800000Y-96050000D03*
X102800000Y-94050000D03*
D37*
X107457000Y-120449999D03*
X112457000Y-120449999D03*
X107457000Y-96547961D03*
X112457000Y-96547961D03*
X107457000Y-100531634D03*
X112457000Y-100531634D03*
D40*
X87552200Y-88935600D03*
D41*
X85012200Y-88935600D03*
X82472200Y-88935600D03*
D42*
X79950000Y-119650000D03*
D43*
X77950000Y-119650000D03*
X75950000Y-119650000D03*
X73950000Y-119650000D03*
M02*
