G04 #@! TF.GenerationSoftware,KiCad,Pcbnew,(6.0.10)*
G04 #@! TF.CreationDate,2023-07-07T16:54:03+02:00*
G04 #@! TF.ProjectId,SprinklerBoardESP32V3,53707269-6e6b-46c6-9572-426f61726445,rev?*
G04 #@! TF.SameCoordinates,Original*
G04 #@! TF.FileFunction,Legend,Bot*
G04 #@! TF.FilePolarity,Positive*
%FSLAX46Y46*%
G04 Gerber Fmt 4.6, Leading zero omitted, Abs format (unit mm)*
G04 Created by KiCad (PCBNEW (6.0.10)) date 2023-07-07 16:54:03*
%MOMM*%
%LPD*%
G01*
G04 APERTURE LIST*
G04 Aperture macros list*
%AMRoundRect*
0 Rectangle with rounded corners*
0 $1 Rounding radius*
0 $2 $3 $4 $5 $6 $7 $8 $9 X,Y pos of 4 corners*
0 Add a 4 corners polygon primitive as box body*
4,1,4,$2,$3,$4,$5,$6,$7,$8,$9,$2,$3,0*
0 Add four circle primitives for the rounded corners*
1,1,$1+$1,$2,$3*
1,1,$1+$1,$4,$5*
1,1,$1+$1,$6,$7*
1,1,$1+$1,$8,$9*
0 Add four rect primitives between the rounded corners*
20,1,$1+$1,$2,$3,$4,$5,0*
20,1,$1+$1,$4,$5,$6,$7,0*
20,1,$1+$1,$6,$7,$8,$9,0*
20,1,$1+$1,$8,$9,$2,$3,0*%
G04 Aperture macros list end*
%ADD10C,0.125000*%
%ADD11C,0.150000*%
%ADD12C,0.100000*%
%ADD13C,0.120000*%
%ADD14C,0.800000*%
%ADD15C,6.400000*%
%ADD16O,1.700000X1.700000*%
%ADD17R,1.700000X1.700000*%
%ADD18RoundRect,0.250000X0.250000X2.500000X-0.250000X2.500000X-0.250000X-2.500000X0.250000X-2.500000X0*%
%ADD19RoundRect,0.250000X0.550000X1.250000X-0.550000X1.250000X-0.550000X-1.250000X0.550000X-1.250000X0*%
%ADD20C,1.950000*%
%ADD21C,1.700000*%
%ADD22RoundRect,0.250000X0.625000X-0.350000X0.625000X0.350000X-0.625000X0.350000X-0.625000X-0.350000X0*%
%ADD23O,1.750000X1.200000*%
%ADD24R,1.000000X2.580000*%
%ADD25R,1.500000X2.500000*%
%ADD26O,1.500000X2.500000*%
%ADD27R,1.350000X1.350000*%
%ADD28O,1.350000X1.350000*%
G04 APERTURE END LIST*
D10*
X73316666Y-117923809D02*
X73316666Y-117566666D01*
X73292857Y-117495238D01*
X73245238Y-117447619D01*
X73173809Y-117423809D01*
X73126190Y-117423809D01*
X73483333Y-117923809D02*
X73769047Y-117923809D01*
X73626190Y-117423809D02*
X73626190Y-117923809D01*
X73911904Y-117566666D02*
X74150000Y-117566666D01*
X73864285Y-117423809D02*
X74030952Y-117923809D01*
X74197619Y-117423809D01*
X74626190Y-117900000D02*
X74578571Y-117923809D01*
X74507142Y-117923809D01*
X74435714Y-117900000D01*
X74388095Y-117852380D01*
X74364285Y-117804761D01*
X74340476Y-117709523D01*
X74340476Y-117638095D01*
X74364285Y-117542857D01*
X74388095Y-117495238D01*
X74435714Y-117447619D01*
X74507142Y-117423809D01*
X74554761Y-117423809D01*
X74626190Y-117447619D01*
X74650000Y-117471428D01*
X74650000Y-117638095D01*
X74554761Y-117638095D01*
X79469047Y-121773809D02*
X79754761Y-121773809D01*
X79611904Y-121273809D02*
X79611904Y-121773809D01*
X79921428Y-121273809D02*
X79921428Y-121773809D01*
X80040476Y-121773809D01*
X80111904Y-121750000D01*
X80159523Y-121702380D01*
X80183333Y-121654761D01*
X80207142Y-121559523D01*
X80207142Y-121488095D01*
X80183333Y-121392857D01*
X80159523Y-121345238D01*
X80111904Y-121297619D01*
X80040476Y-121273809D01*
X79921428Y-121273809D01*
X80516666Y-121773809D02*
X80564285Y-121773809D01*
X80611904Y-121750000D01*
X80635714Y-121726190D01*
X80659523Y-121678571D01*
X80683333Y-121583333D01*
X80683333Y-121464285D01*
X80659523Y-121369047D01*
X80635714Y-121321428D01*
X80611904Y-121297619D01*
X80564285Y-121273809D01*
X80516666Y-121273809D01*
X80469047Y-121297619D01*
X80445238Y-121321428D01*
X80421428Y-121369047D01*
X80397619Y-121464285D01*
X80397619Y-121583333D01*
X80421428Y-121678571D01*
X80445238Y-121726190D01*
X80469047Y-121750000D01*
X80516666Y-121773809D01*
X77049998Y-121773809D02*
X77335713Y-121773809D01*
X77192856Y-121273809D02*
X77192856Y-121773809D01*
X77788094Y-121321428D02*
X77764284Y-121297619D01*
X77692856Y-121273809D01*
X77645236Y-121273809D01*
X77573808Y-121297619D01*
X77526189Y-121345238D01*
X77502379Y-121392857D01*
X77478570Y-121488095D01*
X77478570Y-121559523D01*
X77502379Y-121654761D01*
X77526189Y-121702380D01*
X77573808Y-121750000D01*
X77645236Y-121773809D01*
X77692856Y-121773809D01*
X77764284Y-121750000D01*
X77788094Y-121726190D01*
X78002379Y-121273809D02*
X78002379Y-121773809D01*
X78288094Y-121273809D02*
X78073808Y-121559523D01*
X78288094Y-121773809D02*
X78002379Y-121488095D01*
X75178570Y-121773809D02*
X75464284Y-121773809D01*
X75321427Y-121273809D02*
X75321427Y-121773809D01*
X75630951Y-121273809D02*
X75630951Y-121773809D01*
X75749998Y-121773809D01*
X75821427Y-121750000D01*
X75869046Y-121702380D01*
X75892855Y-121654761D01*
X75916665Y-121559523D01*
X75916665Y-121488095D01*
X75892855Y-121392857D01*
X75869046Y-121345238D01*
X75821427Y-121297619D01*
X75749998Y-121273809D01*
X75630951Y-121273809D01*
X76130951Y-121273809D02*
X76130951Y-121773809D01*
X73283333Y-121773809D02*
X73569047Y-121773809D01*
X73426190Y-121273809D02*
X73426190Y-121773809D01*
X73735714Y-121273809D02*
X73735714Y-121773809D01*
X73902380Y-121416666D01*
X74069047Y-121773809D01*
X74069047Y-121273809D01*
X74283333Y-121297619D02*
X74354761Y-121273809D01*
X74473809Y-121273809D01*
X74521428Y-121297619D01*
X74545238Y-121321428D01*
X74569047Y-121369047D01*
X74569047Y-121416666D01*
X74545238Y-121464285D01*
X74521428Y-121488095D01*
X74473809Y-121511904D01*
X74378571Y-121535714D01*
X74330952Y-121559523D01*
X74307142Y-121583333D01*
X74283333Y-121630952D01*
X74283333Y-121678571D01*
X74307142Y-121726190D01*
X74330952Y-121750000D01*
X74378571Y-121773809D01*
X74497619Y-121773809D01*
X74569047Y-121750000D01*
X81150000Y-105926190D02*
X81173809Y-105973809D01*
X81173809Y-106045238D01*
X81150000Y-106116666D01*
X81102380Y-106164285D01*
X81054761Y-106188095D01*
X80959523Y-106211904D01*
X80888095Y-106211904D01*
X80792857Y-106188095D01*
X80745238Y-106164285D01*
X80697619Y-106116666D01*
X80673809Y-106045238D01*
X80673809Y-105997618D01*
X80697619Y-105926190D01*
X80721428Y-105902380D01*
X80888095Y-105902380D01*
X80888095Y-105997618D01*
X80673809Y-105688095D02*
X81173809Y-105688095D01*
X80673809Y-105402380D01*
X81173809Y-105402380D01*
X80673809Y-105164285D02*
X81173809Y-105164285D01*
X81173809Y-105045238D01*
X81150000Y-104973809D01*
X81102380Y-104926190D01*
X81054761Y-104902380D01*
X80959523Y-104878571D01*
X80888095Y-104878571D01*
X80792857Y-104902380D01*
X80745238Y-104926190D01*
X80697619Y-104973809D01*
X80673809Y-105045238D01*
X80673809Y-105164285D01*
X81273809Y-94352380D02*
X81273809Y-94042856D01*
X81083333Y-94209523D01*
X81083333Y-94138094D01*
X81059523Y-94090475D01*
X81035714Y-94066666D01*
X80988095Y-94042856D01*
X80869047Y-94042856D01*
X80821428Y-94066666D01*
X80797619Y-94090475D01*
X80773809Y-94138094D01*
X80773809Y-94280952D01*
X80797619Y-94328571D01*
X80821428Y-94352380D01*
X81273809Y-93899999D02*
X80773809Y-93733333D01*
X81273809Y-93566666D01*
X81273809Y-93447618D02*
X81273809Y-93138094D01*
X81083333Y-93304761D01*
X81083333Y-93233333D01*
X81059523Y-93185713D01*
X81035714Y-93161904D01*
X80988095Y-93138094D01*
X80869047Y-93138094D01*
X80821428Y-93161904D01*
X80797619Y-93185713D01*
X80773809Y-93233333D01*
X80773809Y-93376190D01*
X80797619Y-93423809D01*
X80821428Y-93447618D01*
X83262500Y-94899999D02*
X83286309Y-94947618D01*
X83286309Y-95019046D01*
X83262500Y-95090475D01*
X83214880Y-95138094D01*
X83167261Y-95161904D01*
X83072023Y-95185713D01*
X83000595Y-95185713D01*
X82905357Y-95161904D01*
X82857738Y-95138094D01*
X82810119Y-95090475D01*
X82786309Y-95019046D01*
X82786309Y-94971427D01*
X82810119Y-94899999D01*
X82833928Y-94876189D01*
X83000595Y-94876189D01*
X83000595Y-94971427D01*
X82786309Y-94661904D02*
X83286309Y-94661904D01*
X83286309Y-94471427D01*
X83262500Y-94423808D01*
X83238690Y-94399999D01*
X83191071Y-94376189D01*
X83119642Y-94376189D01*
X83072023Y-94399999D01*
X83048214Y-94423808D01*
X83024404Y-94471427D01*
X83024404Y-94661904D01*
X82786309Y-94161904D02*
X83286309Y-94161904D01*
X83286309Y-93828570D02*
X83286309Y-93733332D01*
X83262500Y-93685713D01*
X83214880Y-93638094D01*
X83119642Y-93614284D01*
X82952976Y-93614284D01*
X82857738Y-93638094D01*
X82810119Y-93685713D01*
X82786309Y-93733332D01*
X82786309Y-93828570D01*
X82810119Y-93876189D01*
X82857738Y-93923808D01*
X82952976Y-93947618D01*
X83119642Y-93947618D01*
X83214880Y-93923808D01*
X83262500Y-93876189D01*
X83286309Y-93828570D01*
X83286309Y-93304761D02*
X83286309Y-93257142D01*
X83262500Y-93209523D01*
X83238690Y-93185713D01*
X83191071Y-93161904D01*
X83095833Y-93138094D01*
X82976785Y-93138094D01*
X82881547Y-93161904D01*
X82833928Y-93185713D01*
X82810119Y-93209523D01*
X82786309Y-93257142D01*
X82786309Y-93304761D01*
X82810119Y-93352380D01*
X82833928Y-93376189D01*
X82881547Y-93399999D01*
X82976785Y-93423808D01*
X83095833Y-93423808D01*
X83191071Y-93399999D01*
X83238690Y-93376189D01*
X83262500Y-93352380D01*
X83286309Y-93304761D01*
X85275000Y-95376190D02*
X85298809Y-95423809D01*
X85298809Y-95495238D01*
X85275000Y-95566666D01*
X85227380Y-95614285D01*
X85179761Y-95638095D01*
X85084523Y-95661904D01*
X85013095Y-95661904D01*
X84917857Y-95638095D01*
X84870238Y-95614285D01*
X84822619Y-95566666D01*
X84798809Y-95495238D01*
X84798809Y-95447619D01*
X84822619Y-95376190D01*
X84846428Y-95352380D01*
X85013095Y-95352380D01*
X85013095Y-95447619D01*
X84798809Y-95138095D02*
X85298809Y-95138095D01*
X85298809Y-94947619D01*
X85275000Y-94900000D01*
X85251190Y-94876190D01*
X85203571Y-94852380D01*
X85132142Y-94852380D01*
X85084523Y-94876190D01*
X85060714Y-94900000D01*
X85036904Y-94947619D01*
X85036904Y-95138095D01*
X84798809Y-94638095D02*
X85298809Y-94638095D01*
X85298809Y-94304761D02*
X85298809Y-94209523D01*
X85275000Y-94161904D01*
X85227380Y-94114285D01*
X85132142Y-94090476D01*
X84965476Y-94090476D01*
X84870238Y-94114285D01*
X84822619Y-94161904D01*
X84798809Y-94209523D01*
X84798809Y-94304761D01*
X84822619Y-94352380D01*
X84870238Y-94400000D01*
X84965476Y-94423809D01*
X85132142Y-94423809D01*
X85227380Y-94400000D01*
X85275000Y-94352380D01*
X85298809Y-94304761D01*
X85298809Y-93780952D02*
X85298809Y-93733333D01*
X85275000Y-93685714D01*
X85251190Y-93661904D01*
X85203571Y-93638095D01*
X85108333Y-93614285D01*
X84989285Y-93614285D01*
X84894047Y-93638095D01*
X84846428Y-93661904D01*
X84822619Y-93685714D01*
X84798809Y-93733333D01*
X84798809Y-93780952D01*
X84822619Y-93828571D01*
X84846428Y-93852380D01*
X84894047Y-93876190D01*
X84989285Y-93900000D01*
X85108333Y-93900000D01*
X85203571Y-93876190D01*
X85251190Y-93852380D01*
X85275000Y-93828571D01*
X85298809Y-93780952D01*
X85251190Y-93423809D02*
X85275000Y-93400000D01*
X85298809Y-93352380D01*
X85298809Y-93233333D01*
X85275000Y-93185714D01*
X85251190Y-93161904D01*
X85203571Y-93138095D01*
X85155952Y-93138095D01*
X85084523Y-93161904D01*
X84798809Y-93447619D01*
X84798809Y-93138095D01*
X87287500Y-95376190D02*
X87311309Y-95423809D01*
X87311309Y-95495238D01*
X87287500Y-95566666D01*
X87239880Y-95614285D01*
X87192261Y-95638095D01*
X87097023Y-95661904D01*
X87025595Y-95661904D01*
X86930357Y-95638095D01*
X86882738Y-95614285D01*
X86835119Y-95566666D01*
X86811309Y-95495238D01*
X86811309Y-95447619D01*
X86835119Y-95376190D01*
X86858928Y-95352380D01*
X87025595Y-95352380D01*
X87025595Y-95447619D01*
X86811309Y-95138095D02*
X87311309Y-95138095D01*
X87311309Y-94947619D01*
X87287500Y-94900000D01*
X87263690Y-94876190D01*
X87216071Y-94852380D01*
X87144642Y-94852380D01*
X87097023Y-94876190D01*
X87073214Y-94900000D01*
X87049404Y-94947619D01*
X87049404Y-95138095D01*
X86811309Y-94638095D02*
X87311309Y-94638095D01*
X87311309Y-94304761D02*
X87311309Y-94209523D01*
X87287500Y-94161904D01*
X87239880Y-94114285D01*
X87144642Y-94090476D01*
X86977976Y-94090476D01*
X86882738Y-94114285D01*
X86835119Y-94161904D01*
X86811309Y-94209523D01*
X86811309Y-94304761D01*
X86835119Y-94352380D01*
X86882738Y-94400000D01*
X86977976Y-94423809D01*
X87144642Y-94423809D01*
X87239880Y-94400000D01*
X87287500Y-94352380D01*
X87311309Y-94304761D01*
X87311309Y-93780952D02*
X87311309Y-93733333D01*
X87287500Y-93685714D01*
X87263690Y-93661904D01*
X87216071Y-93638095D01*
X87120833Y-93614285D01*
X87001785Y-93614285D01*
X86906547Y-93638095D01*
X86858928Y-93661904D01*
X86835119Y-93685714D01*
X86811309Y-93733333D01*
X86811309Y-93780952D01*
X86835119Y-93828571D01*
X86858928Y-93852380D01*
X86906547Y-93876190D01*
X87001785Y-93900000D01*
X87120833Y-93900000D01*
X87216071Y-93876190D01*
X87263690Y-93852380D01*
X87287500Y-93828571D01*
X87311309Y-93780952D01*
X87097023Y-93328571D02*
X87120833Y-93376190D01*
X87144642Y-93400000D01*
X87192261Y-93423809D01*
X87216071Y-93423809D01*
X87263690Y-93400000D01*
X87287500Y-93376190D01*
X87311309Y-93328571D01*
X87311309Y-93233333D01*
X87287500Y-93185714D01*
X87263690Y-93161904D01*
X87216071Y-93138095D01*
X87192261Y-93138095D01*
X87144642Y-93161904D01*
X87120833Y-93185714D01*
X87097023Y-93233333D01*
X87097023Y-93328571D01*
X87073214Y-93376190D01*
X87049404Y-93400000D01*
X87001785Y-93423809D01*
X86906547Y-93423809D01*
X86858928Y-93400000D01*
X86835119Y-93376190D01*
X86811309Y-93328571D01*
X86811309Y-93233333D01*
X86835119Y-93185714D01*
X86858928Y-93161904D01*
X86906547Y-93138095D01*
X87001785Y-93138095D01*
X87049404Y-93161904D01*
X87073214Y-93185714D01*
X87097023Y-93233333D01*
X89300000Y-95376190D02*
X89323809Y-95423809D01*
X89323809Y-95495238D01*
X89300000Y-95566666D01*
X89252380Y-95614285D01*
X89204761Y-95638095D01*
X89109523Y-95661904D01*
X89038095Y-95661904D01*
X88942857Y-95638095D01*
X88895238Y-95614285D01*
X88847619Y-95566666D01*
X88823809Y-95495238D01*
X88823809Y-95447619D01*
X88847619Y-95376190D01*
X88871428Y-95352380D01*
X89038095Y-95352380D01*
X89038095Y-95447619D01*
X88823809Y-95138095D02*
X89323809Y-95138095D01*
X89323809Y-94947619D01*
X89300000Y-94900000D01*
X89276190Y-94876190D01*
X89228571Y-94852380D01*
X89157142Y-94852380D01*
X89109523Y-94876190D01*
X89085714Y-94900000D01*
X89061904Y-94947619D01*
X89061904Y-95138095D01*
X88823809Y-94638095D02*
X89323809Y-94638095D01*
X89323809Y-94304761D02*
X89323809Y-94209523D01*
X89300000Y-94161904D01*
X89252380Y-94114285D01*
X89157142Y-94090476D01*
X88990476Y-94090476D01*
X88895238Y-94114285D01*
X88847619Y-94161904D01*
X88823809Y-94209523D01*
X88823809Y-94304761D01*
X88847619Y-94352380D01*
X88895238Y-94400000D01*
X88990476Y-94423809D01*
X89157142Y-94423809D01*
X89252380Y-94400000D01*
X89300000Y-94352380D01*
X89323809Y-94304761D01*
X88823809Y-93614285D02*
X88823809Y-93900000D01*
X88823809Y-93757142D02*
X89323809Y-93757142D01*
X89252380Y-93804761D01*
X89204761Y-93852380D01*
X89180952Y-93900000D01*
X89323809Y-93161904D02*
X89323809Y-93400000D01*
X89085714Y-93423809D01*
X89109523Y-93400000D01*
X89133333Y-93352380D01*
X89133333Y-93233333D01*
X89109523Y-93185714D01*
X89085714Y-93161904D01*
X89038095Y-93138095D01*
X88919047Y-93138095D01*
X88871428Y-93161904D01*
X88847619Y-93185714D01*
X88823809Y-93233333D01*
X88823809Y-93352380D01*
X88847619Y-93400000D01*
X88871428Y-93423809D01*
X89350000Y-105926190D02*
X89373809Y-105973809D01*
X89373809Y-106045238D01*
X89350000Y-106116666D01*
X89302380Y-106164285D01*
X89254761Y-106188095D01*
X89159523Y-106211904D01*
X89088095Y-106211904D01*
X88992857Y-106188095D01*
X88945238Y-106164285D01*
X88897619Y-106116666D01*
X88873809Y-106045238D01*
X88873809Y-105997619D01*
X88897619Y-105926190D01*
X88921428Y-105902380D01*
X89088095Y-105902380D01*
X89088095Y-105997619D01*
X88873809Y-105688095D02*
X89373809Y-105688095D01*
X89373809Y-105497619D01*
X89350000Y-105450000D01*
X89326190Y-105426190D01*
X89278571Y-105402380D01*
X89207142Y-105402380D01*
X89159523Y-105426190D01*
X89135714Y-105450000D01*
X89111904Y-105497619D01*
X89111904Y-105688095D01*
X88873809Y-105188095D02*
X89373809Y-105188095D01*
X89373809Y-104854761D02*
X89373809Y-104759523D01*
X89350000Y-104711904D01*
X89302380Y-104664285D01*
X89207142Y-104640476D01*
X89040476Y-104640476D01*
X88945238Y-104664285D01*
X88897619Y-104711904D01*
X88873809Y-104759523D01*
X88873809Y-104854761D01*
X88897619Y-104902380D01*
X88945238Y-104950000D01*
X89040476Y-104973809D01*
X89207142Y-104973809D01*
X89302380Y-104950000D01*
X89350000Y-104902380D01*
X89373809Y-104854761D01*
X89326190Y-104450000D02*
X89350000Y-104426190D01*
X89373809Y-104378571D01*
X89373809Y-104259523D01*
X89350000Y-104211904D01*
X89326190Y-104188095D01*
X89278571Y-104164285D01*
X89230952Y-104164285D01*
X89159523Y-104188095D01*
X88873809Y-104473809D01*
X88873809Y-104164285D01*
X89373809Y-103997619D02*
X89373809Y-103688095D01*
X89183333Y-103854761D01*
X89183333Y-103783333D01*
X89159523Y-103735714D01*
X89135714Y-103711904D01*
X89088095Y-103688095D01*
X88969047Y-103688095D01*
X88921428Y-103711904D01*
X88897619Y-103735714D01*
X88873809Y-103783333D01*
X88873809Y-103926190D01*
X88897619Y-103973809D01*
X88921428Y-103997619D01*
X87300000Y-105926190D02*
X87323809Y-105973809D01*
X87323809Y-106045238D01*
X87300000Y-106116666D01*
X87252380Y-106164285D01*
X87204761Y-106188095D01*
X87109523Y-106211904D01*
X87038095Y-106211904D01*
X86942857Y-106188095D01*
X86895238Y-106164285D01*
X86847619Y-106116666D01*
X86823809Y-106045238D01*
X86823809Y-105997619D01*
X86847619Y-105926190D01*
X86871428Y-105902380D01*
X87038095Y-105902380D01*
X87038095Y-105997619D01*
X86823809Y-105688095D02*
X87323809Y-105688095D01*
X87323809Y-105497619D01*
X87300000Y-105450000D01*
X87276190Y-105426190D01*
X87228571Y-105402380D01*
X87157142Y-105402380D01*
X87109523Y-105426190D01*
X87085714Y-105450000D01*
X87061904Y-105497619D01*
X87061904Y-105688095D01*
X86823809Y-105188095D02*
X87323809Y-105188095D01*
X87323809Y-104854761D02*
X87323809Y-104759523D01*
X87300000Y-104711904D01*
X87252380Y-104664285D01*
X87157142Y-104640476D01*
X86990476Y-104640476D01*
X86895238Y-104664285D01*
X86847619Y-104711904D01*
X86823809Y-104759523D01*
X86823809Y-104854761D01*
X86847619Y-104902380D01*
X86895238Y-104950000D01*
X86990476Y-104973809D01*
X87157142Y-104973809D01*
X87252380Y-104950000D01*
X87300000Y-104902380D01*
X87323809Y-104854761D01*
X86823809Y-104164285D02*
X86823809Y-104450000D01*
X86823809Y-104307142D02*
X87323809Y-104307142D01*
X87252380Y-104354761D01*
X87204761Y-104402380D01*
X87180952Y-104450000D01*
X86823809Y-103688095D02*
X86823809Y-103973809D01*
X86823809Y-103830952D02*
X87323809Y-103830952D01*
X87252380Y-103878571D01*
X87204761Y-103926190D01*
X87180952Y-103973809D01*
X85250000Y-105926190D02*
X85273809Y-105973809D01*
X85273809Y-106045238D01*
X85250000Y-106116666D01*
X85202380Y-106164285D01*
X85154761Y-106188095D01*
X85059523Y-106211904D01*
X84988095Y-106211904D01*
X84892857Y-106188095D01*
X84845238Y-106164285D01*
X84797619Y-106116666D01*
X84773809Y-106045238D01*
X84773809Y-105997619D01*
X84797619Y-105926190D01*
X84821428Y-105902380D01*
X84988095Y-105902380D01*
X84988095Y-105997619D01*
X84773809Y-105688095D02*
X85273809Y-105688095D01*
X85273809Y-105497619D01*
X85250000Y-105450000D01*
X85226190Y-105426190D01*
X85178571Y-105402380D01*
X85107142Y-105402380D01*
X85059523Y-105426190D01*
X85035714Y-105450000D01*
X85011904Y-105497619D01*
X85011904Y-105688095D01*
X84773809Y-105188095D02*
X85273809Y-105188095D01*
X85273809Y-104854761D02*
X85273809Y-104759523D01*
X85250000Y-104711904D01*
X85202380Y-104664285D01*
X85107142Y-104640476D01*
X84940476Y-104640476D01*
X84845238Y-104664285D01*
X84797619Y-104711904D01*
X84773809Y-104759523D01*
X84773809Y-104854761D01*
X84797619Y-104902380D01*
X84845238Y-104950000D01*
X84940476Y-104973809D01*
X85107142Y-104973809D01*
X85202380Y-104950000D01*
X85250000Y-104902380D01*
X85273809Y-104854761D01*
X85273809Y-104330952D02*
X85273809Y-104283333D01*
X85250000Y-104235714D01*
X85226190Y-104211904D01*
X85178571Y-104188095D01*
X85083333Y-104164285D01*
X84964285Y-104164285D01*
X84869047Y-104188095D01*
X84821428Y-104211904D01*
X84797619Y-104235714D01*
X84773809Y-104283333D01*
X84773809Y-104330952D01*
X84797619Y-104378571D01*
X84821428Y-104402380D01*
X84869047Y-104426190D01*
X84964285Y-104450000D01*
X85083333Y-104450000D01*
X85178571Y-104426190D01*
X85226190Y-104402380D01*
X85250000Y-104378571D01*
X85273809Y-104330952D01*
X85273809Y-103997619D02*
X85273809Y-103688095D01*
X85083333Y-103854761D01*
X85083333Y-103783333D01*
X85059523Y-103735714D01*
X85035714Y-103711904D01*
X84988095Y-103688095D01*
X84869047Y-103688095D01*
X84821428Y-103711904D01*
X84797619Y-103735714D01*
X84773809Y-103783333D01*
X84773809Y-103926190D01*
X84797619Y-103973809D01*
X84821428Y-103997619D01*
X83200000Y-105926190D02*
X83223809Y-105973809D01*
X83223809Y-106045238D01*
X83200000Y-106116666D01*
X83152380Y-106164285D01*
X83104761Y-106188095D01*
X83009523Y-106211904D01*
X82938095Y-106211904D01*
X82842857Y-106188095D01*
X82795238Y-106164285D01*
X82747619Y-106116666D01*
X82723809Y-106045238D01*
X82723809Y-105997619D01*
X82747619Y-105926190D01*
X82771428Y-105902380D01*
X82938095Y-105902380D01*
X82938095Y-105997619D01*
X82723809Y-105688095D02*
X83223809Y-105688095D01*
X83223809Y-105497619D01*
X83200000Y-105450000D01*
X83176190Y-105426190D01*
X83128571Y-105402380D01*
X83057142Y-105402380D01*
X83009523Y-105426190D01*
X82985714Y-105450000D01*
X82961904Y-105497619D01*
X82961904Y-105688095D01*
X82723809Y-105188095D02*
X83223809Y-105188095D01*
X83223809Y-104854761D02*
X83223809Y-104759523D01*
X83200000Y-104711904D01*
X83152380Y-104664285D01*
X83057142Y-104640476D01*
X82890476Y-104640476D01*
X82795238Y-104664285D01*
X82747619Y-104711904D01*
X82723809Y-104759523D01*
X82723809Y-104854761D01*
X82747619Y-104902380D01*
X82795238Y-104950000D01*
X82890476Y-104973809D01*
X83057142Y-104973809D01*
X83152380Y-104950000D01*
X83200000Y-104902380D01*
X83223809Y-104854761D01*
X83223809Y-104330952D02*
X83223809Y-104283333D01*
X83200000Y-104235714D01*
X83176190Y-104211904D01*
X83128571Y-104188095D01*
X83033333Y-104164285D01*
X82914285Y-104164285D01*
X82819047Y-104188095D01*
X82771428Y-104211904D01*
X82747619Y-104235714D01*
X82723809Y-104283333D01*
X82723809Y-104330952D01*
X82747619Y-104378571D01*
X82771428Y-104402380D01*
X82819047Y-104426190D01*
X82914285Y-104450000D01*
X83033333Y-104450000D01*
X83128571Y-104426190D01*
X83176190Y-104402380D01*
X83200000Y-104378571D01*
X83223809Y-104330952D01*
X82723809Y-103688095D02*
X82723809Y-103973809D01*
X82723809Y-103830952D02*
X83223809Y-103830952D01*
X83152380Y-103878571D01*
X83104761Y-103926190D01*
X83080952Y-103973809D01*
X99426190Y-98300000D02*
X99473809Y-98276190D01*
X99545238Y-98276190D01*
X99616666Y-98300000D01*
X99664285Y-98347619D01*
X99688095Y-98395238D01*
X99711904Y-98490476D01*
X99711904Y-98561904D01*
X99688095Y-98657142D01*
X99664285Y-98704761D01*
X99616666Y-98752380D01*
X99545238Y-98776190D01*
X99497619Y-98776190D01*
X99426190Y-98752380D01*
X99402380Y-98728571D01*
X99402380Y-98561904D01*
X99497619Y-98561904D01*
X99188095Y-98776190D02*
X99188095Y-98276190D01*
X98997619Y-98276190D01*
X98950000Y-98300000D01*
X98926190Y-98323809D01*
X98902380Y-98371428D01*
X98902380Y-98442857D01*
X98926190Y-98490476D01*
X98950000Y-98514285D01*
X98997619Y-98538095D01*
X99188095Y-98538095D01*
X98688095Y-98776190D02*
X98688095Y-98276190D01*
X98354761Y-98276190D02*
X98259523Y-98276190D01*
X98211904Y-98300000D01*
X98164285Y-98347619D01*
X98140476Y-98442857D01*
X98140476Y-98609523D01*
X98164285Y-98704761D01*
X98211904Y-98752380D01*
X98259523Y-98776190D01*
X98354761Y-98776190D01*
X98402380Y-98752380D01*
X98450000Y-98704761D01*
X98473809Y-98609523D01*
X98473809Y-98442857D01*
X98450000Y-98347619D01*
X98402380Y-98300000D01*
X98354761Y-98276190D01*
X97950000Y-98323809D02*
X97926190Y-98300000D01*
X97878571Y-98276190D01*
X97759523Y-98276190D01*
X97711904Y-98300000D01*
X97688095Y-98323809D01*
X97664285Y-98371428D01*
X97664285Y-98419047D01*
X97688095Y-98490476D01*
X97973809Y-98776190D01*
X97664285Y-98776190D01*
X97473809Y-98323809D02*
X97450000Y-98300000D01*
X97402380Y-98276190D01*
X97283333Y-98276190D01*
X97235714Y-98300000D01*
X97211904Y-98323809D01*
X97188095Y-98371428D01*
X97188095Y-98419047D01*
X97211904Y-98490476D01*
X97497619Y-98776190D01*
X97188095Y-98776190D01*
X99380952Y-93800000D02*
X99428571Y-93776190D01*
X99500000Y-93776190D01*
X99571428Y-93800000D01*
X99619047Y-93847619D01*
X99642857Y-93895238D01*
X99666666Y-93990476D01*
X99666666Y-94061904D01*
X99642857Y-94157142D01*
X99619047Y-94204761D01*
X99571428Y-94252380D01*
X99500000Y-94276190D01*
X99452380Y-94276190D01*
X99380952Y-94252380D01*
X99357142Y-94228571D01*
X99357142Y-94061904D01*
X99452380Y-94061904D01*
X99142857Y-94276190D02*
X99142857Y-93776190D01*
X98857142Y-94276190D01*
X98857142Y-93776190D01*
X98619047Y-94276190D02*
X98619047Y-93776190D01*
X98500000Y-93776190D01*
X98428571Y-93800000D01*
X98380952Y-93847619D01*
X98357142Y-93895238D01*
X98333333Y-93990476D01*
X98333333Y-94061904D01*
X98357142Y-94157142D01*
X98380952Y-94204761D01*
X98428571Y-94252380D01*
X98500000Y-94276190D01*
X98619047Y-94276190D01*
X99619047Y-95976190D02*
X99309523Y-95976190D01*
X99476190Y-96166666D01*
X99404761Y-96166666D01*
X99357142Y-96190476D01*
X99333333Y-96214285D01*
X99309523Y-96261904D01*
X99309523Y-96380952D01*
X99333333Y-96428571D01*
X99357142Y-96452380D01*
X99404761Y-96476190D01*
X99547619Y-96476190D01*
X99595238Y-96452380D01*
X99619047Y-96428571D01*
X99166666Y-95976190D02*
X99000000Y-96476190D01*
X98833333Y-95976190D01*
X98714285Y-95976190D02*
X98404761Y-95976190D01*
X98571428Y-96166666D01*
X98500000Y-96166666D01*
X98452380Y-96190476D01*
X98428571Y-96214285D01*
X98404761Y-96261904D01*
X98404761Y-96380952D01*
X98428571Y-96428571D01*
X98452380Y-96452380D01*
X98500000Y-96476190D01*
X98642857Y-96476190D01*
X98690476Y-96452380D01*
X98714285Y-96428571D01*
X103080952Y-89100000D02*
X103128571Y-89076190D01*
X103200000Y-89076190D01*
X103271428Y-89100000D01*
X103319047Y-89147619D01*
X103342857Y-89195238D01*
X103366666Y-89290476D01*
X103366666Y-89361904D01*
X103342857Y-89457142D01*
X103319047Y-89504761D01*
X103271428Y-89552380D01*
X103200000Y-89576190D01*
X103152380Y-89576190D01*
X103080952Y-89552380D01*
X103057142Y-89528571D01*
X103057142Y-89361904D01*
X103152380Y-89361904D01*
X102842857Y-89576190D02*
X102842857Y-89076190D01*
X102557142Y-89576190D01*
X102557142Y-89076190D01*
X102319047Y-89576190D02*
X102319047Y-89076190D01*
X102200000Y-89076190D01*
X102128571Y-89100000D01*
X102080952Y-89147619D01*
X102057142Y-89195238D01*
X102033333Y-89290476D01*
X102033333Y-89361904D01*
X102057142Y-89457142D01*
X102080952Y-89504761D01*
X102128571Y-89552380D01*
X102200000Y-89576190D01*
X102319047Y-89576190D01*
X99473809Y-93069047D02*
X99473809Y-92759523D01*
X99283333Y-92926190D01*
X99283333Y-92854761D01*
X99259523Y-92807142D01*
X99235714Y-92783333D01*
X99188095Y-92759523D01*
X99069047Y-92759523D01*
X99021428Y-92783333D01*
X98997619Y-92807142D01*
X98973809Y-92854761D01*
X98973809Y-92997619D01*
X98997619Y-93045238D01*
X99021428Y-93069047D01*
X99473809Y-92616666D02*
X98973809Y-92450000D01*
X99473809Y-92283333D01*
X99473809Y-92164285D02*
X99473809Y-91854761D01*
X99283333Y-92021428D01*
X99283333Y-91950000D01*
X99259523Y-91902380D01*
X99235714Y-91878571D01*
X99188095Y-91854761D01*
X99069047Y-91854761D01*
X99021428Y-91878571D01*
X98997619Y-91902380D01*
X98973809Y-91950000D01*
X98973809Y-92092857D01*
X98997619Y-92140476D01*
X99021428Y-92164285D01*
X96897619Y-93045238D02*
X96873809Y-92973809D01*
X96873809Y-92854761D01*
X96897619Y-92807142D01*
X96921428Y-92783333D01*
X96969047Y-92759523D01*
X97016666Y-92759523D01*
X97064285Y-92783333D01*
X97088095Y-92807142D01*
X97111904Y-92854761D01*
X97135714Y-92950000D01*
X97159523Y-92997619D01*
X97183333Y-93021428D01*
X97230952Y-93045238D01*
X97278571Y-93045238D01*
X97326190Y-93021428D01*
X97350000Y-92997619D01*
X97373809Y-92950000D01*
X97373809Y-92830952D01*
X97350000Y-92759523D01*
X96921428Y-92259523D02*
X96897619Y-92283333D01*
X96873809Y-92354761D01*
X96873809Y-92402380D01*
X96897619Y-92473809D01*
X96945238Y-92521428D01*
X96992857Y-92545238D01*
X97088095Y-92569047D01*
X97159523Y-92569047D01*
X97254761Y-92545238D01*
X97302380Y-92521428D01*
X97350000Y-92473809D01*
X97373809Y-92402380D01*
X97373809Y-92354761D01*
X97350000Y-92283333D01*
X97326190Y-92259523D01*
X96873809Y-91807142D02*
X96873809Y-92045238D01*
X97373809Y-92045238D01*
X94847619Y-93057142D02*
X94823809Y-92985714D01*
X94823809Y-92866666D01*
X94847619Y-92819047D01*
X94871428Y-92795238D01*
X94919047Y-92771428D01*
X94966666Y-92771428D01*
X95014285Y-92795238D01*
X95038095Y-92819047D01*
X95061904Y-92866666D01*
X95085714Y-92961904D01*
X95109523Y-93009523D01*
X95133333Y-93033333D01*
X95180952Y-93057142D01*
X95228571Y-93057142D01*
X95276190Y-93033333D01*
X95300000Y-93009523D01*
X95323809Y-92961904D01*
X95323809Y-92842857D01*
X95300000Y-92771428D01*
X94823809Y-92557142D02*
X95323809Y-92557142D01*
X95323809Y-92438095D01*
X95300000Y-92366666D01*
X95252380Y-92319047D01*
X95204761Y-92295238D01*
X95109523Y-92271428D01*
X95038095Y-92271428D01*
X94942857Y-92295238D01*
X94895238Y-92319047D01*
X94847619Y-92366666D01*
X94823809Y-92438095D01*
X94823809Y-92557142D01*
X94966666Y-92080952D02*
X94966666Y-91842857D01*
X94823809Y-92128571D02*
X95323809Y-91961904D01*
X94823809Y-91795238D01*
D11*
X106435714Y-102147619D02*
X106388095Y-102100000D01*
X106292857Y-102052380D01*
X106054761Y-102052380D01*
X105959523Y-102100000D01*
X105911904Y-102147619D01*
X105864285Y-102242857D01*
X105864285Y-102338095D01*
X105911904Y-102480952D01*
X106483333Y-103052380D01*
X105864285Y-103052380D01*
X106433333Y-110052380D02*
X105814285Y-110052380D01*
X106147619Y-110433333D01*
X106004761Y-110433333D01*
X105909523Y-110480952D01*
X105861904Y-110528571D01*
X105814285Y-110623809D01*
X105814285Y-110861904D01*
X105861904Y-110957142D01*
X105909523Y-111004761D01*
X106004761Y-111052380D01*
X106290476Y-111052380D01*
X106385714Y-111004761D01*
X106433333Y-110957142D01*
X105764285Y-95052380D02*
X106335714Y-95052380D01*
X106050000Y-95052380D02*
X106050000Y-94052380D01*
X106145238Y-94195238D01*
X106240476Y-94290476D01*
X106335714Y-94338095D01*
X85426190Y-109100238D02*
X85569047Y-109052619D01*
X85807142Y-109052619D01*
X85902380Y-109100238D01*
X85950000Y-109147857D01*
X85997619Y-109243095D01*
X85997619Y-109338333D01*
X85950000Y-109433571D01*
X85902380Y-109481190D01*
X85807142Y-109528809D01*
X85616666Y-109576428D01*
X85521428Y-109624047D01*
X85473809Y-109671666D01*
X85426190Y-109766904D01*
X85426190Y-109862142D01*
X85473809Y-109957380D01*
X85521428Y-110005000D01*
X85616666Y-110052619D01*
X85854761Y-110052619D01*
X85997619Y-110005000D01*
X86426190Y-109719285D02*
X86426190Y-108719285D01*
X86426190Y-109671666D02*
X86521428Y-109719285D01*
X86711904Y-109719285D01*
X86807142Y-109671666D01*
X86854761Y-109624047D01*
X86902380Y-109528809D01*
X86902380Y-109243095D01*
X86854761Y-109147857D01*
X86807142Y-109100238D01*
X86711904Y-109052619D01*
X86521428Y-109052619D01*
X86426190Y-109100238D01*
X87330952Y-109052619D02*
X87330952Y-109719285D01*
X87330952Y-109528809D02*
X87378571Y-109624047D01*
X87426190Y-109671666D01*
X87521428Y-109719285D01*
X87616666Y-109719285D01*
X87950000Y-109052619D02*
X87950000Y-109719285D01*
X87950000Y-110052619D02*
X87902380Y-110005000D01*
X87950000Y-109957380D01*
X87997619Y-110005000D01*
X87950000Y-110052619D01*
X87950000Y-109957380D01*
X88426190Y-109719285D02*
X88426190Y-109052619D01*
X88426190Y-109624047D02*
X88473809Y-109671666D01*
X88569047Y-109719285D01*
X88711904Y-109719285D01*
X88807142Y-109671666D01*
X88854761Y-109576428D01*
X88854761Y-109052619D01*
X89330952Y-109052619D02*
X89330952Y-110052619D01*
X89426190Y-109433571D02*
X89711904Y-109052619D01*
X89711904Y-109719285D02*
X89330952Y-109338333D01*
X90283333Y-109052619D02*
X90188095Y-109100238D01*
X90140476Y-109195476D01*
X90140476Y-110052619D01*
X91045238Y-109100238D02*
X90950000Y-109052619D01*
X90759523Y-109052619D01*
X90664285Y-109100238D01*
X90616666Y-109195476D01*
X90616666Y-109576428D01*
X90664285Y-109671666D01*
X90759523Y-109719285D01*
X90950000Y-109719285D01*
X91045238Y-109671666D01*
X91092857Y-109576428D01*
X91092857Y-109481190D01*
X90616666Y-109385952D01*
X91521428Y-109052619D02*
X91521428Y-109719285D01*
X91521428Y-109528809D02*
X91569047Y-109624047D01*
X91616666Y-109671666D01*
X91711904Y-109719285D01*
X91807142Y-109719285D01*
X92140476Y-109576428D02*
X92473809Y-109576428D01*
X92616666Y-109052619D02*
X92140476Y-109052619D01*
X92140476Y-110052619D01*
X92616666Y-110052619D01*
X92997619Y-109100238D02*
X93140476Y-109052619D01*
X93378571Y-109052619D01*
X93473809Y-109100238D01*
X93521428Y-109147857D01*
X93569047Y-109243095D01*
X93569047Y-109338333D01*
X93521428Y-109433571D01*
X93473809Y-109481190D01*
X93378571Y-109528809D01*
X93188095Y-109576428D01*
X93092857Y-109624047D01*
X93045238Y-109671666D01*
X92997619Y-109766904D01*
X92997619Y-109862142D01*
X93045238Y-109957380D01*
X93092857Y-110005000D01*
X93188095Y-110052619D01*
X93426190Y-110052619D01*
X93569047Y-110005000D01*
X93997619Y-109052619D02*
X93997619Y-110052619D01*
X94378571Y-110052619D01*
X94473809Y-110005000D01*
X94521428Y-109957380D01*
X94569047Y-109862142D01*
X94569047Y-109719285D01*
X94521428Y-109624047D01*
X94473809Y-109576428D01*
X94378571Y-109528809D01*
X93997619Y-109528809D01*
X94902380Y-110052619D02*
X95521428Y-110052619D01*
X95188095Y-109671666D01*
X95330952Y-109671666D01*
X95426190Y-109624047D01*
X95473809Y-109576428D01*
X95521428Y-109481190D01*
X95521428Y-109243095D01*
X95473809Y-109147857D01*
X95426190Y-109100238D01*
X95330952Y-109052619D01*
X95045238Y-109052619D01*
X94950000Y-109100238D01*
X94902380Y-109147857D01*
X95902380Y-109957380D02*
X95950000Y-110005000D01*
X96045238Y-110052619D01*
X96283333Y-110052619D01*
X96378571Y-110005000D01*
X96426190Y-109957380D01*
X96473809Y-109862142D01*
X96473809Y-109766904D01*
X96426190Y-109624047D01*
X95854761Y-109052619D01*
X96473809Y-109052619D01*
X87354761Y-107966428D02*
X87497619Y-107918809D01*
X87545238Y-107871190D01*
X87592857Y-107775952D01*
X87592857Y-107633095D01*
X87545238Y-107537857D01*
X87497619Y-107490238D01*
X87402380Y-107442619D01*
X87021428Y-107442619D01*
X87021428Y-108442619D01*
X87354761Y-108442619D01*
X87450000Y-108395000D01*
X87497619Y-108347380D01*
X87545238Y-108252142D01*
X87545238Y-108156904D01*
X87497619Y-108061666D01*
X87450000Y-108014047D01*
X87354761Y-107966428D01*
X87021428Y-107966428D01*
X88164285Y-107442619D02*
X88069047Y-107490238D01*
X88021428Y-107537857D01*
X87973809Y-107633095D01*
X87973809Y-107918809D01*
X88021428Y-108014047D01*
X88069047Y-108061666D01*
X88164285Y-108109285D01*
X88307142Y-108109285D01*
X88402380Y-108061666D01*
X88450000Y-108014047D01*
X88497619Y-107918809D01*
X88497619Y-107633095D01*
X88450000Y-107537857D01*
X88402380Y-107490238D01*
X88307142Y-107442619D01*
X88164285Y-107442619D01*
X89354761Y-107442619D02*
X89354761Y-107966428D01*
X89307142Y-108061666D01*
X89211904Y-108109285D01*
X89021428Y-108109285D01*
X88926190Y-108061666D01*
X89354761Y-107490238D02*
X89259523Y-107442619D01*
X89021428Y-107442619D01*
X88926190Y-107490238D01*
X88878571Y-107585476D01*
X88878571Y-107680714D01*
X88926190Y-107775952D01*
X89021428Y-107823571D01*
X89259523Y-107823571D01*
X89354761Y-107871190D01*
X89830952Y-107442619D02*
X89830952Y-108109285D01*
X89830952Y-107918809D02*
X89878571Y-108014047D01*
X89926190Y-108061666D01*
X90021428Y-108109285D01*
X90116666Y-108109285D01*
X90878571Y-107442619D02*
X90878571Y-108442619D01*
X90878571Y-107490238D02*
X90783333Y-107442619D01*
X90592857Y-107442619D01*
X90497619Y-107490238D01*
X90450000Y-107537857D01*
X90402380Y-107633095D01*
X90402380Y-107918809D01*
X90450000Y-108014047D01*
X90497619Y-108061666D01*
X90592857Y-108109285D01*
X90783333Y-108109285D01*
X90878571Y-108061666D01*
X91973809Y-108442619D02*
X92307142Y-107442619D01*
X92640476Y-108442619D01*
X92878571Y-108442619D02*
X93497619Y-108442619D01*
X93164285Y-108061666D01*
X93307142Y-108061666D01*
X93402380Y-108014047D01*
X93450000Y-107966428D01*
X93497619Y-107871190D01*
X93497619Y-107633095D01*
X93450000Y-107537857D01*
X93402380Y-107490238D01*
X93307142Y-107442619D01*
X93021428Y-107442619D01*
X92926190Y-107490238D01*
X92878571Y-107537857D01*
X93926190Y-107537857D02*
X93973809Y-107490238D01*
X93926190Y-107442619D01*
X93878571Y-107490238D01*
X93926190Y-107537857D01*
X93926190Y-107442619D01*
X94592857Y-108442619D02*
X94688095Y-108442619D01*
X94783333Y-108395000D01*
X94830952Y-108347380D01*
X94878571Y-108252142D01*
X94926190Y-108061666D01*
X94926190Y-107823571D01*
X94878571Y-107633095D01*
X94830952Y-107537857D01*
X94783333Y-107490238D01*
X94688095Y-107442619D01*
X94592857Y-107442619D01*
X94497619Y-107490238D01*
X94450000Y-107537857D01*
X94402380Y-107633095D01*
X94354761Y-107823571D01*
X94354761Y-108061666D01*
X94402380Y-108252142D01*
X94450000Y-108347380D01*
X94497619Y-108395000D01*
X94592857Y-108442619D01*
X105909523Y-118235714D02*
X105909523Y-118902380D01*
X106147619Y-117854761D02*
X106385714Y-118569047D01*
X105766666Y-118569047D01*
X81104352Y-85698619D02*
X81104352Y-84984333D01*
X81056733Y-84841476D01*
X80961495Y-84746238D01*
X80818638Y-84698619D01*
X80723400Y-84698619D01*
X82056733Y-84698619D02*
X81580542Y-84698619D01*
X81580542Y-85698619D01*
X82961495Y-84793857D02*
X82913876Y-84746238D01*
X82771019Y-84698619D01*
X82675780Y-84698619D01*
X82532923Y-84746238D01*
X82437685Y-84841476D01*
X82390066Y-84936714D01*
X82342447Y-85127190D01*
X82342447Y-85270047D01*
X82390066Y-85460523D01*
X82437685Y-85555761D01*
X82532923Y-85651000D01*
X82675780Y-85698619D01*
X82771019Y-85698619D01*
X82913876Y-85651000D01*
X82961495Y-85603380D01*
X83675780Y-85698619D02*
X83675780Y-84984333D01*
X83628161Y-84841476D01*
X83532923Y-84746238D01*
X83390066Y-84698619D01*
X83294828Y-84698619D01*
X84628161Y-84698619D02*
X84151971Y-84698619D01*
X84151971Y-85698619D01*
X85532923Y-84793857D02*
X85485304Y-84746238D01*
X85342447Y-84698619D01*
X85247209Y-84698619D01*
X85104352Y-84746238D01*
X85009114Y-84841476D01*
X84961495Y-84936714D01*
X84913876Y-85127190D01*
X84913876Y-85270047D01*
X84961495Y-85460523D01*
X85009114Y-85555761D01*
X85104352Y-85651000D01*
X85247209Y-85698619D01*
X85342447Y-85698619D01*
X85485304Y-85651000D01*
X85532923Y-85603380D01*
X86247209Y-85698619D02*
X86247209Y-84984333D01*
X86199590Y-84841476D01*
X86104352Y-84746238D01*
X85961495Y-84698619D01*
X85866257Y-84698619D01*
X87199590Y-84698619D02*
X86723400Y-84698619D01*
X86723400Y-85698619D01*
X88104352Y-84793857D02*
X88056733Y-84746238D01*
X87913876Y-84698619D01*
X87818638Y-84698619D01*
X87675780Y-84746238D01*
X87580542Y-84841476D01*
X87532923Y-84936714D01*
X87485304Y-85127190D01*
X87485304Y-85270047D01*
X87532923Y-85460523D01*
X87580542Y-85555761D01*
X87675780Y-85651000D01*
X87818638Y-85698619D01*
X87913876Y-85698619D01*
X88056733Y-85651000D01*
X88104352Y-85603380D01*
X88818638Y-85698619D02*
X88818638Y-84984333D01*
X88771019Y-84841476D01*
X88675780Y-84746238D01*
X88532923Y-84698619D01*
X88437685Y-84698619D01*
X89771019Y-84698619D02*
X89294828Y-84698619D01*
X89294828Y-85698619D01*
X90675780Y-84793857D02*
X90628161Y-84746238D01*
X90485304Y-84698619D01*
X90390066Y-84698619D01*
X90247209Y-84746238D01*
X90151971Y-84841476D01*
X90104352Y-84936714D01*
X90056733Y-85127190D01*
X90056733Y-85270047D01*
X90104352Y-85460523D01*
X90151971Y-85555761D01*
X90247209Y-85651000D01*
X90390066Y-85698619D01*
X90485304Y-85698619D01*
X90628161Y-85651000D01*
X90675780Y-85603380D01*
X82030952Y-87221428D02*
X81269047Y-87221428D01*
X81650000Y-87602380D02*
X81650000Y-86840476D01*
D12*
X94566666Y-84176190D02*
X94566666Y-84533333D01*
X94590476Y-84604761D01*
X94638095Y-84652380D01*
X94709523Y-84676190D01*
X94757142Y-84676190D01*
X94376190Y-84176190D02*
X94042857Y-84176190D01*
X94257142Y-84676190D01*
X110330952Y-115476190D02*
X110045238Y-115476190D01*
X110188095Y-115976190D02*
X110188095Y-115476190D01*
X109640476Y-115476190D02*
X109878571Y-115476190D01*
X109902380Y-115714285D01*
X109878571Y-115690476D01*
X109830952Y-115666666D01*
X109711904Y-115666666D01*
X109664285Y-115690476D01*
X109640476Y-115714285D01*
X109616666Y-115761904D01*
X109616666Y-115880952D01*
X109640476Y-115928571D01*
X109664285Y-115952380D01*
X109711904Y-115976190D01*
X109830952Y-115976190D01*
X109878571Y-115952380D01*
X109902380Y-115928571D01*
X110337952Y-91376190D02*
X110052238Y-91376190D01*
X110195095Y-91876190D02*
X110195095Y-91376190D01*
X109814142Y-91590476D02*
X109861761Y-91566666D01*
X109885571Y-91542857D01*
X109909380Y-91495238D01*
X109909380Y-91471428D01*
X109885571Y-91423809D01*
X109861761Y-91400000D01*
X109814142Y-91376190D01*
X109718904Y-91376190D01*
X109671285Y-91400000D01*
X109647476Y-91423809D01*
X109623666Y-91471428D01*
X109623666Y-91495238D01*
X109647476Y-91542857D01*
X109671285Y-91566666D01*
X109718904Y-91590476D01*
X109814142Y-91590476D01*
X109861761Y-91614285D01*
X109885571Y-91638095D01*
X109909380Y-91685714D01*
X109909380Y-91780952D01*
X109885571Y-91828571D01*
X109861761Y-91852380D01*
X109814142Y-91876190D01*
X109718904Y-91876190D01*
X109671285Y-91852380D01*
X109647476Y-91828571D01*
X109623666Y-91780952D01*
X109623666Y-91685714D01*
X109647476Y-91638095D01*
X109671285Y-91614285D01*
X109718904Y-91590476D01*
X110337952Y-107476190D02*
X110052238Y-107476190D01*
X110195095Y-107976190D02*
X110195095Y-107476190D01*
X109671285Y-107476190D02*
X109766523Y-107476190D01*
X109814142Y-107500000D01*
X109837952Y-107523809D01*
X109885571Y-107595238D01*
X109909380Y-107690476D01*
X109909380Y-107880952D01*
X109885571Y-107928571D01*
X109861761Y-107952380D01*
X109814142Y-107976190D01*
X109718904Y-107976190D01*
X109671285Y-107952380D01*
X109647476Y-107928571D01*
X109623666Y-107880952D01*
X109623666Y-107761904D01*
X109647476Y-107714285D01*
X109671285Y-107690476D01*
X109718904Y-107666666D01*
X109814142Y-107666666D01*
X109861761Y-107690476D01*
X109885571Y-107714285D01*
X109909380Y-107761904D01*
X79066666Y-124076190D02*
X79066666Y-124433333D01*
X79090476Y-124504761D01*
X79138095Y-124552380D01*
X79209523Y-124576190D01*
X79257142Y-124576190D01*
X78876190Y-124076190D02*
X78566666Y-124076190D01*
X78733333Y-124266666D01*
X78661904Y-124266666D01*
X78614285Y-124290476D01*
X78590476Y-124314285D01*
X78566666Y-124361904D01*
X78566666Y-124480952D01*
X78590476Y-124528571D01*
X78614285Y-124552380D01*
X78661904Y-124576190D01*
X78804761Y-124576190D01*
X78852380Y-124552380D01*
X78876190Y-124528571D01*
X110530952Y-103576190D02*
X110245238Y-103576190D01*
X110388095Y-104076190D02*
X110388095Y-103576190D01*
X110102380Y-103623809D02*
X110078571Y-103600000D01*
X110030952Y-103576190D01*
X109911904Y-103576190D01*
X109864285Y-103600000D01*
X109840476Y-103623809D01*
X109816666Y-103671428D01*
X109816666Y-103719047D01*
X109840476Y-103790476D01*
X110126190Y-104076190D01*
X109816666Y-104076190D01*
X110230952Y-111476190D02*
X109945238Y-111476190D01*
X110088095Y-111976190D02*
X110088095Y-111476190D01*
X109826190Y-111476190D02*
X109516666Y-111476190D01*
X109683333Y-111666666D01*
X109611904Y-111666666D01*
X109564285Y-111690476D01*
X109540476Y-111714285D01*
X109516666Y-111761904D01*
X109516666Y-111880952D01*
X109540476Y-111928571D01*
X109564285Y-111952380D01*
X109611904Y-111976190D01*
X109754761Y-111976190D01*
X109802380Y-111952380D01*
X109826190Y-111928571D01*
X99639390Y-100912533D02*
X99996533Y-100912533D01*
X100067961Y-100888723D01*
X100115580Y-100841104D01*
X100139390Y-100769676D01*
X100139390Y-100722057D01*
X99806057Y-101364914D02*
X100139390Y-101364914D01*
X99615580Y-101245866D02*
X99972723Y-101126819D01*
X99972723Y-101436342D01*
X110330952Y-119376190D02*
X110045238Y-119376190D01*
X110188095Y-119876190D02*
X110188095Y-119376190D01*
X109664285Y-119542857D02*
X109664285Y-119876190D01*
X109783333Y-119352380D02*
X109902380Y-119709523D01*
X109592857Y-119709523D01*
X110330952Y-95276190D02*
X110045238Y-95276190D01*
X110188095Y-95776190D02*
X110188095Y-95276190D01*
X109616666Y-95776190D02*
X109902380Y-95776190D01*
X109759523Y-95776190D02*
X109759523Y-95276190D01*
X109807142Y-95347619D01*
X109854761Y-95395238D01*
X109902380Y-95419047D01*
X78716190Y-99433333D02*
X79073333Y-99433333D01*
X79144761Y-99409523D01*
X79192380Y-99361904D01*
X79216190Y-99290476D01*
X79216190Y-99242857D01*
X79216190Y-99933333D02*
X79216190Y-99647619D01*
X79216190Y-99790476D02*
X78716190Y-99790476D01*
X78787619Y-99742857D01*
X78835238Y-99695238D01*
X78859047Y-99647619D01*
X110330952Y-99476190D02*
X110045238Y-99476190D01*
X110188095Y-99976190D02*
X110188095Y-99476190D01*
X109926190Y-99476190D02*
X109592857Y-99476190D01*
X109807142Y-99976190D01*
X90530952Y-83476190D02*
X90530952Y-83880952D01*
X90507142Y-83928571D01*
X90483333Y-83952380D01*
X90435714Y-83976190D01*
X90340476Y-83976190D01*
X90292857Y-83952380D01*
X90269047Y-83928571D01*
X90245238Y-83880952D01*
X90245238Y-83476190D01*
X89745238Y-83976190D02*
X90030952Y-83976190D01*
X89888095Y-83976190D02*
X89888095Y-83476190D01*
X89935714Y-83547619D01*
X89983333Y-83595238D01*
X90030952Y-83619047D01*
X81726190Y-120583333D02*
X82083333Y-120583333D01*
X82154761Y-120559523D01*
X82202380Y-120511904D01*
X82226190Y-120440476D01*
X82226190Y-120392857D01*
X81773809Y-120797619D02*
X81750000Y-120821428D01*
X81726190Y-120869047D01*
X81726190Y-120988095D01*
X81750000Y-121035714D01*
X81773809Y-121059523D01*
X81821428Y-121083333D01*
X81869047Y-121083333D01*
X81940476Y-121059523D01*
X82226190Y-120773809D01*
X82226190Y-121083333D01*
D13*
X91965000Y-88710000D02*
X94290000Y-88710000D01*
X101810000Y-88710000D02*
X101810000Y-91100000D01*
X104135000Y-83490000D02*
X91965000Y-83490000D01*
X104135000Y-87860000D02*
X104135000Y-88710000D01*
X91965000Y-87860000D02*
X91965000Y-88710000D01*
X91965000Y-83490000D02*
X91965000Y-84340000D01*
X104135000Y-84340000D02*
X104135000Y-83490000D01*
X104135000Y-88710000D02*
X101810000Y-88710000D01*
D12*
X120217000Y-116721326D02*
X120217000Y-116211326D01*
X120217000Y-116211326D02*
X113807000Y-116211326D01*
X108807000Y-116211326D02*
X111107000Y-116211326D01*
X113807000Y-116721326D02*
X120217000Y-116721326D01*
X108807000Y-116721326D02*
X111107000Y-116721326D01*
X120217000Y-92819288D02*
X120217000Y-92309288D01*
X108807000Y-92309288D02*
X111107000Y-92309288D01*
X108807000Y-92819288D02*
X111107000Y-92819288D01*
X113807000Y-92819288D02*
X120217000Y-92819288D01*
X120217000Y-92309288D02*
X113807000Y-92309288D01*
X108807000Y-108753980D02*
X111107000Y-108753980D01*
X120217000Y-108753980D02*
X120217000Y-108243980D01*
X108807000Y-108243980D02*
X111107000Y-108243980D01*
X120217000Y-108243980D02*
X113807000Y-108243980D01*
X113807000Y-108753980D02*
X120217000Y-108753980D01*
D13*
X84850000Y-129300000D02*
X82350000Y-129300000D01*
X86200000Y-129300000D02*
X88700000Y-129300000D01*
X82300000Y-125080000D02*
X82300000Y-126080000D01*
X82350000Y-129300000D02*
X82350000Y-128300000D01*
X88700000Y-129300000D02*
X88700000Y-128300000D01*
X84800000Y-125080000D02*
X82300000Y-125080000D01*
D12*
X113807000Y-104770307D02*
X120217000Y-104770307D01*
X108807000Y-104260307D02*
X111107000Y-104260307D01*
X120217000Y-104770307D02*
X120217000Y-104260307D01*
X108807000Y-104770307D02*
X111107000Y-104770307D01*
X120217000Y-104260307D02*
X113807000Y-104260307D01*
X120217000Y-112737653D02*
X120217000Y-112227653D01*
X120217000Y-112227653D02*
X113807000Y-112227653D01*
X108807000Y-112737653D02*
X111107000Y-112737653D01*
X113807000Y-112737653D02*
X120217000Y-112737653D01*
X108807000Y-112227653D02*
X111107000Y-112227653D01*
D13*
X103300000Y-100110000D02*
X103300000Y-99500000D01*
X104000000Y-92600000D02*
X104000000Y-94550000D01*
X101000000Y-94950000D02*
X100500000Y-94950000D01*
X100500000Y-92600000D02*
X104000000Y-92600000D01*
X102000000Y-91990000D02*
X102000000Y-92600000D01*
X100500000Y-95150000D02*
X101000000Y-95150000D01*
X104810000Y-98650000D02*
X104610000Y-98650000D01*
X104000000Y-99500000D02*
X100500000Y-99500000D01*
X103300000Y-91990000D02*
X103300000Y-92600000D01*
X104610000Y-91990000D02*
X104610000Y-100110000D01*
X99890000Y-91990000D02*
X104610000Y-91990000D01*
X100500000Y-99500000D02*
X100500000Y-92600000D01*
X100500000Y-97050000D02*
X101000000Y-97050000D01*
X100500000Y-97150000D02*
X101000000Y-97150000D01*
X104710000Y-98350000D02*
X104710000Y-98650000D01*
X101000000Y-97150000D02*
X101000000Y-96950000D01*
X99890000Y-100110000D02*
X99890000Y-91990000D01*
X104610000Y-98350000D02*
X104810000Y-98350000D01*
X104910000Y-99160000D02*
X104910000Y-100410000D01*
X104810000Y-98350000D02*
X104810000Y-98650000D01*
X101000000Y-95150000D02*
X101000000Y-94950000D01*
X101000000Y-96950000D02*
X100500000Y-96950000D01*
X104000000Y-97550000D02*
X104000000Y-99500000D01*
X104610000Y-97550000D02*
X104000000Y-97550000D01*
X100500000Y-95050000D02*
X101000000Y-95050000D01*
X104910000Y-100410000D02*
X103660000Y-100410000D01*
X104000000Y-94550000D02*
X104610000Y-94550000D01*
X102000000Y-100110000D02*
X102000000Y-99500000D01*
X104610000Y-100110000D02*
X99890000Y-100110000D01*
D12*
X108807000Y-120194999D02*
X111107000Y-120194999D01*
X120217000Y-120704999D02*
X120217000Y-120194999D01*
X113807000Y-120704999D02*
X120217000Y-120704999D01*
X108807000Y-120704999D02*
X111107000Y-120704999D01*
X120217000Y-120194999D02*
X113807000Y-120194999D01*
X108807000Y-96802961D02*
X111107000Y-96802961D01*
X108807000Y-96292961D02*
X111107000Y-96292961D01*
X120217000Y-96292961D02*
X113807000Y-96292961D01*
X113807000Y-96802961D02*
X120217000Y-96802961D01*
X120217000Y-96802961D02*
X120217000Y-96292961D01*
D13*
X87810000Y-101660000D02*
X88290000Y-101660000D01*
X89810000Y-101660000D02*
X90110000Y-101660000D01*
X89810000Y-97540000D02*
X90110000Y-97540000D01*
X80290000Y-96285000D02*
X80290000Y-97540000D01*
X90110000Y-97540000D02*
X90110000Y-101660000D01*
X81810000Y-97540000D02*
X82290000Y-97540000D01*
X79990000Y-97540000D02*
X80290000Y-97540000D01*
X81810000Y-101660000D02*
X82290000Y-101660000D01*
X79990000Y-101660000D02*
X80290000Y-101660000D01*
X87810000Y-97540000D02*
X88290000Y-97540000D01*
X83810000Y-101660000D02*
X84290000Y-101660000D01*
X85810000Y-97540000D02*
X86290000Y-97540000D01*
X83810000Y-97540000D02*
X84290000Y-97540000D01*
X79990000Y-97540000D02*
X79990000Y-101660000D01*
X85810000Y-101660000D02*
X86290000Y-101660000D01*
D12*
X113807000Y-100786634D02*
X120217000Y-100786634D01*
X108807000Y-100276634D02*
X111107000Y-100276634D01*
X120217000Y-100786634D02*
X120217000Y-100276634D01*
X108807000Y-100786634D02*
X111107000Y-100786634D01*
X120217000Y-100276634D02*
X113807000Y-100276634D01*
D13*
X91302200Y-88935600D02*
X91302200Y-91385600D01*
X79032200Y-83205600D02*
X79032200Y-91055600D01*
X91302200Y-91385600D02*
X88972200Y-91385600D01*
X79032200Y-91055600D02*
X90972200Y-91055600D01*
X90972200Y-83205600D02*
X79032200Y-83205600D01*
X90972200Y-91055600D02*
X90972200Y-83205600D01*
X81010000Y-120710000D02*
X81010000Y-119650000D01*
X78950000Y-120710000D02*
X78950000Y-118590000D01*
X72890000Y-120710000D02*
X72890000Y-118590000D01*
X78950000Y-118590000D02*
X72890000Y-118590000D01*
X79950000Y-120710000D02*
X81010000Y-120710000D01*
X78950000Y-120710000D02*
X72890000Y-120710000D01*
%LPC*%
D14*
X112645942Y-125850016D03*
X110245942Y-128250016D03*
X111942998Y-124152960D03*
D15*
X110245942Y-125850016D03*
D14*
X111942998Y-127547072D03*
X108548886Y-124152960D03*
X110245942Y-123450016D03*
X107845942Y-125850016D03*
X108548886Y-127547072D03*
D16*
X97950000Y-114810000D03*
X97950000Y-117350000D03*
X97950000Y-119890000D03*
X97950000Y-122430000D03*
D17*
X97950000Y-124970000D03*
D14*
X75000000Y-84600000D03*
X75000000Y-89400000D03*
D15*
X75000000Y-87000000D03*
D14*
X76697056Y-85302944D03*
X76697056Y-88697056D03*
X77400000Y-87000000D03*
X72600000Y-87000000D03*
X73302944Y-85302944D03*
X73302944Y-88697056D03*
D17*
X102074900Y-102850000D03*
D16*
X102074900Y-105390000D03*
X102074900Y-107930000D03*
X102074900Y-110470000D03*
D17*
X94325000Y-125000000D03*
D16*
X94325000Y-122460000D03*
X94325000Y-119920000D03*
X94325000Y-117380000D03*
X94325000Y-114840000D03*
D14*
X108552944Y-88697056D03*
X111947056Y-85302944D03*
X111947056Y-88697056D03*
X110250000Y-84600000D03*
X108552944Y-85302944D03*
X107850000Y-87000000D03*
X112650000Y-87000000D03*
X110250000Y-89400000D03*
D15*
X110250000Y-87000000D03*
D14*
X72595942Y-125849501D03*
D15*
X74995942Y-125849501D03*
D14*
X74995942Y-128249501D03*
X77395942Y-125849501D03*
X76692998Y-124152445D03*
X76692998Y-127546557D03*
X73298886Y-127546557D03*
X73298886Y-124152445D03*
X74995942Y-123449501D03*
D18*
X101050000Y-88350000D03*
X99050000Y-88350000D03*
X97050000Y-88350000D03*
X95050000Y-88350000D03*
D19*
X92650000Y-86100000D03*
X103450000Y-86100000D03*
D20*
X107457000Y-116466326D03*
X112457000Y-116466326D03*
X107457000Y-92564288D03*
X112457000Y-92564288D03*
X107457000Y-108498980D03*
X112457000Y-108498980D03*
D21*
X83500000Y-128200000D03*
X83500000Y-126200000D03*
X85500000Y-128200000D03*
X85500000Y-126200000D03*
X87500000Y-128200000D03*
X87500000Y-126200000D03*
D20*
X107457000Y-104515307D03*
X112457000Y-104515307D03*
X107457000Y-112482653D03*
X112457000Y-112482653D03*
D22*
X102800000Y-98050000D03*
D23*
X102800000Y-96050000D03*
X102800000Y-94050000D03*
D20*
X107457000Y-120449999D03*
X112457000Y-120449999D03*
X107457000Y-96547961D03*
X112457000Y-96547961D03*
D24*
X81050000Y-97515000D03*
X81050000Y-101685000D03*
X83050000Y-97515000D03*
X83050000Y-101685000D03*
X85050000Y-97515000D03*
X85050000Y-101685000D03*
X87050000Y-97515000D03*
X87050000Y-101685000D03*
X89050000Y-97515000D03*
X89050000Y-101685000D03*
D20*
X107457000Y-100531634D03*
X112457000Y-100531634D03*
D25*
X87552200Y-88935600D03*
D26*
X85012200Y-88935600D03*
X82472200Y-88935600D03*
D27*
X79950000Y-119650000D03*
D28*
X77950000Y-119650000D03*
X75950000Y-119650000D03*
X73950000Y-119650000D03*
M02*
