G04 #@! TF.GenerationSoftware,KiCad,Pcbnew,(6.0.10)*
G04 #@! TF.CreationDate,2023-07-07T16:54:03+02:00*
G04 #@! TF.ProjectId,SprinklerBoardESP32V3,53707269-6e6b-46c6-9572-426f61726445,rev?*
G04 #@! TF.SameCoordinates,Original*
G04 #@! TF.FileFunction,Copper,L3,Inr*
G04 #@! TF.FilePolarity,Positive*
%FSLAX46Y46*%
G04 Gerber Fmt 4.6, Leading zero omitted, Abs format (unit mm)*
G04 Created by KiCad (PCBNEW (6.0.10)) date 2023-07-07 16:54:03*
%MOMM*%
%LPD*%
G01*
G04 APERTURE LIST*
G04 Aperture macros list*
%AMRoundRect*
0 Rectangle with rounded corners*
0 $1 Rounding radius*
0 $2 $3 $4 $5 $6 $7 $8 $9 X,Y pos of 4 corners*
0 Add a 4 corners polygon primitive as box body*
4,1,4,$2,$3,$4,$5,$6,$7,$8,$9,$2,$3,0*
0 Add four circle primitives for the rounded corners*
1,1,$1+$1,$2,$3*
1,1,$1+$1,$4,$5*
1,1,$1+$1,$6,$7*
1,1,$1+$1,$8,$9*
0 Add four rect primitives between the rounded corners*
20,1,$1+$1,$2,$3,$4,$5,0*
20,1,$1+$1,$4,$5,$6,$7,0*
20,1,$1+$1,$6,$7,$8,$9,0*
20,1,$1+$1,$8,$9,$2,$3,0*%
G04 Aperture macros list end*
G04 #@! TA.AperFunction,ComponentPad*
%ADD10C,0.800000*%
G04 #@! TD*
G04 #@! TA.AperFunction,ComponentPad*
%ADD11C,6.400000*%
G04 #@! TD*
G04 #@! TA.AperFunction,ComponentPad*
%ADD12O,1.700000X1.700000*%
G04 #@! TD*
G04 #@! TA.AperFunction,ComponentPad*
%ADD13R,1.700000X1.700000*%
G04 #@! TD*
G04 #@! TA.AperFunction,ComponentPad*
%ADD14C,1.950000*%
G04 #@! TD*
G04 #@! TA.AperFunction,ComponentPad*
%ADD15RoundRect,0.250000X0.625000X-0.350000X0.625000X0.350000X-0.625000X0.350000X-0.625000X-0.350000X0*%
G04 #@! TD*
G04 #@! TA.AperFunction,ComponentPad*
%ADD16O,1.750000X1.200000*%
G04 #@! TD*
G04 #@! TA.AperFunction,ComponentPad*
%ADD17R,1.500000X2.500000*%
G04 #@! TD*
G04 #@! TA.AperFunction,ComponentPad*
%ADD18O,1.500000X2.500000*%
G04 #@! TD*
G04 #@! TA.AperFunction,ComponentPad*
%ADD19R,1.350000X1.350000*%
G04 #@! TD*
G04 #@! TA.AperFunction,ComponentPad*
%ADD20O,1.350000X1.350000*%
G04 #@! TD*
G04 #@! TA.AperFunction,ViaPad*
%ADD21C,0.800000*%
G04 #@! TD*
G04 #@! TA.AperFunction,Conductor*
%ADD22C,1.000000*%
G04 #@! TD*
G04 APERTURE END LIST*
D10*
X112645942Y-125850016D03*
X110245942Y-128250016D03*
X111942998Y-124152960D03*
D11*
X110245942Y-125850016D03*
D10*
X111942998Y-127547072D03*
X108548886Y-124152960D03*
X110245942Y-123450016D03*
X107845942Y-125850016D03*
X108548886Y-127547072D03*
D12*
X97950000Y-114810000D03*
X97950000Y-117350000D03*
X97950000Y-119890000D03*
X97950000Y-122430000D03*
D13*
X97950000Y-124970000D03*
D10*
X75000000Y-84600000D03*
X75000000Y-89400000D03*
D11*
X75000000Y-87000000D03*
D10*
X76697056Y-85302944D03*
X76697056Y-88697056D03*
X77400000Y-87000000D03*
X72600000Y-87000000D03*
X73302944Y-85302944D03*
X73302944Y-88697056D03*
D13*
X102074900Y-102850000D03*
D12*
X102074900Y-105390000D03*
X102074900Y-107930000D03*
X102074900Y-110470000D03*
D13*
X94325000Y-125000000D03*
D12*
X94325000Y-122460000D03*
X94325000Y-119920000D03*
X94325000Y-117380000D03*
X94325000Y-114840000D03*
D10*
X108552944Y-88697056D03*
X111947056Y-85302944D03*
X111947056Y-88697056D03*
X110250000Y-84600000D03*
X108552944Y-85302944D03*
X107850000Y-87000000D03*
X112650000Y-87000000D03*
X110250000Y-89400000D03*
D11*
X110250000Y-87000000D03*
D10*
X72595942Y-125849501D03*
D11*
X74995942Y-125849501D03*
D10*
X74995942Y-128249501D03*
X77395942Y-125849501D03*
X76692998Y-124152445D03*
X76692998Y-127546557D03*
X73298886Y-127546557D03*
X73298886Y-124152445D03*
X74995942Y-123449501D03*
D14*
X107457000Y-116466326D03*
X112457000Y-116466326D03*
X107457000Y-92564288D03*
X112457000Y-92564288D03*
X107457000Y-108498980D03*
X112457000Y-108498980D03*
X107457000Y-104515307D03*
X112457000Y-104515307D03*
X107457000Y-112482653D03*
X112457000Y-112482653D03*
D15*
X102800000Y-98050000D03*
D16*
X102800000Y-96050000D03*
X102800000Y-94050000D03*
D14*
X107457000Y-120449999D03*
X112457000Y-120449999D03*
X107457000Y-96547961D03*
X112457000Y-96547961D03*
X107457000Y-100531634D03*
X112457000Y-100531634D03*
D17*
X87552200Y-88935600D03*
D18*
X85012200Y-88935600D03*
X82472200Y-88935600D03*
D19*
X79950000Y-119650000D03*
D20*
X77950000Y-119650000D03*
X75950000Y-119650000D03*
X73950000Y-119650000D03*
D21*
X79550000Y-88850000D03*
X78400000Y-97300000D03*
X90150000Y-123700000D03*
X92950000Y-88250000D03*
X102750000Y-126050000D03*
X91850000Y-116050000D03*
X92375500Y-91921544D03*
X81600000Y-126900000D03*
X78079500Y-113962299D03*
X99450000Y-84650000D03*
X73937970Y-114917970D03*
X80600000Y-104200000D03*
X72225500Y-117550000D03*
X89200000Y-128200000D03*
X84350999Y-112662320D03*
X78079500Y-115050000D03*
X91950000Y-112450000D03*
X88850000Y-113650000D03*
X87500000Y-114450000D03*
X87600000Y-112400000D03*
X97850000Y-97050000D03*
X90450000Y-107250000D03*
X90450000Y-105850000D03*
X81350000Y-124150000D03*
X89950000Y-91950000D03*
X83250000Y-115100000D03*
X76500000Y-97050000D03*
X78274500Y-107450000D03*
X82200000Y-119750000D03*
X104750000Y-105650000D03*
X104750000Y-125950000D03*
X105254721Y-120306039D03*
X104750000Y-98350000D03*
X104991942Y-112530426D03*
X81850000Y-106450000D03*
X81950000Y-109150000D03*
X83250000Y-109250000D03*
X87050000Y-106750000D03*
X80450000Y-94600000D03*
X77950000Y-94400000D03*
X74250000Y-95650000D03*
X73050000Y-94800000D03*
D22*
X107457000Y-120449999D02*
X112457000Y-120449999D01*
G04 #@! TA.AperFunction,Conductor*
G36*
X78679616Y-83819487D02*
G01*
X78726109Y-83873143D01*
X78736213Y-83943417D01*
X78735747Y-83946033D01*
X78734654Y-83949554D01*
X78733976Y-83955284D01*
X78733975Y-83955288D01*
X78731344Y-83977519D01*
X78711227Y-84147489D01*
X78713096Y-84176000D01*
X78724263Y-84346380D01*
X78725684Y-84351976D01*
X78725685Y-84351981D01*
X78744112Y-84424535D01*
X78773326Y-84539564D01*
X78775743Y-84544807D01*
X78812265Y-84624029D01*
X78856772Y-84720573D01*
X78860105Y-84725289D01*
X78956284Y-84861379D01*
X78971807Y-84883344D01*
X79114578Y-85022425D01*
X79280304Y-85133160D01*
X79285607Y-85135438D01*
X79285610Y-85135440D01*
X79452626Y-85207195D01*
X79463435Y-85211839D01*
X79535516Y-85228149D01*
X79652201Y-85254553D01*
X79652207Y-85254554D01*
X79657838Y-85255828D01*
X79663609Y-85256055D01*
X79663611Y-85256055D01*
X79724556Y-85258449D01*
X79857001Y-85263653D01*
X79956959Y-85249160D01*
X80048535Y-85235883D01*
X80048540Y-85235882D01*
X80054256Y-85235053D01*
X80059728Y-85233195D01*
X80059730Y-85233195D01*
X80237532Y-85172839D01*
X80237534Y-85172838D01*
X80242996Y-85170984D01*
X80416899Y-85073594D01*
X80570143Y-84946143D01*
X80697594Y-84792899D01*
X80794984Y-84618996D01*
X80802102Y-84598029D01*
X80857195Y-84435730D01*
X80857195Y-84435728D01*
X80859053Y-84430256D01*
X80859882Y-84424540D01*
X80859883Y-84424535D01*
X80876918Y-84307039D01*
X80887653Y-84233001D01*
X80889146Y-84176000D01*
X80873709Y-84007997D01*
X80871437Y-83983273D01*
X80871436Y-83983270D01*
X80870908Y-83977519D01*
X80865878Y-83959684D01*
X80866639Y-83888693D01*
X80905661Y-83829382D01*
X80970554Y-83800582D01*
X80987148Y-83799485D01*
X104057546Y-83799485D01*
X104125667Y-83819487D01*
X104172160Y-83873143D01*
X104182673Y-83940293D01*
X104161227Y-84121489D01*
X104163096Y-84150000D01*
X104174263Y-84320380D01*
X104175684Y-84325976D01*
X104175685Y-84325981D01*
X104194112Y-84398535D01*
X104223326Y-84513564D01*
X104225743Y-84518807D01*
X104262265Y-84598029D01*
X104306772Y-84694573D01*
X104421807Y-84857344D01*
X104564578Y-84996425D01*
X104730304Y-85107160D01*
X104735607Y-85109438D01*
X104735610Y-85109440D01*
X104908128Y-85183559D01*
X104913435Y-85185839D01*
X104985516Y-85202149D01*
X105102201Y-85228553D01*
X105102207Y-85228554D01*
X105107838Y-85229828D01*
X105113609Y-85230055D01*
X105113611Y-85230055D01*
X105174556Y-85232449D01*
X105307001Y-85237653D01*
X105406959Y-85223160D01*
X105498535Y-85209883D01*
X105498540Y-85209882D01*
X105504256Y-85209053D01*
X105509728Y-85207195D01*
X105509730Y-85207195D01*
X105687532Y-85146839D01*
X105687534Y-85146838D01*
X105692996Y-85144984D01*
X105866899Y-85047594D01*
X106020143Y-84920143D01*
X106147594Y-84766899D01*
X106244984Y-84592996D01*
X106270549Y-84517686D01*
X106307195Y-84409730D01*
X106307195Y-84409728D01*
X106309053Y-84404256D01*
X106309882Y-84398540D01*
X106309883Y-84398535D01*
X106333131Y-84238191D01*
X106337653Y-84207001D01*
X106339146Y-84150000D01*
X106320908Y-83951519D01*
X106319864Y-83947818D01*
X106327055Y-83877819D01*
X106371341Y-83822328D01*
X106443691Y-83799485D01*
X107953629Y-83799485D01*
X108021750Y-83819487D01*
X108068243Y-83873143D01*
X108078347Y-83943417D01*
X108048853Y-84007997D01*
X108032924Y-84023405D01*
X107778676Y-84229292D01*
X107765124Y-84240266D01*
X107490266Y-84515124D01*
X107488194Y-84517682D01*
X107488191Y-84517686D01*
X107410576Y-84613532D01*
X107245643Y-84817207D01*
X107243848Y-84819970D01*
X107243848Y-84819971D01*
X107077314Y-85076413D01*
X107033938Y-85143206D01*
X107032443Y-85146140D01*
X107032439Y-85146147D01*
X106858966Y-85486607D01*
X106857468Y-85489547D01*
X106718167Y-85852438D01*
X106617562Y-86227901D01*
X106556754Y-86611824D01*
X106536411Y-87000000D01*
X106556754Y-87388176D01*
X106557267Y-87391416D01*
X106557268Y-87391424D01*
X106575333Y-87505477D01*
X106617562Y-87772099D01*
X106718167Y-88147562D01*
X106719352Y-88150650D01*
X106719353Y-88150652D01*
X106758630Y-88252972D01*
X106857468Y-88510453D01*
X106858966Y-88513393D01*
X106991006Y-88772535D01*
X107033938Y-88856794D01*
X107245643Y-89182793D01*
X107490266Y-89484876D01*
X107765124Y-89759734D01*
X108067207Y-90004357D01*
X108069970Y-90006152D01*
X108069971Y-90006152D01*
X108374185Y-90203710D01*
X108393205Y-90216062D01*
X108396139Y-90217557D01*
X108396146Y-90217561D01*
X108693624Y-90369133D01*
X108739547Y-90392532D01*
X109102438Y-90531833D01*
X109477901Y-90632438D01*
X109674137Y-90663519D01*
X109858576Y-90692732D01*
X109858584Y-90692733D01*
X109861824Y-90693246D01*
X110250000Y-90713589D01*
X110638176Y-90693246D01*
X110641416Y-90692733D01*
X110641424Y-90692732D01*
X110825863Y-90663519D01*
X111022099Y-90632438D01*
X111397562Y-90531833D01*
X111760453Y-90392532D01*
X111806376Y-90369133D01*
X112103854Y-90217561D01*
X112103861Y-90217557D01*
X112106795Y-90216062D01*
X112125816Y-90203710D01*
X112430029Y-90006152D01*
X112430030Y-90006152D01*
X112432793Y-90004357D01*
X112734876Y-89759734D01*
X113009734Y-89484876D01*
X113254357Y-89182793D01*
X113466062Y-88856794D01*
X113503042Y-88784217D01*
X113551791Y-88732602D01*
X113620705Y-88715536D01*
X113687907Y-88738437D01*
X113732059Y-88794034D01*
X113741309Y-88841433D01*
X113741042Y-91418774D01*
X113741039Y-91445367D01*
X113721030Y-91513486D01*
X113667369Y-91559973D01*
X113597094Y-91570070D01*
X113532517Y-91540570D01*
X113521846Y-91530154D01*
X113475690Y-91479429D01*
X113475688Y-91479428D01*
X113472212Y-91475607D01*
X113468161Y-91472408D01*
X113468157Y-91472404D01*
X113284825Y-91327617D01*
X113284821Y-91327615D01*
X113280770Y-91324415D01*
X113067205Y-91206521D01*
X113062336Y-91204797D01*
X113062332Y-91204795D01*
X112842127Y-91126816D01*
X112842123Y-91126815D01*
X112837252Y-91125090D01*
X112832159Y-91124183D01*
X112832156Y-91124182D01*
X112602177Y-91083216D01*
X112602171Y-91083215D01*
X112597088Y-91082310D01*
X112517380Y-91081336D01*
X112358332Y-91079393D01*
X112358330Y-91079393D01*
X112353162Y-91079330D01*
X112112024Y-91116229D01*
X111880150Y-91192017D01*
X111663769Y-91304658D01*
X111659636Y-91307761D01*
X111659633Y-91307763D01*
X111472825Y-91448023D01*
X111468690Y-91451128D01*
X111465118Y-91454866D01*
X111364676Y-91559973D01*
X111300153Y-91627492D01*
X111297239Y-91631764D01*
X111297238Y-91631765D01*
X111277719Y-91660379D01*
X111162684Y-91829014D01*
X111145705Y-91865593D01*
X111103477Y-91956565D01*
X111059974Y-92050283D01*
X110994783Y-92285355D01*
X110968860Y-92527919D01*
X110969157Y-92533071D01*
X110969157Y-92533075D01*
X110980558Y-92730787D01*
X110982903Y-92771459D01*
X110984040Y-92776505D01*
X110984041Y-92776511D01*
X111007107Y-92878863D01*
X111036533Y-93009435D01*
X111038475Y-93014217D01*
X111038476Y-93014221D01*
X111102896Y-93172868D01*
X111128311Y-93235457D01*
X111255772Y-93443454D01*
X111415492Y-93627841D01*
X111603183Y-93783665D01*
X111813804Y-93906741D01*
X111818629Y-93908583D01*
X111818630Y-93908584D01*
X111851495Y-93921134D01*
X112041698Y-93993766D01*
X112046764Y-93994797D01*
X112046765Y-93994797D01*
X112275667Y-94041368D01*
X112275671Y-94041368D01*
X112280746Y-94042401D01*
X112285922Y-94042591D01*
X112285924Y-94042591D01*
X112519363Y-94051151D01*
X112519367Y-94051151D01*
X112524527Y-94051340D01*
X112529647Y-94050684D01*
X112529649Y-94050684D01*
X112606377Y-94040855D01*
X112766494Y-94020343D01*
X112771443Y-94018858D01*
X112771449Y-94018857D01*
X112995200Y-93951728D01*
X112995199Y-93951728D01*
X113000150Y-93950243D01*
X113219219Y-93842922D01*
X113223424Y-93839922D01*
X113223430Y-93839919D01*
X113413614Y-93704262D01*
X113413616Y-93704260D01*
X113417818Y-93701263D01*
X113425810Y-93693299D01*
X113525866Y-93593592D01*
X113588238Y-93559676D01*
X113659045Y-93564864D01*
X113715806Y-93607510D01*
X113740500Y-93674074D01*
X113740806Y-93682851D01*
X113740629Y-95393803D01*
X113740625Y-95428585D01*
X113720616Y-95496704D01*
X113666955Y-95543191D01*
X113596680Y-95553288D01*
X113532103Y-95523788D01*
X113521432Y-95513372D01*
X113475690Y-95463102D01*
X113475688Y-95463101D01*
X113472212Y-95459280D01*
X113468161Y-95456081D01*
X113468157Y-95456077D01*
X113284825Y-95311290D01*
X113284821Y-95311288D01*
X113280770Y-95308088D01*
X113067205Y-95190194D01*
X113062336Y-95188470D01*
X113062332Y-95188468D01*
X112842127Y-95110489D01*
X112842123Y-95110488D01*
X112837252Y-95108763D01*
X112832159Y-95107856D01*
X112832156Y-95107855D01*
X112602177Y-95066889D01*
X112602171Y-95066888D01*
X112597088Y-95065983D01*
X112517380Y-95065009D01*
X112358332Y-95063066D01*
X112358330Y-95063066D01*
X112353162Y-95063003D01*
X112112024Y-95099902D01*
X111880150Y-95175690D01*
X111855604Y-95188468D01*
X111698664Y-95270166D01*
X111663769Y-95288331D01*
X111659636Y-95291434D01*
X111659633Y-95291436D01*
X111472825Y-95431696D01*
X111468690Y-95434801D01*
X111300153Y-95611165D01*
X111297239Y-95615437D01*
X111297238Y-95615438D01*
X111269183Y-95656565D01*
X111162684Y-95812687D01*
X111147125Y-95846206D01*
X111065730Y-96021556D01*
X111059974Y-96033956D01*
X110994783Y-96269028D01*
X110968860Y-96511592D01*
X110969157Y-96516744D01*
X110969157Y-96516748D01*
X110978151Y-96672721D01*
X110982903Y-96755132D01*
X110984040Y-96760178D01*
X110984041Y-96760184D01*
X111006477Y-96859738D01*
X111036533Y-96993108D01*
X111038475Y-96997890D01*
X111038476Y-96997894D01*
X111126367Y-97214343D01*
X111128311Y-97219130D01*
X111255772Y-97427127D01*
X111415492Y-97611514D01*
X111603183Y-97767338D01*
X111813804Y-97890414D01*
X112041698Y-97977439D01*
X112046764Y-97978470D01*
X112046765Y-97978470D01*
X112275667Y-98025041D01*
X112275671Y-98025041D01*
X112280746Y-98026074D01*
X112285922Y-98026264D01*
X112285924Y-98026264D01*
X112519363Y-98034824D01*
X112519367Y-98034824D01*
X112524527Y-98035013D01*
X112529647Y-98034357D01*
X112529649Y-98034357D01*
X112606377Y-98024528D01*
X112766494Y-98004016D01*
X112771443Y-98002531D01*
X112771449Y-98002530D01*
X112995200Y-97935401D01*
X112995199Y-97935401D01*
X113000150Y-97933916D01*
X113219219Y-97826595D01*
X113223424Y-97823595D01*
X113223430Y-97823592D01*
X113413614Y-97687935D01*
X113413616Y-97687933D01*
X113417818Y-97684936D01*
X113525453Y-97577676D01*
X113587825Y-97543760D01*
X113658631Y-97548948D01*
X113715393Y-97591594D01*
X113740087Y-97658158D01*
X113740393Y-97666936D01*
X113740225Y-99289264D01*
X113740212Y-99411804D01*
X113720203Y-99479923D01*
X113666542Y-99526410D01*
X113596267Y-99536507D01*
X113531690Y-99507007D01*
X113521019Y-99496591D01*
X113475690Y-99446775D01*
X113475688Y-99446774D01*
X113472212Y-99442953D01*
X113468161Y-99439754D01*
X113468157Y-99439750D01*
X113284825Y-99294963D01*
X113284821Y-99294961D01*
X113280770Y-99291761D01*
X113067205Y-99173867D01*
X113062336Y-99172143D01*
X113062332Y-99172141D01*
X112842127Y-99094162D01*
X112842123Y-99094161D01*
X112837252Y-99092436D01*
X112832159Y-99091529D01*
X112832156Y-99091528D01*
X112602177Y-99050562D01*
X112602171Y-99050561D01*
X112597088Y-99049656D01*
X112517380Y-99048682D01*
X112358332Y-99046739D01*
X112358330Y-99046739D01*
X112353162Y-99046676D01*
X112112024Y-99083575D01*
X111880150Y-99159363D01*
X111663769Y-99272004D01*
X111659636Y-99275107D01*
X111659633Y-99275109D01*
X111472825Y-99415369D01*
X111468690Y-99418474D01*
X111300153Y-99594838D01*
X111297239Y-99599110D01*
X111297238Y-99599111D01*
X111277719Y-99627725D01*
X111162684Y-99796360D01*
X111059974Y-100017629D01*
X110994783Y-100252701D01*
X110968860Y-100495265D01*
X110969157Y-100500417D01*
X110969157Y-100500421D01*
X110980558Y-100698133D01*
X110982903Y-100738805D01*
X110984040Y-100743851D01*
X110984041Y-100743857D01*
X111007107Y-100846209D01*
X111036533Y-100976781D01*
X111038475Y-100981563D01*
X111038476Y-100981567D01*
X111126367Y-101198016D01*
X111128311Y-101202803D01*
X111255772Y-101410800D01*
X111415492Y-101595187D01*
X111507542Y-101671608D01*
X111597279Y-101746109D01*
X111603183Y-101751011D01*
X111813804Y-101874087D01*
X112041698Y-101961112D01*
X112046764Y-101962143D01*
X112046765Y-101962143D01*
X112275667Y-102008714D01*
X112275671Y-102008714D01*
X112280746Y-102009747D01*
X112285922Y-102009937D01*
X112285924Y-102009937D01*
X112519363Y-102018497D01*
X112519367Y-102018497D01*
X112524527Y-102018686D01*
X112529647Y-102018030D01*
X112529649Y-102018030D01*
X112606377Y-102008201D01*
X112766494Y-101987689D01*
X112771443Y-101986204D01*
X112771449Y-101986203D01*
X112995200Y-101919074D01*
X112995199Y-101919074D01*
X113000150Y-101917589D01*
X113219219Y-101810268D01*
X113223424Y-101807268D01*
X113223430Y-101807265D01*
X113413614Y-101671608D01*
X113413616Y-101671606D01*
X113417818Y-101668609D01*
X113421475Y-101664965D01*
X113525039Y-101561762D01*
X113587411Y-101527846D01*
X113658218Y-101533034D01*
X113714979Y-101575680D01*
X113739673Y-101642244D01*
X113739979Y-101651026D01*
X113739798Y-103395023D01*
X113719789Y-103463142D01*
X113666128Y-103509629D01*
X113595853Y-103519726D01*
X113531276Y-103490226D01*
X113520612Y-103479817D01*
X113472212Y-103426626D01*
X113468161Y-103423427D01*
X113468157Y-103423423D01*
X113284825Y-103278636D01*
X113284821Y-103278634D01*
X113280770Y-103275434D01*
X113067205Y-103157540D01*
X113062336Y-103155816D01*
X113062332Y-103155814D01*
X112842127Y-103077835D01*
X112842123Y-103077834D01*
X112837252Y-103076109D01*
X112832159Y-103075202D01*
X112832156Y-103075201D01*
X112602177Y-103034235D01*
X112602171Y-103034234D01*
X112597088Y-103033329D01*
X112517380Y-103032355D01*
X112358332Y-103030412D01*
X112358330Y-103030412D01*
X112353162Y-103030349D01*
X112112024Y-103067248D01*
X111880150Y-103143036D01*
X111663769Y-103255677D01*
X111659636Y-103258780D01*
X111659633Y-103258782D01*
X111563174Y-103331206D01*
X111468690Y-103402147D01*
X111465118Y-103405885D01*
X111350291Y-103526045D01*
X111300153Y-103578511D01*
X111297239Y-103582783D01*
X111297238Y-103582784D01*
X111277719Y-103611398D01*
X111162684Y-103780033D01*
X111145705Y-103816612D01*
X111081982Y-103953891D01*
X111059974Y-104001302D01*
X110994783Y-104236374D01*
X110968860Y-104478938D01*
X110969157Y-104484090D01*
X110969157Y-104484094D01*
X110980558Y-104681806D01*
X110982903Y-104722478D01*
X110984040Y-104727524D01*
X110984041Y-104727530D01*
X111007107Y-104829882D01*
X111036533Y-104960454D01*
X111038475Y-104965236D01*
X111038476Y-104965240D01*
X111122081Y-105171134D01*
X111128311Y-105186476D01*
X111255772Y-105394473D01*
X111415492Y-105578860D01*
X111603183Y-105734684D01*
X111813804Y-105857760D01*
X111818629Y-105859602D01*
X111818630Y-105859603D01*
X111875202Y-105881206D01*
X112041698Y-105944785D01*
X112046764Y-105945816D01*
X112046765Y-105945816D01*
X112275667Y-105992387D01*
X112275671Y-105992387D01*
X112280746Y-105993420D01*
X112285922Y-105993610D01*
X112285924Y-105993610D01*
X112519363Y-106002170D01*
X112519367Y-106002170D01*
X112524527Y-106002359D01*
X112529647Y-106001703D01*
X112529649Y-106001703D01*
X112606377Y-105991874D01*
X112766494Y-105971362D01*
X112771443Y-105969877D01*
X112771449Y-105969876D01*
X112995200Y-105902747D01*
X112995199Y-105902747D01*
X113000150Y-105901262D01*
X113219219Y-105793941D01*
X113223424Y-105790941D01*
X113223430Y-105790938D01*
X113413614Y-105655281D01*
X113413616Y-105655279D01*
X113417818Y-105652282D01*
X113524626Y-105545846D01*
X113586998Y-105511930D01*
X113657804Y-105517118D01*
X113714566Y-105559764D01*
X113739260Y-105626328D01*
X113739566Y-105635107D01*
X113739395Y-107285840D01*
X113739385Y-107378241D01*
X113719376Y-107446360D01*
X113665715Y-107492847D01*
X113595440Y-107502944D01*
X113530863Y-107473444D01*
X113520192Y-107463028D01*
X113475690Y-107414121D01*
X113475688Y-107414120D01*
X113472212Y-107410299D01*
X113468161Y-107407100D01*
X113468157Y-107407096D01*
X113284825Y-107262309D01*
X113284821Y-107262307D01*
X113280770Y-107259107D01*
X113271146Y-107253794D01*
X113224759Y-107228187D01*
X113067205Y-107141213D01*
X113062336Y-107139489D01*
X113062332Y-107139487D01*
X112842127Y-107061508D01*
X112842123Y-107061507D01*
X112837252Y-107059782D01*
X112832159Y-107058875D01*
X112832156Y-107058874D01*
X112602177Y-107017908D01*
X112602171Y-107017907D01*
X112597088Y-107017002D01*
X112517380Y-107016028D01*
X112358332Y-107014085D01*
X112358330Y-107014085D01*
X112353162Y-107014022D01*
X112112024Y-107050921D01*
X111880150Y-107126709D01*
X111663769Y-107239350D01*
X111659636Y-107242453D01*
X111659633Y-107242455D01*
X111478784Y-107378241D01*
X111468690Y-107385820D01*
X111300153Y-107562184D01*
X111297239Y-107566456D01*
X111297238Y-107566457D01*
X111263368Y-107616109D01*
X111162684Y-107763706D01*
X111145705Y-107800285D01*
X111083931Y-107933365D01*
X111059974Y-107984975D01*
X110994783Y-108220047D01*
X110968860Y-108462611D01*
X110969157Y-108467763D01*
X110969157Y-108467767D01*
X110975401Y-108576045D01*
X110982903Y-108706151D01*
X110984040Y-108711197D01*
X110984041Y-108711203D01*
X111007107Y-108813555D01*
X111036533Y-108944127D01*
X111038475Y-108948909D01*
X111038476Y-108948913D01*
X111120129Y-109150000D01*
X111128311Y-109170149D01*
X111255772Y-109378146D01*
X111415492Y-109562533D01*
X111603183Y-109718357D01*
X111813804Y-109841433D01*
X112041698Y-109928458D01*
X112046764Y-109929489D01*
X112046765Y-109929489D01*
X112275667Y-109976060D01*
X112275671Y-109976060D01*
X112280746Y-109977093D01*
X112285922Y-109977283D01*
X112285924Y-109977283D01*
X112519363Y-109985843D01*
X112519367Y-109985843D01*
X112524527Y-109986032D01*
X112529647Y-109985376D01*
X112529649Y-109985376D01*
X112606377Y-109975547D01*
X112766494Y-109955035D01*
X112771443Y-109953550D01*
X112771449Y-109953549D01*
X112995200Y-109886420D01*
X112995199Y-109886420D01*
X113000150Y-109884935D01*
X113219219Y-109777614D01*
X113223424Y-109774614D01*
X113223430Y-109774611D01*
X113413614Y-109638954D01*
X113413616Y-109638952D01*
X113417818Y-109635955D01*
X113524211Y-109529932D01*
X113586584Y-109496016D01*
X113657391Y-109501204D01*
X113714152Y-109543850D01*
X113738846Y-109610414D01*
X113739152Y-109619196D01*
X113738971Y-111361460D01*
X113718962Y-111429579D01*
X113665301Y-111476066D01*
X113595026Y-111486163D01*
X113530449Y-111456663D01*
X113519784Y-111446253D01*
X113472212Y-111393972D01*
X113468161Y-111390773D01*
X113468157Y-111390769D01*
X113284825Y-111245982D01*
X113284821Y-111245980D01*
X113280770Y-111242780D01*
X113067205Y-111124886D01*
X113062336Y-111123162D01*
X113062332Y-111123160D01*
X112842127Y-111045181D01*
X112842123Y-111045180D01*
X112837252Y-111043455D01*
X112832159Y-111042548D01*
X112832156Y-111042547D01*
X112602177Y-111001581D01*
X112602171Y-111001580D01*
X112597088Y-111000675D01*
X112517380Y-110999701D01*
X112358332Y-110997758D01*
X112358330Y-110997758D01*
X112353162Y-110997695D01*
X112112024Y-111034594D01*
X111880150Y-111110382D01*
X111663769Y-111223023D01*
X111659636Y-111226126D01*
X111659633Y-111226128D01*
X111472825Y-111366388D01*
X111468690Y-111369493D01*
X111465118Y-111373231D01*
X111304317Y-111541500D01*
X111300153Y-111545857D01*
X111297239Y-111550129D01*
X111297238Y-111550130D01*
X111224884Y-111656197D01*
X111162684Y-111747379D01*
X111147513Y-111780062D01*
X111083125Y-111918774D01*
X111059974Y-111968648D01*
X110994783Y-112203720D01*
X110968860Y-112446284D01*
X110969157Y-112451436D01*
X110969157Y-112451440D01*
X110976764Y-112583365D01*
X110982903Y-112689824D01*
X110984040Y-112694870D01*
X110984041Y-112694876D01*
X111012590Y-112821556D01*
X111036533Y-112927800D01*
X111038475Y-112932582D01*
X111038476Y-112932586D01*
X111114079Y-113118774D01*
X111128311Y-113153822D01*
X111255772Y-113361819D01*
X111415492Y-113546206D01*
X111603183Y-113702030D01*
X111813804Y-113825106D01*
X111818629Y-113826948D01*
X111818630Y-113826949D01*
X111860797Y-113843051D01*
X112041698Y-113912131D01*
X112046764Y-113913162D01*
X112046765Y-113913162D01*
X112275667Y-113959733D01*
X112275671Y-113959733D01*
X112280746Y-113960766D01*
X112285922Y-113960956D01*
X112285924Y-113960956D01*
X112519363Y-113969516D01*
X112519367Y-113969516D01*
X112524527Y-113969705D01*
X112529647Y-113969049D01*
X112529649Y-113969049D01*
X112628302Y-113956411D01*
X112766494Y-113938708D01*
X112771443Y-113937223D01*
X112771449Y-113937222D01*
X112995200Y-113870093D01*
X112995199Y-113870093D01*
X113000150Y-113868608D01*
X113219219Y-113761287D01*
X113223424Y-113758287D01*
X113223430Y-113758284D01*
X113413614Y-113622627D01*
X113413616Y-113622625D01*
X113417818Y-113619628D01*
X113523799Y-113514016D01*
X113586171Y-113480100D01*
X113656977Y-113485288D01*
X113713739Y-113527934D01*
X113738433Y-113594497D01*
X113738739Y-113603280D01*
X113738558Y-115344679D01*
X113718549Y-115412798D01*
X113664888Y-115459285D01*
X113594613Y-115469382D01*
X113530036Y-115439882D01*
X113519370Y-115429471D01*
X113472212Y-115377645D01*
X113468161Y-115374446D01*
X113468157Y-115374442D01*
X113284825Y-115229655D01*
X113284821Y-115229653D01*
X113280770Y-115226453D01*
X113273474Y-115222425D01*
X113224759Y-115195533D01*
X113067205Y-115108559D01*
X113062336Y-115106835D01*
X113062332Y-115106833D01*
X112842127Y-115028854D01*
X112842123Y-115028853D01*
X112837252Y-115027128D01*
X112832159Y-115026221D01*
X112832156Y-115026220D01*
X112602177Y-114985254D01*
X112602171Y-114985253D01*
X112597088Y-114984348D01*
X112517380Y-114983374D01*
X112358332Y-114981431D01*
X112358330Y-114981431D01*
X112353162Y-114981368D01*
X112112024Y-115018267D01*
X111880150Y-115094055D01*
X111663769Y-115206696D01*
X111659636Y-115209799D01*
X111659633Y-115209801D01*
X111472825Y-115350061D01*
X111468690Y-115353166D01*
X111403335Y-115421556D01*
X111321265Y-115507438D01*
X111300153Y-115529530D01*
X111297239Y-115533802D01*
X111297238Y-115533803D01*
X111230781Y-115631226D01*
X111162684Y-115731052D01*
X111139949Y-115780031D01*
X111073433Y-115923327D01*
X111059974Y-115952321D01*
X110994783Y-116187393D01*
X110968860Y-116429957D01*
X110969157Y-116435109D01*
X110969157Y-116435113D01*
X110975933Y-116552617D01*
X110982903Y-116673497D01*
X110984040Y-116678543D01*
X110984041Y-116678549D01*
X111007107Y-116780901D01*
X111036533Y-116911473D01*
X111038475Y-116916255D01*
X111038476Y-116916259D01*
X111126367Y-117132708D01*
X111128311Y-117137495D01*
X111255772Y-117345492D01*
X111415492Y-117529879D01*
X111603183Y-117685703D01*
X111813804Y-117808779D01*
X112041698Y-117895804D01*
X112046764Y-117896835D01*
X112046765Y-117896835D01*
X112275667Y-117943406D01*
X112275671Y-117943406D01*
X112280746Y-117944439D01*
X112285922Y-117944629D01*
X112285924Y-117944629D01*
X112519363Y-117953189D01*
X112519367Y-117953189D01*
X112524527Y-117953378D01*
X112529647Y-117952722D01*
X112529649Y-117952722D01*
X112606377Y-117942893D01*
X112766494Y-117922381D01*
X112771443Y-117920896D01*
X112771449Y-117920895D01*
X112995200Y-117853766D01*
X112995199Y-117853766D01*
X113000150Y-117852281D01*
X113219219Y-117744960D01*
X113223424Y-117741960D01*
X113223430Y-117741957D01*
X113413614Y-117606300D01*
X113413616Y-117606298D01*
X113417818Y-117603301D01*
X113523385Y-117498102D01*
X113585757Y-117464186D01*
X113656564Y-117469374D01*
X113713325Y-117512020D01*
X113738019Y-117578584D01*
X113738325Y-117587366D01*
X113738308Y-117752596D01*
X113738147Y-119309995D01*
X113738145Y-119327897D01*
X113718136Y-119396016D01*
X113664475Y-119442503D01*
X113594200Y-119452600D01*
X113529623Y-119423100D01*
X113518952Y-119412684D01*
X113482837Y-119372995D01*
X113472212Y-119361318D01*
X113468161Y-119358119D01*
X113468157Y-119358115D01*
X113284825Y-119213328D01*
X113284821Y-119213326D01*
X113280770Y-119210126D01*
X113263643Y-119200671D01*
X113224759Y-119179206D01*
X113067205Y-119092232D01*
X113062336Y-119090508D01*
X113062332Y-119090506D01*
X112842127Y-119012527D01*
X112842123Y-119012526D01*
X112837252Y-119010801D01*
X112832159Y-119009894D01*
X112832156Y-119009893D01*
X112602177Y-118968927D01*
X112602171Y-118968926D01*
X112597088Y-118968021D01*
X112517380Y-118967047D01*
X112358332Y-118965104D01*
X112358330Y-118965104D01*
X112353162Y-118965041D01*
X112112024Y-119001940D01*
X111880150Y-119077728D01*
X111663769Y-119190369D01*
X111659636Y-119193472D01*
X111659633Y-119193474D01*
X111472825Y-119333734D01*
X111468690Y-119336839D01*
X111465118Y-119340577D01*
X111405895Y-119402550D01*
X111344370Y-119437980D01*
X111314801Y-119441499D01*
X108600876Y-119441499D01*
X108532755Y-119421497D01*
X108507683Y-119400299D01*
X108475694Y-119365143D01*
X108475684Y-119365134D01*
X108472212Y-119361318D01*
X108468161Y-119358119D01*
X108468157Y-119358115D01*
X108284825Y-119213328D01*
X108284821Y-119213326D01*
X108280770Y-119210126D01*
X108263643Y-119200671D01*
X108224759Y-119179206D01*
X108067205Y-119092232D01*
X108062336Y-119090508D01*
X108062332Y-119090506D01*
X107842127Y-119012527D01*
X107842123Y-119012526D01*
X107837252Y-119010801D01*
X107832159Y-119009894D01*
X107832156Y-119009893D01*
X107602177Y-118968927D01*
X107602171Y-118968926D01*
X107597088Y-118968021D01*
X107517380Y-118967047D01*
X107358332Y-118965104D01*
X107358330Y-118965104D01*
X107353162Y-118965041D01*
X107112024Y-119001940D01*
X106880150Y-119077728D01*
X106663769Y-119190369D01*
X106659636Y-119193472D01*
X106659633Y-119193474D01*
X106472825Y-119333734D01*
X106468690Y-119336839D01*
X106465118Y-119340577D01*
X106364418Y-119445954D01*
X106300153Y-119513203D01*
X106297239Y-119517475D01*
X106297238Y-119517476D01*
X106272464Y-119553794D01*
X106162684Y-119714725D01*
X106162096Y-119714324D01*
X106113950Y-119760875D01*
X106044332Y-119774797D01*
X105978238Y-119748870D01*
X105961806Y-119733605D01*
X105865974Y-119627173D01*
X105711473Y-119514921D01*
X105705445Y-119512237D01*
X105705443Y-119512236D01*
X105543040Y-119439930D01*
X105543039Y-119439930D01*
X105537009Y-119437245D01*
X105443608Y-119417392D01*
X105356665Y-119398911D01*
X105356660Y-119398911D01*
X105350208Y-119397539D01*
X105159234Y-119397539D01*
X105152782Y-119398911D01*
X105152777Y-119398911D01*
X105065834Y-119417392D01*
X104972433Y-119437245D01*
X104966403Y-119439930D01*
X104966402Y-119439930D01*
X104803999Y-119512236D01*
X104803997Y-119512237D01*
X104797969Y-119514921D01*
X104643468Y-119627173D01*
X104639047Y-119632083D01*
X104639046Y-119632084D01*
X104533892Y-119748870D01*
X104515681Y-119769095D01*
X104512380Y-119774813D01*
X104443934Y-119893365D01*
X104420194Y-119934483D01*
X104361179Y-120116111D01*
X104360489Y-120122672D01*
X104360489Y-120122674D01*
X104347212Y-120249001D01*
X104341217Y-120306039D01*
X104341907Y-120312604D01*
X104354535Y-120432749D01*
X104361179Y-120495967D01*
X104420194Y-120677595D01*
X104423497Y-120683317D01*
X104423498Y-120683318D01*
X104431292Y-120696817D01*
X104515681Y-120842983D01*
X104520099Y-120847890D01*
X104520100Y-120847891D01*
X104638730Y-120979643D01*
X104643468Y-120984905D01*
X104672097Y-121005705D01*
X104789352Y-121090896D01*
X104797969Y-121097157D01*
X104803997Y-121099841D01*
X104803999Y-121099842D01*
X104966402Y-121172148D01*
X104972433Y-121174833D01*
X105052242Y-121191797D01*
X105152777Y-121213167D01*
X105152782Y-121213167D01*
X105159234Y-121214539D01*
X105350208Y-121214539D01*
X105356660Y-121213167D01*
X105356665Y-121213167D01*
X105457200Y-121191797D01*
X105537009Y-121174833D01*
X105543040Y-121172148D01*
X105705443Y-121099842D01*
X105705445Y-121099841D01*
X105711473Y-121097157D01*
X105720091Y-121090896D01*
X105837345Y-121005705D01*
X105865974Y-120984905D01*
X105873980Y-120976013D01*
X105934426Y-120938775D01*
X106005410Y-120940128D01*
X106064394Y-120979643D01*
X106084357Y-121012921D01*
X106128311Y-121121168D01*
X106255772Y-121329165D01*
X106415492Y-121513552D01*
X106603183Y-121669376D01*
X106813804Y-121792452D01*
X106818629Y-121794294D01*
X106818630Y-121794295D01*
X106921763Y-121833678D01*
X107041698Y-121879477D01*
X107046764Y-121880508D01*
X107046765Y-121880508D01*
X107275667Y-121927079D01*
X107275671Y-121927079D01*
X107280746Y-121928112D01*
X107285922Y-121928302D01*
X107285924Y-121928302D01*
X107519363Y-121936862D01*
X107519367Y-121936862D01*
X107524527Y-121937051D01*
X107529647Y-121936395D01*
X107529649Y-121936395D01*
X107606377Y-121926566D01*
X107766494Y-121906054D01*
X107771443Y-121904569D01*
X107771449Y-121904568D01*
X107995200Y-121837439D01*
X107995199Y-121837439D01*
X108000150Y-121835954D01*
X108219219Y-121728633D01*
X108223424Y-121725633D01*
X108223430Y-121725630D01*
X108413614Y-121589973D01*
X108413616Y-121589971D01*
X108417818Y-121586974D01*
X108509865Y-121495248D01*
X108572237Y-121461332D01*
X108598805Y-121458499D01*
X111310249Y-121458499D01*
X111378370Y-121478501D01*
X111405486Y-121502001D01*
X111412106Y-121509644D01*
X111412111Y-121509649D01*
X111415492Y-121513552D01*
X111603183Y-121669376D01*
X111813804Y-121792452D01*
X111818629Y-121794294D01*
X111818630Y-121794295D01*
X111921763Y-121833678D01*
X112041698Y-121879477D01*
X112046764Y-121880508D01*
X112046765Y-121880508D01*
X112275667Y-121927079D01*
X112275671Y-121927079D01*
X112280746Y-121928112D01*
X112285922Y-121928302D01*
X112285924Y-121928302D01*
X112519363Y-121936862D01*
X112519367Y-121936862D01*
X112524527Y-121937051D01*
X112529647Y-121936395D01*
X112529649Y-121936395D01*
X112606377Y-121926566D01*
X112766494Y-121906054D01*
X112771443Y-121904569D01*
X112771449Y-121904568D01*
X112995200Y-121837439D01*
X112995199Y-121837439D01*
X113000150Y-121835954D01*
X113219219Y-121728633D01*
X113223424Y-121725633D01*
X113223430Y-121725630D01*
X113413614Y-121589973D01*
X113413616Y-121589971D01*
X113417818Y-121586974D01*
X113522973Y-121482186D01*
X113585343Y-121448270D01*
X113656150Y-121453458D01*
X113712912Y-121496104D01*
X113737606Y-121562667D01*
X113737912Y-121571450D01*
X113737659Y-124009410D01*
X113717650Y-124077529D01*
X113663989Y-124124016D01*
X113593714Y-124134113D01*
X113529137Y-124104613D01*
X113499392Y-124066600D01*
X113463503Y-123996163D01*
X113463499Y-123996156D01*
X113462004Y-123993222D01*
X113459872Y-123989938D01*
X113252094Y-123669987D01*
X113252094Y-123669986D01*
X113250299Y-123667223D01*
X113114957Y-123500090D01*
X113007751Y-123367702D01*
X113007748Y-123367698D01*
X113005676Y-123365140D01*
X112730818Y-123090282D01*
X112725332Y-123085839D01*
X112572170Y-122961811D01*
X112428735Y-122845659D01*
X112224364Y-122712939D01*
X112105506Y-122635752D01*
X112105503Y-122635750D01*
X112102737Y-122633954D01*
X112099803Y-122632459D01*
X112099796Y-122632455D01*
X111759335Y-122458982D01*
X111756395Y-122457484D01*
X111393504Y-122318183D01*
X111018041Y-122217578D01*
X110814149Y-122185284D01*
X110637366Y-122157284D01*
X110637358Y-122157283D01*
X110634118Y-122156770D01*
X110245942Y-122136427D01*
X109857766Y-122156770D01*
X109854526Y-122157283D01*
X109854518Y-122157284D01*
X109677735Y-122185284D01*
X109473843Y-122217578D01*
X109098380Y-122318183D01*
X108735489Y-122457484D01*
X108732549Y-122458982D01*
X108392089Y-122632455D01*
X108392082Y-122632459D01*
X108389148Y-122633954D01*
X108386382Y-122635750D01*
X108386379Y-122635752D01*
X108251993Y-122723023D01*
X108063149Y-122845659D01*
X107919714Y-122961811D01*
X107766553Y-123085839D01*
X107761066Y-123090282D01*
X107486208Y-123365140D01*
X107484136Y-123367698D01*
X107484133Y-123367702D01*
X107376927Y-123500090D01*
X107241585Y-123667223D01*
X107239790Y-123669986D01*
X107239790Y-123669987D01*
X107032013Y-123989938D01*
X107029880Y-123993222D01*
X107028385Y-123996156D01*
X107028381Y-123996163D01*
X106963237Y-124124016D01*
X106853410Y-124339563D01*
X106714109Y-124702454D01*
X106613504Y-125077917D01*
X106600066Y-125162763D01*
X106560423Y-125413056D01*
X106552696Y-125461840D01*
X106532353Y-125850016D01*
X106552696Y-126238192D01*
X106553209Y-126241432D01*
X106553210Y-126241440D01*
X106570242Y-126348971D01*
X106613504Y-126622115D01*
X106714109Y-126997578D01*
X106853410Y-127360469D01*
X106854908Y-127363409D01*
X107010500Y-127668774D01*
X107029880Y-127706810D01*
X107031676Y-127709576D01*
X107031678Y-127709579D01*
X107239456Y-128029530D01*
X107241585Y-128032809D01*
X107486208Y-128334892D01*
X107761066Y-128609750D01*
X107763624Y-128611822D01*
X107763628Y-128611825D01*
X107864833Y-128693779D01*
X108063149Y-128854373D01*
X108065912Y-128856168D01*
X108065913Y-128856168D01*
X108350566Y-129041023D01*
X108389147Y-129066078D01*
X108392081Y-129067573D01*
X108392088Y-129067577D01*
X108706244Y-129227647D01*
X108735489Y-129242548D01*
X108743052Y-129245451D01*
X108985741Y-129338611D01*
X109042170Y-129381697D01*
X109066346Y-129448450D01*
X109050595Y-129517678D01*
X108999917Y-129567399D01*
X108939693Y-129582239D01*
X81871155Y-129390264D01*
X81803178Y-129369779D01*
X81757067Y-129315795D01*
X81747462Y-129245451D01*
X81776238Y-129182437D01*
X81802113Y-129152142D01*
X81802121Y-129152130D01*
X81805328Y-129148376D01*
X81937616Y-128932502D01*
X81958225Y-128882749D01*
X82032611Y-128703164D01*
X82032612Y-128703162D01*
X82034505Y-128698591D01*
X82054821Y-128613968D01*
X82092454Y-128457216D01*
X82092455Y-128457210D01*
X82093609Y-128452403D01*
X82113474Y-128200000D01*
X88286496Y-128200000D01*
X88287186Y-128206565D01*
X88300674Y-128334892D01*
X88306458Y-128389928D01*
X88365473Y-128571556D01*
X88460960Y-128736944D01*
X88465378Y-128741851D01*
X88465379Y-128741852D01*
X88491935Y-128771345D01*
X88588747Y-128878866D01*
X88743248Y-128991118D01*
X88749276Y-128993802D01*
X88749278Y-128993803D01*
X88911681Y-129066109D01*
X88917712Y-129068794D01*
X89011113Y-129088647D01*
X89098056Y-129107128D01*
X89098061Y-129107128D01*
X89104513Y-129108500D01*
X89295487Y-129108500D01*
X89301939Y-129107128D01*
X89301944Y-129107128D01*
X89388887Y-129088647D01*
X89482288Y-129068794D01*
X89488319Y-129066109D01*
X89650722Y-128993803D01*
X89650724Y-128993802D01*
X89656752Y-128991118D01*
X89811253Y-128878866D01*
X89908065Y-128771345D01*
X89934621Y-128741852D01*
X89934622Y-128741851D01*
X89939040Y-128736944D01*
X90034527Y-128571556D01*
X90093542Y-128389928D01*
X90099327Y-128334892D01*
X90112814Y-128206565D01*
X90113504Y-128200000D01*
X90093542Y-128010072D01*
X90073750Y-127949158D01*
X90071723Y-127878190D01*
X90108385Y-127817392D01*
X90172097Y-127786067D01*
X90222997Y-127787703D01*
X90242784Y-127792454D01*
X90242790Y-127792455D01*
X90247597Y-127793609D01*
X90500000Y-127813474D01*
X90752403Y-127793609D01*
X90757210Y-127792455D01*
X90757216Y-127792454D01*
X90913968Y-127754821D01*
X90998591Y-127734505D01*
X91003164Y-127732611D01*
X91227928Y-127639511D01*
X91227932Y-127639509D01*
X91232502Y-127637616D01*
X91448376Y-127505328D01*
X91640898Y-127340898D01*
X91805328Y-127148376D01*
X91937616Y-126932502D01*
X91954356Y-126892090D01*
X92032611Y-126703164D01*
X92032612Y-126703162D01*
X92034505Y-126698591D01*
X92061409Y-126586526D01*
X92092454Y-126457216D01*
X92092455Y-126457210D01*
X92093609Y-126452403D01*
X92113474Y-126200000D01*
X92093609Y-125947597D01*
X92089461Y-125930316D01*
X92035660Y-125706221D01*
X92034505Y-125701409D01*
X92028846Y-125687746D01*
X91939511Y-125472072D01*
X91939509Y-125472068D01*
X91937616Y-125467498D01*
X91805328Y-125251624D01*
X91640898Y-125059102D01*
X91448376Y-124894672D01*
X91232502Y-124762384D01*
X91227932Y-124760491D01*
X91227928Y-124760489D01*
X91003164Y-124667389D01*
X91003162Y-124667388D01*
X90998591Y-124665495D01*
X90913968Y-124645179D01*
X90757216Y-124607546D01*
X90757210Y-124607545D01*
X90752403Y-124606391D01*
X90500000Y-124586526D01*
X90247597Y-124606391D01*
X90242790Y-124607545D01*
X90242784Y-124607546D01*
X90086032Y-124645179D01*
X90001409Y-124665495D01*
X89996838Y-124667388D01*
X89996836Y-124667389D01*
X89772072Y-124760489D01*
X89772068Y-124760491D01*
X89767498Y-124762384D01*
X89551624Y-124894672D01*
X89359102Y-125059102D01*
X89194672Y-125251624D01*
X89062384Y-125467498D01*
X89060491Y-125472068D01*
X89060489Y-125472072D01*
X88971154Y-125687746D01*
X88965495Y-125701409D01*
X88964340Y-125706221D01*
X88910540Y-125930316D01*
X88906391Y-125947597D01*
X88886526Y-126200000D01*
X88906391Y-126452403D01*
X88907545Y-126457210D01*
X88907546Y-126457216D01*
X88938591Y-126586526D01*
X88965495Y-126698591D01*
X88967388Y-126703162D01*
X88967389Y-126703164D01*
X89045645Y-126892090D01*
X89062384Y-126932502D01*
X89064970Y-126936722D01*
X89168726Y-127106036D01*
X89187264Y-127174570D01*
X89165808Y-127242246D01*
X89111169Y-127287579D01*
X89087490Y-127295118D01*
X89016785Y-127310147D01*
X88917712Y-127331206D01*
X88911682Y-127333891D01*
X88911681Y-127333891D01*
X88749278Y-127406197D01*
X88749276Y-127406198D01*
X88743248Y-127408882D01*
X88588747Y-127521134D01*
X88460960Y-127663056D01*
X88365473Y-127828444D01*
X88306458Y-128010072D01*
X88286496Y-128200000D01*
X82113474Y-128200000D01*
X82093609Y-127947597D01*
X82083203Y-127904250D01*
X82042728Y-127735660D01*
X82034505Y-127701409D01*
X82007010Y-127635030D01*
X81939511Y-127472072D01*
X81939509Y-127472068D01*
X81937616Y-127467498D01*
X81805328Y-127251624D01*
X81640898Y-127059102D01*
X81448376Y-126894672D01*
X81232502Y-126762384D01*
X81227932Y-126760491D01*
X81227928Y-126760489D01*
X81003164Y-126667389D01*
X81003162Y-126667388D01*
X80998591Y-126665495D01*
X80913968Y-126645179D01*
X80757216Y-126607546D01*
X80757210Y-126607545D01*
X80752403Y-126606391D01*
X80500000Y-126586526D01*
X80247597Y-126606391D01*
X80242790Y-126607545D01*
X80242784Y-126607546D01*
X80086032Y-126645179D01*
X80001409Y-126665495D01*
X79996838Y-126667388D01*
X79996836Y-126667389D01*
X79772072Y-126760489D01*
X79772068Y-126760491D01*
X79767498Y-126762384D01*
X79551624Y-126894672D01*
X79359102Y-127059102D01*
X79194672Y-127251624D01*
X79062384Y-127467498D01*
X79060491Y-127472068D01*
X79060489Y-127472072D01*
X78992990Y-127635030D01*
X78965495Y-127701409D01*
X78957272Y-127735660D01*
X78916798Y-127904250D01*
X78906391Y-127947597D01*
X78886526Y-128200000D01*
X78906391Y-128452403D01*
X78907545Y-128457210D01*
X78907546Y-128457216D01*
X78945179Y-128613968D01*
X78965495Y-128698591D01*
X78967388Y-128703162D01*
X78967389Y-128703164D01*
X79041776Y-128882749D01*
X79062384Y-128932502D01*
X79194672Y-129148376D01*
X79197885Y-129152138D01*
X79197888Y-129152142D01*
X79207039Y-129162857D01*
X79236070Y-129227647D01*
X79225465Y-129297847D01*
X79178590Y-129351169D01*
X79110336Y-129370684D01*
X76809854Y-129354368D01*
X76741877Y-129333883D01*
X76695766Y-129279899D01*
X76686161Y-129209555D01*
X76716111Y-129145185D01*
X76753545Y-129116104D01*
X76849796Y-129067062D01*
X76849803Y-129067058D01*
X76852737Y-129065563D01*
X76890526Y-129041023D01*
X77175971Y-128855653D01*
X77175972Y-128855653D01*
X77178735Y-128853858D01*
X77376415Y-128693779D01*
X77478256Y-128611310D01*
X77478260Y-128611307D01*
X77480818Y-128609235D01*
X77755676Y-128334377D01*
X78000299Y-128032294D01*
X78100375Y-127878190D01*
X78210206Y-127709064D01*
X78210208Y-127709061D01*
X78212004Y-127706295D01*
X78221456Y-127687746D01*
X78386976Y-127362894D01*
X78388474Y-127359954D01*
X78502519Y-127062858D01*
X78526589Y-127000153D01*
X78526590Y-127000151D01*
X78527775Y-126997063D01*
X78628380Y-126621600D01*
X78674803Y-126328500D01*
X78688674Y-126240925D01*
X78688675Y-126240917D01*
X78689188Y-126237677D01*
X78709531Y-125849501D01*
X78689188Y-125461325D01*
X78628380Y-125077402D01*
X78527775Y-124701939D01*
X78514513Y-124667389D01*
X78456120Y-124515271D01*
X78388474Y-124339048D01*
X78292149Y-124150000D01*
X80436496Y-124150000D01*
X80456458Y-124339928D01*
X80515473Y-124521556D01*
X80610960Y-124686944D01*
X80615378Y-124691851D01*
X80615379Y-124691852D01*
X80627799Y-124705646D01*
X80738747Y-124828866D01*
X80893248Y-124941118D01*
X80899276Y-124943802D01*
X80899278Y-124943803D01*
X81061681Y-125016109D01*
X81067712Y-125018794D01*
X81161113Y-125038647D01*
X81248056Y-125057128D01*
X81248061Y-125057128D01*
X81254513Y-125058500D01*
X81445487Y-125058500D01*
X81451939Y-125057128D01*
X81451944Y-125057128D01*
X81538887Y-125038647D01*
X81632288Y-125018794D01*
X81638319Y-125016109D01*
X81800722Y-124943803D01*
X81800724Y-124943802D01*
X81806752Y-124941118D01*
X81961253Y-124828866D01*
X82072201Y-124705646D01*
X82084621Y-124691852D01*
X82084622Y-124691851D01*
X82089040Y-124686944D01*
X82184527Y-124521556D01*
X82243542Y-124339928D01*
X82263504Y-124150000D01*
X82260025Y-124116896D01*
X82244232Y-123966635D01*
X82244232Y-123966633D01*
X82243542Y-123960072D01*
X82184527Y-123778444D01*
X82089040Y-123613056D01*
X82061364Y-123582318D01*
X81965675Y-123476045D01*
X81965674Y-123476044D01*
X81961253Y-123471134D01*
X81818183Y-123367187D01*
X81812094Y-123362763D01*
X81812093Y-123362762D01*
X81806752Y-123358882D01*
X81800724Y-123356198D01*
X81800722Y-123356197D01*
X81638319Y-123283891D01*
X81638318Y-123283891D01*
X81632288Y-123281206D01*
X81535764Y-123260689D01*
X81451944Y-123242872D01*
X81451939Y-123242872D01*
X81445487Y-123241500D01*
X81254513Y-123241500D01*
X81248061Y-123242872D01*
X81248056Y-123242872D01*
X81164236Y-123260689D01*
X81067712Y-123281206D01*
X81061682Y-123283891D01*
X81061681Y-123283891D01*
X80899278Y-123356197D01*
X80899276Y-123356198D01*
X80893248Y-123358882D01*
X80887907Y-123362762D01*
X80887906Y-123362763D01*
X80881817Y-123367187D01*
X80738747Y-123471134D01*
X80734326Y-123476044D01*
X80734325Y-123476045D01*
X80638637Y-123582318D01*
X80610960Y-123613056D01*
X80515473Y-123778444D01*
X80456458Y-123960072D01*
X80455768Y-123966633D01*
X80455768Y-123966635D01*
X80439975Y-124116896D01*
X80436496Y-124150000D01*
X78292149Y-124150000D01*
X78283977Y-124133962D01*
X78213503Y-123995648D01*
X78213499Y-123995641D01*
X78212004Y-123992707D01*
X78134458Y-123873295D01*
X78002094Y-123669472D01*
X78002094Y-123669471D01*
X78000299Y-123666708D01*
X77865374Y-123500090D01*
X77757751Y-123367187D01*
X77757748Y-123367183D01*
X77755676Y-123364625D01*
X77480818Y-123089767D01*
X77475968Y-123085839D01*
X77181297Y-122847219D01*
X77178735Y-122845144D01*
X76975157Y-122712939D01*
X76855506Y-122635237D01*
X76855503Y-122635235D01*
X76852737Y-122633439D01*
X76849803Y-122631944D01*
X76849796Y-122631940D01*
X76509335Y-122458467D01*
X76506395Y-122456969D01*
X76427529Y-122426695D01*
X92962251Y-122426695D01*
X92962548Y-122431848D01*
X92962548Y-122431851D01*
X92974085Y-122631940D01*
X92975110Y-122649715D01*
X92976247Y-122654761D01*
X92976248Y-122654767D01*
X92989358Y-122712939D01*
X93024222Y-122867639D01*
X93062461Y-122961811D01*
X93097873Y-123049020D01*
X93108266Y-123074616D01*
X93224987Y-123265088D01*
X93371250Y-123433938D01*
X93375230Y-123437242D01*
X93379981Y-123441187D01*
X93419616Y-123500090D01*
X93421113Y-123571071D01*
X93383997Y-123631593D01*
X93343725Y-123656112D01*
X93247751Y-123692091D01*
X93228295Y-123699385D01*
X93111739Y-123786739D01*
X93024385Y-123903295D01*
X92973255Y-124039684D01*
X92966500Y-124101866D01*
X92966500Y-125898134D01*
X92973255Y-125960316D01*
X93024385Y-126096705D01*
X93111739Y-126213261D01*
X93228295Y-126300615D01*
X93364684Y-126351745D01*
X93426866Y-126358500D01*
X95223134Y-126358500D01*
X95285316Y-126351745D01*
X95421705Y-126300615D01*
X95538261Y-126213261D01*
X95625615Y-126096705D01*
X95676745Y-125960316D01*
X95683500Y-125898134D01*
X95683500Y-124101866D01*
X95676745Y-124039684D01*
X95625615Y-123903295D01*
X95538261Y-123786739D01*
X95421705Y-123699385D01*
X95409132Y-123694672D01*
X95303203Y-123654960D01*
X95246439Y-123612318D01*
X95221739Y-123545756D01*
X95236947Y-123476408D01*
X95258493Y-123447727D01*
X95343714Y-123362803D01*
X95363096Y-123343489D01*
X95408837Y-123279834D01*
X95490435Y-123166277D01*
X95493453Y-123162077D01*
X95509130Y-123130358D01*
X95590136Y-122966453D01*
X95590137Y-122966451D01*
X95592430Y-122961811D01*
X95657370Y-122748069D01*
X95686529Y-122526590D01*
X95688156Y-122460000D01*
X95682951Y-122396695D01*
X96587251Y-122396695D01*
X96587548Y-122401848D01*
X96587548Y-122401851D01*
X96594932Y-122529908D01*
X96600110Y-122619715D01*
X96601247Y-122624761D01*
X96601248Y-122624767D01*
X96608009Y-122654767D01*
X96649222Y-122837639D01*
X96733266Y-123044616D01*
X96849987Y-123235088D01*
X96996250Y-123403938D01*
X97000230Y-123407242D01*
X97004981Y-123411187D01*
X97044616Y-123470090D01*
X97046113Y-123541071D01*
X97008997Y-123601593D01*
X96968724Y-123626112D01*
X96853295Y-123669385D01*
X96736739Y-123756739D01*
X96649385Y-123873295D01*
X96598255Y-124009684D01*
X96591500Y-124071866D01*
X96591500Y-125868134D01*
X96598255Y-125930316D01*
X96649385Y-126066705D01*
X96736739Y-126183261D01*
X96853295Y-126270615D01*
X96989684Y-126321745D01*
X97051866Y-126328500D01*
X98848134Y-126328500D01*
X98910316Y-126321745D01*
X99046705Y-126270615D01*
X99163261Y-126183261D01*
X99250615Y-126066705D01*
X99294366Y-125950000D01*
X103836496Y-125950000D01*
X103837186Y-125956565D01*
X103848428Y-126063522D01*
X103856458Y-126139928D01*
X103915473Y-126321556D01*
X104010960Y-126486944D01*
X104138747Y-126628866D01*
X104293248Y-126741118D01*
X104299276Y-126743802D01*
X104299278Y-126743803D01*
X104361139Y-126771345D01*
X104467712Y-126818794D01*
X104561113Y-126838647D01*
X104648056Y-126857128D01*
X104648061Y-126857128D01*
X104654513Y-126858500D01*
X104845487Y-126858500D01*
X104851939Y-126857128D01*
X104851944Y-126857128D01*
X104938887Y-126838647D01*
X105032288Y-126818794D01*
X105138861Y-126771345D01*
X105200722Y-126743803D01*
X105200724Y-126743802D01*
X105206752Y-126741118D01*
X105361253Y-126628866D01*
X105489040Y-126486944D01*
X105584527Y-126321556D01*
X105643542Y-126139928D01*
X105651573Y-126063522D01*
X105662814Y-125956565D01*
X105663504Y-125950000D01*
X105652941Y-125849501D01*
X105644232Y-125766635D01*
X105644232Y-125766633D01*
X105643542Y-125760072D01*
X105584527Y-125578444D01*
X105489040Y-125413056D01*
X105361253Y-125271134D01*
X105206752Y-125158882D01*
X105200724Y-125156198D01*
X105200722Y-125156197D01*
X105038319Y-125083891D01*
X105038318Y-125083891D01*
X105032288Y-125081206D01*
X104938887Y-125061353D01*
X104851944Y-125042872D01*
X104851939Y-125042872D01*
X104845487Y-125041500D01*
X104654513Y-125041500D01*
X104648061Y-125042872D01*
X104648056Y-125042872D01*
X104561113Y-125061353D01*
X104467712Y-125081206D01*
X104461682Y-125083891D01*
X104461681Y-125083891D01*
X104299278Y-125156197D01*
X104299276Y-125156198D01*
X104293248Y-125158882D01*
X104138747Y-125271134D01*
X104010960Y-125413056D01*
X103915473Y-125578444D01*
X103856458Y-125760072D01*
X103855768Y-125766633D01*
X103855768Y-125766635D01*
X103847059Y-125849501D01*
X103836496Y-125950000D01*
X99294366Y-125950000D01*
X99301745Y-125930316D01*
X99308500Y-125868134D01*
X99308500Y-124071866D01*
X99301745Y-124009684D01*
X99250615Y-123873295D01*
X99163261Y-123756739D01*
X99046705Y-123669385D01*
X99032730Y-123664146D01*
X98928203Y-123624960D01*
X98871439Y-123582318D01*
X98846739Y-123515756D01*
X98861947Y-123446408D01*
X98883493Y-123417727D01*
X98938609Y-123362803D01*
X98988096Y-123313489D01*
X99012280Y-123279834D01*
X99115435Y-123136277D01*
X99118453Y-123132077D01*
X99124597Y-123119647D01*
X99215136Y-122936453D01*
X99215137Y-122936451D01*
X99217430Y-122931811D01*
X99282370Y-122718069D01*
X99311529Y-122496590D01*
X99312448Y-122458982D01*
X99313074Y-122433365D01*
X99313074Y-122433361D01*
X99313156Y-122430000D01*
X99294852Y-122207361D01*
X99240431Y-121990702D01*
X99151354Y-121785840D01*
X99030014Y-121598277D01*
X98879670Y-121433051D01*
X98875619Y-121429852D01*
X98875615Y-121429848D01*
X98708414Y-121297800D01*
X98708410Y-121297798D01*
X98704359Y-121294598D01*
X98663053Y-121271796D01*
X98613084Y-121221364D01*
X98598312Y-121151921D01*
X98623428Y-121085516D01*
X98650780Y-121058909D01*
X98715251Y-121012922D01*
X98829860Y-120931173D01*
X98988096Y-120773489D01*
X99022876Y-120725088D01*
X99115435Y-120596277D01*
X99118453Y-120592077D01*
X99127540Y-120573692D01*
X99215136Y-120396453D01*
X99215137Y-120396451D01*
X99217430Y-120391811D01*
X99282370Y-120178069D01*
X99311529Y-119956590D01*
X99312069Y-119934483D01*
X99313074Y-119893365D01*
X99313074Y-119893361D01*
X99313156Y-119890000D01*
X99294852Y-119667361D01*
X99240431Y-119450702D01*
X99151354Y-119245840D01*
X99052230Y-119092617D01*
X99032822Y-119062617D01*
X99032820Y-119062614D01*
X99030014Y-119058277D01*
X98879670Y-118893051D01*
X98875619Y-118889852D01*
X98875615Y-118889848D01*
X98708414Y-118757800D01*
X98708410Y-118757798D01*
X98704359Y-118754598D01*
X98663053Y-118731796D01*
X98613084Y-118681364D01*
X98598312Y-118611921D01*
X98623428Y-118545516D01*
X98650780Y-118518909D01*
X98694603Y-118487650D01*
X98829860Y-118391173D01*
X98988096Y-118233489D01*
X99022876Y-118185088D01*
X99115435Y-118056277D01*
X99118453Y-118052077D01*
X99182553Y-117922381D01*
X99215136Y-117856453D01*
X99215137Y-117856451D01*
X99217430Y-117851811D01*
X99282370Y-117638069D01*
X99311529Y-117416590D01*
X99312910Y-117360072D01*
X99313074Y-117353365D01*
X99313074Y-117353361D01*
X99313156Y-117350000D01*
X99294852Y-117127361D01*
X99240431Y-116910702D01*
X99151354Y-116705840D01*
X99030014Y-116518277D01*
X98949649Y-116429957D01*
X105968860Y-116429957D01*
X105969157Y-116435109D01*
X105969157Y-116435113D01*
X105975933Y-116552617D01*
X105982903Y-116673497D01*
X105984040Y-116678543D01*
X105984041Y-116678549D01*
X106007107Y-116780901D01*
X106036533Y-116911473D01*
X106038475Y-116916255D01*
X106038476Y-116916259D01*
X106126367Y-117132708D01*
X106128311Y-117137495D01*
X106255772Y-117345492D01*
X106415492Y-117529879D01*
X106603183Y-117685703D01*
X106813804Y-117808779D01*
X107041698Y-117895804D01*
X107046764Y-117896835D01*
X107046765Y-117896835D01*
X107275667Y-117943406D01*
X107275671Y-117943406D01*
X107280746Y-117944439D01*
X107285922Y-117944629D01*
X107285924Y-117944629D01*
X107519363Y-117953189D01*
X107519367Y-117953189D01*
X107524527Y-117953378D01*
X107529647Y-117952722D01*
X107529649Y-117952722D01*
X107606377Y-117942893D01*
X107766494Y-117922381D01*
X107771443Y-117920896D01*
X107771449Y-117920895D01*
X107995200Y-117853766D01*
X107995199Y-117853766D01*
X108000150Y-117852281D01*
X108219219Y-117744960D01*
X108223424Y-117741960D01*
X108223430Y-117741957D01*
X108413614Y-117606300D01*
X108413616Y-117606298D01*
X108417818Y-117603301D01*
X108590614Y-117431107D01*
X108732966Y-117233003D01*
X108756825Y-117184729D01*
X108838756Y-117018952D01*
X108838757Y-117018950D01*
X108841050Y-117014310D01*
X108872529Y-116910702D01*
X108910462Y-116785853D01*
X108910463Y-116785847D01*
X108911966Y-116780901D01*
X108942020Y-116552617D01*
X108943370Y-116542364D01*
X108943370Y-116542360D01*
X108943807Y-116539043D01*
X108944116Y-116526411D01*
X108945502Y-116469691D01*
X108945502Y-116469687D01*
X108945584Y-116466326D01*
X108925596Y-116223202D01*
X108866167Y-115986606D01*
X108777527Y-115782749D01*
X108770954Y-115767631D01*
X108770952Y-115767628D01*
X108768894Y-115762894D01*
X108636390Y-115558074D01*
X108555687Y-115469382D01*
X108475690Y-115381467D01*
X108475688Y-115381466D01*
X108472212Y-115377645D01*
X108468161Y-115374446D01*
X108468157Y-115374442D01*
X108284825Y-115229655D01*
X108284821Y-115229653D01*
X108280770Y-115226453D01*
X108273474Y-115222425D01*
X108224759Y-115195533D01*
X108067205Y-115108559D01*
X108062336Y-115106835D01*
X108062332Y-115106833D01*
X107842127Y-115028854D01*
X107842123Y-115028853D01*
X107837252Y-115027128D01*
X107832159Y-115026221D01*
X107832156Y-115026220D01*
X107602177Y-114985254D01*
X107602171Y-114985253D01*
X107597088Y-114984348D01*
X107517380Y-114983374D01*
X107358332Y-114981431D01*
X107358330Y-114981431D01*
X107353162Y-114981368D01*
X107112024Y-115018267D01*
X106880150Y-115094055D01*
X106663769Y-115206696D01*
X106659636Y-115209799D01*
X106659633Y-115209801D01*
X106472825Y-115350061D01*
X106468690Y-115353166D01*
X106403335Y-115421556D01*
X106321265Y-115507438D01*
X106300153Y-115529530D01*
X106297239Y-115533802D01*
X106297238Y-115533803D01*
X106230781Y-115631226D01*
X106162684Y-115731052D01*
X106139949Y-115780031D01*
X106073433Y-115923327D01*
X106059974Y-115952321D01*
X105994783Y-116187393D01*
X105968860Y-116429957D01*
X98949649Y-116429957D01*
X98879670Y-116353051D01*
X98875619Y-116349852D01*
X98875615Y-116349848D01*
X98708414Y-116217800D01*
X98708410Y-116217798D01*
X98704359Y-116214598D01*
X98663053Y-116191796D01*
X98613084Y-116141364D01*
X98598312Y-116071921D01*
X98623428Y-116005516D01*
X98650780Y-115978909D01*
X98694631Y-115947630D01*
X98829860Y-115851173D01*
X98988096Y-115693489D01*
X99022876Y-115645088D01*
X99115435Y-115516277D01*
X99118453Y-115512077D01*
X99144545Y-115459285D01*
X99215136Y-115316453D01*
X99215137Y-115316451D01*
X99217430Y-115311811D01*
X99282370Y-115098069D01*
X99311529Y-114876590D01*
X99313156Y-114810000D01*
X99294852Y-114587361D01*
X99240431Y-114370702D01*
X99151354Y-114165840D01*
X99061715Y-114027279D01*
X99032822Y-113982617D01*
X99032820Y-113982614D01*
X99030014Y-113978277D01*
X98879670Y-113813051D01*
X98875619Y-113809852D01*
X98875615Y-113809848D01*
X98708414Y-113677800D01*
X98708410Y-113677798D01*
X98704359Y-113674598D01*
X98675890Y-113658882D01*
X98610213Y-113622627D01*
X98508789Y-113566638D01*
X98503920Y-113564914D01*
X98503916Y-113564912D01*
X98303087Y-113493795D01*
X98303083Y-113493794D01*
X98298212Y-113492069D01*
X98293119Y-113491162D01*
X98293116Y-113491161D01*
X98083373Y-113453800D01*
X98083367Y-113453799D01*
X98078284Y-113452894D01*
X98004452Y-113451992D01*
X97860081Y-113450228D01*
X97860079Y-113450228D01*
X97854911Y-113450165D01*
X97634091Y-113483955D01*
X97421756Y-113553357D01*
X97357371Y-113586874D01*
X97236357Y-113649870D01*
X97223607Y-113656507D01*
X97219474Y-113659610D01*
X97219471Y-113659612D01*
X97064397Y-113776045D01*
X97044965Y-113790635D01*
X96890629Y-113952138D01*
X96887715Y-113956410D01*
X96887714Y-113956411D01*
X96849373Y-114012617D01*
X96764743Y-114136680D01*
X96739300Y-114191492D01*
X96675534Y-114328866D01*
X96670688Y-114339305D01*
X96610989Y-114554570D01*
X96587251Y-114776695D01*
X96587548Y-114781848D01*
X96587548Y-114781851D01*
X96594932Y-114909908D01*
X96600110Y-114999715D01*
X96601247Y-115004761D01*
X96601248Y-115004767D01*
X96623392Y-115103023D01*
X96649222Y-115217639D01*
X96733266Y-115424616D01*
X96849987Y-115615088D01*
X96996250Y-115783938D01*
X97168126Y-115926632D01*
X97204060Y-115947630D01*
X97241445Y-115969476D01*
X97290169Y-116021114D01*
X97303240Y-116090897D01*
X97276509Y-116156669D01*
X97236055Y-116190027D01*
X97223607Y-116196507D01*
X97219474Y-116199610D01*
X97219471Y-116199612D01*
X97155291Y-116247800D01*
X97044965Y-116330635D01*
X97041393Y-116334373D01*
X96915296Y-116466326D01*
X96890629Y-116492138D01*
X96887715Y-116496410D01*
X96887714Y-116496411D01*
X96849373Y-116552617D01*
X96764743Y-116676680D01*
X96670688Y-116879305D01*
X96610989Y-117094570D01*
X96587251Y-117316695D01*
X96587548Y-117321848D01*
X96587548Y-117321851D01*
X96594932Y-117449908D01*
X96600110Y-117539715D01*
X96601247Y-117544761D01*
X96601248Y-117544767D01*
X96614440Y-117603301D01*
X96649222Y-117757639D01*
X96686728Y-117850005D01*
X96724654Y-117943406D01*
X96733266Y-117964616D01*
X96849987Y-118155088D01*
X96996250Y-118323938D01*
X97168126Y-118466632D01*
X97213809Y-118493327D01*
X97241445Y-118509476D01*
X97290169Y-118561114D01*
X97303240Y-118630897D01*
X97276509Y-118696669D01*
X97236055Y-118730027D01*
X97223607Y-118736507D01*
X97219474Y-118739610D01*
X97219471Y-118739612D01*
X97052891Y-118864684D01*
X97044965Y-118870635D01*
X97041393Y-118874373D01*
X96923134Y-118998124D01*
X96890629Y-119032138D01*
X96887715Y-119036410D01*
X96887714Y-119036411D01*
X96850813Y-119090506D01*
X96764743Y-119216680D01*
X96750818Y-119246680D01*
X96675454Y-119409038D01*
X96670688Y-119419305D01*
X96610989Y-119634570D01*
X96587251Y-119856695D01*
X96587548Y-119861848D01*
X96587548Y-119861851D01*
X96594932Y-119989908D01*
X96600110Y-120079715D01*
X96601247Y-120084761D01*
X96601248Y-120084767D01*
X96606897Y-120109833D01*
X96649222Y-120297639D01*
X96733266Y-120504616D01*
X96757280Y-120543803D01*
X96841404Y-120681081D01*
X96849987Y-120695088D01*
X96996250Y-120863938D01*
X97117030Y-120964211D01*
X97156509Y-120996987D01*
X97168126Y-121006632D01*
X97213809Y-121033327D01*
X97241445Y-121049476D01*
X97290169Y-121101114D01*
X97303240Y-121170897D01*
X97276509Y-121236669D01*
X97236055Y-121270027D01*
X97223607Y-121276507D01*
X97219474Y-121279610D01*
X97219471Y-121279612D01*
X97049100Y-121407530D01*
X97044965Y-121410635D01*
X97041393Y-121414373D01*
X96957654Y-121502001D01*
X96890629Y-121572138D01*
X96887715Y-121576410D01*
X96887714Y-121576411D01*
X96849373Y-121632617D01*
X96764743Y-121756680D01*
X96749003Y-121790590D01*
X96681106Y-121936862D01*
X96670688Y-121959305D01*
X96610989Y-122174570D01*
X96587251Y-122396695D01*
X95682951Y-122396695D01*
X95669852Y-122237361D01*
X95615431Y-122020702D01*
X95526354Y-121815840D01*
X95405014Y-121628277D01*
X95254670Y-121463051D01*
X95250619Y-121459852D01*
X95250615Y-121459848D01*
X95083414Y-121327800D01*
X95083410Y-121327798D01*
X95079359Y-121324598D01*
X95038053Y-121301796D01*
X94988084Y-121251364D01*
X94973312Y-121181921D01*
X94998428Y-121115516D01*
X95025780Y-121088909D01*
X95095171Y-121039413D01*
X95204860Y-120961173D01*
X95227337Y-120938775D01*
X95306356Y-120860031D01*
X95363096Y-120803489D01*
X95380861Y-120778767D01*
X95490435Y-120626277D01*
X95493453Y-120622077D01*
X95518027Y-120572356D01*
X95590136Y-120426453D01*
X95590137Y-120426451D01*
X95592430Y-120421811D01*
X95657370Y-120208069D01*
X95686529Y-119986590D01*
X95687802Y-119934483D01*
X95688074Y-119923365D01*
X95688074Y-119923361D01*
X95688156Y-119920000D01*
X95669852Y-119697361D01*
X95615431Y-119480702D01*
X95526354Y-119275840D01*
X95469515Y-119187980D01*
X95407822Y-119092617D01*
X95407820Y-119092614D01*
X95405014Y-119088277D01*
X95254670Y-118923051D01*
X95250619Y-118919852D01*
X95250615Y-118919848D01*
X95083414Y-118787800D01*
X95083410Y-118787798D01*
X95079359Y-118784598D01*
X95038053Y-118761796D01*
X94988084Y-118711364D01*
X94973312Y-118641921D01*
X94998428Y-118575516D01*
X95025780Y-118548909D01*
X95093013Y-118500952D01*
X95204860Y-118421173D01*
X95363096Y-118263489D01*
X95422594Y-118180689D01*
X95490435Y-118086277D01*
X95493453Y-118082077D01*
X95551506Y-117964616D01*
X95590136Y-117886453D01*
X95590137Y-117886451D01*
X95592430Y-117881811D01*
X95634921Y-117741957D01*
X95655865Y-117673023D01*
X95655865Y-117673021D01*
X95657370Y-117668069D01*
X95686529Y-117446590D01*
X95688156Y-117380000D01*
X95669852Y-117157361D01*
X95615431Y-116940702D01*
X95526354Y-116735840D01*
X95405014Y-116548277D01*
X95254670Y-116383051D01*
X95250619Y-116379852D01*
X95250615Y-116379848D01*
X95083414Y-116247800D01*
X95083410Y-116247798D01*
X95079359Y-116244598D01*
X95038053Y-116221796D01*
X94988084Y-116171364D01*
X94973312Y-116101921D01*
X94998428Y-116035516D01*
X95025780Y-116008909D01*
X95085783Y-115966109D01*
X95204860Y-115881173D01*
X95363096Y-115723489D01*
X95422594Y-115640689D01*
X95490435Y-115546277D01*
X95493453Y-115542077D01*
X95497543Y-115533803D01*
X95590136Y-115346453D01*
X95590137Y-115346451D01*
X95592430Y-115341811D01*
X95657370Y-115128069D01*
X95686529Y-114906590D01*
X95688156Y-114840000D01*
X95669852Y-114617361D01*
X95615431Y-114400702D01*
X95526354Y-114195840D01*
X95405014Y-114008277D01*
X95254670Y-113843051D01*
X95250619Y-113839852D01*
X95250615Y-113839848D01*
X95083414Y-113707800D01*
X95083410Y-113707798D01*
X95079359Y-113704598D01*
X94883789Y-113596638D01*
X94878920Y-113594914D01*
X94878916Y-113594912D01*
X94678087Y-113523795D01*
X94678083Y-113523794D01*
X94673212Y-113522069D01*
X94668119Y-113521162D01*
X94668116Y-113521161D01*
X94458373Y-113483800D01*
X94458367Y-113483799D01*
X94453284Y-113482894D01*
X94379452Y-113481992D01*
X94235081Y-113480228D01*
X94235079Y-113480228D01*
X94229911Y-113480165D01*
X94009091Y-113513955D01*
X93796756Y-113583357D01*
X93766443Y-113599137D01*
X93626281Y-113672101D01*
X93598607Y-113686507D01*
X93594474Y-113689610D01*
X93594471Y-113689612D01*
X93424100Y-113817530D01*
X93419965Y-113820635D01*
X93413931Y-113826949D01*
X93269319Y-113978277D01*
X93265629Y-113982138D01*
X93262715Y-113986410D01*
X93262714Y-113986411D01*
X93195646Y-114084729D01*
X93139743Y-114166680D01*
X93124003Y-114200590D01*
X93062657Y-114332749D01*
X93045688Y-114369305D01*
X92985989Y-114584570D01*
X92962251Y-114806695D01*
X92962548Y-114811848D01*
X92962548Y-114811851D01*
X92974405Y-115017485D01*
X92975110Y-115029715D01*
X92976247Y-115034761D01*
X92976248Y-115034767D01*
X92993442Y-115111058D01*
X93024222Y-115247639D01*
X93085673Y-115398976D01*
X93097873Y-115429020D01*
X93108266Y-115454616D01*
X93224987Y-115645088D01*
X93371250Y-115813938D01*
X93543126Y-115956632D01*
X93559344Y-115966109D01*
X93616445Y-115999476D01*
X93665169Y-116051114D01*
X93678240Y-116120897D01*
X93651509Y-116186669D01*
X93611055Y-116220027D01*
X93598607Y-116226507D01*
X93594474Y-116229610D01*
X93594471Y-116229612D01*
X93424100Y-116357530D01*
X93419965Y-116360635D01*
X93416393Y-116364373D01*
X93269319Y-116518277D01*
X93265629Y-116522138D01*
X93139743Y-116706680D01*
X93124003Y-116740590D01*
X93061127Y-116876045D01*
X93045688Y-116909305D01*
X92985989Y-117124570D01*
X92962251Y-117346695D01*
X92962548Y-117351848D01*
X92962548Y-117351851D01*
X92973973Y-117550000D01*
X92975110Y-117569715D01*
X92976247Y-117574761D01*
X92976248Y-117574767D01*
X92982679Y-117603301D01*
X93024222Y-117787639D01*
X93085673Y-117938976D01*
X93097873Y-117969020D01*
X93108266Y-117994616D01*
X93224987Y-118185088D01*
X93371250Y-118353938D01*
X93543126Y-118496632D01*
X93565106Y-118509476D01*
X93616445Y-118539476D01*
X93665169Y-118591114D01*
X93678240Y-118660897D01*
X93651509Y-118726669D01*
X93611055Y-118760027D01*
X93598607Y-118766507D01*
X93594474Y-118769610D01*
X93594471Y-118769612D01*
X93424100Y-118897530D01*
X93419965Y-118900635D01*
X93394898Y-118926866D01*
X93269319Y-119058277D01*
X93265629Y-119062138D01*
X93262715Y-119066410D01*
X93262714Y-119066411D01*
X93179785Y-119187980D01*
X93139743Y-119246680D01*
X93099334Y-119333734D01*
X93050040Y-119439930D01*
X93045688Y-119449305D01*
X92985989Y-119664570D01*
X92962251Y-119886695D01*
X92962548Y-119891848D01*
X92962548Y-119891851D01*
X92974249Y-120094781D01*
X92975110Y-120109715D01*
X92976247Y-120114761D01*
X92976248Y-120114767D01*
X92979068Y-120127279D01*
X93024222Y-120327639D01*
X93067945Y-120435316D01*
X93097873Y-120509020D01*
X93108266Y-120534616D01*
X93143478Y-120592077D01*
X93207663Y-120696817D01*
X93224987Y-120725088D01*
X93371250Y-120893938D01*
X93543126Y-121036632D01*
X93600066Y-121069905D01*
X93616445Y-121079476D01*
X93665169Y-121131114D01*
X93678240Y-121200897D01*
X93651509Y-121266669D01*
X93611055Y-121300027D01*
X93598607Y-121306507D01*
X93594474Y-121309610D01*
X93594471Y-121309612D01*
X93424100Y-121437530D01*
X93419965Y-121440635D01*
X93398544Y-121463051D01*
X93269319Y-121598277D01*
X93265629Y-121602138D01*
X93139743Y-121786680D01*
X93116871Y-121835954D01*
X93048847Y-121982500D01*
X93045688Y-121989305D01*
X92985989Y-122204570D01*
X92962251Y-122426695D01*
X76427529Y-122426695D01*
X76229454Y-122350661D01*
X76146594Y-122318854D01*
X76146592Y-122318853D01*
X76143504Y-122317668D01*
X75768041Y-122217063D01*
X75532187Y-122179707D01*
X75387366Y-122156769D01*
X75387358Y-122156768D01*
X75384118Y-122156255D01*
X74995942Y-122135912D01*
X74607766Y-122156255D01*
X74604526Y-122156768D01*
X74604518Y-122156769D01*
X74459697Y-122179707D01*
X74223843Y-122217063D01*
X73848380Y-122317668D01*
X73845292Y-122318853D01*
X73845290Y-122318854D01*
X73528814Y-122440338D01*
X73458050Y-122446077D01*
X73395417Y-122412647D01*
X73360800Y-122350661D01*
X73361070Y-122304548D01*
X73359053Y-122304256D01*
X73371770Y-122216547D01*
X73387653Y-122107001D01*
X73389146Y-122050000D01*
X73377843Y-121926987D01*
X73371437Y-121857273D01*
X73371436Y-121857270D01*
X73370908Y-121851519D01*
X73366519Y-121835954D01*
X73318373Y-121665244D01*
X73318372Y-121665242D01*
X73316805Y-121659685D01*
X73301317Y-121628277D01*
X73231205Y-121486104D01*
X73228650Y-121480923D01*
X73109393Y-121321219D01*
X72963030Y-121185922D01*
X72958147Y-121182841D01*
X72958143Y-121182838D01*
X72799346Y-121082645D01*
X72799341Y-121082643D01*
X72794462Y-121079564D01*
X72609334Y-121005705D01*
X72413847Y-120966820D01*
X72408072Y-120966744D01*
X72408068Y-120966744D01*
X72308588Y-120965442D01*
X72214547Y-120964211D01*
X72208850Y-120965190D01*
X72208849Y-120965190D01*
X72023805Y-120996987D01*
X72018108Y-120997966D01*
X71831111Y-121066953D01*
X71826149Y-121069905D01*
X71695368Y-121147711D01*
X71626597Y-121165351D01*
X71559207Y-121143010D01*
X71514593Y-121087782D01*
X71504945Y-121039413D01*
X71505093Y-119618887D01*
X72761837Y-119618887D01*
X72776063Y-119835933D01*
X72777484Y-119841529D01*
X72777485Y-119841534D01*
X72814325Y-119986590D01*
X72829605Y-120046753D01*
X72920668Y-120244285D01*
X72924001Y-120249001D01*
X73011730Y-120373134D01*
X73046204Y-120421914D01*
X73202009Y-120573692D01*
X73382863Y-120694536D01*
X73388171Y-120696817D01*
X73388172Y-120696817D01*
X73577409Y-120778119D01*
X73577412Y-120778120D01*
X73582712Y-120780397D01*
X73588342Y-120781671D01*
X73686464Y-120803874D01*
X73794860Y-120828402D01*
X73800631Y-120828629D01*
X73800633Y-120828629D01*
X73873620Y-120831496D01*
X74012205Y-120836941D01*
X74227466Y-120805730D01*
X74232930Y-120803875D01*
X74232935Y-120803874D01*
X74427963Y-120737671D01*
X74427968Y-120737669D01*
X74433435Y-120735813D01*
X74445619Y-120728990D01*
X74512872Y-120691326D01*
X74623213Y-120629532D01*
X74790446Y-120490446D01*
X74850252Y-120418537D01*
X74909189Y-120378953D01*
X74980171Y-120377517D01*
X75042913Y-120417258D01*
X75046204Y-120421914D01*
X75050346Y-120425949D01*
X75050348Y-120425951D01*
X75113597Y-120487565D01*
X75202009Y-120573692D01*
X75382863Y-120694536D01*
X75388171Y-120696817D01*
X75388172Y-120696817D01*
X75577409Y-120778119D01*
X75577412Y-120778120D01*
X75582712Y-120780397D01*
X75588342Y-120781671D01*
X75686464Y-120803874D01*
X75794860Y-120828402D01*
X75800631Y-120828629D01*
X75800633Y-120828629D01*
X75873620Y-120831496D01*
X76012205Y-120836941D01*
X76227466Y-120805730D01*
X76232930Y-120803875D01*
X76232935Y-120803874D01*
X76427963Y-120737671D01*
X76427968Y-120737669D01*
X76433435Y-120735813D01*
X76445619Y-120728990D01*
X76512872Y-120691326D01*
X76623213Y-120629532D01*
X76790446Y-120490446D01*
X76850252Y-120418537D01*
X76909189Y-120378953D01*
X76980171Y-120377517D01*
X77042913Y-120417258D01*
X77046204Y-120421914D01*
X77050346Y-120425949D01*
X77050348Y-120425951D01*
X77113597Y-120487565D01*
X77202009Y-120573692D01*
X77382863Y-120694536D01*
X77388171Y-120696817D01*
X77388172Y-120696817D01*
X77577409Y-120778119D01*
X77577412Y-120778120D01*
X77582712Y-120780397D01*
X77588342Y-120781671D01*
X77686464Y-120803874D01*
X77794860Y-120828402D01*
X77800631Y-120828629D01*
X77800633Y-120828629D01*
X77873620Y-120831496D01*
X78012205Y-120836941D01*
X78227466Y-120805730D01*
X78232930Y-120803875D01*
X78232935Y-120803874D01*
X78427963Y-120737671D01*
X78427968Y-120737669D01*
X78433435Y-120735813D01*
X78445619Y-120728990D01*
X78512872Y-120691326D01*
X78623213Y-120629532D01*
X78671932Y-120589013D01*
X78737096Y-120560832D01*
X78807151Y-120572356D01*
X78853327Y-120610322D01*
X78911739Y-120688261D01*
X79028295Y-120775615D01*
X79164684Y-120826745D01*
X79226866Y-120833500D01*
X80673134Y-120833500D01*
X80735316Y-120826745D01*
X80871705Y-120775615D01*
X80988261Y-120688261D01*
X81075615Y-120571705D01*
X81126745Y-120435316D01*
X81133500Y-120373134D01*
X81133500Y-120190005D01*
X81153502Y-120121884D01*
X81207158Y-120075391D01*
X81277432Y-120065287D01*
X81342012Y-120094781D01*
X81368619Y-120127005D01*
X81460960Y-120286944D01*
X81465378Y-120291851D01*
X81465379Y-120291852D01*
X81559562Y-120396453D01*
X81588747Y-120428866D01*
X81681103Y-120495967D01*
X81693008Y-120504616D01*
X81743248Y-120541118D01*
X81749276Y-120543802D01*
X81749278Y-120543803D01*
X81898683Y-120610322D01*
X81917712Y-120618794D01*
X82011113Y-120638647D01*
X82098056Y-120657128D01*
X82098061Y-120657128D01*
X82104513Y-120658500D01*
X82295487Y-120658500D01*
X82301939Y-120657128D01*
X82301944Y-120657128D01*
X82388887Y-120638647D01*
X82482288Y-120618794D01*
X82501317Y-120610322D01*
X82650722Y-120543803D01*
X82650724Y-120543802D01*
X82656752Y-120541118D01*
X82706993Y-120504616D01*
X82718897Y-120495967D01*
X82811253Y-120428866D01*
X82840438Y-120396453D01*
X82934621Y-120291852D01*
X82934622Y-120291851D01*
X82939040Y-120286944D01*
X83034527Y-120121556D01*
X83093542Y-119939928D01*
X83095637Y-119920000D01*
X83112814Y-119756565D01*
X83113504Y-119750000D01*
X83111780Y-119733597D01*
X83094232Y-119566635D01*
X83094232Y-119566633D01*
X83093542Y-119560072D01*
X83034527Y-119378444D01*
X83026847Y-119365141D01*
X82972778Y-119271492D01*
X82939040Y-119213056D01*
X82916462Y-119187980D01*
X82815675Y-119076045D01*
X82815674Y-119076044D01*
X82811253Y-119071134D01*
X82656752Y-118958882D01*
X82650724Y-118956198D01*
X82650722Y-118956197D01*
X82488319Y-118883891D01*
X82488318Y-118883891D01*
X82482288Y-118881206D01*
X82388888Y-118861353D01*
X82301944Y-118842872D01*
X82301939Y-118842872D01*
X82295487Y-118841500D01*
X82104513Y-118841500D01*
X82098061Y-118842872D01*
X82098056Y-118842872D01*
X82011112Y-118861353D01*
X81917712Y-118881206D01*
X81911682Y-118883891D01*
X81911681Y-118883891D01*
X81749278Y-118956197D01*
X81749276Y-118956198D01*
X81743248Y-118958882D01*
X81588747Y-119071134D01*
X81584326Y-119076044D01*
X81584325Y-119076045D01*
X81483539Y-119187980D01*
X81460960Y-119213056D01*
X81377210Y-119358115D01*
X81368619Y-119372995D01*
X81317236Y-119421988D01*
X81247523Y-119435424D01*
X81181612Y-119409038D01*
X81140430Y-119351205D01*
X81133500Y-119309995D01*
X81133500Y-118926866D01*
X81126745Y-118864684D01*
X81075615Y-118728295D01*
X80988261Y-118611739D01*
X80871705Y-118524385D01*
X80735316Y-118473255D01*
X80673134Y-118466500D01*
X79226866Y-118466500D01*
X79164684Y-118473255D01*
X79028295Y-118524385D01*
X78911739Y-118611739D01*
X78856479Y-118685473D01*
X78855538Y-118686728D01*
X78798679Y-118729243D01*
X78727860Y-118734269D01*
X78678012Y-118711129D01*
X78677795Y-118710963D01*
X78673556Y-118707044D01*
X78489599Y-118590976D01*
X78287572Y-118510376D01*
X78074239Y-118467941D01*
X78068464Y-118467865D01*
X78068460Y-118467865D01*
X77959419Y-118466438D01*
X77856746Y-118465094D01*
X77851049Y-118466073D01*
X77851048Y-118466073D01*
X77648065Y-118500952D01*
X77648062Y-118500953D01*
X77642375Y-118501930D01*
X77438307Y-118577214D01*
X77251376Y-118688427D01*
X77087842Y-118831842D01*
X77084270Y-118836372D01*
X77084269Y-118836374D01*
X77050007Y-118879834D01*
X76992125Y-118920947D01*
X76921205Y-118924239D01*
X76859763Y-118888667D01*
X76850100Y-118877215D01*
X76836737Y-118859319D01*
X76836730Y-118859312D01*
X76833280Y-118854691D01*
X76829044Y-118850775D01*
X76677796Y-118710963D01*
X76677793Y-118710961D01*
X76673556Y-118707044D01*
X76489599Y-118590976D01*
X76287572Y-118510376D01*
X76074239Y-118467941D01*
X76068464Y-118467865D01*
X76068460Y-118467865D01*
X75959419Y-118466438D01*
X75856746Y-118465094D01*
X75851049Y-118466073D01*
X75851048Y-118466073D01*
X75648065Y-118500952D01*
X75648062Y-118500953D01*
X75642375Y-118501930D01*
X75438307Y-118577214D01*
X75251376Y-118688427D01*
X75087842Y-118831842D01*
X75084270Y-118836372D01*
X75084269Y-118836374D01*
X75050007Y-118879834D01*
X74992125Y-118920947D01*
X74921205Y-118924239D01*
X74859763Y-118888667D01*
X74850100Y-118877215D01*
X74836737Y-118859319D01*
X74836730Y-118859312D01*
X74833280Y-118854691D01*
X74829044Y-118850775D01*
X74677796Y-118710963D01*
X74677793Y-118710961D01*
X74673556Y-118707044D01*
X74489599Y-118590976D01*
X74287572Y-118510376D01*
X74074239Y-118467941D01*
X74068464Y-118467865D01*
X74068460Y-118467865D01*
X73959419Y-118466438D01*
X73856746Y-118465094D01*
X73851049Y-118466073D01*
X73851048Y-118466073D01*
X73648065Y-118500952D01*
X73648062Y-118500953D01*
X73642375Y-118501930D01*
X73438307Y-118577214D01*
X73251376Y-118688427D01*
X73087842Y-118831842D01*
X73084270Y-118836373D01*
X72980487Y-118968021D01*
X72953181Y-119002658D01*
X72950493Y-119007767D01*
X72923919Y-119058277D01*
X72851905Y-119195154D01*
X72850192Y-119200671D01*
X72793040Y-119384729D01*
X72787403Y-119402882D01*
X72761837Y-119618887D01*
X71505093Y-119618887D01*
X71505221Y-118396930D01*
X71525230Y-118328811D01*
X71578891Y-118282324D01*
X71649166Y-118272227D01*
X71705282Y-118295007D01*
X71749647Y-118327240D01*
X71768748Y-118341118D01*
X71774776Y-118343802D01*
X71774778Y-118343803D01*
X71894104Y-118396930D01*
X71943212Y-118418794D01*
X72036612Y-118438647D01*
X72123556Y-118457128D01*
X72123561Y-118457128D01*
X72130013Y-118458500D01*
X72320987Y-118458500D01*
X72327439Y-118457128D01*
X72327444Y-118457128D01*
X72414388Y-118438647D01*
X72507788Y-118418794D01*
X72556896Y-118396930D01*
X72676222Y-118343803D01*
X72676224Y-118343802D01*
X72682252Y-118341118D01*
X72701354Y-118327240D01*
X72777072Y-118272227D01*
X72836753Y-118228866D01*
X72841175Y-118223955D01*
X72960121Y-118091852D01*
X72960122Y-118091851D01*
X72964540Y-118086944D01*
X73046706Y-117944629D01*
X73056723Y-117927279D01*
X73056724Y-117927278D01*
X73060027Y-117921556D01*
X73119042Y-117739928D01*
X73139004Y-117550000D01*
X73127783Y-117443240D01*
X73119732Y-117366635D01*
X73119732Y-117366633D01*
X73119042Y-117360072D01*
X73060027Y-117178444D01*
X73050835Y-117162522D01*
X72967841Y-117018774D01*
X72964540Y-117013056D01*
X72945633Y-116992057D01*
X72841175Y-116876045D01*
X72841174Y-116876044D01*
X72836753Y-116871134D01*
X72719374Y-116785853D01*
X72687594Y-116762763D01*
X72687593Y-116762762D01*
X72682252Y-116758882D01*
X72676224Y-116756198D01*
X72676222Y-116756197D01*
X72513819Y-116683891D01*
X72513818Y-116683891D01*
X72507788Y-116681206D01*
X72414387Y-116661353D01*
X72327444Y-116642872D01*
X72327439Y-116642872D01*
X72320987Y-116641500D01*
X72130013Y-116641500D01*
X72123561Y-116642872D01*
X72123556Y-116642872D01*
X72036613Y-116661353D01*
X71943212Y-116681206D01*
X71937182Y-116683891D01*
X71937181Y-116683891D01*
X71774778Y-116756197D01*
X71774776Y-116756198D01*
X71768748Y-116758882D01*
X71763407Y-116762762D01*
X71763406Y-116762763D01*
X71705458Y-116804865D01*
X71638590Y-116828723D01*
X71569439Y-116812643D01*
X71519959Y-116761729D01*
X71505397Y-116702916D01*
X71505400Y-116679834D01*
X71505570Y-115050000D01*
X77165996Y-115050000D01*
X77166686Y-115056565D01*
X77182792Y-115209801D01*
X77185958Y-115239928D01*
X77244973Y-115421556D01*
X77248276Y-115427278D01*
X77248277Y-115427279D01*
X77261296Y-115449829D01*
X77340460Y-115586944D01*
X77344878Y-115591851D01*
X77344879Y-115591852D01*
X77463825Y-115723955D01*
X77468247Y-115728866D01*
X77622748Y-115841118D01*
X77628776Y-115843802D01*
X77628778Y-115843803D01*
X77712713Y-115881173D01*
X77797212Y-115918794D01*
X77890613Y-115938647D01*
X77977556Y-115957128D01*
X77977561Y-115957128D01*
X77984013Y-115958500D01*
X78174987Y-115958500D01*
X78181439Y-115957128D01*
X78181444Y-115957128D01*
X78268387Y-115938647D01*
X78361788Y-115918794D01*
X78446287Y-115881173D01*
X78530222Y-115843803D01*
X78530224Y-115843802D01*
X78536252Y-115841118D01*
X78690753Y-115728866D01*
X78695175Y-115723955D01*
X78814121Y-115591852D01*
X78814122Y-115591851D01*
X78818540Y-115586944D01*
X78897704Y-115449829D01*
X78910723Y-115427279D01*
X78910724Y-115427278D01*
X78914027Y-115421556D01*
X78973042Y-115239928D01*
X78976209Y-115209801D01*
X78987749Y-115100000D01*
X82336496Y-115100000D01*
X82337186Y-115106565D01*
X82349787Y-115226453D01*
X82356458Y-115289928D01*
X82415473Y-115471556D01*
X82418776Y-115477278D01*
X82418777Y-115477279D01*
X82438868Y-115512077D01*
X82510960Y-115636944D01*
X82638747Y-115778866D01*
X82793248Y-115891118D01*
X82799276Y-115893802D01*
X82799278Y-115893803D01*
X82961681Y-115966109D01*
X82967712Y-115968794D01*
X83061113Y-115988647D01*
X83148056Y-116007128D01*
X83148061Y-116007128D01*
X83154513Y-116008500D01*
X83345487Y-116008500D01*
X83351939Y-116007128D01*
X83351944Y-116007128D01*
X83438887Y-115988647D01*
X83532288Y-115968794D01*
X83538319Y-115966109D01*
X83700722Y-115893803D01*
X83700724Y-115893802D01*
X83706752Y-115891118D01*
X83861253Y-115778866D01*
X83989040Y-115636944D01*
X84061132Y-115512077D01*
X84081223Y-115477279D01*
X84081224Y-115477278D01*
X84084527Y-115471556D01*
X84143542Y-115289928D01*
X84150214Y-115226453D01*
X84162814Y-115106565D01*
X84163504Y-115100000D01*
X84154914Y-115018267D01*
X84144232Y-114916635D01*
X84144232Y-114916633D01*
X84143542Y-114910072D01*
X84084527Y-114728444D01*
X83989040Y-114563056D01*
X83983703Y-114557128D01*
X83887244Y-114450000D01*
X86586496Y-114450000D01*
X86587186Y-114456565D01*
X86604629Y-114622522D01*
X86606458Y-114639928D01*
X86665473Y-114821556D01*
X86760960Y-114986944D01*
X86765378Y-114991851D01*
X86765379Y-114991852D01*
X86883410Y-115122939D01*
X86888747Y-115128866D01*
X86894469Y-115133023D01*
X87027471Y-115229655D01*
X87043248Y-115241118D01*
X87049276Y-115243802D01*
X87049278Y-115243803D01*
X87211681Y-115316109D01*
X87217712Y-115318794D01*
X87302691Y-115336857D01*
X87398056Y-115357128D01*
X87398061Y-115357128D01*
X87404513Y-115358500D01*
X87595487Y-115358500D01*
X87601939Y-115357128D01*
X87601944Y-115357128D01*
X87697309Y-115336857D01*
X87782288Y-115318794D01*
X87788319Y-115316109D01*
X87950722Y-115243803D01*
X87950724Y-115243802D01*
X87956752Y-115241118D01*
X87972530Y-115229655D01*
X88105531Y-115133023D01*
X88111253Y-115128866D01*
X88116590Y-115122939D01*
X88234621Y-114991852D01*
X88234622Y-114991851D01*
X88239040Y-114986944D01*
X88334527Y-114821556D01*
X88393542Y-114639928D01*
X88395414Y-114622116D01*
X88422427Y-114556459D01*
X88480648Y-114515829D01*
X88551593Y-114513126D01*
X88559658Y-114515452D01*
X88561684Y-114516110D01*
X88567712Y-114518794D01*
X88636738Y-114533466D01*
X88748056Y-114557128D01*
X88748061Y-114557128D01*
X88754513Y-114558500D01*
X88945487Y-114558500D01*
X88951939Y-114557128D01*
X88951944Y-114557128D01*
X89038888Y-114538647D01*
X89132288Y-114518794D01*
X89138948Y-114515829D01*
X89300722Y-114443803D01*
X89300724Y-114443802D01*
X89306752Y-114441118D01*
X89461253Y-114328866D01*
X89524267Y-114258882D01*
X89584621Y-114191852D01*
X89584622Y-114191851D01*
X89589040Y-114186944D01*
X89684527Y-114021556D01*
X89743542Y-113839928D01*
X89745966Y-113816870D01*
X89762814Y-113656565D01*
X89763504Y-113650000D01*
X89758158Y-113599137D01*
X89744232Y-113466635D01*
X89744232Y-113466633D01*
X89743542Y-113460072D01*
X89684527Y-113278444D01*
X89677406Y-113266109D01*
X89634109Y-113191118D01*
X89589040Y-113113056D01*
X89561752Y-113082749D01*
X89465675Y-112976045D01*
X89465674Y-112976044D01*
X89461253Y-112971134D01*
X89306752Y-112858882D01*
X89300724Y-112856198D01*
X89300722Y-112856197D01*
X89138319Y-112783891D01*
X89138318Y-112783891D01*
X89132288Y-112781206D01*
X89038888Y-112761353D01*
X88951944Y-112742872D01*
X88951939Y-112742872D01*
X88945487Y-112741500D01*
X88754513Y-112741500D01*
X88748061Y-112742872D01*
X88748056Y-112742872D01*
X88634748Y-112766957D01*
X88563957Y-112761555D01*
X88507325Y-112718738D01*
X88482831Y-112652101D01*
X88488717Y-112604776D01*
X88493542Y-112589928D01*
X88497527Y-112552018D01*
X88508249Y-112450000D01*
X91036496Y-112450000D01*
X91056458Y-112639928D01*
X91115473Y-112821556D01*
X91210960Y-112986944D01*
X91338747Y-113128866D01*
X91493248Y-113241118D01*
X91499276Y-113243802D01*
X91499278Y-113243803D01*
X91644591Y-113308500D01*
X91667712Y-113318794D01*
X91749953Y-113336275D01*
X91848056Y-113357128D01*
X91848061Y-113357128D01*
X91854513Y-113358500D01*
X92045487Y-113358500D01*
X92051939Y-113357128D01*
X92051944Y-113357128D01*
X92150047Y-113336275D01*
X92232288Y-113318794D01*
X92255409Y-113308500D01*
X92400722Y-113243803D01*
X92400724Y-113243802D01*
X92406752Y-113241118D01*
X92561253Y-113128866D01*
X92689040Y-112986944D01*
X92784527Y-112821556D01*
X92843542Y-112639928D01*
X92855051Y-112530426D01*
X104078438Y-112530426D01*
X104098400Y-112720354D01*
X104157415Y-112901982D01*
X104160718Y-112907704D01*
X104160719Y-112907705D01*
X104169410Y-112922758D01*
X104252902Y-113067370D01*
X104257320Y-113072277D01*
X104257321Y-113072278D01*
X104364325Y-113191118D01*
X104380689Y-113209292D01*
X104441576Y-113253529D01*
X104517932Y-113309005D01*
X104535190Y-113321544D01*
X104541218Y-113324228D01*
X104541220Y-113324229D01*
X104685163Y-113388316D01*
X104709654Y-113399220D01*
X104803054Y-113419073D01*
X104889998Y-113437554D01*
X104890003Y-113437554D01*
X104896455Y-113438926D01*
X105087429Y-113438926D01*
X105093881Y-113437554D01*
X105093886Y-113437554D01*
X105180830Y-113419073D01*
X105274230Y-113399220D01*
X105298721Y-113388316D01*
X105442664Y-113324229D01*
X105442666Y-113324228D01*
X105448694Y-113321544D01*
X105465953Y-113309005D01*
X105542308Y-113253529D01*
X105603195Y-113209292D01*
X105619559Y-113191118D01*
X105726563Y-113072278D01*
X105726564Y-113072277D01*
X105730982Y-113067370D01*
X105814758Y-112922266D01*
X105866139Y-112873274D01*
X105935853Y-112859838D01*
X106001764Y-112886224D01*
X106040619Y-112937863D01*
X106111758Y-113113056D01*
X106128311Y-113153822D01*
X106255772Y-113361819D01*
X106415492Y-113546206D01*
X106603183Y-113702030D01*
X106813804Y-113825106D01*
X106818629Y-113826948D01*
X106818630Y-113826949D01*
X106860797Y-113843051D01*
X107041698Y-113912131D01*
X107046764Y-113913162D01*
X107046765Y-113913162D01*
X107275667Y-113959733D01*
X107275671Y-113959733D01*
X107280746Y-113960766D01*
X107285922Y-113960956D01*
X107285924Y-113960956D01*
X107519363Y-113969516D01*
X107519367Y-113969516D01*
X107524527Y-113969705D01*
X107529647Y-113969049D01*
X107529649Y-113969049D01*
X107628302Y-113956411D01*
X107766494Y-113938708D01*
X107771443Y-113937223D01*
X107771449Y-113937222D01*
X107995200Y-113870093D01*
X107995199Y-113870093D01*
X108000150Y-113868608D01*
X108219219Y-113761287D01*
X108223424Y-113758287D01*
X108223430Y-113758284D01*
X108413614Y-113622627D01*
X108413616Y-113622625D01*
X108417818Y-113619628D01*
X108590614Y-113447434D01*
X108597714Y-113437554D01*
X108631277Y-113390845D01*
X108732966Y-113249330D01*
X108755285Y-113204172D01*
X108838756Y-113035279D01*
X108838757Y-113035277D01*
X108841050Y-113030637D01*
X108869237Y-112937863D01*
X108910462Y-112802180D01*
X108910463Y-112802174D01*
X108911966Y-112797228D01*
X108938432Y-112596199D01*
X108943370Y-112558691D01*
X108943370Y-112558687D01*
X108943807Y-112555370D01*
X108945584Y-112482653D01*
X108925596Y-112239529D01*
X108866167Y-112002933D01*
X108791736Y-111831753D01*
X108770954Y-111783958D01*
X108770952Y-111783955D01*
X108768894Y-111779221D01*
X108667135Y-111621926D01*
X108639200Y-111578744D01*
X108639198Y-111578741D01*
X108636390Y-111574401D01*
X108606453Y-111541500D01*
X108475690Y-111397794D01*
X108475688Y-111397793D01*
X108472212Y-111393972D01*
X108468161Y-111390773D01*
X108468157Y-111390769D01*
X108284825Y-111245982D01*
X108284821Y-111245980D01*
X108280770Y-111242780D01*
X108067205Y-111124886D01*
X108062336Y-111123162D01*
X108062332Y-111123160D01*
X107842127Y-111045181D01*
X107842123Y-111045180D01*
X107837252Y-111043455D01*
X107832159Y-111042548D01*
X107832156Y-111042547D01*
X107602177Y-111001581D01*
X107602171Y-111001580D01*
X107597088Y-111000675D01*
X107517380Y-110999701D01*
X107358332Y-110997758D01*
X107358330Y-110997758D01*
X107353162Y-110997695D01*
X107112024Y-111034594D01*
X106880150Y-111110382D01*
X106663769Y-111223023D01*
X106659636Y-111226126D01*
X106659633Y-111226128D01*
X106472825Y-111366388D01*
X106468690Y-111369493D01*
X106465118Y-111373231D01*
X106304317Y-111541500D01*
X106300153Y-111545857D01*
X106297239Y-111550129D01*
X106297238Y-111550130D01*
X106224884Y-111656197D01*
X106162684Y-111747379D01*
X106147513Y-111780062D01*
X106083125Y-111918774D01*
X106059974Y-111968648D01*
X106058592Y-111973632D01*
X106028869Y-112080809D01*
X105991390Y-112141107D01*
X105927261Y-112171570D01*
X105856843Y-112162527D01*
X105802493Y-112116848D01*
X105798333Y-112110137D01*
X105739332Y-112007945D01*
X105730982Y-111993482D01*
X105718457Y-111979571D01*
X105607617Y-111856471D01*
X105607616Y-111856470D01*
X105603195Y-111851560D01*
X105487153Y-111767250D01*
X105454036Y-111743189D01*
X105454035Y-111743188D01*
X105448694Y-111739308D01*
X105442666Y-111736624D01*
X105442664Y-111736623D01*
X105280261Y-111664317D01*
X105280260Y-111664317D01*
X105274230Y-111661632D01*
X105162543Y-111637892D01*
X105093886Y-111623298D01*
X105093881Y-111623298D01*
X105087429Y-111621926D01*
X104896455Y-111621926D01*
X104890003Y-111623298D01*
X104889998Y-111623298D01*
X104821341Y-111637892D01*
X104709654Y-111661632D01*
X104703624Y-111664317D01*
X104703623Y-111664317D01*
X104541220Y-111736623D01*
X104541218Y-111736624D01*
X104535190Y-111739308D01*
X104529849Y-111743188D01*
X104529848Y-111743189D01*
X104496731Y-111767250D01*
X104380689Y-111851560D01*
X104376268Y-111856470D01*
X104376267Y-111856471D01*
X104265428Y-111979571D01*
X104252902Y-111993482D01*
X104244552Y-112007945D01*
X104173452Y-112131094D01*
X104157415Y-112158870D01*
X104098400Y-112340498D01*
X104097710Y-112347059D01*
X104097710Y-112347061D01*
X104083848Y-112478955D01*
X104078438Y-112530426D01*
X92855051Y-112530426D01*
X92863504Y-112450000D01*
X92851335Y-112334220D01*
X92844232Y-112266635D01*
X92844232Y-112266633D01*
X92843542Y-112260072D01*
X92784527Y-112078444D01*
X92689040Y-111913056D01*
X92649169Y-111868774D01*
X92565675Y-111776045D01*
X92565674Y-111776044D01*
X92561253Y-111771134D01*
X92462435Y-111699338D01*
X92412094Y-111662763D01*
X92412093Y-111662762D01*
X92406752Y-111658882D01*
X92400724Y-111656198D01*
X92400722Y-111656197D01*
X92238319Y-111583891D01*
X92238318Y-111583891D01*
X92232288Y-111581206D01*
X92138887Y-111561353D01*
X92051944Y-111542872D01*
X92051939Y-111542872D01*
X92045487Y-111541500D01*
X91854513Y-111541500D01*
X91848061Y-111542872D01*
X91848056Y-111542872D01*
X91761113Y-111561353D01*
X91667712Y-111581206D01*
X91661682Y-111583891D01*
X91661681Y-111583891D01*
X91499278Y-111656197D01*
X91499276Y-111656198D01*
X91493248Y-111658882D01*
X91487907Y-111662762D01*
X91487906Y-111662763D01*
X91437565Y-111699338D01*
X91338747Y-111771134D01*
X91334326Y-111776044D01*
X91334325Y-111776045D01*
X91250832Y-111868774D01*
X91210960Y-111913056D01*
X91115473Y-112078444D01*
X91056458Y-112260072D01*
X91055768Y-112266633D01*
X91055768Y-112266635D01*
X91048665Y-112334220D01*
X91036496Y-112450000D01*
X88508249Y-112450000D01*
X88512814Y-112406565D01*
X88513504Y-112400000D01*
X88502023Y-112290764D01*
X88494232Y-112216635D01*
X88494232Y-112216633D01*
X88493542Y-112210072D01*
X88434527Y-112028444D01*
X88339040Y-111863056D01*
X88261722Y-111777185D01*
X88215675Y-111726045D01*
X88215674Y-111726044D01*
X88211253Y-111721134D01*
X88076594Y-111623298D01*
X88062094Y-111612763D01*
X88062093Y-111612762D01*
X88056752Y-111608882D01*
X88050724Y-111606198D01*
X88050722Y-111606197D01*
X87888319Y-111533891D01*
X87888318Y-111533891D01*
X87882288Y-111531206D01*
X87788041Y-111511173D01*
X87701944Y-111492872D01*
X87701939Y-111492872D01*
X87695487Y-111491500D01*
X87504513Y-111491500D01*
X87498061Y-111492872D01*
X87498056Y-111492872D01*
X87411959Y-111511173D01*
X87317712Y-111531206D01*
X87311682Y-111533891D01*
X87311681Y-111533891D01*
X87149278Y-111606197D01*
X87149276Y-111606198D01*
X87143248Y-111608882D01*
X87137907Y-111612762D01*
X87137906Y-111612763D01*
X87123406Y-111623298D01*
X86988747Y-111721134D01*
X86984326Y-111726044D01*
X86984325Y-111726045D01*
X86938279Y-111777185D01*
X86860960Y-111863056D01*
X86765473Y-112028444D01*
X86706458Y-112210072D01*
X86705768Y-112216633D01*
X86705768Y-112216635D01*
X86697977Y-112290764D01*
X86686496Y-112400000D01*
X86687186Y-112406565D01*
X86702474Y-112552018D01*
X86706458Y-112589928D01*
X86765473Y-112771556D01*
X86768776Y-112777278D01*
X86768777Y-112777279D01*
X86780295Y-112797228D01*
X86860960Y-112936944D01*
X86865378Y-112941851D01*
X86865379Y-112941852D01*
X86905980Y-112986944D01*
X86988747Y-113078866D01*
X87143248Y-113191118D01*
X87149276Y-113193802D01*
X87149278Y-113193803D01*
X87273995Y-113249330D01*
X87317712Y-113268794D01*
X87428948Y-113292438D01*
X87491421Y-113326167D01*
X87525743Y-113388316D01*
X87521015Y-113459155D01*
X87478739Y-113516193D01*
X87415920Y-113540995D01*
X87411114Y-113541500D01*
X87404513Y-113541500D01*
X87398060Y-113542872D01*
X87398057Y-113542872D01*
X87335487Y-113556172D01*
X87217712Y-113581206D01*
X87211682Y-113583891D01*
X87211681Y-113583891D01*
X87049278Y-113656197D01*
X87049276Y-113656198D01*
X87043248Y-113658882D01*
X87037907Y-113662762D01*
X87037906Y-113662763D01*
X87021617Y-113674598D01*
X86888747Y-113771134D01*
X86884326Y-113776044D01*
X86884325Y-113776045D01*
X86867823Y-113794373D01*
X86760960Y-113913056D01*
X86665473Y-114078444D01*
X86606458Y-114260072D01*
X86605768Y-114266633D01*
X86605768Y-114266635D01*
X86598819Y-114332749D01*
X86586496Y-114450000D01*
X83887244Y-114450000D01*
X83865675Y-114426045D01*
X83865674Y-114426044D01*
X83861253Y-114421134D01*
X83755496Y-114344297D01*
X83712094Y-114312763D01*
X83712093Y-114312762D01*
X83706752Y-114308882D01*
X83700724Y-114306198D01*
X83700722Y-114306197D01*
X83538319Y-114233891D01*
X83538318Y-114233891D01*
X83532288Y-114231206D01*
X83438888Y-114211353D01*
X83351944Y-114192872D01*
X83351939Y-114192872D01*
X83345487Y-114191500D01*
X83154513Y-114191500D01*
X83148061Y-114192872D01*
X83148056Y-114192872D01*
X83061112Y-114211353D01*
X82967712Y-114231206D01*
X82961682Y-114233891D01*
X82961681Y-114233891D01*
X82799278Y-114306197D01*
X82799276Y-114306198D01*
X82793248Y-114308882D01*
X82787907Y-114312762D01*
X82787906Y-114312763D01*
X82744504Y-114344297D01*
X82638747Y-114421134D01*
X82634326Y-114426044D01*
X82634325Y-114426045D01*
X82516298Y-114557128D01*
X82510960Y-114563056D01*
X82415473Y-114728444D01*
X82356458Y-114910072D01*
X82355768Y-114916633D01*
X82355768Y-114916635D01*
X82345086Y-115018267D01*
X82336496Y-115100000D01*
X78987749Y-115100000D01*
X78992314Y-115056565D01*
X78993004Y-115050000D01*
X78990872Y-115029715D01*
X78973732Y-114866635D01*
X78973732Y-114866633D01*
X78973042Y-114860072D01*
X78914027Y-114678444D01*
X78818540Y-114513056D01*
X78756185Y-114443803D01*
X78695175Y-114376045D01*
X78695174Y-114376044D01*
X78690753Y-114371134D01*
X78536252Y-114258882D01*
X78530224Y-114256198D01*
X78530222Y-114256197D01*
X78367819Y-114183891D01*
X78367818Y-114183891D01*
X78361788Y-114181206D01*
X78268387Y-114161353D01*
X78181444Y-114142872D01*
X78181439Y-114142872D01*
X78174987Y-114141500D01*
X77984013Y-114141500D01*
X77977561Y-114142872D01*
X77977556Y-114142872D01*
X77890613Y-114161353D01*
X77797212Y-114181206D01*
X77791182Y-114183891D01*
X77791181Y-114183891D01*
X77628778Y-114256197D01*
X77628776Y-114256198D01*
X77622748Y-114258882D01*
X77468247Y-114371134D01*
X77463826Y-114376044D01*
X77463825Y-114376045D01*
X77402816Y-114443803D01*
X77340460Y-114513056D01*
X77244973Y-114678444D01*
X77185958Y-114860072D01*
X77185268Y-114866633D01*
X77185268Y-114866635D01*
X77168128Y-115029715D01*
X77165996Y-115050000D01*
X71505570Y-115050000D01*
X71505819Y-112662320D01*
X83437495Y-112662320D01*
X83438185Y-112668885D01*
X83454833Y-112827279D01*
X83457457Y-112852248D01*
X83516472Y-113033876D01*
X83519775Y-113039598D01*
X83519776Y-113039599D01*
X83535810Y-113067370D01*
X83611959Y-113199264D01*
X83616377Y-113204171D01*
X83616378Y-113204172D01*
X83722060Y-113321544D01*
X83739746Y-113341186D01*
X83819623Y-113399220D01*
X83880207Y-113443237D01*
X83894247Y-113453438D01*
X83900275Y-113456122D01*
X83900277Y-113456123D01*
X84062680Y-113528429D01*
X84068711Y-113531114D01*
X84162111Y-113550967D01*
X84249055Y-113569448D01*
X84249060Y-113569448D01*
X84255512Y-113570820D01*
X84446486Y-113570820D01*
X84452938Y-113569448D01*
X84452943Y-113569448D01*
X84539887Y-113550967D01*
X84633287Y-113531114D01*
X84639318Y-113528429D01*
X84801721Y-113456123D01*
X84801723Y-113456122D01*
X84807751Y-113453438D01*
X84821792Y-113443237D01*
X84882375Y-113399220D01*
X84962252Y-113341186D01*
X84979938Y-113321544D01*
X85085620Y-113204172D01*
X85085621Y-113204171D01*
X85090039Y-113199264D01*
X85166188Y-113067370D01*
X85182222Y-113039599D01*
X85182223Y-113039598D01*
X85185526Y-113033876D01*
X85244541Y-112852248D01*
X85247166Y-112827279D01*
X85263813Y-112668885D01*
X85264503Y-112662320D01*
X85257554Y-112596206D01*
X85245231Y-112478955D01*
X85245231Y-112478953D01*
X85244541Y-112472392D01*
X85185526Y-112290764D01*
X85090039Y-112125376D01*
X85082361Y-112116848D01*
X84966674Y-111988365D01*
X84966673Y-111988364D01*
X84962252Y-111983454D01*
X84807751Y-111871202D01*
X84801723Y-111868518D01*
X84801721Y-111868517D01*
X84639318Y-111796211D01*
X84639317Y-111796211D01*
X84633287Y-111793526D01*
X84527942Y-111771134D01*
X84452943Y-111755192D01*
X84452938Y-111755192D01*
X84446486Y-111753820D01*
X84255512Y-111753820D01*
X84249060Y-111755192D01*
X84249055Y-111755192D01*
X84174056Y-111771134D01*
X84068711Y-111793526D01*
X84062681Y-111796211D01*
X84062680Y-111796211D01*
X83900277Y-111868517D01*
X83900275Y-111868518D01*
X83894247Y-111871202D01*
X83739746Y-111983454D01*
X83735325Y-111988364D01*
X83735324Y-111988365D01*
X83619638Y-112116848D01*
X83611959Y-112125376D01*
X83516472Y-112290764D01*
X83457457Y-112472392D01*
X83456767Y-112478953D01*
X83456767Y-112478955D01*
X83444444Y-112596206D01*
X83437495Y-112662320D01*
X71505819Y-112662320D01*
X71506052Y-110436695D01*
X100712151Y-110436695D01*
X100712448Y-110441848D01*
X100712448Y-110441851D01*
X100717911Y-110536590D01*
X100725010Y-110659715D01*
X100726147Y-110664761D01*
X100726148Y-110664767D01*
X100746019Y-110752939D01*
X100774122Y-110877639D01*
X100858166Y-111084616D01*
X100884375Y-111127385D01*
X100955089Y-111242780D01*
X100974887Y-111275088D01*
X101121150Y-111443938D01*
X101293026Y-111586632D01*
X101485900Y-111699338D01*
X101694592Y-111779030D01*
X101699660Y-111780061D01*
X101699663Y-111780062D01*
X101806917Y-111801883D01*
X101913497Y-111823567D01*
X101918672Y-111823757D01*
X101918674Y-111823757D01*
X102131573Y-111831564D01*
X102131577Y-111831564D01*
X102136737Y-111831753D01*
X102141857Y-111831097D01*
X102141859Y-111831097D01*
X102353188Y-111804025D01*
X102353189Y-111804025D01*
X102358316Y-111803368D01*
X102363266Y-111801883D01*
X102567329Y-111740661D01*
X102567334Y-111740659D01*
X102572284Y-111739174D01*
X102772894Y-111640896D01*
X102954760Y-111511173D01*
X103112996Y-111353489D01*
X103172494Y-111270689D01*
X103240335Y-111176277D01*
X103243353Y-111172077D01*
X103273845Y-111110382D01*
X103340036Y-110976453D01*
X103340037Y-110976451D01*
X103342330Y-110971811D01*
X103407270Y-110758069D01*
X103436429Y-110536590D01*
X103438056Y-110470000D01*
X103419752Y-110247361D01*
X103365331Y-110030702D01*
X103276254Y-109825840D01*
X103154914Y-109638277D01*
X103004570Y-109473051D01*
X103000519Y-109469852D01*
X103000515Y-109469848D01*
X102833314Y-109337800D01*
X102833310Y-109337798D01*
X102829259Y-109334598D01*
X102787953Y-109311796D01*
X102737984Y-109261364D01*
X102723212Y-109191921D01*
X102748328Y-109125516D01*
X102775680Y-109098909D01*
X102841996Y-109051606D01*
X102954760Y-108971173D01*
X103112996Y-108813489D01*
X103172494Y-108730689D01*
X103240335Y-108636277D01*
X103243353Y-108632077D01*
X103255180Y-108608148D01*
X103327108Y-108462611D01*
X105968860Y-108462611D01*
X105969157Y-108467763D01*
X105969157Y-108467767D01*
X105975401Y-108576045D01*
X105982903Y-108706151D01*
X105984040Y-108711197D01*
X105984041Y-108711203D01*
X106007107Y-108813555D01*
X106036533Y-108944127D01*
X106038475Y-108948909D01*
X106038476Y-108948913D01*
X106120129Y-109150000D01*
X106128311Y-109170149D01*
X106255772Y-109378146D01*
X106415492Y-109562533D01*
X106603183Y-109718357D01*
X106813804Y-109841433D01*
X107041698Y-109928458D01*
X107046764Y-109929489D01*
X107046765Y-109929489D01*
X107275667Y-109976060D01*
X107275671Y-109976060D01*
X107280746Y-109977093D01*
X107285922Y-109977283D01*
X107285924Y-109977283D01*
X107519363Y-109985843D01*
X107519367Y-109985843D01*
X107524527Y-109986032D01*
X107529647Y-109985376D01*
X107529649Y-109985376D01*
X107606377Y-109975547D01*
X107766494Y-109955035D01*
X107771443Y-109953550D01*
X107771449Y-109953549D01*
X107995200Y-109886420D01*
X107995199Y-109886420D01*
X108000150Y-109884935D01*
X108219219Y-109777614D01*
X108223424Y-109774614D01*
X108223430Y-109774611D01*
X108413614Y-109638954D01*
X108413616Y-109638952D01*
X108417818Y-109635955D01*
X108590614Y-109463761D01*
X108732966Y-109265657D01*
X108739191Y-109253063D01*
X108838756Y-109051606D01*
X108838757Y-109051604D01*
X108841050Y-109046964D01*
X108857802Y-108991829D01*
X108910462Y-108818507D01*
X108910463Y-108818501D01*
X108911966Y-108813555D01*
X108943807Y-108571697D01*
X108943916Y-108567251D01*
X108945502Y-108502345D01*
X108945502Y-108502341D01*
X108945584Y-108498980D01*
X108925596Y-108255856D01*
X108866167Y-108019260D01*
X108768894Y-107795548D01*
X108656334Y-107621556D01*
X108639200Y-107595071D01*
X108639198Y-107595068D01*
X108636390Y-107590728D01*
X108593692Y-107543803D01*
X108475690Y-107414121D01*
X108475688Y-107414120D01*
X108472212Y-107410299D01*
X108468161Y-107407100D01*
X108468157Y-107407096D01*
X108284825Y-107262309D01*
X108284821Y-107262307D01*
X108280770Y-107259107D01*
X108271146Y-107253794D01*
X108224759Y-107228187D01*
X108067205Y-107141213D01*
X108062336Y-107139489D01*
X108062332Y-107139487D01*
X107842127Y-107061508D01*
X107842123Y-107061507D01*
X107837252Y-107059782D01*
X107832159Y-107058875D01*
X107832156Y-107058874D01*
X107602177Y-107017908D01*
X107602171Y-107017907D01*
X107597088Y-107017002D01*
X107517380Y-107016028D01*
X107358332Y-107014085D01*
X107358330Y-107014085D01*
X107353162Y-107014022D01*
X107112024Y-107050921D01*
X106880150Y-107126709D01*
X106663769Y-107239350D01*
X106659636Y-107242453D01*
X106659633Y-107242455D01*
X106478784Y-107378241D01*
X106468690Y-107385820D01*
X106300153Y-107562184D01*
X106297239Y-107566456D01*
X106297238Y-107566457D01*
X106263368Y-107616109D01*
X106162684Y-107763706D01*
X106145705Y-107800285D01*
X106083931Y-107933365D01*
X106059974Y-107984975D01*
X105994783Y-108220047D01*
X105968860Y-108462611D01*
X103327108Y-108462611D01*
X103340036Y-108436453D01*
X103340037Y-108436451D01*
X103342330Y-108431811D01*
X103387272Y-108283891D01*
X103405765Y-108223023D01*
X103405765Y-108223021D01*
X103407270Y-108218069D01*
X103436429Y-107996590D01*
X103436713Y-107984975D01*
X103437974Y-107933365D01*
X103437974Y-107933361D01*
X103438056Y-107930000D01*
X103419752Y-107707361D01*
X103365331Y-107490702D01*
X103276254Y-107285840D01*
X103174703Y-107128866D01*
X103157722Y-107102617D01*
X103157720Y-107102614D01*
X103154914Y-107098277D01*
X103004570Y-106933051D01*
X103000519Y-106929852D01*
X103000515Y-106929848D01*
X102833314Y-106797800D01*
X102833310Y-106797798D01*
X102829259Y-106794598D01*
X102787469Y-106771529D01*
X102737498Y-106721097D01*
X102722726Y-106651654D01*
X102747842Y-106585248D01*
X102775194Y-106558641D01*
X102950228Y-106433792D01*
X102958100Y-106427139D01*
X103108952Y-106276812D01*
X103115630Y-106268965D01*
X103239903Y-106096020D01*
X103245213Y-106087183D01*
X103339570Y-105896267D01*
X103343369Y-105886672D01*
X103405277Y-105682910D01*
X103407455Y-105672837D01*
X103408886Y-105661962D01*
X103407021Y-105650000D01*
X103836496Y-105650000D01*
X103837186Y-105656565D01*
X103852501Y-105802275D01*
X103856458Y-105839928D01*
X103915473Y-106021556D01*
X104010960Y-106186944D01*
X104138747Y-106328866D01*
X104237843Y-106400864D01*
X104283165Y-106433792D01*
X104293248Y-106441118D01*
X104299276Y-106443802D01*
X104299278Y-106443803D01*
X104461681Y-106516109D01*
X104467712Y-106518794D01*
X104561112Y-106538647D01*
X104648056Y-106557128D01*
X104648061Y-106557128D01*
X104654513Y-106558500D01*
X104845487Y-106558500D01*
X104851939Y-106557128D01*
X104851944Y-106557128D01*
X104938888Y-106538647D01*
X105032288Y-106518794D01*
X105038319Y-106516109D01*
X105200722Y-106443803D01*
X105200724Y-106443802D01*
X105206752Y-106441118D01*
X105216836Y-106433792D01*
X105262157Y-106400864D01*
X105361253Y-106328866D01*
X105489040Y-106186944D01*
X105584527Y-106021556D01*
X105643542Y-105839928D01*
X105647500Y-105802275D01*
X105662814Y-105656565D01*
X105663504Y-105650000D01*
X105649538Y-105517118D01*
X105644232Y-105466635D01*
X105644232Y-105466633D01*
X105643542Y-105460072D01*
X105584527Y-105278444D01*
X105578817Y-105268553D01*
X105522571Y-105171134D01*
X105489040Y-105113056D01*
X105483703Y-105107128D01*
X105365675Y-104976045D01*
X105365674Y-104976044D01*
X105361253Y-104971134D01*
X105206752Y-104858882D01*
X105200724Y-104856198D01*
X105200722Y-104856197D01*
X105038319Y-104783891D01*
X105038318Y-104783891D01*
X105032288Y-104781206D01*
X104938888Y-104761353D01*
X104851944Y-104742872D01*
X104851939Y-104742872D01*
X104845487Y-104741500D01*
X104654513Y-104741500D01*
X104648061Y-104742872D01*
X104648056Y-104742872D01*
X104561113Y-104761353D01*
X104467712Y-104781206D01*
X104461682Y-104783891D01*
X104461681Y-104783891D01*
X104299278Y-104856197D01*
X104299276Y-104856198D01*
X104293248Y-104858882D01*
X104138747Y-104971134D01*
X104134326Y-104976044D01*
X104134325Y-104976045D01*
X104016298Y-105107128D01*
X104010960Y-105113056D01*
X103977429Y-105171134D01*
X103921184Y-105268553D01*
X103915473Y-105278444D01*
X103856458Y-105460072D01*
X103855768Y-105466633D01*
X103855768Y-105466635D01*
X103850462Y-105517118D01*
X103836496Y-105650000D01*
X103407021Y-105650000D01*
X103406675Y-105647778D01*
X103393517Y-105644000D01*
X100758125Y-105644000D01*
X100744594Y-105647973D01*
X100743157Y-105657966D01*
X100773465Y-105792446D01*
X100776545Y-105802275D01*
X100856670Y-105999603D01*
X100861313Y-106008794D01*
X100972594Y-106190388D01*
X100978677Y-106198699D01*
X101118113Y-106359667D01*
X101125480Y-106366883D01*
X101289334Y-106502916D01*
X101297781Y-106508831D01*
X101366869Y-106549203D01*
X101415593Y-106600842D01*
X101428664Y-106670625D01*
X101401933Y-106736396D01*
X101361484Y-106769752D01*
X101348507Y-106776507D01*
X101344374Y-106779610D01*
X101344371Y-106779612D01*
X101174000Y-106907530D01*
X101169865Y-106910635D01*
X101166293Y-106914373D01*
X101027060Y-107060072D01*
X101015529Y-107072138D01*
X101012615Y-107076410D01*
X101012614Y-107076411D01*
X100927456Y-107201249D01*
X100889643Y-107256680D01*
X100875595Y-107286944D01*
X100802955Y-107443435D01*
X100795588Y-107459305D01*
X100735889Y-107674570D01*
X100712151Y-107896695D01*
X100712448Y-107901848D01*
X100712448Y-107901851D01*
X100717911Y-107996590D01*
X100725010Y-108119715D01*
X100726147Y-108124761D01*
X100726148Y-108124767D01*
X100746019Y-108212939D01*
X100774122Y-108337639D01*
X100824929Y-108462762D01*
X100842777Y-108506716D01*
X100858166Y-108544616D01*
X100974887Y-108735088D01*
X101121150Y-108903938D01*
X101293026Y-109046632D01*
X101316026Y-109060072D01*
X101366345Y-109089476D01*
X101415069Y-109141114D01*
X101428140Y-109210897D01*
X101401409Y-109276669D01*
X101360955Y-109310027D01*
X101348507Y-109316507D01*
X101344374Y-109319610D01*
X101344371Y-109319612D01*
X101174000Y-109447530D01*
X101169865Y-109450635D01*
X101015529Y-109612138D01*
X101012615Y-109616410D01*
X101012614Y-109616411D01*
X101001768Y-109632311D01*
X100889643Y-109796680D01*
X100868014Y-109843276D01*
X100802054Y-109985376D01*
X100795588Y-109999305D01*
X100735889Y-110214570D01*
X100712151Y-110436695D01*
X71506052Y-110436695D01*
X71506186Y-109150000D01*
X81036496Y-109150000D01*
X81037186Y-109156565D01*
X81055636Y-109332104D01*
X81056458Y-109339928D01*
X81115473Y-109521556D01*
X81118776Y-109527278D01*
X81118777Y-109527279D01*
X81152686Y-109586010D01*
X81210960Y-109686944D01*
X81215378Y-109691851D01*
X81215379Y-109691852D01*
X81313994Y-109801375D01*
X81338747Y-109828866D01*
X81415919Y-109884935D01*
X81481724Y-109932745D01*
X81493248Y-109941118D01*
X81499276Y-109943802D01*
X81499278Y-109943803D01*
X81635151Y-110004297D01*
X81667712Y-110018794D01*
X81747342Y-110035720D01*
X81848056Y-110057128D01*
X81848061Y-110057128D01*
X81854513Y-110058500D01*
X82045487Y-110058500D01*
X82051939Y-110057128D01*
X82051944Y-110057128D01*
X82152658Y-110035720D01*
X82232288Y-110018794D01*
X82264849Y-110004297D01*
X82400722Y-109943803D01*
X82400724Y-109943802D01*
X82406752Y-109941118D01*
X82461885Y-109901061D01*
X82528754Y-109877203D01*
X82597905Y-109893284D01*
X82629583Y-109918689D01*
X82634328Y-109923960D01*
X82634336Y-109923968D01*
X82638747Y-109928866D01*
X82650269Y-109937237D01*
X82778912Y-110030702D01*
X82793248Y-110041118D01*
X82799276Y-110043802D01*
X82799278Y-110043803D01*
X82961681Y-110116109D01*
X82967712Y-110118794D01*
X83061112Y-110138647D01*
X83148056Y-110157128D01*
X83148061Y-110157128D01*
X83154513Y-110158500D01*
X83345487Y-110158500D01*
X83351939Y-110157128D01*
X83351944Y-110157128D01*
X83438888Y-110138647D01*
X83532288Y-110118794D01*
X83538319Y-110116109D01*
X83700722Y-110043803D01*
X83700724Y-110043802D01*
X83706752Y-110041118D01*
X83721089Y-110030702D01*
X83764302Y-109999305D01*
X83861253Y-109928866D01*
X83865675Y-109923955D01*
X83984621Y-109791852D01*
X83984622Y-109791851D01*
X83989040Y-109786944D01*
X84050076Y-109681226D01*
X84081223Y-109627279D01*
X84081224Y-109627278D01*
X84084527Y-109621556D01*
X84143542Y-109439928D01*
X84150036Y-109378146D01*
X84162814Y-109256565D01*
X84163504Y-109250000D01*
X84155574Y-109174553D01*
X84144232Y-109066635D01*
X84144232Y-109066633D01*
X84143542Y-109060072D01*
X84084527Y-108878444D01*
X83989040Y-108713056D01*
X83861253Y-108571134D01*
X83730368Y-108476040D01*
X83712094Y-108462763D01*
X83712093Y-108462762D01*
X83706752Y-108458882D01*
X83700724Y-108456198D01*
X83700722Y-108456197D01*
X83538319Y-108383891D01*
X83538318Y-108383891D01*
X83532288Y-108381206D01*
X83438887Y-108361353D01*
X83351944Y-108342872D01*
X83351939Y-108342872D01*
X83345487Y-108341500D01*
X83154513Y-108341500D01*
X83148061Y-108342872D01*
X83148056Y-108342872D01*
X83061113Y-108361353D01*
X82967712Y-108381206D01*
X82961682Y-108383891D01*
X82961681Y-108383891D01*
X82799278Y-108456197D01*
X82799276Y-108456198D01*
X82793248Y-108458882D01*
X82781729Y-108467251D01*
X82738114Y-108498939D01*
X82671246Y-108522797D01*
X82602095Y-108506716D01*
X82570417Y-108481311D01*
X82565672Y-108476040D01*
X82565664Y-108476032D01*
X82561253Y-108471134D01*
X82406752Y-108358882D01*
X82400724Y-108356198D01*
X82400722Y-108356197D01*
X82238319Y-108283891D01*
X82238318Y-108283891D01*
X82232288Y-108281206D01*
X82137307Y-108261017D01*
X82051944Y-108242872D01*
X82051939Y-108242872D01*
X82045487Y-108241500D01*
X81854513Y-108241500D01*
X81848061Y-108242872D01*
X81848056Y-108242872D01*
X81762693Y-108261017D01*
X81667712Y-108281206D01*
X81661682Y-108283891D01*
X81661681Y-108283891D01*
X81499278Y-108356197D01*
X81499276Y-108356198D01*
X81493248Y-108358882D01*
X81338747Y-108471134D01*
X81334326Y-108476044D01*
X81334325Y-108476045D01*
X81245210Y-108575018D01*
X81210960Y-108613056D01*
X81115473Y-108778444D01*
X81056458Y-108960072D01*
X81055768Y-108966633D01*
X81055768Y-108966635D01*
X81045948Y-109060072D01*
X81036496Y-109150000D01*
X71506186Y-109150000D01*
X71506363Y-107450000D01*
X77360996Y-107450000D01*
X77361686Y-107456565D01*
X77379629Y-107627279D01*
X77380958Y-107639928D01*
X77439973Y-107821556D01*
X77535460Y-107986944D01*
X77539878Y-107991851D01*
X77539879Y-107991852D01*
X77654178Y-108118794D01*
X77663247Y-108128866D01*
X77817748Y-108241118D01*
X77823776Y-108243802D01*
X77823778Y-108243803D01*
X77913818Y-108283891D01*
X77992212Y-108318794D01*
X78080870Y-108337639D01*
X78172556Y-108357128D01*
X78172561Y-108357128D01*
X78179013Y-108358500D01*
X78369987Y-108358500D01*
X78376439Y-108357128D01*
X78376444Y-108357128D01*
X78468130Y-108337639D01*
X78556788Y-108318794D01*
X78635182Y-108283891D01*
X78725222Y-108243803D01*
X78725224Y-108243802D01*
X78731252Y-108241118D01*
X78885753Y-108128866D01*
X78894822Y-108118794D01*
X79009121Y-107991852D01*
X79009122Y-107991851D01*
X79013540Y-107986944D01*
X79109027Y-107821556D01*
X79168042Y-107639928D01*
X79169372Y-107627279D01*
X79187314Y-107456565D01*
X79188004Y-107450000D01*
X79181651Y-107389558D01*
X79168732Y-107266635D01*
X79168732Y-107266633D01*
X79168042Y-107260072D01*
X79109027Y-107078444D01*
X79098253Y-107059782D01*
X79032679Y-106946206D01*
X79013540Y-106913056D01*
X79008565Y-106907530D01*
X78890175Y-106776045D01*
X78890174Y-106776044D01*
X78885753Y-106771134D01*
X78731252Y-106658882D01*
X78725224Y-106656198D01*
X78725222Y-106656197D01*
X78562819Y-106583891D01*
X78562818Y-106583891D01*
X78556788Y-106581206D01*
X78450629Y-106558641D01*
X78376444Y-106542872D01*
X78376439Y-106542872D01*
X78369987Y-106541500D01*
X78179013Y-106541500D01*
X78172561Y-106542872D01*
X78172556Y-106542872D01*
X78098371Y-106558641D01*
X77992212Y-106581206D01*
X77986182Y-106583891D01*
X77986181Y-106583891D01*
X77823778Y-106656197D01*
X77823776Y-106656198D01*
X77817748Y-106658882D01*
X77663247Y-106771134D01*
X77658826Y-106776044D01*
X77658825Y-106776045D01*
X77540436Y-106907530D01*
X77535460Y-106913056D01*
X77516321Y-106946206D01*
X77450748Y-107059782D01*
X77439973Y-107078444D01*
X77380958Y-107260072D01*
X77380268Y-107266633D01*
X77380268Y-107266635D01*
X77367349Y-107389558D01*
X77360996Y-107450000D01*
X71506363Y-107450000D01*
X71506397Y-107127279D01*
X71506468Y-106450000D01*
X80936496Y-106450000D01*
X80937186Y-106456565D01*
X80949413Y-106572894D01*
X80956458Y-106639928D01*
X81015473Y-106821556D01*
X81110960Y-106986944D01*
X81115378Y-106991851D01*
X81115379Y-106991852D01*
X81215112Y-107102617D01*
X81238747Y-107128866D01*
X81393248Y-107241118D01*
X81399276Y-107243802D01*
X81399278Y-107243803D01*
X81496175Y-107286944D01*
X81567712Y-107318794D01*
X81661112Y-107338647D01*
X81748056Y-107357128D01*
X81748061Y-107357128D01*
X81754513Y-107358500D01*
X81945487Y-107358500D01*
X81951939Y-107357128D01*
X81951944Y-107357128D01*
X82038887Y-107338647D01*
X82132288Y-107318794D01*
X82203825Y-107286944D01*
X82300722Y-107243803D01*
X82300724Y-107243802D01*
X82306752Y-107241118D01*
X82461253Y-107128866D01*
X82484888Y-107102617D01*
X82584621Y-106991852D01*
X82584622Y-106991851D01*
X82589040Y-106986944D01*
X82684527Y-106821556D01*
X82707777Y-106750000D01*
X86136496Y-106750000D01*
X86137186Y-106756565D01*
X86155399Y-106929848D01*
X86156458Y-106939928D01*
X86215473Y-107121556D01*
X86310960Y-107286944D01*
X86315378Y-107291851D01*
X86315379Y-107291852D01*
X86434325Y-107423955D01*
X86438747Y-107428866D01*
X86593248Y-107541118D01*
X86599276Y-107543802D01*
X86599278Y-107543803D01*
X86696081Y-107586902D01*
X86767712Y-107618794D01*
X86836263Y-107633365D01*
X86948056Y-107657128D01*
X86948061Y-107657128D01*
X86954513Y-107658500D01*
X87145487Y-107658500D01*
X87151939Y-107657128D01*
X87151944Y-107657128D01*
X87263737Y-107633365D01*
X87332288Y-107618794D01*
X87403919Y-107586902D01*
X87500722Y-107543803D01*
X87500724Y-107543802D01*
X87506752Y-107541118D01*
X87661253Y-107428866D01*
X87665675Y-107423955D01*
X87784621Y-107291852D01*
X87784622Y-107291851D01*
X87789040Y-107286944D01*
X87810370Y-107250000D01*
X89536496Y-107250000D01*
X89537186Y-107256565D01*
X89553746Y-107414121D01*
X89556458Y-107439928D01*
X89615473Y-107621556D01*
X89618776Y-107627278D01*
X89618777Y-107627279D01*
X89636803Y-107658500D01*
X89710960Y-107786944D01*
X89715378Y-107791851D01*
X89715379Y-107791852D01*
X89834325Y-107923955D01*
X89838747Y-107928866D01*
X89927350Y-107993240D01*
X89970062Y-108024272D01*
X89993248Y-108041118D01*
X89999276Y-108043802D01*
X89999278Y-108043803D01*
X90158173Y-108114547D01*
X90167712Y-108118794D01*
X90233365Y-108132749D01*
X90348056Y-108157128D01*
X90348061Y-108157128D01*
X90354513Y-108158500D01*
X90545487Y-108158500D01*
X90551939Y-108157128D01*
X90551944Y-108157128D01*
X90666635Y-108132749D01*
X90732288Y-108118794D01*
X90741827Y-108114547D01*
X90900722Y-108043803D01*
X90900724Y-108043802D01*
X90906752Y-108041118D01*
X90929939Y-108024272D01*
X90972650Y-107993240D01*
X91061253Y-107928866D01*
X91065675Y-107923955D01*
X91184621Y-107791852D01*
X91184622Y-107791851D01*
X91189040Y-107786944D01*
X91263197Y-107658500D01*
X91281223Y-107627279D01*
X91281224Y-107627278D01*
X91284527Y-107621556D01*
X91343542Y-107439928D01*
X91346255Y-107414121D01*
X91362814Y-107256565D01*
X91363504Y-107250000D01*
X91350797Y-107129099D01*
X91344232Y-107066635D01*
X91344232Y-107066633D01*
X91343542Y-107060072D01*
X91284527Y-106878444D01*
X91189040Y-106713056D01*
X91133754Y-106651654D01*
X91118137Y-106634310D01*
X91087419Y-106570303D01*
X91096184Y-106499849D01*
X91118137Y-106465690D01*
X91184621Y-106391852D01*
X91184622Y-106391851D01*
X91189040Y-106386944D01*
X91284527Y-106221556D01*
X91343542Y-106039928D01*
X91344872Y-106027279D01*
X91362814Y-105856565D01*
X91363504Y-105850000D01*
X91351037Y-105731379D01*
X91344232Y-105666635D01*
X91344232Y-105666633D01*
X91343542Y-105660072D01*
X91284527Y-105478444D01*
X91189040Y-105313056D01*
X91164844Y-105286183D01*
X91065675Y-105176045D01*
X91065674Y-105176044D01*
X91061253Y-105171134D01*
X90916699Y-105066109D01*
X90912094Y-105062763D01*
X90912093Y-105062762D01*
X90906752Y-105058882D01*
X90900724Y-105056198D01*
X90900722Y-105056197D01*
X90738319Y-104983891D01*
X90738318Y-104983891D01*
X90732288Y-104981206D01*
X90613116Y-104955875D01*
X90551944Y-104942872D01*
X90551939Y-104942872D01*
X90545487Y-104941500D01*
X90354513Y-104941500D01*
X90348061Y-104942872D01*
X90348056Y-104942872D01*
X90286884Y-104955875D01*
X90167712Y-104981206D01*
X90161682Y-104983891D01*
X90161681Y-104983891D01*
X89999278Y-105056197D01*
X89999276Y-105056198D01*
X89993248Y-105058882D01*
X89987907Y-105062762D01*
X89987906Y-105062763D01*
X89983301Y-105066109D01*
X89838747Y-105171134D01*
X89834326Y-105176044D01*
X89834325Y-105176045D01*
X89735157Y-105286183D01*
X89710960Y-105313056D01*
X89615473Y-105478444D01*
X89556458Y-105660072D01*
X89555768Y-105666633D01*
X89555768Y-105666635D01*
X89548963Y-105731379D01*
X89536496Y-105850000D01*
X89537186Y-105856565D01*
X89555129Y-106027279D01*
X89556458Y-106039928D01*
X89615473Y-106221556D01*
X89710960Y-106386944D01*
X89715378Y-106391851D01*
X89715379Y-106391852D01*
X89781863Y-106465690D01*
X89812581Y-106529697D01*
X89803816Y-106600151D01*
X89781863Y-106634310D01*
X89766247Y-106651654D01*
X89710960Y-106713056D01*
X89615473Y-106878444D01*
X89556458Y-107060072D01*
X89555768Y-107066633D01*
X89555768Y-107066635D01*
X89549203Y-107129099D01*
X89536496Y-107250000D01*
X87810370Y-107250000D01*
X87884527Y-107121556D01*
X87943542Y-106939928D01*
X87944602Y-106929848D01*
X87962814Y-106756565D01*
X87963504Y-106750000D01*
X87959105Y-106708148D01*
X87944232Y-106566635D01*
X87944232Y-106566633D01*
X87943542Y-106560072D01*
X87884527Y-106378444D01*
X87789040Y-106213056D01*
X87683661Y-106096020D01*
X87665675Y-106076045D01*
X87665674Y-106076044D01*
X87661253Y-106071134D01*
X87554289Y-105993420D01*
X87512094Y-105962763D01*
X87512093Y-105962762D01*
X87506752Y-105958882D01*
X87500724Y-105956198D01*
X87500722Y-105956197D01*
X87338319Y-105883891D01*
X87338318Y-105883891D01*
X87332288Y-105881206D01*
X87238887Y-105861353D01*
X87151944Y-105842872D01*
X87151939Y-105842872D01*
X87145487Y-105841500D01*
X86954513Y-105841500D01*
X86948061Y-105842872D01*
X86948056Y-105842872D01*
X86861113Y-105861353D01*
X86767712Y-105881206D01*
X86761682Y-105883891D01*
X86761681Y-105883891D01*
X86599278Y-105956197D01*
X86599276Y-105956198D01*
X86593248Y-105958882D01*
X86587907Y-105962762D01*
X86587906Y-105962763D01*
X86545711Y-105993420D01*
X86438747Y-106071134D01*
X86434326Y-106076044D01*
X86434325Y-106076045D01*
X86416340Y-106096020D01*
X86310960Y-106213056D01*
X86215473Y-106378444D01*
X86156458Y-106560072D01*
X86155768Y-106566633D01*
X86155768Y-106566635D01*
X86140895Y-106708148D01*
X86136496Y-106750000D01*
X82707777Y-106750000D01*
X82743542Y-106639928D01*
X82750588Y-106572894D01*
X82762814Y-106456565D01*
X82763504Y-106450000D01*
X82762163Y-106437237D01*
X82744232Y-106266635D01*
X82744232Y-106266633D01*
X82743542Y-106260072D01*
X82684527Y-106078444D01*
X82589040Y-105913056D01*
X82576372Y-105898986D01*
X82465675Y-105776045D01*
X82465674Y-105776044D01*
X82461253Y-105771134D01*
X82339824Y-105682910D01*
X82312094Y-105662763D01*
X82312093Y-105662762D01*
X82306752Y-105658882D01*
X82300724Y-105656198D01*
X82300722Y-105656197D01*
X82138319Y-105583891D01*
X82138318Y-105583891D01*
X82132288Y-105581206D01*
X82031412Y-105559764D01*
X81951944Y-105542872D01*
X81951939Y-105542872D01*
X81945487Y-105541500D01*
X81754513Y-105541500D01*
X81748061Y-105542872D01*
X81748056Y-105542872D01*
X81668588Y-105559764D01*
X81567712Y-105581206D01*
X81561682Y-105583891D01*
X81561681Y-105583891D01*
X81399278Y-105656197D01*
X81399276Y-105656198D01*
X81393248Y-105658882D01*
X81387907Y-105662762D01*
X81387906Y-105662763D01*
X81360176Y-105682910D01*
X81238747Y-105771134D01*
X81234326Y-105776044D01*
X81234325Y-105776045D01*
X81123629Y-105898986D01*
X81110960Y-105913056D01*
X81015473Y-106078444D01*
X80956458Y-106260072D01*
X80955768Y-106266633D01*
X80955768Y-106266635D01*
X80937837Y-106437237D01*
X80936496Y-106450000D01*
X71506468Y-106450000D01*
X71506703Y-104200000D01*
X79686496Y-104200000D01*
X79706458Y-104389928D01*
X79765473Y-104571556D01*
X79768776Y-104577278D01*
X79768777Y-104577279D01*
X79774981Y-104588024D01*
X79860960Y-104736944D01*
X79865378Y-104741851D01*
X79865379Y-104741852D01*
X79903231Y-104783891D01*
X79988747Y-104878866D01*
X80143248Y-104991118D01*
X80149276Y-104993802D01*
X80149278Y-104993803D01*
X80294225Y-105058337D01*
X80317712Y-105068794D01*
X80411112Y-105088647D01*
X80498056Y-105107128D01*
X80498061Y-105107128D01*
X80504513Y-105108500D01*
X80695487Y-105108500D01*
X80701939Y-105107128D01*
X80701944Y-105107128D01*
X80788888Y-105088647D01*
X80882288Y-105068794D01*
X80905775Y-105058337D01*
X81050722Y-104993803D01*
X81050724Y-104993802D01*
X81056752Y-104991118D01*
X81211253Y-104878866D01*
X81296769Y-104783891D01*
X81334621Y-104741852D01*
X81334622Y-104741851D01*
X81339040Y-104736944D01*
X81425019Y-104588024D01*
X81431223Y-104577279D01*
X81431224Y-104577278D01*
X81434527Y-104571556D01*
X81493542Y-104389928D01*
X81513504Y-104200000D01*
X81508645Y-104153767D01*
X81494232Y-104016635D01*
X81494232Y-104016633D01*
X81493542Y-104010072D01*
X81434527Y-103828444D01*
X81388160Y-103748134D01*
X100716400Y-103748134D01*
X100723155Y-103810316D01*
X100774285Y-103946705D01*
X100861639Y-104063261D01*
X100978195Y-104150615D01*
X100986604Y-104153767D01*
X100986605Y-104153768D01*
X101095860Y-104194726D01*
X101152625Y-104237367D01*
X101177325Y-104303929D01*
X101162118Y-104373278D01*
X101142725Y-104399759D01*
X101019490Y-104528717D01*
X101013004Y-104536727D01*
X100892998Y-104712649D01*
X100887900Y-104721623D01*
X100798238Y-104914783D01*
X100794675Y-104924470D01*
X100739289Y-105124183D01*
X100740812Y-105132607D01*
X100753192Y-105136000D01*
X103393244Y-105136000D01*
X103406775Y-105132027D01*
X103408080Y-105122947D01*
X103366114Y-104955875D01*
X103362794Y-104946124D01*
X103277872Y-104750814D01*
X103273005Y-104741739D01*
X103157326Y-104562926D01*
X103151036Y-104554757D01*
X103082045Y-104478938D01*
X105968860Y-104478938D01*
X105969157Y-104484090D01*
X105969157Y-104484094D01*
X105980558Y-104681806D01*
X105982903Y-104722478D01*
X105984040Y-104727524D01*
X105984041Y-104727530D01*
X106007107Y-104829882D01*
X106036533Y-104960454D01*
X106038475Y-104965236D01*
X106038476Y-104965240D01*
X106122081Y-105171134D01*
X106128311Y-105186476D01*
X106255772Y-105394473D01*
X106415492Y-105578860D01*
X106603183Y-105734684D01*
X106813804Y-105857760D01*
X106818629Y-105859602D01*
X106818630Y-105859603D01*
X106875202Y-105881206D01*
X107041698Y-105944785D01*
X107046764Y-105945816D01*
X107046765Y-105945816D01*
X107275667Y-105992387D01*
X107275671Y-105992387D01*
X107280746Y-105993420D01*
X107285922Y-105993610D01*
X107285924Y-105993610D01*
X107519363Y-106002170D01*
X107519367Y-106002170D01*
X107524527Y-106002359D01*
X107529647Y-106001703D01*
X107529649Y-106001703D01*
X107606377Y-105991874D01*
X107766494Y-105971362D01*
X107771443Y-105969877D01*
X107771449Y-105969876D01*
X107995200Y-105902747D01*
X107995199Y-105902747D01*
X108000150Y-105901262D01*
X108219219Y-105793941D01*
X108223424Y-105790941D01*
X108223430Y-105790938D01*
X108413614Y-105655281D01*
X108413616Y-105655279D01*
X108417818Y-105652282D01*
X108590614Y-105480088D01*
X108732966Y-105281984D01*
X108811567Y-105122947D01*
X108838756Y-105067933D01*
X108838757Y-105067931D01*
X108841050Y-105063291D01*
X108877637Y-104942872D01*
X108910462Y-104834834D01*
X108910463Y-104834828D01*
X108911966Y-104829882D01*
X108943807Y-104588024D01*
X108944070Y-104577279D01*
X108945502Y-104518672D01*
X108945502Y-104518668D01*
X108945584Y-104515307D01*
X108925596Y-104272183D01*
X108866167Y-104035587D01*
X108778831Y-103834729D01*
X108770954Y-103816612D01*
X108770952Y-103816609D01*
X108768894Y-103811875D01*
X108636390Y-103607055D01*
X108562677Y-103526045D01*
X108475690Y-103430448D01*
X108475688Y-103430447D01*
X108472212Y-103426626D01*
X108468161Y-103423427D01*
X108468157Y-103423423D01*
X108284825Y-103278636D01*
X108284821Y-103278634D01*
X108280770Y-103275434D01*
X108067205Y-103157540D01*
X108062336Y-103155816D01*
X108062332Y-103155814D01*
X107842127Y-103077835D01*
X107842123Y-103077834D01*
X107837252Y-103076109D01*
X107832159Y-103075202D01*
X107832156Y-103075201D01*
X107602177Y-103034235D01*
X107602171Y-103034234D01*
X107597088Y-103033329D01*
X107517380Y-103032355D01*
X107358332Y-103030412D01*
X107358330Y-103030412D01*
X107353162Y-103030349D01*
X107112024Y-103067248D01*
X106880150Y-103143036D01*
X106663769Y-103255677D01*
X106659636Y-103258780D01*
X106659633Y-103258782D01*
X106563174Y-103331206D01*
X106468690Y-103402147D01*
X106465118Y-103405885D01*
X106350291Y-103526045D01*
X106300153Y-103578511D01*
X106297239Y-103582783D01*
X106297238Y-103582784D01*
X106277719Y-103611398D01*
X106162684Y-103780033D01*
X106145705Y-103816612D01*
X106081982Y-103953891D01*
X106059974Y-104001302D01*
X105994783Y-104236374D01*
X105968860Y-104478938D01*
X103082045Y-104478938D01*
X103007193Y-104396677D01*
X102976141Y-104332831D01*
X102984535Y-104262333D01*
X103029712Y-104207564D01*
X103056156Y-104193895D01*
X103163197Y-104153767D01*
X103171605Y-104150615D01*
X103288161Y-104063261D01*
X103375515Y-103946705D01*
X103426645Y-103810316D01*
X103433400Y-103748134D01*
X103433400Y-101951866D01*
X103426645Y-101889684D01*
X103375515Y-101753295D01*
X103288161Y-101636739D01*
X103171605Y-101549385D01*
X103035216Y-101498255D01*
X102973034Y-101491500D01*
X101176766Y-101491500D01*
X101114584Y-101498255D01*
X100978195Y-101549385D01*
X100861639Y-101636739D01*
X100774285Y-101753295D01*
X100723155Y-101889684D01*
X100716400Y-101951866D01*
X100716400Y-103748134D01*
X81388160Y-103748134D01*
X81339040Y-103663056D01*
X81262916Y-103578511D01*
X81215675Y-103526045D01*
X81215674Y-103526044D01*
X81211253Y-103521134D01*
X81086434Y-103430447D01*
X81062094Y-103412763D01*
X81062093Y-103412762D01*
X81056752Y-103408882D01*
X81050724Y-103406198D01*
X81050722Y-103406197D01*
X80888319Y-103333891D01*
X80888318Y-103333891D01*
X80882288Y-103331206D01*
X80788888Y-103311353D01*
X80701944Y-103292872D01*
X80701939Y-103292872D01*
X80695487Y-103291500D01*
X80504513Y-103291500D01*
X80498061Y-103292872D01*
X80498056Y-103292872D01*
X80411112Y-103311353D01*
X80317712Y-103331206D01*
X80311682Y-103333891D01*
X80311681Y-103333891D01*
X80149278Y-103406197D01*
X80149276Y-103406198D01*
X80143248Y-103408882D01*
X80137907Y-103412762D01*
X80137906Y-103412763D01*
X80113566Y-103430447D01*
X79988747Y-103521134D01*
X79984326Y-103526044D01*
X79984325Y-103526045D01*
X79937085Y-103578511D01*
X79860960Y-103663056D01*
X79765473Y-103828444D01*
X79706458Y-104010072D01*
X79705768Y-104016633D01*
X79705768Y-104016635D01*
X79691355Y-104153767D01*
X79686496Y-104200000D01*
X71506703Y-104200000D01*
X71507090Y-100495265D01*
X105968860Y-100495265D01*
X105969157Y-100500417D01*
X105969157Y-100500421D01*
X105980558Y-100698133D01*
X105982903Y-100738805D01*
X105984040Y-100743851D01*
X105984041Y-100743857D01*
X106007107Y-100846209D01*
X106036533Y-100976781D01*
X106038475Y-100981563D01*
X106038476Y-100981567D01*
X106126367Y-101198016D01*
X106128311Y-101202803D01*
X106255772Y-101410800D01*
X106415492Y-101595187D01*
X106507542Y-101671608D01*
X106597279Y-101746109D01*
X106603183Y-101751011D01*
X106813804Y-101874087D01*
X107041698Y-101961112D01*
X107046764Y-101962143D01*
X107046765Y-101962143D01*
X107275667Y-102008714D01*
X107275671Y-102008714D01*
X107280746Y-102009747D01*
X107285922Y-102009937D01*
X107285924Y-102009937D01*
X107519363Y-102018497D01*
X107519367Y-102018497D01*
X107524527Y-102018686D01*
X107529647Y-102018030D01*
X107529649Y-102018030D01*
X107606377Y-102008201D01*
X107766494Y-101987689D01*
X107771443Y-101986204D01*
X107771449Y-101986203D01*
X107995200Y-101919074D01*
X107995199Y-101919074D01*
X108000150Y-101917589D01*
X108219219Y-101810268D01*
X108223424Y-101807268D01*
X108223430Y-101807265D01*
X108413614Y-101671608D01*
X108413616Y-101671606D01*
X108417818Y-101668609D01*
X108590614Y-101496415D01*
X108732966Y-101298311D01*
X108841050Y-101079618D01*
X108873827Y-100971739D01*
X108910462Y-100851161D01*
X108910463Y-100851155D01*
X108911966Y-100846209D01*
X108943807Y-100604351D01*
X108945584Y-100531634D01*
X108925596Y-100288510D01*
X108866167Y-100051914D01*
X108768894Y-99828202D01*
X108636390Y-99623382D01*
X108472212Y-99442953D01*
X108468161Y-99439754D01*
X108468157Y-99439750D01*
X108284825Y-99294963D01*
X108284821Y-99294961D01*
X108280770Y-99291761D01*
X108067205Y-99173867D01*
X108062336Y-99172143D01*
X108062332Y-99172141D01*
X107842127Y-99094162D01*
X107842123Y-99094161D01*
X107837252Y-99092436D01*
X107832159Y-99091529D01*
X107832156Y-99091528D01*
X107602177Y-99050562D01*
X107602171Y-99050561D01*
X107597088Y-99049656D01*
X107517380Y-99048682D01*
X107358332Y-99046739D01*
X107358330Y-99046739D01*
X107353162Y-99046676D01*
X107112024Y-99083575D01*
X106880150Y-99159363D01*
X106663769Y-99272004D01*
X106659636Y-99275107D01*
X106659633Y-99275109D01*
X106472825Y-99415369D01*
X106468690Y-99418474D01*
X106300153Y-99594838D01*
X106297239Y-99599110D01*
X106297238Y-99599111D01*
X106277719Y-99627725D01*
X106162684Y-99796360D01*
X106059974Y-100017629D01*
X105994783Y-100252701D01*
X105968860Y-100495265D01*
X71507090Y-100495265D01*
X71507304Y-98450400D01*
X101416500Y-98450400D01*
X101416837Y-98453646D01*
X101416837Y-98453650D01*
X101426441Y-98546206D01*
X101427474Y-98556166D01*
X101483450Y-98723946D01*
X101576522Y-98874348D01*
X101701697Y-98999305D01*
X101707927Y-99003145D01*
X101707928Y-99003146D01*
X101845090Y-99087694D01*
X101852262Y-99092115D01*
X101932005Y-99118564D01*
X102013611Y-99145632D01*
X102013613Y-99145632D01*
X102020139Y-99147797D01*
X102026975Y-99148497D01*
X102026978Y-99148498D01*
X102070031Y-99152909D01*
X102124600Y-99158500D01*
X103475400Y-99158500D01*
X103478646Y-99158163D01*
X103478650Y-99158163D01*
X103574308Y-99148238D01*
X103574312Y-99148237D01*
X103581166Y-99147526D01*
X103587702Y-99145345D01*
X103587704Y-99145345D01*
X103719806Y-99101272D01*
X103748946Y-99091550D01*
X103899348Y-98998478D01*
X103916944Y-98980852D01*
X103979225Y-98946772D01*
X104050046Y-98951775D01*
X104099751Y-98985557D01*
X104138747Y-99028866D01*
X104293248Y-99141118D01*
X104299276Y-99143802D01*
X104299278Y-99143803D01*
X104461681Y-99216109D01*
X104467712Y-99218794D01*
X104561112Y-99238647D01*
X104648056Y-99257128D01*
X104648061Y-99257128D01*
X104654513Y-99258500D01*
X104845487Y-99258500D01*
X104851939Y-99257128D01*
X104851944Y-99257128D01*
X104938888Y-99238647D01*
X105032288Y-99218794D01*
X105038319Y-99216109D01*
X105200722Y-99143803D01*
X105200724Y-99143802D01*
X105206752Y-99141118D01*
X105361253Y-99028866D01*
X105387870Y-98999305D01*
X105484621Y-98891852D01*
X105484622Y-98891851D01*
X105489040Y-98886944D01*
X105584527Y-98721556D01*
X105643542Y-98539928D01*
X105663504Y-98350000D01*
X105643542Y-98160072D01*
X105584527Y-97978444D01*
X105489040Y-97813056D01*
X105450226Y-97769948D01*
X105365675Y-97676045D01*
X105365674Y-97676044D01*
X105361253Y-97671134D01*
X105206752Y-97558882D01*
X105200724Y-97556198D01*
X105200722Y-97556197D01*
X105038319Y-97483891D01*
X105038318Y-97483891D01*
X105032288Y-97481206D01*
X104938887Y-97461353D01*
X104851944Y-97442872D01*
X104851939Y-97442872D01*
X104845487Y-97441500D01*
X104654513Y-97441500D01*
X104648061Y-97442872D01*
X104648056Y-97442872D01*
X104561113Y-97461353D01*
X104467712Y-97481206D01*
X104461685Y-97483889D01*
X104461677Y-97483892D01*
X104319343Y-97547263D01*
X104248976Y-97556697D01*
X104184679Y-97526590D01*
X104148571Y-97472032D01*
X104118868Y-97383002D01*
X104116550Y-97376054D01*
X104023478Y-97225652D01*
X103898303Y-97100695D01*
X103892069Y-97096852D01*
X103846310Y-97068645D01*
X103798817Y-97015873D01*
X103787395Y-96945801D01*
X103815669Y-96880677D01*
X103834597Y-96862298D01*
X103837856Y-96859738D01*
X103846506Y-96851501D01*
X103977212Y-96700877D01*
X103984147Y-96691153D01*
X104084010Y-96518533D01*
X104087188Y-96511592D01*
X105968860Y-96511592D01*
X105969157Y-96516744D01*
X105969157Y-96516748D01*
X105978151Y-96672721D01*
X105982903Y-96755132D01*
X105984040Y-96760178D01*
X105984041Y-96760184D01*
X106006477Y-96859738D01*
X106036533Y-96993108D01*
X106038475Y-96997890D01*
X106038476Y-96997894D01*
X106126367Y-97214343D01*
X106128311Y-97219130D01*
X106255772Y-97427127D01*
X106415492Y-97611514D01*
X106603183Y-97767338D01*
X106813804Y-97890414D01*
X107041698Y-97977439D01*
X107046764Y-97978470D01*
X107046765Y-97978470D01*
X107275667Y-98025041D01*
X107275671Y-98025041D01*
X107280746Y-98026074D01*
X107285922Y-98026264D01*
X107285924Y-98026264D01*
X107519363Y-98034824D01*
X107519367Y-98034824D01*
X107524527Y-98035013D01*
X107529647Y-98034357D01*
X107529649Y-98034357D01*
X107606377Y-98024528D01*
X107766494Y-98004016D01*
X107771443Y-98002531D01*
X107771449Y-98002530D01*
X107995200Y-97935401D01*
X107995199Y-97935401D01*
X108000150Y-97933916D01*
X108219219Y-97826595D01*
X108223424Y-97823595D01*
X108223430Y-97823592D01*
X108413614Y-97687935D01*
X108413616Y-97687933D01*
X108417818Y-97684936D01*
X108590614Y-97512742D01*
X108732966Y-97314638D01*
X108773134Y-97233365D01*
X108838756Y-97100587D01*
X108838757Y-97100585D01*
X108841050Y-97095945D01*
X108873827Y-96988066D01*
X108910462Y-96867488D01*
X108910463Y-96867482D01*
X108911966Y-96862536D01*
X108936202Y-96678444D01*
X108943370Y-96623999D01*
X108943370Y-96623995D01*
X108943807Y-96620678D01*
X108944075Y-96609724D01*
X108945502Y-96551326D01*
X108945502Y-96551322D01*
X108945584Y-96547961D01*
X108925596Y-96304837D01*
X108866167Y-96068241D01*
X108768894Y-95844529D01*
X108636390Y-95639709D01*
X108593280Y-95592331D01*
X108475690Y-95463102D01*
X108475688Y-95463101D01*
X108472212Y-95459280D01*
X108468161Y-95456081D01*
X108468157Y-95456077D01*
X108284825Y-95311290D01*
X108284821Y-95311288D01*
X108280770Y-95308088D01*
X108067205Y-95190194D01*
X108062336Y-95188470D01*
X108062332Y-95188468D01*
X107842127Y-95110489D01*
X107842123Y-95110488D01*
X107837252Y-95108763D01*
X107832159Y-95107856D01*
X107832156Y-95107855D01*
X107602177Y-95066889D01*
X107602171Y-95066888D01*
X107597088Y-95065983D01*
X107517380Y-95065009D01*
X107358332Y-95063066D01*
X107358330Y-95063066D01*
X107353162Y-95063003D01*
X107112024Y-95099902D01*
X106880150Y-95175690D01*
X106855604Y-95188468D01*
X106698664Y-95270166D01*
X106663769Y-95288331D01*
X106659636Y-95291434D01*
X106659633Y-95291436D01*
X106472825Y-95431696D01*
X106468690Y-95434801D01*
X106300153Y-95611165D01*
X106297239Y-95615437D01*
X106297238Y-95615438D01*
X106269183Y-95656565D01*
X106162684Y-95812687D01*
X106147125Y-95846206D01*
X106065730Y-96021556D01*
X106059974Y-96033956D01*
X105994783Y-96269028D01*
X105968860Y-96511592D01*
X104087188Y-96511592D01*
X104088984Y-96507669D01*
X104154407Y-96319273D01*
X104154648Y-96318284D01*
X104153180Y-96307992D01*
X104139615Y-96304000D01*
X101464598Y-96304000D01*
X101451067Y-96307973D01*
X101449712Y-96317399D01*
X101471194Y-96406537D01*
X101475083Y-96417832D01*
X101557629Y-96599382D01*
X101563576Y-96609724D01*
X101678968Y-96772397D01*
X101686761Y-96781425D01*
X101777757Y-96868535D01*
X101813133Y-96930090D01*
X101809614Y-97001000D01*
X101768317Y-97058750D01*
X101756947Y-97066685D01*
X101700652Y-97101522D01*
X101575695Y-97226697D01*
X101571855Y-97232927D01*
X101571854Y-97232928D01*
X101524347Y-97309999D01*
X101482885Y-97377262D01*
X101467805Y-97422726D01*
X101436739Y-97516390D01*
X101427203Y-97545139D01*
X101426503Y-97551975D01*
X101426502Y-97551978D01*
X101422920Y-97586944D01*
X101416500Y-97649600D01*
X101416500Y-98450400D01*
X71507304Y-98450400D01*
X71507450Y-97050000D01*
X75586496Y-97050000D01*
X75587186Y-97056565D01*
X75604958Y-97225652D01*
X75606458Y-97239928D01*
X75665473Y-97421556D01*
X75760960Y-97586944D01*
X75765378Y-97591851D01*
X75765379Y-97591852D01*
X75884325Y-97723955D01*
X75888747Y-97728866D01*
X75987843Y-97800864D01*
X76019126Y-97823592D01*
X76043248Y-97841118D01*
X76049276Y-97843802D01*
X76049278Y-97843803D01*
X76211681Y-97916109D01*
X76217712Y-97918794D01*
X76311113Y-97938647D01*
X76398056Y-97957128D01*
X76398061Y-97957128D01*
X76404513Y-97958500D01*
X76595487Y-97958500D01*
X76601939Y-97957128D01*
X76601944Y-97957128D01*
X76688888Y-97938647D01*
X76782288Y-97918794D01*
X76788319Y-97916109D01*
X76950722Y-97843803D01*
X76950724Y-97843802D01*
X76956752Y-97841118D01*
X76980875Y-97823592D01*
X77012157Y-97800864D01*
X77111253Y-97728866D01*
X77115675Y-97723955D01*
X77234621Y-97591852D01*
X77234622Y-97591851D01*
X77239040Y-97586944D01*
X77334527Y-97421556D01*
X77393542Y-97239928D01*
X77395043Y-97225652D01*
X77412814Y-97056565D01*
X77413504Y-97050000D01*
X96936496Y-97050000D01*
X96937186Y-97056565D01*
X96954958Y-97225652D01*
X96956458Y-97239928D01*
X97015473Y-97421556D01*
X97110960Y-97586944D01*
X97115378Y-97591851D01*
X97115379Y-97591852D01*
X97234325Y-97723955D01*
X97238747Y-97728866D01*
X97337843Y-97800864D01*
X97369126Y-97823592D01*
X97393248Y-97841118D01*
X97399276Y-97843802D01*
X97399278Y-97843803D01*
X97561681Y-97916109D01*
X97567712Y-97918794D01*
X97661113Y-97938647D01*
X97748056Y-97957128D01*
X97748061Y-97957128D01*
X97754513Y-97958500D01*
X97945487Y-97958500D01*
X97951939Y-97957128D01*
X97951944Y-97957128D01*
X98038888Y-97938647D01*
X98132288Y-97918794D01*
X98138319Y-97916109D01*
X98300722Y-97843803D01*
X98300724Y-97843802D01*
X98306752Y-97841118D01*
X98330875Y-97823592D01*
X98362157Y-97800864D01*
X98461253Y-97728866D01*
X98465675Y-97723955D01*
X98584621Y-97591852D01*
X98584622Y-97591851D01*
X98589040Y-97586944D01*
X98684527Y-97421556D01*
X98743542Y-97239928D01*
X98745043Y-97225652D01*
X98762814Y-97056565D01*
X98763504Y-97050000D01*
X98758028Y-96997894D01*
X98744232Y-96866635D01*
X98744232Y-96866633D01*
X98743542Y-96860072D01*
X98684527Y-96678444D01*
X98589040Y-96513056D01*
X98526685Y-96443803D01*
X98465675Y-96376045D01*
X98465674Y-96376044D01*
X98461253Y-96371134D01*
X98320717Y-96269028D01*
X98312094Y-96262763D01*
X98312093Y-96262762D01*
X98306752Y-96258882D01*
X98300724Y-96256198D01*
X98300722Y-96256197D01*
X98138319Y-96183891D01*
X98138318Y-96183891D01*
X98132288Y-96181206D01*
X98038887Y-96161353D01*
X97951944Y-96142872D01*
X97951939Y-96142872D01*
X97945487Y-96141500D01*
X97754513Y-96141500D01*
X97748061Y-96142872D01*
X97748056Y-96142872D01*
X97661113Y-96161353D01*
X97567712Y-96181206D01*
X97561682Y-96183891D01*
X97561681Y-96183891D01*
X97399278Y-96256197D01*
X97399276Y-96256198D01*
X97393248Y-96258882D01*
X97387907Y-96262762D01*
X97387906Y-96262763D01*
X97379283Y-96269028D01*
X97238747Y-96371134D01*
X97234326Y-96376044D01*
X97234325Y-96376045D01*
X97173316Y-96443803D01*
X97110960Y-96513056D01*
X97015473Y-96678444D01*
X96956458Y-96860072D01*
X96955768Y-96866633D01*
X96955768Y-96866635D01*
X96941972Y-96997894D01*
X96936496Y-97050000D01*
X77413504Y-97050000D01*
X77408028Y-96997894D01*
X77394232Y-96866635D01*
X77394232Y-96866633D01*
X77393542Y-96860072D01*
X77334527Y-96678444D01*
X77239040Y-96513056D01*
X77176685Y-96443803D01*
X77115675Y-96376045D01*
X77115674Y-96376044D01*
X77111253Y-96371134D01*
X76970717Y-96269028D01*
X76962094Y-96262763D01*
X76962093Y-96262762D01*
X76956752Y-96258882D01*
X76950724Y-96256198D01*
X76950722Y-96256197D01*
X76788319Y-96183891D01*
X76788318Y-96183891D01*
X76782288Y-96181206D01*
X76688887Y-96161353D01*
X76601944Y-96142872D01*
X76601939Y-96142872D01*
X76595487Y-96141500D01*
X76404513Y-96141500D01*
X76398061Y-96142872D01*
X76398056Y-96142872D01*
X76311113Y-96161353D01*
X76217712Y-96181206D01*
X76211682Y-96183891D01*
X76211681Y-96183891D01*
X76049278Y-96256197D01*
X76049276Y-96256198D01*
X76043248Y-96258882D01*
X76037907Y-96262762D01*
X76037906Y-96262763D01*
X76029283Y-96269028D01*
X75888747Y-96371134D01*
X75884326Y-96376044D01*
X75884325Y-96376045D01*
X75823316Y-96443803D01*
X75760960Y-96513056D01*
X75665473Y-96678444D01*
X75606458Y-96860072D01*
X75605768Y-96866633D01*
X75605768Y-96866635D01*
X75591972Y-96997894D01*
X75586496Y-97050000D01*
X71507450Y-97050000D01*
X71507685Y-94800000D01*
X72136496Y-94800000D01*
X72137186Y-94806565D01*
X72155129Y-94977279D01*
X72156458Y-94989928D01*
X72215473Y-95171556D01*
X72218776Y-95177278D01*
X72218777Y-95177279D01*
X72220728Y-95180658D01*
X72310960Y-95336944D01*
X72315378Y-95341851D01*
X72315379Y-95341852D01*
X72427730Y-95466630D01*
X72438747Y-95478866D01*
X72500577Y-95523788D01*
X72579965Y-95581467D01*
X72593248Y-95591118D01*
X72599276Y-95593802D01*
X72599278Y-95593803D01*
X72740245Y-95656565D01*
X72767712Y-95668794D01*
X72861112Y-95688647D01*
X72948056Y-95707128D01*
X72948061Y-95707128D01*
X72954513Y-95708500D01*
X73145487Y-95708500D01*
X73151939Y-95707128D01*
X73151944Y-95707128D01*
X73190201Y-95698996D01*
X73201457Y-95696603D01*
X73272248Y-95702005D01*
X73328880Y-95744822D01*
X73352964Y-95806680D01*
X73356458Y-95839928D01*
X73415473Y-96021556D01*
X73510960Y-96186944D01*
X73515378Y-96191851D01*
X73515379Y-96191852D01*
X73617111Y-96304837D01*
X73638747Y-96328866D01*
X73691579Y-96367251D01*
X73745652Y-96406537D01*
X73793248Y-96441118D01*
X73799276Y-96443802D01*
X73799278Y-96443803D01*
X73951536Y-96511592D01*
X73967712Y-96518794D01*
X74061113Y-96538647D01*
X74148056Y-96557128D01*
X74148061Y-96557128D01*
X74154513Y-96558500D01*
X74345487Y-96558500D01*
X74351939Y-96557128D01*
X74351944Y-96557128D01*
X74438887Y-96538647D01*
X74532288Y-96518794D01*
X74548464Y-96511592D01*
X74700722Y-96443803D01*
X74700724Y-96443802D01*
X74706752Y-96441118D01*
X74754349Y-96406537D01*
X74808421Y-96367251D01*
X74861253Y-96328866D01*
X74882889Y-96304837D01*
X74984621Y-96191852D01*
X74984622Y-96191851D01*
X74989040Y-96186944D01*
X75084527Y-96021556D01*
X75143542Y-95839928D01*
X75145912Y-95817384D01*
X75162814Y-95656565D01*
X75163504Y-95650000D01*
X75143542Y-95460072D01*
X75084527Y-95278444D01*
X75077406Y-95266109D01*
X75035659Y-95193803D01*
X74989040Y-95113056D01*
X74961752Y-95082749D01*
X74865675Y-94976045D01*
X74865674Y-94976044D01*
X74861253Y-94971134D01*
X74706752Y-94858882D01*
X74700724Y-94856198D01*
X74700722Y-94856197D01*
X74538319Y-94783891D01*
X74538318Y-94783891D01*
X74532288Y-94781206D01*
X74438888Y-94761353D01*
X74351944Y-94742872D01*
X74351939Y-94742872D01*
X74345487Y-94741500D01*
X74154513Y-94741500D01*
X74148061Y-94742872D01*
X74148056Y-94742872D01*
X74109799Y-94751004D01*
X74098543Y-94753397D01*
X74027752Y-94747995D01*
X73971120Y-94705178D01*
X73947036Y-94643319D01*
X73944232Y-94616635D01*
X73944232Y-94616633D01*
X73943542Y-94610072D01*
X73884527Y-94428444D01*
X73868105Y-94400000D01*
X77036496Y-94400000D01*
X77056458Y-94589928D01*
X77115473Y-94771556D01*
X77118776Y-94777278D01*
X77118777Y-94777279D01*
X77126080Y-94789928D01*
X77210960Y-94936944D01*
X77215378Y-94941851D01*
X77215379Y-94941852D01*
X77256083Y-94987058D01*
X77338747Y-95078866D01*
X77493248Y-95191118D01*
X77499276Y-95193802D01*
X77499278Y-95193803D01*
X77622128Y-95248499D01*
X77667712Y-95268794D01*
X77733365Y-95282749D01*
X77848056Y-95307128D01*
X77848061Y-95307128D01*
X77854513Y-95308500D01*
X78045487Y-95308500D01*
X78051939Y-95307128D01*
X78051944Y-95307128D01*
X78166635Y-95282749D01*
X78232288Y-95268794D01*
X78277872Y-95248499D01*
X78400722Y-95193803D01*
X78400724Y-95193802D01*
X78406752Y-95191118D01*
X78561253Y-95078866D01*
X78643917Y-94987058D01*
X78684621Y-94941852D01*
X78684622Y-94941851D01*
X78689040Y-94936944D01*
X78773920Y-94789928D01*
X78781223Y-94777279D01*
X78781224Y-94777278D01*
X78784527Y-94771556D01*
X78840269Y-94600000D01*
X79536496Y-94600000D01*
X79537186Y-94606565D01*
X79555129Y-94777279D01*
X79556458Y-94789928D01*
X79615473Y-94971556D01*
X79710960Y-95136944D01*
X79715378Y-95141851D01*
X79715379Y-95141852D01*
X79829678Y-95268794D01*
X79838747Y-95278866D01*
X79993248Y-95391118D01*
X79999276Y-95393802D01*
X79999278Y-95393803D01*
X80134021Y-95453794D01*
X80167712Y-95468794D01*
X80233365Y-95482749D01*
X80348056Y-95507128D01*
X80348061Y-95507128D01*
X80354513Y-95508500D01*
X80545487Y-95508500D01*
X80551939Y-95507128D01*
X80551944Y-95507128D01*
X80666635Y-95482749D01*
X80732288Y-95468794D01*
X80765979Y-95453794D01*
X80900722Y-95393803D01*
X80900724Y-95393802D01*
X80906752Y-95391118D01*
X81061253Y-95278866D01*
X81070322Y-95268794D01*
X81184621Y-95141852D01*
X81184622Y-95141851D01*
X81189040Y-95136944D01*
X81284527Y-94971556D01*
X81343542Y-94789928D01*
X81344872Y-94777279D01*
X81362814Y-94606565D01*
X81363504Y-94600000D01*
X81354964Y-94518742D01*
X81344232Y-94416635D01*
X81344232Y-94416633D01*
X81343542Y-94410072D01*
X81284527Y-94228444D01*
X81189040Y-94063056D01*
X81128307Y-93995604D01*
X101412787Y-93995604D01*
X101422567Y-94206899D01*
X101423971Y-94212724D01*
X101423971Y-94212725D01*
X101470019Y-94403794D01*
X101472125Y-94412534D01*
X101474607Y-94417992D01*
X101474608Y-94417996D01*
X101518053Y-94513546D01*
X101559674Y-94605087D01*
X101682054Y-94777611D01*
X101834850Y-94923881D01*
X101839881Y-94927130D01*
X101839888Y-94927135D01*
X101867607Y-94945033D01*
X101913984Y-94998789D01*
X101923937Y-95069085D01*
X101894304Y-95133602D01*
X101877091Y-95149970D01*
X101762143Y-95240262D01*
X101753494Y-95248499D01*
X101622788Y-95399123D01*
X101615853Y-95408847D01*
X101515990Y-95581467D01*
X101511016Y-95592331D01*
X101445593Y-95780727D01*
X101445352Y-95781716D01*
X101446820Y-95792008D01*
X101460385Y-95796000D01*
X104135402Y-95796000D01*
X104148933Y-95792027D01*
X104150288Y-95782601D01*
X104128806Y-95693463D01*
X104124917Y-95682168D01*
X104042371Y-95500618D01*
X104036424Y-95490276D01*
X103921032Y-95327603D01*
X103913239Y-95318575D01*
X103769169Y-95180658D01*
X103759800Y-95173259D01*
X103732423Y-95155582D01*
X103686045Y-95101828D01*
X103676091Y-95031532D01*
X103705722Y-94967015D01*
X103722937Y-94950644D01*
X103838202Y-94860102D01*
X103842920Y-94856396D01*
X103846852Y-94851865D01*
X103846855Y-94851862D01*
X103977621Y-94701167D01*
X103981552Y-94696637D01*
X103984552Y-94691451D01*
X103984555Y-94691447D01*
X104084467Y-94518742D01*
X104087473Y-94513546D01*
X104156861Y-94313729D01*
X104187213Y-94104396D01*
X104177433Y-93893101D01*
X104145819Y-93761923D01*
X104129281Y-93693299D01*
X104129280Y-93693297D01*
X104127875Y-93687466D01*
X104102267Y-93631143D01*
X104058048Y-93533891D01*
X104040326Y-93494913D01*
X103917946Y-93322389D01*
X103765150Y-93176119D01*
X103587452Y-93061380D01*
X103527354Y-93037160D01*
X103396832Y-92984558D01*
X103396829Y-92984557D01*
X103391263Y-92982314D01*
X103183663Y-92941772D01*
X103178101Y-92941500D01*
X102472154Y-92941500D01*
X102314434Y-92956548D01*
X102111466Y-93016092D01*
X102106139Y-93018836D01*
X102106138Y-93018836D01*
X101928751Y-93110196D01*
X101928748Y-93110198D01*
X101923420Y-93112942D01*
X101757080Y-93243604D01*
X101753148Y-93248135D01*
X101753145Y-93248138D01*
X101685297Y-93326326D01*
X101618448Y-93403363D01*
X101615448Y-93408549D01*
X101615445Y-93408553D01*
X101528018Y-93559676D01*
X101512527Y-93586454D01*
X101443139Y-93786271D01*
X101442278Y-93792206D01*
X101442278Y-93792208D01*
X101422873Y-93926045D01*
X101412787Y-93995604D01*
X81128307Y-93995604D01*
X81127580Y-93994797D01*
X81065675Y-93926045D01*
X81065674Y-93926044D01*
X81061253Y-93921134D01*
X80906752Y-93808882D01*
X80900724Y-93806198D01*
X80900722Y-93806197D01*
X80738319Y-93733891D01*
X80738318Y-93733891D01*
X80732288Y-93731206D01*
X80638888Y-93711353D01*
X80551944Y-93692872D01*
X80551939Y-93692872D01*
X80545487Y-93691500D01*
X80354513Y-93691500D01*
X80348061Y-93692872D01*
X80348056Y-93692872D01*
X80261112Y-93711353D01*
X80167712Y-93731206D01*
X80161682Y-93733891D01*
X80161681Y-93733891D01*
X79999278Y-93806197D01*
X79999276Y-93806198D01*
X79993248Y-93808882D01*
X79838747Y-93921134D01*
X79834326Y-93926044D01*
X79834325Y-93926045D01*
X79772421Y-93994797D01*
X79710960Y-94063056D01*
X79615473Y-94228444D01*
X79556458Y-94410072D01*
X79555768Y-94416633D01*
X79555768Y-94416635D01*
X79545036Y-94518742D01*
X79536496Y-94600000D01*
X78840269Y-94600000D01*
X78843542Y-94589928D01*
X78863504Y-94400000D01*
X78845473Y-94228444D01*
X78844232Y-94216635D01*
X78844232Y-94216633D01*
X78843542Y-94210072D01*
X78784527Y-94028444D01*
X78689040Y-93863056D01*
X78668208Y-93839919D01*
X78565675Y-93726045D01*
X78565674Y-93726044D01*
X78561253Y-93721134D01*
X78406752Y-93608882D01*
X78400724Y-93606198D01*
X78400722Y-93606197D01*
X78238319Y-93533891D01*
X78238318Y-93533891D01*
X78232288Y-93531206D01*
X78138887Y-93511353D01*
X78051944Y-93492872D01*
X78051939Y-93492872D01*
X78045487Y-93491500D01*
X77854513Y-93491500D01*
X77848061Y-93492872D01*
X77848056Y-93492872D01*
X77761113Y-93511353D01*
X77667712Y-93531206D01*
X77661682Y-93533891D01*
X77661681Y-93533891D01*
X77499278Y-93606197D01*
X77499276Y-93606198D01*
X77493248Y-93608882D01*
X77338747Y-93721134D01*
X77334326Y-93726044D01*
X77334325Y-93726045D01*
X77231793Y-93839919D01*
X77210960Y-93863056D01*
X77115473Y-94028444D01*
X77056458Y-94210072D01*
X77055768Y-94216633D01*
X77055768Y-94216635D01*
X77054527Y-94228444D01*
X77036496Y-94400000D01*
X73868105Y-94400000D01*
X73789040Y-94263056D01*
X73747243Y-94216635D01*
X73665675Y-94126045D01*
X73665674Y-94126044D01*
X73661253Y-94121134D01*
X73522527Y-94020343D01*
X73512094Y-94012763D01*
X73512093Y-94012762D01*
X73506752Y-94008882D01*
X73500724Y-94006198D01*
X73500722Y-94006197D01*
X73338319Y-93933891D01*
X73338318Y-93933891D01*
X73332288Y-93931206D01*
X73238888Y-93911353D01*
X73151944Y-93892872D01*
X73151939Y-93892872D01*
X73145487Y-93891500D01*
X72954513Y-93891500D01*
X72948061Y-93892872D01*
X72948056Y-93892872D01*
X72861112Y-93911353D01*
X72767712Y-93931206D01*
X72761682Y-93933891D01*
X72761681Y-93933891D01*
X72599278Y-94006197D01*
X72599276Y-94006198D01*
X72593248Y-94008882D01*
X72587907Y-94012762D01*
X72587906Y-94012763D01*
X72577473Y-94020343D01*
X72438747Y-94121134D01*
X72434326Y-94126044D01*
X72434325Y-94126045D01*
X72352758Y-94216635D01*
X72310960Y-94263056D01*
X72215473Y-94428444D01*
X72156458Y-94610072D01*
X72155768Y-94616633D01*
X72155768Y-94616635D01*
X72138471Y-94781206D01*
X72136496Y-94800000D01*
X71507685Y-94800000D01*
X71507983Y-91950000D01*
X89036496Y-91950000D01*
X89056458Y-92139928D01*
X89115473Y-92321556D01*
X89210960Y-92486944D01*
X89215378Y-92491851D01*
X89215379Y-92491852D01*
X89334325Y-92623955D01*
X89338747Y-92628866D01*
X89493248Y-92741118D01*
X89499276Y-92743802D01*
X89499278Y-92743803D01*
X89561395Y-92771459D01*
X89667712Y-92818794D01*
X89761112Y-92838647D01*
X89848056Y-92857128D01*
X89848061Y-92857128D01*
X89854513Y-92858500D01*
X90045487Y-92858500D01*
X90051939Y-92857128D01*
X90051944Y-92857128D01*
X90138888Y-92838647D01*
X90232288Y-92818794D01*
X90338605Y-92771459D01*
X90400722Y-92743803D01*
X90400724Y-92743802D01*
X90406752Y-92741118D01*
X90561253Y-92628866D01*
X90565675Y-92623955D01*
X90652146Y-92527919D01*
X105968860Y-92527919D01*
X105969157Y-92533071D01*
X105969157Y-92533075D01*
X105980558Y-92730787D01*
X105982903Y-92771459D01*
X105984040Y-92776505D01*
X105984041Y-92776511D01*
X106007107Y-92878863D01*
X106036533Y-93009435D01*
X106038475Y-93014217D01*
X106038476Y-93014221D01*
X106102896Y-93172868D01*
X106128311Y-93235457D01*
X106255772Y-93443454D01*
X106415492Y-93627841D01*
X106603183Y-93783665D01*
X106813804Y-93906741D01*
X106818629Y-93908583D01*
X106818630Y-93908584D01*
X106851495Y-93921134D01*
X107041698Y-93993766D01*
X107046764Y-93994797D01*
X107046765Y-93994797D01*
X107275667Y-94041368D01*
X107275671Y-94041368D01*
X107280746Y-94042401D01*
X107285922Y-94042591D01*
X107285924Y-94042591D01*
X107519363Y-94051151D01*
X107519367Y-94051151D01*
X107524527Y-94051340D01*
X107529647Y-94050684D01*
X107529649Y-94050684D01*
X107606377Y-94040855D01*
X107766494Y-94020343D01*
X107771443Y-94018858D01*
X107771449Y-94018857D01*
X107995200Y-93951728D01*
X107995199Y-93951728D01*
X108000150Y-93950243D01*
X108219219Y-93842922D01*
X108223424Y-93839922D01*
X108223430Y-93839919D01*
X108413614Y-93704262D01*
X108413616Y-93704260D01*
X108417818Y-93701263D01*
X108590614Y-93529069D01*
X108732966Y-93330965D01*
X108737205Y-93322389D01*
X108838756Y-93116914D01*
X108838757Y-93116912D01*
X108841050Y-93112272D01*
X108857802Y-93057137D01*
X108910462Y-92883815D01*
X108910463Y-92883809D01*
X108911966Y-92878863D01*
X108943807Y-92637005D01*
X108945584Y-92564288D01*
X108925596Y-92321164D01*
X108866167Y-92084568D01*
X108768894Y-91860856D01*
X108636390Y-91656036D01*
X108548980Y-91559973D01*
X108475690Y-91479429D01*
X108475688Y-91479428D01*
X108472212Y-91475607D01*
X108468161Y-91472408D01*
X108468157Y-91472404D01*
X108284825Y-91327617D01*
X108284821Y-91327615D01*
X108280770Y-91324415D01*
X108067205Y-91206521D01*
X108062336Y-91204797D01*
X108062332Y-91204795D01*
X107842127Y-91126816D01*
X107842123Y-91126815D01*
X107837252Y-91125090D01*
X107832159Y-91124183D01*
X107832156Y-91124182D01*
X107602177Y-91083216D01*
X107602171Y-91083215D01*
X107597088Y-91082310D01*
X107517380Y-91081336D01*
X107358332Y-91079393D01*
X107358330Y-91079393D01*
X107353162Y-91079330D01*
X107112024Y-91116229D01*
X106880150Y-91192017D01*
X106663769Y-91304658D01*
X106659636Y-91307761D01*
X106659633Y-91307763D01*
X106472825Y-91448023D01*
X106468690Y-91451128D01*
X106465118Y-91454866D01*
X106364676Y-91559973D01*
X106300153Y-91627492D01*
X106297239Y-91631764D01*
X106297238Y-91631765D01*
X106277719Y-91660379D01*
X106162684Y-91829014D01*
X106145705Y-91865593D01*
X106103477Y-91956565D01*
X106059974Y-92050283D01*
X105994783Y-92285355D01*
X105968860Y-92527919D01*
X90652146Y-92527919D01*
X90684621Y-92491852D01*
X90684622Y-92491851D01*
X90689040Y-92486944D01*
X90784527Y-92321556D01*
X90843542Y-92139928D01*
X90863504Y-91950000D01*
X90843542Y-91760072D01*
X90784527Y-91578444D01*
X90689040Y-91413056D01*
X90612111Y-91327617D01*
X90565675Y-91276045D01*
X90565674Y-91276044D01*
X90561253Y-91271134D01*
X90406752Y-91158882D01*
X90400724Y-91156198D01*
X90400722Y-91156197D01*
X90238319Y-91083891D01*
X90238318Y-91083891D01*
X90232288Y-91081206D01*
X90138887Y-91061353D01*
X90051944Y-91042872D01*
X90051939Y-91042872D01*
X90045487Y-91041500D01*
X89854513Y-91041500D01*
X89848061Y-91042872D01*
X89848056Y-91042872D01*
X89761113Y-91061353D01*
X89667712Y-91081206D01*
X89661682Y-91083891D01*
X89661681Y-91083891D01*
X89499278Y-91156197D01*
X89499276Y-91156198D01*
X89493248Y-91158882D01*
X89338747Y-91271134D01*
X89334326Y-91276044D01*
X89334325Y-91276045D01*
X89287890Y-91327617D01*
X89210960Y-91413056D01*
X89115473Y-91578444D01*
X89056458Y-91760072D01*
X89036496Y-91950000D01*
X71507983Y-91950000D01*
X71508308Y-88840654D01*
X71528317Y-88772535D01*
X71581978Y-88726048D01*
X71652253Y-88715951D01*
X71716830Y-88745451D01*
X71746575Y-88783465D01*
X71783938Y-88856794D01*
X71995643Y-89182793D01*
X72240266Y-89484876D01*
X72515124Y-89759734D01*
X72817207Y-90004357D01*
X72819970Y-90006152D01*
X72819971Y-90006152D01*
X73124185Y-90203710D01*
X73143205Y-90216062D01*
X73146139Y-90217557D01*
X73146146Y-90217561D01*
X73443624Y-90369133D01*
X73489547Y-90392532D01*
X73852438Y-90531833D01*
X74227901Y-90632438D01*
X74424137Y-90663519D01*
X74608576Y-90692732D01*
X74608584Y-90692733D01*
X74611824Y-90693246D01*
X75000000Y-90713589D01*
X75388176Y-90693246D01*
X75391416Y-90692733D01*
X75391424Y-90692732D01*
X75575863Y-90663519D01*
X75772099Y-90632438D01*
X76147562Y-90531833D01*
X76510453Y-90392532D01*
X76556376Y-90369133D01*
X76853854Y-90217561D01*
X76853861Y-90217557D01*
X76856795Y-90216062D01*
X76875816Y-90203710D01*
X77180029Y-90006152D01*
X77180030Y-90006152D01*
X77182793Y-90004357D01*
X77484876Y-89759734D01*
X77754835Y-89489775D01*
X81214200Y-89489775D01*
X81214449Y-89495370D01*
X81228578Y-89653678D01*
X81230560Y-89664692D01*
X81286851Y-89870460D01*
X81290749Y-89880941D01*
X81382597Y-90073503D01*
X81388282Y-90083116D01*
X81512775Y-90256367D01*
X81520083Y-90264833D01*
X81673282Y-90413292D01*
X81681979Y-90420335D01*
X81859044Y-90539319D01*
X81868842Y-90544705D01*
X82064190Y-90630457D01*
X82074782Y-90634022D01*
X82200584Y-90664224D01*
X82214670Y-90663519D01*
X82218200Y-90654640D01*
X82218200Y-90654011D01*
X82726200Y-90654011D01*
X82730305Y-90667993D01*
X82739928Y-90669486D01*
X82740173Y-90669434D01*
X82944083Y-90606702D01*
X82954429Y-90602481D01*
X83144014Y-90504629D01*
X83153445Y-90498643D01*
X83322701Y-90368768D01*
X83330924Y-90361207D01*
X83474512Y-90203406D01*
X83481267Y-90194506D01*
X83594634Y-90013785D01*
X83599711Y-90003819D01*
X83624867Y-89941242D01*
X83668833Y-89885497D01*
X83735958Y-89862372D01*
X83804929Y-89879209D01*
X83855500Y-89933993D01*
X83924578Y-90078818D01*
X84055671Y-90261254D01*
X84059703Y-90265161D01*
X84212562Y-90413292D01*
X84216999Y-90417592D01*
X84403462Y-90542890D01*
X84609167Y-90633188D01*
X84614618Y-90634497D01*
X84614622Y-90634498D01*
X84822154Y-90684322D01*
X84827611Y-90685632D01*
X84911675Y-90690479D01*
X85046283Y-90698240D01*
X85046286Y-90698240D01*
X85051890Y-90698563D01*
X85274915Y-90671575D01*
X85489635Y-90605518D01*
X85494615Y-90602948D01*
X85494619Y-90602946D01*
X85684281Y-90505054D01*
X85684282Y-90505054D01*
X85689264Y-90502482D01*
X85867492Y-90365723D01*
X86018685Y-90199564D01*
X86060962Y-90132168D01*
X86114106Y-90085091D01*
X86184265Y-90074218D01*
X86249165Y-90103002D01*
X86288200Y-90162304D01*
X86293700Y-90199124D01*
X86293700Y-90233734D01*
X86300455Y-90295916D01*
X86351585Y-90432305D01*
X86438939Y-90548861D01*
X86555495Y-90636215D01*
X86691884Y-90687345D01*
X86754066Y-90694100D01*
X88350334Y-90694100D01*
X88412516Y-90687345D01*
X88548905Y-90636215D01*
X88665461Y-90548861D01*
X88752815Y-90432305D01*
X88803945Y-90295916D01*
X88810700Y-90233734D01*
X88810700Y-87637466D01*
X88803945Y-87575284D01*
X88752815Y-87438895D01*
X88665461Y-87322339D01*
X88548905Y-87234985D01*
X88412516Y-87183855D01*
X88350334Y-87177100D01*
X86754066Y-87177100D01*
X86691884Y-87183855D01*
X86555495Y-87234985D01*
X86438939Y-87322339D01*
X86351585Y-87438895D01*
X86300455Y-87575284D01*
X86293700Y-87637466D01*
X86293700Y-87670921D01*
X86273698Y-87739042D01*
X86220042Y-87785535D01*
X86149768Y-87795639D01*
X86085188Y-87766145D01*
X86065377Y-87744447D01*
X85972005Y-87614504D01*
X85972000Y-87614499D01*
X85968729Y-87609946D01*
X85860926Y-87505477D01*
X85811429Y-87457511D01*
X85811426Y-87457509D01*
X85807401Y-87453608D01*
X85620938Y-87328310D01*
X85415233Y-87238012D01*
X85409782Y-87236703D01*
X85409778Y-87236702D01*
X85202246Y-87186878D01*
X85202245Y-87186878D01*
X85196789Y-87185568D01*
X85112725Y-87180721D01*
X84978117Y-87172960D01*
X84978114Y-87172960D01*
X84972510Y-87172637D01*
X84749485Y-87199625D01*
X84534765Y-87265682D01*
X84529785Y-87268252D01*
X84529781Y-87268254D01*
X84340119Y-87366146D01*
X84335136Y-87368718D01*
X84156908Y-87505477D01*
X84005715Y-87671636D01*
X84002737Y-87676383D01*
X84002735Y-87676386D01*
X83960041Y-87744447D01*
X83886336Y-87861944D01*
X83858986Y-87929978D01*
X83815022Y-87985720D01*
X83747897Y-88008845D01*
X83678926Y-87992008D01*
X83628355Y-87937224D01*
X83561803Y-87797697D01*
X83556118Y-87788084D01*
X83431625Y-87614833D01*
X83424317Y-87606367D01*
X83271118Y-87457908D01*
X83262421Y-87450865D01*
X83085356Y-87331881D01*
X83075558Y-87326495D01*
X82880210Y-87240743D01*
X82869618Y-87237178D01*
X82743816Y-87206976D01*
X82729730Y-87207681D01*
X82726200Y-87216560D01*
X82726200Y-90654011D01*
X82218200Y-90654011D01*
X82218200Y-89207715D01*
X82213725Y-89192476D01*
X82212335Y-89191271D01*
X82204652Y-89189600D01*
X81232315Y-89189600D01*
X81217076Y-89194075D01*
X81215871Y-89195465D01*
X81214200Y-89203148D01*
X81214200Y-89489775D01*
X77754835Y-89489775D01*
X77759734Y-89484876D01*
X78004357Y-89182793D01*
X78216062Y-88856794D01*
X78258995Y-88772535D01*
X78314559Y-88663485D01*
X81214200Y-88663485D01*
X81218675Y-88678724D01*
X81220065Y-88679929D01*
X81227748Y-88681600D01*
X82200085Y-88681600D01*
X82215324Y-88677125D01*
X82216529Y-88675735D01*
X82218200Y-88668052D01*
X82218200Y-87217189D01*
X82214095Y-87203207D01*
X82204472Y-87201714D01*
X82204227Y-87201766D01*
X82000317Y-87264498D01*
X81989971Y-87268719D01*
X81800386Y-87366571D01*
X81790955Y-87372557D01*
X81621699Y-87502432D01*
X81613476Y-87509993D01*
X81469888Y-87667794D01*
X81463133Y-87676694D01*
X81349766Y-87857415D01*
X81344689Y-87867381D01*
X81265120Y-88065314D01*
X81261885Y-88076029D01*
X81218423Y-88285901D01*
X81217220Y-88295038D01*
X81214305Y-88345590D01*
X81214200Y-88349237D01*
X81214200Y-88663485D01*
X78314559Y-88663485D01*
X78391034Y-88513393D01*
X78392532Y-88510453D01*
X78491370Y-88252972D01*
X78530647Y-88150652D01*
X78530648Y-88150650D01*
X78531833Y-88147562D01*
X78632438Y-87772099D01*
X78674667Y-87505477D01*
X78692732Y-87391424D01*
X78692733Y-87391416D01*
X78693246Y-87388176D01*
X78713589Y-87000000D01*
X78693246Y-86611824D01*
X78632438Y-86227901D01*
X78531833Y-85852438D01*
X78392532Y-85489547D01*
X78391034Y-85486607D01*
X78217561Y-85146147D01*
X78217557Y-85146140D01*
X78216062Y-85143206D01*
X78172687Y-85076413D01*
X78006152Y-84819971D01*
X78006152Y-84819970D01*
X78004357Y-84817207D01*
X77839424Y-84613532D01*
X77761809Y-84517686D01*
X77761806Y-84517682D01*
X77759734Y-84515124D01*
X77484876Y-84240266D01*
X77471325Y-84229292D01*
X77217076Y-84023405D01*
X77176724Y-83964991D01*
X77174359Y-83894034D01*
X77210732Y-83833062D01*
X77274295Y-83801434D01*
X77296371Y-83799485D01*
X78611495Y-83799485D01*
X78679616Y-83819487D01*
G37*
G04 #@! TD.AperFunction*
M02*
