G04 #@! TF.GenerationSoftware,KiCad,Pcbnew,(6.0.10)*
G04 #@! TF.CreationDate,2023-07-07T16:54:03+02:00*
G04 #@! TF.ProjectId,SprinklerBoardESP32V3,53707269-6e6b-46c6-9572-426f61726445,rev?*
G04 #@! TF.SameCoordinates,Original*
G04 #@! TF.FileFunction,Copper,L4,Bot*
G04 #@! TF.FilePolarity,Positive*
%FSLAX46Y46*%
G04 Gerber Fmt 4.6, Leading zero omitted, Abs format (unit mm)*
G04 Created by KiCad (PCBNEW (6.0.10)) date 2023-07-07 16:54:03*
%MOMM*%
%LPD*%
G01*
G04 APERTURE LIST*
G04 Aperture macros list*
%AMRoundRect*
0 Rectangle with rounded corners*
0 $1 Rounding radius*
0 $2 $3 $4 $5 $6 $7 $8 $9 X,Y pos of 4 corners*
0 Add a 4 corners polygon primitive as box body*
4,1,4,$2,$3,$4,$5,$6,$7,$8,$9,$2,$3,0*
0 Add four circle primitives for the rounded corners*
1,1,$1+$1,$2,$3*
1,1,$1+$1,$4,$5*
1,1,$1+$1,$6,$7*
1,1,$1+$1,$8,$9*
0 Add four rect primitives between the rounded corners*
20,1,$1+$1,$2,$3,$4,$5,0*
20,1,$1+$1,$4,$5,$6,$7,0*
20,1,$1+$1,$6,$7,$8,$9,0*
20,1,$1+$1,$8,$9,$2,$3,0*%
G04 Aperture macros list end*
G04 #@! TA.AperFunction,ComponentPad*
%ADD10C,0.800000*%
G04 #@! TD*
G04 #@! TA.AperFunction,ComponentPad*
%ADD11C,6.400000*%
G04 #@! TD*
G04 #@! TA.AperFunction,ComponentPad*
%ADD12O,1.700000X1.700000*%
G04 #@! TD*
G04 #@! TA.AperFunction,ComponentPad*
%ADD13R,1.700000X1.700000*%
G04 #@! TD*
G04 #@! TA.AperFunction,SMDPad,CuDef*
%ADD14RoundRect,0.250000X0.250000X2.500000X-0.250000X2.500000X-0.250000X-2.500000X0.250000X-2.500000X0*%
G04 #@! TD*
G04 #@! TA.AperFunction,SMDPad,CuDef*
%ADD15RoundRect,0.250000X0.550000X1.250000X-0.550000X1.250000X-0.550000X-1.250000X0.550000X-1.250000X0*%
G04 #@! TD*
G04 #@! TA.AperFunction,ComponentPad*
%ADD16C,1.950000*%
G04 #@! TD*
G04 #@! TA.AperFunction,SMDPad,CuDef*
%ADD17C,1.700000*%
G04 #@! TD*
G04 #@! TA.AperFunction,ComponentPad*
%ADD18RoundRect,0.250000X0.625000X-0.350000X0.625000X0.350000X-0.625000X0.350000X-0.625000X-0.350000X0*%
G04 #@! TD*
G04 #@! TA.AperFunction,ComponentPad*
%ADD19O,1.750000X1.200000*%
G04 #@! TD*
G04 #@! TA.AperFunction,SMDPad,CuDef*
%ADD20R,1.000000X2.580000*%
G04 #@! TD*
G04 #@! TA.AperFunction,ComponentPad*
%ADD21R,1.500000X2.500000*%
G04 #@! TD*
G04 #@! TA.AperFunction,ComponentPad*
%ADD22O,1.500000X2.500000*%
G04 #@! TD*
G04 #@! TA.AperFunction,ComponentPad*
%ADD23R,1.350000X1.350000*%
G04 #@! TD*
G04 #@! TA.AperFunction,ComponentPad*
%ADD24O,1.350000X1.350000*%
G04 #@! TD*
G04 #@! TA.AperFunction,ViaPad*
%ADD25C,0.800000*%
G04 #@! TD*
G04 #@! TA.AperFunction,Conductor*
%ADD26C,1.000000*%
G04 #@! TD*
G04 #@! TA.AperFunction,Conductor*
%ADD27C,0.500000*%
G04 #@! TD*
G04 #@! TA.AperFunction,Conductor*
%ADD28C,0.200000*%
G04 #@! TD*
G04 #@! TA.AperFunction,Conductor*
%ADD29C,0.350000*%
G04 #@! TD*
G04 #@! TA.AperFunction,Conductor*
%ADD30C,0.250000*%
G04 #@! TD*
G04 APERTURE END LIST*
D10*
X112645942Y-125850016D03*
X110245942Y-128250016D03*
X111942998Y-124152960D03*
D11*
X110245942Y-125850016D03*
D10*
X111942998Y-127547072D03*
X108548886Y-124152960D03*
X110245942Y-123450016D03*
X107845942Y-125850016D03*
X108548886Y-127547072D03*
D12*
X97950000Y-114810000D03*
X97950000Y-117350000D03*
X97950000Y-119890000D03*
X97950000Y-122430000D03*
D13*
X97950000Y-124970000D03*
D10*
X75000000Y-84600000D03*
X75000000Y-89400000D03*
D11*
X75000000Y-87000000D03*
D10*
X76697056Y-85302944D03*
X76697056Y-88697056D03*
X77400000Y-87000000D03*
X72600000Y-87000000D03*
X73302944Y-85302944D03*
X73302944Y-88697056D03*
D13*
X102074900Y-102850000D03*
D12*
X102074900Y-105390000D03*
X102074900Y-107930000D03*
X102074900Y-110470000D03*
D13*
X94325000Y-125000000D03*
D12*
X94325000Y-122460000D03*
X94325000Y-119920000D03*
X94325000Y-117380000D03*
X94325000Y-114840000D03*
D10*
X108552944Y-88697056D03*
X111947056Y-85302944D03*
X111947056Y-88697056D03*
X110250000Y-84600000D03*
X108552944Y-85302944D03*
X107850000Y-87000000D03*
X112650000Y-87000000D03*
X110250000Y-89400000D03*
D11*
X110250000Y-87000000D03*
D10*
X72595942Y-125849501D03*
D11*
X74995942Y-125849501D03*
D10*
X74995942Y-128249501D03*
X77395942Y-125849501D03*
X76692998Y-124152445D03*
X76692998Y-127546557D03*
X73298886Y-127546557D03*
X73298886Y-124152445D03*
X74995942Y-123449501D03*
D14*
X101050000Y-88350000D03*
X99050000Y-88350000D03*
X97050000Y-88350000D03*
X95050000Y-88350000D03*
D15*
X92650000Y-86100000D03*
X103450000Y-86100000D03*
D16*
X107457000Y-116466326D03*
X112457000Y-116466326D03*
X107457000Y-92564288D03*
X112457000Y-92564288D03*
X107457000Y-108498980D03*
X112457000Y-108498980D03*
D17*
X83500000Y-128200000D03*
X83500000Y-126200000D03*
X85500000Y-128200000D03*
X85500000Y-126200000D03*
X87500000Y-128200000D03*
X87500000Y-126200000D03*
D16*
X107457000Y-104515307D03*
X112457000Y-104515307D03*
X107457000Y-112482653D03*
X112457000Y-112482653D03*
D18*
X102800000Y-98050000D03*
D19*
X102800000Y-96050000D03*
X102800000Y-94050000D03*
D16*
X107457000Y-120449999D03*
X112457000Y-120449999D03*
X107457000Y-96547961D03*
X112457000Y-96547961D03*
D20*
X81050000Y-97515000D03*
X81050000Y-101685000D03*
X83050000Y-97515000D03*
X83050000Y-101685000D03*
X85050000Y-97515000D03*
X85050000Y-101685000D03*
X87050000Y-97515000D03*
X87050000Y-101685000D03*
X89050000Y-97515000D03*
X89050000Y-101685000D03*
D16*
X107457000Y-100531634D03*
X112457000Y-100531634D03*
D21*
X87552200Y-88935600D03*
D22*
X85012200Y-88935600D03*
X82472200Y-88935600D03*
D23*
X79950000Y-119650000D03*
D24*
X77950000Y-119650000D03*
X75950000Y-119650000D03*
X73950000Y-119650000D03*
D25*
X79550000Y-88850000D03*
X78400000Y-97300000D03*
X90150000Y-123700000D03*
X92950000Y-88250000D03*
X102750000Y-126050000D03*
X91850000Y-116050000D03*
X92375500Y-91921544D03*
X81600000Y-126900000D03*
X78079500Y-113962299D03*
X99450000Y-84650000D03*
X73937970Y-114917970D03*
X80600000Y-104200000D03*
X72225500Y-117550000D03*
X89200000Y-128200000D03*
X84350999Y-112662320D03*
X78079500Y-115050000D03*
X91950000Y-112450000D03*
X88850000Y-113650000D03*
X87500000Y-114450000D03*
X87600000Y-112400000D03*
X97850000Y-97050000D03*
X90450000Y-107250000D03*
X90450000Y-105850000D03*
X81350000Y-124150000D03*
X89950000Y-91950000D03*
X83250000Y-115100000D03*
X76500000Y-97050000D03*
X78274500Y-107450000D03*
X82200000Y-119750000D03*
X104750000Y-105650000D03*
X104750000Y-125950000D03*
X105254721Y-120306039D03*
X104750000Y-98350000D03*
X104991942Y-112530426D03*
X81850000Y-106450000D03*
X81950000Y-109150000D03*
X83250000Y-109250000D03*
X87050000Y-106750000D03*
X80450000Y-94600000D03*
X77950000Y-94400000D03*
X74250000Y-95650000D03*
X73050000Y-94800000D03*
D26*
X81050000Y-97515000D02*
X78615000Y-97515000D01*
D27*
X99050000Y-88350000D02*
X99050000Y-85050000D01*
D26*
X82900000Y-128200000D02*
X81600000Y-126900000D01*
D27*
X99050000Y-85050000D02*
X99450000Y-84650000D01*
D26*
X78615000Y-97515000D02*
X78400000Y-97300000D01*
X83500000Y-128200000D02*
X82900000Y-128200000D01*
X81050000Y-101685000D02*
X81050000Y-103750000D01*
X87500000Y-128200000D02*
X89200000Y-128200000D01*
X81050000Y-103750000D02*
X80600000Y-104200000D01*
D28*
X87500000Y-126200000D02*
X87500000Y-114450000D01*
X85500000Y-126200000D02*
X85500000Y-114500000D01*
X85500000Y-114500000D02*
X87600000Y-112400000D01*
D29*
X101800000Y-97050000D02*
X102800000Y-98050000D01*
X97850000Y-97050000D02*
X101800000Y-97050000D01*
X103350000Y-109205100D02*
X102074900Y-107930000D01*
X97075500Y-102930600D02*
X102074900Y-107930000D01*
X103350000Y-110927312D02*
X103350000Y-109205100D01*
X94895000Y-111695000D02*
X102582312Y-111695000D01*
X97747984Y-89047984D02*
X97747984Y-92037881D01*
X97050000Y-88350000D02*
X97747984Y-89047984D01*
X97075500Y-92710365D02*
X97075500Y-102930600D01*
X90450000Y-107250000D02*
X94895000Y-111695000D01*
X102582312Y-111695000D02*
X103350000Y-110927312D01*
X97747984Y-92037881D02*
X97075500Y-92710365D01*
X95050000Y-103445100D02*
X102074900Y-110470000D01*
X90450000Y-105850000D02*
X92645100Y-105850000D01*
X92645100Y-105850000D02*
X95050000Y-103445100D01*
X95050000Y-88350000D02*
X95050000Y-103445100D01*
D30*
X79257793Y-128712599D02*
X79257793Y-126242207D01*
X79257793Y-126242207D02*
X81350000Y-124150000D01*
X85500000Y-128200000D02*
X84261239Y-129438761D01*
X84261239Y-129438761D02*
X79983955Y-129438761D01*
X79983955Y-129438761D02*
X79257793Y-128712599D01*
X83500000Y-126200000D02*
X85075499Y-124624501D01*
X87875000Y-105300000D02*
X89950000Y-103225000D01*
X86225500Y-110674164D02*
X87875000Y-109024664D01*
X87875000Y-109024664D02*
X87875000Y-105300000D01*
X89950000Y-103225000D02*
X89950000Y-91950000D01*
X86225500Y-111074164D02*
X86225500Y-110674164D01*
X85075499Y-112224165D02*
X86225500Y-111074164D01*
X85075499Y-124624501D02*
X85075499Y-112224165D01*
X78025000Y-106725000D02*
X76500000Y-105200000D01*
X79500000Y-111350000D02*
X79500000Y-107650195D01*
X79500000Y-107650195D02*
X78574805Y-106725000D01*
X78574805Y-106725000D02*
X78025000Y-106725000D01*
X83250000Y-115100000D02*
X79500000Y-111350000D01*
X76500000Y-105200000D02*
X76500000Y-97050000D01*
X82200000Y-119750000D02*
X82200000Y-114685690D01*
X78024500Y-107700000D02*
X78274500Y-107450000D01*
X82200000Y-114685690D02*
X78024500Y-110510190D01*
X78024500Y-110510190D02*
X78024500Y-107700000D01*
X81850000Y-106450000D02*
X82225000Y-106075000D01*
X82225000Y-106075000D02*
X82225000Y-98340000D01*
X82225000Y-98340000D02*
X83050000Y-97515000D01*
X83050000Y-108050000D02*
X81950000Y-109150000D01*
X83050000Y-101685000D02*
X83050000Y-108050000D01*
X87050000Y-97515000D02*
X85875000Y-98690000D01*
X85875000Y-98690000D02*
X85875000Y-106625000D01*
X85875000Y-106625000D02*
X83250000Y-109250000D01*
X87050000Y-106750000D02*
X87050000Y-101685000D01*
X86600000Y-99950000D02*
X86600000Y-99130000D01*
X87875000Y-99130000D02*
X87875000Y-95900000D01*
X86720000Y-100070000D02*
X86600000Y-99950000D01*
X86225000Y-95900000D02*
X86225000Y-97703604D01*
X86600000Y-99130000D02*
X87875000Y-99130000D01*
X85963604Y-97965000D02*
X85875000Y-97965000D01*
X87875000Y-100070000D02*
X86720000Y-100070000D01*
X85875000Y-95900000D02*
X84575000Y-94600000D01*
X84575000Y-94600000D02*
X80450000Y-94600000D01*
X87875000Y-95900000D02*
X86225000Y-95900000D01*
X86225000Y-97703604D02*
X85963604Y-97965000D01*
X85875000Y-97965000D02*
X85875000Y-95900000D01*
X89050000Y-101685000D02*
X89050000Y-101245000D01*
X89050000Y-101245000D02*
X87875000Y-100070000D01*
X79199902Y-93775002D02*
X78574904Y-94400000D01*
X89050000Y-97515000D02*
X89050000Y-95564310D01*
X89050000Y-95564310D02*
X87260692Y-93775002D01*
X87260692Y-93775002D02*
X79199902Y-93775002D01*
X78574904Y-94400000D02*
X77950000Y-94400000D01*
X74250998Y-95649002D02*
X74250000Y-95650000D01*
X85050000Y-101685000D02*
X83875000Y-100510000D01*
X79240210Y-95900000D02*
X78989212Y-95649002D01*
X83875000Y-95900000D02*
X79240210Y-95900000D01*
X83875000Y-100510000D02*
X83875000Y-95900000D01*
X78989212Y-95649002D02*
X74250998Y-95649002D01*
X85050000Y-97515000D02*
X85050000Y-95975000D01*
X85050000Y-95975000D02*
X84399500Y-95324500D01*
X84399500Y-95324500D02*
X79300400Y-95324500D01*
X77724903Y-95199501D02*
X77325402Y-94800000D01*
X79300400Y-95324500D02*
X79175401Y-95199501D01*
X79175401Y-95199501D02*
X77724903Y-95199501D01*
X77325402Y-94800000D02*
X73050000Y-94800000D01*
G04 #@! TA.AperFunction,Conductor*
G36*
X78785115Y-83528502D02*
G01*
X78831608Y-83582158D01*
X78841712Y-83652432D01*
X78828503Y-83693166D01*
X78793760Y-83759202D01*
X78783811Y-83791244D01*
X78744440Y-83918039D01*
X78734654Y-83949554D01*
X78711227Y-84147489D01*
X78713096Y-84176000D01*
X78724263Y-84346380D01*
X78725684Y-84351976D01*
X78725685Y-84351981D01*
X78762534Y-84497072D01*
X78773326Y-84539564D01*
X78775743Y-84544807D01*
X78826700Y-84655341D01*
X78856772Y-84720573D01*
X78860105Y-84725289D01*
X78952655Y-84856244D01*
X78971807Y-84883344D01*
X79114578Y-85022425D01*
X79280304Y-85133160D01*
X79285607Y-85135438D01*
X79285610Y-85135440D01*
X79397818Y-85183648D01*
X79463435Y-85211839D01*
X79535516Y-85228149D01*
X79652201Y-85254553D01*
X79652207Y-85254554D01*
X79657838Y-85255828D01*
X79663609Y-85256055D01*
X79663611Y-85256055D01*
X79724556Y-85258449D01*
X79857001Y-85263653D01*
X79970140Y-85247249D01*
X80048535Y-85235883D01*
X80048540Y-85235882D01*
X80054256Y-85235053D01*
X80059728Y-85233195D01*
X80059730Y-85233195D01*
X80237532Y-85172839D01*
X80237534Y-85172838D01*
X80242996Y-85170984D01*
X80416899Y-85073594D01*
X80570143Y-84946143D01*
X80697594Y-84792899D01*
X80794984Y-84618996D01*
X80802102Y-84598029D01*
X80857195Y-84435730D01*
X80857195Y-84435728D01*
X80859053Y-84430256D01*
X80859882Y-84424540D01*
X80859883Y-84424535D01*
X80884338Y-84255866D01*
X80887653Y-84233001D01*
X80889146Y-84176000D01*
X80872446Y-83994253D01*
X80871437Y-83983273D01*
X80871436Y-83983270D01*
X80870908Y-83977519D01*
X80869108Y-83971134D01*
X80818373Y-83791244D01*
X80818372Y-83791242D01*
X80816805Y-83785685D01*
X80811179Y-83774275D01*
X80771181Y-83693168D01*
X80769731Y-83690227D01*
X80757541Y-83620286D01*
X80785100Y-83554856D01*
X80843658Y-83514713D01*
X80882737Y-83508500D01*
X99251880Y-83508500D01*
X99320001Y-83528502D01*
X99366494Y-83582158D01*
X99376598Y-83652432D01*
X99347104Y-83717012D01*
X99287378Y-83755396D01*
X99278075Y-83757747D01*
X99167712Y-83781206D01*
X99161682Y-83783891D01*
X99161681Y-83783891D01*
X98999278Y-83856197D01*
X98999276Y-83856198D01*
X98993248Y-83858882D01*
X98838747Y-83971134D01*
X98834326Y-83976044D01*
X98834325Y-83976045D01*
X98730066Y-84091837D01*
X98710960Y-84113056D01*
X98676753Y-84172305D01*
X98628025Y-84256704D01*
X98615473Y-84278444D01*
X98564368Y-84435730D01*
X98563198Y-84439330D01*
X98530660Y-84490405D01*
X98529182Y-84491492D01*
X98515097Y-84508071D01*
X98494965Y-84531768D01*
X98488035Y-84539284D01*
X98482340Y-84544979D01*
X98480060Y-84547861D01*
X98464719Y-84567251D01*
X98461928Y-84570655D01*
X98419409Y-84620703D01*
X98414667Y-84626285D01*
X98411339Y-84632801D01*
X98407972Y-84637850D01*
X98404805Y-84642979D01*
X98400266Y-84648716D01*
X98369345Y-84714875D01*
X98367442Y-84718769D01*
X98334231Y-84783808D01*
X98332492Y-84790916D01*
X98330393Y-84796559D01*
X98328476Y-84802322D01*
X98325378Y-84808950D01*
X98323888Y-84816112D01*
X98323888Y-84816113D01*
X98310514Y-84880412D01*
X98309544Y-84884696D01*
X98292192Y-84955610D01*
X98291500Y-84966764D01*
X98291464Y-84966762D01*
X98291225Y-84970755D01*
X98290851Y-84974947D01*
X98289360Y-84982115D01*
X98290537Y-85025635D01*
X98291454Y-85059521D01*
X98291500Y-85062928D01*
X98291500Y-85233607D01*
X98271498Y-85301728D01*
X98254673Y-85322625D01*
X98200695Y-85376697D01*
X98196855Y-85382927D01*
X98196854Y-85382928D01*
X98185967Y-85400590D01*
X98162485Y-85438686D01*
X98157255Y-85447170D01*
X98104483Y-85494663D01*
X98034411Y-85506087D01*
X97969288Y-85477813D01*
X97942851Y-85447358D01*
X97942735Y-85447170D01*
X97898478Y-85375652D01*
X97773303Y-85250695D01*
X97747927Y-85235053D01*
X97628968Y-85161725D01*
X97628966Y-85161724D01*
X97622738Y-85157885D01*
X97506329Y-85119274D01*
X97461389Y-85104368D01*
X97461387Y-85104368D01*
X97454861Y-85102203D01*
X97448025Y-85101503D01*
X97448022Y-85101502D01*
X97404969Y-85097091D01*
X97350400Y-85091500D01*
X96749600Y-85091500D01*
X96746354Y-85091837D01*
X96746350Y-85091837D01*
X96650692Y-85101762D01*
X96650688Y-85101763D01*
X96643834Y-85102474D01*
X96637298Y-85104655D01*
X96637296Y-85104655D01*
X96551857Y-85133160D01*
X96476054Y-85158450D01*
X96325652Y-85251522D01*
X96200695Y-85376697D01*
X96196855Y-85382927D01*
X96196854Y-85382928D01*
X96185967Y-85400590D01*
X96162485Y-85438686D01*
X96157255Y-85447170D01*
X96104483Y-85494663D01*
X96034411Y-85506087D01*
X95969288Y-85477813D01*
X95942851Y-85447358D01*
X95942735Y-85447170D01*
X95898478Y-85375652D01*
X95773303Y-85250695D01*
X95747927Y-85235053D01*
X95628968Y-85161725D01*
X95628966Y-85161724D01*
X95622738Y-85157885D01*
X95506329Y-85119274D01*
X95461389Y-85104368D01*
X95461387Y-85104368D01*
X95454861Y-85102203D01*
X95448025Y-85101503D01*
X95448022Y-85101502D01*
X95404969Y-85097091D01*
X95350400Y-85091500D01*
X94749600Y-85091500D01*
X94746354Y-85091837D01*
X94746350Y-85091837D01*
X94650692Y-85101762D01*
X94650688Y-85101763D01*
X94643834Y-85102474D01*
X94637298Y-85104655D01*
X94637296Y-85104655D01*
X94551857Y-85133160D01*
X94476054Y-85158450D01*
X94325652Y-85251522D01*
X94200695Y-85376697D01*
X94196854Y-85382928D01*
X94196852Y-85382931D01*
X94191759Y-85391193D01*
X94138987Y-85438686D01*
X94068915Y-85450108D01*
X94003792Y-85421834D01*
X93964292Y-85362840D01*
X93958500Y-85325076D01*
X93958500Y-84799600D01*
X93957805Y-84792899D01*
X93948238Y-84700692D01*
X93948237Y-84700688D01*
X93947526Y-84693834D01*
X93932474Y-84648716D01*
X93897864Y-84544979D01*
X93891550Y-84526054D01*
X93798478Y-84375652D01*
X93673303Y-84250695D01*
X93661631Y-84243500D01*
X93528968Y-84161725D01*
X93528966Y-84161724D01*
X93522738Y-84157885D01*
X93433451Y-84128270D01*
X93361389Y-84104368D01*
X93361387Y-84104368D01*
X93354861Y-84102203D01*
X93348025Y-84101503D01*
X93348022Y-84101502D01*
X93303338Y-84096924D01*
X93250400Y-84091500D01*
X92049600Y-84091500D01*
X92046354Y-84091837D01*
X92046350Y-84091837D01*
X91950692Y-84101762D01*
X91950688Y-84101763D01*
X91943834Y-84102474D01*
X91937298Y-84104655D01*
X91937296Y-84104655D01*
X91894977Y-84118774D01*
X91776054Y-84158450D01*
X91625652Y-84251522D01*
X91500695Y-84376697D01*
X91496855Y-84382927D01*
X91496854Y-84382928D01*
X91419715Y-84508071D01*
X91407885Y-84527262D01*
X91352203Y-84695139D01*
X91341500Y-84799600D01*
X91341500Y-87400400D01*
X91341837Y-87403646D01*
X91341837Y-87403650D01*
X91347426Y-87457511D01*
X91352474Y-87506166D01*
X91408450Y-87673946D01*
X91501522Y-87824348D01*
X91626697Y-87949305D01*
X91632927Y-87953145D01*
X91632928Y-87953146D01*
X91770090Y-88037694D01*
X91777262Y-88042115D01*
X91944322Y-88097526D01*
X91945139Y-88097797D01*
X91944832Y-88098723D01*
X92001881Y-88129649D01*
X92036096Y-88191857D01*
X92038368Y-88232184D01*
X92037186Y-88243432D01*
X92036496Y-88250000D01*
X92037186Y-88256565D01*
X92042608Y-88308148D01*
X92056458Y-88439928D01*
X92115473Y-88621556D01*
X92210960Y-88786944D01*
X92215378Y-88791851D01*
X92215379Y-88791852D01*
X92261825Y-88843435D01*
X92338747Y-88928866D01*
X92493248Y-89041118D01*
X92499276Y-89043802D01*
X92499278Y-89043803D01*
X92661681Y-89116109D01*
X92667712Y-89118794D01*
X92761112Y-89138647D01*
X92848056Y-89157128D01*
X92848061Y-89157128D01*
X92854513Y-89158500D01*
X93045487Y-89158500D01*
X93051939Y-89157128D01*
X93051944Y-89157128D01*
X93138888Y-89138647D01*
X93232288Y-89118794D01*
X93238319Y-89116109D01*
X93400722Y-89043803D01*
X93400724Y-89043802D01*
X93406752Y-89041118D01*
X93561253Y-88928866D01*
X93638175Y-88843435D01*
X93684621Y-88791852D01*
X93684622Y-88791851D01*
X93689040Y-88786944D01*
X93784527Y-88621556D01*
X93795668Y-88587269D01*
X93835741Y-88528665D01*
X93901138Y-88501028D01*
X93971094Y-88513135D01*
X94023400Y-88561141D01*
X94041500Y-88626207D01*
X94041500Y-90900400D01*
X94041837Y-90903646D01*
X94041837Y-90903650D01*
X94051618Y-90997914D01*
X94052474Y-91006166D01*
X94054655Y-91012702D01*
X94054655Y-91012704D01*
X94077052Y-91079834D01*
X94108450Y-91173946D01*
X94201522Y-91324348D01*
X94206704Y-91329521D01*
X94326697Y-91449305D01*
X94325059Y-91450945D01*
X94359656Y-91499744D01*
X94366500Y-91540706D01*
X94366500Y-103109795D01*
X94346498Y-103177916D01*
X94329595Y-103198890D01*
X92398890Y-105129595D01*
X92336578Y-105163621D01*
X92309795Y-105166500D01*
X91095815Y-105166500D01*
X91027694Y-105146498D01*
X91021754Y-105142436D01*
X90912094Y-105062763D01*
X90912093Y-105062762D01*
X90906752Y-105058882D01*
X90900724Y-105056198D01*
X90900722Y-105056197D01*
X90738319Y-104983891D01*
X90738318Y-104983891D01*
X90732288Y-104981206D01*
X90634658Y-104960454D01*
X90551944Y-104942872D01*
X90551939Y-104942872D01*
X90545487Y-104941500D01*
X90354513Y-104941500D01*
X90348061Y-104942872D01*
X90348056Y-104942872D01*
X90265342Y-104960454D01*
X90167712Y-104981206D01*
X90161682Y-104983891D01*
X90161681Y-104983891D01*
X89999278Y-105056197D01*
X89999276Y-105056198D01*
X89993248Y-105058882D01*
X89987907Y-105062762D01*
X89987906Y-105062763D01*
X89980790Y-105067933D01*
X89838747Y-105171134D01*
X89834326Y-105176044D01*
X89834325Y-105176045D01*
X89722816Y-105299889D01*
X89710960Y-105313056D01*
X89663954Y-105394473D01*
X89619755Y-105471028D01*
X89615473Y-105478444D01*
X89556458Y-105660072D01*
X89555768Y-105666633D01*
X89555768Y-105666635D01*
X89555069Y-105673288D01*
X89536496Y-105850000D01*
X89537186Y-105856565D01*
X89555129Y-106027279D01*
X89556458Y-106039928D01*
X89615473Y-106221556D01*
X89618776Y-106227278D01*
X89618777Y-106227279D01*
X89627706Y-106242745D01*
X89710960Y-106386944D01*
X89715378Y-106391851D01*
X89715379Y-106391852D01*
X89781863Y-106465690D01*
X89812581Y-106529697D01*
X89803816Y-106600151D01*
X89781863Y-106634310D01*
X89759476Y-106659174D01*
X89710960Y-106713056D01*
X89615473Y-106878444D01*
X89556458Y-107060072D01*
X89555768Y-107066633D01*
X89555768Y-107066635D01*
X89546073Y-107158881D01*
X89536496Y-107250000D01*
X89537186Y-107256565D01*
X89553746Y-107414121D01*
X89556458Y-107439928D01*
X89615473Y-107621556D01*
X89618776Y-107627278D01*
X89618777Y-107627279D01*
X89636803Y-107658500D01*
X89710960Y-107786944D01*
X89715378Y-107791851D01*
X89715379Y-107791852D01*
X89809780Y-107896695D01*
X89838747Y-107928866D01*
X89909518Y-107980284D01*
X89970062Y-108024272D01*
X89993248Y-108041118D01*
X89999276Y-108043802D01*
X89999278Y-108043803D01*
X90161681Y-108116109D01*
X90167712Y-108118794D01*
X90280905Y-108142854D01*
X90348057Y-108157128D01*
X90348060Y-108157128D01*
X90352782Y-108158132D01*
X90354513Y-108158500D01*
X90354446Y-108158817D01*
X90416781Y-108184462D01*
X90427050Y-108193665D01*
X94391837Y-112158451D01*
X94397691Y-112164716D01*
X94434290Y-112206670D01*
X94440504Y-112211037D01*
X94484629Y-112242049D01*
X94489925Y-112245982D01*
X94538328Y-112283935D01*
X94545249Y-112287060D01*
X94549564Y-112289673D01*
X94558976Y-112295042D01*
X94563424Y-112297427D01*
X94569639Y-112301795D01*
X94626952Y-112324140D01*
X94633034Y-112326697D01*
X94633515Y-112326914D01*
X94689104Y-112352014D01*
X94696576Y-112353399D01*
X94701427Y-112354919D01*
X94711765Y-112357864D01*
X94716696Y-112359130D01*
X94723772Y-112361889D01*
X94731301Y-112362880D01*
X94731304Y-112362881D01*
X94784766Y-112369919D01*
X94791281Y-112370951D01*
X94833141Y-112378709D01*
X94851767Y-112382161D01*
X94859347Y-112381724D01*
X94859348Y-112381724D01*
X94911642Y-112378709D01*
X94918894Y-112378500D01*
X102554267Y-112378500D01*
X102562836Y-112378792D01*
X102610770Y-112382060D01*
X102610774Y-112382060D01*
X102618346Y-112382576D01*
X102625823Y-112381271D01*
X102625826Y-112381271D01*
X102678959Y-112371998D01*
X102685483Y-112371035D01*
X102739003Y-112364558D01*
X102746547Y-112363645D01*
X102753657Y-112360958D01*
X102758560Y-112359754D01*
X102769046Y-112356886D01*
X102773838Y-112355439D01*
X102781316Y-112354134D01*
X102788269Y-112351082D01*
X102837653Y-112329405D01*
X102843758Y-112326914D01*
X102894194Y-112307855D01*
X102894197Y-112307853D01*
X102901301Y-112305169D01*
X102907558Y-112300869D01*
X102912026Y-112298533D01*
X102921472Y-112293275D01*
X102925838Y-112290693D01*
X102932797Y-112287638D01*
X102981616Y-112250177D01*
X102986935Y-112246314D01*
X103031377Y-112215769D01*
X103037638Y-112211466D01*
X103077545Y-112166676D01*
X103082525Y-112161402D01*
X103813459Y-111430468D01*
X103819724Y-111424614D01*
X103855945Y-111393016D01*
X103861670Y-111388022D01*
X103897066Y-111337657D01*
X103900980Y-111332389D01*
X103938935Y-111283984D01*
X103942061Y-111277060D01*
X103944671Y-111272751D01*
X103950042Y-111263336D01*
X103952427Y-111258888D01*
X103956795Y-111252673D01*
X103979144Y-111195351D01*
X103981698Y-111189274D01*
X103994070Y-111161875D01*
X104007014Y-111133207D01*
X104008400Y-111125730D01*
X104009910Y-111120910D01*
X104012878Y-111110494D01*
X104014131Y-111105614D01*
X104016889Y-111098540D01*
X104023914Y-111045181D01*
X104024921Y-111037535D01*
X104025953Y-111031022D01*
X104035777Y-110978013D01*
X104035777Y-110978011D01*
X104037161Y-110970544D01*
X104033709Y-110910669D01*
X104033500Y-110903417D01*
X104033500Y-109233156D01*
X104033792Y-109224586D01*
X104034851Y-109209050D01*
X104037577Y-109169066D01*
X104035396Y-109156565D01*
X104026997Y-109108442D01*
X104026034Y-109101919D01*
X104019558Y-109048408D01*
X104019558Y-109048407D01*
X104018645Y-109040865D01*
X104015959Y-109033755D01*
X104014754Y-109028852D01*
X104011886Y-109018366D01*
X104010439Y-109013574D01*
X104009134Y-109006096D01*
X104004171Y-108994789D01*
X103984405Y-108949759D01*
X103981914Y-108943654D01*
X103962855Y-108893218D01*
X103962853Y-108893215D01*
X103960169Y-108886111D01*
X103955869Y-108879854D01*
X103953533Y-108875386D01*
X103948275Y-108865940D01*
X103945693Y-108861574D01*
X103942638Y-108854615D01*
X103905177Y-108805796D01*
X103901314Y-108800477D01*
X103870769Y-108756035D01*
X103866466Y-108749774D01*
X103821676Y-108709867D01*
X103816402Y-108704887D01*
X103574126Y-108462611D01*
X105968860Y-108462611D01*
X105969157Y-108467763D01*
X105969157Y-108467767D01*
X105977252Y-108608148D01*
X105982903Y-108706151D01*
X105984040Y-108711197D01*
X105984041Y-108711203D01*
X106007107Y-108813555D01*
X106036533Y-108944127D01*
X106038475Y-108948909D01*
X106038476Y-108948913D01*
X106119122Y-109147520D01*
X106128311Y-109170149D01*
X106171181Y-109240106D01*
X106242183Y-109355970D01*
X106255772Y-109378146D01*
X106415492Y-109562533D01*
X106603183Y-109718357D01*
X106813804Y-109841433D01*
X107041698Y-109928458D01*
X107046764Y-109929489D01*
X107046765Y-109929489D01*
X107275667Y-109976060D01*
X107275671Y-109976060D01*
X107280746Y-109977093D01*
X107285922Y-109977283D01*
X107285924Y-109977283D01*
X107519363Y-109985843D01*
X107519367Y-109985843D01*
X107524527Y-109986032D01*
X107529647Y-109985376D01*
X107529649Y-109985376D01*
X107606377Y-109975547D01*
X107766494Y-109955035D01*
X107771443Y-109953550D01*
X107771449Y-109953549D01*
X107995200Y-109886420D01*
X107995199Y-109886420D01*
X108000150Y-109884935D01*
X108219219Y-109777614D01*
X108223424Y-109774614D01*
X108223430Y-109774611D01*
X108413614Y-109638954D01*
X108413616Y-109638952D01*
X108417818Y-109635955D01*
X108590614Y-109463761D01*
X108732966Y-109265657D01*
X108735899Y-109259724D01*
X108838756Y-109051606D01*
X108838757Y-109051604D01*
X108841050Y-109046964D01*
X108872295Y-108944127D01*
X108910462Y-108818507D01*
X108910463Y-108818501D01*
X108911966Y-108813555D01*
X108943807Y-108571697D01*
X108945584Y-108498980D01*
X108925596Y-108255856D01*
X108866167Y-108019260D01*
X108768894Y-107795548D01*
X108668219Y-107639928D01*
X108639200Y-107595071D01*
X108639198Y-107595068D01*
X108636390Y-107590728D01*
X108629358Y-107582999D01*
X108475690Y-107414121D01*
X108475688Y-107414120D01*
X108472212Y-107410299D01*
X108468161Y-107407100D01*
X108468157Y-107407096D01*
X108284825Y-107262309D01*
X108284821Y-107262307D01*
X108280770Y-107259107D01*
X108271146Y-107253794D01*
X108209022Y-107219500D01*
X108067205Y-107141213D01*
X108062336Y-107139489D01*
X108062332Y-107139487D01*
X107842127Y-107061508D01*
X107842123Y-107061507D01*
X107837252Y-107059782D01*
X107832159Y-107058875D01*
X107832156Y-107058874D01*
X107602177Y-107017908D01*
X107602171Y-107017907D01*
X107597088Y-107017002D01*
X107517380Y-107016028D01*
X107358332Y-107014085D01*
X107358330Y-107014085D01*
X107353162Y-107014022D01*
X107112024Y-107050921D01*
X106880150Y-107126709D01*
X106875558Y-107129099D01*
X106875559Y-107129099D01*
X106682743Y-107229473D01*
X106663769Y-107239350D01*
X106659636Y-107242453D01*
X106659633Y-107242455D01*
X106478784Y-107378241D01*
X106468690Y-107385820D01*
X106458387Y-107396602D01*
X106330094Y-107530853D01*
X106300153Y-107562184D01*
X106297239Y-107566456D01*
X106297238Y-107566457D01*
X106263368Y-107616109D01*
X106162684Y-107763706D01*
X106145705Y-107800285D01*
X106083931Y-107933365D01*
X106059974Y-107984975D01*
X105994783Y-108220047D01*
X105968860Y-108462611D01*
X103574126Y-108462611D01*
X103441680Y-108330165D01*
X103407654Y-108267853D01*
X103407623Y-108218116D01*
X103407270Y-108218069D01*
X103407622Y-108215398D01*
X103407622Y-108215395D01*
X103417173Y-108142854D01*
X103430567Y-108041118D01*
X103436429Y-107996590D01*
X103436713Y-107984975D01*
X103437974Y-107933365D01*
X103437974Y-107933361D01*
X103438056Y-107930000D01*
X103419752Y-107707361D01*
X103365331Y-107490702D01*
X103276254Y-107285840D01*
X103225920Y-107208035D01*
X103157722Y-107102617D01*
X103157720Y-107102614D01*
X103154914Y-107098277D01*
X103004570Y-106933051D01*
X103000519Y-106929852D01*
X103000515Y-106929848D01*
X102833314Y-106797800D01*
X102833310Y-106797798D01*
X102829259Y-106794598D01*
X102787953Y-106771796D01*
X102737984Y-106721364D01*
X102723212Y-106651921D01*
X102748328Y-106585516D01*
X102775680Y-106558909D01*
X102880131Y-106484405D01*
X102954760Y-106431173D01*
X103015376Y-106370769D01*
X103109335Y-106277137D01*
X103112996Y-106273489D01*
X103150314Y-106221556D01*
X103240335Y-106096277D01*
X103243353Y-106092077D01*
X103252920Y-106072721D01*
X103340036Y-105896453D01*
X103340037Y-105896451D01*
X103342330Y-105891811D01*
X103407270Y-105678069D01*
X103410965Y-105650000D01*
X103836496Y-105650000D01*
X103837186Y-105656565D01*
X103851625Y-105793941D01*
X103856458Y-105839928D01*
X103915473Y-106021556D01*
X104010960Y-106186944D01*
X104015378Y-106191851D01*
X104015379Y-106191852D01*
X104132274Y-106321677D01*
X104138747Y-106328866D01*
X104144089Y-106332747D01*
X104243798Y-106405190D01*
X104293248Y-106441118D01*
X104299276Y-106443802D01*
X104299278Y-106443803D01*
X104439160Y-106506082D01*
X104467712Y-106518794D01*
X104553646Y-106537060D01*
X104648056Y-106557128D01*
X104648061Y-106557128D01*
X104654513Y-106558500D01*
X104845487Y-106558500D01*
X104851939Y-106557128D01*
X104851944Y-106557128D01*
X104946354Y-106537060D01*
X105032288Y-106518794D01*
X105060840Y-106506082D01*
X105200722Y-106443803D01*
X105200724Y-106443802D01*
X105206752Y-106441118D01*
X105256203Y-106405190D01*
X105355911Y-106332747D01*
X105361253Y-106328866D01*
X105367726Y-106321677D01*
X105484621Y-106191852D01*
X105484622Y-106191851D01*
X105489040Y-106186944D01*
X105584527Y-106021556D01*
X105643542Y-105839928D01*
X105648376Y-105793941D01*
X105662814Y-105656565D01*
X105663504Y-105650000D01*
X105657341Y-105591362D01*
X105644232Y-105466635D01*
X105644232Y-105466633D01*
X105643542Y-105460072D01*
X105584527Y-105278444D01*
X105578817Y-105268553D01*
X105546134Y-105211945D01*
X105489040Y-105113056D01*
X105444232Y-105063291D01*
X105365675Y-104976045D01*
X105365674Y-104976044D01*
X105361253Y-104971134D01*
X105206752Y-104858882D01*
X105200724Y-104856198D01*
X105200722Y-104856197D01*
X105038319Y-104783891D01*
X105038318Y-104783891D01*
X105032288Y-104781206D01*
X104938888Y-104761353D01*
X104851944Y-104742872D01*
X104851939Y-104742872D01*
X104845487Y-104741500D01*
X104654513Y-104741500D01*
X104648061Y-104742872D01*
X104648056Y-104742872D01*
X104561113Y-104761353D01*
X104467712Y-104781206D01*
X104461682Y-104783891D01*
X104461681Y-104783891D01*
X104299278Y-104856197D01*
X104299276Y-104856198D01*
X104293248Y-104858882D01*
X104138747Y-104971134D01*
X104134326Y-104976044D01*
X104134325Y-104976045D01*
X104055769Y-105063291D01*
X104010960Y-105113056D01*
X103953866Y-105211945D01*
X103921184Y-105268553D01*
X103915473Y-105278444D01*
X103856458Y-105460072D01*
X103855768Y-105466633D01*
X103855768Y-105466635D01*
X103842659Y-105591362D01*
X103836496Y-105650000D01*
X103410965Y-105650000D01*
X103436429Y-105456590D01*
X103437295Y-105421141D01*
X103437974Y-105393365D01*
X103437974Y-105393361D01*
X103438056Y-105390000D01*
X103419752Y-105167361D01*
X103365331Y-104950702D01*
X103276254Y-104745840D01*
X103154914Y-104558277D01*
X103151440Y-104554459D01*
X103151433Y-104554450D01*
X103082723Y-104478938D01*
X105968860Y-104478938D01*
X105969157Y-104484090D01*
X105969157Y-104484094D01*
X105975587Y-104595595D01*
X105982903Y-104722478D01*
X105984040Y-104727524D01*
X105984041Y-104727530D01*
X106007107Y-104829882D01*
X106036533Y-104960454D01*
X106038475Y-104965236D01*
X106038476Y-104965240D01*
X106120549Y-105167361D01*
X106128311Y-105186476D01*
X106255772Y-105394473D01*
X106415492Y-105578860D01*
X106603183Y-105734684D01*
X106813804Y-105857760D01*
X107041698Y-105944785D01*
X107046764Y-105945816D01*
X107046765Y-105945816D01*
X107275667Y-105992387D01*
X107275671Y-105992387D01*
X107280746Y-105993420D01*
X107285922Y-105993610D01*
X107285924Y-105993610D01*
X107519363Y-106002170D01*
X107519367Y-106002170D01*
X107524527Y-106002359D01*
X107529647Y-106001703D01*
X107529649Y-106001703D01*
X107606377Y-105991874D01*
X107766494Y-105971362D01*
X107771443Y-105969877D01*
X107771449Y-105969876D01*
X107995200Y-105902747D01*
X107995199Y-105902747D01*
X108000150Y-105901262D01*
X108219219Y-105793941D01*
X108223424Y-105790941D01*
X108223430Y-105790938D01*
X108413614Y-105655281D01*
X108413616Y-105655279D01*
X108417818Y-105652282D01*
X108590614Y-105480088D01*
X108732966Y-105281984D01*
X108790042Y-105166500D01*
X108838756Y-105067933D01*
X108838757Y-105067931D01*
X108841050Y-105063291D01*
X108877637Y-104942872D01*
X108910462Y-104834834D01*
X108910463Y-104834828D01*
X108911966Y-104829882D01*
X108943807Y-104588024D01*
X108944534Y-104558277D01*
X108945502Y-104518672D01*
X108945502Y-104518668D01*
X108945584Y-104515307D01*
X108925596Y-104272183D01*
X108866167Y-104035587D01*
X108768894Y-103811875D01*
X108653580Y-103633627D01*
X108639200Y-103611398D01*
X108639198Y-103611395D01*
X108636390Y-103607055D01*
X108623940Y-103593372D01*
X108475690Y-103430448D01*
X108475688Y-103430447D01*
X108472212Y-103426626D01*
X108468161Y-103423427D01*
X108468157Y-103423423D01*
X108284825Y-103278636D01*
X108284821Y-103278634D01*
X108280770Y-103275434D01*
X108067205Y-103157540D01*
X108062336Y-103155816D01*
X108062332Y-103155814D01*
X107842127Y-103077835D01*
X107842123Y-103077834D01*
X107837252Y-103076109D01*
X107832159Y-103075202D01*
X107832156Y-103075201D01*
X107602177Y-103034235D01*
X107602171Y-103034234D01*
X107597088Y-103033329D01*
X107517380Y-103032355D01*
X107358332Y-103030412D01*
X107358330Y-103030412D01*
X107353162Y-103030349D01*
X107112024Y-103067248D01*
X106880150Y-103143036D01*
X106875558Y-103145426D01*
X106875559Y-103145426D01*
X106678849Y-103247827D01*
X106663769Y-103255677D01*
X106659636Y-103258780D01*
X106659633Y-103258782D01*
X106525522Y-103359476D01*
X106468690Y-103402147D01*
X106441646Y-103430447D01*
X106315063Y-103562909D01*
X106300153Y-103578511D01*
X106297239Y-103582783D01*
X106297238Y-103582784D01*
X106254954Y-103644770D01*
X106162684Y-103780033D01*
X106059974Y-104001302D01*
X105994783Y-104236374D01*
X105968860Y-104478938D01*
X103082723Y-104478938D01*
X103007335Y-104396088D01*
X102976283Y-104332242D01*
X102984679Y-104261744D01*
X103029856Y-104206976D01*
X103056300Y-104193307D01*
X103162952Y-104153325D01*
X103178549Y-104144786D01*
X103280624Y-104068285D01*
X103293185Y-104055724D01*
X103369686Y-103953649D01*
X103378224Y-103938054D01*
X103423378Y-103817606D01*
X103427005Y-103802351D01*
X103432531Y-103751486D01*
X103432900Y-103744672D01*
X103432900Y-103122115D01*
X103428425Y-103106876D01*
X103427035Y-103105671D01*
X103419352Y-103104000D01*
X100735016Y-103104000D01*
X100719777Y-103108475D01*
X100718572Y-103109865D01*
X100716901Y-103117548D01*
X100716901Y-103744669D01*
X100717271Y-103751490D01*
X100722795Y-103802352D01*
X100726421Y-103817604D01*
X100771576Y-103938054D01*
X100780114Y-103953649D01*
X100856615Y-104055724D01*
X100869176Y-104068285D01*
X100971251Y-104144786D01*
X100986846Y-104153324D01*
X101095727Y-104194142D01*
X101152491Y-104236784D01*
X101177191Y-104303345D01*
X101161983Y-104372694D01*
X101142591Y-104399175D01*
X101071272Y-104473806D01*
X101015529Y-104532138D01*
X101012615Y-104536410D01*
X101012614Y-104536411D01*
X100927456Y-104661249D01*
X100889643Y-104716680D01*
X100873903Y-104750590D01*
X100798892Y-104912188D01*
X100795588Y-104919305D01*
X100735889Y-105134570D01*
X100735340Y-105139707D01*
X100716606Y-105315003D01*
X100689478Y-105380613D01*
X100631185Y-105421141D01*
X100560236Y-105423720D01*
X100502224Y-105390709D01*
X97795905Y-102684390D01*
X97761879Y-102622078D01*
X97759000Y-102595295D01*
X97759000Y-102577885D01*
X100716900Y-102577885D01*
X100721375Y-102593124D01*
X100722765Y-102594329D01*
X100730448Y-102596000D01*
X101802785Y-102596000D01*
X101818024Y-102591525D01*
X101819229Y-102590135D01*
X101820900Y-102582452D01*
X101820900Y-102577885D01*
X102328900Y-102577885D01*
X102333375Y-102593124D01*
X102334765Y-102594329D01*
X102342448Y-102596000D01*
X103414784Y-102596000D01*
X103430023Y-102591525D01*
X103431228Y-102590135D01*
X103432899Y-102582452D01*
X103432899Y-101955331D01*
X103432529Y-101948510D01*
X103427005Y-101897648D01*
X103423379Y-101882396D01*
X103378224Y-101761946D01*
X103369686Y-101746351D01*
X103293185Y-101644276D01*
X103280624Y-101631715D01*
X103178549Y-101555214D01*
X103162954Y-101546676D01*
X103042506Y-101501522D01*
X103027251Y-101497895D01*
X102976386Y-101492369D01*
X102969572Y-101492000D01*
X102347015Y-101492000D01*
X102331776Y-101496475D01*
X102330571Y-101497865D01*
X102328900Y-101505548D01*
X102328900Y-102577885D01*
X101820900Y-102577885D01*
X101820900Y-101510116D01*
X101816425Y-101494877D01*
X101815035Y-101493672D01*
X101807352Y-101492001D01*
X101180231Y-101492001D01*
X101173410Y-101492371D01*
X101122548Y-101497895D01*
X101107296Y-101501521D01*
X100986846Y-101546676D01*
X100971251Y-101555214D01*
X100869176Y-101631715D01*
X100856615Y-101644276D01*
X100780114Y-101746351D01*
X100771576Y-101761946D01*
X100726422Y-101882394D01*
X100722795Y-101897649D01*
X100717269Y-101948514D01*
X100716900Y-101955328D01*
X100716900Y-102577885D01*
X97759000Y-102577885D01*
X97759000Y-100495265D01*
X105968860Y-100495265D01*
X105969157Y-100500417D01*
X105969157Y-100500421D01*
X105980558Y-100698133D01*
X105982903Y-100738805D01*
X105984040Y-100743851D01*
X105984041Y-100743857D01*
X106007107Y-100846209D01*
X106036533Y-100976781D01*
X106038475Y-100981563D01*
X106038476Y-100981567D01*
X106126367Y-101198016D01*
X106128311Y-101202803D01*
X106255772Y-101410800D01*
X106415492Y-101595187D01*
X106603183Y-101751011D01*
X106813804Y-101874087D01*
X106818629Y-101875929D01*
X106818630Y-101875930D01*
X106875506Y-101897649D01*
X107041698Y-101961112D01*
X107046764Y-101962143D01*
X107046765Y-101962143D01*
X107275667Y-102008714D01*
X107275671Y-102008714D01*
X107280746Y-102009747D01*
X107285922Y-102009937D01*
X107285924Y-102009937D01*
X107519363Y-102018497D01*
X107519367Y-102018497D01*
X107524527Y-102018686D01*
X107529647Y-102018030D01*
X107529649Y-102018030D01*
X107606377Y-102008201D01*
X107766494Y-101987689D01*
X107771443Y-101986204D01*
X107771449Y-101986203D01*
X107995200Y-101919074D01*
X107995199Y-101919074D01*
X108000150Y-101917589D01*
X108219219Y-101810268D01*
X108223424Y-101807268D01*
X108223430Y-101807265D01*
X108413614Y-101671608D01*
X108413616Y-101671606D01*
X108417818Y-101668609D01*
X108590614Y-101496415D01*
X108593787Y-101492000D01*
X108641834Y-101425135D01*
X108732966Y-101298311D01*
X108841050Y-101079618D01*
X108873827Y-100971739D01*
X108910462Y-100851161D01*
X108910463Y-100851155D01*
X108911966Y-100846209D01*
X108943807Y-100604351D01*
X108945584Y-100531634D01*
X108925596Y-100288510D01*
X108866167Y-100051914D01*
X108795187Y-99888672D01*
X108770954Y-99832939D01*
X108770952Y-99832936D01*
X108768894Y-99828202D01*
X108667520Y-99671502D01*
X108639200Y-99627725D01*
X108639198Y-99627722D01*
X108636390Y-99623382D01*
X108522643Y-99498375D01*
X108475690Y-99446775D01*
X108475688Y-99446774D01*
X108472212Y-99442953D01*
X108468161Y-99439754D01*
X108468157Y-99439750D01*
X108284825Y-99294963D01*
X108284821Y-99294961D01*
X108280770Y-99291761D01*
X108067205Y-99173867D01*
X108062336Y-99172143D01*
X108062332Y-99172141D01*
X107842127Y-99094162D01*
X107842123Y-99094161D01*
X107837252Y-99092436D01*
X107832159Y-99091529D01*
X107832156Y-99091528D01*
X107602177Y-99050562D01*
X107602171Y-99050561D01*
X107597088Y-99049656D01*
X107517380Y-99048682D01*
X107358332Y-99046739D01*
X107358330Y-99046739D01*
X107353162Y-99046676D01*
X107112024Y-99083575D01*
X106880150Y-99159363D01*
X106663769Y-99272004D01*
X106659636Y-99275107D01*
X106659633Y-99275109D01*
X106472825Y-99415369D01*
X106468690Y-99418474D01*
X106300153Y-99594838D01*
X106297239Y-99599110D01*
X106297238Y-99599111D01*
X106279618Y-99624941D01*
X106162684Y-99796360D01*
X106059974Y-100017629D01*
X105994783Y-100252701D01*
X105968860Y-100495265D01*
X97759000Y-100495265D01*
X97759000Y-98084500D01*
X97779002Y-98016379D01*
X97832658Y-97969886D01*
X97885000Y-97958500D01*
X97945487Y-97958500D01*
X97951939Y-97957128D01*
X97951944Y-97957128D01*
X98038888Y-97938647D01*
X98132288Y-97918794D01*
X98138319Y-97916109D01*
X98300722Y-97843803D01*
X98300724Y-97843802D01*
X98306752Y-97841118D01*
X98330875Y-97823592D01*
X98421754Y-97757564D01*
X98488622Y-97733705D01*
X98495815Y-97733500D01*
X101290500Y-97733500D01*
X101358621Y-97753502D01*
X101405114Y-97807158D01*
X101416500Y-97859500D01*
X101416500Y-98450400D01*
X101416837Y-98453646D01*
X101416837Y-98453650D01*
X101426441Y-98546206D01*
X101427474Y-98556166D01*
X101483450Y-98723946D01*
X101576522Y-98874348D01*
X101701697Y-98999305D01*
X101707927Y-99003145D01*
X101707928Y-99003146D01*
X101845090Y-99087694D01*
X101852262Y-99092115D01*
X101932005Y-99118564D01*
X102013611Y-99145632D01*
X102013613Y-99145632D01*
X102020139Y-99147797D01*
X102026975Y-99148497D01*
X102026978Y-99148498D01*
X102070031Y-99152909D01*
X102124600Y-99158500D01*
X103475400Y-99158500D01*
X103478646Y-99158163D01*
X103478650Y-99158163D01*
X103574308Y-99148238D01*
X103574312Y-99148237D01*
X103581166Y-99147526D01*
X103587702Y-99145345D01*
X103587704Y-99145345D01*
X103719806Y-99101272D01*
X103748946Y-99091550D01*
X103899348Y-98998478D01*
X103916944Y-98980852D01*
X103979225Y-98946772D01*
X104050046Y-98951775D01*
X104099751Y-98985557D01*
X104138747Y-99028866D01*
X104293248Y-99141118D01*
X104299276Y-99143802D01*
X104299278Y-99143803D01*
X104461681Y-99216109D01*
X104467712Y-99218794D01*
X104561112Y-99238647D01*
X104648056Y-99257128D01*
X104648061Y-99257128D01*
X104654513Y-99258500D01*
X104845487Y-99258500D01*
X104851939Y-99257128D01*
X104851944Y-99257128D01*
X104938888Y-99238647D01*
X105032288Y-99218794D01*
X105038319Y-99216109D01*
X105200722Y-99143803D01*
X105200724Y-99143802D01*
X105206752Y-99141118D01*
X105361253Y-99028866D01*
X105387870Y-98999305D01*
X105484621Y-98891852D01*
X105484622Y-98891851D01*
X105489040Y-98886944D01*
X105584527Y-98721556D01*
X105643542Y-98539928D01*
X105644757Y-98528374D01*
X105662814Y-98356565D01*
X105663504Y-98350000D01*
X105662814Y-98343435D01*
X105644232Y-98166635D01*
X105644232Y-98166633D01*
X105643542Y-98160072D01*
X105584527Y-97978444D01*
X105579780Y-97970221D01*
X105532198Y-97887807D01*
X105489040Y-97813056D01*
X105483730Y-97807158D01*
X105365675Y-97676045D01*
X105365674Y-97676044D01*
X105361253Y-97671134D01*
X105257615Y-97595836D01*
X105212094Y-97562763D01*
X105212093Y-97562762D01*
X105206752Y-97558882D01*
X105200724Y-97556198D01*
X105200722Y-97556197D01*
X105038319Y-97483891D01*
X105038318Y-97483891D01*
X105032288Y-97481206D01*
X104938887Y-97461353D01*
X104851944Y-97442872D01*
X104851939Y-97442872D01*
X104845487Y-97441500D01*
X104654513Y-97441500D01*
X104648061Y-97442872D01*
X104648056Y-97442872D01*
X104561113Y-97461353D01*
X104467712Y-97481206D01*
X104461685Y-97483889D01*
X104461677Y-97483892D01*
X104319343Y-97547263D01*
X104248976Y-97556697D01*
X104184679Y-97526590D01*
X104148571Y-97472032D01*
X104118868Y-97383002D01*
X104116550Y-97376054D01*
X104023478Y-97225652D01*
X103898303Y-97100695D01*
X103846764Y-97068925D01*
X103799271Y-97016154D01*
X103787847Y-96946082D01*
X103816121Y-96880958D01*
X103835045Y-96862582D01*
X103842920Y-96856396D01*
X103846852Y-96851865D01*
X103846855Y-96851862D01*
X103977621Y-96701167D01*
X103981552Y-96696637D01*
X103984552Y-96691451D01*
X103984555Y-96691447D01*
X104084437Y-96518794D01*
X104087473Y-96513546D01*
X104088152Y-96511592D01*
X105968860Y-96511592D01*
X105969157Y-96516744D01*
X105969157Y-96516748D01*
X105978151Y-96672721D01*
X105982903Y-96755132D01*
X105984040Y-96760178D01*
X105984041Y-96760184D01*
X106006552Y-96860072D01*
X106036533Y-96993108D01*
X106038475Y-96997890D01*
X106038476Y-96997894D01*
X106082319Y-97105866D01*
X106128311Y-97219130D01*
X106255772Y-97427127D01*
X106415492Y-97611514D01*
X106603183Y-97767338D01*
X106813804Y-97890414D01*
X107041698Y-97977439D01*
X107046764Y-97978470D01*
X107046765Y-97978470D01*
X107275667Y-98025041D01*
X107275671Y-98025041D01*
X107280746Y-98026074D01*
X107285922Y-98026264D01*
X107285924Y-98026264D01*
X107519363Y-98034824D01*
X107519367Y-98034824D01*
X107524527Y-98035013D01*
X107529647Y-98034357D01*
X107529649Y-98034357D01*
X107606377Y-98024528D01*
X107766494Y-98004016D01*
X107771443Y-98002531D01*
X107771449Y-98002530D01*
X107995200Y-97935401D01*
X107995199Y-97935401D01*
X108000150Y-97933916D01*
X108219219Y-97826595D01*
X108223424Y-97823595D01*
X108223430Y-97823592D01*
X108413614Y-97687935D01*
X108413616Y-97687933D01*
X108417818Y-97684936D01*
X108590614Y-97512742D01*
X108732966Y-97314638D01*
X108745446Y-97289388D01*
X108838756Y-97100587D01*
X108838757Y-97100585D01*
X108841050Y-97095945D01*
X108874726Y-96985107D01*
X108910462Y-96867488D01*
X108910463Y-96867482D01*
X108911966Y-96862536D01*
X108929574Y-96728786D01*
X108943370Y-96623999D01*
X108943370Y-96623995D01*
X108943807Y-96620678D01*
X108944934Y-96574568D01*
X108945502Y-96551326D01*
X108945502Y-96551322D01*
X108945584Y-96547961D01*
X108925596Y-96304837D01*
X108866167Y-96068241D01*
X108768894Y-95844529D01*
X108671059Y-95693299D01*
X108639200Y-95644052D01*
X108639198Y-95644049D01*
X108636390Y-95639709D01*
X108548566Y-95543191D01*
X108475690Y-95463102D01*
X108475688Y-95463101D01*
X108472212Y-95459280D01*
X108468161Y-95456081D01*
X108468157Y-95456077D01*
X108284825Y-95311290D01*
X108284821Y-95311288D01*
X108280770Y-95308088D01*
X108067205Y-95190194D01*
X108062336Y-95188470D01*
X108062332Y-95188468D01*
X107842127Y-95110489D01*
X107842123Y-95110488D01*
X107837252Y-95108763D01*
X107832159Y-95107856D01*
X107832156Y-95107855D01*
X107602177Y-95066889D01*
X107602171Y-95066888D01*
X107597088Y-95065983D01*
X107517380Y-95065009D01*
X107358332Y-95063066D01*
X107358330Y-95063066D01*
X107353162Y-95063003D01*
X107112024Y-95099902D01*
X106880150Y-95175690D01*
X106863165Y-95184532D01*
X106706323Y-95266179D01*
X106663769Y-95288331D01*
X106659636Y-95291434D01*
X106659633Y-95291436D01*
X106472825Y-95431696D01*
X106468690Y-95434801D01*
X106300153Y-95611165D01*
X106297239Y-95615437D01*
X106297238Y-95615438D01*
X106277719Y-95644052D01*
X106162684Y-95812687D01*
X106147125Y-95846206D01*
X106065730Y-96021556D01*
X106059974Y-96033956D01*
X105994783Y-96269028D01*
X105968860Y-96511592D01*
X104088152Y-96511592D01*
X104156861Y-96313729D01*
X104158878Y-96299818D01*
X104186352Y-96110336D01*
X104186352Y-96110333D01*
X104187213Y-96104396D01*
X104177433Y-95893101D01*
X104127875Y-95687466D01*
X104120010Y-95670166D01*
X104042806Y-95500368D01*
X104040326Y-95494913D01*
X103917946Y-95322389D01*
X103805313Y-95214567D01*
X103769480Y-95180264D01*
X103765150Y-95176119D01*
X103760119Y-95172870D01*
X103760112Y-95172865D01*
X103732393Y-95154967D01*
X103686016Y-95101211D01*
X103676063Y-95030915D01*
X103705696Y-94966398D01*
X103722909Y-94950030D01*
X103837857Y-94859738D01*
X103846506Y-94851501D01*
X103977212Y-94700877D01*
X103984147Y-94691153D01*
X104084010Y-94518533D01*
X104088984Y-94507669D01*
X104154407Y-94319273D01*
X104154648Y-94318284D01*
X104153180Y-94307992D01*
X104139615Y-94304000D01*
X101464598Y-94304000D01*
X101451067Y-94307973D01*
X101449712Y-94317399D01*
X101471194Y-94406537D01*
X101475083Y-94417832D01*
X101557629Y-94599382D01*
X101563576Y-94609724D01*
X101678968Y-94772397D01*
X101686761Y-94781425D01*
X101830831Y-94919342D01*
X101840200Y-94926741D01*
X101867577Y-94944418D01*
X101913955Y-94998172D01*
X101923909Y-95068468D01*
X101894278Y-95132985D01*
X101877063Y-95149356D01*
X101757080Y-95243604D01*
X101753148Y-95248135D01*
X101753145Y-95248138D01*
X101634554Y-95384802D01*
X101618448Y-95403363D01*
X101615448Y-95408549D01*
X101615445Y-95408553D01*
X101598098Y-95438539D01*
X101512527Y-95586454D01*
X101443139Y-95786271D01*
X101442278Y-95792206D01*
X101442278Y-95792208D01*
X101436311Y-95833365D01*
X101412787Y-95995604D01*
X101422567Y-96206899D01*
X101423972Y-96212728D01*
X101424817Y-96218668D01*
X101423162Y-96218903D01*
X101420062Y-96281898D01*
X101378789Y-96339665D01*
X101312837Y-96365948D01*
X101301057Y-96366500D01*
X98495815Y-96366500D01*
X98427694Y-96346498D01*
X98421754Y-96342436D01*
X98312094Y-96262763D01*
X98312093Y-96262762D01*
X98306752Y-96258882D01*
X98300724Y-96256198D01*
X98300722Y-96256197D01*
X98138319Y-96183891D01*
X98138318Y-96183891D01*
X98132288Y-96181206D01*
X98038887Y-96161353D01*
X97951944Y-96142872D01*
X97951939Y-96142872D01*
X97945487Y-96141500D01*
X97885000Y-96141500D01*
X97816879Y-96121498D01*
X97770386Y-96067842D01*
X97759000Y-96015500D01*
X97759000Y-93781716D01*
X101445352Y-93781716D01*
X101446820Y-93792008D01*
X101460385Y-93796000D01*
X102527885Y-93796000D01*
X102543124Y-93791525D01*
X102544329Y-93790135D01*
X102546000Y-93782452D01*
X102546000Y-93777885D01*
X103054000Y-93777885D01*
X103058475Y-93793124D01*
X103059865Y-93794329D01*
X103067548Y-93796000D01*
X104135402Y-93796000D01*
X104148933Y-93792027D01*
X104150288Y-93782601D01*
X104128806Y-93693463D01*
X104124917Y-93682168D01*
X104042371Y-93500618D01*
X104036424Y-93490276D01*
X103921032Y-93327603D01*
X103913239Y-93318575D01*
X103769169Y-93180658D01*
X103759804Y-93173262D01*
X103592259Y-93065079D01*
X103581655Y-93059583D01*
X103396688Y-92985039D01*
X103385230Y-92981645D01*
X103188072Y-92943143D01*
X103179209Y-92942066D01*
X103176500Y-92942000D01*
X103072115Y-92942000D01*
X103056876Y-92946475D01*
X103055671Y-92947865D01*
X103054000Y-92955548D01*
X103054000Y-93777885D01*
X102546000Y-93777885D01*
X102546000Y-92960115D01*
X102541525Y-92944876D01*
X102540135Y-92943671D01*
X102532452Y-92942000D01*
X102475168Y-92942000D01*
X102469192Y-92942285D01*
X102320506Y-92956471D01*
X102308772Y-92958730D01*
X102117401Y-93014872D01*
X102106325Y-93019302D01*
X101929022Y-93110619D01*
X101918976Y-93117069D01*
X101762143Y-93240262D01*
X101753494Y-93248499D01*
X101622788Y-93399123D01*
X101615853Y-93408847D01*
X101515990Y-93581467D01*
X101511016Y-93592331D01*
X101445593Y-93780727D01*
X101445352Y-93781716D01*
X97759000Y-93781716D01*
X97759000Y-93045670D01*
X97779002Y-92977549D01*
X97795905Y-92956575D01*
X98211443Y-92541037D01*
X98217708Y-92535183D01*
X98226035Y-92527919D01*
X105968860Y-92527919D01*
X105969157Y-92533071D01*
X105969157Y-92533075D01*
X105976045Y-92652524D01*
X105982903Y-92771459D01*
X105984040Y-92776505D01*
X105984041Y-92776511D01*
X106007107Y-92878863D01*
X106036533Y-93009435D01*
X106038475Y-93014217D01*
X106038476Y-93014221D01*
X106122944Y-93222240D01*
X106128311Y-93235457D01*
X106255772Y-93443454D01*
X106415492Y-93627841D01*
X106603183Y-93783665D01*
X106813804Y-93906741D01*
X107041698Y-93993766D01*
X107046764Y-93994797D01*
X107046765Y-93994797D01*
X107275667Y-94041368D01*
X107275671Y-94041368D01*
X107280746Y-94042401D01*
X107285922Y-94042591D01*
X107285924Y-94042591D01*
X107519363Y-94051151D01*
X107519367Y-94051151D01*
X107524527Y-94051340D01*
X107529647Y-94050684D01*
X107529649Y-94050684D01*
X107606377Y-94040855D01*
X107766494Y-94020343D01*
X107771443Y-94018858D01*
X107771449Y-94018857D01*
X107995200Y-93951728D01*
X107995199Y-93951728D01*
X108000150Y-93950243D01*
X108219219Y-93842922D01*
X108223424Y-93839922D01*
X108223430Y-93839919D01*
X108413614Y-93704262D01*
X108413616Y-93704260D01*
X108417818Y-93701263D01*
X108590614Y-93529069D01*
X108732966Y-93330965D01*
X108738377Y-93320018D01*
X108838756Y-93116914D01*
X108838757Y-93116912D01*
X108841050Y-93112272D01*
X108857802Y-93057137D01*
X108910462Y-92883815D01*
X108910463Y-92883809D01*
X108911966Y-92878863D01*
X108943807Y-92637005D01*
X108944549Y-92606643D01*
X108945502Y-92567653D01*
X108945502Y-92567649D01*
X108945584Y-92564288D01*
X108925596Y-92321164D01*
X108866167Y-92084568D01*
X108795282Y-91921544D01*
X108770954Y-91865593D01*
X108770952Y-91865590D01*
X108768894Y-91860856D01*
X108685285Y-91731616D01*
X108639200Y-91660379D01*
X108639198Y-91660376D01*
X108636390Y-91656036D01*
X108584035Y-91598498D01*
X108475690Y-91479429D01*
X108475688Y-91479428D01*
X108472212Y-91475607D01*
X108468161Y-91472408D01*
X108468157Y-91472404D01*
X108284825Y-91327617D01*
X108284821Y-91327615D01*
X108280770Y-91324415D01*
X108067205Y-91206521D01*
X108062336Y-91204797D01*
X108062332Y-91204795D01*
X107842127Y-91126816D01*
X107842123Y-91126815D01*
X107837252Y-91125090D01*
X107832159Y-91124183D01*
X107832156Y-91124182D01*
X107602177Y-91083216D01*
X107602171Y-91083215D01*
X107597088Y-91082310D01*
X107517380Y-91081336D01*
X107358332Y-91079393D01*
X107358330Y-91079393D01*
X107353162Y-91079330D01*
X107112024Y-91116229D01*
X106880150Y-91192017D01*
X106875558Y-91194407D01*
X106875559Y-91194407D01*
X106763330Y-91252830D01*
X106663769Y-91304658D01*
X106659636Y-91307761D01*
X106659633Y-91307763D01*
X106472825Y-91448023D01*
X106468690Y-91451128D01*
X106465118Y-91454866D01*
X106318616Y-91608172D01*
X106300153Y-91627492D01*
X106297239Y-91631764D01*
X106297238Y-91631765D01*
X106277719Y-91660379D01*
X106162684Y-91829014D01*
X106145705Y-91865593D01*
X106073456Y-92021239D01*
X106059974Y-92050283D01*
X105994783Y-92285355D01*
X105968860Y-92527919D01*
X98226035Y-92527919D01*
X98232509Y-92522271D01*
X98259654Y-92498591D01*
X98295050Y-92448226D01*
X98298964Y-92442958D01*
X98332232Y-92400530D01*
X98336919Y-92394553D01*
X98340045Y-92387629D01*
X98342655Y-92383320D01*
X98348026Y-92373905D01*
X98350411Y-92369457D01*
X98354779Y-92363242D01*
X98377128Y-92305920D01*
X98379682Y-92299843D01*
X98383905Y-92290492D01*
X98404998Y-92243776D01*
X98406384Y-92236299D01*
X98407894Y-92231479D01*
X98410866Y-92221046D01*
X98412114Y-92216185D01*
X98414873Y-92209109D01*
X98422902Y-92148119D01*
X98423934Y-92141603D01*
X98433761Y-92088581D01*
X98435145Y-92081114D01*
X98433368Y-92050283D01*
X98431693Y-92021239D01*
X98431484Y-92013987D01*
X98431484Y-91701473D01*
X98451486Y-91633352D01*
X98505142Y-91586859D01*
X98575416Y-91576755D01*
X98597149Y-91581880D01*
X98645139Y-91597797D01*
X98651975Y-91598497D01*
X98651978Y-91598498D01*
X98695031Y-91602909D01*
X98749600Y-91608500D01*
X99350400Y-91608500D01*
X99353646Y-91608163D01*
X99353650Y-91608163D01*
X99449308Y-91598238D01*
X99449312Y-91598237D01*
X99456166Y-91597526D01*
X99462702Y-91595345D01*
X99462704Y-91595345D01*
X99598654Y-91549988D01*
X99623946Y-91541550D01*
X99774348Y-91448478D01*
X99899305Y-91323303D01*
X99943040Y-91252352D01*
X99995811Y-91204860D01*
X100065883Y-91193436D01*
X100131006Y-91221710D01*
X100157443Y-91252166D01*
X100198063Y-91317807D01*
X100207099Y-91329208D01*
X100321829Y-91443739D01*
X100333240Y-91452751D01*
X100471243Y-91537816D01*
X100484424Y-91543963D01*
X100638710Y-91595138D01*
X100652086Y-91598005D01*
X100746438Y-91607672D01*
X100752854Y-91608000D01*
X100777885Y-91608000D01*
X100793124Y-91603525D01*
X100794329Y-91602135D01*
X100796000Y-91594452D01*
X100796000Y-91589884D01*
X101304000Y-91589884D01*
X101308475Y-91605123D01*
X101309865Y-91606328D01*
X101317548Y-91607999D01*
X101347095Y-91607999D01*
X101353614Y-91607662D01*
X101449206Y-91597743D01*
X101462600Y-91594851D01*
X101616784Y-91543412D01*
X101629962Y-91537239D01*
X101767807Y-91451937D01*
X101779208Y-91442901D01*
X101893739Y-91328171D01*
X101902751Y-91316760D01*
X101987816Y-91178757D01*
X101993963Y-91165576D01*
X102045138Y-91011290D01*
X102048005Y-90997914D01*
X102057672Y-90903562D01*
X102058000Y-90897146D01*
X102058000Y-89797386D01*
X107817759Y-89797386D01*
X107825216Y-89807753D01*
X108064935Y-90001874D01*
X108070272Y-90005751D01*
X108390685Y-90213830D01*
X108396394Y-90217127D01*
X108736811Y-90390578D01*
X108742836Y-90393260D01*
X109099502Y-90530171D01*
X109105784Y-90532212D01*
X109474816Y-90631094D01*
X109481266Y-90632465D01*
X109858629Y-90692234D01*
X109865167Y-90692920D01*
X110246699Y-90712916D01*
X110253301Y-90712916D01*
X110634833Y-90692920D01*
X110641371Y-90692234D01*
X111018734Y-90632465D01*
X111025184Y-90631094D01*
X111394216Y-90532212D01*
X111400498Y-90530171D01*
X111757164Y-90393260D01*
X111763189Y-90390578D01*
X112103606Y-90217127D01*
X112109315Y-90213830D01*
X112429728Y-90005751D01*
X112435065Y-90001874D01*
X112673835Y-89808522D01*
X112682300Y-89796267D01*
X112675966Y-89785176D01*
X110262812Y-87372022D01*
X110248868Y-87364408D01*
X110247035Y-87364539D01*
X110240420Y-87368790D01*
X107824900Y-89784310D01*
X107817759Y-89797386D01*
X102058000Y-89797386D01*
X102058000Y-88622115D01*
X102053525Y-88606876D01*
X102052135Y-88605671D01*
X102044452Y-88604000D01*
X101322115Y-88604000D01*
X101306876Y-88608475D01*
X101305671Y-88609865D01*
X101304000Y-88617548D01*
X101304000Y-91589884D01*
X100796000Y-91589884D01*
X100796000Y-85110116D01*
X100791525Y-85094877D01*
X100790135Y-85093672D01*
X100782452Y-85092001D01*
X100752905Y-85092001D01*
X100746386Y-85092338D01*
X100650794Y-85102257D01*
X100637400Y-85105149D01*
X100483216Y-85156588D01*
X100463417Y-85165863D01*
X100462492Y-85163889D01*
X100404346Y-85179888D01*
X100336577Y-85158724D01*
X100291008Y-85104281D01*
X100282107Y-85033844D01*
X100286667Y-85014970D01*
X100330969Y-84878624D01*
X100343542Y-84839928D01*
X100346169Y-84814939D01*
X100362814Y-84656565D01*
X100363504Y-84650000D01*
X100362227Y-84637850D01*
X100344232Y-84466635D01*
X100344232Y-84466633D01*
X100343542Y-84460072D01*
X100284527Y-84278444D01*
X100271976Y-84256704D01*
X100223247Y-84172305D01*
X100189040Y-84113056D01*
X100169935Y-84091837D01*
X100065675Y-83976045D01*
X100065674Y-83976044D01*
X100061253Y-83971134D01*
X99906752Y-83858882D01*
X99900724Y-83856198D01*
X99900722Y-83856197D01*
X99738319Y-83783891D01*
X99738318Y-83783891D01*
X99732288Y-83781206D01*
X99621923Y-83757747D01*
X99559449Y-83724018D01*
X99525128Y-83661869D01*
X99529856Y-83591030D01*
X99572132Y-83533992D01*
X99638533Y-83508865D01*
X99648120Y-83508500D01*
X104153315Y-83508500D01*
X104221436Y-83528502D01*
X104267929Y-83582158D01*
X104278033Y-83652432D01*
X104264823Y-83693167D01*
X104243760Y-83733202D01*
X104184654Y-83923554D01*
X104183976Y-83929283D01*
X104177922Y-83980432D01*
X104150051Y-84045729D01*
X104091303Y-84085593D01*
X104050400Y-84090935D01*
X104050400Y-84091500D01*
X102849600Y-84091500D01*
X102846354Y-84091837D01*
X102846350Y-84091837D01*
X102750692Y-84101762D01*
X102750688Y-84101763D01*
X102743834Y-84102474D01*
X102737298Y-84104655D01*
X102737296Y-84104655D01*
X102694977Y-84118774D01*
X102576054Y-84158450D01*
X102425652Y-84251522D01*
X102300695Y-84376697D01*
X102296855Y-84382927D01*
X102296854Y-84382928D01*
X102219715Y-84508071D01*
X102207885Y-84527262D01*
X102152203Y-84695139D01*
X102141500Y-84799600D01*
X102141500Y-85326263D01*
X102121498Y-85394384D01*
X102067842Y-85440877D01*
X101997568Y-85450981D01*
X101932988Y-85421487D01*
X101908356Y-85392566D01*
X101901937Y-85382193D01*
X101892901Y-85370792D01*
X101778171Y-85256261D01*
X101766760Y-85247249D01*
X101628757Y-85162184D01*
X101615576Y-85156037D01*
X101461290Y-85104862D01*
X101447914Y-85101995D01*
X101353562Y-85092328D01*
X101347145Y-85092000D01*
X101322115Y-85092000D01*
X101306876Y-85096475D01*
X101305671Y-85097865D01*
X101304000Y-85105548D01*
X101304000Y-88077885D01*
X101308475Y-88093124D01*
X101309865Y-88094329D01*
X101317548Y-88096000D01*
X102039884Y-88096000D01*
X102055123Y-88091525D01*
X102056328Y-88090135D01*
X102057999Y-88082452D01*
X102057999Y-87873879D01*
X102078001Y-87805758D01*
X102131657Y-87759265D01*
X102201931Y-87749161D01*
X102266511Y-87778655D01*
X102291141Y-87807573D01*
X102301522Y-87824348D01*
X102426697Y-87949305D01*
X102432927Y-87953145D01*
X102432928Y-87953146D01*
X102570090Y-88037694D01*
X102577262Y-88042115D01*
X102619718Y-88056197D01*
X102738611Y-88095632D01*
X102738613Y-88095632D01*
X102745139Y-88097797D01*
X102751975Y-88098497D01*
X102751978Y-88098498D01*
X102795031Y-88102909D01*
X102849600Y-88108500D01*
X104050400Y-88108500D01*
X104053646Y-88108163D01*
X104053650Y-88108163D01*
X104149308Y-88098238D01*
X104149312Y-88098237D01*
X104156166Y-88097526D01*
X104162702Y-88095345D01*
X104162704Y-88095345D01*
X104294806Y-88051272D01*
X104323946Y-88041550D01*
X104474348Y-87948478D01*
X104599305Y-87823303D01*
X104692115Y-87672738D01*
X104747797Y-87504861D01*
X104758500Y-87400400D01*
X104758500Y-87003301D01*
X106537084Y-87003301D01*
X106557080Y-87384833D01*
X106557766Y-87391371D01*
X106617535Y-87768734D01*
X106618906Y-87775184D01*
X106717788Y-88144216D01*
X106719829Y-88150498D01*
X106856740Y-88507164D01*
X106859422Y-88513189D01*
X107032872Y-88853603D01*
X107036169Y-88859313D01*
X107244253Y-89179735D01*
X107248123Y-89185061D01*
X107441478Y-89423835D01*
X107453733Y-89432300D01*
X107464824Y-89425966D01*
X109877978Y-87012812D01*
X109885592Y-86998868D01*
X109885461Y-86997035D01*
X109881210Y-86990420D01*
X107465690Y-84574900D01*
X107452614Y-84567759D01*
X107442247Y-84575216D01*
X107248123Y-84814939D01*
X107244253Y-84820265D01*
X107036169Y-85140687D01*
X107032872Y-85146397D01*
X106859422Y-85486811D01*
X106856740Y-85492836D01*
X106719829Y-85849502D01*
X106717788Y-85855784D01*
X106618906Y-86224816D01*
X106617535Y-86231266D01*
X106557766Y-86608629D01*
X106557080Y-86615167D01*
X106537084Y-86996699D01*
X106537084Y-87003301D01*
X104758500Y-87003301D01*
X104758500Y-85308366D01*
X104778502Y-85240245D01*
X104832158Y-85193752D01*
X104902432Y-85183648D01*
X104913356Y-85186188D01*
X104913435Y-85185839D01*
X105102201Y-85228553D01*
X105102207Y-85228554D01*
X105107838Y-85229828D01*
X105113609Y-85230055D01*
X105113611Y-85230055D01*
X105174556Y-85232449D01*
X105307001Y-85237653D01*
X105406959Y-85223160D01*
X105498535Y-85209883D01*
X105498540Y-85209882D01*
X105504256Y-85209053D01*
X105509728Y-85207195D01*
X105509730Y-85207195D01*
X105687532Y-85146839D01*
X105687534Y-85146838D01*
X105692996Y-85144984D01*
X105866899Y-85047594D01*
X106020143Y-84920143D01*
X106147594Y-84766899D01*
X106244984Y-84592996D01*
X106250698Y-84576165D01*
X106307195Y-84409730D01*
X106307195Y-84409728D01*
X106309053Y-84404256D01*
X106309882Y-84398540D01*
X106309883Y-84398535D01*
X106328124Y-84272721D01*
X106337653Y-84207001D01*
X106339146Y-84150000D01*
X106322786Y-83971958D01*
X106321437Y-83957273D01*
X106321436Y-83957270D01*
X106320908Y-83951519D01*
X106318799Y-83944039D01*
X106268373Y-83765244D01*
X106268372Y-83765242D01*
X106266805Y-83759685D01*
X106257838Y-83741500D01*
X106232553Y-83690228D01*
X106220363Y-83620285D01*
X106247923Y-83554856D01*
X106306481Y-83514713D01*
X106345559Y-83508500D01*
X108410055Y-83508500D01*
X108478176Y-83528502D01*
X108524669Y-83582158D01*
X108534773Y-83652432D01*
X108505279Y-83717012D01*
X108467258Y-83746767D01*
X108396397Y-83782872D01*
X108390687Y-83786169D01*
X108070265Y-83994253D01*
X108064939Y-83998123D01*
X107826165Y-84191478D01*
X107817700Y-84203733D01*
X107824034Y-84214824D01*
X113034310Y-89425100D01*
X113047386Y-89432241D01*
X113057753Y-89424784D01*
X113251877Y-89185061D01*
X113255747Y-89179735D01*
X113463831Y-88859313D01*
X113467128Y-88853603D01*
X113503042Y-88783117D01*
X113551790Y-88731502D01*
X113620705Y-88714436D01*
X113687907Y-88737337D01*
X113732059Y-88792934D01*
X113741309Y-88840331D01*
X113741042Y-91418774D01*
X113741039Y-91445367D01*
X113721030Y-91513486D01*
X113667369Y-91559973D01*
X113597094Y-91570070D01*
X113532517Y-91540570D01*
X113521846Y-91530154D01*
X113475690Y-91479429D01*
X113475688Y-91479428D01*
X113472212Y-91475607D01*
X113468161Y-91472408D01*
X113468157Y-91472404D01*
X113284825Y-91327617D01*
X113284821Y-91327615D01*
X113280770Y-91324415D01*
X113067205Y-91206521D01*
X113062336Y-91204797D01*
X113062332Y-91204795D01*
X112842127Y-91126816D01*
X112842123Y-91126815D01*
X112837252Y-91125090D01*
X112832159Y-91124183D01*
X112832156Y-91124182D01*
X112602177Y-91083216D01*
X112602171Y-91083215D01*
X112597088Y-91082310D01*
X112517380Y-91081336D01*
X112358332Y-91079393D01*
X112358330Y-91079393D01*
X112353162Y-91079330D01*
X112112024Y-91116229D01*
X111880150Y-91192017D01*
X111875558Y-91194407D01*
X111875559Y-91194407D01*
X111763330Y-91252830D01*
X111663769Y-91304658D01*
X111659636Y-91307761D01*
X111659633Y-91307763D01*
X111472825Y-91448023D01*
X111468690Y-91451128D01*
X111465118Y-91454866D01*
X111318616Y-91608172D01*
X111300153Y-91627492D01*
X111297239Y-91631764D01*
X111297238Y-91631765D01*
X111277719Y-91660379D01*
X111162684Y-91829014D01*
X111145705Y-91865593D01*
X111073456Y-92021239D01*
X111059974Y-92050283D01*
X110994783Y-92285355D01*
X110968860Y-92527919D01*
X110969157Y-92533071D01*
X110969157Y-92533075D01*
X110976045Y-92652524D01*
X110982903Y-92771459D01*
X110984040Y-92776505D01*
X110984041Y-92776511D01*
X111007107Y-92878863D01*
X111036533Y-93009435D01*
X111038475Y-93014217D01*
X111038476Y-93014221D01*
X111122944Y-93222240D01*
X111128311Y-93235457D01*
X111255772Y-93443454D01*
X111415492Y-93627841D01*
X111603183Y-93783665D01*
X111813804Y-93906741D01*
X112041698Y-93993766D01*
X112046764Y-93994797D01*
X112046765Y-93994797D01*
X112275667Y-94041368D01*
X112275671Y-94041368D01*
X112280746Y-94042401D01*
X112285922Y-94042591D01*
X112285924Y-94042591D01*
X112519363Y-94051151D01*
X112519367Y-94051151D01*
X112524527Y-94051340D01*
X112529647Y-94050684D01*
X112529649Y-94050684D01*
X112606377Y-94040855D01*
X112766494Y-94020343D01*
X112771443Y-94018858D01*
X112771449Y-94018857D01*
X112995200Y-93951728D01*
X112995199Y-93951728D01*
X113000150Y-93950243D01*
X113219219Y-93842922D01*
X113223424Y-93839922D01*
X113223430Y-93839919D01*
X113413614Y-93704262D01*
X113413616Y-93704260D01*
X113417818Y-93701263D01*
X113421475Y-93697619D01*
X113525866Y-93593592D01*
X113588238Y-93559676D01*
X113659045Y-93564864D01*
X113715806Y-93607510D01*
X113740500Y-93674074D01*
X113740806Y-93682851D01*
X113740628Y-95403363D01*
X113740625Y-95428585D01*
X113720616Y-95496704D01*
X113666955Y-95543191D01*
X113596680Y-95553288D01*
X113532103Y-95523788D01*
X113521432Y-95513372D01*
X113475690Y-95463102D01*
X113475688Y-95463101D01*
X113472212Y-95459280D01*
X113468161Y-95456081D01*
X113468157Y-95456077D01*
X113284825Y-95311290D01*
X113284821Y-95311288D01*
X113280770Y-95308088D01*
X113067205Y-95190194D01*
X113062336Y-95188470D01*
X113062332Y-95188468D01*
X112842127Y-95110489D01*
X112842123Y-95110488D01*
X112837252Y-95108763D01*
X112832159Y-95107856D01*
X112832156Y-95107855D01*
X112602177Y-95066889D01*
X112602171Y-95066888D01*
X112597088Y-95065983D01*
X112517380Y-95065009D01*
X112358332Y-95063066D01*
X112358330Y-95063066D01*
X112353162Y-95063003D01*
X112112024Y-95099902D01*
X111880150Y-95175690D01*
X111863165Y-95184532D01*
X111706323Y-95266179D01*
X111663769Y-95288331D01*
X111659636Y-95291434D01*
X111659633Y-95291436D01*
X111472825Y-95431696D01*
X111468690Y-95434801D01*
X111300153Y-95611165D01*
X111297239Y-95615437D01*
X111297238Y-95615438D01*
X111277719Y-95644052D01*
X111162684Y-95812687D01*
X111147125Y-95846206D01*
X111065730Y-96021556D01*
X111059974Y-96033956D01*
X110994783Y-96269028D01*
X110968860Y-96511592D01*
X110969157Y-96516744D01*
X110969157Y-96516748D01*
X110978151Y-96672721D01*
X110982903Y-96755132D01*
X110984040Y-96760178D01*
X110984041Y-96760184D01*
X111006552Y-96860072D01*
X111036533Y-96993108D01*
X111038475Y-96997890D01*
X111038476Y-96997894D01*
X111082319Y-97105866D01*
X111128311Y-97219130D01*
X111255772Y-97427127D01*
X111415492Y-97611514D01*
X111603183Y-97767338D01*
X111813804Y-97890414D01*
X112041698Y-97977439D01*
X112046764Y-97978470D01*
X112046765Y-97978470D01*
X112275667Y-98025041D01*
X112275671Y-98025041D01*
X112280746Y-98026074D01*
X112285922Y-98026264D01*
X112285924Y-98026264D01*
X112519363Y-98034824D01*
X112519367Y-98034824D01*
X112524527Y-98035013D01*
X112529647Y-98034357D01*
X112529649Y-98034357D01*
X112606377Y-98024528D01*
X112766494Y-98004016D01*
X112771443Y-98002531D01*
X112771449Y-98002530D01*
X112995200Y-97935401D01*
X112995199Y-97935401D01*
X113000150Y-97933916D01*
X113219219Y-97826595D01*
X113223424Y-97823595D01*
X113223430Y-97823592D01*
X113413614Y-97687935D01*
X113413616Y-97687933D01*
X113417818Y-97684936D01*
X113525453Y-97577676D01*
X113587825Y-97543760D01*
X113658631Y-97548948D01*
X113715393Y-97591594D01*
X113740087Y-97658158D01*
X113740393Y-97666936D01*
X113740215Y-99387158D01*
X113740212Y-99411804D01*
X113720203Y-99479923D01*
X113666542Y-99526410D01*
X113596267Y-99536507D01*
X113531690Y-99507007D01*
X113521019Y-99496591D01*
X113475690Y-99446775D01*
X113475688Y-99446774D01*
X113472212Y-99442953D01*
X113468161Y-99439754D01*
X113468157Y-99439750D01*
X113284825Y-99294963D01*
X113284821Y-99294961D01*
X113280770Y-99291761D01*
X113067205Y-99173867D01*
X113062336Y-99172143D01*
X113062332Y-99172141D01*
X112842127Y-99094162D01*
X112842123Y-99094161D01*
X112837252Y-99092436D01*
X112832159Y-99091529D01*
X112832156Y-99091528D01*
X112602177Y-99050562D01*
X112602171Y-99050561D01*
X112597088Y-99049656D01*
X112517380Y-99048682D01*
X112358332Y-99046739D01*
X112358330Y-99046739D01*
X112353162Y-99046676D01*
X112112024Y-99083575D01*
X111880150Y-99159363D01*
X111663769Y-99272004D01*
X111659636Y-99275107D01*
X111659633Y-99275109D01*
X111472825Y-99415369D01*
X111468690Y-99418474D01*
X111300153Y-99594838D01*
X111297239Y-99599110D01*
X111297238Y-99599111D01*
X111279618Y-99624941D01*
X111162684Y-99796360D01*
X111059974Y-100017629D01*
X110994783Y-100252701D01*
X110968860Y-100495265D01*
X110969157Y-100500417D01*
X110969157Y-100500421D01*
X110980558Y-100698133D01*
X110982903Y-100738805D01*
X110984040Y-100743851D01*
X110984041Y-100743857D01*
X111007107Y-100846209D01*
X111036533Y-100976781D01*
X111038475Y-100981563D01*
X111038476Y-100981567D01*
X111126367Y-101198016D01*
X111128311Y-101202803D01*
X111255772Y-101410800D01*
X111415492Y-101595187D01*
X111603183Y-101751011D01*
X111813804Y-101874087D01*
X111818629Y-101875929D01*
X111818630Y-101875930D01*
X111875506Y-101897649D01*
X112041698Y-101961112D01*
X112046764Y-101962143D01*
X112046765Y-101962143D01*
X112275667Y-102008714D01*
X112275671Y-102008714D01*
X112280746Y-102009747D01*
X112285922Y-102009937D01*
X112285924Y-102009937D01*
X112519363Y-102018497D01*
X112519367Y-102018497D01*
X112524527Y-102018686D01*
X112529647Y-102018030D01*
X112529649Y-102018030D01*
X112606377Y-102008201D01*
X112766494Y-101987689D01*
X112771443Y-101986204D01*
X112771449Y-101986203D01*
X112995200Y-101919074D01*
X112995199Y-101919074D01*
X113000150Y-101917589D01*
X113219219Y-101810268D01*
X113223424Y-101807268D01*
X113223430Y-101807265D01*
X113413614Y-101671608D01*
X113413616Y-101671606D01*
X113417818Y-101668609D01*
X113421475Y-101664965D01*
X113525039Y-101561762D01*
X113587411Y-101527846D01*
X113658218Y-101533034D01*
X113714979Y-101575680D01*
X113739673Y-101642244D01*
X113739979Y-101651026D01*
X113739798Y-103395023D01*
X113719789Y-103463142D01*
X113666128Y-103509629D01*
X113595853Y-103519726D01*
X113531276Y-103490226D01*
X113520612Y-103479817D01*
X113472212Y-103426626D01*
X113468161Y-103423427D01*
X113468157Y-103423423D01*
X113284825Y-103278636D01*
X113284821Y-103278634D01*
X113280770Y-103275434D01*
X113067205Y-103157540D01*
X113062336Y-103155816D01*
X113062332Y-103155814D01*
X112842127Y-103077835D01*
X112842123Y-103077834D01*
X112837252Y-103076109D01*
X112832159Y-103075202D01*
X112832156Y-103075201D01*
X112602177Y-103034235D01*
X112602171Y-103034234D01*
X112597088Y-103033329D01*
X112517380Y-103032355D01*
X112358332Y-103030412D01*
X112358330Y-103030412D01*
X112353162Y-103030349D01*
X112112024Y-103067248D01*
X111880150Y-103143036D01*
X111875558Y-103145426D01*
X111875559Y-103145426D01*
X111678849Y-103247827D01*
X111663769Y-103255677D01*
X111659636Y-103258780D01*
X111659633Y-103258782D01*
X111525522Y-103359476D01*
X111468690Y-103402147D01*
X111441646Y-103430447D01*
X111315063Y-103562909D01*
X111300153Y-103578511D01*
X111297239Y-103582783D01*
X111297238Y-103582784D01*
X111254954Y-103644770D01*
X111162684Y-103780033D01*
X111059974Y-104001302D01*
X110994783Y-104236374D01*
X110968860Y-104478938D01*
X110969157Y-104484090D01*
X110969157Y-104484094D01*
X110975587Y-104595595D01*
X110982903Y-104722478D01*
X110984040Y-104727524D01*
X110984041Y-104727530D01*
X111007107Y-104829882D01*
X111036533Y-104960454D01*
X111038475Y-104965236D01*
X111038476Y-104965240D01*
X111120549Y-105167361D01*
X111128311Y-105186476D01*
X111255772Y-105394473D01*
X111415492Y-105578860D01*
X111603183Y-105734684D01*
X111813804Y-105857760D01*
X112041698Y-105944785D01*
X112046764Y-105945816D01*
X112046765Y-105945816D01*
X112275667Y-105992387D01*
X112275671Y-105992387D01*
X112280746Y-105993420D01*
X112285922Y-105993610D01*
X112285924Y-105993610D01*
X112519363Y-106002170D01*
X112519367Y-106002170D01*
X112524527Y-106002359D01*
X112529647Y-106001703D01*
X112529649Y-106001703D01*
X112606377Y-105991874D01*
X112766494Y-105971362D01*
X112771443Y-105969877D01*
X112771449Y-105969876D01*
X112995200Y-105902747D01*
X112995199Y-105902747D01*
X113000150Y-105901262D01*
X113219219Y-105793941D01*
X113223424Y-105790941D01*
X113223430Y-105790938D01*
X113413614Y-105655281D01*
X113413616Y-105655279D01*
X113417818Y-105652282D01*
X113524626Y-105545846D01*
X113586998Y-105511930D01*
X113657804Y-105517118D01*
X113714566Y-105559764D01*
X113739260Y-105626328D01*
X113739566Y-105635107D01*
X113739386Y-107370631D01*
X113739385Y-107378241D01*
X113719376Y-107446360D01*
X113665715Y-107492847D01*
X113595440Y-107502944D01*
X113530863Y-107473444D01*
X113520192Y-107463028D01*
X113475690Y-107414121D01*
X113475688Y-107414120D01*
X113472212Y-107410299D01*
X113468161Y-107407100D01*
X113468157Y-107407096D01*
X113284825Y-107262309D01*
X113284821Y-107262307D01*
X113280770Y-107259107D01*
X113271146Y-107253794D01*
X113209022Y-107219500D01*
X113067205Y-107141213D01*
X113062336Y-107139489D01*
X113062332Y-107139487D01*
X112842127Y-107061508D01*
X112842123Y-107061507D01*
X112837252Y-107059782D01*
X112832159Y-107058875D01*
X112832156Y-107058874D01*
X112602177Y-107017908D01*
X112602171Y-107017907D01*
X112597088Y-107017002D01*
X112517380Y-107016028D01*
X112358332Y-107014085D01*
X112358330Y-107014085D01*
X112353162Y-107014022D01*
X112112024Y-107050921D01*
X111880150Y-107126709D01*
X111875558Y-107129099D01*
X111875559Y-107129099D01*
X111682743Y-107229473D01*
X111663769Y-107239350D01*
X111659636Y-107242453D01*
X111659633Y-107242455D01*
X111478784Y-107378241D01*
X111468690Y-107385820D01*
X111458387Y-107396602D01*
X111330094Y-107530853D01*
X111300153Y-107562184D01*
X111297239Y-107566456D01*
X111297238Y-107566457D01*
X111263368Y-107616109D01*
X111162684Y-107763706D01*
X111145705Y-107800285D01*
X111083931Y-107933365D01*
X111059974Y-107984975D01*
X110994783Y-108220047D01*
X110968860Y-108462611D01*
X110969157Y-108467763D01*
X110969157Y-108467767D01*
X110977252Y-108608148D01*
X110982903Y-108706151D01*
X110984040Y-108711197D01*
X110984041Y-108711203D01*
X111007107Y-108813555D01*
X111036533Y-108944127D01*
X111038475Y-108948909D01*
X111038476Y-108948913D01*
X111119122Y-109147520D01*
X111128311Y-109170149D01*
X111171181Y-109240106D01*
X111242183Y-109355970D01*
X111255772Y-109378146D01*
X111415492Y-109562533D01*
X111603183Y-109718357D01*
X111813804Y-109841433D01*
X112041698Y-109928458D01*
X112046764Y-109929489D01*
X112046765Y-109929489D01*
X112275667Y-109976060D01*
X112275671Y-109976060D01*
X112280746Y-109977093D01*
X112285922Y-109977283D01*
X112285924Y-109977283D01*
X112519363Y-109985843D01*
X112519367Y-109985843D01*
X112524527Y-109986032D01*
X112529647Y-109985376D01*
X112529649Y-109985376D01*
X112606377Y-109975547D01*
X112766494Y-109955035D01*
X112771443Y-109953550D01*
X112771449Y-109953549D01*
X112995200Y-109886420D01*
X112995199Y-109886420D01*
X113000150Y-109884935D01*
X113219219Y-109777614D01*
X113223424Y-109774614D01*
X113223430Y-109774611D01*
X113413614Y-109638954D01*
X113413616Y-109638952D01*
X113417818Y-109635955D01*
X113524211Y-109529932D01*
X113586584Y-109496016D01*
X113657391Y-109501204D01*
X113714152Y-109543850D01*
X113738846Y-109610414D01*
X113739152Y-109619196D01*
X113738971Y-111361460D01*
X113718962Y-111429579D01*
X113665301Y-111476066D01*
X113595026Y-111486163D01*
X113530449Y-111456663D01*
X113519784Y-111446253D01*
X113472212Y-111393972D01*
X113468161Y-111390773D01*
X113468157Y-111390769D01*
X113284825Y-111245982D01*
X113284821Y-111245980D01*
X113280770Y-111242780D01*
X113067205Y-111124886D01*
X113062336Y-111123162D01*
X113062332Y-111123160D01*
X112842127Y-111045181D01*
X112842123Y-111045180D01*
X112837252Y-111043455D01*
X112832159Y-111042548D01*
X112832156Y-111042547D01*
X112602177Y-111001581D01*
X112602171Y-111001580D01*
X112597088Y-111000675D01*
X112517380Y-110999701D01*
X112358332Y-110997758D01*
X112358330Y-110997758D01*
X112353162Y-110997695D01*
X112112024Y-111034594D01*
X111880150Y-111110382D01*
X111663769Y-111223023D01*
X111659636Y-111226126D01*
X111659633Y-111226128D01*
X111472825Y-111366388D01*
X111468690Y-111369493D01*
X111465118Y-111373231D01*
X111330911Y-111513671D01*
X111300153Y-111545857D01*
X111297239Y-111550129D01*
X111297238Y-111550130D01*
X111278355Y-111577811D01*
X111162684Y-111747379D01*
X111146699Y-111781816D01*
X111068462Y-111950363D01*
X111059974Y-111968648D01*
X110994783Y-112203720D01*
X110968860Y-112446284D01*
X110969157Y-112451436D01*
X110969157Y-112451440D01*
X110976764Y-112583365D01*
X110982903Y-112689824D01*
X110984040Y-112694870D01*
X110984041Y-112694876D01*
X111007107Y-112797228D01*
X111036533Y-112927800D01*
X111038475Y-112932582D01*
X111038476Y-112932586D01*
X111103819Y-113093505D01*
X111128311Y-113153822D01*
X111255772Y-113361819D01*
X111415492Y-113546206D01*
X111603183Y-113702030D01*
X111813804Y-113825106D01*
X112041698Y-113912131D01*
X112046764Y-113913162D01*
X112046765Y-113913162D01*
X112275667Y-113959733D01*
X112275671Y-113959733D01*
X112280746Y-113960766D01*
X112285922Y-113960956D01*
X112285924Y-113960956D01*
X112519363Y-113969516D01*
X112519367Y-113969516D01*
X112524527Y-113969705D01*
X112529647Y-113969049D01*
X112529649Y-113969049D01*
X112628302Y-113956411D01*
X112766494Y-113938708D01*
X112771443Y-113937223D01*
X112771449Y-113937222D01*
X112995200Y-113870093D01*
X112995199Y-113870093D01*
X113000150Y-113868608D01*
X113219219Y-113761287D01*
X113223424Y-113758287D01*
X113223430Y-113758284D01*
X113413614Y-113622627D01*
X113413616Y-113622625D01*
X113417818Y-113619628D01*
X113523799Y-113514016D01*
X113586171Y-113480100D01*
X113656977Y-113485288D01*
X113713739Y-113527934D01*
X113738433Y-113594497D01*
X113738739Y-113603280D01*
X113738558Y-115344679D01*
X113718549Y-115412798D01*
X113664888Y-115459285D01*
X113594613Y-115469382D01*
X113530036Y-115439882D01*
X113519370Y-115429471D01*
X113472212Y-115377645D01*
X113468161Y-115374446D01*
X113468157Y-115374442D01*
X113284825Y-115229655D01*
X113284821Y-115229653D01*
X113280770Y-115226453D01*
X113273474Y-115222425D01*
X113197146Y-115180290D01*
X113067205Y-115108559D01*
X113062336Y-115106835D01*
X113062332Y-115106833D01*
X112842127Y-115028854D01*
X112842123Y-115028853D01*
X112837252Y-115027128D01*
X112832159Y-115026221D01*
X112832156Y-115026220D01*
X112602177Y-114985254D01*
X112602171Y-114985253D01*
X112597088Y-114984348D01*
X112517380Y-114983374D01*
X112358332Y-114981431D01*
X112358330Y-114981431D01*
X112353162Y-114981368D01*
X112112024Y-115018267D01*
X111880150Y-115094055D01*
X111663769Y-115206696D01*
X111659636Y-115209799D01*
X111659633Y-115209801D01*
X111472825Y-115350061D01*
X111468690Y-115353166D01*
X111400411Y-115424616D01*
X111321265Y-115507438D01*
X111300153Y-115529530D01*
X111297239Y-115533802D01*
X111297238Y-115533803D01*
X111230781Y-115631226D01*
X111162684Y-115731052D01*
X111139949Y-115780031D01*
X111073433Y-115923327D01*
X111059974Y-115952321D01*
X110994783Y-116187393D01*
X110968860Y-116429957D01*
X110969157Y-116435109D01*
X110969157Y-116435113D01*
X110975933Y-116552617D01*
X110982903Y-116673497D01*
X110984040Y-116678543D01*
X110984041Y-116678549D01*
X111007107Y-116780901D01*
X111036533Y-116911473D01*
X111038475Y-116916255D01*
X111038476Y-116916259D01*
X111126367Y-117132708D01*
X111128311Y-117137495D01*
X111255772Y-117345492D01*
X111415492Y-117529879D01*
X111603183Y-117685703D01*
X111813804Y-117808779D01*
X112041698Y-117895804D01*
X112046764Y-117896835D01*
X112046765Y-117896835D01*
X112275667Y-117943406D01*
X112275671Y-117943406D01*
X112280746Y-117944439D01*
X112285922Y-117944629D01*
X112285924Y-117944629D01*
X112519363Y-117953189D01*
X112519367Y-117953189D01*
X112524527Y-117953378D01*
X112529647Y-117952722D01*
X112529649Y-117952722D01*
X112606377Y-117942893D01*
X112766494Y-117922381D01*
X112771443Y-117920896D01*
X112771449Y-117920895D01*
X112995200Y-117853766D01*
X112995199Y-117853766D01*
X113000150Y-117852281D01*
X113219219Y-117744960D01*
X113223424Y-117741960D01*
X113223430Y-117741957D01*
X113413614Y-117606300D01*
X113413616Y-117606298D01*
X113417818Y-117603301D01*
X113523385Y-117498102D01*
X113585757Y-117464186D01*
X113656564Y-117469374D01*
X113713325Y-117512020D01*
X113738019Y-117578584D01*
X113738325Y-117587366D01*
X113738308Y-117752596D01*
X113738147Y-119309995D01*
X113738145Y-119327897D01*
X113718136Y-119396016D01*
X113664475Y-119442503D01*
X113594200Y-119452600D01*
X113529623Y-119423100D01*
X113518952Y-119412684D01*
X113482837Y-119372995D01*
X113472212Y-119361318D01*
X113468161Y-119358119D01*
X113468157Y-119358115D01*
X113284825Y-119213328D01*
X113284821Y-119213326D01*
X113280770Y-119210126D01*
X113263643Y-119200671D01*
X113224759Y-119179206D01*
X113067205Y-119092232D01*
X113062336Y-119090508D01*
X113062332Y-119090506D01*
X112842127Y-119012527D01*
X112842123Y-119012526D01*
X112837252Y-119010801D01*
X112832159Y-119009894D01*
X112832156Y-119009893D01*
X112602177Y-118968927D01*
X112602171Y-118968926D01*
X112597088Y-118968021D01*
X112517380Y-118967047D01*
X112358332Y-118965104D01*
X112358330Y-118965104D01*
X112353162Y-118965041D01*
X112112024Y-119001940D01*
X111880150Y-119077728D01*
X111663769Y-119190369D01*
X111659636Y-119193472D01*
X111659633Y-119193474D01*
X111472825Y-119333734D01*
X111468690Y-119336839D01*
X111465118Y-119340577D01*
X111364418Y-119445954D01*
X111300153Y-119513203D01*
X111297239Y-119517475D01*
X111297238Y-119517476D01*
X111277719Y-119546090D01*
X111162684Y-119714725D01*
X111137446Y-119769095D01*
X111063332Y-119928760D01*
X111059974Y-119935994D01*
X110994783Y-120171066D01*
X110968860Y-120413630D01*
X110969157Y-120418782D01*
X110969157Y-120418786D01*
X110975560Y-120529829D01*
X110982903Y-120657170D01*
X110984040Y-120662216D01*
X110984041Y-120662222D01*
X111009596Y-120775615D01*
X111036533Y-120895146D01*
X111038475Y-120899928D01*
X111038476Y-120899932D01*
X111112668Y-121082645D01*
X111128311Y-121121168D01*
X111255772Y-121329165D01*
X111415492Y-121513552D01*
X111603183Y-121669376D01*
X111813804Y-121792452D01*
X112041698Y-121879477D01*
X112046764Y-121880508D01*
X112046765Y-121880508D01*
X112275667Y-121927079D01*
X112275671Y-121927079D01*
X112280746Y-121928112D01*
X112285922Y-121928302D01*
X112285924Y-121928302D01*
X112519363Y-121936862D01*
X112519367Y-121936862D01*
X112524527Y-121937051D01*
X112529647Y-121936395D01*
X112529649Y-121936395D01*
X112606377Y-121926566D01*
X112766494Y-121906054D01*
X112771443Y-121904569D01*
X112771449Y-121904568D01*
X112995200Y-121837439D01*
X112995199Y-121837439D01*
X113000150Y-121835954D01*
X113219219Y-121728633D01*
X113223424Y-121725633D01*
X113223430Y-121725630D01*
X113413614Y-121589973D01*
X113413616Y-121589971D01*
X113417818Y-121586974D01*
X113522973Y-121482186D01*
X113585343Y-121448270D01*
X113656150Y-121453458D01*
X113712912Y-121496104D01*
X113737606Y-121562667D01*
X113737912Y-121571450D01*
X113737856Y-122110675D01*
X113737661Y-123995906D01*
X113737659Y-124010510D01*
X113717650Y-124078629D01*
X113663989Y-124125116D01*
X113593714Y-124135213D01*
X113529137Y-124105713D01*
X113499392Y-124067700D01*
X113463070Y-123996413D01*
X113459773Y-123990703D01*
X113251689Y-123670281D01*
X113247819Y-123664955D01*
X113054464Y-123426181D01*
X113042209Y-123417716D01*
X113031118Y-123424050D01*
X107820842Y-128634326D01*
X107813701Y-128647402D01*
X107821158Y-128657769D01*
X108060877Y-128851890D01*
X108066214Y-128855767D01*
X108386627Y-129063846D01*
X108392336Y-129067143D01*
X108732753Y-129240594D01*
X108738778Y-129243276D01*
X108815669Y-129272792D01*
X108872098Y-129315878D01*
X108896274Y-129382631D01*
X108880523Y-129451859D01*
X108829845Y-129501580D01*
X108771968Y-129516414D01*
X105295494Y-129556373D01*
X105293290Y-129556378D01*
X97560892Y-129501538D01*
X88385743Y-129436466D01*
X88317766Y-129415981D01*
X88271655Y-129361997D01*
X88268640Y-129343717D01*
X88250660Y-129309870D01*
X87229885Y-128289095D01*
X87195859Y-128226783D01*
X87197694Y-128201132D01*
X87864408Y-128201132D01*
X87864539Y-128202965D01*
X87868790Y-128209580D01*
X88610474Y-128951264D01*
X88622484Y-128957823D01*
X88634223Y-128948855D01*
X88665004Y-128906019D01*
X88670315Y-128897180D01*
X88764670Y-128706267D01*
X88768469Y-128696672D01*
X88830376Y-128492915D01*
X88832555Y-128482834D01*
X88860590Y-128269887D01*
X88861109Y-128263212D01*
X88862572Y-128203364D01*
X88862378Y-128196646D01*
X88844781Y-127982604D01*
X88843096Y-127972424D01*
X88791214Y-127765875D01*
X88787894Y-127756124D01*
X88702972Y-127560814D01*
X88698105Y-127551739D01*
X88633063Y-127451197D01*
X88622377Y-127441995D01*
X88612812Y-127446398D01*
X87872022Y-128187188D01*
X87864408Y-128201132D01*
X87197694Y-128201132D01*
X87200924Y-128155968D01*
X87229885Y-128110905D01*
X87795248Y-127545542D01*
X87848134Y-127513951D01*
X87908356Y-127495884D01*
X87992429Y-127470661D01*
X87992434Y-127470659D01*
X87997384Y-127469174D01*
X88197994Y-127370896D01*
X88379860Y-127241173D01*
X88418116Y-127203051D01*
X88477211Y-127144162D01*
X88538096Y-127083489D01*
X88589245Y-127012308D01*
X88665435Y-126906277D01*
X88668453Y-126902077D01*
X88752842Y-126731328D01*
X88800954Y-126679122D01*
X88869655Y-126661215D01*
X88937132Y-126683293D01*
X88982207Y-126738938D01*
X89055594Y-126916109D01*
X89062384Y-126932502D01*
X89194672Y-127148376D01*
X89359102Y-127340898D01*
X89551624Y-127505328D01*
X89767498Y-127637616D01*
X89772068Y-127639509D01*
X89772072Y-127639511D01*
X89996836Y-127732611D01*
X90001409Y-127734505D01*
X90048994Y-127745929D01*
X90242784Y-127792454D01*
X90242790Y-127792455D01*
X90247597Y-127793609D01*
X90500000Y-127813474D01*
X90752403Y-127793609D01*
X90757210Y-127792455D01*
X90757216Y-127792454D01*
X90951006Y-127745929D01*
X90998591Y-127734505D01*
X91003164Y-127732611D01*
X91227928Y-127639511D01*
X91227932Y-127639509D01*
X91232502Y-127637616D01*
X91448376Y-127505328D01*
X91640898Y-127340898D01*
X91805328Y-127148376D01*
X91937616Y-126932502D01*
X91944407Y-126916109D01*
X92032611Y-126703164D01*
X92032612Y-126703162D01*
X92034505Y-126698591D01*
X92060607Y-126589866D01*
X92092454Y-126457216D01*
X92092455Y-126457210D01*
X92093609Y-126452403D01*
X92113474Y-126200000D01*
X92093609Y-125947597D01*
X92091449Y-125938596D01*
X92081735Y-125898134D01*
X92966500Y-125898134D01*
X92973255Y-125960316D01*
X93024385Y-126096705D01*
X93111739Y-126213261D01*
X93228295Y-126300615D01*
X93364684Y-126351745D01*
X93426866Y-126358500D01*
X95223134Y-126358500D01*
X95285316Y-126351745D01*
X95421705Y-126300615D01*
X95538261Y-126213261D01*
X95625615Y-126096705D01*
X95676745Y-125960316D01*
X95683500Y-125898134D01*
X95683500Y-125868134D01*
X96591500Y-125868134D01*
X96598255Y-125930316D01*
X96649385Y-126066705D01*
X96736739Y-126183261D01*
X96853295Y-126270615D01*
X96989684Y-126321745D01*
X97051866Y-126328500D01*
X98848134Y-126328500D01*
X98910316Y-126321745D01*
X99046705Y-126270615D01*
X99163261Y-126183261D01*
X99250615Y-126066705D01*
X99256877Y-126050000D01*
X101836496Y-126050000D01*
X101837186Y-126056565D01*
X101852901Y-126206081D01*
X101856458Y-126239928D01*
X101915473Y-126421556D01*
X101918776Y-126427278D01*
X101918777Y-126427279D01*
X101936061Y-126457216D01*
X102010960Y-126586944D01*
X102015378Y-126591851D01*
X102015379Y-126591852D01*
X102134325Y-126723955D01*
X102138747Y-126728866D01*
X102293248Y-126841118D01*
X102299276Y-126843802D01*
X102299278Y-126843803D01*
X102439598Y-126906277D01*
X102467712Y-126918794D01*
X102532203Y-126932502D01*
X102648056Y-126957128D01*
X102648061Y-126957128D01*
X102654513Y-126958500D01*
X102845487Y-126958500D01*
X102851939Y-126957128D01*
X102851944Y-126957128D01*
X102967797Y-126932502D01*
X103032288Y-126918794D01*
X103060402Y-126906277D01*
X103200722Y-126843803D01*
X103200724Y-126843802D01*
X103206752Y-126841118D01*
X103361253Y-126728866D01*
X103365675Y-126723955D01*
X103484621Y-126591852D01*
X103484622Y-126591851D01*
X103489040Y-126586944D01*
X103563939Y-126457216D01*
X103581223Y-126427279D01*
X103581224Y-126427278D01*
X103584527Y-126421556D01*
X103643542Y-126239928D01*
X103643550Y-126239851D01*
X103676130Y-126179509D01*
X103738280Y-126145189D01*
X103809119Y-126149918D01*
X103866155Y-126192195D01*
X103885478Y-126229243D01*
X103915473Y-126321556D01*
X104010960Y-126486944D01*
X104015378Y-126491851D01*
X104015379Y-126491852D01*
X104134325Y-126623955D01*
X104138747Y-126628866D01*
X104207918Y-126679122D01*
X104276385Y-126728866D01*
X104293248Y-126741118D01*
X104299276Y-126743802D01*
X104299278Y-126743803D01*
X104394560Y-126786225D01*
X104467712Y-126818794D01*
X104554479Y-126837237D01*
X104648056Y-126857128D01*
X104648061Y-126857128D01*
X104654513Y-126858500D01*
X104845487Y-126858500D01*
X104851939Y-126857128D01*
X104851944Y-126857128D01*
X104945521Y-126837237D01*
X105032288Y-126818794D01*
X105105440Y-126786225D01*
X105200722Y-126743803D01*
X105200724Y-126743802D01*
X105206752Y-126741118D01*
X105223616Y-126728866D01*
X105292082Y-126679122D01*
X105361253Y-126628866D01*
X105365675Y-126623955D01*
X105484621Y-126491852D01*
X105484622Y-126491851D01*
X105489040Y-126486944D01*
X105584527Y-126321556D01*
X105643542Y-126139928D01*
X105651573Y-126063522D01*
X105662814Y-125956565D01*
X105663504Y-125950000D01*
X105659133Y-125908416D01*
X105653342Y-125853317D01*
X106533026Y-125853317D01*
X106553022Y-126234849D01*
X106553708Y-126241387D01*
X106613477Y-126618750D01*
X106614848Y-126625200D01*
X106713730Y-126994232D01*
X106715771Y-127000514D01*
X106852682Y-127357180D01*
X106855364Y-127363205D01*
X107028814Y-127703619D01*
X107032111Y-127709329D01*
X107240195Y-128029751D01*
X107244065Y-128035077D01*
X107437420Y-128273851D01*
X107449675Y-128282316D01*
X107460766Y-128275982D01*
X109873920Y-125862828D01*
X109881534Y-125848884D01*
X109881403Y-125847051D01*
X109877152Y-125840436D01*
X107461632Y-123424916D01*
X107448556Y-123417775D01*
X107438189Y-123425232D01*
X107244065Y-123664955D01*
X107240195Y-123670281D01*
X107032111Y-123990703D01*
X107028814Y-123996413D01*
X106855364Y-124336827D01*
X106852682Y-124342852D01*
X106715771Y-124699518D01*
X106713730Y-124705800D01*
X106614848Y-125074832D01*
X106613477Y-125081282D01*
X106553708Y-125458645D01*
X106553022Y-125465183D01*
X106533026Y-125846715D01*
X106533026Y-125853317D01*
X105653342Y-125853317D01*
X105644232Y-125766635D01*
X105644232Y-125766633D01*
X105643542Y-125760072D01*
X105584527Y-125578444D01*
X105552171Y-125522401D01*
X105546775Y-125513056D01*
X105489040Y-125413056D01*
X105421821Y-125338401D01*
X105365675Y-125276045D01*
X105365674Y-125276044D01*
X105361253Y-125271134D01*
X105262157Y-125199136D01*
X105212094Y-125162763D01*
X105212093Y-125162762D01*
X105206752Y-125158882D01*
X105200724Y-125156198D01*
X105200722Y-125156197D01*
X105038319Y-125083891D01*
X105038318Y-125083891D01*
X105032288Y-125081206D01*
X104938887Y-125061353D01*
X104851944Y-125042872D01*
X104851939Y-125042872D01*
X104845487Y-125041500D01*
X104654513Y-125041500D01*
X104648061Y-125042872D01*
X104648056Y-125042872D01*
X104561113Y-125061353D01*
X104467712Y-125081206D01*
X104461682Y-125083891D01*
X104461681Y-125083891D01*
X104299278Y-125156197D01*
X104299276Y-125156198D01*
X104293248Y-125158882D01*
X104287907Y-125162762D01*
X104287906Y-125162763D01*
X104237843Y-125199136D01*
X104138747Y-125271134D01*
X104134326Y-125276044D01*
X104134325Y-125276045D01*
X104078180Y-125338401D01*
X104010960Y-125413056D01*
X103953225Y-125513056D01*
X103947830Y-125522401D01*
X103915473Y-125578444D01*
X103856458Y-125760072D01*
X103856450Y-125760149D01*
X103823870Y-125820491D01*
X103761720Y-125854811D01*
X103690881Y-125850082D01*
X103633845Y-125807805D01*
X103614521Y-125770756D01*
X103610383Y-125758019D01*
X103584527Y-125678444D01*
X103489040Y-125513056D01*
X103448020Y-125467498D01*
X103365675Y-125376045D01*
X103365674Y-125376044D01*
X103361253Y-125371134D01*
X103230375Y-125276045D01*
X103212094Y-125262763D01*
X103212093Y-125262762D01*
X103206752Y-125258882D01*
X103200724Y-125256198D01*
X103200722Y-125256197D01*
X103038319Y-125183891D01*
X103038318Y-125183891D01*
X103032288Y-125181206D01*
X102938887Y-125161353D01*
X102851944Y-125142872D01*
X102851939Y-125142872D01*
X102845487Y-125141500D01*
X102654513Y-125141500D01*
X102648061Y-125142872D01*
X102648056Y-125142872D01*
X102561113Y-125161353D01*
X102467712Y-125181206D01*
X102461682Y-125183891D01*
X102461681Y-125183891D01*
X102299278Y-125256197D01*
X102299276Y-125256198D01*
X102293248Y-125258882D01*
X102287907Y-125262762D01*
X102287906Y-125262763D01*
X102269625Y-125276045D01*
X102138747Y-125371134D01*
X102134326Y-125376044D01*
X102134325Y-125376045D01*
X102051981Y-125467498D01*
X102010960Y-125513056D01*
X101915473Y-125678444D01*
X101856458Y-125860072D01*
X101855768Y-125866633D01*
X101855768Y-125866635D01*
X101843761Y-125980880D01*
X101836496Y-126050000D01*
X99256877Y-126050000D01*
X99301745Y-125930316D01*
X99308500Y-125868134D01*
X99308500Y-124071866D01*
X99301745Y-124009684D01*
X99250615Y-123873295D01*
X99163261Y-123756739D01*
X99046705Y-123669385D01*
X98927687Y-123624767D01*
X98870923Y-123582125D01*
X98846223Y-123515564D01*
X98861430Y-123446215D01*
X98882977Y-123417535D01*
X98984052Y-123316812D01*
X98990730Y-123308965D01*
X99115003Y-123136020D01*
X99120313Y-123127183D01*
X99156607Y-123053749D01*
X107813642Y-123053749D01*
X107819976Y-123064840D01*
X110233130Y-125477994D01*
X110247074Y-125485608D01*
X110248907Y-125485477D01*
X110255522Y-125481226D01*
X112671042Y-123065706D01*
X112678183Y-123052630D01*
X112670726Y-123042263D01*
X112431007Y-122848142D01*
X112425670Y-122844265D01*
X112105257Y-122636186D01*
X112099548Y-122632889D01*
X111759131Y-122459438D01*
X111753106Y-122456756D01*
X111396440Y-122319845D01*
X111390158Y-122317804D01*
X111021126Y-122218922D01*
X111014676Y-122217551D01*
X110637313Y-122157782D01*
X110630775Y-122157096D01*
X110249243Y-122137100D01*
X110242641Y-122137100D01*
X109861109Y-122157096D01*
X109854571Y-122157782D01*
X109477208Y-122217551D01*
X109470758Y-122218922D01*
X109101726Y-122317804D01*
X109095444Y-122319845D01*
X108738778Y-122456756D01*
X108732753Y-122459438D01*
X108392339Y-122632888D01*
X108386629Y-122636185D01*
X108066207Y-122844269D01*
X108060881Y-122848139D01*
X107822107Y-123041494D01*
X107813642Y-123053749D01*
X99156607Y-123053749D01*
X99214670Y-122936267D01*
X99218469Y-122926672D01*
X99280377Y-122722910D01*
X99282555Y-122712837D01*
X99283986Y-122701962D01*
X99281775Y-122687778D01*
X99268617Y-122684000D01*
X96633225Y-122684000D01*
X96619694Y-122687973D01*
X96618257Y-122697966D01*
X96648565Y-122832446D01*
X96651645Y-122842275D01*
X96731770Y-123039603D01*
X96736413Y-123048794D01*
X96847694Y-123230388D01*
X96853777Y-123238699D01*
X96993213Y-123399667D01*
X97000577Y-123406879D01*
X97005522Y-123410985D01*
X97045156Y-123469889D01*
X97046653Y-123540870D01*
X97009537Y-123601392D01*
X96969264Y-123625910D01*
X96861705Y-123666232D01*
X96861704Y-123666233D01*
X96853295Y-123669385D01*
X96736739Y-123756739D01*
X96649385Y-123873295D01*
X96598255Y-124009684D01*
X96591500Y-124071866D01*
X96591500Y-125868134D01*
X95683500Y-125868134D01*
X95683500Y-124101866D01*
X95676745Y-124039684D01*
X95625615Y-123903295D01*
X95538261Y-123786739D01*
X95421705Y-123699385D01*
X95342726Y-123669777D01*
X95302687Y-123654767D01*
X95245923Y-123612125D01*
X95221223Y-123545564D01*
X95236430Y-123476215D01*
X95257977Y-123447535D01*
X95359052Y-123346812D01*
X95365730Y-123338965D01*
X95490003Y-123166020D01*
X95495313Y-123157183D01*
X95589670Y-122966267D01*
X95593469Y-122956672D01*
X95655377Y-122752910D01*
X95657555Y-122742837D01*
X95658986Y-122731962D01*
X95656775Y-122717778D01*
X95643617Y-122714000D01*
X93008225Y-122714000D01*
X92994694Y-122717973D01*
X92993257Y-122727966D01*
X93023565Y-122862446D01*
X93026645Y-122872275D01*
X93106770Y-123069603D01*
X93111413Y-123078794D01*
X93222694Y-123260388D01*
X93228777Y-123268699D01*
X93368213Y-123429667D01*
X93375577Y-123436879D01*
X93380522Y-123440985D01*
X93420156Y-123499889D01*
X93421653Y-123570870D01*
X93384537Y-123631392D01*
X93344264Y-123655910D01*
X93236705Y-123696232D01*
X93236704Y-123696233D01*
X93228295Y-123699385D01*
X93111739Y-123786739D01*
X93024385Y-123903295D01*
X92973255Y-124039684D01*
X92966500Y-124101866D01*
X92966500Y-125898134D01*
X92081735Y-125898134D01*
X92044113Y-125741429D01*
X92034505Y-125701409D01*
X92027595Y-125684726D01*
X91939511Y-125472072D01*
X91939509Y-125472068D01*
X91937616Y-125467498D01*
X91805328Y-125251624D01*
X91640898Y-125059102D01*
X91448376Y-124894672D01*
X91232502Y-124762384D01*
X91227932Y-124760491D01*
X91227928Y-124760489D01*
X91003164Y-124667389D01*
X91003162Y-124667388D01*
X90998591Y-124665495D01*
X90789437Y-124615282D01*
X90727868Y-124579930D01*
X90695185Y-124516903D01*
X90701765Y-124446212D01*
X90744790Y-124390827D01*
X90755909Y-124382749D01*
X90755911Y-124382747D01*
X90761253Y-124378866D01*
X90889040Y-124236944D01*
X90961083Y-124112162D01*
X90981223Y-124077279D01*
X90981224Y-124077278D01*
X90984527Y-124071556D01*
X91043542Y-123889928D01*
X91044407Y-123881703D01*
X91062814Y-123706565D01*
X91063504Y-123700000D01*
X91060380Y-123670281D01*
X91044232Y-123516635D01*
X91044232Y-123516633D01*
X91043542Y-123510072D01*
X90984527Y-123328444D01*
X90956041Y-123279104D01*
X90892341Y-123168774D01*
X90889040Y-123163056D01*
X90859122Y-123129828D01*
X90765675Y-123026045D01*
X90765674Y-123026044D01*
X90761253Y-123021134D01*
X90606752Y-122908882D01*
X90600724Y-122906198D01*
X90600722Y-122906197D01*
X90438319Y-122833891D01*
X90438318Y-122833891D01*
X90432288Y-122831206D01*
X90338887Y-122811353D01*
X90251944Y-122792872D01*
X90251939Y-122792872D01*
X90245487Y-122791500D01*
X90054513Y-122791500D01*
X90048061Y-122792872D01*
X90048056Y-122792872D01*
X89961113Y-122811353D01*
X89867712Y-122831206D01*
X89861682Y-122833891D01*
X89861681Y-122833891D01*
X89699278Y-122906197D01*
X89699276Y-122906198D01*
X89693248Y-122908882D01*
X89538747Y-123021134D01*
X89534326Y-123026044D01*
X89534325Y-123026045D01*
X89440879Y-123129828D01*
X89410960Y-123163056D01*
X89407659Y-123168774D01*
X89343960Y-123279104D01*
X89315473Y-123328444D01*
X89256458Y-123510072D01*
X89255768Y-123516633D01*
X89255768Y-123516635D01*
X89239620Y-123670281D01*
X89236496Y-123700000D01*
X89237186Y-123706565D01*
X89255594Y-123881703D01*
X89256458Y-123889928D01*
X89315473Y-124071556D01*
X89318776Y-124077278D01*
X89318777Y-124077279D01*
X89338917Y-124112162D01*
X89410960Y-124236944D01*
X89538747Y-124378866D01*
X89693248Y-124491118D01*
X89699276Y-124493802D01*
X89699278Y-124493803D01*
X89776745Y-124528293D01*
X89830840Y-124574273D01*
X89851490Y-124642200D01*
X89832138Y-124710508D01*
X89776207Y-124757706D01*
X89776481Y-124758243D01*
X89774185Y-124759413D01*
X89773718Y-124759807D01*
X89772078Y-124760486D01*
X89772069Y-124760491D01*
X89767498Y-124762384D01*
X89551624Y-124894672D01*
X89359102Y-125059102D01*
X89194672Y-125251624D01*
X89062384Y-125467498D01*
X89060491Y-125472068D01*
X89060489Y-125472072D01*
X88981103Y-125663727D01*
X88936555Y-125719008D01*
X88869191Y-125741429D01*
X88800400Y-125723871D01*
X88749146Y-125665753D01*
X88701354Y-125555840D01*
X88605808Y-125408148D01*
X88582822Y-125372617D01*
X88582820Y-125372614D01*
X88580014Y-125368277D01*
X88429670Y-125203051D01*
X88425619Y-125199852D01*
X88425615Y-125199848D01*
X88258414Y-125067800D01*
X88258410Y-125067798D01*
X88254359Y-125064598D01*
X88243313Y-125058500D01*
X88173607Y-125020021D01*
X88123636Y-124969588D01*
X88108500Y-124909712D01*
X88108500Y-119886695D01*
X92962251Y-119886695D01*
X92962548Y-119891848D01*
X92962548Y-119891851D01*
X92974249Y-120094781D01*
X92975110Y-120109715D01*
X92976247Y-120114761D01*
X92976248Y-120114767D01*
X92979068Y-120127279D01*
X93024222Y-120327639D01*
X93067945Y-120435316D01*
X93097873Y-120509020D01*
X93108266Y-120534616D01*
X93143478Y-120592077D01*
X93207663Y-120696817D01*
X93224987Y-120725088D01*
X93371250Y-120893938D01*
X93543126Y-121036632D01*
X93600066Y-121069905D01*
X93616955Y-121079774D01*
X93665679Y-121131412D01*
X93678750Y-121201195D01*
X93652019Y-121266967D01*
X93611562Y-121300327D01*
X93603457Y-121304546D01*
X93594738Y-121310036D01*
X93424433Y-121437905D01*
X93416726Y-121444748D01*
X93269590Y-121598717D01*
X93263104Y-121606727D01*
X93143098Y-121782649D01*
X93138000Y-121791623D01*
X93048338Y-121984783D01*
X93044775Y-121994470D01*
X92989389Y-122194183D01*
X92990912Y-122202607D01*
X93003292Y-122206000D01*
X95643344Y-122206000D01*
X95656875Y-122202027D01*
X95658180Y-122192947D01*
X95616214Y-122025875D01*
X95612894Y-122016124D01*
X95527972Y-121820814D01*
X95523105Y-121811739D01*
X95407426Y-121632926D01*
X95401136Y-121624757D01*
X95257806Y-121467240D01*
X95250273Y-121460215D01*
X95083139Y-121328222D01*
X95074556Y-121322520D01*
X95037602Y-121302120D01*
X94987631Y-121251687D01*
X94972859Y-121182245D01*
X94997975Y-121115839D01*
X95025327Y-121089232D01*
X95065053Y-121060896D01*
X95204860Y-120961173D01*
X95227337Y-120938775D01*
X95306356Y-120860031D01*
X95363096Y-120803489D01*
X95380861Y-120778767D01*
X95490435Y-120626277D01*
X95493453Y-120622077D01*
X95518027Y-120572356D01*
X95590136Y-120426453D01*
X95590137Y-120426451D01*
X95592430Y-120421811D01*
X95657370Y-120208069D01*
X95686529Y-119986590D01*
X95687516Y-119946206D01*
X95688074Y-119923365D01*
X95688074Y-119923361D01*
X95688156Y-119920000D01*
X95682951Y-119856695D01*
X96587251Y-119856695D01*
X96587548Y-119861848D01*
X96587548Y-119861851D01*
X96594932Y-119989908D01*
X96600110Y-120079715D01*
X96601247Y-120084761D01*
X96601248Y-120084767D01*
X96606897Y-120109833D01*
X96649222Y-120297639D01*
X96733266Y-120504616D01*
X96757280Y-120543803D01*
X96841404Y-120681081D01*
X96849987Y-120695088D01*
X96996250Y-120863938D01*
X97117030Y-120964211D01*
X97163300Y-121002625D01*
X97168126Y-121006632D01*
X97213809Y-121033327D01*
X97241955Y-121049774D01*
X97290679Y-121101412D01*
X97303750Y-121171195D01*
X97277019Y-121236967D01*
X97236562Y-121270327D01*
X97228457Y-121274546D01*
X97219738Y-121280036D01*
X97049433Y-121407905D01*
X97041726Y-121414748D01*
X96894590Y-121568717D01*
X96888104Y-121576727D01*
X96768098Y-121752649D01*
X96763000Y-121761623D01*
X96673338Y-121954783D01*
X96669775Y-121964470D01*
X96614389Y-122164183D01*
X96615912Y-122172607D01*
X96628292Y-122176000D01*
X99268344Y-122176000D01*
X99281875Y-122172027D01*
X99283180Y-122162947D01*
X99241214Y-121995875D01*
X99237894Y-121986124D01*
X99152972Y-121790814D01*
X99148105Y-121781739D01*
X99032426Y-121602926D01*
X99026136Y-121594757D01*
X98882806Y-121437240D01*
X98875273Y-121430215D01*
X98708139Y-121298222D01*
X98699556Y-121292520D01*
X98662602Y-121272120D01*
X98612631Y-121221687D01*
X98597859Y-121152245D01*
X98622975Y-121085839D01*
X98650327Y-121059232D01*
X98682011Y-121036632D01*
X98829860Y-120931173D01*
X98861211Y-120899932D01*
X98934270Y-120827127D01*
X98988096Y-120773489D01*
X99022876Y-120725088D01*
X99115435Y-120596277D01*
X99118453Y-120592077D01*
X99127540Y-120573692D01*
X99215136Y-120396453D01*
X99215137Y-120396451D01*
X99217430Y-120391811D01*
X99243490Y-120306039D01*
X104341217Y-120306039D01*
X104341907Y-120312604D01*
X104356348Y-120449999D01*
X104361179Y-120495967D01*
X104420194Y-120677595D01*
X104423497Y-120683317D01*
X104423498Y-120683318D01*
X104431292Y-120696817D01*
X104515681Y-120842983D01*
X104520099Y-120847890D01*
X104520100Y-120847891D01*
X104638730Y-120979643D01*
X104643468Y-120984905D01*
X104672097Y-121005705D01*
X104789352Y-121090896D01*
X104797969Y-121097157D01*
X104803997Y-121099841D01*
X104803999Y-121099842D01*
X104964262Y-121171195D01*
X104972433Y-121174833D01*
X105065833Y-121194686D01*
X105152777Y-121213167D01*
X105152782Y-121213167D01*
X105159234Y-121214539D01*
X105350208Y-121214539D01*
X105356660Y-121213167D01*
X105356665Y-121213167D01*
X105443609Y-121194686D01*
X105537009Y-121174833D01*
X105545180Y-121171195D01*
X105705443Y-121099842D01*
X105705445Y-121099841D01*
X105711473Y-121097157D01*
X105720091Y-121090896D01*
X105837345Y-121005705D01*
X105865974Y-120984905D01*
X105873980Y-120976013D01*
X105934426Y-120938775D01*
X106005410Y-120940128D01*
X106064394Y-120979643D01*
X106084357Y-121012921D01*
X106128311Y-121121168D01*
X106255772Y-121329165D01*
X106415492Y-121513552D01*
X106603183Y-121669376D01*
X106813804Y-121792452D01*
X107041698Y-121879477D01*
X107046764Y-121880508D01*
X107046765Y-121880508D01*
X107275667Y-121927079D01*
X107275671Y-121927079D01*
X107280746Y-121928112D01*
X107285922Y-121928302D01*
X107285924Y-121928302D01*
X107519363Y-121936862D01*
X107519367Y-121936862D01*
X107524527Y-121937051D01*
X107529647Y-121936395D01*
X107529649Y-121936395D01*
X107606377Y-121926566D01*
X107766494Y-121906054D01*
X107771443Y-121904569D01*
X107771449Y-121904568D01*
X107995200Y-121837439D01*
X107995199Y-121837439D01*
X108000150Y-121835954D01*
X108219219Y-121728633D01*
X108223424Y-121725633D01*
X108223430Y-121725630D01*
X108413614Y-121589973D01*
X108413616Y-121589971D01*
X108417818Y-121586974D01*
X108590614Y-121414780D01*
X108732966Y-121216676D01*
X108746559Y-121189174D01*
X108838756Y-121002625D01*
X108838757Y-121002623D01*
X108841050Y-120997983D01*
X108870841Y-120899932D01*
X108910462Y-120769526D01*
X108910463Y-120769520D01*
X108911966Y-120764574D01*
X108929372Y-120632358D01*
X108943370Y-120526037D01*
X108943370Y-120526033D01*
X108943807Y-120522716D01*
X108944461Y-120495967D01*
X108945502Y-120453364D01*
X108945502Y-120453360D01*
X108945584Y-120449999D01*
X108925596Y-120206875D01*
X108877723Y-120016286D01*
X108867426Y-119975291D01*
X108867426Y-119975290D01*
X108866167Y-119970279D01*
X108781169Y-119774797D01*
X108770954Y-119751304D01*
X108770952Y-119751301D01*
X108768894Y-119746567D01*
X108636390Y-119541747D01*
X108611981Y-119514921D01*
X108475690Y-119365140D01*
X108475688Y-119365139D01*
X108472212Y-119361318D01*
X108468161Y-119358119D01*
X108468157Y-119358115D01*
X108284825Y-119213328D01*
X108284821Y-119213326D01*
X108280770Y-119210126D01*
X108263643Y-119200671D01*
X108224759Y-119179206D01*
X108067205Y-119092232D01*
X108062336Y-119090508D01*
X108062332Y-119090506D01*
X107842127Y-119012527D01*
X107842123Y-119012526D01*
X107837252Y-119010801D01*
X107832159Y-119009894D01*
X107832156Y-119009893D01*
X107602177Y-118968927D01*
X107602171Y-118968926D01*
X107597088Y-118968021D01*
X107517380Y-118967047D01*
X107358332Y-118965104D01*
X107358330Y-118965104D01*
X107353162Y-118965041D01*
X107112024Y-119001940D01*
X106880150Y-119077728D01*
X106663769Y-119190369D01*
X106659636Y-119193472D01*
X106659633Y-119193474D01*
X106472825Y-119333734D01*
X106468690Y-119336839D01*
X106465118Y-119340577D01*
X106364418Y-119445954D01*
X106300153Y-119513203D01*
X106297239Y-119517475D01*
X106297238Y-119517476D01*
X106277719Y-119546090D01*
X106162684Y-119714725D01*
X106162096Y-119714324D01*
X106113950Y-119760875D01*
X106044332Y-119774797D01*
X105978238Y-119748870D01*
X105961806Y-119733605D01*
X105865974Y-119627173D01*
X105711473Y-119514921D01*
X105705445Y-119512237D01*
X105705443Y-119512236D01*
X105543040Y-119439930D01*
X105543039Y-119439930D01*
X105537009Y-119437245D01*
X105443608Y-119417392D01*
X105356665Y-119398911D01*
X105356660Y-119398911D01*
X105350208Y-119397539D01*
X105159234Y-119397539D01*
X105152782Y-119398911D01*
X105152777Y-119398911D01*
X105065834Y-119417392D01*
X104972433Y-119437245D01*
X104966403Y-119439930D01*
X104966402Y-119439930D01*
X104803999Y-119512236D01*
X104803997Y-119512237D01*
X104797969Y-119514921D01*
X104643468Y-119627173D01*
X104639047Y-119632083D01*
X104639046Y-119632084D01*
X104533892Y-119748870D01*
X104515681Y-119769095D01*
X104512380Y-119774813D01*
X104443934Y-119893365D01*
X104420194Y-119934483D01*
X104361179Y-120116111D01*
X104360489Y-120122672D01*
X104360489Y-120122674D01*
X104347212Y-120249001D01*
X104341217Y-120306039D01*
X99243490Y-120306039D01*
X99282370Y-120178069D01*
X99311529Y-119956590D01*
X99311783Y-119946206D01*
X99313074Y-119893365D01*
X99313074Y-119893361D01*
X99313156Y-119890000D01*
X99294852Y-119667361D01*
X99240431Y-119450702D01*
X99151354Y-119245840D01*
X99052230Y-119092617D01*
X99032822Y-119062617D01*
X99032820Y-119062614D01*
X99030014Y-119058277D01*
X98879670Y-118893051D01*
X98875619Y-118889852D01*
X98875615Y-118889848D01*
X98708414Y-118757800D01*
X98708410Y-118757798D01*
X98704359Y-118754598D01*
X98663053Y-118731796D01*
X98613084Y-118681364D01*
X98598312Y-118611921D01*
X98623428Y-118545516D01*
X98650780Y-118518909D01*
X98694603Y-118487650D01*
X98829860Y-118391173D01*
X98988096Y-118233489D01*
X99022876Y-118185088D01*
X99115435Y-118056277D01*
X99118453Y-118052077D01*
X99182553Y-117922381D01*
X99215136Y-117856453D01*
X99215137Y-117856451D01*
X99217430Y-117851811D01*
X99282370Y-117638069D01*
X99311529Y-117416590D01*
X99313156Y-117350000D01*
X99294852Y-117127361D01*
X99240431Y-116910702D01*
X99151354Y-116705840D01*
X99030014Y-116518277D01*
X98949649Y-116429957D01*
X105968860Y-116429957D01*
X105969157Y-116435109D01*
X105969157Y-116435113D01*
X105975933Y-116552617D01*
X105982903Y-116673497D01*
X105984040Y-116678543D01*
X105984041Y-116678549D01*
X106007107Y-116780901D01*
X106036533Y-116911473D01*
X106038475Y-116916255D01*
X106038476Y-116916259D01*
X106126367Y-117132708D01*
X106128311Y-117137495D01*
X106255772Y-117345492D01*
X106415492Y-117529879D01*
X106603183Y-117685703D01*
X106813804Y-117808779D01*
X107041698Y-117895804D01*
X107046764Y-117896835D01*
X107046765Y-117896835D01*
X107275667Y-117943406D01*
X107275671Y-117943406D01*
X107280746Y-117944439D01*
X107285922Y-117944629D01*
X107285924Y-117944629D01*
X107519363Y-117953189D01*
X107519367Y-117953189D01*
X107524527Y-117953378D01*
X107529647Y-117952722D01*
X107529649Y-117952722D01*
X107606377Y-117942893D01*
X107766494Y-117922381D01*
X107771443Y-117920896D01*
X107771449Y-117920895D01*
X107995200Y-117853766D01*
X107995199Y-117853766D01*
X108000150Y-117852281D01*
X108219219Y-117744960D01*
X108223424Y-117741960D01*
X108223430Y-117741957D01*
X108413614Y-117606300D01*
X108413616Y-117606298D01*
X108417818Y-117603301D01*
X108590614Y-117431107D01*
X108732966Y-117233003D01*
X108770351Y-117157361D01*
X108838756Y-117018952D01*
X108838757Y-117018950D01*
X108841050Y-117014310D01*
X108872529Y-116910702D01*
X108910462Y-116785853D01*
X108910463Y-116785847D01*
X108911966Y-116780901D01*
X108942020Y-116552617D01*
X108943370Y-116542364D01*
X108943370Y-116542360D01*
X108943807Y-116539043D01*
X108944116Y-116526411D01*
X108945502Y-116469691D01*
X108945502Y-116469687D01*
X108945584Y-116466326D01*
X108925596Y-116223202D01*
X108866167Y-115986606D01*
X108777527Y-115782749D01*
X108770954Y-115767631D01*
X108770952Y-115767628D01*
X108768894Y-115762894D01*
X108636390Y-115558074D01*
X108555687Y-115469382D01*
X108475690Y-115381467D01*
X108475688Y-115381466D01*
X108472212Y-115377645D01*
X108468161Y-115374446D01*
X108468157Y-115374442D01*
X108284825Y-115229655D01*
X108284821Y-115229653D01*
X108280770Y-115226453D01*
X108273474Y-115222425D01*
X108197146Y-115180290D01*
X108067205Y-115108559D01*
X108062336Y-115106835D01*
X108062332Y-115106833D01*
X107842127Y-115028854D01*
X107842123Y-115028853D01*
X107837252Y-115027128D01*
X107832159Y-115026221D01*
X107832156Y-115026220D01*
X107602177Y-114985254D01*
X107602171Y-114985253D01*
X107597088Y-114984348D01*
X107517380Y-114983374D01*
X107358332Y-114981431D01*
X107358330Y-114981431D01*
X107353162Y-114981368D01*
X107112024Y-115018267D01*
X106880150Y-115094055D01*
X106663769Y-115206696D01*
X106659636Y-115209799D01*
X106659633Y-115209801D01*
X106472825Y-115350061D01*
X106468690Y-115353166D01*
X106400411Y-115424616D01*
X106321265Y-115507438D01*
X106300153Y-115529530D01*
X106297239Y-115533802D01*
X106297238Y-115533803D01*
X106230781Y-115631226D01*
X106162684Y-115731052D01*
X106139949Y-115780031D01*
X106073433Y-115923327D01*
X106059974Y-115952321D01*
X105994783Y-116187393D01*
X105968860Y-116429957D01*
X98949649Y-116429957D01*
X98879670Y-116353051D01*
X98875619Y-116349852D01*
X98875615Y-116349848D01*
X98708414Y-116217800D01*
X98708410Y-116217798D01*
X98704359Y-116214598D01*
X98663053Y-116191796D01*
X98613084Y-116141364D01*
X98598312Y-116071921D01*
X98623428Y-116005516D01*
X98650780Y-115978909D01*
X98694631Y-115947630D01*
X98829860Y-115851173D01*
X98854650Y-115826470D01*
X98945688Y-115735749D01*
X98988096Y-115693489D01*
X99022876Y-115645088D01*
X99115435Y-115516277D01*
X99118453Y-115512077D01*
X99144545Y-115459285D01*
X99215136Y-115316453D01*
X99215137Y-115316451D01*
X99217430Y-115311811D01*
X99271750Y-115133023D01*
X99280865Y-115103023D01*
X99280865Y-115103021D01*
X99282370Y-115098069D01*
X99311529Y-114876590D01*
X99311611Y-114873240D01*
X99313074Y-114813365D01*
X99313074Y-114813361D01*
X99313156Y-114810000D01*
X99294852Y-114587361D01*
X99240431Y-114370702D01*
X99151354Y-114165840D01*
X99052230Y-114012617D01*
X99032822Y-113982617D01*
X99032820Y-113982614D01*
X99030014Y-113978277D01*
X98879670Y-113813051D01*
X98875619Y-113809852D01*
X98875615Y-113809848D01*
X98708414Y-113677800D01*
X98708410Y-113677798D01*
X98704359Y-113674598D01*
X98675890Y-113658882D01*
X98610213Y-113622627D01*
X98508789Y-113566638D01*
X98503920Y-113564914D01*
X98503916Y-113564912D01*
X98303087Y-113493795D01*
X98303083Y-113493794D01*
X98298212Y-113492069D01*
X98293119Y-113491162D01*
X98293116Y-113491161D01*
X98083373Y-113453800D01*
X98083367Y-113453799D01*
X98078284Y-113452894D01*
X98004452Y-113451992D01*
X97860081Y-113450228D01*
X97860079Y-113450228D01*
X97854911Y-113450165D01*
X97634091Y-113483955D01*
X97421756Y-113553357D01*
X97223607Y-113656507D01*
X97219474Y-113659610D01*
X97219471Y-113659612D01*
X97069290Y-113772371D01*
X97044965Y-113790635D01*
X96890629Y-113952138D01*
X96887715Y-113956410D01*
X96887714Y-113956411D01*
X96851520Y-114009470D01*
X96764743Y-114136680D01*
X96750818Y-114166680D01*
X96673218Y-114333855D01*
X96670688Y-114339305D01*
X96610989Y-114554570D01*
X96587251Y-114776695D01*
X96587548Y-114781848D01*
X96587548Y-114781851D01*
X96594932Y-114909908D01*
X96600110Y-114999715D01*
X96601247Y-115004761D01*
X96601248Y-115004767D01*
X96623011Y-115101335D01*
X96649222Y-115217639D01*
X96687461Y-115311811D01*
X96713544Y-115376045D01*
X96733266Y-115424616D01*
X96751650Y-115454616D01*
X96841182Y-115600719D01*
X96849987Y-115615088D01*
X96996250Y-115783938D01*
X97168126Y-115926632D01*
X97204060Y-115947630D01*
X97241445Y-115969476D01*
X97290169Y-116021114D01*
X97303240Y-116090897D01*
X97276509Y-116156669D01*
X97236055Y-116190027D01*
X97223607Y-116196507D01*
X97219474Y-116199610D01*
X97219471Y-116199612D01*
X97157414Y-116246206D01*
X97044965Y-116330635D01*
X97041393Y-116334373D01*
X96915296Y-116466326D01*
X96890629Y-116492138D01*
X96887715Y-116496410D01*
X96887714Y-116496411D01*
X96849373Y-116552617D01*
X96764743Y-116676680D01*
X96670688Y-116879305D01*
X96610989Y-117094570D01*
X96587251Y-117316695D01*
X96587548Y-117321848D01*
X96587548Y-117321851D01*
X96594932Y-117449908D01*
X96600110Y-117539715D01*
X96601247Y-117544761D01*
X96601248Y-117544767D01*
X96614440Y-117603301D01*
X96649222Y-117757639D01*
X96686728Y-117850005D01*
X96724654Y-117943406D01*
X96733266Y-117964616D01*
X96849987Y-118155088D01*
X96996250Y-118323938D01*
X97168126Y-118466632D01*
X97213809Y-118493327D01*
X97241445Y-118509476D01*
X97290169Y-118561114D01*
X97303240Y-118630897D01*
X97276509Y-118696669D01*
X97236055Y-118730027D01*
X97223607Y-118736507D01*
X97219474Y-118739610D01*
X97219471Y-118739612D01*
X97052891Y-118864684D01*
X97044965Y-118870635D01*
X97041393Y-118874373D01*
X96923134Y-118998124D01*
X96890629Y-119032138D01*
X96887715Y-119036410D01*
X96887714Y-119036411D01*
X96850813Y-119090506D01*
X96764743Y-119216680D01*
X96750818Y-119246680D01*
X96675454Y-119409038D01*
X96670688Y-119419305D01*
X96610989Y-119634570D01*
X96587251Y-119856695D01*
X95682951Y-119856695D01*
X95669852Y-119697361D01*
X95615431Y-119480702D01*
X95526354Y-119275840D01*
X95409908Y-119095842D01*
X95407822Y-119092617D01*
X95407820Y-119092614D01*
X95405014Y-119088277D01*
X95254670Y-118923051D01*
X95250619Y-118919852D01*
X95250615Y-118919848D01*
X95083414Y-118787800D01*
X95083410Y-118787798D01*
X95079359Y-118784598D01*
X95038053Y-118761796D01*
X94988084Y-118711364D01*
X94973312Y-118641921D01*
X94998428Y-118575516D01*
X95025780Y-118548909D01*
X95093013Y-118500952D01*
X95204860Y-118421173D01*
X95363096Y-118263489D01*
X95422594Y-118180689D01*
X95490435Y-118086277D01*
X95493453Y-118082077D01*
X95551506Y-117964616D01*
X95590136Y-117886453D01*
X95590137Y-117886451D01*
X95592430Y-117881811D01*
X95634921Y-117741957D01*
X95655865Y-117673023D01*
X95655865Y-117673021D01*
X95657370Y-117668069D01*
X95686529Y-117446590D01*
X95688156Y-117380000D01*
X95669852Y-117157361D01*
X95615431Y-116940702D01*
X95526354Y-116735840D01*
X95405014Y-116548277D01*
X95254670Y-116383051D01*
X95250619Y-116379852D01*
X95250615Y-116379848D01*
X95083414Y-116247800D01*
X95083410Y-116247798D01*
X95079359Y-116244598D01*
X95038053Y-116221796D01*
X94988084Y-116171364D01*
X94973312Y-116101921D01*
X94998428Y-116035516D01*
X95025780Y-116008909D01*
X95085783Y-115966109D01*
X95204860Y-115881173D01*
X95259755Y-115826470D01*
X95302435Y-115783938D01*
X95363096Y-115723489D01*
X95422594Y-115640689D01*
X95490435Y-115546277D01*
X95493453Y-115542077D01*
X95497543Y-115533803D01*
X95590136Y-115346453D01*
X95590137Y-115346451D01*
X95592430Y-115341811D01*
X95647673Y-115159987D01*
X95655865Y-115133023D01*
X95655865Y-115133021D01*
X95657370Y-115128069D01*
X95686529Y-114906590D01*
X95687344Y-114873240D01*
X95688074Y-114843365D01*
X95688074Y-114843361D01*
X95688156Y-114840000D01*
X95669852Y-114617361D01*
X95615431Y-114400702D01*
X95526354Y-114195840D01*
X95405014Y-114008277D01*
X95254670Y-113843051D01*
X95250619Y-113839852D01*
X95250615Y-113839848D01*
X95083414Y-113707800D01*
X95083410Y-113707798D01*
X95079359Y-113704598D01*
X94883789Y-113596638D01*
X94878920Y-113594914D01*
X94878916Y-113594912D01*
X94678087Y-113523795D01*
X94678083Y-113523794D01*
X94673212Y-113522069D01*
X94668119Y-113521162D01*
X94668116Y-113521161D01*
X94458373Y-113483800D01*
X94458367Y-113483799D01*
X94453284Y-113482894D01*
X94379452Y-113481992D01*
X94235081Y-113480228D01*
X94235079Y-113480228D01*
X94229911Y-113480165D01*
X94009091Y-113513955D01*
X93796756Y-113583357D01*
X93770494Y-113597028D01*
X93626281Y-113672101D01*
X93598607Y-113686507D01*
X93594474Y-113689610D01*
X93594471Y-113689612D01*
X93424100Y-113817530D01*
X93419965Y-113820635D01*
X93413931Y-113826949D01*
X93269319Y-113978277D01*
X93265629Y-113982138D01*
X93262715Y-113986410D01*
X93262714Y-113986411D01*
X93195646Y-114084729D01*
X93139743Y-114166680D01*
X93100505Y-114251212D01*
X93065061Y-114327570D01*
X93045688Y-114369305D01*
X92985989Y-114584570D01*
X92962251Y-114806695D01*
X92962548Y-114811848D01*
X92962548Y-114811851D01*
X92974405Y-115017485D01*
X92975110Y-115029715D01*
X92976247Y-115034761D01*
X92976248Y-115034767D01*
X92993442Y-115111058D01*
X93024222Y-115247639D01*
X93085673Y-115398976D01*
X93097873Y-115429020D01*
X93108266Y-115454616D01*
X93224987Y-115645088D01*
X93371250Y-115813938D01*
X93543126Y-115956632D01*
X93559344Y-115966109D01*
X93616445Y-115999476D01*
X93665169Y-116051114D01*
X93678240Y-116120897D01*
X93651509Y-116186669D01*
X93611055Y-116220027D01*
X93598607Y-116226507D01*
X93594474Y-116229610D01*
X93594471Y-116229612D01*
X93424100Y-116357530D01*
X93419965Y-116360635D01*
X93416393Y-116364373D01*
X93269319Y-116518277D01*
X93265629Y-116522138D01*
X93139743Y-116706680D01*
X93045688Y-116909305D01*
X92985989Y-117124570D01*
X92962251Y-117346695D01*
X92962548Y-117351848D01*
X92962548Y-117351851D01*
X92974812Y-117564547D01*
X92975110Y-117569715D01*
X92976247Y-117574761D01*
X92976248Y-117574767D01*
X92982679Y-117603301D01*
X93024222Y-117787639D01*
X93062461Y-117881811D01*
X93097873Y-117969020D01*
X93108266Y-117994616D01*
X93224987Y-118185088D01*
X93371250Y-118353938D01*
X93543126Y-118496632D01*
X93565106Y-118509476D01*
X93616445Y-118539476D01*
X93665169Y-118591114D01*
X93678240Y-118660897D01*
X93651509Y-118726669D01*
X93611055Y-118760027D01*
X93598607Y-118766507D01*
X93594474Y-118769610D01*
X93594471Y-118769612D01*
X93424100Y-118897530D01*
X93419965Y-118900635D01*
X93394898Y-118926866D01*
X93269319Y-119058277D01*
X93265629Y-119062138D01*
X93262715Y-119066410D01*
X93262714Y-119066411D01*
X93242638Y-119095842D01*
X93139743Y-119246680D01*
X93099334Y-119333734D01*
X93050040Y-119439930D01*
X93045688Y-119449305D01*
X92985989Y-119664570D01*
X92962251Y-119886695D01*
X88108500Y-119886695D01*
X88108500Y-116050000D01*
X90936496Y-116050000D01*
X90937186Y-116056565D01*
X90954173Y-116218183D01*
X90956458Y-116239928D01*
X91015473Y-116421556D01*
X91110960Y-116586944D01*
X91115378Y-116591851D01*
X91115379Y-116591852D01*
X91193441Y-116678549D01*
X91238747Y-116728866D01*
X91393248Y-116841118D01*
X91399276Y-116843802D01*
X91399278Y-116843803D01*
X91561681Y-116916109D01*
X91567712Y-116918794D01*
X91648443Y-116935954D01*
X91748056Y-116957128D01*
X91748061Y-116957128D01*
X91754513Y-116958500D01*
X91945487Y-116958500D01*
X91951939Y-116957128D01*
X91951944Y-116957128D01*
X92051557Y-116935954D01*
X92132288Y-116918794D01*
X92138319Y-116916109D01*
X92300722Y-116843803D01*
X92300724Y-116843802D01*
X92306752Y-116841118D01*
X92461253Y-116728866D01*
X92506559Y-116678549D01*
X92584621Y-116591852D01*
X92584622Y-116591851D01*
X92589040Y-116586944D01*
X92684527Y-116421556D01*
X92743542Y-116239928D01*
X92745828Y-116218183D01*
X92762814Y-116056565D01*
X92763504Y-116050000D01*
X92753965Y-115959242D01*
X92744232Y-115866635D01*
X92744232Y-115866633D01*
X92743542Y-115860072D01*
X92684527Y-115678444D01*
X92589040Y-115513056D01*
X92540625Y-115459285D01*
X92465675Y-115376045D01*
X92465674Y-115376044D01*
X92461253Y-115371134D01*
X92306752Y-115258882D01*
X92300724Y-115256198D01*
X92300722Y-115256197D01*
X92138319Y-115183891D01*
X92138318Y-115183891D01*
X92132288Y-115181206D01*
X92032461Y-115159987D01*
X91951944Y-115142872D01*
X91951939Y-115142872D01*
X91945487Y-115141500D01*
X91754513Y-115141500D01*
X91748061Y-115142872D01*
X91748056Y-115142872D01*
X91667539Y-115159987D01*
X91567712Y-115181206D01*
X91561682Y-115183891D01*
X91561681Y-115183891D01*
X91399278Y-115256197D01*
X91399276Y-115256198D01*
X91393248Y-115258882D01*
X91238747Y-115371134D01*
X91234326Y-115376044D01*
X91234325Y-115376045D01*
X91159376Y-115459285D01*
X91110960Y-115513056D01*
X91015473Y-115678444D01*
X90956458Y-115860072D01*
X90955768Y-115866633D01*
X90955768Y-115866635D01*
X90946035Y-115959242D01*
X90936496Y-116050000D01*
X88108500Y-116050000D01*
X88108500Y-115180290D01*
X88128502Y-115112169D01*
X88140864Y-115095980D01*
X88234621Y-114991852D01*
X88234622Y-114991851D01*
X88239040Y-114986944D01*
X88304687Y-114873240D01*
X88331223Y-114827279D01*
X88331224Y-114827278D01*
X88334527Y-114821556D01*
X88393542Y-114639928D01*
X88395372Y-114622522D01*
X88412814Y-114456565D01*
X88413504Y-114450000D01*
X88393542Y-114260072D01*
X88334527Y-114078444D01*
X88239040Y-113913056D01*
X88132178Y-113794373D01*
X88115675Y-113776045D01*
X88115674Y-113776044D01*
X88111253Y-113771134D01*
X87978383Y-113674598D01*
X87962094Y-113662763D01*
X87962093Y-113662762D01*
X87956752Y-113658882D01*
X87950724Y-113656198D01*
X87950722Y-113656197D01*
X87788319Y-113583891D01*
X87788318Y-113583891D01*
X87782288Y-113581206D01*
X87671052Y-113557562D01*
X87608579Y-113523833D01*
X87574257Y-113461684D01*
X87578985Y-113390845D01*
X87621261Y-113333807D01*
X87684080Y-113309005D01*
X87688886Y-113308500D01*
X87695487Y-113308500D01*
X87701940Y-113307128D01*
X87701943Y-113307128D01*
X87764513Y-113293828D01*
X87882288Y-113268794D01*
X87926005Y-113249330D01*
X88050722Y-113193803D01*
X88050724Y-113193802D01*
X88056752Y-113191118D01*
X88087889Y-113168496D01*
X88146018Y-113126262D01*
X88211253Y-113078866D01*
X88232588Y-113055171D01*
X88334621Y-112941852D01*
X88334622Y-112941851D01*
X88339040Y-112936944D01*
X88419705Y-112797228D01*
X88431223Y-112777279D01*
X88431224Y-112777278D01*
X88434527Y-112771556D01*
X88493542Y-112589928D01*
X88497527Y-112552018D01*
X88499796Y-112530426D01*
X104078438Y-112530426D01*
X104098400Y-112720354D01*
X104157415Y-112901982D01*
X104160718Y-112907704D01*
X104160719Y-112907705D01*
X104169410Y-112922758D01*
X104252902Y-113067370D01*
X104257320Y-113072277D01*
X104257321Y-113072278D01*
X104364325Y-113191118D01*
X104380689Y-113209292D01*
X104441576Y-113253529D01*
X104517932Y-113309005D01*
X104535190Y-113321544D01*
X104541218Y-113324228D01*
X104541220Y-113324229D01*
X104690843Y-113390845D01*
X104709654Y-113399220D01*
X104803054Y-113419073D01*
X104889998Y-113437554D01*
X104890003Y-113437554D01*
X104896455Y-113438926D01*
X105087429Y-113438926D01*
X105093881Y-113437554D01*
X105093886Y-113437554D01*
X105180830Y-113419073D01*
X105274230Y-113399220D01*
X105293041Y-113390845D01*
X105442664Y-113324229D01*
X105442666Y-113324228D01*
X105448694Y-113321544D01*
X105465953Y-113309005D01*
X105542308Y-113253529D01*
X105603195Y-113209292D01*
X105619559Y-113191118D01*
X105726563Y-113072278D01*
X105726564Y-113072277D01*
X105730982Y-113067370D01*
X105814758Y-112922266D01*
X105866139Y-112873274D01*
X105935853Y-112859838D01*
X106001764Y-112886224D01*
X106040619Y-112937863D01*
X106097875Y-113078866D01*
X106128311Y-113153822D01*
X106255772Y-113361819D01*
X106415492Y-113546206D01*
X106603183Y-113702030D01*
X106813804Y-113825106D01*
X107041698Y-113912131D01*
X107046764Y-113913162D01*
X107046765Y-113913162D01*
X107275667Y-113959733D01*
X107275671Y-113959733D01*
X107280746Y-113960766D01*
X107285922Y-113960956D01*
X107285924Y-113960956D01*
X107519363Y-113969516D01*
X107519367Y-113969516D01*
X107524527Y-113969705D01*
X107529647Y-113969049D01*
X107529649Y-113969049D01*
X107628302Y-113956411D01*
X107766494Y-113938708D01*
X107771443Y-113937223D01*
X107771449Y-113937222D01*
X107995200Y-113870093D01*
X107995199Y-113870093D01*
X108000150Y-113868608D01*
X108219219Y-113761287D01*
X108223424Y-113758287D01*
X108223430Y-113758284D01*
X108413614Y-113622627D01*
X108413616Y-113622625D01*
X108417818Y-113619628D01*
X108590614Y-113447434D01*
X108597714Y-113437554D01*
X108649330Y-113365722D01*
X108732966Y-113249330D01*
X108749757Y-113215357D01*
X108838756Y-113035279D01*
X108838757Y-113035277D01*
X108841050Y-113030637D01*
X108869237Y-112937863D01*
X108910462Y-112802180D01*
X108910463Y-112802174D01*
X108911966Y-112797228D01*
X108938431Y-112596206D01*
X108943370Y-112558691D01*
X108943370Y-112558687D01*
X108943807Y-112555370D01*
X108945425Y-112489170D01*
X108945502Y-112486018D01*
X108945502Y-112486014D01*
X108945584Y-112482653D01*
X108925596Y-112239529D01*
X108872575Y-112028444D01*
X108867426Y-112007945D01*
X108867426Y-112007944D01*
X108866167Y-112002933D01*
X108768894Y-111779221D01*
X108667135Y-111621926D01*
X108639200Y-111578744D01*
X108639198Y-111578741D01*
X108636390Y-111574401D01*
X108632225Y-111569823D01*
X108475690Y-111397794D01*
X108475688Y-111397793D01*
X108472212Y-111393972D01*
X108468161Y-111390773D01*
X108468157Y-111390769D01*
X108284825Y-111245982D01*
X108284821Y-111245980D01*
X108280770Y-111242780D01*
X108067205Y-111124886D01*
X108062336Y-111123162D01*
X108062332Y-111123160D01*
X107842127Y-111045181D01*
X107842123Y-111045180D01*
X107837252Y-111043455D01*
X107832159Y-111042548D01*
X107832156Y-111042547D01*
X107602177Y-111001581D01*
X107602171Y-111001580D01*
X107597088Y-111000675D01*
X107517380Y-110999701D01*
X107358332Y-110997758D01*
X107358330Y-110997758D01*
X107353162Y-110997695D01*
X107112024Y-111034594D01*
X106880150Y-111110382D01*
X106663769Y-111223023D01*
X106659636Y-111226126D01*
X106659633Y-111226128D01*
X106472825Y-111366388D01*
X106468690Y-111369493D01*
X106465118Y-111373231D01*
X106330911Y-111513671D01*
X106300153Y-111545857D01*
X106297239Y-111550129D01*
X106297238Y-111550130D01*
X106278355Y-111577811D01*
X106162684Y-111747379D01*
X106146699Y-111781816D01*
X106068462Y-111950363D01*
X106059974Y-111968648D01*
X106058592Y-111973632D01*
X106028869Y-112080809D01*
X105991390Y-112141107D01*
X105927261Y-112171570D01*
X105856843Y-112162527D01*
X105802493Y-112116848D01*
X105798333Y-112110137D01*
X105761315Y-112046020D01*
X105730982Y-111993482D01*
X105708622Y-111968648D01*
X105607617Y-111856471D01*
X105607616Y-111856470D01*
X105603195Y-111851560D01*
X105448694Y-111739308D01*
X105442666Y-111736624D01*
X105442664Y-111736623D01*
X105280261Y-111664317D01*
X105280260Y-111664317D01*
X105274230Y-111661632D01*
X105180829Y-111641779D01*
X105093886Y-111623298D01*
X105093881Y-111623298D01*
X105087429Y-111621926D01*
X104896455Y-111621926D01*
X104890003Y-111623298D01*
X104889998Y-111623298D01*
X104803055Y-111641779D01*
X104709654Y-111661632D01*
X104703624Y-111664317D01*
X104703623Y-111664317D01*
X104541220Y-111736623D01*
X104541218Y-111736624D01*
X104535190Y-111739308D01*
X104380689Y-111851560D01*
X104376268Y-111856470D01*
X104376267Y-111856471D01*
X104275263Y-111968648D01*
X104252902Y-111993482D01*
X104157415Y-112158870D01*
X104098400Y-112340498D01*
X104097710Y-112347059D01*
X104097710Y-112347061D01*
X104082774Y-112489170D01*
X104078438Y-112530426D01*
X88499796Y-112530426D01*
X88512814Y-112406565D01*
X88513504Y-112400000D01*
X88505945Y-112328080D01*
X88494232Y-112216635D01*
X88494232Y-112216633D01*
X88493542Y-112210072D01*
X88434527Y-112028444D01*
X88423144Y-112008727D01*
X88359864Y-111899124D01*
X88339040Y-111863056D01*
X88332501Y-111855793D01*
X88215675Y-111726045D01*
X88215674Y-111726044D01*
X88211253Y-111721134D01*
X88076594Y-111623298D01*
X88062094Y-111612763D01*
X88062093Y-111612762D01*
X88056752Y-111608882D01*
X88050724Y-111606198D01*
X88050722Y-111606197D01*
X87888319Y-111533891D01*
X87888318Y-111533891D01*
X87882288Y-111531206D01*
X87788888Y-111511353D01*
X87701944Y-111492872D01*
X87701939Y-111492872D01*
X87695487Y-111491500D01*
X87504513Y-111491500D01*
X87498061Y-111492872D01*
X87498056Y-111492872D01*
X87411113Y-111511353D01*
X87317712Y-111531206D01*
X87311682Y-111533891D01*
X87311681Y-111533891D01*
X87149278Y-111606197D01*
X87149276Y-111606198D01*
X87143248Y-111608882D01*
X87137907Y-111612762D01*
X87137906Y-111612763D01*
X87123406Y-111623298D01*
X86988747Y-111721134D01*
X86984326Y-111726044D01*
X86984325Y-111726045D01*
X86867500Y-111855793D01*
X86860960Y-111863056D01*
X86840136Y-111899124D01*
X86776857Y-112008727D01*
X86765473Y-112028444D01*
X86706458Y-112210072D01*
X86705768Y-112216633D01*
X86705768Y-112216635D01*
X86694055Y-112328080D01*
X86686496Y-112400000D01*
X86686684Y-112401786D01*
X86667184Y-112468196D01*
X86650281Y-112489170D01*
X85924094Y-113215357D01*
X85861782Y-113249383D01*
X85790967Y-113244318D01*
X85734131Y-113201771D01*
X85709320Y-113135251D01*
X85708999Y-113126262D01*
X85708999Y-112538760D01*
X85729001Y-112470639D01*
X85745904Y-112449664D01*
X86167125Y-112028444D01*
X86617758Y-111577811D01*
X86626037Y-111570277D01*
X86632518Y-111566164D01*
X86679144Y-111516512D01*
X86681898Y-111513671D01*
X86701635Y-111493934D01*
X86704115Y-111490737D01*
X86711820Y-111481715D01*
X86736659Y-111455264D01*
X86742086Y-111449485D01*
X86745905Y-111442539D01*
X86745907Y-111442536D01*
X86751848Y-111431730D01*
X86762699Y-111415211D01*
X86770258Y-111405465D01*
X86775114Y-111399205D01*
X86778259Y-111391936D01*
X86778262Y-111391932D01*
X86792674Y-111358627D01*
X86797891Y-111347977D01*
X86819195Y-111309224D01*
X86824233Y-111289601D01*
X86830637Y-111270898D01*
X86835533Y-111259584D01*
X86835533Y-111259583D01*
X86838681Y-111252309D01*
X86839920Y-111244486D01*
X86839923Y-111244476D01*
X86845599Y-111208640D01*
X86848005Y-111197020D01*
X86857028Y-111161875D01*
X86857028Y-111161874D01*
X86859000Y-111154194D01*
X86859000Y-111133940D01*
X86860551Y-111114229D01*
X86862480Y-111102050D01*
X86863720Y-111094221D01*
X86859559Y-111050202D01*
X86859000Y-111038345D01*
X86859000Y-110988758D01*
X86879002Y-110920637D01*
X86895905Y-110899663D01*
X88267247Y-109528321D01*
X88275537Y-109520777D01*
X88282018Y-109516664D01*
X88328659Y-109466996D01*
X88331413Y-109464155D01*
X88351134Y-109444434D01*
X88353612Y-109441239D01*
X88361318Y-109432217D01*
X88386158Y-109405765D01*
X88391586Y-109399985D01*
X88401346Y-109382232D01*
X88412199Y-109365709D01*
X88419753Y-109355970D01*
X88424613Y-109349705D01*
X88442176Y-109309121D01*
X88447383Y-109298491D01*
X88468695Y-109259724D01*
X88470666Y-109252047D01*
X88470668Y-109252042D01*
X88473732Y-109240106D01*
X88480138Y-109221394D01*
X88485033Y-109210083D01*
X88488181Y-109202809D01*
X88489421Y-109194981D01*
X88489423Y-109194974D01*
X88495099Y-109159140D01*
X88497505Y-109147520D01*
X88506528Y-109112375D01*
X88506528Y-109112374D01*
X88508500Y-109104694D01*
X88508500Y-109084440D01*
X88510051Y-109064729D01*
X88511980Y-109052550D01*
X88513220Y-109044721D01*
X88509059Y-109000702D01*
X88508500Y-108988845D01*
X88508500Y-105614594D01*
X88528502Y-105546473D01*
X88545405Y-105525499D01*
X90342247Y-103728657D01*
X90350537Y-103721113D01*
X90357018Y-103717000D01*
X90403659Y-103667332D01*
X90406413Y-103664491D01*
X90426134Y-103644770D01*
X90428612Y-103641575D01*
X90436318Y-103632553D01*
X90461158Y-103606101D01*
X90466586Y-103600321D01*
X90476346Y-103582568D01*
X90487199Y-103566045D01*
X90494753Y-103556306D01*
X90499613Y-103550041D01*
X90517176Y-103509457D01*
X90522383Y-103498827D01*
X90543695Y-103460060D01*
X90545666Y-103452383D01*
X90545668Y-103452378D01*
X90548732Y-103440442D01*
X90555138Y-103421730D01*
X90555980Y-103419786D01*
X90563181Y-103403145D01*
X90564421Y-103395317D01*
X90564423Y-103395310D01*
X90570099Y-103359476D01*
X90572505Y-103347856D01*
X90581528Y-103312711D01*
X90581528Y-103312710D01*
X90583500Y-103305030D01*
X90583500Y-103284776D01*
X90585051Y-103265065D01*
X90585804Y-103260314D01*
X90588220Y-103245057D01*
X90584059Y-103201038D01*
X90583500Y-103189181D01*
X90583500Y-92652524D01*
X90603502Y-92584403D01*
X90615858Y-92568221D01*
X90689040Y-92486944D01*
X90760460Y-92363242D01*
X90781223Y-92327279D01*
X90781224Y-92327278D01*
X90784527Y-92321556D01*
X90843542Y-92139928D01*
X90863504Y-91950000D01*
X90860513Y-91921544D01*
X91461996Y-91921544D01*
X91481958Y-92111472D01*
X91540973Y-92293100D01*
X91544276Y-92298822D01*
X91544277Y-92298823D01*
X91560706Y-92327279D01*
X91636460Y-92458488D01*
X91640878Y-92463395D01*
X91640879Y-92463396D01*
X91728703Y-92560934D01*
X91764247Y-92600410D01*
X91918748Y-92712662D01*
X91924776Y-92715346D01*
X91924778Y-92715347D01*
X92087181Y-92787653D01*
X92093212Y-92790338D01*
X92186613Y-92810191D01*
X92273556Y-92828672D01*
X92273561Y-92828672D01*
X92280013Y-92830044D01*
X92470987Y-92830044D01*
X92477439Y-92828672D01*
X92477444Y-92828672D01*
X92564387Y-92810191D01*
X92657788Y-92790338D01*
X92663819Y-92787653D01*
X92826222Y-92715347D01*
X92826224Y-92715346D01*
X92832252Y-92712662D01*
X92986753Y-92600410D01*
X93022297Y-92560934D01*
X93110121Y-92463396D01*
X93110122Y-92463395D01*
X93114540Y-92458488D01*
X93190294Y-92327279D01*
X93206723Y-92298823D01*
X93206724Y-92298822D01*
X93210027Y-92293100D01*
X93269042Y-92111472D01*
X93289004Y-91921544D01*
X93282170Y-91856518D01*
X93269732Y-91738179D01*
X93269732Y-91738177D01*
X93269042Y-91731616D01*
X93210027Y-91549988D01*
X93206549Y-91543963D01*
X93152844Y-91450945D01*
X93114540Y-91384600D01*
X93054400Y-91317807D01*
X92991175Y-91247589D01*
X92991174Y-91247588D01*
X92986753Y-91242678D01*
X92832252Y-91130426D01*
X92826224Y-91127742D01*
X92826222Y-91127741D01*
X92663819Y-91055435D01*
X92663818Y-91055435D01*
X92657788Y-91052750D01*
X92564387Y-91032897D01*
X92477444Y-91014416D01*
X92477439Y-91014416D01*
X92470987Y-91013044D01*
X92280013Y-91013044D01*
X92273561Y-91014416D01*
X92273556Y-91014416D01*
X92186613Y-91032897D01*
X92093212Y-91052750D01*
X92087182Y-91055435D01*
X92087181Y-91055435D01*
X91924778Y-91127741D01*
X91924776Y-91127742D01*
X91918748Y-91130426D01*
X91764247Y-91242678D01*
X91759826Y-91247588D01*
X91759825Y-91247589D01*
X91696601Y-91317807D01*
X91636460Y-91384600D01*
X91598156Y-91450945D01*
X91544452Y-91543963D01*
X91540973Y-91549988D01*
X91481958Y-91731616D01*
X91481268Y-91738177D01*
X91481268Y-91738179D01*
X91468830Y-91856518D01*
X91461996Y-91921544D01*
X90860513Y-91921544D01*
X90850338Y-91824735D01*
X90844232Y-91766635D01*
X90844232Y-91766633D01*
X90843542Y-91760072D01*
X90784527Y-91578444D01*
X90764565Y-91543868D01*
X90739089Y-91499744D01*
X90689040Y-91413056D01*
X90612111Y-91327617D01*
X90565675Y-91276045D01*
X90565674Y-91276044D01*
X90561253Y-91271134D01*
X90436061Y-91180176D01*
X90412094Y-91162763D01*
X90412093Y-91162762D01*
X90406752Y-91158882D01*
X90400724Y-91156198D01*
X90400722Y-91156197D01*
X90238319Y-91083891D01*
X90238318Y-91083891D01*
X90232288Y-91081206D01*
X90111046Y-91055435D01*
X90051944Y-91042872D01*
X90051939Y-91042872D01*
X90045487Y-91041500D01*
X89854513Y-91041500D01*
X89848061Y-91042872D01*
X89848056Y-91042872D01*
X89788954Y-91055435D01*
X89667712Y-91081206D01*
X89661682Y-91083891D01*
X89661681Y-91083891D01*
X89499278Y-91156197D01*
X89499276Y-91156198D01*
X89493248Y-91158882D01*
X89487907Y-91162762D01*
X89487906Y-91162763D01*
X89463939Y-91180176D01*
X89338747Y-91271134D01*
X89334326Y-91276044D01*
X89334325Y-91276045D01*
X89287890Y-91327617D01*
X89210960Y-91413056D01*
X89160911Y-91499744D01*
X89135436Y-91543868D01*
X89115473Y-91578444D01*
X89056458Y-91760072D01*
X89055768Y-91766633D01*
X89055768Y-91766635D01*
X89049662Y-91824735D01*
X89036496Y-91950000D01*
X89056458Y-92139928D01*
X89115473Y-92321556D01*
X89118776Y-92327278D01*
X89118777Y-92327279D01*
X89139540Y-92363242D01*
X89210960Y-92486944D01*
X89284137Y-92568215D01*
X89314853Y-92632221D01*
X89316500Y-92652524D01*
X89316500Y-94630716D01*
X89296498Y-94698837D01*
X89242842Y-94745330D01*
X89172568Y-94755434D01*
X89107988Y-94725940D01*
X89101405Y-94719811D01*
X88528093Y-94146498D01*
X87764344Y-93382749D01*
X87756804Y-93374463D01*
X87752692Y-93367984D01*
X87726726Y-93343600D01*
X87703041Y-93321359D01*
X87700199Y-93318604D01*
X87680462Y-93298867D01*
X87677265Y-93296387D01*
X87668243Y-93288682D01*
X87664089Y-93284781D01*
X87636013Y-93258416D01*
X87629067Y-93254597D01*
X87629064Y-93254595D01*
X87618258Y-93248654D01*
X87601739Y-93237803D01*
X87598714Y-93235457D01*
X87585733Y-93225388D01*
X87578464Y-93222243D01*
X87578460Y-93222240D01*
X87545155Y-93207828D01*
X87534505Y-93202611D01*
X87495752Y-93181307D01*
X87476129Y-93176269D01*
X87457426Y-93169865D01*
X87446112Y-93164969D01*
X87446111Y-93164969D01*
X87438837Y-93161821D01*
X87431014Y-93160582D01*
X87431004Y-93160579D01*
X87395168Y-93154903D01*
X87383548Y-93152497D01*
X87348403Y-93143474D01*
X87348402Y-93143474D01*
X87340722Y-93141502D01*
X87320468Y-93141502D01*
X87300757Y-93139951D01*
X87288578Y-93138022D01*
X87280749Y-93136782D01*
X87251478Y-93139549D01*
X87236731Y-93140943D01*
X87224873Y-93141502D01*
X79278670Y-93141502D01*
X79267487Y-93140975D01*
X79259994Y-93139300D01*
X79252068Y-93139549D01*
X79252067Y-93139549D01*
X79191904Y-93141440D01*
X79187946Y-93141502D01*
X79160046Y-93141502D01*
X79156056Y-93142006D01*
X79144222Y-93142938D01*
X79100013Y-93144328D01*
X79092397Y-93146541D01*
X79092395Y-93146541D01*
X79080554Y-93149981D01*
X79061195Y-93153990D01*
X79059885Y-93154156D01*
X79041105Y-93156528D01*
X79033739Y-93159444D01*
X79033733Y-93159446D01*
X79000000Y-93172802D01*
X78988770Y-93176647D01*
X78974964Y-93180658D01*
X78946309Y-93188983D01*
X78939486Y-93193018D01*
X78928868Y-93199297D01*
X78911115Y-93207994D01*
X78903470Y-93211021D01*
X78892285Y-93215450D01*
X78867777Y-93233256D01*
X78856514Y-93241439D01*
X78846597Y-93247953D01*
X78808540Y-93270460D01*
X78794219Y-93284781D01*
X78779186Y-93297621D01*
X78762795Y-93309530D01*
X78745063Y-93330965D01*
X78734610Y-93343600D01*
X78726620Y-93352380D01*
X78511831Y-93567169D01*
X78449519Y-93601195D01*
X78378704Y-93596130D01*
X78371487Y-93593181D01*
X78238319Y-93533891D01*
X78238318Y-93533891D01*
X78232288Y-93531206D01*
X78138887Y-93511353D01*
X78051944Y-93492872D01*
X78051939Y-93492872D01*
X78045487Y-93491500D01*
X77854513Y-93491500D01*
X77848061Y-93492872D01*
X77848056Y-93492872D01*
X77761113Y-93511353D01*
X77667712Y-93531206D01*
X77661682Y-93533891D01*
X77661681Y-93533891D01*
X77499278Y-93606197D01*
X77499276Y-93606198D01*
X77493248Y-93608882D01*
X77338747Y-93721134D01*
X77334326Y-93726044D01*
X77334325Y-93726045D01*
X77231793Y-93839919D01*
X77210960Y-93863056D01*
X77115473Y-94028444D01*
X77113431Y-94034729D01*
X77113430Y-94034731D01*
X77098905Y-94079435D01*
X77058832Y-94138041D01*
X76993436Y-94165679D01*
X76979072Y-94166500D01*
X73758200Y-94166500D01*
X73690079Y-94146498D01*
X73670853Y-94130157D01*
X73670580Y-94130460D01*
X73665668Y-94126037D01*
X73661253Y-94121134D01*
X73639671Y-94105454D01*
X73512094Y-94012763D01*
X73512093Y-94012762D01*
X73506752Y-94008882D01*
X73500724Y-94006198D01*
X73500722Y-94006197D01*
X73338319Y-93933891D01*
X73338318Y-93933891D01*
X73332288Y-93931206D01*
X73238888Y-93911353D01*
X73151944Y-93892872D01*
X73151939Y-93892872D01*
X73145487Y-93891500D01*
X72954513Y-93891500D01*
X72948061Y-93892872D01*
X72948056Y-93892872D01*
X72861112Y-93911353D01*
X72767712Y-93931206D01*
X72761682Y-93933891D01*
X72761681Y-93933891D01*
X72599278Y-94006197D01*
X72599276Y-94006198D01*
X72593248Y-94008882D01*
X72587907Y-94012762D01*
X72587906Y-94012763D01*
X72577473Y-94020343D01*
X72438747Y-94121134D01*
X72434326Y-94126044D01*
X72434325Y-94126045D01*
X72398639Y-94165679D01*
X72310960Y-94263056D01*
X72307659Y-94268774D01*
X72226987Y-94408502D01*
X72215473Y-94428444D01*
X72156458Y-94610072D01*
X72155768Y-94616633D01*
X72155768Y-94616635D01*
X72146914Y-94700877D01*
X72136496Y-94800000D01*
X72137186Y-94806565D01*
X72152950Y-94956548D01*
X72156458Y-94989928D01*
X72215473Y-95171556D01*
X72218776Y-95177278D01*
X72218777Y-95177279D01*
X72222965Y-95184532D01*
X72310960Y-95336944D01*
X72438747Y-95478866D01*
X72500577Y-95523788D01*
X72586829Y-95586454D01*
X72593248Y-95591118D01*
X72599276Y-95593802D01*
X72599278Y-95593803D01*
X72712140Y-95644052D01*
X72767712Y-95668794D01*
X72861112Y-95688647D01*
X72948056Y-95707128D01*
X72948061Y-95707128D01*
X72954513Y-95708500D01*
X73145487Y-95708500D01*
X73151939Y-95707128D01*
X73151944Y-95707128D01*
X73190201Y-95698996D01*
X73201457Y-95696603D01*
X73272248Y-95702005D01*
X73328880Y-95744822D01*
X73352964Y-95806680D01*
X73356458Y-95839928D01*
X73415473Y-96021556D01*
X73510960Y-96186944D01*
X73515378Y-96191851D01*
X73515379Y-96191852D01*
X73630217Y-96319393D01*
X73638747Y-96328866D01*
X73793248Y-96441118D01*
X73799276Y-96443802D01*
X73799278Y-96443803D01*
X73961681Y-96516109D01*
X73967712Y-96518794D01*
X74061113Y-96538647D01*
X74148056Y-96557128D01*
X74148061Y-96557128D01*
X74154513Y-96558500D01*
X74345487Y-96558500D01*
X74351939Y-96557128D01*
X74351944Y-96557128D01*
X74438887Y-96538647D01*
X74532288Y-96518794D01*
X74538319Y-96516109D01*
X74700722Y-96443803D01*
X74700724Y-96443802D01*
X74706752Y-96441118D01*
X74726963Y-96426434D01*
X74855909Y-96332749D01*
X74855911Y-96332747D01*
X74861253Y-96328866D01*
X74865672Y-96323959D01*
X74870580Y-96319539D01*
X74871449Y-96320505D01*
X74925901Y-96286954D01*
X74959098Y-96282502D01*
X75685552Y-96282502D01*
X75753673Y-96302504D01*
X75800166Y-96356160D01*
X75810270Y-96426434D01*
X75779189Y-96492810D01*
X75760960Y-96513056D01*
X75665473Y-96678444D01*
X75606458Y-96860072D01*
X75605768Y-96866633D01*
X75605768Y-96866635D01*
X75591972Y-96997894D01*
X75586496Y-97050000D01*
X75587186Y-97056565D01*
X75604958Y-97225652D01*
X75606458Y-97239928D01*
X75665473Y-97421556D01*
X75760960Y-97586944D01*
X75834137Y-97668215D01*
X75864853Y-97732221D01*
X75866500Y-97752524D01*
X75866500Y-105121233D01*
X75865973Y-105132416D01*
X75864298Y-105139909D01*
X75864547Y-105147835D01*
X75864547Y-105147836D01*
X75866438Y-105207986D01*
X75866500Y-105211945D01*
X75866500Y-105239856D01*
X75866997Y-105243790D01*
X75866997Y-105243791D01*
X75867005Y-105243856D01*
X75867938Y-105255693D01*
X75869327Y-105299889D01*
X75873718Y-105315003D01*
X75874978Y-105319339D01*
X75878987Y-105338700D01*
X75881526Y-105358797D01*
X75884445Y-105366168D01*
X75884445Y-105366170D01*
X75897804Y-105399912D01*
X75901649Y-105411142D01*
X75913982Y-105453593D01*
X75918015Y-105460412D01*
X75918017Y-105460417D01*
X75924293Y-105471028D01*
X75932988Y-105488776D01*
X75940448Y-105507617D01*
X75945110Y-105514033D01*
X75945110Y-105514034D01*
X75966436Y-105543387D01*
X75972952Y-105553307D01*
X75989452Y-105581206D01*
X75995458Y-105591362D01*
X76009779Y-105605683D01*
X76022619Y-105620716D01*
X76034528Y-105637107D01*
X76062288Y-105660072D01*
X76068605Y-105665298D01*
X76077384Y-105673288D01*
X77395814Y-106991718D01*
X77429840Y-107054030D01*
X77426552Y-107119749D01*
X77380958Y-107260072D01*
X77380268Y-107266633D01*
X77380268Y-107266635D01*
X77367693Y-107386278D01*
X77360996Y-107450000D01*
X77380958Y-107639928D01*
X77382999Y-107646208D01*
X77384372Y-107652670D01*
X77382884Y-107652986D01*
X77386509Y-107678495D01*
X77386280Y-107679943D01*
X77390080Y-107720137D01*
X77390441Y-107723961D01*
X77391000Y-107735819D01*
X77391000Y-110431423D01*
X77390473Y-110442606D01*
X77388798Y-110450099D01*
X77389047Y-110458025D01*
X77389047Y-110458026D01*
X77390938Y-110518176D01*
X77391000Y-110522135D01*
X77391000Y-110550046D01*
X77391497Y-110553980D01*
X77391497Y-110553981D01*
X77391505Y-110554046D01*
X77392438Y-110565883D01*
X77393827Y-110610079D01*
X77399478Y-110629529D01*
X77403487Y-110648890D01*
X77406026Y-110668987D01*
X77408945Y-110676358D01*
X77408945Y-110676360D01*
X77422304Y-110710102D01*
X77426149Y-110721332D01*
X77438482Y-110763783D01*
X77442515Y-110770602D01*
X77442517Y-110770607D01*
X77448793Y-110781218D01*
X77457488Y-110798966D01*
X77464948Y-110817807D01*
X77469610Y-110824223D01*
X77469610Y-110824224D01*
X77490936Y-110853577D01*
X77497452Y-110863497D01*
X77505816Y-110877639D01*
X77519958Y-110901552D01*
X77534279Y-110915873D01*
X77547119Y-110930906D01*
X77559028Y-110947297D01*
X77565134Y-110952348D01*
X77593105Y-110975488D01*
X77601884Y-110983478D01*
X81529595Y-114911190D01*
X81563621Y-114973502D01*
X81566500Y-115000285D01*
X81566500Y-119047476D01*
X81546498Y-119115597D01*
X81534142Y-119131779D01*
X81460960Y-119213056D01*
X81377210Y-119358115D01*
X81368619Y-119372995D01*
X81317236Y-119421988D01*
X81247523Y-119435424D01*
X81181612Y-119409038D01*
X81140430Y-119351205D01*
X81133500Y-119309995D01*
X81133500Y-118926866D01*
X81126745Y-118864684D01*
X81075615Y-118728295D01*
X80988261Y-118611739D01*
X80871705Y-118524385D01*
X80735316Y-118473255D01*
X80673134Y-118466500D01*
X79226866Y-118466500D01*
X79164684Y-118473255D01*
X79028295Y-118524385D01*
X78911739Y-118611739D01*
X78856479Y-118685473D01*
X78855538Y-118686728D01*
X78798679Y-118729243D01*
X78727860Y-118734269D01*
X78678012Y-118711129D01*
X78677795Y-118710963D01*
X78673556Y-118707044D01*
X78489599Y-118590976D01*
X78287572Y-118510376D01*
X78074239Y-118467941D01*
X78068464Y-118467865D01*
X78068460Y-118467865D01*
X77959419Y-118466438D01*
X77856746Y-118465094D01*
X77851049Y-118466073D01*
X77851048Y-118466073D01*
X77648065Y-118500952D01*
X77648062Y-118500953D01*
X77642375Y-118501930D01*
X77438307Y-118577214D01*
X77251376Y-118688427D01*
X77087842Y-118831842D01*
X77084270Y-118836372D01*
X77084269Y-118836374D01*
X77050007Y-118879834D01*
X76992125Y-118920947D01*
X76921205Y-118924239D01*
X76859763Y-118888667D01*
X76850100Y-118877215D01*
X76836737Y-118859319D01*
X76836730Y-118859312D01*
X76833280Y-118854691D01*
X76737883Y-118766507D01*
X76677796Y-118710963D01*
X76677793Y-118710961D01*
X76673556Y-118707044D01*
X76489599Y-118590976D01*
X76287572Y-118510376D01*
X76074239Y-118467941D01*
X76068464Y-118467865D01*
X76068460Y-118467865D01*
X75959419Y-118466438D01*
X75856746Y-118465094D01*
X75851049Y-118466073D01*
X75851048Y-118466073D01*
X75648065Y-118500952D01*
X75648062Y-118500953D01*
X75642375Y-118501930D01*
X75438307Y-118577214D01*
X75251376Y-118688427D01*
X75087842Y-118831842D01*
X75084270Y-118836372D01*
X75084269Y-118836374D01*
X75050007Y-118879834D01*
X74992125Y-118920947D01*
X74921205Y-118924239D01*
X74859763Y-118888667D01*
X74850100Y-118877215D01*
X74836737Y-118859319D01*
X74836730Y-118859312D01*
X74833280Y-118854691D01*
X74737883Y-118766507D01*
X74677796Y-118710963D01*
X74677793Y-118710961D01*
X74673556Y-118707044D01*
X74489599Y-118590976D01*
X74287572Y-118510376D01*
X74074239Y-118467941D01*
X74068464Y-118467865D01*
X74068460Y-118467865D01*
X73959419Y-118466438D01*
X73856746Y-118465094D01*
X73851049Y-118466073D01*
X73851048Y-118466073D01*
X73648065Y-118500952D01*
X73648062Y-118500953D01*
X73642375Y-118501930D01*
X73438307Y-118577214D01*
X73251376Y-118688427D01*
X73087842Y-118831842D01*
X73084270Y-118836373D01*
X72980487Y-118968021D01*
X72953181Y-119002658D01*
X72950493Y-119007767D01*
X72923919Y-119058277D01*
X72851905Y-119195154D01*
X72850192Y-119200671D01*
X72793040Y-119384729D01*
X72787403Y-119402882D01*
X72761837Y-119618887D01*
X72776063Y-119835933D01*
X72777484Y-119841529D01*
X72777485Y-119841534D01*
X72814325Y-119986590D01*
X72829605Y-120046753D01*
X72920668Y-120244285D01*
X72924001Y-120249001D01*
X73011730Y-120373134D01*
X73046204Y-120421914D01*
X73202009Y-120573692D01*
X73382863Y-120694536D01*
X73388171Y-120696817D01*
X73388172Y-120696817D01*
X73577409Y-120778119D01*
X73577412Y-120778120D01*
X73582712Y-120780397D01*
X73588342Y-120781671D01*
X73686464Y-120803874D01*
X73794860Y-120828402D01*
X73800631Y-120828629D01*
X73800633Y-120828629D01*
X73873620Y-120831496D01*
X74012205Y-120836941D01*
X74227466Y-120805730D01*
X74232930Y-120803875D01*
X74232935Y-120803874D01*
X74427963Y-120737671D01*
X74427968Y-120737669D01*
X74433435Y-120735813D01*
X74445619Y-120728990D01*
X74512872Y-120691326D01*
X74623213Y-120629532D01*
X74790446Y-120490446D01*
X74850252Y-120418537D01*
X74909189Y-120378953D01*
X74980171Y-120377517D01*
X75042913Y-120417258D01*
X75046204Y-120421914D01*
X75050346Y-120425949D01*
X75050348Y-120425951D01*
X75113597Y-120487565D01*
X75202009Y-120573692D01*
X75382863Y-120694536D01*
X75388171Y-120696817D01*
X75388172Y-120696817D01*
X75577409Y-120778119D01*
X75577412Y-120778120D01*
X75582712Y-120780397D01*
X75588342Y-120781671D01*
X75686464Y-120803874D01*
X75794860Y-120828402D01*
X75800631Y-120828629D01*
X75800633Y-120828629D01*
X75873620Y-120831496D01*
X76012205Y-120836941D01*
X76227466Y-120805730D01*
X76232930Y-120803875D01*
X76232935Y-120803874D01*
X76427963Y-120737671D01*
X76427968Y-120737669D01*
X76433435Y-120735813D01*
X76445619Y-120728990D01*
X76512872Y-120691326D01*
X76623213Y-120629532D01*
X76790446Y-120490446D01*
X76850252Y-120418537D01*
X76909189Y-120378953D01*
X76980171Y-120377517D01*
X77042913Y-120417258D01*
X77046204Y-120421914D01*
X77050346Y-120425949D01*
X77050348Y-120425951D01*
X77113597Y-120487565D01*
X77202009Y-120573692D01*
X77382863Y-120694536D01*
X77388171Y-120696817D01*
X77388172Y-120696817D01*
X77577409Y-120778119D01*
X77577412Y-120778120D01*
X77582712Y-120780397D01*
X77588342Y-120781671D01*
X77686464Y-120803874D01*
X77794860Y-120828402D01*
X77800631Y-120828629D01*
X77800633Y-120828629D01*
X77873620Y-120831496D01*
X78012205Y-120836941D01*
X78227466Y-120805730D01*
X78232930Y-120803875D01*
X78232935Y-120803874D01*
X78427963Y-120737671D01*
X78427968Y-120737669D01*
X78433435Y-120735813D01*
X78445619Y-120728990D01*
X78512872Y-120691326D01*
X78623213Y-120629532D01*
X78671932Y-120589013D01*
X78737096Y-120560832D01*
X78807151Y-120572356D01*
X78853327Y-120610322D01*
X78911739Y-120688261D01*
X79028295Y-120775615D01*
X79164684Y-120826745D01*
X79226866Y-120833500D01*
X80673134Y-120833500D01*
X80735316Y-120826745D01*
X80871705Y-120775615D01*
X80988261Y-120688261D01*
X81075615Y-120571705D01*
X81126745Y-120435316D01*
X81133500Y-120373134D01*
X81133500Y-120190005D01*
X81153502Y-120121884D01*
X81207158Y-120075391D01*
X81277432Y-120065287D01*
X81342012Y-120094781D01*
X81368619Y-120127005D01*
X81460960Y-120286944D01*
X81465378Y-120291851D01*
X81465379Y-120291852D01*
X81575028Y-120413630D01*
X81588747Y-120428866D01*
X81681103Y-120495967D01*
X81693008Y-120504616D01*
X81743248Y-120541118D01*
X81749276Y-120543802D01*
X81749278Y-120543803D01*
X81898683Y-120610322D01*
X81917712Y-120618794D01*
X82011113Y-120638647D01*
X82098056Y-120657128D01*
X82098061Y-120657128D01*
X82104513Y-120658500D01*
X82295487Y-120658500D01*
X82301939Y-120657128D01*
X82301944Y-120657128D01*
X82388887Y-120638647D01*
X82482288Y-120618794D01*
X82501317Y-120610322D01*
X82650722Y-120543803D01*
X82650724Y-120543802D01*
X82656752Y-120541118D01*
X82706993Y-120504616D01*
X82718897Y-120495967D01*
X82811253Y-120428866D01*
X82824972Y-120413630D01*
X82934621Y-120291852D01*
X82934622Y-120291851D01*
X82939040Y-120286944D01*
X83001899Y-120178069D01*
X83031223Y-120127279D01*
X83031224Y-120127278D01*
X83034527Y-120121556D01*
X83093542Y-119939928D01*
X83095637Y-119920000D01*
X83112814Y-119756565D01*
X83113504Y-119750000D01*
X83110290Y-119719422D01*
X83094232Y-119566635D01*
X83094232Y-119566633D01*
X83093542Y-119560072D01*
X83034527Y-119378444D01*
X83026847Y-119365141D01*
X82972778Y-119271492D01*
X82939040Y-119213056D01*
X82865863Y-119131785D01*
X82835147Y-119067779D01*
X82833500Y-119047476D01*
X82833500Y-116095864D01*
X82853502Y-116027743D01*
X82907158Y-115981250D01*
X82977432Y-115971146D01*
X82985697Y-115972617D01*
X83148056Y-116007128D01*
X83148061Y-116007128D01*
X83154513Y-116008500D01*
X83345487Y-116008500D01*
X83351939Y-116007128D01*
X83351944Y-116007128D01*
X83438887Y-115988647D01*
X83532288Y-115968794D01*
X83538319Y-115966109D01*
X83700722Y-115893803D01*
X83700724Y-115893802D01*
X83706752Y-115891118D01*
X83861253Y-115778866D01*
X83989040Y-115636944D01*
X84063401Y-115508148D01*
X84081223Y-115477279D01*
X84081224Y-115477278D01*
X84084527Y-115471556D01*
X84143542Y-115289928D01*
X84150214Y-115226453D01*
X84162814Y-115106565D01*
X84163504Y-115100000D01*
X84154914Y-115018267D01*
X84144232Y-114916635D01*
X84144232Y-114916633D01*
X84143542Y-114910072D01*
X84084527Y-114728444D01*
X83989040Y-114563056D01*
X83980440Y-114553504D01*
X83865675Y-114426045D01*
X83865674Y-114426044D01*
X83861253Y-114421134D01*
X83749001Y-114339578D01*
X83712094Y-114312763D01*
X83712093Y-114312762D01*
X83706752Y-114308882D01*
X83700724Y-114306198D01*
X83700722Y-114306197D01*
X83538319Y-114233891D01*
X83538318Y-114233891D01*
X83532288Y-114231206D01*
X83438888Y-114211353D01*
X83351944Y-114192872D01*
X83351939Y-114192872D01*
X83345487Y-114191500D01*
X83289594Y-114191500D01*
X83221473Y-114171498D01*
X83200499Y-114154595D01*
X80170405Y-111124500D01*
X80136379Y-111062188D01*
X80133500Y-111035405D01*
X80133500Y-107728962D01*
X80134027Y-107717779D01*
X80135702Y-107710286D01*
X80135125Y-107691914D01*
X80133562Y-107642209D01*
X80133500Y-107638250D01*
X80133500Y-107610339D01*
X80132995Y-107606339D01*
X80132062Y-107594496D01*
X80131824Y-107586902D01*
X80130673Y-107550305D01*
X80125022Y-107530853D01*
X80121014Y-107511501D01*
X80119467Y-107499258D01*
X80118474Y-107491398D01*
X80107242Y-107463028D01*
X80102200Y-107450292D01*
X80098355Y-107439065D01*
X80093965Y-107423955D01*
X80086018Y-107396602D01*
X80081984Y-107389780D01*
X80081981Y-107389774D01*
X80075706Y-107379163D01*
X80067010Y-107361413D01*
X80062472Y-107349951D01*
X80062469Y-107349946D01*
X80059552Y-107342578D01*
X80042272Y-107318794D01*
X80033573Y-107306820D01*
X80027057Y-107296902D01*
X80011839Y-107271171D01*
X80004542Y-107258832D01*
X79990218Y-107244508D01*
X79977376Y-107229473D01*
X79965472Y-107213088D01*
X79931406Y-107184906D01*
X79922627Y-107176917D01*
X79078457Y-106332747D01*
X79070917Y-106324461D01*
X79066805Y-106317982D01*
X79017153Y-106271356D01*
X79014312Y-106268602D01*
X78994575Y-106248865D01*
X78991378Y-106246385D01*
X78982356Y-106238680D01*
X78955905Y-106213841D01*
X78950126Y-106208414D01*
X78943180Y-106204595D01*
X78943177Y-106204593D01*
X78932371Y-106198652D01*
X78915852Y-106187801D01*
X78907375Y-106181226D01*
X78899846Y-106175386D01*
X78892577Y-106172241D01*
X78892573Y-106172238D01*
X78859268Y-106157826D01*
X78848618Y-106152609D01*
X78809865Y-106131305D01*
X78790242Y-106126267D01*
X78771539Y-106119863D01*
X78760225Y-106114967D01*
X78760224Y-106114967D01*
X78752950Y-106111819D01*
X78745127Y-106110580D01*
X78745117Y-106110577D01*
X78709281Y-106104901D01*
X78697661Y-106102495D01*
X78662516Y-106093472D01*
X78662515Y-106093472D01*
X78654835Y-106091500D01*
X78634581Y-106091500D01*
X78614870Y-106089949D01*
X78602691Y-106088020D01*
X78594862Y-106086780D01*
X78586970Y-106087526D01*
X78550844Y-106090941D01*
X78538986Y-106091500D01*
X78339594Y-106091500D01*
X78271473Y-106071498D01*
X78250499Y-106054595D01*
X77170405Y-104974500D01*
X77136379Y-104912188D01*
X77133500Y-104885405D01*
X77133500Y-103019669D01*
X80042001Y-103019669D01*
X80042371Y-103026490D01*
X80047895Y-103077352D01*
X80051521Y-103092604D01*
X80096676Y-103213054D01*
X80105214Y-103228649D01*
X80181715Y-103330724D01*
X80194276Y-103343285D01*
X80296351Y-103419786D01*
X80311946Y-103428324D01*
X80432394Y-103473478D01*
X80447649Y-103477105D01*
X80498514Y-103482631D01*
X80505328Y-103483000D01*
X80777885Y-103483000D01*
X80793124Y-103478525D01*
X80794329Y-103477135D01*
X80796000Y-103469452D01*
X80796000Y-101957115D01*
X80791525Y-101941876D01*
X80790135Y-101940671D01*
X80782452Y-101939000D01*
X80060116Y-101939000D01*
X80044877Y-101943475D01*
X80043672Y-101944865D01*
X80042001Y-101952548D01*
X80042001Y-103019669D01*
X77133500Y-103019669D01*
X77133500Y-101412885D01*
X80042000Y-101412885D01*
X80046475Y-101428124D01*
X80047865Y-101429329D01*
X80055548Y-101431000D01*
X80777885Y-101431000D01*
X80793124Y-101426525D01*
X80794329Y-101425135D01*
X80796000Y-101417452D01*
X80796000Y-99905116D01*
X80791525Y-99889877D01*
X80790135Y-99888672D01*
X80782452Y-99887001D01*
X80505331Y-99887001D01*
X80498510Y-99887371D01*
X80447648Y-99892895D01*
X80432396Y-99896521D01*
X80311946Y-99941676D01*
X80296351Y-99950214D01*
X80194276Y-100026715D01*
X80181715Y-100039276D01*
X80105214Y-100141351D01*
X80096676Y-100156946D01*
X80051522Y-100277394D01*
X80047895Y-100292649D01*
X80042369Y-100343514D01*
X80042000Y-100350328D01*
X80042000Y-101412885D01*
X77133500Y-101412885D01*
X77133500Y-97752524D01*
X77153502Y-97684403D01*
X77165858Y-97668221D01*
X77234300Y-97592208D01*
X77294745Y-97554970D01*
X77365729Y-97556322D01*
X77424714Y-97595836D01*
X77448932Y-97641369D01*
X77457371Y-97670418D01*
X77457373Y-97670424D01*
X77459091Y-97676336D01*
X77550108Y-97851926D01*
X77646738Y-97972973D01*
X77649231Y-97975466D01*
X77858150Y-98184384D01*
X77867252Y-98194527D01*
X77890968Y-98224025D01*
X77895696Y-98227992D01*
X77929421Y-98256291D01*
X77933069Y-98259472D01*
X77934881Y-98261115D01*
X77937075Y-98263309D01*
X77970349Y-98290642D01*
X77971147Y-98291304D01*
X78042474Y-98351154D01*
X78047144Y-98353722D01*
X78051261Y-98357103D01*
X78109145Y-98388140D01*
X78133086Y-98400977D01*
X78134245Y-98401606D01*
X78210381Y-98443462D01*
X78210389Y-98443465D01*
X78215787Y-98446433D01*
X78220869Y-98448045D01*
X78225563Y-98450562D01*
X78231454Y-98452363D01*
X78314477Y-98477747D01*
X78315735Y-98478139D01*
X78404306Y-98506235D01*
X78409597Y-98506829D01*
X78414698Y-98508388D01*
X78507263Y-98517790D01*
X78508450Y-98517916D01*
X78537838Y-98521213D01*
X78554730Y-98523108D01*
X78554735Y-98523108D01*
X78558227Y-98523500D01*
X78561752Y-98523500D01*
X78562737Y-98523555D01*
X78568432Y-98524003D01*
X78580342Y-98525213D01*
X78605334Y-98527752D01*
X78605339Y-98527752D01*
X78611462Y-98528374D01*
X78657108Y-98524059D01*
X78668967Y-98523500D01*
X79915500Y-98523500D01*
X79983621Y-98543502D01*
X80030114Y-98597158D01*
X80041500Y-98649500D01*
X80041500Y-98853134D01*
X80048255Y-98915316D01*
X80099385Y-99051705D01*
X80186739Y-99168261D01*
X80303295Y-99255615D01*
X80439684Y-99306745D01*
X80501866Y-99313500D01*
X81465500Y-99313500D01*
X81533621Y-99333502D01*
X81580114Y-99387158D01*
X81591500Y-99439500D01*
X81591500Y-99761000D01*
X81571498Y-99829121D01*
X81517842Y-99875614D01*
X81465500Y-99887000D01*
X81322115Y-99887000D01*
X81306876Y-99891475D01*
X81305671Y-99892865D01*
X81304000Y-99900548D01*
X81304000Y-103464884D01*
X81308475Y-103480123D01*
X81309865Y-103481328D01*
X81317548Y-103482999D01*
X81465500Y-103482999D01*
X81533621Y-103503001D01*
X81580114Y-103556657D01*
X81591500Y-103608999D01*
X81591500Y-105488789D01*
X81571498Y-105556910D01*
X81516749Y-105603896D01*
X81399278Y-105656197D01*
X81399276Y-105656198D01*
X81393248Y-105658882D01*
X81238747Y-105771134D01*
X81234326Y-105776044D01*
X81234325Y-105776045D01*
X81123629Y-105898986D01*
X81110960Y-105913056D01*
X81015473Y-106078444D01*
X80956458Y-106260072D01*
X80955768Y-106266633D01*
X80955768Y-106266635D01*
X80941804Y-106399501D01*
X80936496Y-106450000D01*
X80937186Y-106456565D01*
X80949228Y-106571134D01*
X80956458Y-106639928D01*
X81015473Y-106821556D01*
X81110960Y-106986944D01*
X81115378Y-106991851D01*
X81115379Y-106991852D01*
X81215112Y-107102617D01*
X81238747Y-107128866D01*
X81393248Y-107241118D01*
X81399276Y-107243802D01*
X81399278Y-107243803D01*
X81561681Y-107316109D01*
X81567712Y-107318794D01*
X81661112Y-107338647D01*
X81748056Y-107357128D01*
X81748061Y-107357128D01*
X81754513Y-107358500D01*
X81945487Y-107358500D01*
X81951939Y-107357128D01*
X81951944Y-107357128D01*
X82038887Y-107338647D01*
X82132288Y-107318794D01*
X82239252Y-107271171D01*
X82309618Y-107261737D01*
X82373915Y-107291843D01*
X82411729Y-107351932D01*
X82416500Y-107386278D01*
X82416500Y-107735405D01*
X82396498Y-107803526D01*
X82379595Y-107824501D01*
X81999499Y-108204596D01*
X81937187Y-108238621D01*
X81910404Y-108241500D01*
X81854513Y-108241500D01*
X81848061Y-108242872D01*
X81848056Y-108242872D01*
X81762693Y-108261017D01*
X81667712Y-108281206D01*
X81661682Y-108283891D01*
X81661681Y-108283891D01*
X81499278Y-108356197D01*
X81499276Y-108356198D01*
X81493248Y-108358882D01*
X81338747Y-108471134D01*
X81334326Y-108476044D01*
X81334325Y-108476045D01*
X81245210Y-108575018D01*
X81210960Y-108613056D01*
X81115473Y-108778444D01*
X81056458Y-108960072D01*
X81055768Y-108966633D01*
X81055768Y-108966635D01*
X81042091Y-109096765D01*
X81036496Y-109150000D01*
X81056458Y-109339928D01*
X81115473Y-109521556D01*
X81118776Y-109527278D01*
X81118777Y-109527279D01*
X81152686Y-109586010D01*
X81210960Y-109686944D01*
X81215378Y-109691851D01*
X81215379Y-109691852D01*
X81294650Y-109779891D01*
X81338747Y-109828866D01*
X81415919Y-109884935D01*
X81481724Y-109932745D01*
X81493248Y-109941118D01*
X81499276Y-109943802D01*
X81499278Y-109943803D01*
X81593702Y-109985843D01*
X81667712Y-110018794D01*
X81754479Y-110037237D01*
X81848056Y-110057128D01*
X81848061Y-110057128D01*
X81854513Y-110058500D01*
X82045487Y-110058500D01*
X82051939Y-110057128D01*
X82051944Y-110057128D01*
X82145521Y-110037237D01*
X82232288Y-110018794D01*
X82306298Y-109985843D01*
X82400722Y-109943803D01*
X82400724Y-109943802D01*
X82406752Y-109941118D01*
X82461885Y-109901061D01*
X82528754Y-109877203D01*
X82597905Y-109893284D01*
X82629583Y-109918689D01*
X82634328Y-109923960D01*
X82634336Y-109923968D01*
X82638747Y-109928866D01*
X82650269Y-109937237D01*
X82705126Y-109977093D01*
X82793248Y-110041118D01*
X82799276Y-110043802D01*
X82799278Y-110043803D01*
X82860454Y-110071040D01*
X82967712Y-110118794D01*
X83036202Y-110133352D01*
X83148056Y-110157128D01*
X83148061Y-110157128D01*
X83154513Y-110158500D01*
X83345487Y-110158500D01*
X83351939Y-110157128D01*
X83351944Y-110157128D01*
X83463798Y-110133352D01*
X83532288Y-110118794D01*
X83639546Y-110071040D01*
X83700722Y-110043803D01*
X83700724Y-110043802D01*
X83706752Y-110041118D01*
X83861253Y-109928866D01*
X83865675Y-109923955D01*
X83984621Y-109791852D01*
X83984622Y-109791851D01*
X83989040Y-109786944D01*
X84084527Y-109621556D01*
X84143542Y-109439928D01*
X84144353Y-109432217D01*
X84154742Y-109333365D01*
X84160907Y-109274706D01*
X84187920Y-109209050D01*
X84197122Y-109198782D01*
X86122134Y-107273770D01*
X86184446Y-107239744D01*
X86255261Y-107244809D01*
X86310849Y-107287044D01*
X86310960Y-107286944D01*
X86311486Y-107287529D01*
X86311488Y-107287531D01*
X86315381Y-107291854D01*
X86425471Y-107414121D01*
X86438747Y-107428866D01*
X86593248Y-107541118D01*
X86599276Y-107543802D01*
X86599278Y-107543803D01*
X86757625Y-107614303D01*
X86767712Y-107618794D01*
X86859245Y-107638250D01*
X86948056Y-107657128D01*
X86948061Y-107657128D01*
X86954513Y-107658500D01*
X87115500Y-107658500D01*
X87183621Y-107678502D01*
X87230114Y-107732158D01*
X87241500Y-107784500D01*
X87241500Y-108710069D01*
X87221498Y-108778190D01*
X87204595Y-108799164D01*
X85833247Y-110170512D01*
X85824961Y-110178052D01*
X85818482Y-110182164D01*
X85813057Y-110187941D01*
X85771857Y-110231815D01*
X85769102Y-110234657D01*
X85749365Y-110254394D01*
X85746885Y-110257591D01*
X85739182Y-110266611D01*
X85708914Y-110298843D01*
X85705095Y-110305789D01*
X85705093Y-110305792D01*
X85699152Y-110316598D01*
X85688301Y-110333117D01*
X85675886Y-110349123D01*
X85672741Y-110356392D01*
X85672738Y-110356396D01*
X85658326Y-110389701D01*
X85653109Y-110400351D01*
X85631805Y-110439104D01*
X85629834Y-110446779D01*
X85629834Y-110446780D01*
X85626767Y-110458726D01*
X85620363Y-110477430D01*
X85612319Y-110496019D01*
X85611080Y-110503842D01*
X85611077Y-110503852D01*
X85605401Y-110539688D01*
X85602995Y-110551308D01*
X85599252Y-110565889D01*
X85592000Y-110594134D01*
X85592000Y-110614388D01*
X85590449Y-110634098D01*
X85587280Y-110654107D01*
X85588026Y-110661999D01*
X85591441Y-110698125D01*
X85592000Y-110709983D01*
X85592000Y-110759569D01*
X85571998Y-110827690D01*
X85555095Y-110848665D01*
X85114157Y-111289602D01*
X84683241Y-111720518D01*
X84674962Y-111728052D01*
X84668481Y-111732165D01*
X84624293Y-111779221D01*
X84621856Y-111781816D01*
X84619101Y-111784658D01*
X84599364Y-111804395D01*
X84596884Y-111807592D01*
X84589181Y-111816612D01*
X84558913Y-111848844D01*
X84555094Y-111855790D01*
X84555092Y-111855793D01*
X84549151Y-111866599D01*
X84538300Y-111883118D01*
X84525885Y-111899124D01*
X84522740Y-111906393D01*
X84522737Y-111906397D01*
X84508325Y-111939702D01*
X84503108Y-111950352D01*
X84481804Y-111989105D01*
X84479833Y-111996780D01*
X84479833Y-111996781D01*
X84476766Y-112008727D01*
X84470362Y-112027431D01*
X84462318Y-112046020D01*
X84461079Y-112053843D01*
X84461076Y-112053853D01*
X84455400Y-112089689D01*
X84452994Y-112101309D01*
X84441999Y-112144135D01*
X84441999Y-112164389D01*
X84440448Y-112184099D01*
X84437279Y-112204108D01*
X84438025Y-112212000D01*
X84441440Y-112248126D01*
X84441999Y-112259984D01*
X84441999Y-124309906D01*
X84421997Y-124378027D01*
X84405094Y-124399002D01*
X83957344Y-124846751D01*
X83895032Y-124880776D01*
X83846153Y-124881702D01*
X83633373Y-124843800D01*
X83633367Y-124843799D01*
X83628284Y-124842894D01*
X83554452Y-124841992D01*
X83410081Y-124840228D01*
X83410079Y-124840228D01*
X83404911Y-124840165D01*
X83184091Y-124873955D01*
X82971756Y-124943357D01*
X82967164Y-124945747D01*
X82967165Y-124945747D01*
X82824208Y-125020166D01*
X82773607Y-125046507D01*
X82769474Y-125049610D01*
X82769471Y-125049612D01*
X82627513Y-125156197D01*
X82594965Y-125180635D01*
X82440629Y-125342138D01*
X82314743Y-125526680D01*
X82293372Y-125572721D01*
X82224244Y-125721645D01*
X82220688Y-125729305D01*
X82176898Y-125887206D01*
X82176090Y-125890119D01*
X82138611Y-125950417D01*
X82074482Y-125980880D01*
X82004064Y-125971836D01*
X81995141Y-125967496D01*
X81994873Y-125967353D01*
X81989437Y-125964438D01*
X81834819Y-125917166D01*
X81806200Y-125908416D01*
X81806198Y-125908416D01*
X81800302Y-125906613D01*
X81742449Y-125900736D01*
X81609666Y-125887248D01*
X81609661Y-125887248D01*
X81603538Y-125886626D01*
X81481799Y-125898134D01*
X81412771Y-125904659D01*
X81412769Y-125904659D01*
X81406638Y-125905239D01*
X81348871Y-125922460D01*
X81223007Y-125959981D01*
X81223005Y-125959982D01*
X81217104Y-125961741D01*
X81042154Y-126053982D01*
X81037368Y-126057858D01*
X81037366Y-126057859D01*
X80969826Y-126112552D01*
X80888453Y-126178447D01*
X80884508Y-126183182D01*
X80774456Y-126315271D01*
X80761854Y-126330396D01*
X80667178Y-126504041D01*
X80665335Y-126509923D01*
X80663967Y-126513145D01*
X80618938Y-126568035D01*
X80551382Y-126589866D01*
X80538099Y-126589524D01*
X80504932Y-126586914D01*
X80504930Y-126586914D01*
X80500000Y-126586526D01*
X80247597Y-126606391D01*
X80242790Y-126607545D01*
X80242784Y-126607546D01*
X80153981Y-126628866D01*
X80079209Y-126646817D01*
X80008302Y-126643270D01*
X79950568Y-126601950D01*
X79924338Y-126535976D01*
X79937941Y-126466295D01*
X79960701Y-126435203D01*
X81300499Y-125095405D01*
X81362811Y-125061379D01*
X81389594Y-125058500D01*
X81445487Y-125058500D01*
X81451939Y-125057128D01*
X81451944Y-125057128D01*
X81538887Y-125038647D01*
X81632288Y-125018794D01*
X81638319Y-125016109D01*
X81800722Y-124943803D01*
X81800724Y-124943802D01*
X81806752Y-124941118D01*
X81849979Y-124909712D01*
X81896982Y-124875562D01*
X81961253Y-124828866D01*
X82072526Y-124705285D01*
X82084621Y-124691852D01*
X82084622Y-124691851D01*
X82089040Y-124686944D01*
X82165748Y-124554082D01*
X82181223Y-124527279D01*
X82181224Y-124527278D01*
X82184527Y-124521556D01*
X82243542Y-124339928D01*
X82246698Y-124309906D01*
X82262814Y-124156565D01*
X82263504Y-124150000D01*
X82252735Y-124047540D01*
X82244232Y-123966635D01*
X82244232Y-123966633D01*
X82243542Y-123960072D01*
X82184527Y-123778444D01*
X82089040Y-123613056D01*
X81961253Y-123471134D01*
X81806752Y-123358882D01*
X81800724Y-123356198D01*
X81800722Y-123356197D01*
X81638319Y-123283891D01*
X81638318Y-123283891D01*
X81632288Y-123281206D01*
X81534348Y-123260388D01*
X81451944Y-123242872D01*
X81451939Y-123242872D01*
X81445487Y-123241500D01*
X81254513Y-123241500D01*
X81248061Y-123242872D01*
X81248056Y-123242872D01*
X81165652Y-123260388D01*
X81067712Y-123281206D01*
X81061682Y-123283891D01*
X81061681Y-123283891D01*
X80899278Y-123356197D01*
X80899276Y-123356198D01*
X80893248Y-123358882D01*
X80738747Y-123471134D01*
X80610960Y-123613056D01*
X80515473Y-123778444D01*
X80456458Y-123960072D01*
X80455768Y-123966633D01*
X80455768Y-123966635D01*
X80452692Y-123995906D01*
X80439112Y-124125116D01*
X80439093Y-124125293D01*
X80412080Y-124190950D01*
X80402878Y-124201218D01*
X78911411Y-125692684D01*
X78849099Y-125726710D01*
X78778283Y-125721645D01*
X78721448Y-125679098D01*
X78696489Y-125610184D01*
X78688862Y-125464667D01*
X78688176Y-125458130D01*
X78628407Y-125080767D01*
X78627036Y-125074317D01*
X78528154Y-124705285D01*
X78526113Y-124699003D01*
X78389202Y-124342337D01*
X78386520Y-124336312D01*
X78213070Y-123995898D01*
X78209773Y-123990188D01*
X78001689Y-123669766D01*
X77997819Y-123664440D01*
X77804464Y-123425666D01*
X77792209Y-123417201D01*
X77781118Y-123423535D01*
X75367964Y-125836689D01*
X75360350Y-125850633D01*
X75360481Y-125852466D01*
X75364732Y-125859081D01*
X77780252Y-128274601D01*
X77793328Y-128281742D01*
X77803695Y-128274285D01*
X77997819Y-128034562D01*
X78001689Y-128029236D01*
X78209773Y-127708814D01*
X78213070Y-127703103D01*
X78386026Y-127363660D01*
X78434775Y-127312045D01*
X78503690Y-127294979D01*
X78570891Y-127317880D01*
X78615043Y-127373478D01*
X78624293Y-127420863D01*
X78624293Y-128633832D01*
X78623766Y-128645015D01*
X78622091Y-128652508D01*
X78622340Y-128660434D01*
X78622340Y-128660435D01*
X78624231Y-128720585D01*
X78624293Y-128724544D01*
X78624293Y-128752455D01*
X78624790Y-128756389D01*
X78624790Y-128756390D01*
X78624798Y-128756455D01*
X78625731Y-128768292D01*
X78627120Y-128812488D01*
X78632771Y-128831938D01*
X78636780Y-128851299D01*
X78639319Y-128871396D01*
X78642238Y-128878767D01*
X78642238Y-128878769D01*
X78655597Y-128912511D01*
X78659442Y-128923741D01*
X78669564Y-128958582D01*
X78671775Y-128966192D01*
X78675808Y-128973011D01*
X78675810Y-128973016D01*
X78682086Y-128983627D01*
X78690781Y-129001375D01*
X78698241Y-129020216D01*
X78702903Y-129026632D01*
X78702903Y-129026633D01*
X78724229Y-129055986D01*
X78730745Y-129065906D01*
X78741144Y-129083489D01*
X78753251Y-129103961D01*
X78767572Y-129118282D01*
X78780412Y-129133315D01*
X78792321Y-129149706D01*
X78798427Y-129154757D01*
X78799191Y-129155571D01*
X78831241Y-129218922D01*
X78823952Y-129289544D01*
X78779640Y-129345014D01*
X78706445Y-129367819D01*
X78408155Y-129365703D01*
X76808770Y-129354360D01*
X76740793Y-129333875D01*
X76694682Y-129279891D01*
X76685077Y-129209547D01*
X76715027Y-129145177D01*
X76752461Y-129116096D01*
X76849548Y-129066628D01*
X76855257Y-129063331D01*
X77175670Y-128855252D01*
X77181007Y-128851375D01*
X77419777Y-128658023D01*
X77428242Y-128645768D01*
X77421908Y-128634677D01*
X74725827Y-125938596D01*
X74691801Y-125876284D01*
X74696866Y-125805469D01*
X74725827Y-125760406D01*
X77421042Y-123065191D01*
X77428183Y-123052115D01*
X77420726Y-123041748D01*
X77181007Y-122847627D01*
X77175670Y-122843750D01*
X76855257Y-122635671D01*
X76849548Y-122632374D01*
X76509131Y-122458923D01*
X76503106Y-122456241D01*
X76146440Y-122319330D01*
X76140158Y-122317289D01*
X75771126Y-122218407D01*
X75764676Y-122217036D01*
X75387313Y-122157267D01*
X75380775Y-122156581D01*
X74999243Y-122136585D01*
X74992641Y-122136585D01*
X74611109Y-122156581D01*
X74604571Y-122157267D01*
X74227208Y-122217036D01*
X74220758Y-122218407D01*
X73851726Y-122317289D01*
X73845444Y-122319330D01*
X73528673Y-122440927D01*
X73457909Y-122446666D01*
X73395276Y-122413236D01*
X73360659Y-122351250D01*
X73360926Y-122304528D01*
X73359053Y-122304256D01*
X73387653Y-122107001D01*
X73389146Y-122050000D01*
X73377843Y-121926987D01*
X73371437Y-121857273D01*
X73371436Y-121857270D01*
X73370908Y-121851519D01*
X73366519Y-121835954D01*
X73318373Y-121665244D01*
X73318372Y-121665242D01*
X73316805Y-121659685D01*
X73290690Y-121606727D01*
X73231205Y-121486104D01*
X73228650Y-121480923D01*
X73218433Y-121467240D01*
X73181983Y-121418428D01*
X73109393Y-121321219D01*
X72963030Y-121185922D01*
X72958147Y-121182841D01*
X72958143Y-121182838D01*
X72799346Y-121082645D01*
X72799341Y-121082643D01*
X72794462Y-121079564D01*
X72609334Y-121005705D01*
X72413847Y-120966820D01*
X72408072Y-120966744D01*
X72408068Y-120966744D01*
X72308588Y-120965442D01*
X72214547Y-120964211D01*
X72208850Y-120965190D01*
X72208849Y-120965190D01*
X72046839Y-120993029D01*
X72018108Y-120997966D01*
X71831111Y-121066953D01*
X71826149Y-121069905D01*
X71695368Y-121147711D01*
X71626597Y-121165351D01*
X71559207Y-121143010D01*
X71514593Y-121087782D01*
X71504945Y-121039413D01*
X71505585Y-114917970D01*
X73024466Y-114917970D01*
X73025156Y-114924535D01*
X73035668Y-115024547D01*
X73044428Y-115107898D01*
X73103443Y-115289526D01*
X73198930Y-115454914D01*
X73203348Y-115459821D01*
X73203349Y-115459822D01*
X73295726Y-115562417D01*
X73326717Y-115596836D01*
X73481218Y-115709088D01*
X73487246Y-115711772D01*
X73487248Y-115711773D01*
X73649651Y-115784079D01*
X73655682Y-115786764D01*
X73749082Y-115806617D01*
X73836026Y-115825098D01*
X73836031Y-115825098D01*
X73842483Y-115826470D01*
X74033457Y-115826470D01*
X74039909Y-115825098D01*
X74039914Y-115825098D01*
X74126858Y-115806617D01*
X74220258Y-115786764D01*
X74226289Y-115784079D01*
X74388692Y-115711773D01*
X74388694Y-115711772D01*
X74394722Y-115709088D01*
X74549223Y-115596836D01*
X74580214Y-115562417D01*
X74672591Y-115459822D01*
X74672592Y-115459821D01*
X74677010Y-115454914D01*
X74772497Y-115289526D01*
X74831512Y-115107898D01*
X74840273Y-115024547D01*
X74850784Y-114924535D01*
X74851474Y-114917970D01*
X74839239Y-114801562D01*
X74832202Y-114734605D01*
X74832202Y-114734603D01*
X74831512Y-114728042D01*
X74772497Y-114546414D01*
X74677010Y-114381026D01*
X74672233Y-114375720D01*
X74553645Y-114244015D01*
X74553644Y-114244014D01*
X74549223Y-114239104D01*
X74442400Y-114161492D01*
X74400064Y-114130733D01*
X74400063Y-114130732D01*
X74394722Y-114126852D01*
X74388694Y-114124168D01*
X74388692Y-114124167D01*
X74226289Y-114051861D01*
X74226288Y-114051861D01*
X74220258Y-114049176D01*
X74126857Y-114029323D01*
X74039914Y-114010842D01*
X74039909Y-114010842D01*
X74033457Y-114009470D01*
X73842483Y-114009470D01*
X73836031Y-114010842D01*
X73836026Y-114010842D01*
X73749082Y-114029323D01*
X73655682Y-114049176D01*
X73649652Y-114051861D01*
X73649651Y-114051861D01*
X73487248Y-114124167D01*
X73487246Y-114124168D01*
X73481218Y-114126852D01*
X73475877Y-114130732D01*
X73475876Y-114130733D01*
X73433540Y-114161492D01*
X73326717Y-114239104D01*
X73322296Y-114244014D01*
X73322295Y-114244015D01*
X73203708Y-114375720D01*
X73198930Y-114381026D01*
X73103443Y-114546414D01*
X73044428Y-114728042D01*
X73043738Y-114734603D01*
X73043738Y-114734605D01*
X73036701Y-114801562D01*
X73024466Y-114917970D01*
X71505585Y-114917970D01*
X71505685Y-113962299D01*
X77165996Y-113962299D01*
X77185958Y-114152227D01*
X77244973Y-114333855D01*
X77340460Y-114499243D01*
X77344878Y-114504150D01*
X77344879Y-114504151D01*
X77417289Y-114584570D01*
X77468247Y-114641165D01*
X77567343Y-114713163D01*
X77596856Y-114734605D01*
X77622748Y-114753417D01*
X77628776Y-114756101D01*
X77628778Y-114756102D01*
X77791181Y-114828408D01*
X77797212Y-114831093D01*
X77890612Y-114850946D01*
X77977556Y-114869427D01*
X77977561Y-114869427D01*
X77984013Y-114870799D01*
X78174987Y-114870799D01*
X78181439Y-114869427D01*
X78181444Y-114869427D01*
X78268388Y-114850946D01*
X78361788Y-114831093D01*
X78367819Y-114828408D01*
X78530222Y-114756102D01*
X78530224Y-114756101D01*
X78536252Y-114753417D01*
X78562145Y-114734605D01*
X78591657Y-114713163D01*
X78690753Y-114641165D01*
X78741711Y-114584570D01*
X78814121Y-114504151D01*
X78814122Y-114504150D01*
X78818540Y-114499243D01*
X78914027Y-114333855D01*
X78973042Y-114152227D01*
X78993004Y-113962299D01*
X78987731Y-113912131D01*
X78973732Y-113778934D01*
X78973732Y-113778932D01*
X78973042Y-113772371D01*
X78914027Y-113590743D01*
X78899114Y-113564912D01*
X78856533Y-113491161D01*
X78818540Y-113425355D01*
X78792591Y-113396535D01*
X78695175Y-113288344D01*
X78695174Y-113288343D01*
X78690753Y-113283433D01*
X78578355Y-113201771D01*
X78541594Y-113175062D01*
X78541593Y-113175061D01*
X78536252Y-113171181D01*
X78530224Y-113168497D01*
X78530222Y-113168496D01*
X78367819Y-113096190D01*
X78367818Y-113096190D01*
X78361788Y-113093505D01*
X78268387Y-113073652D01*
X78181444Y-113055171D01*
X78181439Y-113055171D01*
X78174987Y-113053799D01*
X77984013Y-113053799D01*
X77977561Y-113055171D01*
X77977556Y-113055171D01*
X77890612Y-113073652D01*
X77797212Y-113093505D01*
X77791182Y-113096190D01*
X77791181Y-113096190D01*
X77628778Y-113168496D01*
X77628776Y-113168497D01*
X77622748Y-113171181D01*
X77617407Y-113175061D01*
X77617406Y-113175062D01*
X77580645Y-113201771D01*
X77468247Y-113283433D01*
X77463826Y-113288343D01*
X77463825Y-113288344D01*
X77366410Y-113396535D01*
X77340460Y-113425355D01*
X77302467Y-113491161D01*
X77259887Y-113564912D01*
X77244973Y-113590743D01*
X77185958Y-113772371D01*
X77185268Y-113778932D01*
X77185268Y-113778934D01*
X77171269Y-113912131D01*
X77165996Y-113962299D01*
X71505685Y-113962299D01*
X71508209Y-89797386D01*
X72567759Y-89797386D01*
X72575216Y-89807753D01*
X72814935Y-90001874D01*
X72820272Y-90005751D01*
X73140685Y-90213830D01*
X73146394Y-90217127D01*
X73486811Y-90390578D01*
X73492836Y-90393260D01*
X73849502Y-90530171D01*
X73855784Y-90532212D01*
X74224816Y-90631094D01*
X74231266Y-90632465D01*
X74608629Y-90692234D01*
X74615167Y-90692920D01*
X74996699Y-90712916D01*
X75003301Y-90712916D01*
X75384833Y-90692920D01*
X75391371Y-90692234D01*
X75768734Y-90632465D01*
X75775184Y-90631094D01*
X76144216Y-90532212D01*
X76150498Y-90530171D01*
X76507164Y-90393260D01*
X76513189Y-90390578D01*
X76853606Y-90217127D01*
X76859315Y-90213830D01*
X77179728Y-90005751D01*
X77185065Y-90001874D01*
X77423835Y-89808522D01*
X77432300Y-89796267D01*
X77425966Y-89785176D01*
X75012812Y-87372022D01*
X74998868Y-87364408D01*
X74997035Y-87364539D01*
X74990420Y-87368790D01*
X72574900Y-89784310D01*
X72567759Y-89797386D01*
X71508209Y-89797386D01*
X71508309Y-88839557D01*
X71528318Y-88771438D01*
X71581979Y-88724951D01*
X71652254Y-88714854D01*
X71716831Y-88744354D01*
X71746576Y-88782367D01*
X71782872Y-88853603D01*
X71786169Y-88859313D01*
X71994253Y-89179735D01*
X71998123Y-89185061D01*
X72191478Y-89423835D01*
X72203733Y-89432300D01*
X72214824Y-89425966D01*
X74639658Y-87001132D01*
X75364408Y-87001132D01*
X75364539Y-87002965D01*
X75368790Y-87009580D01*
X77784310Y-89425100D01*
X77797386Y-89432241D01*
X77807753Y-89424784D01*
X78001877Y-89185061D01*
X78005747Y-89179735D01*
X78213831Y-88859313D01*
X78217128Y-88853603D01*
X78218964Y-88850000D01*
X78636496Y-88850000D01*
X78656458Y-89039928D01*
X78715473Y-89221556D01*
X78810960Y-89386944D01*
X78815378Y-89391851D01*
X78815379Y-89391852D01*
X78851799Y-89432300D01*
X78938747Y-89528866D01*
X79093248Y-89641118D01*
X79099276Y-89643802D01*
X79099278Y-89643803D01*
X79146396Y-89664781D01*
X79267712Y-89718794D01*
X79361113Y-89738647D01*
X79448056Y-89757128D01*
X79448061Y-89757128D01*
X79454513Y-89758500D01*
X79645487Y-89758500D01*
X79651939Y-89757128D01*
X79651944Y-89757128D01*
X79738887Y-89738647D01*
X79832288Y-89718794D01*
X79953604Y-89664781D01*
X80000722Y-89643803D01*
X80000724Y-89643802D01*
X80006752Y-89641118D01*
X80161253Y-89528866D01*
X80193908Y-89492599D01*
X81213700Y-89492599D01*
X81228583Y-89659362D01*
X81287863Y-89876051D01*
X81384578Y-90078818D01*
X81515671Y-90261254D01*
X81519703Y-90265161D01*
X81672562Y-90413292D01*
X81676999Y-90417592D01*
X81863462Y-90542890D01*
X82069167Y-90633188D01*
X82074618Y-90634497D01*
X82074622Y-90634498D01*
X82282154Y-90684322D01*
X82287611Y-90685632D01*
X82371675Y-90690479D01*
X82506283Y-90698240D01*
X82506286Y-90698240D01*
X82511890Y-90698563D01*
X82734915Y-90671575D01*
X82949635Y-90605518D01*
X82954615Y-90602948D01*
X82954619Y-90602946D01*
X83144281Y-90505054D01*
X83144282Y-90505054D01*
X83149264Y-90502482D01*
X83327492Y-90365723D01*
X83478685Y-90199564D01*
X83502649Y-90161363D01*
X83595085Y-90014005D01*
X83598064Y-90009256D01*
X83625414Y-89941222D01*
X83669378Y-89885480D01*
X83736503Y-89862355D01*
X83805474Y-89879192D01*
X83856045Y-89933976D01*
X83922597Y-90073503D01*
X83928282Y-90083116D01*
X84052775Y-90256367D01*
X84060083Y-90264833D01*
X84213282Y-90413292D01*
X84221979Y-90420335D01*
X84399044Y-90539319D01*
X84408842Y-90544705D01*
X84604190Y-90630457D01*
X84614782Y-90634022D01*
X84740584Y-90664224D01*
X84754670Y-90663519D01*
X84758200Y-90654640D01*
X84758200Y-90654011D01*
X85266200Y-90654011D01*
X85270305Y-90667993D01*
X85279928Y-90669486D01*
X85280173Y-90669434D01*
X85484083Y-90606702D01*
X85494429Y-90602481D01*
X85684014Y-90504629D01*
X85693445Y-90498643D01*
X85862701Y-90368768D01*
X85870924Y-90361207D01*
X86014512Y-90203406D01*
X86021264Y-90194511D01*
X86060963Y-90131225D01*
X86114107Y-90084148D01*
X86184266Y-90073276D01*
X86249165Y-90102060D01*
X86288200Y-90161363D01*
X86293700Y-90198182D01*
X86293700Y-90233734D01*
X86300455Y-90295916D01*
X86351585Y-90432305D01*
X86438939Y-90548861D01*
X86555495Y-90636215D01*
X86691884Y-90687345D01*
X86754066Y-90694100D01*
X88350334Y-90694100D01*
X88412516Y-90687345D01*
X88548905Y-90636215D01*
X88665461Y-90548861D01*
X88752815Y-90432305D01*
X88803945Y-90295916D01*
X88810700Y-90233734D01*
X88810700Y-87637466D01*
X88803945Y-87575284D01*
X88752815Y-87438895D01*
X88665461Y-87322339D01*
X88548905Y-87234985D01*
X88412516Y-87183855D01*
X88350334Y-87177100D01*
X86754066Y-87177100D01*
X86691884Y-87183855D01*
X86555495Y-87234985D01*
X86438939Y-87322339D01*
X86351585Y-87438895D01*
X86300455Y-87575284D01*
X86293700Y-87637466D01*
X86293700Y-87671777D01*
X86273698Y-87739898D01*
X86220042Y-87786391D01*
X86149768Y-87796495D01*
X86085188Y-87767001D01*
X86065377Y-87745303D01*
X85971625Y-87614833D01*
X85964317Y-87606367D01*
X85811118Y-87457908D01*
X85802421Y-87450865D01*
X85625356Y-87331881D01*
X85615558Y-87326495D01*
X85420210Y-87240743D01*
X85409618Y-87237178D01*
X85283816Y-87206976D01*
X85269730Y-87207681D01*
X85266200Y-87216560D01*
X85266200Y-90654011D01*
X84758200Y-90654011D01*
X84758200Y-87217189D01*
X84754095Y-87203207D01*
X84744472Y-87201714D01*
X84744227Y-87201766D01*
X84540317Y-87264498D01*
X84529971Y-87268719D01*
X84340386Y-87366571D01*
X84330955Y-87372557D01*
X84161699Y-87502432D01*
X84153476Y-87509993D01*
X84009888Y-87667794D01*
X84003133Y-87676694D01*
X83889766Y-87857415D01*
X83884689Y-87867381D01*
X83859533Y-87929958D01*
X83815567Y-87985703D01*
X83748442Y-88008828D01*
X83679471Y-87991991D01*
X83628900Y-87937207D01*
X83625442Y-87929958D01*
X83559822Y-87792382D01*
X83428729Y-87609946D01*
X83320290Y-87504861D01*
X83271429Y-87457511D01*
X83271426Y-87457509D01*
X83267401Y-87453608D01*
X83080938Y-87328310D01*
X82875233Y-87238012D01*
X82869782Y-87236703D01*
X82869778Y-87236702D01*
X82662246Y-87186878D01*
X82662245Y-87186878D01*
X82656789Y-87185568D01*
X82572725Y-87180721D01*
X82438117Y-87172960D01*
X82438114Y-87172960D01*
X82432510Y-87172637D01*
X82209485Y-87199625D01*
X81994765Y-87265682D01*
X81989785Y-87268252D01*
X81989781Y-87268254D01*
X81803486Y-87364408D01*
X81795136Y-87368718D01*
X81616908Y-87505477D01*
X81465715Y-87671636D01*
X81462737Y-87676383D01*
X81462735Y-87676386D01*
X81373825Y-87818123D01*
X81346336Y-87861944D01*
X81262544Y-88070383D01*
X81216987Y-88290367D01*
X81213700Y-88347375D01*
X81213700Y-89492599D01*
X80193908Y-89492599D01*
X80248201Y-89432300D01*
X80284621Y-89391852D01*
X80284622Y-89391851D01*
X80289040Y-89386944D01*
X80384527Y-89221556D01*
X80443542Y-89039928D01*
X80463504Y-88850000D01*
X80457506Y-88792934D01*
X80444232Y-88666635D01*
X80444232Y-88666633D01*
X80443542Y-88660072D01*
X80384527Y-88478444D01*
X80289040Y-88313056D01*
X80272764Y-88294979D01*
X80165675Y-88176045D01*
X80165674Y-88176044D01*
X80161253Y-88171134D01*
X80022582Y-88070383D01*
X80012094Y-88062763D01*
X80012093Y-88062762D01*
X80006752Y-88058882D01*
X80000724Y-88056198D01*
X80000722Y-88056197D01*
X79838319Y-87983891D01*
X79838318Y-87983891D01*
X79832288Y-87981206D01*
X79738887Y-87961353D01*
X79651944Y-87942872D01*
X79651939Y-87942872D01*
X79645487Y-87941500D01*
X79454513Y-87941500D01*
X79448061Y-87942872D01*
X79448056Y-87942872D01*
X79361113Y-87961353D01*
X79267712Y-87981206D01*
X79261682Y-87983891D01*
X79261681Y-87983891D01*
X79099278Y-88056197D01*
X79099276Y-88056198D01*
X79093248Y-88058882D01*
X79087907Y-88062762D01*
X79087906Y-88062763D01*
X79077418Y-88070383D01*
X78938747Y-88171134D01*
X78934326Y-88176044D01*
X78934325Y-88176045D01*
X78827237Y-88294979D01*
X78810960Y-88313056D01*
X78715473Y-88478444D01*
X78656458Y-88660072D01*
X78655768Y-88666633D01*
X78655768Y-88666635D01*
X78642494Y-88792934D01*
X78636496Y-88850000D01*
X78218964Y-88850000D01*
X78390578Y-88513189D01*
X78393260Y-88507164D01*
X78530171Y-88150498D01*
X78532212Y-88144216D01*
X78631094Y-87775184D01*
X78632465Y-87768734D01*
X78692234Y-87391371D01*
X78692920Y-87384833D01*
X78712916Y-87003301D01*
X78712916Y-86996699D01*
X78692920Y-86615167D01*
X78692234Y-86608629D01*
X78632465Y-86231266D01*
X78631094Y-86224816D01*
X78532212Y-85855784D01*
X78530171Y-85849502D01*
X78393260Y-85492836D01*
X78390578Y-85486811D01*
X78217128Y-85146397D01*
X78213831Y-85140687D01*
X78005747Y-84820265D01*
X78001877Y-84814939D01*
X77808522Y-84576165D01*
X77796267Y-84567700D01*
X77785176Y-84574034D01*
X75372022Y-86987188D01*
X75364408Y-87001132D01*
X74639658Y-87001132D01*
X77425100Y-84215690D01*
X77432241Y-84202614D01*
X77424784Y-84192247D01*
X77185065Y-83998126D01*
X77179728Y-83994249D01*
X76859315Y-83786170D01*
X76853606Y-83782874D01*
X76782743Y-83746767D01*
X76731128Y-83698019D01*
X76714062Y-83629104D01*
X76736963Y-83561902D01*
X76792560Y-83517750D01*
X76839946Y-83508500D01*
X78716994Y-83508500D01*
X78785115Y-83528502D01*
G37*
G04 #@! TD.AperFunction*
G04 #@! TA.AperFunction,Conductor*
G36*
X111496298Y-126757264D02*
G01*
X111541361Y-126786225D01*
X112703845Y-127948709D01*
X112737871Y-128011021D01*
X112732806Y-128081836D01*
X112703845Y-128126899D01*
X112522825Y-128307919D01*
X112460513Y-128341945D01*
X112389698Y-128336880D01*
X112344635Y-128307919D01*
X111182151Y-127145435D01*
X111148125Y-127083123D01*
X111153190Y-127012308D01*
X111182151Y-126967245D01*
X111363171Y-126786225D01*
X111425483Y-126752199D01*
X111496298Y-126757264D01*
G37*
G04 #@! TD.AperFunction*
G04 #@! TA.AperFunction,Conductor*
G36*
X73833650Y-126756749D02*
G01*
X73878713Y-126785710D01*
X74059733Y-126966730D01*
X74093759Y-127029042D01*
X74088694Y-127099857D01*
X74059733Y-127144920D01*
X72897249Y-128307404D01*
X72834937Y-128341430D01*
X72764122Y-128336365D01*
X72719059Y-128307404D01*
X72538039Y-128126384D01*
X72504013Y-128064072D01*
X72509078Y-127993257D01*
X72538039Y-127948194D01*
X73700523Y-126785710D01*
X73762835Y-126751684D01*
X73833650Y-126756749D01*
G37*
G04 #@! TD.AperFunction*
G04 #@! TA.AperFunction,Conductor*
G36*
X72852186Y-123362637D02*
G01*
X72897249Y-123391598D01*
X74059733Y-124554082D01*
X74093759Y-124616394D01*
X74088694Y-124687209D01*
X74059733Y-124732272D01*
X73878713Y-124913292D01*
X73816401Y-124947318D01*
X73745586Y-124942253D01*
X73700523Y-124913292D01*
X72538039Y-123750808D01*
X72504013Y-123688496D01*
X72509078Y-123617681D01*
X72538039Y-123572618D01*
X72719059Y-123391598D01*
X72781371Y-123357572D01*
X72852186Y-123362637D01*
G37*
G04 #@! TD.AperFunction*
G04 #@! TA.AperFunction,Conductor*
G36*
X72856244Y-84513136D02*
G01*
X72901307Y-84542097D01*
X74063791Y-85704581D01*
X74097817Y-85766893D01*
X74092752Y-85837708D01*
X74063791Y-85882771D01*
X73882771Y-86063791D01*
X73820459Y-86097817D01*
X73749644Y-86092752D01*
X73704581Y-86063791D01*
X72542097Y-84901307D01*
X72508071Y-84838995D01*
X72513136Y-84768180D01*
X72542097Y-84723117D01*
X72723117Y-84542097D01*
X72785429Y-84508071D01*
X72856244Y-84513136D01*
G37*
G04 #@! TD.AperFunction*
G04 #@! TA.AperFunction,Conductor*
G36*
X112481820Y-84513136D02*
G01*
X112526883Y-84542097D01*
X112707903Y-84723117D01*
X112741929Y-84785429D01*
X112736864Y-84856244D01*
X112707903Y-84901307D01*
X111545419Y-86063791D01*
X111483107Y-86097817D01*
X111412292Y-86092752D01*
X111367229Y-86063791D01*
X111186209Y-85882771D01*
X111152183Y-85820459D01*
X111157248Y-85749644D01*
X111186209Y-85704581D01*
X112348693Y-84542097D01*
X112411005Y-84508071D01*
X112481820Y-84513136D01*
G37*
G04 #@! TD.AperFunction*
M02*
