M48
; DRILL file {KiCad (6.0.10)} date Fri Jul  7 16:54:29 2023
; FORMAT={-:-/ absolute / metric / decimal}
; #@! TF.CreationDate,2023-07-07T16:54:29+02:00
; #@! TF.GenerationSoftware,Kicad,Pcbnew,(6.0.10)
; #@! TF.FileFunction,Plated,1,4,PTH
FMAT,2
METRIC
; #@! TA.AperFunction,Plated,PTH,ViaDrill
T1C0.400
; #@! TA.AperFunction,Plated,PTH,ComponentDrill
T2C0.500
; #@! TA.AperFunction,Plated,PTH,ComponentDrill
T3C0.750
; #@! TA.AperFunction,Plated,PTH,ComponentDrill
T4C0.800
; #@! TA.AperFunction,Plated,PTH,ComponentDrill
T5C1.000
; #@! TA.AperFunction,Plated,PTH,ComponentDrill
T6C1.300
; #@! TA.AperFunction,Plated,PTH,ComponentDrill
T7C3.200
%
G90
G05
T1
X72.225Y-117.55
X73.05Y-94.8
X73.938Y-114.918
X74.25Y-95.65
X76.5Y-97.05
X77.95Y-94.4
X78.079Y-113.962
X78.079Y-115.05
X78.275Y-107.45
X78.4Y-97.3
X79.55Y-88.85
X80.45Y-94.6
X80.6Y-104.2
X81.35Y-124.15
X81.6Y-126.9
X81.85Y-106.45
X81.95Y-109.15
X82.2Y-119.75
X83.25Y-109.25
X83.25Y-115.1
X84.351Y-112.662
X87.05Y-106.75
X87.5Y-114.45
X87.6Y-112.4
X88.85Y-113.65
X89.2Y-128.2
X89.95Y-91.95
X90.15Y-123.7
X90.45Y-105.85
X90.45Y-107.25
X91.85Y-116.05
X91.95Y-112.45
X92.376Y-91.922
X92.95Y-88.25
X97.85Y-97.05
X99.45Y-84.65
X102.75Y-126.05
X104.75Y-98.35
X104.75Y-105.65
X104.75Y-125.95
X104.992Y-112.53
X105.255Y-120.306
T2
X72.596Y-125.85
X72.6Y-87.0
X73.299Y-124.152
X73.299Y-127.547
X73.303Y-85.303
X73.303Y-88.697
X74.996Y-123.45
X74.996Y-128.25
X75.0Y-84.6
X75.0Y-89.4
X76.693Y-124.152
X76.693Y-127.547
X76.697Y-85.303
X76.697Y-88.697
X77.396Y-125.85
X77.4Y-87.0
X107.846Y-125.85
X107.85Y-87.0
X108.549Y-124.153
X108.549Y-127.547
X108.553Y-85.303
X108.553Y-88.697
X110.246Y-123.45
X110.246Y-128.25
X110.25Y-84.6
X110.25Y-89.4
X111.943Y-124.153
X111.943Y-127.547
X111.947Y-85.303
X111.947Y-88.697
X112.646Y-125.85
X112.65Y-87.0
T3
X102.8Y-94.05
X102.8Y-96.05
X102.8Y-98.05
T4
X73.95Y-119.65
X75.95Y-119.65
X77.95Y-119.65
X79.95Y-119.65
T5
X82.472Y-88.936
X85.012Y-88.936
X87.552Y-88.936
X94.325Y-114.84
X94.325Y-117.38
X94.325Y-119.92
X94.325Y-122.46
X94.325Y-125.0
X97.95Y-114.81
X97.95Y-117.35
X97.95Y-119.89
X97.95Y-122.43
X97.95Y-124.97
X102.075Y-102.85
X102.075Y-105.39
X102.075Y-107.93
X102.075Y-110.47
T6
X107.457Y-92.564
X107.457Y-96.548
X107.457Y-100.532
X107.457Y-104.515
X107.457Y-108.499
X107.457Y-112.483
X107.457Y-116.466
X107.457Y-120.45
X112.457Y-92.564
X112.457Y-96.548
X112.457Y-100.532
X112.457Y-104.515
X112.457Y-108.499
X112.457Y-112.483
X112.457Y-116.466
X112.457Y-120.45
T7
X74.996Y-125.85
X75.0Y-87.0
X110.246Y-125.85
X110.25Y-87.0
T0
M30
