%TF.GenerationSoftware,KiCad,Pcbnew,(6.0.10)*%
%TF.CreationDate,2023-07-07T16:54:31+02:00*%
%TF.ProjectId,SprinklerBoardESP32V3,53707269-6e6b-46c6-9572-426f61726445,rev?*%
%TF.SameCoordinates,Original*%
%TF.FileFunction,Drillmap*%
%TF.FilePolarity,Positive*%
%FSLAX45Y45*%
G04 Gerber Fmt 4.5, Leading zero omitted, Abs format (unit mm)*
G04 Created by KiCad (PCBNEW (6.0.10)) date 2023-07-07 16:54:31*
%MOMM*%
%LPD*%
G01*
G04 APERTURE LIST*
%ADD10C,0.100000*%
%ADD11C,0.200000*%
G04 APERTURE END LIST*
D10*
X11024594Y-13010002D02*
G75*
G03*
X11424594Y-12610002I12J399988D01*
G01*
X11425000Y-8700000D02*
G75*
G03*
X11025000Y-8300000I-400000J0D01*
G01*
X7500000Y-8300000D02*
X11025000Y-8300000D01*
X8037600Y-8417600D02*
G75*
G03*
X8037600Y-8417600I-57600J0D01*
G01*
X7500000Y-8300000D02*
G75*
G03*
X7100000Y-8700000I0J-400000D01*
G01*
X7287600Y-12205000D02*
G75*
G03*
X7287600Y-12205000I-57600J0D01*
G01*
X7099598Y-12585002D02*
G75*
G03*
X7499594Y-12985002I400002J2D01*
G01*
X11424594Y-12610002D02*
X11425000Y-8700000D01*
X11024594Y-13010002D02*
X7499594Y-12985002D01*
X10582600Y-8415000D02*
G75*
G03*
X10582600Y-8415000I-57600J0D01*
G01*
X7100000Y-8700000D02*
X7099594Y-12585002D01*
D11*
X7352213Y-13325478D02*
X7352213Y-13125478D01*
X7399832Y-13125478D01*
X7428404Y-13135002D01*
X7447451Y-13154049D01*
X7456975Y-13173097D01*
X7466499Y-13211192D01*
X7466499Y-13239763D01*
X7456975Y-13277859D01*
X7447451Y-13296906D01*
X7428404Y-13315954D01*
X7399832Y-13325478D01*
X7352213Y-13325478D01*
X7552213Y-13325478D02*
X7552213Y-13192144D01*
X7552213Y-13230240D02*
X7561737Y-13211192D01*
X7571261Y-13201668D01*
X7590308Y-13192144D01*
X7609356Y-13192144D01*
X7676023Y-13325478D02*
X7676023Y-13192144D01*
X7676023Y-13125478D02*
X7666499Y-13135002D01*
X7676023Y-13144525D01*
X7685546Y-13135002D01*
X7676023Y-13125478D01*
X7676023Y-13144525D01*
X7799832Y-13325478D02*
X7780785Y-13315954D01*
X7771261Y-13296906D01*
X7771261Y-13125478D01*
X7904594Y-13325478D02*
X7885546Y-13315954D01*
X7876023Y-13296906D01*
X7876023Y-13125478D01*
X8133166Y-13325478D02*
X8133166Y-13125478D01*
X8199832Y-13268335D01*
X8266499Y-13125478D01*
X8266499Y-13325478D01*
X8447451Y-13325478D02*
X8447451Y-13220716D01*
X8437928Y-13201668D01*
X8418880Y-13192144D01*
X8380785Y-13192144D01*
X8361737Y-13201668D01*
X8447451Y-13315954D02*
X8428404Y-13325478D01*
X8380785Y-13325478D01*
X8361737Y-13315954D01*
X8352213Y-13296906D01*
X8352213Y-13277859D01*
X8361737Y-13258811D01*
X8380785Y-13249287D01*
X8428404Y-13249287D01*
X8447451Y-13239763D01*
X8542689Y-13192144D02*
X8542689Y-13392144D01*
X8542689Y-13201668D02*
X8561737Y-13192144D01*
X8599832Y-13192144D01*
X8618880Y-13201668D01*
X8628404Y-13211192D01*
X8637928Y-13230240D01*
X8637928Y-13287382D01*
X8628404Y-13306430D01*
X8618880Y-13315954D01*
X8599832Y-13325478D01*
X8561737Y-13325478D01*
X8542689Y-13315954D01*
X8723642Y-13306430D02*
X8733166Y-13315954D01*
X8723642Y-13325478D01*
X8714118Y-13315954D01*
X8723642Y-13306430D01*
X8723642Y-13325478D01*
X8723642Y-13201668D02*
X8733166Y-13211192D01*
X8723642Y-13220716D01*
X8714118Y-13211192D01*
X8723642Y-13201668D01*
X8723642Y-13220716D01*
M02*
