%TF.GenerationSoftware,KiCad,Pcbnew,(6.0.10)*%
%TF.CreationDate,2023-07-07T16:54:31+02:00*%
%TF.ProjectId,SprinklerBoardESP32V3,53707269-6e6b-46c6-9572-426f61726445,rev?*%
%TF.SameCoordinates,Original*%
%TF.FileFunction,Drillmap*%
%TF.FilePolarity,Positive*%
%FSLAX45Y45*%
G04 Gerber Fmt 4.5, Leading zero omitted, Abs format (unit mm)*
G04 Created by KiCad (PCBNEW (6.0.10)) date 2023-07-07 16:54:31*
%MOMM*%
%LPD*%
G01*
G04 APERTURE LIST*
%ADD10C,0.100000*%
%ADD11C,0.200000*%
%ADD12C,0.040000*%
%ADD13C,0.050000*%
%ADD14C,0.075000*%
%ADD15C,0.080000*%
%ADD16C,0.130000*%
%ADD17C,0.320000*%
G04 APERTURE END LIST*
D10*
X11024594Y-13010002D02*
G75*
G03*
X11424594Y-12610002I12J399988D01*
G01*
X11425000Y-8700000D02*
G75*
G03*
X11025000Y-8300000I-400000J0D01*
G01*
X7500000Y-8300000D02*
X11025000Y-8300000D01*
X8037600Y-8417600D02*
G75*
G03*
X8037600Y-8417600I-57600J0D01*
G01*
X7500000Y-8300000D02*
G75*
G03*
X7100000Y-8700000I0J-400000D01*
G01*
X7287600Y-12205000D02*
G75*
G03*
X7287600Y-12205000I-57600J0D01*
G01*
X7099598Y-12585002D02*
G75*
G03*
X7499594Y-12985002I400002J2D01*
G01*
X11424594Y-12610002D02*
X11425000Y-8700000D01*
X11024594Y-13010002D02*
X7499594Y-12985002D01*
X10582600Y-8415000D02*
G75*
G03*
X10582600Y-8415000I-57600J0D01*
G01*
X7100000Y-8700000D02*
X7099594Y-12585002D01*
D11*
D12*
X7202550Y-11735000D02*
X7242550Y-11775000D01*
X7242550Y-11735000D02*
X7202550Y-11775000D01*
X7285000Y-9460000D02*
X7325000Y-9500000D01*
X7325000Y-9460000D02*
X7285000Y-9500000D01*
X7373797Y-11471797D02*
X7413797Y-11511797D01*
X7413797Y-11471797D02*
X7373797Y-11511797D01*
X7405000Y-9545000D02*
X7445000Y-9585000D01*
X7445000Y-9545000D02*
X7405000Y-9585000D01*
X7630000Y-9685000D02*
X7670000Y-9725000D01*
X7670000Y-9685000D02*
X7630000Y-9725000D01*
X7775000Y-9420000D02*
X7815000Y-9460000D01*
X7815000Y-9420000D02*
X7775000Y-9460000D01*
X7787950Y-11376230D02*
X7827950Y-11416230D01*
X7827950Y-11376230D02*
X7787950Y-11416230D01*
X7787950Y-11485000D02*
X7827950Y-11525000D01*
X7827950Y-11485000D02*
X7787950Y-11525000D01*
X7807450Y-10725000D02*
X7847450Y-10765000D01*
X7847450Y-10725000D02*
X7807450Y-10765000D01*
X7820000Y-9710000D02*
X7860000Y-9750000D01*
X7860000Y-9710000D02*
X7820000Y-9750000D01*
X7935000Y-8865000D02*
X7975000Y-8905000D01*
X7975000Y-8865000D02*
X7935000Y-8905000D01*
X8025000Y-9440000D02*
X8065000Y-9480000D01*
X8065000Y-9440000D02*
X8025000Y-9480000D01*
X8040000Y-10400000D02*
X8080000Y-10440000D01*
X8080000Y-10400000D02*
X8040000Y-10440000D01*
X8115000Y-12395000D02*
X8155000Y-12435000D01*
X8155000Y-12395000D02*
X8115000Y-12435000D01*
X8140000Y-12670000D02*
X8180000Y-12710000D01*
X8180000Y-12670000D02*
X8140000Y-12710000D01*
X8165000Y-10625000D02*
X8205000Y-10665000D01*
X8205000Y-10625000D02*
X8165000Y-10665000D01*
X8175000Y-10895000D02*
X8215000Y-10935000D01*
X8215000Y-10895000D02*
X8175000Y-10935000D01*
X8200000Y-11955000D02*
X8240000Y-11995000D01*
X8240000Y-11955000D02*
X8200000Y-11995000D01*
X8305000Y-10905000D02*
X8345000Y-10945000D01*
X8345000Y-10905000D02*
X8305000Y-10945000D01*
X8305000Y-11490000D02*
X8345000Y-11530000D01*
X8345000Y-11490000D02*
X8305000Y-11530000D01*
X8415100Y-11246232D02*
X8455100Y-11286232D01*
X8455100Y-11246232D02*
X8415100Y-11286232D01*
X8685000Y-10655000D02*
X8725000Y-10695000D01*
X8725000Y-10655000D02*
X8685000Y-10695000D01*
X8730000Y-11425000D02*
X8770000Y-11465000D01*
X8770000Y-11425000D02*
X8730000Y-11465000D01*
X8740000Y-11220000D02*
X8780000Y-11260000D01*
X8780000Y-11220000D02*
X8740000Y-11260000D01*
X8865000Y-11345000D02*
X8905000Y-11385000D01*
X8905000Y-11345000D02*
X8865000Y-11385000D01*
X8900000Y-12800000D02*
X8940000Y-12840000D01*
X8940000Y-12800000D02*
X8900000Y-12840000D01*
X8975000Y-9175000D02*
X9015000Y-9215000D01*
X9015000Y-9175000D02*
X8975000Y-9215000D01*
X8995000Y-12350000D02*
X9035000Y-12390000D01*
X9035000Y-12350000D02*
X8995000Y-12390000D01*
X9025000Y-10565000D02*
X9065000Y-10605000D01*
X9065000Y-10565000D02*
X9025000Y-10605000D01*
X9025000Y-10705000D02*
X9065000Y-10745000D01*
X9065000Y-10705000D02*
X9025000Y-10745000D01*
X9165000Y-11585000D02*
X9205000Y-11625000D01*
X9205000Y-11585000D02*
X9165000Y-11625000D01*
X9175000Y-11225000D02*
X9215000Y-11265000D01*
X9215000Y-11225000D02*
X9175000Y-11265000D01*
X9217550Y-9172154D02*
X9257550Y-9212154D01*
X9257550Y-9172154D02*
X9217550Y-9212154D01*
X9275000Y-8805000D02*
X9315000Y-8845000D01*
X9315000Y-8805000D02*
X9275000Y-8845000D01*
X9765000Y-9685000D02*
X9805000Y-9725000D01*
X9805000Y-9685000D02*
X9765000Y-9725000D01*
X9925000Y-8445000D02*
X9965000Y-8485000D01*
X9965000Y-8445000D02*
X9925000Y-8485000D01*
X10255000Y-12585000D02*
X10295000Y-12625000D01*
X10295000Y-12585000D02*
X10255000Y-12625000D01*
X10455000Y-9815000D02*
X10495000Y-9855000D01*
X10495000Y-9815000D02*
X10455000Y-9855000D01*
X10455000Y-10545000D02*
X10495000Y-10585000D01*
X10495000Y-10545000D02*
X10455000Y-10585000D01*
X10455000Y-12575000D02*
X10495000Y-12615000D01*
X10495000Y-12575000D02*
X10455000Y-12615000D01*
X10479194Y-11233043D02*
X10519194Y-11273043D01*
X10519194Y-11233043D02*
X10479194Y-11273043D01*
X10505472Y-12010604D02*
X10545472Y-12050604D01*
X10545472Y-12010604D02*
X10505472Y-12050604D01*
D13*
X7284594Y-12584950D02*
G75*
G03*
X7284594Y-12584950I-25000J0D01*
G01*
X7285000Y-8700000D02*
G75*
G03*
X7285000Y-8700000I-25000J0D01*
G01*
X7354889Y-12415244D02*
G75*
G03*
X7354889Y-12415244I-25000J0D01*
G01*
X7354889Y-12754656D02*
G75*
G03*
X7354889Y-12754656I-25000J0D01*
G01*
X7355294Y-8530294D02*
G75*
G03*
X7355294Y-8530294I-25000J0D01*
G01*
X7355294Y-8869706D02*
G75*
G03*
X7355294Y-8869706I-25000J0D01*
G01*
X7524594Y-12344950D02*
G75*
G03*
X7524594Y-12344950I-25000J0D01*
G01*
X7524594Y-12824950D02*
G75*
G03*
X7524594Y-12824950I-25000J0D01*
G01*
X7525000Y-8460000D02*
G75*
G03*
X7525000Y-8460000I-25000J0D01*
G01*
X7525000Y-8940000D02*
G75*
G03*
X7525000Y-8940000I-25000J0D01*
G01*
X7694300Y-12415244D02*
G75*
G03*
X7694300Y-12415244I-25000J0D01*
G01*
X7694300Y-12754656D02*
G75*
G03*
X7694300Y-12754656I-25000J0D01*
G01*
X7694706Y-8530294D02*
G75*
G03*
X7694706Y-8530294I-25000J0D01*
G01*
X7694706Y-8869706D02*
G75*
G03*
X7694706Y-8869706I-25000J0D01*
G01*
X7764594Y-12584950D02*
G75*
G03*
X7764594Y-12584950I-25000J0D01*
G01*
X7765000Y-8700000D02*
G75*
G03*
X7765000Y-8700000I-25000J0D01*
G01*
X10809594Y-12585002D02*
G75*
G03*
X10809594Y-12585002I-25000J0D01*
G01*
X10810000Y-8700000D02*
G75*
G03*
X10810000Y-8700000I-25000J0D01*
G01*
X10879889Y-12415296D02*
G75*
G03*
X10879889Y-12415296I-25000J0D01*
G01*
X10879889Y-12754707D02*
G75*
G03*
X10879889Y-12754707I-25000J0D01*
G01*
X10880294Y-8530294D02*
G75*
G03*
X10880294Y-8530294I-25000J0D01*
G01*
X10880294Y-8869706D02*
G75*
G03*
X10880294Y-8869706I-25000J0D01*
G01*
X11049594Y-12345002D02*
G75*
G03*
X11049594Y-12345002I-25000J0D01*
G01*
X11049594Y-12825002D02*
G75*
G03*
X11049594Y-12825002I-25000J0D01*
G01*
X11050000Y-8460000D02*
G75*
G03*
X11050000Y-8460000I-25000J0D01*
G01*
X11050000Y-8940000D02*
G75*
G03*
X11050000Y-8940000I-25000J0D01*
G01*
X11219300Y-12415296D02*
G75*
G03*
X11219300Y-12415296I-25000J0D01*
G01*
X11219300Y-12754707D02*
G75*
G03*
X11219300Y-12754707I-25000J0D01*
G01*
X11219706Y-8530294D02*
G75*
G03*
X11219706Y-8530294I-25000J0D01*
G01*
X11219706Y-8869706D02*
G75*
G03*
X11219706Y-8869706I-25000J0D01*
G01*
X11289594Y-12585002D02*
G75*
G03*
X11289594Y-12585002I-25000J0D01*
G01*
X11290000Y-8700000D02*
G75*
G03*
X11290000Y-8700000I-25000J0D01*
G01*
D14*
X10280000Y-9367500D02*
X10280000Y-9442500D01*
X10242500Y-9405000D02*
X10317500Y-9405000D01*
X10280000Y-9567500D02*
X10280000Y-9642500D01*
X10242500Y-9605000D02*
X10317500Y-9605000D01*
X10280000Y-9767500D02*
X10280000Y-9842500D01*
X10242500Y-9805000D02*
X10317500Y-9805000D01*
D15*
X7423284Y-11993284D02*
X7423284Y-11936715D01*
X7366715Y-11936715D01*
X7366715Y-11993284D01*
X7423284Y-11993284D01*
X7623284Y-11993284D02*
X7623284Y-11936715D01*
X7566715Y-11936715D01*
X7566715Y-11993284D01*
X7623284Y-11993284D01*
X7823284Y-11993284D02*
X7823284Y-11936715D01*
X7766715Y-11936715D01*
X7766715Y-11993284D01*
X7823284Y-11993284D01*
X8023284Y-11993284D02*
X8023284Y-11936715D01*
X7966715Y-11936715D01*
X7966715Y-11993284D01*
X8023284Y-11993284D01*
D10*
X8247220Y-8943560D02*
X8297220Y-8893560D01*
X8247220Y-8843560D01*
X8197220Y-8893560D01*
X8247220Y-8943560D01*
X8501220Y-8943560D02*
X8551220Y-8893560D01*
X8501220Y-8843560D01*
X8451220Y-8893560D01*
X8501220Y-8943560D01*
X8755220Y-8943560D02*
X8805220Y-8893560D01*
X8755220Y-8843560D01*
X8705220Y-8893560D01*
X8755220Y-8943560D01*
X9432500Y-11534000D02*
X9482500Y-11484000D01*
X9432500Y-11434000D01*
X9382500Y-11484000D01*
X9432500Y-11534000D01*
X9432500Y-11788000D02*
X9482500Y-11738000D01*
X9432500Y-11688000D01*
X9382500Y-11738000D01*
X9432500Y-11788000D01*
X9432500Y-12042000D02*
X9482500Y-11992000D01*
X9432500Y-11942000D01*
X9382500Y-11992000D01*
X9432500Y-12042000D01*
X9432500Y-12296000D02*
X9482500Y-12246000D01*
X9432500Y-12196000D01*
X9382500Y-12246000D01*
X9432500Y-12296000D01*
X9432500Y-12550000D02*
X9482500Y-12500000D01*
X9432500Y-12450000D01*
X9382500Y-12500000D01*
X9432500Y-12550000D01*
X9795000Y-11531000D02*
X9845000Y-11481000D01*
X9795000Y-11431000D01*
X9745000Y-11481000D01*
X9795000Y-11531000D01*
X9795000Y-11785000D02*
X9845000Y-11735000D01*
X9795000Y-11685000D01*
X9745000Y-11735000D01*
X9795000Y-11785000D01*
X9795000Y-12039000D02*
X9845000Y-11989000D01*
X9795000Y-11939000D01*
X9745000Y-11989000D01*
X9795000Y-12039000D01*
X9795000Y-12293000D02*
X9845000Y-12243000D01*
X9795000Y-12193000D01*
X9745000Y-12243000D01*
X9795000Y-12293000D01*
X9795000Y-12547000D02*
X9845000Y-12497000D01*
X9795000Y-12447000D01*
X9745000Y-12497000D01*
X9795000Y-12547000D01*
X10207490Y-10335000D02*
X10257490Y-10285000D01*
X10207490Y-10235000D01*
X10157490Y-10285000D01*
X10207490Y-10335000D01*
X10207490Y-10589000D02*
X10257490Y-10539000D01*
X10207490Y-10489000D01*
X10157490Y-10539000D01*
X10207490Y-10589000D01*
X10207490Y-10843000D02*
X10257490Y-10793000D01*
X10207490Y-10743000D01*
X10157490Y-10793000D01*
X10207490Y-10843000D01*
X10207490Y-11097000D02*
X10257490Y-11047000D01*
X10207490Y-10997000D01*
X10157490Y-11047000D01*
X10207490Y-11097000D01*
D16*
X10680700Y-9191429D02*
X10810700Y-9321429D01*
X10810700Y-9191429D02*
X10680700Y-9321429D01*
X10810700Y-9256429D02*
G75*
G03*
X10810700Y-9256429I-65000J0D01*
G01*
X10680700Y-9589796D02*
X10810700Y-9719796D01*
X10810700Y-9589796D02*
X10680700Y-9719796D01*
X10810700Y-9654796D02*
G75*
G03*
X10810700Y-9654796I-65000J0D01*
G01*
X10680700Y-9988163D02*
X10810700Y-10118163D01*
X10810700Y-9988163D02*
X10680700Y-10118163D01*
X10810700Y-10053163D02*
G75*
G03*
X10810700Y-10053163I-65000J0D01*
G01*
X10680700Y-10386531D02*
X10810700Y-10516531D01*
X10810700Y-10386531D02*
X10680700Y-10516531D01*
X10810700Y-10451531D02*
G75*
G03*
X10810700Y-10451531I-65000J0D01*
G01*
X10680700Y-10784898D02*
X10810700Y-10914898D01*
X10810700Y-10784898D02*
X10680700Y-10914898D01*
X10810700Y-10849898D02*
G75*
G03*
X10810700Y-10849898I-65000J0D01*
G01*
X10680700Y-11183265D02*
X10810700Y-11313265D01*
X10810700Y-11183265D02*
X10680700Y-11313265D01*
X10810700Y-11248265D02*
G75*
G03*
X10810700Y-11248265I-65000J0D01*
G01*
X10680700Y-11581633D02*
X10810700Y-11711633D01*
X10810700Y-11581633D02*
X10680700Y-11711633D01*
X10810700Y-11646633D02*
G75*
G03*
X10810700Y-11646633I-65000J0D01*
G01*
X10680700Y-11980000D02*
X10810700Y-12110000D01*
X10810700Y-11980000D02*
X10680700Y-12110000D01*
X10810700Y-12045000D02*
G75*
G03*
X10810700Y-12045000I-65000J0D01*
G01*
X11180700Y-9191429D02*
X11310700Y-9321429D01*
X11310700Y-9191429D02*
X11180700Y-9321429D01*
X11310700Y-9256429D02*
G75*
G03*
X11310700Y-9256429I-65000J0D01*
G01*
X11180700Y-9589796D02*
X11310700Y-9719796D01*
X11310700Y-9589796D02*
X11180700Y-9719796D01*
X11310700Y-9654796D02*
G75*
G03*
X11310700Y-9654796I-65000J0D01*
G01*
X11180700Y-9988163D02*
X11310700Y-10118163D01*
X11310700Y-9988163D02*
X11180700Y-10118163D01*
X11310700Y-10053163D02*
G75*
G03*
X11310700Y-10053163I-65000J0D01*
G01*
X11180700Y-10386531D02*
X11310700Y-10516531D01*
X11310700Y-10386531D02*
X11180700Y-10516531D01*
X11310700Y-10451531D02*
G75*
G03*
X11310700Y-10451531I-65000J0D01*
G01*
X11180700Y-10784898D02*
X11310700Y-10914898D01*
X11310700Y-10784898D02*
X11180700Y-10914898D01*
X11310700Y-10849898D02*
G75*
G03*
X11310700Y-10849898I-65000J0D01*
G01*
X11180700Y-11183265D02*
X11310700Y-11313265D01*
X11310700Y-11183265D02*
X11180700Y-11313265D01*
X11310700Y-11248265D02*
G75*
G03*
X11310700Y-11248265I-65000J0D01*
G01*
X11180700Y-11581633D02*
X11310700Y-11711633D01*
X11310700Y-11581633D02*
X11180700Y-11711633D01*
X11310700Y-11646633D02*
G75*
G03*
X11310700Y-11646633I-65000J0D01*
G01*
X11180700Y-11980000D02*
X11310700Y-12110000D01*
X11310700Y-11980000D02*
X11180700Y-12110000D01*
X11310700Y-12045000D02*
G75*
G03*
X11310700Y-12045000I-65000J0D01*
G01*
D17*
X7339594Y-12424950D02*
X7659594Y-12744950D01*
X7659594Y-12424950D02*
X7339594Y-12744950D01*
X7499594Y-12424950D02*
X7499594Y-12744950D01*
X7339594Y-12584950D02*
X7659594Y-12584950D01*
X7340000Y-8540000D02*
X7660000Y-8860000D01*
X7660000Y-8540000D02*
X7340000Y-8860000D01*
X7500000Y-8540000D02*
X7500000Y-8860000D01*
X7340000Y-8700000D02*
X7660000Y-8700000D01*
X10864594Y-12425002D02*
X11184594Y-12745002D01*
X11184594Y-12425002D02*
X10864594Y-12745002D01*
X11024594Y-12425002D02*
X11024594Y-12745002D01*
X10864594Y-12585002D02*
X11184594Y-12585002D01*
X10865000Y-8540000D02*
X11185000Y-8860000D01*
X11185000Y-8540000D02*
X10865000Y-8860000D01*
X11025000Y-8540000D02*
X11025000Y-8860000D01*
X10865000Y-8700000D02*
X11185000Y-8700000D01*
D11*
X7352213Y-13325478D02*
X7352213Y-13125478D01*
X7399832Y-13125478D01*
X7428404Y-13135002D01*
X7447451Y-13154049D01*
X7456975Y-13173097D01*
X7466499Y-13211192D01*
X7466499Y-13239763D01*
X7456975Y-13277859D01*
X7447451Y-13296906D01*
X7428404Y-13315954D01*
X7399832Y-13325478D01*
X7352213Y-13325478D01*
X7552213Y-13325478D02*
X7552213Y-13192144D01*
X7552213Y-13230240D02*
X7561737Y-13211192D01*
X7571261Y-13201668D01*
X7590308Y-13192144D01*
X7609356Y-13192144D01*
X7676023Y-13325478D02*
X7676023Y-13192144D01*
X7676023Y-13125478D02*
X7666499Y-13135002D01*
X7676023Y-13144525D01*
X7685546Y-13135002D01*
X7676023Y-13125478D01*
X7676023Y-13144525D01*
X7799832Y-13325478D02*
X7780785Y-13315954D01*
X7771261Y-13296906D01*
X7771261Y-13125478D01*
X7904594Y-13325478D02*
X7885546Y-13315954D01*
X7876023Y-13296906D01*
X7876023Y-13125478D01*
X8133166Y-13325478D02*
X8133166Y-13125478D01*
X8199832Y-13268335D01*
X8266499Y-13125478D01*
X8266499Y-13325478D01*
X8447451Y-13325478D02*
X8447451Y-13220716D01*
X8437928Y-13201668D01*
X8418880Y-13192144D01*
X8380785Y-13192144D01*
X8361737Y-13201668D01*
X8447451Y-13315954D02*
X8428404Y-13325478D01*
X8380785Y-13325478D01*
X8361737Y-13315954D01*
X8352213Y-13296906D01*
X8352213Y-13277859D01*
X8361737Y-13258811D01*
X8380785Y-13249287D01*
X8428404Y-13249287D01*
X8447451Y-13239763D01*
X8542689Y-13192144D02*
X8542689Y-13392144D01*
X8542689Y-13201668D02*
X8561737Y-13192144D01*
X8599832Y-13192144D01*
X8618880Y-13201668D01*
X8628404Y-13211192D01*
X8637928Y-13230240D01*
X8637928Y-13287382D01*
X8628404Y-13306430D01*
X8618880Y-13315954D01*
X8599832Y-13325478D01*
X8561737Y-13325478D01*
X8542689Y-13315954D01*
X8723642Y-13306430D02*
X8733166Y-13315954D01*
X8723642Y-13325478D01*
X8714118Y-13315954D01*
X8723642Y-13306430D01*
X8723642Y-13325478D01*
X8723642Y-13201668D02*
X8733166Y-13211192D01*
X8723642Y-13220716D01*
X8714118Y-13211192D01*
X8723642Y-13201668D01*
X8723642Y-13220716D01*
D12*
X7054594Y-13635002D02*
X7094594Y-13675002D01*
X7094594Y-13635002D02*
X7054594Y-13675002D01*
D11*
X7390308Y-13545478D02*
X7409356Y-13545478D01*
X7428404Y-13555002D01*
X7437927Y-13564525D01*
X7447451Y-13583573D01*
X7456975Y-13621668D01*
X7456975Y-13669287D01*
X7447451Y-13707382D01*
X7437927Y-13726430D01*
X7428404Y-13735954D01*
X7409356Y-13745478D01*
X7390308Y-13745478D01*
X7371261Y-13735954D01*
X7361737Y-13726430D01*
X7352213Y-13707382D01*
X7342689Y-13669287D01*
X7342689Y-13621668D01*
X7352213Y-13583573D01*
X7361737Y-13564525D01*
X7371261Y-13555002D01*
X7390308Y-13545478D01*
X7542689Y-13726430D02*
X7552213Y-13735954D01*
X7542689Y-13745478D01*
X7533166Y-13735954D01*
X7542689Y-13726430D01*
X7542689Y-13745478D01*
X7723642Y-13612144D02*
X7723642Y-13745478D01*
X7676023Y-13535954D02*
X7628404Y-13678811D01*
X7752213Y-13678811D01*
X7866499Y-13545478D02*
X7885546Y-13545478D01*
X7904594Y-13555002D01*
X7914118Y-13564525D01*
X7923642Y-13583573D01*
X7933166Y-13621668D01*
X7933166Y-13669287D01*
X7923642Y-13707382D01*
X7914118Y-13726430D01*
X7904594Y-13735954D01*
X7885546Y-13745478D01*
X7866499Y-13745478D01*
X7847451Y-13735954D01*
X7837927Y-13726430D01*
X7828404Y-13707382D01*
X7818880Y-13669287D01*
X7818880Y-13621668D01*
X7828404Y-13583573D01*
X7837927Y-13564525D01*
X7847451Y-13555002D01*
X7866499Y-13545478D01*
X8056975Y-13545478D02*
X8076023Y-13545478D01*
X8095070Y-13555002D01*
X8104594Y-13564525D01*
X8114118Y-13583573D01*
X8123642Y-13621668D01*
X8123642Y-13669287D01*
X8114118Y-13707382D01*
X8104594Y-13726430D01*
X8095070Y-13735954D01*
X8076023Y-13745478D01*
X8056975Y-13745478D01*
X8037927Y-13735954D01*
X8028404Y-13726430D01*
X8018880Y-13707382D01*
X8009356Y-13669287D01*
X8009356Y-13621668D01*
X8018880Y-13583573D01*
X8028404Y-13564525D01*
X8037927Y-13555002D01*
X8056975Y-13545478D01*
X8209356Y-13745478D02*
X8209356Y-13612144D01*
X8209356Y-13631192D02*
X8218880Y-13621668D01*
X8237927Y-13612144D01*
X8266499Y-13612144D01*
X8285546Y-13621668D01*
X8295070Y-13640716D01*
X8295070Y-13745478D01*
X8295070Y-13640716D02*
X8304594Y-13621668D01*
X8323642Y-13612144D01*
X8352213Y-13612144D01*
X8371261Y-13621668D01*
X8380785Y-13640716D01*
X8380785Y-13745478D01*
X8476023Y-13745478D02*
X8476023Y-13612144D01*
X8476023Y-13631192D02*
X8485547Y-13621668D01*
X8504594Y-13612144D01*
X8533166Y-13612144D01*
X8552213Y-13621668D01*
X8561737Y-13640716D01*
X8561737Y-13745478D01*
X8561737Y-13640716D02*
X8571261Y-13621668D01*
X8590308Y-13612144D01*
X8618880Y-13612144D01*
X8637928Y-13621668D01*
X8647451Y-13640716D01*
X8647451Y-13745478D01*
X9037928Y-13535954D02*
X8866499Y-13793097D01*
X9295070Y-13545478D02*
X9314118Y-13545478D01*
X9333166Y-13555002D01*
X9342689Y-13564525D01*
X9352213Y-13583573D01*
X9361737Y-13621668D01*
X9361737Y-13669287D01*
X9352213Y-13707382D01*
X9342689Y-13726430D01*
X9333166Y-13735954D01*
X9314118Y-13745478D01*
X9295070Y-13745478D01*
X9276023Y-13735954D01*
X9266499Y-13726430D01*
X9256975Y-13707382D01*
X9247451Y-13669287D01*
X9247451Y-13621668D01*
X9256975Y-13583573D01*
X9266499Y-13564525D01*
X9276023Y-13555002D01*
X9295070Y-13545478D01*
X9447451Y-13726430D02*
X9456975Y-13735954D01*
X9447451Y-13745478D01*
X9437928Y-13735954D01*
X9447451Y-13726430D01*
X9447451Y-13745478D01*
X9580785Y-13545478D02*
X9599832Y-13545478D01*
X9618880Y-13555002D01*
X9628404Y-13564525D01*
X9637928Y-13583573D01*
X9647451Y-13621668D01*
X9647451Y-13669287D01*
X9637928Y-13707382D01*
X9628404Y-13726430D01*
X9618880Y-13735954D01*
X9599832Y-13745478D01*
X9580785Y-13745478D01*
X9561737Y-13735954D01*
X9552213Y-13726430D01*
X9542689Y-13707382D01*
X9533166Y-13669287D01*
X9533166Y-13621668D01*
X9542689Y-13583573D01*
X9552213Y-13564525D01*
X9561737Y-13555002D01*
X9580785Y-13545478D01*
X9837928Y-13745478D02*
X9723642Y-13745478D01*
X9780785Y-13745478D02*
X9780785Y-13545478D01*
X9761737Y-13574049D01*
X9742689Y-13593097D01*
X9723642Y-13602621D01*
X10018880Y-13545478D02*
X9923642Y-13545478D01*
X9914118Y-13640716D01*
X9923642Y-13631192D01*
X9942689Y-13621668D01*
X9990308Y-13621668D01*
X10009356Y-13631192D01*
X10018880Y-13640716D01*
X10028404Y-13659763D01*
X10028404Y-13707382D01*
X10018880Y-13726430D01*
X10009356Y-13735954D01*
X9990308Y-13745478D01*
X9942689Y-13745478D01*
X9923642Y-13735954D01*
X9914118Y-13726430D01*
X10095070Y-13545478D02*
X10228404Y-13545478D01*
X10142689Y-13745478D01*
X10295070Y-13545478D02*
X10295070Y-13583573D01*
X10371261Y-13545478D02*
X10371261Y-13583573D01*
X10666499Y-13821668D02*
X10656975Y-13812144D01*
X10637928Y-13783573D01*
X10628404Y-13764525D01*
X10618880Y-13735954D01*
X10609356Y-13688335D01*
X10609356Y-13650240D01*
X10618880Y-13602621D01*
X10628404Y-13574049D01*
X10637928Y-13555002D01*
X10656975Y-13526430D01*
X10666499Y-13516906D01*
X10828404Y-13612144D02*
X10828404Y-13745478D01*
X10780785Y-13535954D02*
X10733166Y-13678811D01*
X10856975Y-13678811D01*
X10923642Y-13564525D02*
X10933166Y-13555002D01*
X10952213Y-13545478D01*
X10999832Y-13545478D01*
X11018880Y-13555002D01*
X11028404Y-13564525D01*
X11037928Y-13583573D01*
X11037928Y-13602621D01*
X11028404Y-13631192D01*
X10914118Y-13745478D01*
X11037928Y-13745478D01*
X11276023Y-13745478D02*
X11276023Y-13545478D01*
X11361737Y-13745478D02*
X11361737Y-13640716D01*
X11352213Y-13621668D01*
X11333166Y-13612144D01*
X11304594Y-13612144D01*
X11285546Y-13621668D01*
X11276023Y-13631192D01*
X11485546Y-13745478D02*
X11466499Y-13735954D01*
X11456975Y-13726430D01*
X11447451Y-13707382D01*
X11447451Y-13650240D01*
X11456975Y-13631192D01*
X11466499Y-13621668D01*
X11485546Y-13612144D01*
X11514118Y-13612144D01*
X11533166Y-13621668D01*
X11542689Y-13631192D01*
X11552213Y-13650240D01*
X11552213Y-13707382D01*
X11542689Y-13726430D01*
X11533166Y-13735954D01*
X11514118Y-13745478D01*
X11485546Y-13745478D01*
X11666499Y-13745478D02*
X11647451Y-13735954D01*
X11637927Y-13716906D01*
X11637927Y-13545478D01*
X11818880Y-13735954D02*
X11799832Y-13745478D01*
X11761737Y-13745478D01*
X11742689Y-13735954D01*
X11733166Y-13716906D01*
X11733166Y-13640716D01*
X11742689Y-13621668D01*
X11761737Y-13612144D01*
X11799832Y-13612144D01*
X11818880Y-13621668D01*
X11828404Y-13640716D01*
X11828404Y-13659763D01*
X11733166Y-13678811D01*
X11904594Y-13735954D02*
X11923642Y-13745478D01*
X11961737Y-13745478D01*
X11980785Y-13735954D01*
X11990308Y-13716906D01*
X11990308Y-13707382D01*
X11980785Y-13688335D01*
X11961737Y-13678811D01*
X11933166Y-13678811D01*
X11914118Y-13669287D01*
X11904594Y-13650240D01*
X11904594Y-13640716D01*
X11914118Y-13621668D01*
X11933166Y-13612144D01*
X11961737Y-13612144D01*
X11980785Y-13621668D01*
X12056975Y-13821668D02*
X12066499Y-13812144D01*
X12085546Y-13783573D01*
X12095070Y-13764525D01*
X12104594Y-13735954D01*
X12114118Y-13688335D01*
X12114118Y-13650240D01*
X12104594Y-13602621D01*
X12095070Y-13574049D01*
X12085546Y-13555002D01*
X12066499Y-13526430D01*
X12056975Y-13516906D01*
D13*
X7094594Y-13919002D02*
G75*
G03*
X7094594Y-13919002I-25000J0D01*
G01*
D11*
X7390308Y-13809478D02*
X7409356Y-13809478D01*
X7428404Y-13819002D01*
X7437927Y-13828525D01*
X7447451Y-13847573D01*
X7456975Y-13885668D01*
X7456975Y-13933287D01*
X7447451Y-13971382D01*
X7437927Y-13990430D01*
X7428404Y-13999954D01*
X7409356Y-14009478D01*
X7390308Y-14009478D01*
X7371261Y-13999954D01*
X7361737Y-13990430D01*
X7352213Y-13971382D01*
X7342689Y-13933287D01*
X7342689Y-13885668D01*
X7352213Y-13847573D01*
X7361737Y-13828525D01*
X7371261Y-13819002D01*
X7390308Y-13809478D01*
X7542689Y-13990430D02*
X7552213Y-13999954D01*
X7542689Y-14009478D01*
X7533166Y-13999954D01*
X7542689Y-13990430D01*
X7542689Y-14009478D01*
X7733166Y-13809478D02*
X7637927Y-13809478D01*
X7628404Y-13904716D01*
X7637927Y-13895192D01*
X7656975Y-13885668D01*
X7704594Y-13885668D01*
X7723642Y-13895192D01*
X7733166Y-13904716D01*
X7742689Y-13923763D01*
X7742689Y-13971382D01*
X7733166Y-13990430D01*
X7723642Y-13999954D01*
X7704594Y-14009478D01*
X7656975Y-14009478D01*
X7637927Y-13999954D01*
X7628404Y-13990430D01*
X7866499Y-13809478D02*
X7885546Y-13809478D01*
X7904594Y-13819002D01*
X7914118Y-13828525D01*
X7923642Y-13847573D01*
X7933166Y-13885668D01*
X7933166Y-13933287D01*
X7923642Y-13971382D01*
X7914118Y-13990430D01*
X7904594Y-13999954D01*
X7885546Y-14009478D01*
X7866499Y-14009478D01*
X7847451Y-13999954D01*
X7837927Y-13990430D01*
X7828404Y-13971382D01*
X7818880Y-13933287D01*
X7818880Y-13885668D01*
X7828404Y-13847573D01*
X7837927Y-13828525D01*
X7847451Y-13819002D01*
X7866499Y-13809478D01*
X8056975Y-13809478D02*
X8076023Y-13809478D01*
X8095070Y-13819002D01*
X8104594Y-13828525D01*
X8114118Y-13847573D01*
X8123642Y-13885668D01*
X8123642Y-13933287D01*
X8114118Y-13971382D01*
X8104594Y-13990430D01*
X8095070Y-13999954D01*
X8076023Y-14009478D01*
X8056975Y-14009478D01*
X8037927Y-13999954D01*
X8028404Y-13990430D01*
X8018880Y-13971382D01*
X8009356Y-13933287D01*
X8009356Y-13885668D01*
X8018880Y-13847573D01*
X8028404Y-13828525D01*
X8037927Y-13819002D01*
X8056975Y-13809478D01*
X8209356Y-14009478D02*
X8209356Y-13876144D01*
X8209356Y-13895192D02*
X8218880Y-13885668D01*
X8237927Y-13876144D01*
X8266499Y-13876144D01*
X8285546Y-13885668D01*
X8295070Y-13904716D01*
X8295070Y-14009478D01*
X8295070Y-13904716D02*
X8304594Y-13885668D01*
X8323642Y-13876144D01*
X8352213Y-13876144D01*
X8371261Y-13885668D01*
X8380785Y-13904716D01*
X8380785Y-14009478D01*
X8476023Y-14009478D02*
X8476023Y-13876144D01*
X8476023Y-13895192D02*
X8485547Y-13885668D01*
X8504594Y-13876144D01*
X8533166Y-13876144D01*
X8552213Y-13885668D01*
X8561737Y-13904716D01*
X8561737Y-14009478D01*
X8561737Y-13904716D02*
X8571261Y-13885668D01*
X8590308Y-13876144D01*
X8618880Y-13876144D01*
X8637928Y-13885668D01*
X8647451Y-13904716D01*
X8647451Y-14009478D01*
X9037928Y-13799954D02*
X8866499Y-14057097D01*
X9295070Y-13809478D02*
X9314118Y-13809478D01*
X9333166Y-13819002D01*
X9342689Y-13828525D01*
X9352213Y-13847573D01*
X9361737Y-13885668D01*
X9361737Y-13933287D01*
X9352213Y-13971382D01*
X9342689Y-13990430D01*
X9333166Y-13999954D01*
X9314118Y-14009478D01*
X9295070Y-14009478D01*
X9276023Y-13999954D01*
X9266499Y-13990430D01*
X9256975Y-13971382D01*
X9247451Y-13933287D01*
X9247451Y-13885668D01*
X9256975Y-13847573D01*
X9266499Y-13828525D01*
X9276023Y-13819002D01*
X9295070Y-13809478D01*
X9447451Y-13990430D02*
X9456975Y-13999954D01*
X9447451Y-14009478D01*
X9437928Y-13999954D01*
X9447451Y-13990430D01*
X9447451Y-14009478D01*
X9580785Y-13809478D02*
X9599832Y-13809478D01*
X9618880Y-13819002D01*
X9628404Y-13828525D01*
X9637928Y-13847573D01*
X9647451Y-13885668D01*
X9647451Y-13933287D01*
X9637928Y-13971382D01*
X9628404Y-13990430D01*
X9618880Y-13999954D01*
X9599832Y-14009478D01*
X9580785Y-14009478D01*
X9561737Y-13999954D01*
X9552213Y-13990430D01*
X9542689Y-13971382D01*
X9533166Y-13933287D01*
X9533166Y-13885668D01*
X9542689Y-13847573D01*
X9552213Y-13828525D01*
X9561737Y-13819002D01*
X9580785Y-13809478D01*
X9837928Y-14009478D02*
X9723642Y-14009478D01*
X9780785Y-14009478D02*
X9780785Y-13809478D01*
X9761737Y-13838049D01*
X9742689Y-13857097D01*
X9723642Y-13866621D01*
X9933166Y-14009478D02*
X9971261Y-14009478D01*
X9990308Y-13999954D01*
X9999832Y-13990430D01*
X10018880Y-13961859D01*
X10028404Y-13923763D01*
X10028404Y-13847573D01*
X10018880Y-13828525D01*
X10009356Y-13819002D01*
X9990308Y-13809478D01*
X9952213Y-13809478D01*
X9933166Y-13819002D01*
X9923642Y-13828525D01*
X9914118Y-13847573D01*
X9914118Y-13895192D01*
X9923642Y-13914240D01*
X9933166Y-13923763D01*
X9952213Y-13933287D01*
X9990308Y-13933287D01*
X10009356Y-13923763D01*
X10018880Y-13914240D01*
X10028404Y-13895192D01*
X10095070Y-13809478D02*
X10228404Y-13809478D01*
X10142689Y-14009478D01*
X10295070Y-13809478D02*
X10295070Y-13847573D01*
X10371261Y-13809478D02*
X10371261Y-13847573D01*
X10666499Y-14085668D02*
X10656975Y-14076144D01*
X10637928Y-14047573D01*
X10628404Y-14028525D01*
X10618880Y-13999954D01*
X10609356Y-13952335D01*
X10609356Y-13914240D01*
X10618880Y-13866621D01*
X10628404Y-13838049D01*
X10637928Y-13819002D01*
X10656975Y-13790430D01*
X10666499Y-13780906D01*
X10723642Y-13809478D02*
X10847451Y-13809478D01*
X10780785Y-13885668D01*
X10809356Y-13885668D01*
X10828404Y-13895192D01*
X10837928Y-13904716D01*
X10847451Y-13923763D01*
X10847451Y-13971382D01*
X10837928Y-13990430D01*
X10828404Y-13999954D01*
X10809356Y-14009478D01*
X10752213Y-14009478D01*
X10733166Y-13999954D01*
X10723642Y-13990430D01*
X10923642Y-13828525D02*
X10933166Y-13819002D01*
X10952213Y-13809478D01*
X10999832Y-13809478D01*
X11018880Y-13819002D01*
X11028404Y-13828525D01*
X11037928Y-13847573D01*
X11037928Y-13866621D01*
X11028404Y-13895192D01*
X10914118Y-14009478D01*
X11037928Y-14009478D01*
X11276023Y-14009478D02*
X11276023Y-13809478D01*
X11361737Y-14009478D02*
X11361737Y-13904716D01*
X11352213Y-13885668D01*
X11333166Y-13876144D01*
X11304594Y-13876144D01*
X11285546Y-13885668D01*
X11276023Y-13895192D01*
X11485546Y-14009478D02*
X11466499Y-13999954D01*
X11456975Y-13990430D01*
X11447451Y-13971382D01*
X11447451Y-13914240D01*
X11456975Y-13895192D01*
X11466499Y-13885668D01*
X11485546Y-13876144D01*
X11514118Y-13876144D01*
X11533166Y-13885668D01*
X11542689Y-13895192D01*
X11552213Y-13914240D01*
X11552213Y-13971382D01*
X11542689Y-13990430D01*
X11533166Y-13999954D01*
X11514118Y-14009478D01*
X11485546Y-14009478D01*
X11666499Y-14009478D02*
X11647451Y-13999954D01*
X11637927Y-13980906D01*
X11637927Y-13809478D01*
X11818880Y-13999954D02*
X11799832Y-14009478D01*
X11761737Y-14009478D01*
X11742689Y-13999954D01*
X11733166Y-13980906D01*
X11733166Y-13904716D01*
X11742689Y-13885668D01*
X11761737Y-13876144D01*
X11799832Y-13876144D01*
X11818880Y-13885668D01*
X11828404Y-13904716D01*
X11828404Y-13923763D01*
X11733166Y-13942811D01*
X11904594Y-13999954D02*
X11923642Y-14009478D01*
X11961737Y-14009478D01*
X11980785Y-13999954D01*
X11990308Y-13980906D01*
X11990308Y-13971382D01*
X11980785Y-13952335D01*
X11961737Y-13942811D01*
X11933166Y-13942811D01*
X11914118Y-13933287D01*
X11904594Y-13914240D01*
X11904594Y-13904716D01*
X11914118Y-13885668D01*
X11933166Y-13876144D01*
X11961737Y-13876144D01*
X11980785Y-13885668D01*
X12056975Y-14085668D02*
X12066499Y-14076144D01*
X12085546Y-14047573D01*
X12095070Y-14028525D01*
X12104594Y-13999954D01*
X12114118Y-13952335D01*
X12114118Y-13914240D01*
X12104594Y-13866621D01*
X12095070Y-13838049D01*
X12085546Y-13819002D01*
X12066499Y-13790430D01*
X12056975Y-13780906D01*
D14*
X7057094Y-14145502D02*
X7057094Y-14220502D01*
X7019594Y-14183002D02*
X7094594Y-14183002D01*
D11*
X7390308Y-14073478D02*
X7409356Y-14073478D01*
X7428404Y-14083002D01*
X7437927Y-14092525D01*
X7447451Y-14111573D01*
X7456975Y-14149668D01*
X7456975Y-14197287D01*
X7447451Y-14235382D01*
X7437927Y-14254430D01*
X7428404Y-14263954D01*
X7409356Y-14273478D01*
X7390308Y-14273478D01*
X7371261Y-14263954D01*
X7361737Y-14254430D01*
X7352213Y-14235382D01*
X7342689Y-14197287D01*
X7342689Y-14149668D01*
X7352213Y-14111573D01*
X7361737Y-14092525D01*
X7371261Y-14083002D01*
X7390308Y-14073478D01*
X7542689Y-14254430D02*
X7552213Y-14263954D01*
X7542689Y-14273478D01*
X7533166Y-14263954D01*
X7542689Y-14254430D01*
X7542689Y-14273478D01*
X7618880Y-14073478D02*
X7752213Y-14073478D01*
X7666499Y-14273478D01*
X7923642Y-14073478D02*
X7828404Y-14073478D01*
X7818880Y-14168716D01*
X7828404Y-14159192D01*
X7847451Y-14149668D01*
X7895070Y-14149668D01*
X7914118Y-14159192D01*
X7923642Y-14168716D01*
X7933166Y-14187763D01*
X7933166Y-14235382D01*
X7923642Y-14254430D01*
X7914118Y-14263954D01*
X7895070Y-14273478D01*
X7847451Y-14273478D01*
X7828404Y-14263954D01*
X7818880Y-14254430D01*
X8056975Y-14073478D02*
X8076023Y-14073478D01*
X8095070Y-14083002D01*
X8104594Y-14092525D01*
X8114118Y-14111573D01*
X8123642Y-14149668D01*
X8123642Y-14197287D01*
X8114118Y-14235382D01*
X8104594Y-14254430D01*
X8095070Y-14263954D01*
X8076023Y-14273478D01*
X8056975Y-14273478D01*
X8037927Y-14263954D01*
X8028404Y-14254430D01*
X8018880Y-14235382D01*
X8009356Y-14197287D01*
X8009356Y-14149668D01*
X8018880Y-14111573D01*
X8028404Y-14092525D01*
X8037927Y-14083002D01*
X8056975Y-14073478D01*
X8209356Y-14273478D02*
X8209356Y-14140144D01*
X8209356Y-14159192D02*
X8218880Y-14149668D01*
X8237927Y-14140144D01*
X8266499Y-14140144D01*
X8285546Y-14149668D01*
X8295070Y-14168716D01*
X8295070Y-14273478D01*
X8295070Y-14168716D02*
X8304594Y-14149668D01*
X8323642Y-14140144D01*
X8352213Y-14140144D01*
X8371261Y-14149668D01*
X8380785Y-14168716D01*
X8380785Y-14273478D01*
X8476023Y-14273478D02*
X8476023Y-14140144D01*
X8476023Y-14159192D02*
X8485547Y-14149668D01*
X8504594Y-14140144D01*
X8533166Y-14140144D01*
X8552213Y-14149668D01*
X8561737Y-14168716D01*
X8561737Y-14273478D01*
X8561737Y-14168716D02*
X8571261Y-14149668D01*
X8590308Y-14140144D01*
X8618880Y-14140144D01*
X8637928Y-14149668D01*
X8647451Y-14168716D01*
X8647451Y-14273478D01*
X9037928Y-14063954D02*
X8866499Y-14321097D01*
X9295070Y-14073478D02*
X9314118Y-14073478D01*
X9333166Y-14083002D01*
X9342689Y-14092525D01*
X9352213Y-14111573D01*
X9361737Y-14149668D01*
X9361737Y-14197287D01*
X9352213Y-14235382D01*
X9342689Y-14254430D01*
X9333166Y-14263954D01*
X9314118Y-14273478D01*
X9295070Y-14273478D01*
X9276023Y-14263954D01*
X9266499Y-14254430D01*
X9256975Y-14235382D01*
X9247451Y-14197287D01*
X9247451Y-14149668D01*
X9256975Y-14111573D01*
X9266499Y-14092525D01*
X9276023Y-14083002D01*
X9295070Y-14073478D01*
X9447451Y-14254430D02*
X9456975Y-14263954D01*
X9447451Y-14273478D01*
X9437928Y-14263954D01*
X9447451Y-14254430D01*
X9447451Y-14273478D01*
X9580785Y-14073478D02*
X9599832Y-14073478D01*
X9618880Y-14083002D01*
X9628404Y-14092525D01*
X9637928Y-14111573D01*
X9647451Y-14149668D01*
X9647451Y-14197287D01*
X9637928Y-14235382D01*
X9628404Y-14254430D01*
X9618880Y-14263954D01*
X9599832Y-14273478D01*
X9580785Y-14273478D01*
X9561737Y-14263954D01*
X9552213Y-14254430D01*
X9542689Y-14235382D01*
X9533166Y-14197287D01*
X9533166Y-14149668D01*
X9542689Y-14111573D01*
X9552213Y-14092525D01*
X9561737Y-14083002D01*
X9580785Y-14073478D01*
X9723642Y-14092525D02*
X9733166Y-14083002D01*
X9752213Y-14073478D01*
X9799832Y-14073478D01*
X9818880Y-14083002D01*
X9828404Y-14092525D01*
X9837928Y-14111573D01*
X9837928Y-14130621D01*
X9828404Y-14159192D01*
X9714118Y-14273478D01*
X9837928Y-14273478D01*
X9933166Y-14273478D02*
X9971261Y-14273478D01*
X9990308Y-14263954D01*
X9999832Y-14254430D01*
X10018880Y-14225859D01*
X10028404Y-14187763D01*
X10028404Y-14111573D01*
X10018880Y-14092525D01*
X10009356Y-14083002D01*
X9990308Y-14073478D01*
X9952213Y-14073478D01*
X9933166Y-14083002D01*
X9923642Y-14092525D01*
X9914118Y-14111573D01*
X9914118Y-14159192D01*
X9923642Y-14178240D01*
X9933166Y-14187763D01*
X9952213Y-14197287D01*
X9990308Y-14197287D01*
X10009356Y-14187763D01*
X10018880Y-14178240D01*
X10028404Y-14159192D01*
X10209356Y-14073478D02*
X10114118Y-14073478D01*
X10104594Y-14168716D01*
X10114118Y-14159192D01*
X10133166Y-14149668D01*
X10180785Y-14149668D01*
X10199832Y-14159192D01*
X10209356Y-14168716D01*
X10218880Y-14187763D01*
X10218880Y-14235382D01*
X10209356Y-14254430D01*
X10199832Y-14263954D01*
X10180785Y-14273478D01*
X10133166Y-14273478D01*
X10114118Y-14263954D01*
X10104594Y-14254430D01*
X10295070Y-14073478D02*
X10295070Y-14111573D01*
X10371261Y-14073478D02*
X10371261Y-14111573D01*
X10666499Y-14349668D02*
X10656975Y-14340144D01*
X10637928Y-14311573D01*
X10628404Y-14292525D01*
X10618880Y-14263954D01*
X10609356Y-14216335D01*
X10609356Y-14178240D01*
X10618880Y-14130621D01*
X10628404Y-14102049D01*
X10637928Y-14083002D01*
X10656975Y-14054430D01*
X10666499Y-14044906D01*
X10723642Y-14073478D02*
X10847451Y-14073478D01*
X10780785Y-14149668D01*
X10809356Y-14149668D01*
X10828404Y-14159192D01*
X10837928Y-14168716D01*
X10847451Y-14187763D01*
X10847451Y-14235382D01*
X10837928Y-14254430D01*
X10828404Y-14263954D01*
X10809356Y-14273478D01*
X10752213Y-14273478D01*
X10733166Y-14263954D01*
X10723642Y-14254430D01*
X11085547Y-14273478D02*
X11085547Y-14073478D01*
X11171261Y-14273478D02*
X11171261Y-14168716D01*
X11161737Y-14149668D01*
X11142689Y-14140144D01*
X11114118Y-14140144D01*
X11095070Y-14149668D01*
X11085547Y-14159192D01*
X11295070Y-14273478D02*
X11276023Y-14263954D01*
X11266499Y-14254430D01*
X11256975Y-14235382D01*
X11256975Y-14178240D01*
X11266499Y-14159192D01*
X11276023Y-14149668D01*
X11295070Y-14140144D01*
X11323642Y-14140144D01*
X11342689Y-14149668D01*
X11352213Y-14159192D01*
X11361737Y-14178240D01*
X11361737Y-14235382D01*
X11352213Y-14254430D01*
X11342689Y-14263954D01*
X11323642Y-14273478D01*
X11295070Y-14273478D01*
X11476023Y-14273478D02*
X11456975Y-14263954D01*
X11447451Y-14244906D01*
X11447451Y-14073478D01*
X11628404Y-14263954D02*
X11609356Y-14273478D01*
X11571261Y-14273478D01*
X11552213Y-14263954D01*
X11542689Y-14244906D01*
X11542689Y-14168716D01*
X11552213Y-14149668D01*
X11571261Y-14140144D01*
X11609356Y-14140144D01*
X11628404Y-14149668D01*
X11637927Y-14168716D01*
X11637927Y-14187763D01*
X11542689Y-14206811D01*
X11714118Y-14263954D02*
X11733166Y-14273478D01*
X11771261Y-14273478D01*
X11790308Y-14263954D01*
X11799832Y-14244906D01*
X11799832Y-14235382D01*
X11790308Y-14216335D01*
X11771261Y-14206811D01*
X11742689Y-14206811D01*
X11723642Y-14197287D01*
X11714118Y-14178240D01*
X11714118Y-14168716D01*
X11723642Y-14149668D01*
X11742689Y-14140144D01*
X11771261Y-14140144D01*
X11790308Y-14149668D01*
X11866499Y-14349668D02*
X11876023Y-14340144D01*
X11895070Y-14311573D01*
X11904594Y-14292525D01*
X11914118Y-14263954D01*
X11923642Y-14216335D01*
X11923642Y-14178240D01*
X11914118Y-14130621D01*
X11904594Y-14102049D01*
X11895070Y-14083002D01*
X11876023Y-14054430D01*
X11866499Y-14044906D01*
D15*
X7082879Y-14475286D02*
X7082879Y-14418717D01*
X7026310Y-14418717D01*
X7026310Y-14475286D01*
X7082879Y-14475286D01*
D11*
X7390308Y-14337478D02*
X7409356Y-14337478D01*
X7428404Y-14347002D01*
X7437927Y-14356525D01*
X7447451Y-14375573D01*
X7456975Y-14413668D01*
X7456975Y-14461287D01*
X7447451Y-14499382D01*
X7437927Y-14518430D01*
X7428404Y-14527954D01*
X7409356Y-14537478D01*
X7390308Y-14537478D01*
X7371261Y-14527954D01*
X7361737Y-14518430D01*
X7352213Y-14499382D01*
X7342689Y-14461287D01*
X7342689Y-14413668D01*
X7352213Y-14375573D01*
X7361737Y-14356525D01*
X7371261Y-14347002D01*
X7390308Y-14337478D01*
X7542689Y-14518430D02*
X7552213Y-14527954D01*
X7542689Y-14537478D01*
X7533166Y-14527954D01*
X7542689Y-14518430D01*
X7542689Y-14537478D01*
X7666499Y-14423192D02*
X7647451Y-14413668D01*
X7637927Y-14404144D01*
X7628404Y-14385097D01*
X7628404Y-14375573D01*
X7637927Y-14356525D01*
X7647451Y-14347002D01*
X7666499Y-14337478D01*
X7704594Y-14337478D01*
X7723642Y-14347002D01*
X7733166Y-14356525D01*
X7742689Y-14375573D01*
X7742689Y-14385097D01*
X7733166Y-14404144D01*
X7723642Y-14413668D01*
X7704594Y-14423192D01*
X7666499Y-14423192D01*
X7647451Y-14432716D01*
X7637927Y-14442240D01*
X7628404Y-14461287D01*
X7628404Y-14499382D01*
X7637927Y-14518430D01*
X7647451Y-14527954D01*
X7666499Y-14537478D01*
X7704594Y-14537478D01*
X7723642Y-14527954D01*
X7733166Y-14518430D01*
X7742689Y-14499382D01*
X7742689Y-14461287D01*
X7733166Y-14442240D01*
X7723642Y-14432716D01*
X7704594Y-14423192D01*
X7866499Y-14337478D02*
X7885546Y-14337478D01*
X7904594Y-14347002D01*
X7914118Y-14356525D01*
X7923642Y-14375573D01*
X7933166Y-14413668D01*
X7933166Y-14461287D01*
X7923642Y-14499382D01*
X7914118Y-14518430D01*
X7904594Y-14527954D01*
X7885546Y-14537478D01*
X7866499Y-14537478D01*
X7847451Y-14527954D01*
X7837927Y-14518430D01*
X7828404Y-14499382D01*
X7818880Y-14461287D01*
X7818880Y-14413668D01*
X7828404Y-14375573D01*
X7837927Y-14356525D01*
X7847451Y-14347002D01*
X7866499Y-14337478D01*
X8056975Y-14337478D02*
X8076023Y-14337478D01*
X8095070Y-14347002D01*
X8104594Y-14356525D01*
X8114118Y-14375573D01*
X8123642Y-14413668D01*
X8123642Y-14461287D01*
X8114118Y-14499382D01*
X8104594Y-14518430D01*
X8095070Y-14527954D01*
X8076023Y-14537478D01*
X8056975Y-14537478D01*
X8037927Y-14527954D01*
X8028404Y-14518430D01*
X8018880Y-14499382D01*
X8009356Y-14461287D01*
X8009356Y-14413668D01*
X8018880Y-14375573D01*
X8028404Y-14356525D01*
X8037927Y-14347002D01*
X8056975Y-14337478D01*
X8209356Y-14537478D02*
X8209356Y-14404144D01*
X8209356Y-14423192D02*
X8218880Y-14413668D01*
X8237927Y-14404144D01*
X8266499Y-14404144D01*
X8285546Y-14413668D01*
X8295070Y-14432716D01*
X8295070Y-14537478D01*
X8295070Y-14432716D02*
X8304594Y-14413668D01*
X8323642Y-14404144D01*
X8352213Y-14404144D01*
X8371261Y-14413668D01*
X8380785Y-14432716D01*
X8380785Y-14537478D01*
X8476023Y-14537478D02*
X8476023Y-14404144D01*
X8476023Y-14423192D02*
X8485547Y-14413668D01*
X8504594Y-14404144D01*
X8533166Y-14404144D01*
X8552213Y-14413668D01*
X8561737Y-14432716D01*
X8561737Y-14537478D01*
X8561737Y-14432716D02*
X8571261Y-14413668D01*
X8590308Y-14404144D01*
X8618880Y-14404144D01*
X8637928Y-14413668D01*
X8647451Y-14432716D01*
X8647451Y-14537478D01*
X9037928Y-14327954D02*
X8866499Y-14585097D01*
X9295070Y-14337478D02*
X9314118Y-14337478D01*
X9333166Y-14347002D01*
X9342689Y-14356525D01*
X9352213Y-14375573D01*
X9361737Y-14413668D01*
X9361737Y-14461287D01*
X9352213Y-14499382D01*
X9342689Y-14518430D01*
X9333166Y-14527954D01*
X9314118Y-14537478D01*
X9295070Y-14537478D01*
X9276023Y-14527954D01*
X9266499Y-14518430D01*
X9256975Y-14499382D01*
X9247451Y-14461287D01*
X9247451Y-14413668D01*
X9256975Y-14375573D01*
X9266499Y-14356525D01*
X9276023Y-14347002D01*
X9295070Y-14337478D01*
X9447451Y-14518430D02*
X9456975Y-14527954D01*
X9447451Y-14537478D01*
X9437928Y-14527954D01*
X9447451Y-14518430D01*
X9447451Y-14537478D01*
X9580785Y-14337478D02*
X9599832Y-14337478D01*
X9618880Y-14347002D01*
X9628404Y-14356525D01*
X9637928Y-14375573D01*
X9647451Y-14413668D01*
X9647451Y-14461287D01*
X9637928Y-14499382D01*
X9628404Y-14518430D01*
X9618880Y-14527954D01*
X9599832Y-14537478D01*
X9580785Y-14537478D01*
X9561737Y-14527954D01*
X9552213Y-14518430D01*
X9542689Y-14499382D01*
X9533166Y-14461287D01*
X9533166Y-14413668D01*
X9542689Y-14375573D01*
X9552213Y-14356525D01*
X9561737Y-14347002D01*
X9580785Y-14337478D01*
X9714118Y-14337478D02*
X9837928Y-14337478D01*
X9771261Y-14413668D01*
X9799832Y-14413668D01*
X9818880Y-14423192D01*
X9828404Y-14432716D01*
X9837928Y-14451763D01*
X9837928Y-14499382D01*
X9828404Y-14518430D01*
X9818880Y-14527954D01*
X9799832Y-14537478D01*
X9742689Y-14537478D01*
X9723642Y-14527954D01*
X9714118Y-14518430D01*
X10028404Y-14537478D02*
X9914118Y-14537478D01*
X9971261Y-14537478D02*
X9971261Y-14337478D01*
X9952213Y-14366049D01*
X9933166Y-14385097D01*
X9914118Y-14394621D01*
X10209356Y-14337478D02*
X10114118Y-14337478D01*
X10104594Y-14432716D01*
X10114118Y-14423192D01*
X10133166Y-14413668D01*
X10180785Y-14413668D01*
X10199832Y-14423192D01*
X10209356Y-14432716D01*
X10218880Y-14451763D01*
X10218880Y-14499382D01*
X10209356Y-14518430D01*
X10199832Y-14527954D01*
X10180785Y-14537478D01*
X10133166Y-14537478D01*
X10114118Y-14527954D01*
X10104594Y-14518430D01*
X10295070Y-14337478D02*
X10295070Y-14375573D01*
X10371261Y-14337478D02*
X10371261Y-14375573D01*
X10666499Y-14613668D02*
X10656975Y-14604144D01*
X10637928Y-14575573D01*
X10628404Y-14556525D01*
X10618880Y-14527954D01*
X10609356Y-14480335D01*
X10609356Y-14442240D01*
X10618880Y-14394621D01*
X10628404Y-14366049D01*
X10637928Y-14347002D01*
X10656975Y-14318430D01*
X10666499Y-14308906D01*
X10828404Y-14404144D02*
X10828404Y-14537478D01*
X10780785Y-14327954D02*
X10733166Y-14470811D01*
X10856975Y-14470811D01*
X11085547Y-14537478D02*
X11085547Y-14337478D01*
X11171261Y-14537478D02*
X11171261Y-14432716D01*
X11161737Y-14413668D01*
X11142689Y-14404144D01*
X11114118Y-14404144D01*
X11095070Y-14413668D01*
X11085547Y-14423192D01*
X11295070Y-14537478D02*
X11276023Y-14527954D01*
X11266499Y-14518430D01*
X11256975Y-14499382D01*
X11256975Y-14442240D01*
X11266499Y-14423192D01*
X11276023Y-14413668D01*
X11295070Y-14404144D01*
X11323642Y-14404144D01*
X11342689Y-14413668D01*
X11352213Y-14423192D01*
X11361737Y-14442240D01*
X11361737Y-14499382D01*
X11352213Y-14518430D01*
X11342689Y-14527954D01*
X11323642Y-14537478D01*
X11295070Y-14537478D01*
X11476023Y-14537478D02*
X11456975Y-14527954D01*
X11447451Y-14508906D01*
X11447451Y-14337478D01*
X11628404Y-14527954D02*
X11609356Y-14537478D01*
X11571261Y-14537478D01*
X11552213Y-14527954D01*
X11542689Y-14508906D01*
X11542689Y-14432716D01*
X11552213Y-14413668D01*
X11571261Y-14404144D01*
X11609356Y-14404144D01*
X11628404Y-14413668D01*
X11637927Y-14432716D01*
X11637927Y-14451763D01*
X11542689Y-14470811D01*
X11714118Y-14527954D02*
X11733166Y-14537478D01*
X11771261Y-14537478D01*
X11790308Y-14527954D01*
X11799832Y-14508906D01*
X11799832Y-14499382D01*
X11790308Y-14480335D01*
X11771261Y-14470811D01*
X11742689Y-14470811D01*
X11723642Y-14461287D01*
X11714118Y-14442240D01*
X11714118Y-14432716D01*
X11723642Y-14413668D01*
X11742689Y-14404144D01*
X11771261Y-14404144D01*
X11790308Y-14413668D01*
X11866499Y-14613668D02*
X11876023Y-14604144D01*
X11895070Y-14575573D01*
X11904594Y-14556525D01*
X11914118Y-14527954D01*
X11923642Y-14480335D01*
X11923642Y-14442240D01*
X11914118Y-14394621D01*
X11904594Y-14366049D01*
X11895070Y-14347002D01*
X11876023Y-14318430D01*
X11866499Y-14308906D01*
D10*
X7044594Y-14761002D02*
X7094594Y-14711002D01*
X7044594Y-14661002D01*
X6994594Y-14711002D01*
X7044594Y-14761002D01*
D11*
X7456975Y-14801478D02*
X7342689Y-14801478D01*
X7399832Y-14801478D02*
X7399832Y-14601478D01*
X7380785Y-14630049D01*
X7361737Y-14649097D01*
X7342689Y-14658621D01*
X7542689Y-14782430D02*
X7552213Y-14791954D01*
X7542689Y-14801478D01*
X7533166Y-14791954D01*
X7542689Y-14782430D01*
X7542689Y-14801478D01*
X7676023Y-14601478D02*
X7695070Y-14601478D01*
X7714118Y-14611002D01*
X7723642Y-14620525D01*
X7733166Y-14639573D01*
X7742689Y-14677668D01*
X7742689Y-14725287D01*
X7733166Y-14763382D01*
X7723642Y-14782430D01*
X7714118Y-14791954D01*
X7695070Y-14801478D01*
X7676023Y-14801478D01*
X7656975Y-14791954D01*
X7647451Y-14782430D01*
X7637927Y-14763382D01*
X7628404Y-14725287D01*
X7628404Y-14677668D01*
X7637927Y-14639573D01*
X7647451Y-14620525D01*
X7656975Y-14611002D01*
X7676023Y-14601478D01*
X7866499Y-14601478D02*
X7885546Y-14601478D01*
X7904594Y-14611002D01*
X7914118Y-14620525D01*
X7923642Y-14639573D01*
X7933166Y-14677668D01*
X7933166Y-14725287D01*
X7923642Y-14763382D01*
X7914118Y-14782430D01*
X7904594Y-14791954D01*
X7885546Y-14801478D01*
X7866499Y-14801478D01*
X7847451Y-14791954D01*
X7837927Y-14782430D01*
X7828404Y-14763382D01*
X7818880Y-14725287D01*
X7818880Y-14677668D01*
X7828404Y-14639573D01*
X7837927Y-14620525D01*
X7847451Y-14611002D01*
X7866499Y-14601478D01*
X8056975Y-14601478D02*
X8076023Y-14601478D01*
X8095070Y-14611002D01*
X8104594Y-14620525D01*
X8114118Y-14639573D01*
X8123642Y-14677668D01*
X8123642Y-14725287D01*
X8114118Y-14763382D01*
X8104594Y-14782430D01*
X8095070Y-14791954D01*
X8076023Y-14801478D01*
X8056975Y-14801478D01*
X8037927Y-14791954D01*
X8028404Y-14782430D01*
X8018880Y-14763382D01*
X8009356Y-14725287D01*
X8009356Y-14677668D01*
X8018880Y-14639573D01*
X8028404Y-14620525D01*
X8037927Y-14611002D01*
X8056975Y-14601478D01*
X8209356Y-14801478D02*
X8209356Y-14668144D01*
X8209356Y-14687192D02*
X8218880Y-14677668D01*
X8237927Y-14668144D01*
X8266499Y-14668144D01*
X8285546Y-14677668D01*
X8295070Y-14696716D01*
X8295070Y-14801478D01*
X8295070Y-14696716D02*
X8304594Y-14677668D01*
X8323642Y-14668144D01*
X8352213Y-14668144D01*
X8371261Y-14677668D01*
X8380785Y-14696716D01*
X8380785Y-14801478D01*
X8476023Y-14801478D02*
X8476023Y-14668144D01*
X8476023Y-14687192D02*
X8485547Y-14677668D01*
X8504594Y-14668144D01*
X8533166Y-14668144D01*
X8552213Y-14677668D01*
X8561737Y-14696716D01*
X8561737Y-14801478D01*
X8561737Y-14696716D02*
X8571261Y-14677668D01*
X8590308Y-14668144D01*
X8618880Y-14668144D01*
X8637928Y-14677668D01*
X8647451Y-14696716D01*
X8647451Y-14801478D01*
X9037928Y-14591954D02*
X8866499Y-14849097D01*
X9295070Y-14601478D02*
X9314118Y-14601478D01*
X9333166Y-14611002D01*
X9342689Y-14620525D01*
X9352213Y-14639573D01*
X9361737Y-14677668D01*
X9361737Y-14725287D01*
X9352213Y-14763382D01*
X9342689Y-14782430D01*
X9333166Y-14791954D01*
X9314118Y-14801478D01*
X9295070Y-14801478D01*
X9276023Y-14791954D01*
X9266499Y-14782430D01*
X9256975Y-14763382D01*
X9247451Y-14725287D01*
X9247451Y-14677668D01*
X9256975Y-14639573D01*
X9266499Y-14620525D01*
X9276023Y-14611002D01*
X9295070Y-14601478D01*
X9447451Y-14782430D02*
X9456975Y-14791954D01*
X9447451Y-14801478D01*
X9437928Y-14791954D01*
X9447451Y-14782430D01*
X9447451Y-14801478D01*
X9580785Y-14601478D02*
X9599832Y-14601478D01*
X9618880Y-14611002D01*
X9628404Y-14620525D01*
X9637928Y-14639573D01*
X9647451Y-14677668D01*
X9647451Y-14725287D01*
X9637928Y-14763382D01*
X9628404Y-14782430D01*
X9618880Y-14791954D01*
X9599832Y-14801478D01*
X9580785Y-14801478D01*
X9561737Y-14791954D01*
X9552213Y-14782430D01*
X9542689Y-14763382D01*
X9533166Y-14725287D01*
X9533166Y-14677668D01*
X9542689Y-14639573D01*
X9552213Y-14620525D01*
X9561737Y-14611002D01*
X9580785Y-14601478D01*
X9714118Y-14601478D02*
X9837928Y-14601478D01*
X9771261Y-14677668D01*
X9799832Y-14677668D01*
X9818880Y-14687192D01*
X9828404Y-14696716D01*
X9837928Y-14715763D01*
X9837928Y-14763382D01*
X9828404Y-14782430D01*
X9818880Y-14791954D01*
X9799832Y-14801478D01*
X9742689Y-14801478D01*
X9723642Y-14791954D01*
X9714118Y-14782430D01*
X9933166Y-14801478D02*
X9971261Y-14801478D01*
X9990308Y-14791954D01*
X9999832Y-14782430D01*
X10018880Y-14753859D01*
X10028404Y-14715763D01*
X10028404Y-14639573D01*
X10018880Y-14620525D01*
X10009356Y-14611002D01*
X9990308Y-14601478D01*
X9952213Y-14601478D01*
X9933166Y-14611002D01*
X9923642Y-14620525D01*
X9914118Y-14639573D01*
X9914118Y-14687192D01*
X9923642Y-14706240D01*
X9933166Y-14715763D01*
X9952213Y-14725287D01*
X9990308Y-14725287D01*
X10009356Y-14715763D01*
X10018880Y-14706240D01*
X10028404Y-14687192D01*
X10199832Y-14668144D02*
X10199832Y-14801478D01*
X10152213Y-14591954D02*
X10104594Y-14734811D01*
X10228404Y-14734811D01*
X10295070Y-14601478D02*
X10295070Y-14639573D01*
X10371261Y-14601478D02*
X10371261Y-14639573D01*
X10666499Y-14877668D02*
X10656975Y-14868144D01*
X10637928Y-14839573D01*
X10628404Y-14820525D01*
X10618880Y-14791954D01*
X10609356Y-14744335D01*
X10609356Y-14706240D01*
X10618880Y-14658621D01*
X10628404Y-14630049D01*
X10637928Y-14611002D01*
X10656975Y-14582430D01*
X10666499Y-14572906D01*
X10847451Y-14801478D02*
X10733166Y-14801478D01*
X10790308Y-14801478D02*
X10790308Y-14601478D01*
X10771261Y-14630049D01*
X10752213Y-14649097D01*
X10733166Y-14658621D01*
X10914118Y-14601478D02*
X11047451Y-14601478D01*
X10961737Y-14801478D01*
X11276023Y-14801478D02*
X11276023Y-14601478D01*
X11361737Y-14801478D02*
X11361737Y-14696716D01*
X11352213Y-14677668D01*
X11333166Y-14668144D01*
X11304594Y-14668144D01*
X11285546Y-14677668D01*
X11276023Y-14687192D01*
X11485546Y-14801478D02*
X11466499Y-14791954D01*
X11456975Y-14782430D01*
X11447451Y-14763382D01*
X11447451Y-14706240D01*
X11456975Y-14687192D01*
X11466499Y-14677668D01*
X11485546Y-14668144D01*
X11514118Y-14668144D01*
X11533166Y-14677668D01*
X11542689Y-14687192D01*
X11552213Y-14706240D01*
X11552213Y-14763382D01*
X11542689Y-14782430D01*
X11533166Y-14791954D01*
X11514118Y-14801478D01*
X11485546Y-14801478D01*
X11666499Y-14801478D02*
X11647451Y-14791954D01*
X11637927Y-14772906D01*
X11637927Y-14601478D01*
X11818880Y-14791954D02*
X11799832Y-14801478D01*
X11761737Y-14801478D01*
X11742689Y-14791954D01*
X11733166Y-14772906D01*
X11733166Y-14696716D01*
X11742689Y-14677668D01*
X11761737Y-14668144D01*
X11799832Y-14668144D01*
X11818880Y-14677668D01*
X11828404Y-14696716D01*
X11828404Y-14715763D01*
X11733166Y-14734811D01*
X11904594Y-14791954D02*
X11923642Y-14801478D01*
X11961737Y-14801478D01*
X11980785Y-14791954D01*
X11990308Y-14772906D01*
X11990308Y-14763382D01*
X11980785Y-14744335D01*
X11961737Y-14734811D01*
X11933166Y-14734811D01*
X11914118Y-14725287D01*
X11904594Y-14706240D01*
X11904594Y-14696716D01*
X11914118Y-14677668D01*
X11933166Y-14668144D01*
X11961737Y-14668144D01*
X11980785Y-14677668D01*
X12056975Y-14877668D02*
X12066499Y-14868144D01*
X12085546Y-14839573D01*
X12095070Y-14820525D01*
X12104594Y-14791954D01*
X12114118Y-14744335D01*
X12114118Y-14706240D01*
X12104594Y-14658621D01*
X12095070Y-14630049D01*
X12085546Y-14611002D01*
X12066499Y-14582430D01*
X12056975Y-14572906D01*
D16*
X6964594Y-14910002D02*
X7094594Y-15040002D01*
X7094594Y-14910002D02*
X6964594Y-15040002D01*
X7094594Y-14975002D02*
G75*
G03*
X7094594Y-14975002I-65000J0D01*
G01*
D11*
X7456975Y-15065478D02*
X7342689Y-15065478D01*
X7399832Y-15065478D02*
X7399832Y-14865478D01*
X7380785Y-14894049D01*
X7361737Y-14913097D01*
X7342689Y-14922621D01*
X7542689Y-15046430D02*
X7552213Y-15055954D01*
X7542689Y-15065478D01*
X7533166Y-15055954D01*
X7542689Y-15046430D01*
X7542689Y-15065478D01*
X7618880Y-14865478D02*
X7742689Y-14865478D01*
X7676023Y-14941668D01*
X7704594Y-14941668D01*
X7723642Y-14951192D01*
X7733166Y-14960716D01*
X7742689Y-14979763D01*
X7742689Y-15027382D01*
X7733166Y-15046430D01*
X7723642Y-15055954D01*
X7704594Y-15065478D01*
X7647451Y-15065478D01*
X7628404Y-15055954D01*
X7618880Y-15046430D01*
X7866499Y-14865478D02*
X7885546Y-14865478D01*
X7904594Y-14875002D01*
X7914118Y-14884525D01*
X7923642Y-14903573D01*
X7933166Y-14941668D01*
X7933166Y-14989287D01*
X7923642Y-15027382D01*
X7914118Y-15046430D01*
X7904594Y-15055954D01*
X7885546Y-15065478D01*
X7866499Y-15065478D01*
X7847451Y-15055954D01*
X7837927Y-15046430D01*
X7828404Y-15027382D01*
X7818880Y-14989287D01*
X7818880Y-14941668D01*
X7828404Y-14903573D01*
X7837927Y-14884525D01*
X7847451Y-14875002D01*
X7866499Y-14865478D01*
X8056975Y-14865478D02*
X8076023Y-14865478D01*
X8095070Y-14875002D01*
X8104594Y-14884525D01*
X8114118Y-14903573D01*
X8123642Y-14941668D01*
X8123642Y-14989287D01*
X8114118Y-15027382D01*
X8104594Y-15046430D01*
X8095070Y-15055954D01*
X8076023Y-15065478D01*
X8056975Y-15065478D01*
X8037927Y-15055954D01*
X8028404Y-15046430D01*
X8018880Y-15027382D01*
X8009356Y-14989287D01*
X8009356Y-14941668D01*
X8018880Y-14903573D01*
X8028404Y-14884525D01*
X8037927Y-14875002D01*
X8056975Y-14865478D01*
X8209356Y-15065478D02*
X8209356Y-14932144D01*
X8209356Y-14951192D02*
X8218880Y-14941668D01*
X8237927Y-14932144D01*
X8266499Y-14932144D01*
X8285546Y-14941668D01*
X8295070Y-14960716D01*
X8295070Y-15065478D01*
X8295070Y-14960716D02*
X8304594Y-14941668D01*
X8323642Y-14932144D01*
X8352213Y-14932144D01*
X8371261Y-14941668D01*
X8380785Y-14960716D01*
X8380785Y-15065478D01*
X8476023Y-15065478D02*
X8476023Y-14932144D01*
X8476023Y-14951192D02*
X8485547Y-14941668D01*
X8504594Y-14932144D01*
X8533166Y-14932144D01*
X8552213Y-14941668D01*
X8561737Y-14960716D01*
X8561737Y-15065478D01*
X8561737Y-14960716D02*
X8571261Y-14941668D01*
X8590308Y-14932144D01*
X8618880Y-14932144D01*
X8637928Y-14941668D01*
X8647451Y-14960716D01*
X8647451Y-15065478D01*
X9037928Y-14855954D02*
X8866499Y-15113097D01*
X9295070Y-14865478D02*
X9314118Y-14865478D01*
X9333166Y-14875002D01*
X9342689Y-14884525D01*
X9352213Y-14903573D01*
X9361737Y-14941668D01*
X9361737Y-14989287D01*
X9352213Y-15027382D01*
X9342689Y-15046430D01*
X9333166Y-15055954D01*
X9314118Y-15065478D01*
X9295070Y-15065478D01*
X9276023Y-15055954D01*
X9266499Y-15046430D01*
X9256975Y-15027382D01*
X9247451Y-14989287D01*
X9247451Y-14941668D01*
X9256975Y-14903573D01*
X9266499Y-14884525D01*
X9276023Y-14875002D01*
X9295070Y-14865478D01*
X9447451Y-15046430D02*
X9456975Y-15055954D01*
X9447451Y-15065478D01*
X9437928Y-15055954D01*
X9447451Y-15046430D01*
X9447451Y-15065478D01*
X9580785Y-14865478D02*
X9599832Y-14865478D01*
X9618880Y-14875002D01*
X9628404Y-14884525D01*
X9637928Y-14903573D01*
X9647451Y-14941668D01*
X9647451Y-14989287D01*
X9637928Y-15027382D01*
X9628404Y-15046430D01*
X9618880Y-15055954D01*
X9599832Y-15065478D01*
X9580785Y-15065478D01*
X9561737Y-15055954D01*
X9552213Y-15046430D01*
X9542689Y-15027382D01*
X9533166Y-14989287D01*
X9533166Y-14941668D01*
X9542689Y-14903573D01*
X9552213Y-14884525D01*
X9561737Y-14875002D01*
X9580785Y-14865478D01*
X9828404Y-14865478D02*
X9733166Y-14865478D01*
X9723642Y-14960716D01*
X9733166Y-14951192D01*
X9752213Y-14941668D01*
X9799832Y-14941668D01*
X9818880Y-14951192D01*
X9828404Y-14960716D01*
X9837928Y-14979763D01*
X9837928Y-15027382D01*
X9828404Y-15046430D01*
X9818880Y-15055954D01*
X9799832Y-15065478D01*
X9752213Y-15065478D01*
X9733166Y-15055954D01*
X9723642Y-15046430D01*
X10028404Y-15065478D02*
X9914118Y-15065478D01*
X9971261Y-15065478D02*
X9971261Y-14865478D01*
X9952213Y-14894049D01*
X9933166Y-14913097D01*
X9914118Y-14922621D01*
X10104594Y-14884525D02*
X10114118Y-14875002D01*
X10133166Y-14865478D01*
X10180785Y-14865478D01*
X10199832Y-14875002D01*
X10209356Y-14884525D01*
X10218880Y-14903573D01*
X10218880Y-14922621D01*
X10209356Y-14951192D01*
X10095070Y-15065478D01*
X10218880Y-15065478D01*
X10295070Y-14865478D02*
X10295070Y-14903573D01*
X10371261Y-14865478D02*
X10371261Y-14903573D01*
X10666499Y-15141668D02*
X10656975Y-15132144D01*
X10637928Y-15103573D01*
X10628404Y-15084525D01*
X10618880Y-15055954D01*
X10609356Y-15008335D01*
X10609356Y-14970240D01*
X10618880Y-14922621D01*
X10628404Y-14894049D01*
X10637928Y-14875002D01*
X10656975Y-14846430D01*
X10666499Y-14836906D01*
X10847451Y-15065478D02*
X10733166Y-15065478D01*
X10790308Y-15065478D02*
X10790308Y-14865478D01*
X10771261Y-14894049D01*
X10752213Y-14913097D01*
X10733166Y-14922621D01*
X11018880Y-14865478D02*
X10980785Y-14865478D01*
X10961737Y-14875002D01*
X10952213Y-14884525D01*
X10933166Y-14913097D01*
X10923642Y-14951192D01*
X10923642Y-15027382D01*
X10933166Y-15046430D01*
X10942689Y-15055954D01*
X10961737Y-15065478D01*
X10999832Y-15065478D01*
X11018880Y-15055954D01*
X11028404Y-15046430D01*
X11037928Y-15027382D01*
X11037928Y-14979763D01*
X11028404Y-14960716D01*
X11018880Y-14951192D01*
X10999832Y-14941668D01*
X10961737Y-14941668D01*
X10942689Y-14951192D01*
X10933166Y-14960716D01*
X10923642Y-14979763D01*
X11276023Y-15065478D02*
X11276023Y-14865478D01*
X11361737Y-15065478D02*
X11361737Y-14960716D01*
X11352213Y-14941668D01*
X11333166Y-14932144D01*
X11304594Y-14932144D01*
X11285546Y-14941668D01*
X11276023Y-14951192D01*
X11485546Y-15065478D02*
X11466499Y-15055954D01*
X11456975Y-15046430D01*
X11447451Y-15027382D01*
X11447451Y-14970240D01*
X11456975Y-14951192D01*
X11466499Y-14941668D01*
X11485546Y-14932144D01*
X11514118Y-14932144D01*
X11533166Y-14941668D01*
X11542689Y-14951192D01*
X11552213Y-14970240D01*
X11552213Y-15027382D01*
X11542689Y-15046430D01*
X11533166Y-15055954D01*
X11514118Y-15065478D01*
X11485546Y-15065478D01*
X11666499Y-15065478D02*
X11647451Y-15055954D01*
X11637927Y-15036906D01*
X11637927Y-14865478D01*
X11818880Y-15055954D02*
X11799832Y-15065478D01*
X11761737Y-15065478D01*
X11742689Y-15055954D01*
X11733166Y-15036906D01*
X11733166Y-14960716D01*
X11742689Y-14941668D01*
X11761737Y-14932144D01*
X11799832Y-14932144D01*
X11818880Y-14941668D01*
X11828404Y-14960716D01*
X11828404Y-14979763D01*
X11733166Y-14998811D01*
X11904594Y-15055954D02*
X11923642Y-15065478D01*
X11961737Y-15065478D01*
X11980785Y-15055954D01*
X11990308Y-15036906D01*
X11990308Y-15027382D01*
X11980785Y-15008335D01*
X11961737Y-14998811D01*
X11933166Y-14998811D01*
X11914118Y-14989287D01*
X11904594Y-14970240D01*
X11904594Y-14960716D01*
X11914118Y-14941668D01*
X11933166Y-14932144D01*
X11961737Y-14932144D01*
X11980785Y-14941668D01*
X12056975Y-15141668D02*
X12066499Y-15132144D01*
X12085546Y-15103573D01*
X12095070Y-15084525D01*
X12104594Y-15055954D01*
X12114118Y-15008335D01*
X12114118Y-14970240D01*
X12104594Y-14922621D01*
X12095070Y-14894049D01*
X12085546Y-14875002D01*
X12066499Y-14846430D01*
X12056975Y-14836906D01*
X6894594Y-15139002D02*
X7094594Y-15339002D01*
X7094594Y-15139002D02*
X6894594Y-15339002D01*
X6994594Y-15139002D02*
X6994594Y-15339002D01*
X6894594Y-15239002D02*
X7094594Y-15239002D01*
X7333166Y-15129478D02*
X7456975Y-15129478D01*
X7390308Y-15205668D01*
X7418880Y-15205668D01*
X7437927Y-15215192D01*
X7447451Y-15224716D01*
X7456975Y-15243763D01*
X7456975Y-15291382D01*
X7447451Y-15310430D01*
X7437927Y-15319954D01*
X7418880Y-15329478D01*
X7361737Y-15329478D01*
X7342689Y-15319954D01*
X7333166Y-15310430D01*
X7542689Y-15310430D02*
X7552213Y-15319954D01*
X7542689Y-15329478D01*
X7533166Y-15319954D01*
X7542689Y-15310430D01*
X7542689Y-15329478D01*
X7628404Y-15148525D02*
X7637927Y-15139002D01*
X7656975Y-15129478D01*
X7704594Y-15129478D01*
X7723642Y-15139002D01*
X7733166Y-15148525D01*
X7742689Y-15167573D01*
X7742689Y-15186621D01*
X7733166Y-15215192D01*
X7618880Y-15329478D01*
X7742689Y-15329478D01*
X7866499Y-15129478D02*
X7885546Y-15129478D01*
X7904594Y-15139002D01*
X7914118Y-15148525D01*
X7923642Y-15167573D01*
X7933166Y-15205668D01*
X7933166Y-15253287D01*
X7923642Y-15291382D01*
X7914118Y-15310430D01*
X7904594Y-15319954D01*
X7885546Y-15329478D01*
X7866499Y-15329478D01*
X7847451Y-15319954D01*
X7837927Y-15310430D01*
X7828404Y-15291382D01*
X7818880Y-15253287D01*
X7818880Y-15205668D01*
X7828404Y-15167573D01*
X7837927Y-15148525D01*
X7847451Y-15139002D01*
X7866499Y-15129478D01*
X8056975Y-15129478D02*
X8076023Y-15129478D01*
X8095070Y-15139002D01*
X8104594Y-15148525D01*
X8114118Y-15167573D01*
X8123642Y-15205668D01*
X8123642Y-15253287D01*
X8114118Y-15291382D01*
X8104594Y-15310430D01*
X8095070Y-15319954D01*
X8076023Y-15329478D01*
X8056975Y-15329478D01*
X8037927Y-15319954D01*
X8028404Y-15310430D01*
X8018880Y-15291382D01*
X8009356Y-15253287D01*
X8009356Y-15205668D01*
X8018880Y-15167573D01*
X8028404Y-15148525D01*
X8037927Y-15139002D01*
X8056975Y-15129478D01*
X8209356Y-15329478D02*
X8209356Y-15196144D01*
X8209356Y-15215192D02*
X8218880Y-15205668D01*
X8237927Y-15196144D01*
X8266499Y-15196144D01*
X8285546Y-15205668D01*
X8295070Y-15224716D01*
X8295070Y-15329478D01*
X8295070Y-15224716D02*
X8304594Y-15205668D01*
X8323642Y-15196144D01*
X8352213Y-15196144D01*
X8371261Y-15205668D01*
X8380785Y-15224716D01*
X8380785Y-15329478D01*
X8476023Y-15329478D02*
X8476023Y-15196144D01*
X8476023Y-15215192D02*
X8485547Y-15205668D01*
X8504594Y-15196144D01*
X8533166Y-15196144D01*
X8552213Y-15205668D01*
X8561737Y-15224716D01*
X8561737Y-15329478D01*
X8561737Y-15224716D02*
X8571261Y-15205668D01*
X8590308Y-15196144D01*
X8618880Y-15196144D01*
X8637928Y-15205668D01*
X8647451Y-15224716D01*
X8647451Y-15329478D01*
X9037928Y-15119954D02*
X8866499Y-15377097D01*
X9295070Y-15129478D02*
X9314118Y-15129478D01*
X9333166Y-15139002D01*
X9342689Y-15148525D01*
X9352213Y-15167573D01*
X9361737Y-15205668D01*
X9361737Y-15253287D01*
X9352213Y-15291382D01*
X9342689Y-15310430D01*
X9333166Y-15319954D01*
X9314118Y-15329478D01*
X9295070Y-15329478D01*
X9276023Y-15319954D01*
X9266499Y-15310430D01*
X9256975Y-15291382D01*
X9247451Y-15253287D01*
X9247451Y-15205668D01*
X9256975Y-15167573D01*
X9266499Y-15148525D01*
X9276023Y-15139002D01*
X9295070Y-15129478D01*
X9447451Y-15310430D02*
X9456975Y-15319954D01*
X9447451Y-15329478D01*
X9437928Y-15319954D01*
X9447451Y-15310430D01*
X9447451Y-15329478D01*
X9647451Y-15329478D02*
X9533166Y-15329478D01*
X9590308Y-15329478D02*
X9590308Y-15129478D01*
X9571261Y-15158049D01*
X9552213Y-15177097D01*
X9533166Y-15186621D01*
X9723642Y-15148525D02*
X9733166Y-15139002D01*
X9752213Y-15129478D01*
X9799832Y-15129478D01*
X9818880Y-15139002D01*
X9828404Y-15148525D01*
X9837928Y-15167573D01*
X9837928Y-15186621D01*
X9828404Y-15215192D01*
X9714118Y-15329478D01*
X9837928Y-15329478D01*
X10009356Y-15129478D02*
X9971261Y-15129478D01*
X9952213Y-15139002D01*
X9942689Y-15148525D01*
X9923642Y-15177097D01*
X9914118Y-15215192D01*
X9914118Y-15291382D01*
X9923642Y-15310430D01*
X9933166Y-15319954D01*
X9952213Y-15329478D01*
X9990308Y-15329478D01*
X10009356Y-15319954D01*
X10018880Y-15310430D01*
X10028404Y-15291382D01*
X10028404Y-15243763D01*
X10018880Y-15224716D01*
X10009356Y-15215192D01*
X9990308Y-15205668D01*
X9952213Y-15205668D01*
X9933166Y-15215192D01*
X9923642Y-15224716D01*
X9914118Y-15243763D01*
X10152213Y-15129478D02*
X10171261Y-15129478D01*
X10190308Y-15139002D01*
X10199832Y-15148525D01*
X10209356Y-15167573D01*
X10218880Y-15205668D01*
X10218880Y-15253287D01*
X10209356Y-15291382D01*
X10199832Y-15310430D01*
X10190308Y-15319954D01*
X10171261Y-15329478D01*
X10152213Y-15329478D01*
X10133166Y-15319954D01*
X10123642Y-15310430D01*
X10114118Y-15291382D01*
X10104594Y-15253287D01*
X10104594Y-15205668D01*
X10114118Y-15167573D01*
X10123642Y-15148525D01*
X10133166Y-15139002D01*
X10152213Y-15129478D01*
X10295070Y-15129478D02*
X10295070Y-15167573D01*
X10371261Y-15129478D02*
X10371261Y-15167573D01*
X10666499Y-15405668D02*
X10656975Y-15396144D01*
X10637928Y-15367573D01*
X10628404Y-15348525D01*
X10618880Y-15319954D01*
X10609356Y-15272335D01*
X10609356Y-15234240D01*
X10618880Y-15186621D01*
X10628404Y-15158049D01*
X10637928Y-15139002D01*
X10656975Y-15110430D01*
X10666499Y-15100906D01*
X10828404Y-15196144D02*
X10828404Y-15329478D01*
X10780785Y-15119954D02*
X10733166Y-15262811D01*
X10856975Y-15262811D01*
X11085547Y-15329478D02*
X11085547Y-15129478D01*
X11171261Y-15329478D02*
X11171261Y-15224716D01*
X11161737Y-15205668D01*
X11142689Y-15196144D01*
X11114118Y-15196144D01*
X11095070Y-15205668D01*
X11085547Y-15215192D01*
X11295070Y-15329478D02*
X11276023Y-15319954D01*
X11266499Y-15310430D01*
X11256975Y-15291382D01*
X11256975Y-15234240D01*
X11266499Y-15215192D01*
X11276023Y-15205668D01*
X11295070Y-15196144D01*
X11323642Y-15196144D01*
X11342689Y-15205668D01*
X11352213Y-15215192D01*
X11361737Y-15234240D01*
X11361737Y-15291382D01*
X11352213Y-15310430D01*
X11342689Y-15319954D01*
X11323642Y-15329478D01*
X11295070Y-15329478D01*
X11476023Y-15329478D02*
X11456975Y-15319954D01*
X11447451Y-15300906D01*
X11447451Y-15129478D01*
X11628404Y-15319954D02*
X11609356Y-15329478D01*
X11571261Y-15329478D01*
X11552213Y-15319954D01*
X11542689Y-15300906D01*
X11542689Y-15224716D01*
X11552213Y-15205668D01*
X11571261Y-15196144D01*
X11609356Y-15196144D01*
X11628404Y-15205668D01*
X11637927Y-15224716D01*
X11637927Y-15243763D01*
X11542689Y-15262811D01*
X11714118Y-15319954D02*
X11733166Y-15329478D01*
X11771261Y-15329478D01*
X11790308Y-15319954D01*
X11799832Y-15300906D01*
X11799832Y-15291382D01*
X11790308Y-15272335D01*
X11771261Y-15262811D01*
X11742689Y-15262811D01*
X11723642Y-15253287D01*
X11714118Y-15234240D01*
X11714118Y-15224716D01*
X11723642Y-15205668D01*
X11742689Y-15196144D01*
X11771261Y-15196144D01*
X11790308Y-15205668D01*
X11866499Y-15405668D02*
X11876023Y-15396144D01*
X11895070Y-15367573D01*
X11904594Y-15348525D01*
X11914118Y-15319954D01*
X11923642Y-15272335D01*
X11923642Y-15234240D01*
X11914118Y-15186621D01*
X11904594Y-15158049D01*
X11895070Y-15139002D01*
X11876023Y-15110430D01*
X11866499Y-15100906D01*
M02*
