G04 #@! TF.GenerationSoftware,KiCad,Pcbnew,(6.0.10)*
G04 #@! TF.CreationDate,2023-07-07T16:54:03+02:00*
G04 #@! TF.ProjectId,SprinklerBoardESP32V3,53707269-6e6b-46c6-9572-426f61726445,rev?*
G04 #@! TF.SameCoordinates,Original*
G04 #@! TF.FileFunction,Copper,L2,Inr*
G04 #@! TF.FilePolarity,Positive*
%FSLAX46Y46*%
G04 Gerber Fmt 4.6, Leading zero omitted, Abs format (unit mm)*
G04 Created by KiCad (PCBNEW (6.0.10)) date 2023-07-07 16:54:03*
%MOMM*%
%LPD*%
G01*
G04 APERTURE LIST*
G04 Aperture macros list*
%AMRoundRect*
0 Rectangle with rounded corners*
0 $1 Rounding radius*
0 $2 $3 $4 $5 $6 $7 $8 $9 X,Y pos of 4 corners*
0 Add a 4 corners polygon primitive as box body*
4,1,4,$2,$3,$4,$5,$6,$7,$8,$9,$2,$3,0*
0 Add four circle primitives for the rounded corners*
1,1,$1+$1,$2,$3*
1,1,$1+$1,$4,$5*
1,1,$1+$1,$6,$7*
1,1,$1+$1,$8,$9*
0 Add four rect primitives between the rounded corners*
20,1,$1+$1,$2,$3,$4,$5,0*
20,1,$1+$1,$4,$5,$6,$7,0*
20,1,$1+$1,$6,$7,$8,$9,0*
20,1,$1+$1,$8,$9,$2,$3,0*%
G04 Aperture macros list end*
G04 #@! TA.AperFunction,ComponentPad*
%ADD10C,0.800000*%
G04 #@! TD*
G04 #@! TA.AperFunction,ComponentPad*
%ADD11C,6.400000*%
G04 #@! TD*
G04 #@! TA.AperFunction,ComponentPad*
%ADD12O,1.700000X1.700000*%
G04 #@! TD*
G04 #@! TA.AperFunction,ComponentPad*
%ADD13R,1.700000X1.700000*%
G04 #@! TD*
G04 #@! TA.AperFunction,ComponentPad*
%ADD14C,1.950000*%
G04 #@! TD*
G04 #@! TA.AperFunction,ComponentPad*
%ADD15RoundRect,0.250000X0.625000X-0.350000X0.625000X0.350000X-0.625000X0.350000X-0.625000X-0.350000X0*%
G04 #@! TD*
G04 #@! TA.AperFunction,ComponentPad*
%ADD16O,1.750000X1.200000*%
G04 #@! TD*
G04 #@! TA.AperFunction,ComponentPad*
%ADD17R,1.500000X2.500000*%
G04 #@! TD*
G04 #@! TA.AperFunction,ComponentPad*
%ADD18O,1.500000X2.500000*%
G04 #@! TD*
G04 #@! TA.AperFunction,ComponentPad*
%ADD19R,1.350000X1.350000*%
G04 #@! TD*
G04 #@! TA.AperFunction,ComponentPad*
%ADD20O,1.350000X1.350000*%
G04 #@! TD*
G04 #@! TA.AperFunction,ViaPad*
%ADD21C,0.800000*%
G04 #@! TD*
G04 #@! TA.AperFunction,Conductor*
%ADD22C,1.000000*%
G04 #@! TD*
G04 APERTURE END LIST*
D10*
X112645942Y-125850016D03*
X110245942Y-128250016D03*
X111942998Y-124152960D03*
D11*
X110245942Y-125850016D03*
D10*
X111942998Y-127547072D03*
X108548886Y-124152960D03*
X110245942Y-123450016D03*
X107845942Y-125850016D03*
X108548886Y-127547072D03*
D12*
X97950000Y-114810000D03*
X97950000Y-117350000D03*
X97950000Y-119890000D03*
X97950000Y-122430000D03*
D13*
X97950000Y-124970000D03*
D10*
X75000000Y-84600000D03*
X75000000Y-89400000D03*
D11*
X75000000Y-87000000D03*
D10*
X76697056Y-85302944D03*
X76697056Y-88697056D03*
X77400000Y-87000000D03*
X72600000Y-87000000D03*
X73302944Y-85302944D03*
X73302944Y-88697056D03*
D13*
X102074900Y-102850000D03*
D12*
X102074900Y-105390000D03*
X102074900Y-107930000D03*
X102074900Y-110470000D03*
D13*
X94325000Y-125000000D03*
D12*
X94325000Y-122460000D03*
X94325000Y-119920000D03*
X94325000Y-117380000D03*
X94325000Y-114840000D03*
D10*
X108552944Y-88697056D03*
X111947056Y-85302944D03*
X111947056Y-88697056D03*
X110250000Y-84600000D03*
X108552944Y-85302944D03*
X107850000Y-87000000D03*
X112650000Y-87000000D03*
X110250000Y-89400000D03*
D11*
X110250000Y-87000000D03*
D10*
X72595942Y-125849501D03*
D11*
X74995942Y-125849501D03*
D10*
X74995942Y-128249501D03*
X77395942Y-125849501D03*
X76692998Y-124152445D03*
X76692998Y-127546557D03*
X73298886Y-127546557D03*
X73298886Y-124152445D03*
X74995942Y-123449501D03*
D14*
X107457000Y-116466326D03*
X112457000Y-116466326D03*
X107457000Y-92564288D03*
X112457000Y-92564288D03*
X107457000Y-108498980D03*
X112457000Y-108498980D03*
X107457000Y-104515307D03*
X112457000Y-104515307D03*
X107457000Y-112482653D03*
X112457000Y-112482653D03*
D15*
X102800000Y-98050000D03*
D16*
X102800000Y-96050000D03*
X102800000Y-94050000D03*
D14*
X107457000Y-120449999D03*
X112457000Y-120449999D03*
X107457000Y-96547961D03*
X112457000Y-96547961D03*
X107457000Y-100531634D03*
X112457000Y-100531634D03*
D17*
X87552200Y-88935600D03*
D18*
X85012200Y-88935600D03*
X82472200Y-88935600D03*
D19*
X79950000Y-119650000D03*
D20*
X77950000Y-119650000D03*
X75950000Y-119650000D03*
X73950000Y-119650000D03*
D21*
X79550000Y-88850000D03*
X78400000Y-97300000D03*
X90150000Y-123700000D03*
X92950000Y-88250000D03*
X102750000Y-126050000D03*
X91850000Y-116050000D03*
X92375500Y-91921544D03*
X81600000Y-126900000D03*
X78079500Y-113962299D03*
X99450000Y-84650000D03*
X73937970Y-114917970D03*
X80600000Y-104200000D03*
X72225500Y-117550000D03*
X89200000Y-128200000D03*
X84350999Y-112662320D03*
X78079500Y-115050000D03*
X91950000Y-112450000D03*
X88850000Y-113650000D03*
X87500000Y-114450000D03*
X87600000Y-112400000D03*
X97850000Y-97050000D03*
X90450000Y-107250000D03*
X90450000Y-105850000D03*
X81350000Y-124150000D03*
X89950000Y-91950000D03*
X83250000Y-115100000D03*
X76500000Y-97050000D03*
X78274500Y-107450000D03*
X82200000Y-119750000D03*
X104750000Y-105650000D03*
X104750000Y-125950000D03*
X105254721Y-120306039D03*
X104750000Y-98350000D03*
X104991942Y-112530426D03*
X81850000Y-106450000D03*
X81950000Y-109150000D03*
X83250000Y-109250000D03*
X87050000Y-106750000D03*
X80450000Y-94600000D03*
X77950000Y-94400000D03*
X74250000Y-95650000D03*
X73050000Y-94800000D03*
D22*
X110782000Y-114791326D02*
X112457000Y-116466326D01*
X110782000Y-110173980D02*
X110782000Y-114791326D01*
X110782000Y-94239288D02*
X110782000Y-98856634D01*
X112457000Y-100531634D02*
X110782000Y-102206634D01*
X110782000Y-106823980D02*
X112457000Y-108498980D01*
X110782000Y-102206634D02*
X110782000Y-106823980D01*
X112457000Y-92564288D02*
X110782000Y-94239288D01*
X110782000Y-98856634D02*
X112457000Y-100531634D01*
X112457000Y-108498980D02*
X110782000Y-110173980D01*
X104750000Y-105650000D02*
X104750000Y-98350000D01*
X104991942Y-112530426D02*
X104750000Y-112772368D01*
X104750000Y-105650000D02*
X104750000Y-112288484D01*
X104750000Y-112288484D02*
X104991942Y-112530426D01*
X104750000Y-120810760D02*
X105254721Y-120306039D01*
X104750000Y-119801318D02*
X105254721Y-120306039D01*
X104750000Y-112772368D02*
X104750000Y-119801318D01*
X104750000Y-125950000D02*
X104750000Y-120810760D01*
G04 #@! TA.AperFunction,Conductor*
G36*
X78785115Y-83528502D02*
G01*
X78831608Y-83582158D01*
X78841712Y-83652432D01*
X78828503Y-83693166D01*
X78793760Y-83759202D01*
X78783811Y-83791244D01*
X78744440Y-83918039D01*
X78734654Y-83949554D01*
X78711227Y-84147489D01*
X78713096Y-84176000D01*
X78724263Y-84346380D01*
X78725684Y-84351976D01*
X78725685Y-84351981D01*
X78744112Y-84424535D01*
X78773326Y-84539564D01*
X78775743Y-84544807D01*
X78827264Y-84656565D01*
X78856772Y-84720573D01*
X78860105Y-84725289D01*
X78956284Y-84861379D01*
X78971807Y-84883344D01*
X79114578Y-85022425D01*
X79280304Y-85133160D01*
X79285607Y-85135438D01*
X79285610Y-85135440D01*
X79416914Y-85191852D01*
X79463435Y-85211839D01*
X79535516Y-85228149D01*
X79652201Y-85254553D01*
X79652207Y-85254554D01*
X79657838Y-85255828D01*
X79663609Y-85256055D01*
X79663611Y-85256055D01*
X79724556Y-85258449D01*
X79857001Y-85263653D01*
X79956959Y-85249160D01*
X80048535Y-85235883D01*
X80048540Y-85235882D01*
X80054256Y-85235053D01*
X80059728Y-85233195D01*
X80059730Y-85233195D01*
X80237532Y-85172839D01*
X80237534Y-85172838D01*
X80242996Y-85170984D01*
X80416899Y-85073594D01*
X80570143Y-84946143D01*
X80697594Y-84792899D01*
X80794984Y-84618996D01*
X80802102Y-84598029D01*
X80857195Y-84435730D01*
X80857195Y-84435728D01*
X80859053Y-84430256D01*
X80859882Y-84424540D01*
X80859883Y-84424535D01*
X80881894Y-84272721D01*
X80887653Y-84233001D01*
X80889146Y-84176000D01*
X80872446Y-83994253D01*
X80871437Y-83983273D01*
X80871436Y-83983270D01*
X80870908Y-83977519D01*
X80869108Y-83971134D01*
X80818373Y-83791244D01*
X80818372Y-83791242D01*
X80816805Y-83785685D01*
X80811179Y-83774275D01*
X80771181Y-83693168D01*
X80769731Y-83690227D01*
X80757541Y-83620286D01*
X80785100Y-83554856D01*
X80843658Y-83514713D01*
X80882737Y-83508500D01*
X99251880Y-83508500D01*
X99320001Y-83528502D01*
X99366494Y-83582158D01*
X99376598Y-83652432D01*
X99347104Y-83717012D01*
X99287378Y-83755396D01*
X99278075Y-83757747D01*
X99167712Y-83781206D01*
X99161682Y-83783891D01*
X99161681Y-83783891D01*
X98999278Y-83856197D01*
X98999276Y-83856198D01*
X98993248Y-83858882D01*
X98838747Y-83971134D01*
X98834326Y-83976044D01*
X98834325Y-83976045D01*
X98817931Y-83994253D01*
X98710960Y-84113056D01*
X98615473Y-84278444D01*
X98556458Y-84460072D01*
X98536496Y-84650000D01*
X98537186Y-84656565D01*
X98553832Y-84814939D01*
X98556458Y-84839928D01*
X98615473Y-85021556D01*
X98710960Y-85186944D01*
X98715378Y-85191851D01*
X98715379Y-85191852D01*
X98780029Y-85263653D01*
X98838747Y-85328866D01*
X98993248Y-85441118D01*
X98999276Y-85443802D01*
X98999278Y-85443803D01*
X99109409Y-85492836D01*
X99167712Y-85518794D01*
X99261112Y-85538647D01*
X99348056Y-85557128D01*
X99348061Y-85557128D01*
X99354513Y-85558500D01*
X99545487Y-85558500D01*
X99551939Y-85557128D01*
X99551944Y-85557128D01*
X99638888Y-85538647D01*
X99732288Y-85518794D01*
X99790591Y-85492836D01*
X99900722Y-85443803D01*
X99900724Y-85443802D01*
X99906752Y-85441118D01*
X100061253Y-85328866D01*
X100119971Y-85263653D01*
X100184621Y-85191852D01*
X100184622Y-85191851D01*
X100189040Y-85186944D01*
X100284527Y-85021556D01*
X100343542Y-84839928D01*
X100346169Y-84814939D01*
X100362814Y-84656565D01*
X100363504Y-84650000D01*
X100343542Y-84460072D01*
X100284527Y-84278444D01*
X100189040Y-84113056D01*
X100082070Y-83994253D01*
X100065675Y-83976045D01*
X100065674Y-83976044D01*
X100061253Y-83971134D01*
X99906752Y-83858882D01*
X99900724Y-83856198D01*
X99900722Y-83856197D01*
X99738319Y-83783891D01*
X99738318Y-83783891D01*
X99732288Y-83781206D01*
X99621923Y-83757747D01*
X99559449Y-83724018D01*
X99525128Y-83661869D01*
X99529856Y-83591030D01*
X99572132Y-83533992D01*
X99638533Y-83508865D01*
X99648120Y-83508500D01*
X104153315Y-83508500D01*
X104221436Y-83528502D01*
X104267929Y-83582158D01*
X104278033Y-83652432D01*
X104264823Y-83693167D01*
X104243760Y-83733202D01*
X104184654Y-83923554D01*
X104161227Y-84121489D01*
X104163096Y-84150000D01*
X104174263Y-84320380D01*
X104175684Y-84325976D01*
X104175685Y-84325981D01*
X104211407Y-84466635D01*
X104223326Y-84513564D01*
X104225743Y-84518807D01*
X104262265Y-84598029D01*
X104306772Y-84694573D01*
X104310105Y-84699289D01*
X104409499Y-84839928D01*
X104421807Y-84857344D01*
X104564578Y-84996425D01*
X104730304Y-85107160D01*
X104735607Y-85109438D01*
X104735610Y-85109440D01*
X104902698Y-85181226D01*
X104913435Y-85185839D01*
X104940009Y-85191852D01*
X105102201Y-85228553D01*
X105102207Y-85228554D01*
X105107838Y-85229828D01*
X105113609Y-85230055D01*
X105113611Y-85230055D01*
X105174556Y-85232449D01*
X105307001Y-85237653D01*
X105406959Y-85223160D01*
X105498535Y-85209883D01*
X105498540Y-85209882D01*
X105504256Y-85209053D01*
X105509728Y-85207195D01*
X105509730Y-85207195D01*
X105687532Y-85146839D01*
X105687534Y-85146838D01*
X105692996Y-85144984D01*
X105866899Y-85047594D01*
X106020143Y-84920143D01*
X106147594Y-84766899D01*
X106244984Y-84592996D01*
X106250698Y-84576165D01*
X106307195Y-84409730D01*
X106307195Y-84409728D01*
X106309053Y-84404256D01*
X106309882Y-84398540D01*
X106309883Y-84398535D01*
X106332361Y-84243500D01*
X106337653Y-84207001D01*
X106339146Y-84150000D01*
X106322786Y-83971958D01*
X106321437Y-83957273D01*
X106321436Y-83957270D01*
X106320908Y-83951519D01*
X106318799Y-83944039D01*
X106268373Y-83765244D01*
X106268372Y-83765242D01*
X106266805Y-83759685D01*
X106257838Y-83741500D01*
X106232553Y-83690228D01*
X106220363Y-83620285D01*
X106247923Y-83554856D01*
X106306481Y-83514713D01*
X106345559Y-83508500D01*
X108410055Y-83508500D01*
X108478176Y-83528502D01*
X108524669Y-83582158D01*
X108534773Y-83652432D01*
X108505279Y-83717012D01*
X108467258Y-83746767D01*
X108396397Y-83782872D01*
X108390687Y-83786169D01*
X108070265Y-83994253D01*
X108064939Y-83998123D01*
X107826165Y-84191478D01*
X107817700Y-84203733D01*
X107824034Y-84214824D01*
X113034310Y-89425100D01*
X113047386Y-89432241D01*
X113057753Y-89424784D01*
X113251877Y-89185061D01*
X113255747Y-89179735D01*
X113463831Y-88859313D01*
X113467128Y-88853603D01*
X113503042Y-88783117D01*
X113551790Y-88731502D01*
X113620705Y-88714436D01*
X113687907Y-88737337D01*
X113732059Y-88792934D01*
X113741309Y-88840331D01*
X113741042Y-91418774D01*
X113741039Y-91445367D01*
X113721030Y-91513486D01*
X113667369Y-91559973D01*
X113597094Y-91570070D01*
X113532517Y-91540570D01*
X113521846Y-91530154D01*
X113475690Y-91479429D01*
X113475688Y-91479428D01*
X113472212Y-91475607D01*
X113468161Y-91472408D01*
X113468157Y-91472404D01*
X113284825Y-91327617D01*
X113284821Y-91327615D01*
X113280770Y-91324415D01*
X113067205Y-91206521D01*
X113062336Y-91204797D01*
X113062332Y-91204795D01*
X112842127Y-91126816D01*
X112842123Y-91126815D01*
X112837252Y-91125090D01*
X112832159Y-91124183D01*
X112832156Y-91124182D01*
X112602177Y-91083216D01*
X112602171Y-91083215D01*
X112597088Y-91082310D01*
X112517380Y-91081336D01*
X112358332Y-91079393D01*
X112358330Y-91079393D01*
X112353162Y-91079330D01*
X112112024Y-91116229D01*
X111880150Y-91192017D01*
X111663769Y-91304658D01*
X111659636Y-91307761D01*
X111659633Y-91307763D01*
X111472825Y-91448023D01*
X111468690Y-91451128D01*
X111465118Y-91454866D01*
X111364676Y-91559973D01*
X111300153Y-91627492D01*
X111297239Y-91631764D01*
X111297238Y-91631765D01*
X111277719Y-91660379D01*
X111162684Y-91829014D01*
X111145705Y-91865593D01*
X111103477Y-91956565D01*
X111059974Y-92050283D01*
X110994783Y-92285355D01*
X110994234Y-92290492D01*
X110972715Y-92491852D01*
X110968860Y-92527919D01*
X110970958Y-92564288D01*
X110970966Y-92564434D01*
X110954919Y-92633594D01*
X110934270Y-92660784D01*
X110112621Y-93482433D01*
X110102478Y-93491535D01*
X110072975Y-93515256D01*
X110057338Y-93533891D01*
X110040709Y-93553709D01*
X110037528Y-93557357D01*
X110035885Y-93559169D01*
X110033691Y-93561363D01*
X110006358Y-93594637D01*
X110005696Y-93595435D01*
X109945846Y-93666762D01*
X109943278Y-93671432D01*
X109939897Y-93675549D01*
X109917537Y-93717251D01*
X109896023Y-93757374D01*
X109895394Y-93758533D01*
X109853538Y-93834669D01*
X109853535Y-93834677D01*
X109850567Y-93840075D01*
X109848955Y-93845157D01*
X109846438Y-93849851D01*
X109819238Y-93938819D01*
X109818918Y-93939847D01*
X109790765Y-94028594D01*
X109790171Y-94033890D01*
X109788613Y-94038986D01*
X109779770Y-94126045D01*
X109779218Y-94131475D01*
X109779089Y-94132681D01*
X109773500Y-94182515D01*
X109773500Y-94186042D01*
X109773445Y-94187027D01*
X109772998Y-94192707D01*
X109768626Y-94235750D01*
X109771207Y-94263056D01*
X109772941Y-94281397D01*
X109773500Y-94293255D01*
X109773500Y-98794791D01*
X109772763Y-98808398D01*
X109768676Y-98846022D01*
X109769213Y-98852157D01*
X109773050Y-98896022D01*
X109773379Y-98900848D01*
X109773500Y-98903320D01*
X109773500Y-98906403D01*
X109773801Y-98909471D01*
X109777690Y-98949140D01*
X109777812Y-98950453D01*
X109785913Y-99043047D01*
X109787400Y-99048166D01*
X109787920Y-99053467D01*
X109814791Y-99142468D01*
X109815126Y-99143601D01*
X109824646Y-99176366D01*
X109841091Y-99232970D01*
X109843544Y-99237702D01*
X109845084Y-99242803D01*
X109847978Y-99248246D01*
X109888731Y-99324894D01*
X109889343Y-99326060D01*
X109932108Y-99408560D01*
X109935431Y-99412723D01*
X109937934Y-99417430D01*
X109996755Y-99489552D01*
X109997446Y-99490408D01*
X110028738Y-99529607D01*
X110031242Y-99532111D01*
X110031884Y-99532829D01*
X110035585Y-99537162D01*
X110062935Y-99570696D01*
X110098267Y-99599925D01*
X110107037Y-99607906D01*
X110521745Y-100022613D01*
X110933364Y-100434232D01*
X110967389Y-100496545D01*
X110970060Y-100516070D01*
X110970958Y-100531634D01*
X110970966Y-100531779D01*
X110954920Y-100600939D01*
X110934270Y-100628130D01*
X110112621Y-101449779D01*
X110102478Y-101458881D01*
X110072975Y-101482602D01*
X110057100Y-101501521D01*
X110040709Y-101521055D01*
X110037528Y-101524703D01*
X110035885Y-101526515D01*
X110033691Y-101528709D01*
X110006358Y-101561983D01*
X110005696Y-101562781D01*
X109945846Y-101634108D01*
X109943278Y-101638778D01*
X109939897Y-101642895D01*
X109908860Y-101700779D01*
X109896023Y-101724720D01*
X109895394Y-101725879D01*
X109853538Y-101802015D01*
X109853535Y-101802023D01*
X109850567Y-101807421D01*
X109848955Y-101812503D01*
X109846438Y-101817197D01*
X109819238Y-101906165D01*
X109818918Y-101907193D01*
X109790765Y-101995940D01*
X109790171Y-102001236D01*
X109788613Y-102006332D01*
X109783875Y-102052979D01*
X109779218Y-102098821D01*
X109779089Y-102100027D01*
X109773500Y-102149861D01*
X109773500Y-102153388D01*
X109773445Y-102154373D01*
X109772998Y-102160053D01*
X109768626Y-102203096D01*
X109769206Y-102209227D01*
X109772941Y-102248743D01*
X109773500Y-102260601D01*
X109773500Y-106762137D01*
X109772763Y-106775744D01*
X109768676Y-106813368D01*
X109769893Y-106827279D01*
X109773050Y-106863368D01*
X109773379Y-106868194D01*
X109773500Y-106870666D01*
X109773500Y-106873749D01*
X109774577Y-106884729D01*
X109777690Y-106916486D01*
X109777812Y-106917799D01*
X109781685Y-106962064D01*
X109785913Y-107010393D01*
X109787400Y-107015512D01*
X109787920Y-107020813D01*
X109814791Y-107109814D01*
X109815126Y-107110947D01*
X109824646Y-107143712D01*
X109841091Y-107200316D01*
X109843544Y-107205048D01*
X109845084Y-107210149D01*
X109847978Y-107215592D01*
X109888731Y-107292240D01*
X109889343Y-107293406D01*
X109922374Y-107357128D01*
X109932108Y-107375906D01*
X109935431Y-107380069D01*
X109937934Y-107384776D01*
X109996755Y-107456898D01*
X109997446Y-107457754D01*
X110028738Y-107496953D01*
X110031242Y-107499457D01*
X110031884Y-107500175D01*
X110035585Y-107504508D01*
X110062935Y-107538042D01*
X110098267Y-107567271D01*
X110107037Y-107575252D01*
X110531694Y-107999908D01*
X110933364Y-108401578D01*
X110967389Y-108463891D01*
X110970060Y-108483416D01*
X110970958Y-108498980D01*
X110970966Y-108499125D01*
X110954920Y-108568285D01*
X110934270Y-108595476D01*
X110112621Y-109417125D01*
X110102478Y-109426227D01*
X110072975Y-109449948D01*
X110056277Y-109469848D01*
X110040709Y-109488401D01*
X110037528Y-109492049D01*
X110035885Y-109493861D01*
X110033691Y-109496055D01*
X110006358Y-109529329D01*
X110005696Y-109530127D01*
X109945846Y-109601454D01*
X109943278Y-109606124D01*
X109939897Y-109610241D01*
X109908860Y-109668125D01*
X109896023Y-109692066D01*
X109895394Y-109693225D01*
X109853538Y-109769361D01*
X109853535Y-109769369D01*
X109850567Y-109774767D01*
X109848955Y-109779849D01*
X109846438Y-109784543D01*
X109819238Y-109873511D01*
X109818918Y-109874539D01*
X109790765Y-109963286D01*
X109790171Y-109968582D01*
X109788613Y-109973678D01*
X109779997Y-110058500D01*
X109779218Y-110066167D01*
X109779089Y-110067373D01*
X109773500Y-110117207D01*
X109773500Y-110120734D01*
X109773445Y-110121719D01*
X109772998Y-110127399D01*
X109768626Y-110170442D01*
X109772623Y-110212721D01*
X109772941Y-110216089D01*
X109773500Y-110227947D01*
X109773500Y-114729483D01*
X109772763Y-114743090D01*
X109771350Y-114756102D01*
X109768676Y-114780714D01*
X109769213Y-114786849D01*
X109773050Y-114830714D01*
X109773379Y-114835540D01*
X109773500Y-114838012D01*
X109773500Y-114841095D01*
X109773801Y-114844163D01*
X109777690Y-114883832D01*
X109777812Y-114885145D01*
X109779979Y-114909908D01*
X109785913Y-114977739D01*
X109787400Y-114982858D01*
X109787920Y-114988159D01*
X109814791Y-115077160D01*
X109815126Y-115078293D01*
X109833889Y-115142872D01*
X109841091Y-115167662D01*
X109843544Y-115172394D01*
X109845084Y-115177495D01*
X109847978Y-115182938D01*
X109888731Y-115259586D01*
X109889343Y-115260752D01*
X109919430Y-115318794D01*
X109932108Y-115343252D01*
X109935431Y-115347415D01*
X109937934Y-115352122D01*
X109996755Y-115424244D01*
X109997446Y-115425100D01*
X110028738Y-115464299D01*
X110031242Y-115466803D01*
X110031884Y-115467521D01*
X110035585Y-115471854D01*
X110062935Y-115505388D01*
X110098267Y-115534617D01*
X110107037Y-115542598D01*
X110534606Y-115970166D01*
X110933364Y-116368924D01*
X110967389Y-116431237D01*
X110970060Y-116450766D01*
X110982903Y-116673497D01*
X110984040Y-116678543D01*
X110984041Y-116678549D01*
X111007107Y-116780901D01*
X111036533Y-116911473D01*
X111038475Y-116916255D01*
X111038476Y-116916259D01*
X111126367Y-117132708D01*
X111128311Y-117137495D01*
X111255772Y-117345492D01*
X111415492Y-117529879D01*
X111603183Y-117685703D01*
X111813804Y-117808779D01*
X112041698Y-117895804D01*
X112046764Y-117896835D01*
X112046765Y-117896835D01*
X112275667Y-117943406D01*
X112275671Y-117943406D01*
X112280746Y-117944439D01*
X112285922Y-117944629D01*
X112285924Y-117944629D01*
X112519363Y-117953189D01*
X112519367Y-117953189D01*
X112524527Y-117953378D01*
X112529647Y-117952722D01*
X112529649Y-117952722D01*
X112606377Y-117942893D01*
X112766494Y-117922381D01*
X112771443Y-117920896D01*
X112771449Y-117920895D01*
X112995200Y-117853766D01*
X112995199Y-117853766D01*
X113000150Y-117852281D01*
X113219219Y-117744960D01*
X113223424Y-117741960D01*
X113223430Y-117741957D01*
X113413614Y-117606300D01*
X113413616Y-117606298D01*
X113417818Y-117603301D01*
X113523385Y-117498102D01*
X113585757Y-117464186D01*
X113656564Y-117469374D01*
X113713325Y-117512020D01*
X113738019Y-117578584D01*
X113738325Y-117587366D01*
X113738308Y-117752596D01*
X113738147Y-119309995D01*
X113738145Y-119327897D01*
X113718136Y-119396016D01*
X113664475Y-119442503D01*
X113594200Y-119452600D01*
X113529623Y-119423100D01*
X113518952Y-119412684D01*
X113493514Y-119384729D01*
X113472212Y-119361318D01*
X113468161Y-119358119D01*
X113468157Y-119358115D01*
X113284825Y-119213328D01*
X113284821Y-119213326D01*
X113280770Y-119210126D01*
X113263643Y-119200671D01*
X113224759Y-119179206D01*
X113067205Y-119092232D01*
X113062336Y-119090508D01*
X113062332Y-119090506D01*
X112842127Y-119012527D01*
X112842123Y-119012526D01*
X112837252Y-119010801D01*
X112832159Y-119009894D01*
X112832156Y-119009893D01*
X112602177Y-118968927D01*
X112602171Y-118968926D01*
X112597088Y-118968021D01*
X112517380Y-118967047D01*
X112358332Y-118965104D01*
X112358330Y-118965104D01*
X112353162Y-118965041D01*
X112112024Y-119001940D01*
X111880150Y-119077728D01*
X111663769Y-119190369D01*
X111659636Y-119193472D01*
X111659633Y-119193474D01*
X111475943Y-119331393D01*
X111468690Y-119336839D01*
X111422925Y-119384729D01*
X111364418Y-119445954D01*
X111300153Y-119513203D01*
X111297239Y-119517475D01*
X111297238Y-119517476D01*
X111277719Y-119546090D01*
X111162684Y-119714725D01*
X111130258Y-119784580D01*
X111079244Y-119894481D01*
X111059974Y-119935994D01*
X110994783Y-120171066D01*
X110968860Y-120413630D01*
X110969157Y-120418782D01*
X110969157Y-120418786D01*
X110975560Y-120529829D01*
X110982903Y-120657170D01*
X110984040Y-120662216D01*
X110984041Y-120662222D01*
X111009596Y-120775615D01*
X111036533Y-120895146D01*
X111038475Y-120899928D01*
X111038476Y-120899932D01*
X111126147Y-121115839D01*
X111128311Y-121121168D01*
X111255772Y-121329165D01*
X111415492Y-121513552D01*
X111603183Y-121669376D01*
X111813804Y-121792452D01*
X112041698Y-121879477D01*
X112046764Y-121880508D01*
X112046765Y-121880508D01*
X112275667Y-121927079D01*
X112275671Y-121927079D01*
X112280746Y-121928112D01*
X112285922Y-121928302D01*
X112285924Y-121928302D01*
X112519363Y-121936862D01*
X112519367Y-121936862D01*
X112524527Y-121937051D01*
X112529647Y-121936395D01*
X112529649Y-121936395D01*
X112606377Y-121926566D01*
X112766494Y-121906054D01*
X112771443Y-121904569D01*
X112771449Y-121904568D01*
X112995200Y-121837439D01*
X112995199Y-121837439D01*
X113000150Y-121835954D01*
X113219219Y-121728633D01*
X113223424Y-121725633D01*
X113223430Y-121725630D01*
X113413614Y-121589973D01*
X113413616Y-121589971D01*
X113417818Y-121586974D01*
X113522973Y-121482186D01*
X113585343Y-121448270D01*
X113656150Y-121453458D01*
X113712912Y-121496104D01*
X113737606Y-121562667D01*
X113737912Y-121571450D01*
X113737856Y-122110675D01*
X113737661Y-123995906D01*
X113737659Y-124010510D01*
X113717650Y-124078629D01*
X113663989Y-124125116D01*
X113593714Y-124135213D01*
X113529137Y-124105713D01*
X113499392Y-124067700D01*
X113463070Y-123996413D01*
X113459773Y-123990703D01*
X113251689Y-123670281D01*
X113247819Y-123664955D01*
X113054464Y-123426181D01*
X113042209Y-123417716D01*
X113031118Y-123424050D01*
X107820842Y-128634326D01*
X107813701Y-128647402D01*
X107821158Y-128657769D01*
X108060877Y-128851890D01*
X108066214Y-128855767D01*
X108386627Y-129063846D01*
X108392336Y-129067143D01*
X108732753Y-129240594D01*
X108738778Y-129243276D01*
X108813524Y-129271968D01*
X108869952Y-129315053D01*
X108894129Y-129381806D01*
X108878378Y-129451034D01*
X108827701Y-129500756D01*
X108769826Y-129515591D01*
X105259880Y-129556121D01*
X105257725Y-129556126D01*
X85316164Y-129414697D01*
X81871155Y-129390264D01*
X81803178Y-129369779D01*
X81757067Y-129315795D01*
X81747462Y-129245451D01*
X81776238Y-129182437D01*
X81802113Y-129152142D01*
X81802121Y-129152130D01*
X81805328Y-129148376D01*
X81937616Y-128932502D01*
X82004370Y-128771345D01*
X82032611Y-128703164D01*
X82032612Y-128703162D01*
X82034505Y-128698591D01*
X82054821Y-128613968D01*
X82092454Y-128457216D01*
X82092455Y-128457210D01*
X82093609Y-128452403D01*
X82113474Y-128200000D01*
X82093609Y-127947597D01*
X82083203Y-127904250D01*
X82055359Y-127788273D01*
X82058906Y-127717365D01*
X82103817Y-127656923D01*
X82205909Y-127582749D01*
X82205911Y-127582747D01*
X82211253Y-127578866D01*
X82339040Y-127436944D01*
X82434527Y-127271556D01*
X82493542Y-127089928D01*
X82506491Y-126966730D01*
X82512814Y-126906565D01*
X82513504Y-126900000D01*
X82502373Y-126794097D01*
X82494232Y-126716635D01*
X82494232Y-126716633D01*
X82493542Y-126710072D01*
X82434527Y-126528444D01*
X82339040Y-126363056D01*
X82331434Y-126354608D01*
X82215675Y-126226045D01*
X82215674Y-126226044D01*
X82211253Y-126221134D01*
X82182165Y-126200000D01*
X88886526Y-126200000D01*
X88906391Y-126452403D01*
X88907545Y-126457210D01*
X88907546Y-126457216D01*
X88936436Y-126577551D01*
X88965495Y-126698591D01*
X88967388Y-126703162D01*
X88967389Y-126703164D01*
X89055594Y-126916109D01*
X89062384Y-126932502D01*
X89194672Y-127148376D01*
X89359102Y-127340898D01*
X89551624Y-127505328D01*
X89767498Y-127637616D01*
X89772068Y-127639509D01*
X89772072Y-127639511D01*
X89960029Y-127717365D01*
X90001409Y-127734505D01*
X90048994Y-127745929D01*
X90242784Y-127792454D01*
X90242790Y-127792455D01*
X90247597Y-127793609D01*
X90500000Y-127813474D01*
X90752403Y-127793609D01*
X90757210Y-127792455D01*
X90757216Y-127792454D01*
X90951006Y-127745929D01*
X90998591Y-127734505D01*
X91039971Y-127717365D01*
X91227928Y-127639511D01*
X91227932Y-127639509D01*
X91232502Y-127637616D01*
X91448376Y-127505328D01*
X91640898Y-127340898D01*
X91805328Y-127148376D01*
X91937616Y-126932502D01*
X91944407Y-126916109D01*
X92032611Y-126703164D01*
X92032612Y-126703162D01*
X92034505Y-126698591D01*
X92063564Y-126577551D01*
X92092454Y-126457216D01*
X92092455Y-126457210D01*
X92093609Y-126452403D01*
X92113474Y-126200000D01*
X92093609Y-125947597D01*
X92091449Y-125938596D01*
X92081735Y-125898134D01*
X92966500Y-125898134D01*
X92973255Y-125960316D01*
X93024385Y-126096705D01*
X93111739Y-126213261D01*
X93228295Y-126300615D01*
X93364684Y-126351745D01*
X93426866Y-126358500D01*
X95223134Y-126358500D01*
X95285316Y-126351745D01*
X95421705Y-126300615D01*
X95538261Y-126213261D01*
X95625615Y-126096705D01*
X95676745Y-125960316D01*
X95683500Y-125898134D01*
X95683500Y-125868134D01*
X96591500Y-125868134D01*
X96598255Y-125930316D01*
X96649385Y-126066705D01*
X96736739Y-126183261D01*
X96853295Y-126270615D01*
X96989684Y-126321745D01*
X97051866Y-126328500D01*
X98848134Y-126328500D01*
X98910316Y-126321745D01*
X99046705Y-126270615D01*
X99163261Y-126183261D01*
X99250615Y-126066705D01*
X99301745Y-125930316D01*
X99308500Y-125868134D01*
X99308500Y-124071866D01*
X99301745Y-124009684D01*
X99250615Y-123873295D01*
X99163261Y-123756739D01*
X99046705Y-123669385D01*
X98927687Y-123624767D01*
X98870923Y-123582125D01*
X98846223Y-123515564D01*
X98861430Y-123446215D01*
X98882977Y-123417535D01*
X98984052Y-123316812D01*
X98990730Y-123308965D01*
X99115003Y-123136020D01*
X99120313Y-123127183D01*
X99214670Y-122936267D01*
X99218469Y-122926672D01*
X99280377Y-122722910D01*
X99282555Y-122712837D01*
X99283986Y-122701962D01*
X99281775Y-122687778D01*
X99268617Y-122684000D01*
X96633225Y-122684000D01*
X96619694Y-122687973D01*
X96618257Y-122697966D01*
X96648565Y-122832446D01*
X96651645Y-122842275D01*
X96731770Y-123039603D01*
X96736413Y-123048794D01*
X96847694Y-123230388D01*
X96853777Y-123238699D01*
X96993213Y-123399667D01*
X97000577Y-123406879D01*
X97005522Y-123410985D01*
X97045156Y-123469889D01*
X97046653Y-123540870D01*
X97009537Y-123601392D01*
X96969264Y-123625910D01*
X96861705Y-123666232D01*
X96861704Y-123666233D01*
X96853295Y-123669385D01*
X96736739Y-123756739D01*
X96649385Y-123873295D01*
X96598255Y-124009684D01*
X96591500Y-124071866D01*
X96591500Y-125868134D01*
X95683500Y-125868134D01*
X95683500Y-124101866D01*
X95676745Y-124039684D01*
X95625615Y-123903295D01*
X95538261Y-123786739D01*
X95421705Y-123699385D01*
X95342726Y-123669777D01*
X95302687Y-123654767D01*
X95245923Y-123612125D01*
X95221223Y-123545564D01*
X95236430Y-123476215D01*
X95257977Y-123447535D01*
X95359052Y-123346812D01*
X95365730Y-123338965D01*
X95490003Y-123166020D01*
X95495313Y-123157183D01*
X95589670Y-122966267D01*
X95593469Y-122956672D01*
X95655377Y-122752910D01*
X95657555Y-122742837D01*
X95658986Y-122731962D01*
X95656775Y-122717778D01*
X95643617Y-122714000D01*
X93008225Y-122714000D01*
X92994694Y-122717973D01*
X92993257Y-122727966D01*
X93023565Y-122862446D01*
X93026645Y-122872275D01*
X93106770Y-123069603D01*
X93111413Y-123078794D01*
X93222694Y-123260388D01*
X93228777Y-123268699D01*
X93368213Y-123429667D01*
X93375577Y-123436879D01*
X93380522Y-123440985D01*
X93420156Y-123499889D01*
X93421653Y-123570870D01*
X93384537Y-123631392D01*
X93344264Y-123655910D01*
X93236705Y-123696232D01*
X93236704Y-123696233D01*
X93228295Y-123699385D01*
X93111739Y-123786739D01*
X93024385Y-123903295D01*
X92973255Y-124039684D01*
X92966500Y-124101866D01*
X92966500Y-125898134D01*
X92081735Y-125898134D01*
X92035660Y-125706221D01*
X92034505Y-125701409D01*
X92022622Y-125672721D01*
X91939511Y-125472072D01*
X91939509Y-125472068D01*
X91937616Y-125467498D01*
X91805328Y-125251624D01*
X91640898Y-125059102D01*
X91448376Y-124894672D01*
X91232502Y-124762384D01*
X91227932Y-124760491D01*
X91227928Y-124760489D01*
X91003164Y-124667389D01*
X91003162Y-124667388D01*
X90998591Y-124665495D01*
X90789437Y-124615282D01*
X90727868Y-124579930D01*
X90695185Y-124516903D01*
X90701765Y-124446212D01*
X90744790Y-124390827D01*
X90755909Y-124382749D01*
X90755911Y-124382747D01*
X90761253Y-124378866D01*
X90889040Y-124236944D01*
X90961083Y-124112162D01*
X90981223Y-124077279D01*
X90981224Y-124077278D01*
X90984527Y-124071556D01*
X91043542Y-123889928D01*
X91044407Y-123881703D01*
X91062814Y-123706565D01*
X91063504Y-123700000D01*
X91060380Y-123670281D01*
X91044232Y-123516635D01*
X91044232Y-123516633D01*
X91043542Y-123510072D01*
X90984527Y-123328444D01*
X90956041Y-123279104D01*
X90892341Y-123168774D01*
X90889040Y-123163056D01*
X90859122Y-123129828D01*
X90765675Y-123026045D01*
X90765674Y-123026044D01*
X90761253Y-123021134D01*
X90606752Y-122908882D01*
X90600724Y-122906198D01*
X90600722Y-122906197D01*
X90438319Y-122833891D01*
X90438318Y-122833891D01*
X90432288Y-122831206D01*
X90338887Y-122811353D01*
X90251944Y-122792872D01*
X90251939Y-122792872D01*
X90245487Y-122791500D01*
X90054513Y-122791500D01*
X90048061Y-122792872D01*
X90048056Y-122792872D01*
X89961113Y-122811353D01*
X89867712Y-122831206D01*
X89861682Y-122833891D01*
X89861681Y-122833891D01*
X89699278Y-122906197D01*
X89699276Y-122906198D01*
X89693248Y-122908882D01*
X89538747Y-123021134D01*
X89534326Y-123026044D01*
X89534325Y-123026045D01*
X89440879Y-123129828D01*
X89410960Y-123163056D01*
X89407659Y-123168774D01*
X89343960Y-123279104D01*
X89315473Y-123328444D01*
X89256458Y-123510072D01*
X89255768Y-123516633D01*
X89255768Y-123516635D01*
X89239620Y-123670281D01*
X89236496Y-123700000D01*
X89237186Y-123706565D01*
X89255594Y-123881703D01*
X89256458Y-123889928D01*
X89315473Y-124071556D01*
X89318776Y-124077278D01*
X89318777Y-124077279D01*
X89338917Y-124112162D01*
X89410960Y-124236944D01*
X89538747Y-124378866D01*
X89693248Y-124491118D01*
X89699276Y-124493802D01*
X89699278Y-124493803D01*
X89776745Y-124528293D01*
X89830840Y-124574273D01*
X89851490Y-124642200D01*
X89832138Y-124710508D01*
X89776207Y-124757706D01*
X89776481Y-124758243D01*
X89774185Y-124759413D01*
X89773718Y-124759807D01*
X89772078Y-124760486D01*
X89772069Y-124760491D01*
X89767498Y-124762384D01*
X89551624Y-124894672D01*
X89359102Y-125059102D01*
X89194672Y-125251624D01*
X89062384Y-125467498D01*
X89060491Y-125472068D01*
X89060489Y-125472072D01*
X88977378Y-125672721D01*
X88965495Y-125701409D01*
X88964340Y-125706221D01*
X88908552Y-125938596D01*
X88906391Y-125947597D01*
X88886526Y-126200000D01*
X82182165Y-126200000D01*
X82108987Y-126146833D01*
X82062094Y-126112763D01*
X82062093Y-126112762D01*
X82056752Y-126108882D01*
X82050724Y-126106198D01*
X82050722Y-126106197D01*
X81888319Y-126033891D01*
X81888318Y-126033891D01*
X81882288Y-126031206D01*
X81783807Y-126010273D01*
X81701944Y-125992872D01*
X81701939Y-125992872D01*
X81695487Y-125991500D01*
X81504513Y-125991500D01*
X81498061Y-125992872D01*
X81498056Y-125992872D01*
X81416193Y-126010273D01*
X81317712Y-126031206D01*
X81311682Y-126033891D01*
X81311681Y-126033891D01*
X81149278Y-126106197D01*
X81149276Y-126106198D01*
X81143248Y-126108882D01*
X81137907Y-126112762D01*
X81137906Y-126112763D01*
X81091013Y-126146833D01*
X80988747Y-126221134D01*
X80984326Y-126226044D01*
X80984325Y-126226045D01*
X80868567Y-126354608D01*
X80860960Y-126363056D01*
X80765473Y-126528444D01*
X80764625Y-126527955D01*
X80722467Y-126577551D01*
X80654540Y-126598198D01*
X80643458Y-126597816D01*
X80504930Y-126586914D01*
X80500000Y-126586526D01*
X80247597Y-126606391D01*
X80242790Y-126607545D01*
X80242784Y-126607546D01*
X80086032Y-126645179D01*
X80001409Y-126665495D01*
X79996838Y-126667388D01*
X79996836Y-126667389D01*
X79772072Y-126760489D01*
X79772068Y-126760491D01*
X79767498Y-126762384D01*
X79551624Y-126894672D01*
X79359102Y-127059102D01*
X79194672Y-127251624D01*
X79062384Y-127467498D01*
X79060491Y-127472068D01*
X79060489Y-127472072D01*
X78967389Y-127696836D01*
X78965495Y-127701409D01*
X78957272Y-127735660D01*
X78916798Y-127904250D01*
X78906391Y-127947597D01*
X78886526Y-128200000D01*
X78906391Y-128452403D01*
X78907545Y-128457210D01*
X78907546Y-128457216D01*
X78945179Y-128613968D01*
X78965495Y-128698591D01*
X78967388Y-128703162D01*
X78967389Y-128703164D01*
X78995631Y-128771345D01*
X79062384Y-128932502D01*
X79194672Y-129148376D01*
X79197881Y-129152133D01*
X79197883Y-129152136D01*
X79207037Y-129162853D01*
X79236070Y-129227641D01*
X79225467Y-129297842D01*
X79178593Y-129351166D01*
X79110334Y-129370683D01*
X76808770Y-129354360D01*
X76740793Y-129333875D01*
X76694682Y-129279891D01*
X76685077Y-129209547D01*
X76715027Y-129145177D01*
X76752461Y-129116096D01*
X76849548Y-129066628D01*
X76855257Y-129063331D01*
X77175670Y-128855252D01*
X77181007Y-128851375D01*
X77419777Y-128658023D01*
X77428242Y-128645768D01*
X77421908Y-128634677D01*
X74725827Y-125938596D01*
X74691801Y-125876284D01*
X74693636Y-125850633D01*
X75360350Y-125850633D01*
X75360481Y-125852466D01*
X75364732Y-125859081D01*
X77780252Y-128274601D01*
X77793328Y-128281742D01*
X77803695Y-128274285D01*
X77997819Y-128034562D01*
X78001689Y-128029236D01*
X78209773Y-127708814D01*
X78213070Y-127703104D01*
X78386520Y-127362690D01*
X78389202Y-127356665D01*
X78526113Y-126999999D01*
X78528154Y-126993717D01*
X78627036Y-126624685D01*
X78628407Y-126618235D01*
X78688176Y-126240872D01*
X78688862Y-126234334D01*
X78708858Y-125852802D01*
X78708858Y-125846200D01*
X78688862Y-125464668D01*
X78688176Y-125458130D01*
X78628407Y-125080767D01*
X78627036Y-125074317D01*
X78528154Y-124705285D01*
X78526113Y-124699003D01*
X78389202Y-124342337D01*
X78386520Y-124336312D01*
X78291589Y-124150000D01*
X80436496Y-124150000D01*
X80456458Y-124339928D01*
X80515473Y-124521556D01*
X80518776Y-124527278D01*
X80518777Y-124527279D01*
X80534252Y-124554082D01*
X80610960Y-124686944D01*
X80615378Y-124691851D01*
X80615379Y-124691852D01*
X80627474Y-124705285D01*
X80738747Y-124828866D01*
X80893248Y-124941118D01*
X80899276Y-124943802D01*
X80899278Y-124943803D01*
X80907173Y-124947318D01*
X81067712Y-125018794D01*
X81161113Y-125038647D01*
X81248056Y-125057128D01*
X81248061Y-125057128D01*
X81254513Y-125058500D01*
X81445487Y-125058500D01*
X81451939Y-125057128D01*
X81451944Y-125057128D01*
X81538887Y-125038647D01*
X81632288Y-125018794D01*
X81792827Y-124947318D01*
X81800722Y-124943803D01*
X81800724Y-124943802D01*
X81806752Y-124941118D01*
X81961253Y-124828866D01*
X82072526Y-124705285D01*
X82084621Y-124691852D01*
X82084622Y-124691851D01*
X82089040Y-124686944D01*
X82165748Y-124554082D01*
X82181223Y-124527279D01*
X82181224Y-124527278D01*
X82184527Y-124521556D01*
X82243542Y-124339928D01*
X82263504Y-124150000D01*
X82252735Y-124047540D01*
X82244232Y-123966635D01*
X82244232Y-123966633D01*
X82243542Y-123960072D01*
X82184527Y-123778444D01*
X82089040Y-123613056D01*
X81961253Y-123471134D01*
X81806752Y-123358882D01*
X81800724Y-123356198D01*
X81800722Y-123356197D01*
X81638319Y-123283891D01*
X81638318Y-123283891D01*
X81632288Y-123281206D01*
X81534348Y-123260388D01*
X81451944Y-123242872D01*
X81451939Y-123242872D01*
X81445487Y-123241500D01*
X81254513Y-123241500D01*
X81248061Y-123242872D01*
X81248056Y-123242872D01*
X81165652Y-123260388D01*
X81067712Y-123281206D01*
X81061682Y-123283891D01*
X81061681Y-123283891D01*
X80899278Y-123356197D01*
X80899276Y-123356198D01*
X80893248Y-123358882D01*
X80738747Y-123471134D01*
X80610960Y-123613056D01*
X80515473Y-123778444D01*
X80456458Y-123960072D01*
X80455768Y-123966633D01*
X80455768Y-123966635D01*
X80447265Y-124047540D01*
X80436496Y-124150000D01*
X78291589Y-124150000D01*
X78213070Y-123995898D01*
X78209773Y-123990188D01*
X78001689Y-123669766D01*
X77997819Y-123664440D01*
X77804464Y-123425666D01*
X77792209Y-123417201D01*
X77781118Y-123423535D01*
X75367964Y-125836689D01*
X75360350Y-125850633D01*
X74693636Y-125850633D01*
X74696866Y-125805469D01*
X74725827Y-125760406D01*
X77421042Y-123065191D01*
X77428183Y-123052115D01*
X77420726Y-123041748D01*
X77181007Y-122847627D01*
X77175670Y-122843750D01*
X76855257Y-122635671D01*
X76849548Y-122632374D01*
X76509131Y-122458923D01*
X76503106Y-122456241D01*
X76146440Y-122319330D01*
X76140158Y-122317289D01*
X75771126Y-122218407D01*
X75764676Y-122217036D01*
X75387313Y-122157267D01*
X75380775Y-122156581D01*
X74999243Y-122136585D01*
X74992641Y-122136585D01*
X74611109Y-122156581D01*
X74604571Y-122157267D01*
X74227208Y-122217036D01*
X74220758Y-122218407D01*
X73851726Y-122317289D01*
X73845444Y-122319330D01*
X73528673Y-122440927D01*
X73457909Y-122446666D01*
X73395276Y-122413236D01*
X73360659Y-122351250D01*
X73360926Y-122304528D01*
X73359053Y-122304256D01*
X73387653Y-122107001D01*
X73389146Y-122050000D01*
X73377843Y-121926987D01*
X73371437Y-121857273D01*
X73371436Y-121857270D01*
X73370908Y-121851519D01*
X73366519Y-121835954D01*
X73318373Y-121665244D01*
X73318372Y-121665242D01*
X73316805Y-121659685D01*
X73290690Y-121606727D01*
X73231205Y-121486104D01*
X73228650Y-121480923D01*
X73218433Y-121467240D01*
X73181983Y-121418428D01*
X73109393Y-121321219D01*
X72963030Y-121185922D01*
X72958147Y-121182841D01*
X72958143Y-121182838D01*
X72799346Y-121082645D01*
X72799341Y-121082643D01*
X72794462Y-121079564D01*
X72609334Y-121005705D01*
X72413847Y-120966820D01*
X72408072Y-120966744D01*
X72408068Y-120966744D01*
X72308588Y-120965442D01*
X72214547Y-120964211D01*
X72208850Y-120965190D01*
X72208849Y-120965190D01*
X72046839Y-120993029D01*
X72018108Y-120997966D01*
X71831111Y-121066953D01*
X71826149Y-121069905D01*
X71695368Y-121147711D01*
X71626597Y-121165351D01*
X71559207Y-121143010D01*
X71514593Y-121087782D01*
X71504945Y-121039413D01*
X71505093Y-119618887D01*
X72761837Y-119618887D01*
X72776063Y-119835933D01*
X72777484Y-119841529D01*
X72777485Y-119841534D01*
X72817512Y-119999139D01*
X72829605Y-120046753D01*
X72920668Y-120244285D01*
X72946775Y-120281226D01*
X73011730Y-120373134D01*
X73046204Y-120421914D01*
X73202009Y-120573692D01*
X73382863Y-120694536D01*
X73388171Y-120696817D01*
X73388172Y-120696817D01*
X73577409Y-120778119D01*
X73577412Y-120778120D01*
X73582712Y-120780397D01*
X73588342Y-120781671D01*
X73686464Y-120803874D01*
X73794860Y-120828402D01*
X73800631Y-120828629D01*
X73800633Y-120828629D01*
X73873620Y-120831496D01*
X74012205Y-120836941D01*
X74227466Y-120805730D01*
X74232930Y-120803875D01*
X74232935Y-120803874D01*
X74427963Y-120737671D01*
X74427968Y-120737669D01*
X74433435Y-120735813D01*
X74445619Y-120728990D01*
X74512872Y-120691326D01*
X74623213Y-120629532D01*
X74790446Y-120490446D01*
X74850252Y-120418537D01*
X74909189Y-120378953D01*
X74980171Y-120377517D01*
X75042913Y-120417258D01*
X75046204Y-120421914D01*
X75050346Y-120425949D01*
X75050348Y-120425951D01*
X75113597Y-120487565D01*
X75202009Y-120573692D01*
X75382863Y-120694536D01*
X75388171Y-120696817D01*
X75388172Y-120696817D01*
X75577409Y-120778119D01*
X75577412Y-120778120D01*
X75582712Y-120780397D01*
X75588342Y-120781671D01*
X75686464Y-120803874D01*
X75794860Y-120828402D01*
X75800631Y-120828629D01*
X75800633Y-120828629D01*
X75873620Y-120831496D01*
X76012205Y-120836941D01*
X76227466Y-120805730D01*
X76232930Y-120803875D01*
X76232935Y-120803874D01*
X76427963Y-120737671D01*
X76427968Y-120737669D01*
X76433435Y-120735813D01*
X76445619Y-120728990D01*
X76512872Y-120691326D01*
X76623213Y-120629532D01*
X76790446Y-120490446D01*
X76850252Y-120418537D01*
X76909189Y-120378953D01*
X76980171Y-120377517D01*
X77042913Y-120417258D01*
X77046204Y-120421914D01*
X77050346Y-120425949D01*
X77050348Y-120425951D01*
X77113597Y-120487565D01*
X77202009Y-120573692D01*
X77382863Y-120694536D01*
X77388171Y-120696817D01*
X77388172Y-120696817D01*
X77577409Y-120778119D01*
X77577412Y-120778120D01*
X77582712Y-120780397D01*
X77588342Y-120781671D01*
X77686464Y-120803874D01*
X77794860Y-120828402D01*
X77800631Y-120828629D01*
X77800633Y-120828629D01*
X77873620Y-120831496D01*
X78012205Y-120836941D01*
X78227466Y-120805730D01*
X78232930Y-120803875D01*
X78232935Y-120803874D01*
X78427963Y-120737671D01*
X78427968Y-120737669D01*
X78433435Y-120735813D01*
X78445619Y-120728990D01*
X78512872Y-120691326D01*
X78623213Y-120629532D01*
X78671932Y-120589013D01*
X78737096Y-120560832D01*
X78807151Y-120572356D01*
X78853327Y-120610322D01*
X78911739Y-120688261D01*
X79028295Y-120775615D01*
X79164684Y-120826745D01*
X79226866Y-120833500D01*
X80673134Y-120833500D01*
X80735316Y-120826745D01*
X80871705Y-120775615D01*
X80988261Y-120688261D01*
X81075615Y-120571705D01*
X81126745Y-120435316D01*
X81133500Y-120373134D01*
X81133500Y-120190005D01*
X81153502Y-120121884D01*
X81207158Y-120075391D01*
X81277432Y-120065287D01*
X81342012Y-120094781D01*
X81368619Y-120127005D01*
X81460960Y-120286944D01*
X81465378Y-120291851D01*
X81465379Y-120291852D01*
X81575028Y-120413630D01*
X81588747Y-120428866D01*
X81686419Y-120499829D01*
X81693008Y-120504616D01*
X81743248Y-120541118D01*
X81749276Y-120543802D01*
X81749278Y-120543803D01*
X81911681Y-120616109D01*
X81917712Y-120618794D01*
X82011113Y-120638647D01*
X82098056Y-120657128D01*
X82098061Y-120657128D01*
X82104513Y-120658500D01*
X82295487Y-120658500D01*
X82301939Y-120657128D01*
X82301944Y-120657128D01*
X82388887Y-120638647D01*
X82482288Y-120618794D01*
X82488319Y-120616109D01*
X82650722Y-120543803D01*
X82650724Y-120543802D01*
X82656752Y-120541118D01*
X82706993Y-120504616D01*
X82713581Y-120499829D01*
X82811253Y-120428866D01*
X82824972Y-120413630D01*
X82934621Y-120291852D01*
X82934622Y-120291851D01*
X82939040Y-120286944D01*
X83002875Y-120176378D01*
X83031223Y-120127279D01*
X83031224Y-120127278D01*
X83034527Y-120121556D01*
X83093542Y-119939928D01*
X83095637Y-119920000D01*
X83099137Y-119886695D01*
X92962251Y-119886695D01*
X92962548Y-119891848D01*
X92962548Y-119891851D01*
X92973802Y-120087022D01*
X92975110Y-120109715D01*
X92976247Y-120114761D01*
X92976248Y-120114767D01*
X92979068Y-120127279D01*
X93024222Y-120327639D01*
X93067945Y-120435316D01*
X93097873Y-120509020D01*
X93108266Y-120534616D01*
X93143478Y-120592077D01*
X93207663Y-120696817D01*
X93224987Y-120725088D01*
X93371250Y-120893938D01*
X93543126Y-121036632D01*
X93598244Y-121068840D01*
X93616955Y-121079774D01*
X93665679Y-121131412D01*
X93678750Y-121201195D01*
X93652019Y-121266967D01*
X93611562Y-121300327D01*
X93603457Y-121304546D01*
X93594738Y-121310036D01*
X93424433Y-121437905D01*
X93416726Y-121444748D01*
X93269590Y-121598717D01*
X93263104Y-121606727D01*
X93143098Y-121782649D01*
X93138000Y-121791623D01*
X93048338Y-121984783D01*
X93044775Y-121994470D01*
X92989389Y-122194183D01*
X92990912Y-122202607D01*
X93003292Y-122206000D01*
X95643344Y-122206000D01*
X95656875Y-122202027D01*
X95658180Y-122192947D01*
X95616214Y-122025875D01*
X95612894Y-122016124D01*
X95527972Y-121820814D01*
X95523105Y-121811739D01*
X95407426Y-121632926D01*
X95401136Y-121624757D01*
X95257806Y-121467240D01*
X95250273Y-121460215D01*
X95083139Y-121328222D01*
X95074556Y-121322520D01*
X95037602Y-121302120D01*
X94987631Y-121251687D01*
X94972859Y-121182245D01*
X94997975Y-121115839D01*
X95025327Y-121089232D01*
X95065053Y-121060896D01*
X95204860Y-120961173D01*
X95363096Y-120803489D01*
X95380861Y-120778767D01*
X95490435Y-120626277D01*
X95493453Y-120622077D01*
X95499196Y-120610458D01*
X95590136Y-120426453D01*
X95590137Y-120426451D01*
X95592430Y-120421811D01*
X95657370Y-120208069D01*
X95686529Y-119986590D01*
X95687516Y-119946206D01*
X95688074Y-119923365D01*
X95688074Y-119923361D01*
X95688156Y-119920000D01*
X95682951Y-119856695D01*
X96587251Y-119856695D01*
X96587548Y-119861848D01*
X96587548Y-119861851D01*
X96594806Y-119987731D01*
X96600110Y-120079715D01*
X96601247Y-120084761D01*
X96601248Y-120084767D01*
X96608009Y-120114767D01*
X96649222Y-120297639D01*
X96733266Y-120504616D01*
X96757280Y-120543803D01*
X96841404Y-120681081D01*
X96849987Y-120695088D01*
X96996250Y-120863938D01*
X97117030Y-120964211D01*
X97163300Y-121002625D01*
X97168126Y-121006632D01*
X97203995Y-121027592D01*
X97241955Y-121049774D01*
X97290679Y-121101412D01*
X97303750Y-121171195D01*
X97277019Y-121236967D01*
X97236562Y-121270327D01*
X97228457Y-121274546D01*
X97219738Y-121280036D01*
X97049433Y-121407905D01*
X97041726Y-121414748D01*
X96894590Y-121568717D01*
X96888104Y-121576727D01*
X96768098Y-121752649D01*
X96763000Y-121761623D01*
X96673338Y-121954783D01*
X96669775Y-121964470D01*
X96614389Y-122164183D01*
X96615912Y-122172607D01*
X96628292Y-122176000D01*
X99268344Y-122176000D01*
X99281875Y-122172027D01*
X99283180Y-122162947D01*
X99241214Y-121995875D01*
X99237894Y-121986124D01*
X99152972Y-121790814D01*
X99148105Y-121781739D01*
X99032426Y-121602926D01*
X99026136Y-121594757D01*
X98882806Y-121437240D01*
X98875273Y-121430215D01*
X98708139Y-121298222D01*
X98699556Y-121292520D01*
X98662602Y-121272120D01*
X98612631Y-121221687D01*
X98597859Y-121152245D01*
X98622975Y-121085839D01*
X98650327Y-121059232D01*
X98684560Y-121034814D01*
X98829860Y-120931173D01*
X98861211Y-120899932D01*
X98934270Y-120827127D01*
X98988096Y-120773489D01*
X98998868Y-120758499D01*
X99115435Y-120596277D01*
X99118453Y-120592077D01*
X99127540Y-120573692D01*
X99215136Y-120396453D01*
X99215137Y-120396451D01*
X99217430Y-120391811D01*
X99275143Y-120201856D01*
X99280865Y-120183023D01*
X99280865Y-120183021D01*
X99282370Y-120178069D01*
X99311529Y-119956590D01*
X99311783Y-119946206D01*
X99313074Y-119893365D01*
X99313074Y-119893361D01*
X99313156Y-119890000D01*
X99294852Y-119667361D01*
X99240431Y-119450702D01*
X99151354Y-119245840D01*
X99052230Y-119092617D01*
X99032822Y-119062617D01*
X99032820Y-119062614D01*
X99030014Y-119058277D01*
X98879670Y-118893051D01*
X98875619Y-118889852D01*
X98875615Y-118889848D01*
X98708414Y-118757800D01*
X98708410Y-118757798D01*
X98704359Y-118754598D01*
X98663053Y-118731796D01*
X98613084Y-118681364D01*
X98598312Y-118611921D01*
X98623428Y-118545516D01*
X98650780Y-118518909D01*
X98694603Y-118487650D01*
X98829860Y-118391173D01*
X98988096Y-118233489D01*
X99022876Y-118185088D01*
X99115435Y-118056277D01*
X99118453Y-118052077D01*
X99182553Y-117922381D01*
X99215136Y-117856453D01*
X99215137Y-117856451D01*
X99217430Y-117851811D01*
X99282370Y-117638069D01*
X99311529Y-117416590D01*
X99313156Y-117350000D01*
X99294852Y-117127361D01*
X99240431Y-116910702D01*
X99151354Y-116705840D01*
X99030014Y-116518277D01*
X98879670Y-116353051D01*
X98875619Y-116349852D01*
X98875615Y-116349848D01*
X98708414Y-116217800D01*
X98708410Y-116217798D01*
X98704359Y-116214598D01*
X98663053Y-116191796D01*
X98613084Y-116141364D01*
X98598312Y-116071921D01*
X98623428Y-116005516D01*
X98650780Y-115978909D01*
X98694631Y-115947630D01*
X98829860Y-115851173D01*
X98854650Y-115826470D01*
X98945688Y-115735749D01*
X98988096Y-115693489D01*
X99022876Y-115645088D01*
X99115435Y-115516277D01*
X99118453Y-115512077D01*
X99124119Y-115500614D01*
X99215136Y-115316453D01*
X99215137Y-115316451D01*
X99217430Y-115311811D01*
X99282370Y-115098069D01*
X99311529Y-114876590D01*
X99311611Y-114873240D01*
X99313074Y-114813365D01*
X99313074Y-114813361D01*
X99313156Y-114810000D01*
X99294852Y-114587361D01*
X99240431Y-114370702D01*
X99151354Y-114165840D01*
X99052230Y-114012617D01*
X99032822Y-113982617D01*
X99032820Y-113982614D01*
X99030014Y-113978277D01*
X98879670Y-113813051D01*
X98875619Y-113809852D01*
X98875615Y-113809848D01*
X98708414Y-113677800D01*
X98708410Y-113677798D01*
X98704359Y-113674598D01*
X98675890Y-113658882D01*
X98610213Y-113622627D01*
X98508789Y-113566638D01*
X98503920Y-113564914D01*
X98503916Y-113564912D01*
X98303087Y-113493795D01*
X98303083Y-113493794D01*
X98298212Y-113492069D01*
X98293119Y-113491162D01*
X98293116Y-113491161D01*
X98083373Y-113453800D01*
X98083367Y-113453799D01*
X98078284Y-113452894D01*
X98004452Y-113451992D01*
X97860081Y-113450228D01*
X97860079Y-113450228D01*
X97854911Y-113450165D01*
X97634091Y-113483955D01*
X97421756Y-113553357D01*
X97223607Y-113656507D01*
X97219474Y-113659610D01*
X97219471Y-113659612D01*
X97069290Y-113772371D01*
X97044965Y-113790635D01*
X96890629Y-113952138D01*
X96887715Y-113956410D01*
X96887714Y-113956411D01*
X96851520Y-114009470D01*
X96764743Y-114136680D01*
X96750818Y-114166680D01*
X96673218Y-114333855D01*
X96670688Y-114339305D01*
X96610989Y-114554570D01*
X96587251Y-114776695D01*
X96587548Y-114781848D01*
X96587548Y-114781851D01*
X96594932Y-114909908D01*
X96600110Y-114999715D01*
X96601247Y-115004761D01*
X96601248Y-115004767D01*
X96623011Y-115101335D01*
X96649222Y-115217639D01*
X96704074Y-115352724D01*
X96713544Y-115376045D01*
X96733266Y-115424616D01*
X96782763Y-115505388D01*
X96841182Y-115600719D01*
X96849987Y-115615088D01*
X96996250Y-115783938D01*
X97168126Y-115926632D01*
X97204060Y-115947630D01*
X97241445Y-115969476D01*
X97290169Y-116021114D01*
X97303240Y-116090897D01*
X97276509Y-116156669D01*
X97236055Y-116190027D01*
X97223607Y-116196507D01*
X97219474Y-116199610D01*
X97219471Y-116199612D01*
X97157414Y-116246206D01*
X97044965Y-116330635D01*
X97041393Y-116334373D01*
X96915296Y-116466326D01*
X96890629Y-116492138D01*
X96887715Y-116496410D01*
X96887714Y-116496411D01*
X96849373Y-116552617D01*
X96764743Y-116676680D01*
X96670688Y-116879305D01*
X96610989Y-117094570D01*
X96587251Y-117316695D01*
X96587548Y-117321848D01*
X96587548Y-117321851D01*
X96594932Y-117449908D01*
X96600110Y-117539715D01*
X96601247Y-117544761D01*
X96601248Y-117544767D01*
X96614440Y-117603301D01*
X96649222Y-117757639D01*
X96686728Y-117850005D01*
X96724654Y-117943406D01*
X96733266Y-117964616D01*
X96849987Y-118155088D01*
X96996250Y-118323938D01*
X97168126Y-118466632D01*
X97213809Y-118493327D01*
X97241445Y-118509476D01*
X97290169Y-118561114D01*
X97303240Y-118630897D01*
X97276509Y-118696669D01*
X97236055Y-118730027D01*
X97223607Y-118736507D01*
X97219474Y-118739610D01*
X97219471Y-118739612D01*
X97052891Y-118864684D01*
X97044965Y-118870635D01*
X97041393Y-118874373D01*
X96923134Y-118998124D01*
X96890629Y-119032138D01*
X96887715Y-119036410D01*
X96887714Y-119036411D01*
X96850813Y-119090506D01*
X96764743Y-119216680D01*
X96750818Y-119246680D01*
X96675454Y-119409038D01*
X96670688Y-119419305D01*
X96610989Y-119634570D01*
X96587251Y-119856695D01*
X95682951Y-119856695D01*
X95669852Y-119697361D01*
X95615431Y-119480702D01*
X95526354Y-119275840D01*
X95469515Y-119187980D01*
X95407822Y-119092617D01*
X95407820Y-119092614D01*
X95405014Y-119088277D01*
X95254670Y-118923051D01*
X95250619Y-118919852D01*
X95250615Y-118919848D01*
X95083414Y-118787800D01*
X95083410Y-118787798D01*
X95079359Y-118784598D01*
X95038053Y-118761796D01*
X94988084Y-118711364D01*
X94973312Y-118641921D01*
X94998428Y-118575516D01*
X95025780Y-118548909D01*
X95093013Y-118500952D01*
X95204860Y-118421173D01*
X95363096Y-118263489D01*
X95422594Y-118180689D01*
X95490435Y-118086277D01*
X95493453Y-118082077D01*
X95551506Y-117964616D01*
X95590136Y-117886453D01*
X95590137Y-117886451D01*
X95592430Y-117881811D01*
X95634921Y-117741957D01*
X95655865Y-117673023D01*
X95655865Y-117673021D01*
X95657370Y-117668069D01*
X95686529Y-117446590D01*
X95688156Y-117380000D01*
X95669852Y-117157361D01*
X95615431Y-116940702D01*
X95526354Y-116735840D01*
X95405014Y-116548277D01*
X95254670Y-116383051D01*
X95250619Y-116379852D01*
X95250615Y-116379848D01*
X95083414Y-116247800D01*
X95083410Y-116247798D01*
X95079359Y-116244598D01*
X95038053Y-116221796D01*
X94988084Y-116171364D01*
X94973312Y-116101921D01*
X94998428Y-116035516D01*
X95025780Y-116008909D01*
X95085783Y-115966109D01*
X95204860Y-115881173D01*
X95259755Y-115826470D01*
X95302435Y-115783938D01*
X95363096Y-115723489D01*
X95422594Y-115640689D01*
X95490435Y-115546277D01*
X95493453Y-115542077D01*
X95497543Y-115533803D01*
X95590136Y-115346453D01*
X95590137Y-115346451D01*
X95592430Y-115341811D01*
X95640410Y-115183891D01*
X95655865Y-115133023D01*
X95655865Y-115133021D01*
X95657370Y-115128069D01*
X95686529Y-114906590D01*
X95687344Y-114873240D01*
X95688074Y-114843365D01*
X95688074Y-114843361D01*
X95688156Y-114840000D01*
X95669852Y-114617361D01*
X95615431Y-114400702D01*
X95526354Y-114195840D01*
X95405014Y-114008277D01*
X95254670Y-113843051D01*
X95250619Y-113839852D01*
X95250615Y-113839848D01*
X95083414Y-113707800D01*
X95083410Y-113707798D01*
X95079359Y-113704598D01*
X94883789Y-113596638D01*
X94878920Y-113594914D01*
X94878916Y-113594912D01*
X94678087Y-113523795D01*
X94678083Y-113523794D01*
X94673212Y-113522069D01*
X94668119Y-113521162D01*
X94668116Y-113521161D01*
X94458373Y-113483800D01*
X94458367Y-113483799D01*
X94453284Y-113482894D01*
X94379452Y-113481992D01*
X94235081Y-113480228D01*
X94235079Y-113480228D01*
X94229911Y-113480165D01*
X94009091Y-113513955D01*
X93796756Y-113583357D01*
X93770494Y-113597028D01*
X93626281Y-113672101D01*
X93598607Y-113686507D01*
X93594474Y-113689610D01*
X93594471Y-113689612D01*
X93424100Y-113817530D01*
X93419965Y-113820635D01*
X93413931Y-113826949D01*
X93269319Y-113978277D01*
X93265629Y-113982138D01*
X93262715Y-113986410D01*
X93262714Y-113986411D01*
X93195646Y-114084729D01*
X93139743Y-114166680D01*
X93099306Y-114253794D01*
X93055492Y-114348185D01*
X93045688Y-114369305D01*
X92985989Y-114584570D01*
X92962251Y-114806695D01*
X92962548Y-114811848D01*
X92962548Y-114811851D01*
X92974405Y-115017485D01*
X92975110Y-115029715D01*
X92976247Y-115034761D01*
X92976248Y-115034767D01*
X92993442Y-115111058D01*
X93024222Y-115247639D01*
X93085673Y-115398976D01*
X93097873Y-115429020D01*
X93108266Y-115454616D01*
X93224987Y-115645088D01*
X93371250Y-115813938D01*
X93543126Y-115956632D01*
X93559344Y-115966109D01*
X93616445Y-115999476D01*
X93665169Y-116051114D01*
X93678240Y-116120897D01*
X93651509Y-116186669D01*
X93611055Y-116220027D01*
X93598607Y-116226507D01*
X93594474Y-116229610D01*
X93594471Y-116229612D01*
X93424100Y-116357530D01*
X93419965Y-116360635D01*
X93367754Y-116415271D01*
X93269319Y-116518277D01*
X93265629Y-116522138D01*
X93139743Y-116706680D01*
X93045688Y-116909305D01*
X92985989Y-117124570D01*
X92962251Y-117346695D01*
X92962548Y-117351848D01*
X92962548Y-117351851D01*
X92974812Y-117564547D01*
X92975110Y-117569715D01*
X92976247Y-117574761D01*
X92976248Y-117574767D01*
X92982679Y-117603301D01*
X93024222Y-117787639D01*
X93062461Y-117881811D01*
X93097873Y-117969020D01*
X93108266Y-117994616D01*
X93224987Y-118185088D01*
X93371250Y-118353938D01*
X93543126Y-118496632D01*
X93565106Y-118509476D01*
X93616445Y-118539476D01*
X93665169Y-118591114D01*
X93678240Y-118660897D01*
X93651509Y-118726669D01*
X93611055Y-118760027D01*
X93598607Y-118766507D01*
X93594474Y-118769610D01*
X93594471Y-118769612D01*
X93424100Y-118897530D01*
X93419965Y-118900635D01*
X93394898Y-118926866D01*
X93269319Y-119058277D01*
X93265629Y-119062138D01*
X93262715Y-119066410D01*
X93262714Y-119066411D01*
X93179785Y-119187980D01*
X93139743Y-119246680D01*
X93100421Y-119331393D01*
X93069800Y-119397361D01*
X93045688Y-119449305D01*
X92985989Y-119664570D01*
X92962251Y-119886695D01*
X83099137Y-119886695D01*
X83112814Y-119756565D01*
X83113504Y-119750000D01*
X83110290Y-119719422D01*
X83094232Y-119566635D01*
X83094232Y-119566633D01*
X83093542Y-119560072D01*
X83034527Y-119378444D01*
X83026847Y-119365141D01*
X82972778Y-119271492D01*
X82939040Y-119213056D01*
X82916462Y-119187980D01*
X82815675Y-119076045D01*
X82815674Y-119076044D01*
X82811253Y-119071134D01*
X82656752Y-118958882D01*
X82650724Y-118956198D01*
X82650722Y-118956197D01*
X82488319Y-118883891D01*
X82488318Y-118883891D01*
X82482288Y-118881206D01*
X82388888Y-118861353D01*
X82301944Y-118842872D01*
X82301939Y-118842872D01*
X82295487Y-118841500D01*
X82104513Y-118841500D01*
X82098061Y-118842872D01*
X82098056Y-118842872D01*
X82011112Y-118861353D01*
X81917712Y-118881206D01*
X81911682Y-118883891D01*
X81911681Y-118883891D01*
X81749278Y-118956197D01*
X81749276Y-118956198D01*
X81743248Y-118958882D01*
X81588747Y-119071134D01*
X81584326Y-119076044D01*
X81584325Y-119076045D01*
X81483539Y-119187980D01*
X81460960Y-119213056D01*
X81377210Y-119358115D01*
X81368619Y-119372995D01*
X81317236Y-119421988D01*
X81247523Y-119435424D01*
X81181612Y-119409038D01*
X81140430Y-119351205D01*
X81133500Y-119309995D01*
X81133500Y-118926866D01*
X81126745Y-118864684D01*
X81075615Y-118728295D01*
X80988261Y-118611739D01*
X80871705Y-118524385D01*
X80735316Y-118473255D01*
X80673134Y-118466500D01*
X79226866Y-118466500D01*
X79164684Y-118473255D01*
X79028295Y-118524385D01*
X78911739Y-118611739D01*
X78856479Y-118685473D01*
X78855538Y-118686728D01*
X78798679Y-118729243D01*
X78727860Y-118734269D01*
X78678012Y-118711129D01*
X78677795Y-118710963D01*
X78673556Y-118707044D01*
X78489599Y-118590976D01*
X78287572Y-118510376D01*
X78074239Y-118467941D01*
X78068464Y-118467865D01*
X78068460Y-118467865D01*
X77959419Y-118466438D01*
X77856746Y-118465094D01*
X77851049Y-118466073D01*
X77851048Y-118466073D01*
X77648065Y-118500952D01*
X77648062Y-118500953D01*
X77642375Y-118501930D01*
X77438307Y-118577214D01*
X77251376Y-118688427D01*
X77087842Y-118831842D01*
X77084270Y-118836372D01*
X77084269Y-118836374D01*
X77050007Y-118879834D01*
X76992125Y-118920947D01*
X76921205Y-118924239D01*
X76859763Y-118888667D01*
X76850100Y-118877215D01*
X76836737Y-118859319D01*
X76836730Y-118859312D01*
X76833280Y-118854691D01*
X76829044Y-118850775D01*
X76677796Y-118710963D01*
X76677793Y-118710961D01*
X76673556Y-118707044D01*
X76489599Y-118590976D01*
X76287572Y-118510376D01*
X76074239Y-118467941D01*
X76068464Y-118467865D01*
X76068460Y-118467865D01*
X75959419Y-118466438D01*
X75856746Y-118465094D01*
X75851049Y-118466073D01*
X75851048Y-118466073D01*
X75648065Y-118500952D01*
X75648062Y-118500953D01*
X75642375Y-118501930D01*
X75438307Y-118577214D01*
X75251376Y-118688427D01*
X75087842Y-118831842D01*
X75084270Y-118836372D01*
X75084269Y-118836374D01*
X75050007Y-118879834D01*
X74992125Y-118920947D01*
X74921205Y-118924239D01*
X74859763Y-118888667D01*
X74850100Y-118877215D01*
X74836737Y-118859319D01*
X74836730Y-118859312D01*
X74833280Y-118854691D01*
X74829044Y-118850775D01*
X74677796Y-118710963D01*
X74677793Y-118710961D01*
X74673556Y-118707044D01*
X74489599Y-118590976D01*
X74287572Y-118510376D01*
X74074239Y-118467941D01*
X74068464Y-118467865D01*
X74068460Y-118467865D01*
X73959419Y-118466438D01*
X73856746Y-118465094D01*
X73851049Y-118466073D01*
X73851048Y-118466073D01*
X73648065Y-118500952D01*
X73648062Y-118500953D01*
X73642375Y-118501930D01*
X73438307Y-118577214D01*
X73251376Y-118688427D01*
X73087842Y-118831842D01*
X73084270Y-118836373D01*
X72980487Y-118968021D01*
X72953181Y-119002658D01*
X72950493Y-119007767D01*
X72923919Y-119058277D01*
X72851905Y-119195154D01*
X72850192Y-119200671D01*
X72793040Y-119384729D01*
X72787403Y-119402882D01*
X72761837Y-119618887D01*
X71505093Y-119618887D01*
X71505466Y-116050000D01*
X90936496Y-116050000D01*
X90937186Y-116056565D01*
X90955306Y-116228963D01*
X90956458Y-116239928D01*
X91015473Y-116421556D01*
X91110960Y-116586944D01*
X91115378Y-116591851D01*
X91115379Y-116591852D01*
X91193441Y-116678549D01*
X91238747Y-116728866D01*
X91393248Y-116841118D01*
X91399276Y-116843802D01*
X91399278Y-116843803D01*
X91561681Y-116916109D01*
X91567712Y-116918794D01*
X91648443Y-116935954D01*
X91748056Y-116957128D01*
X91748061Y-116957128D01*
X91754513Y-116958500D01*
X91945487Y-116958500D01*
X91951939Y-116957128D01*
X91951944Y-116957128D01*
X92051557Y-116935954D01*
X92132288Y-116918794D01*
X92138319Y-116916109D01*
X92300722Y-116843803D01*
X92300724Y-116843802D01*
X92306752Y-116841118D01*
X92461253Y-116728866D01*
X92506559Y-116678549D01*
X92584621Y-116591852D01*
X92584622Y-116591851D01*
X92589040Y-116586944D01*
X92684527Y-116421556D01*
X92743542Y-116239928D01*
X92744695Y-116228963D01*
X92762814Y-116056565D01*
X92763504Y-116050000D01*
X92753965Y-115959242D01*
X92744232Y-115866635D01*
X92744232Y-115866633D01*
X92743542Y-115860072D01*
X92684527Y-115678444D01*
X92589040Y-115513056D01*
X92551962Y-115471876D01*
X92465675Y-115376045D01*
X92465674Y-115376044D01*
X92461253Y-115371134D01*
X92306752Y-115258882D01*
X92300724Y-115256198D01*
X92300722Y-115256197D01*
X92138319Y-115183891D01*
X92138318Y-115183891D01*
X92132288Y-115181206D01*
X92038888Y-115161353D01*
X91951944Y-115142872D01*
X91951939Y-115142872D01*
X91945487Y-115141500D01*
X91754513Y-115141500D01*
X91748061Y-115142872D01*
X91748056Y-115142872D01*
X91661112Y-115161353D01*
X91567712Y-115181206D01*
X91561682Y-115183891D01*
X91561681Y-115183891D01*
X91399278Y-115256197D01*
X91399276Y-115256198D01*
X91393248Y-115258882D01*
X91238747Y-115371134D01*
X91234326Y-115376044D01*
X91234325Y-115376045D01*
X91148039Y-115471876D01*
X91110960Y-115513056D01*
X91015473Y-115678444D01*
X90956458Y-115860072D01*
X90955768Y-115866633D01*
X90955768Y-115866635D01*
X90946035Y-115959242D01*
X90936496Y-116050000D01*
X71505466Y-116050000D01*
X71505584Y-114917970D01*
X73024466Y-114917970D01*
X73025156Y-114924535D01*
X73035668Y-115024547D01*
X73044428Y-115107898D01*
X73103443Y-115289526D01*
X73198930Y-115454914D01*
X73203348Y-115459821D01*
X73203349Y-115459822D01*
X73295726Y-115562417D01*
X73326717Y-115596836D01*
X73481218Y-115709088D01*
X73487246Y-115711772D01*
X73487248Y-115711773D01*
X73649651Y-115784079D01*
X73655682Y-115786764D01*
X73749082Y-115806617D01*
X73836026Y-115825098D01*
X73836031Y-115825098D01*
X73842483Y-115826470D01*
X74033457Y-115826470D01*
X74039909Y-115825098D01*
X74039914Y-115825098D01*
X74126858Y-115806617D01*
X74220258Y-115786764D01*
X74226289Y-115784079D01*
X74388692Y-115711773D01*
X74388694Y-115711772D01*
X74394722Y-115709088D01*
X74549223Y-115596836D01*
X74580214Y-115562417D01*
X74672591Y-115459822D01*
X74672592Y-115459821D01*
X74677010Y-115454914D01*
X74772497Y-115289526D01*
X74831512Y-115107898D01*
X74832342Y-115100000D01*
X82336496Y-115100000D01*
X82337186Y-115106565D01*
X82353392Y-115260752D01*
X82356458Y-115289928D01*
X82415473Y-115471556D01*
X82418776Y-115477278D01*
X82418777Y-115477279D01*
X82436599Y-115508148D01*
X82510960Y-115636944D01*
X82638747Y-115778866D01*
X82793248Y-115891118D01*
X82799276Y-115893802D01*
X82799278Y-115893803D01*
X82961681Y-115966109D01*
X82967712Y-115968794D01*
X83061113Y-115988647D01*
X83148056Y-116007128D01*
X83148061Y-116007128D01*
X83154513Y-116008500D01*
X83345487Y-116008500D01*
X83351939Y-116007128D01*
X83351944Y-116007128D01*
X83438887Y-115988647D01*
X83532288Y-115968794D01*
X83538319Y-115966109D01*
X83700722Y-115893803D01*
X83700724Y-115893802D01*
X83706752Y-115891118D01*
X83861253Y-115778866D01*
X83989040Y-115636944D01*
X84063401Y-115508148D01*
X84081223Y-115477279D01*
X84081224Y-115477278D01*
X84084527Y-115471556D01*
X84143542Y-115289928D01*
X84146609Y-115260752D01*
X84162814Y-115106565D01*
X84163504Y-115100000D01*
X84154914Y-115018267D01*
X84144232Y-114916635D01*
X84144232Y-114916633D01*
X84143542Y-114910072D01*
X84084527Y-114728444D01*
X83989040Y-114563056D01*
X83976914Y-114549588D01*
X83887244Y-114450000D01*
X86586496Y-114450000D01*
X86587186Y-114456565D01*
X86604629Y-114622522D01*
X86606458Y-114639928D01*
X86665473Y-114821556D01*
X86668776Y-114827278D01*
X86668777Y-114827279D01*
X86695313Y-114873240D01*
X86760960Y-114986944D01*
X86765378Y-114991851D01*
X86765379Y-114991852D01*
X86875520Y-115114176D01*
X86888747Y-115128866D01*
X86964482Y-115183891D01*
X87027471Y-115229655D01*
X87043248Y-115241118D01*
X87049276Y-115243802D01*
X87049278Y-115243803D01*
X87211681Y-115316109D01*
X87217712Y-115318794D01*
X87302691Y-115336857D01*
X87398056Y-115357128D01*
X87398061Y-115357128D01*
X87404513Y-115358500D01*
X87595487Y-115358500D01*
X87601939Y-115357128D01*
X87601944Y-115357128D01*
X87697309Y-115336857D01*
X87782288Y-115318794D01*
X87788319Y-115316109D01*
X87950722Y-115243803D01*
X87950724Y-115243802D01*
X87956752Y-115241118D01*
X87972530Y-115229655D01*
X88035518Y-115183891D01*
X88111253Y-115128866D01*
X88124480Y-115114176D01*
X88234621Y-114991852D01*
X88234622Y-114991851D01*
X88239040Y-114986944D01*
X88304687Y-114873240D01*
X88331223Y-114827279D01*
X88331224Y-114827278D01*
X88334527Y-114821556D01*
X88393542Y-114639928D01*
X88395372Y-114622522D01*
X88412814Y-114456565D01*
X88413504Y-114450000D01*
X88393542Y-114260072D01*
X88334527Y-114078444D01*
X88239040Y-113913056D01*
X88132178Y-113794373D01*
X88115675Y-113776045D01*
X88115674Y-113776044D01*
X88111253Y-113771134D01*
X87978383Y-113674598D01*
X87962094Y-113662763D01*
X87962093Y-113662762D01*
X87956752Y-113658882D01*
X87950724Y-113656198D01*
X87950722Y-113656197D01*
X87788319Y-113583891D01*
X87788318Y-113583891D01*
X87782288Y-113581206D01*
X87671052Y-113557562D01*
X87608579Y-113523833D01*
X87574257Y-113461684D01*
X87578985Y-113390845D01*
X87621261Y-113333807D01*
X87684080Y-113309005D01*
X87688886Y-113308500D01*
X87695487Y-113308500D01*
X87701940Y-113307128D01*
X87701943Y-113307128D01*
X87771052Y-113292438D01*
X87882288Y-113268794D01*
X87926005Y-113249330D01*
X88050722Y-113193803D01*
X88050724Y-113193802D01*
X88056752Y-113191118D01*
X88087889Y-113168496D01*
X88175603Y-113104767D01*
X88211253Y-113078866D01*
X88232588Y-113055171D01*
X88334621Y-112941852D01*
X88334622Y-112941851D01*
X88339040Y-112936944D01*
X88406333Y-112820390D01*
X88431223Y-112777279D01*
X88431224Y-112777278D01*
X88434527Y-112771556D01*
X88493542Y-112589928D01*
X88494775Y-112578202D01*
X88512814Y-112406565D01*
X88513504Y-112400000D01*
X88497270Y-112245545D01*
X88494232Y-112216635D01*
X88494232Y-112216633D01*
X88493542Y-112210072D01*
X88434527Y-112028444D01*
X88403910Y-111975413D01*
X88342341Y-111868774D01*
X88339040Y-111863056D01*
X88321525Y-111843603D01*
X88215675Y-111726045D01*
X88215674Y-111726044D01*
X88211253Y-111721134D01*
X88056752Y-111608882D01*
X88050724Y-111606198D01*
X88050722Y-111606197D01*
X87888319Y-111533891D01*
X87888318Y-111533891D01*
X87882288Y-111531206D01*
X87788041Y-111511173D01*
X87701944Y-111492872D01*
X87701939Y-111492872D01*
X87695487Y-111491500D01*
X87504513Y-111491500D01*
X87498061Y-111492872D01*
X87498056Y-111492872D01*
X87411959Y-111511173D01*
X87317712Y-111531206D01*
X87311682Y-111533891D01*
X87311681Y-111533891D01*
X87149278Y-111606197D01*
X87149276Y-111606198D01*
X87143248Y-111608882D01*
X86988747Y-111721134D01*
X86984326Y-111726044D01*
X86984325Y-111726045D01*
X86878476Y-111843603D01*
X86860960Y-111863056D01*
X86857659Y-111868774D01*
X86796091Y-111975413D01*
X86765473Y-112028444D01*
X86706458Y-112210072D01*
X86705768Y-112216633D01*
X86705768Y-112216635D01*
X86702730Y-112245545D01*
X86686496Y-112400000D01*
X86687186Y-112406565D01*
X86705226Y-112578202D01*
X86706458Y-112589928D01*
X86765473Y-112771556D01*
X86768776Y-112777278D01*
X86768777Y-112777279D01*
X86793667Y-112820390D01*
X86860960Y-112936944D01*
X86865378Y-112941851D01*
X86865379Y-112941852D01*
X86967412Y-113055171D01*
X86988747Y-113078866D01*
X87024397Y-113104767D01*
X87112112Y-113168496D01*
X87143248Y-113191118D01*
X87149276Y-113193802D01*
X87149278Y-113193803D01*
X87273995Y-113249330D01*
X87317712Y-113268794D01*
X87428948Y-113292438D01*
X87491421Y-113326167D01*
X87525743Y-113388316D01*
X87521015Y-113459155D01*
X87478739Y-113516193D01*
X87415920Y-113540995D01*
X87411114Y-113541500D01*
X87404513Y-113541500D01*
X87398060Y-113542872D01*
X87398057Y-113542872D01*
X87335487Y-113556172D01*
X87217712Y-113581206D01*
X87211682Y-113583891D01*
X87211681Y-113583891D01*
X87049278Y-113656197D01*
X87049276Y-113656198D01*
X87043248Y-113658882D01*
X87037907Y-113662762D01*
X87037906Y-113662763D01*
X87021617Y-113674598D01*
X86888747Y-113771134D01*
X86884326Y-113776044D01*
X86884325Y-113776045D01*
X86867823Y-113794373D01*
X86760960Y-113913056D01*
X86665473Y-114078444D01*
X86606458Y-114260072D01*
X86586496Y-114450000D01*
X83887244Y-114450000D01*
X83865675Y-114426045D01*
X83865674Y-114426044D01*
X83861253Y-114421134D01*
X83749001Y-114339578D01*
X83712094Y-114312763D01*
X83712093Y-114312762D01*
X83706752Y-114308882D01*
X83700724Y-114306198D01*
X83700722Y-114306197D01*
X83538319Y-114233891D01*
X83538318Y-114233891D01*
X83532288Y-114231206D01*
X83438888Y-114211353D01*
X83351944Y-114192872D01*
X83351939Y-114192872D01*
X83345487Y-114191500D01*
X83154513Y-114191500D01*
X83148061Y-114192872D01*
X83148056Y-114192872D01*
X83061112Y-114211353D01*
X82967712Y-114231206D01*
X82961682Y-114233891D01*
X82961681Y-114233891D01*
X82799278Y-114306197D01*
X82799276Y-114306198D01*
X82793248Y-114308882D01*
X82787907Y-114312762D01*
X82787906Y-114312763D01*
X82750999Y-114339578D01*
X82638747Y-114421134D01*
X82634326Y-114426044D01*
X82634325Y-114426045D01*
X82523087Y-114549588D01*
X82510960Y-114563056D01*
X82415473Y-114728444D01*
X82356458Y-114910072D01*
X82355768Y-114916633D01*
X82355768Y-114916635D01*
X82345086Y-115018267D01*
X82336496Y-115100000D01*
X74832342Y-115100000D01*
X74840273Y-115024547D01*
X74850784Y-114924535D01*
X74851474Y-114917970D01*
X74837693Y-114786849D01*
X74832202Y-114734605D01*
X74832202Y-114734603D01*
X74831512Y-114728042D01*
X74772497Y-114546414D01*
X74677010Y-114381026D01*
X74672233Y-114375720D01*
X74553645Y-114244015D01*
X74553644Y-114244014D01*
X74549223Y-114239104D01*
X74442400Y-114161492D01*
X74400064Y-114130733D01*
X74400063Y-114130732D01*
X74394722Y-114126852D01*
X74388694Y-114124168D01*
X74388692Y-114124167D01*
X74226289Y-114051861D01*
X74226288Y-114051861D01*
X74220258Y-114049176D01*
X74126857Y-114029323D01*
X74039914Y-114010842D01*
X74039909Y-114010842D01*
X74033457Y-114009470D01*
X73842483Y-114009470D01*
X73836031Y-114010842D01*
X73836026Y-114010842D01*
X73749082Y-114029323D01*
X73655682Y-114049176D01*
X73649652Y-114051861D01*
X73649651Y-114051861D01*
X73487248Y-114124167D01*
X73487246Y-114124168D01*
X73481218Y-114126852D01*
X73475877Y-114130732D01*
X73475876Y-114130733D01*
X73433540Y-114161492D01*
X73326717Y-114239104D01*
X73322296Y-114244014D01*
X73322295Y-114244015D01*
X73203708Y-114375720D01*
X73198930Y-114381026D01*
X73103443Y-114546414D01*
X73044428Y-114728042D01*
X73043738Y-114734603D01*
X73043738Y-114734605D01*
X73038247Y-114786849D01*
X73024466Y-114917970D01*
X71505584Y-114917970D01*
X71505684Y-113962299D01*
X77165996Y-113962299D01*
X77185958Y-114152227D01*
X77244973Y-114333855D01*
X77340460Y-114499243D01*
X77344878Y-114504150D01*
X77344879Y-114504151D01*
X77417289Y-114584570D01*
X77468247Y-114641165D01*
X77567343Y-114713163D01*
X77596856Y-114734605D01*
X77622748Y-114753417D01*
X77628776Y-114756101D01*
X77628778Y-114756102D01*
X77791181Y-114828408D01*
X77797212Y-114831093D01*
X77890612Y-114850946D01*
X77977556Y-114869427D01*
X77977561Y-114869427D01*
X77984013Y-114870799D01*
X78174987Y-114870799D01*
X78181439Y-114869427D01*
X78181444Y-114869427D01*
X78268388Y-114850946D01*
X78361788Y-114831093D01*
X78367819Y-114828408D01*
X78530222Y-114756102D01*
X78530224Y-114756101D01*
X78536252Y-114753417D01*
X78562145Y-114734605D01*
X78591657Y-114713163D01*
X78690753Y-114641165D01*
X78741711Y-114584570D01*
X78814121Y-114504151D01*
X78814122Y-114504150D01*
X78818540Y-114499243D01*
X78914027Y-114333855D01*
X78973042Y-114152227D01*
X78993004Y-113962299D01*
X78987731Y-113912131D01*
X78973732Y-113778934D01*
X78973732Y-113778932D01*
X78973042Y-113772371D01*
X78914027Y-113590743D01*
X78899114Y-113564912D01*
X78856533Y-113491161D01*
X78818540Y-113425355D01*
X78713324Y-113308500D01*
X78695175Y-113288344D01*
X78695174Y-113288343D01*
X78690753Y-113283433D01*
X78591657Y-113211435D01*
X78541594Y-113175062D01*
X78541593Y-113175061D01*
X78536252Y-113171181D01*
X78530224Y-113168497D01*
X78530222Y-113168496D01*
X78367819Y-113096190D01*
X78367818Y-113096190D01*
X78361788Y-113093505D01*
X78268387Y-113073652D01*
X78181444Y-113055171D01*
X78181439Y-113055171D01*
X78174987Y-113053799D01*
X77984013Y-113053799D01*
X77977561Y-113055171D01*
X77977556Y-113055171D01*
X77890612Y-113073652D01*
X77797212Y-113093505D01*
X77791182Y-113096190D01*
X77791181Y-113096190D01*
X77628778Y-113168496D01*
X77628776Y-113168497D01*
X77622748Y-113171181D01*
X77617407Y-113175061D01*
X77617406Y-113175062D01*
X77567343Y-113211435D01*
X77468247Y-113283433D01*
X77463826Y-113288343D01*
X77463825Y-113288344D01*
X77445677Y-113308500D01*
X77340460Y-113425355D01*
X77302467Y-113491161D01*
X77259887Y-113564912D01*
X77244973Y-113590743D01*
X77185958Y-113772371D01*
X77185268Y-113778932D01*
X77185268Y-113778934D01*
X77171269Y-113912131D01*
X77165996Y-113962299D01*
X71505684Y-113962299D01*
X71506052Y-110436695D01*
X100712151Y-110436695D01*
X100712448Y-110441848D01*
X100712448Y-110441851D01*
X100717911Y-110536590D01*
X100725010Y-110659715D01*
X100726147Y-110664761D01*
X100726148Y-110664767D01*
X100746019Y-110752939D01*
X100774122Y-110877639D01*
X100858166Y-111084616D01*
X100884375Y-111127385D01*
X100955089Y-111242780D01*
X100974887Y-111275088D01*
X101121150Y-111443938D01*
X101293026Y-111586632D01*
X101485900Y-111699338D01*
X101694592Y-111779030D01*
X101699660Y-111780061D01*
X101699663Y-111780062D01*
X101806917Y-111801883D01*
X101913497Y-111823567D01*
X101918672Y-111823757D01*
X101918674Y-111823757D01*
X102131573Y-111831564D01*
X102131577Y-111831564D01*
X102136737Y-111831753D01*
X102141857Y-111831097D01*
X102141859Y-111831097D01*
X102353188Y-111804025D01*
X102353189Y-111804025D01*
X102358316Y-111803368D01*
X102363266Y-111801883D01*
X102567329Y-111740661D01*
X102567334Y-111740659D01*
X102572284Y-111739174D01*
X102772894Y-111640896D01*
X102954760Y-111511173D01*
X103112996Y-111353489D01*
X103172494Y-111270689D01*
X103240335Y-111176277D01*
X103243353Y-111172077D01*
X103250780Y-111157051D01*
X103340036Y-110976453D01*
X103340037Y-110976451D01*
X103342330Y-110971811D01*
X103407270Y-110758069D01*
X103436429Y-110536590D01*
X103438056Y-110470000D01*
X103419752Y-110247361D01*
X103365331Y-110030702D01*
X103276254Y-109825840D01*
X103204582Y-109715052D01*
X103157722Y-109642617D01*
X103157720Y-109642614D01*
X103154914Y-109638277D01*
X103004570Y-109473051D01*
X103000519Y-109469852D01*
X103000515Y-109469848D01*
X102833314Y-109337800D01*
X102833310Y-109337798D01*
X102829259Y-109334598D01*
X102787953Y-109311796D01*
X102737984Y-109261364D01*
X102723212Y-109191921D01*
X102748328Y-109125516D01*
X102775680Y-109098909D01*
X102841996Y-109051606D01*
X102954760Y-108971173D01*
X103112996Y-108813489D01*
X103172494Y-108730689D01*
X103240335Y-108636277D01*
X103243353Y-108632077D01*
X103255180Y-108608148D01*
X103340036Y-108436453D01*
X103340037Y-108436451D01*
X103342330Y-108431811D01*
X103387272Y-108283891D01*
X103405765Y-108223023D01*
X103405765Y-108223021D01*
X103407270Y-108218069D01*
X103436429Y-107996590D01*
X103436713Y-107984975D01*
X103437974Y-107933365D01*
X103437974Y-107933361D01*
X103438056Y-107930000D01*
X103419752Y-107707361D01*
X103365331Y-107490702D01*
X103276254Y-107285840D01*
X103174703Y-107128866D01*
X103157722Y-107102617D01*
X103157720Y-107102614D01*
X103154914Y-107098277D01*
X103004570Y-106933051D01*
X103000519Y-106929852D01*
X103000515Y-106929848D01*
X102833314Y-106797800D01*
X102833310Y-106797798D01*
X102829259Y-106794598D01*
X102787953Y-106771796D01*
X102737984Y-106721364D01*
X102723212Y-106651921D01*
X102748328Y-106585516D01*
X102775680Y-106558909D01*
X102819503Y-106527650D01*
X102954760Y-106431173D01*
X103112996Y-106273489D01*
X103150314Y-106221556D01*
X103240335Y-106096277D01*
X103243353Y-106092077D01*
X103251277Y-106076045D01*
X103340036Y-105896453D01*
X103340037Y-105896451D01*
X103342330Y-105891811D01*
X103407270Y-105678069D01*
X103436429Y-105456590D01*
X103436511Y-105453240D01*
X103437974Y-105393365D01*
X103437974Y-105393361D01*
X103438056Y-105390000D01*
X103419752Y-105167361D01*
X103365331Y-104950702D01*
X103276254Y-104745840D01*
X103154914Y-104558277D01*
X103151440Y-104554459D01*
X103151433Y-104554450D01*
X103007335Y-104396088D01*
X102976283Y-104332242D01*
X102984679Y-104261744D01*
X103029856Y-104206976D01*
X103056300Y-104193307D01*
X103162952Y-104153325D01*
X103178549Y-104144786D01*
X103280624Y-104068285D01*
X103293185Y-104055724D01*
X103369686Y-103953649D01*
X103378224Y-103938054D01*
X103423378Y-103817606D01*
X103427005Y-103802351D01*
X103432531Y-103751486D01*
X103432900Y-103744672D01*
X103432900Y-103122115D01*
X103428425Y-103106876D01*
X103427035Y-103105671D01*
X103419352Y-103104000D01*
X100735016Y-103104000D01*
X100719777Y-103108475D01*
X100718572Y-103109865D01*
X100716901Y-103117548D01*
X100716901Y-103744669D01*
X100717271Y-103751490D01*
X100722795Y-103802352D01*
X100726421Y-103817604D01*
X100771576Y-103938054D01*
X100780114Y-103953649D01*
X100856615Y-104055724D01*
X100869176Y-104068285D01*
X100971251Y-104144786D01*
X100986846Y-104153324D01*
X101095727Y-104194142D01*
X101152491Y-104236784D01*
X101177191Y-104303345D01*
X101161983Y-104372694D01*
X101142591Y-104399175D01*
X101066368Y-104478938D01*
X101015529Y-104532138D01*
X100889643Y-104716680D01*
X100795588Y-104919305D01*
X100735889Y-105134570D01*
X100712151Y-105356695D01*
X100712448Y-105361848D01*
X100712448Y-105361851D01*
X100717911Y-105456590D01*
X100725010Y-105579715D01*
X100726147Y-105584761D01*
X100726148Y-105584767D01*
X100746019Y-105672939D01*
X100774122Y-105797639D01*
X100858166Y-106004616D01*
X100974887Y-106195088D01*
X101121150Y-106363938D01*
X101293026Y-106506632D01*
X101331075Y-106528866D01*
X101366345Y-106549476D01*
X101415069Y-106601114D01*
X101428140Y-106670897D01*
X101401409Y-106736669D01*
X101360955Y-106770027D01*
X101348507Y-106776507D01*
X101344374Y-106779610D01*
X101344371Y-106779612D01*
X101174000Y-106907530D01*
X101169865Y-106910635D01*
X101166293Y-106914373D01*
X101027060Y-107060072D01*
X101015529Y-107072138D01*
X101012615Y-107076410D01*
X101012614Y-107076411D01*
X100932132Y-107194394D01*
X100889643Y-107256680D01*
X100862057Y-107316109D01*
X100802955Y-107443435D01*
X100795588Y-107459305D01*
X100735889Y-107674570D01*
X100712151Y-107896695D01*
X100712448Y-107901848D01*
X100712448Y-107901851D01*
X100717911Y-107996590D01*
X100725010Y-108119715D01*
X100726147Y-108124761D01*
X100726148Y-108124767D01*
X100738573Y-108179899D01*
X100774122Y-108337639D01*
X100824929Y-108462762D01*
X100842777Y-108506716D01*
X100858166Y-108544616D01*
X100872707Y-108568345D01*
X100964362Y-108717912D01*
X100974887Y-108735088D01*
X101121150Y-108903938D01*
X101293026Y-109046632D01*
X101316026Y-109060072D01*
X101366345Y-109089476D01*
X101415069Y-109141114D01*
X101428140Y-109210897D01*
X101401409Y-109276669D01*
X101360955Y-109310027D01*
X101348507Y-109316507D01*
X101344374Y-109319610D01*
X101344371Y-109319612D01*
X101174000Y-109447530D01*
X101169865Y-109450635D01*
X101153835Y-109467409D01*
X101020730Y-109606696D01*
X101015529Y-109612138D01*
X101012615Y-109616410D01*
X101012614Y-109616411D01*
X101001768Y-109632311D01*
X100889643Y-109796680D01*
X100853738Y-109874031D01*
X100802054Y-109985376D01*
X100795588Y-109999305D01*
X100735889Y-110214570D01*
X100712151Y-110436695D01*
X71506052Y-110436695D01*
X71506186Y-109150000D01*
X81036496Y-109150000D01*
X81037186Y-109156565D01*
X81055636Y-109332104D01*
X81056458Y-109339928D01*
X81115473Y-109521556D01*
X81118776Y-109527278D01*
X81118777Y-109527279D01*
X81152686Y-109586010D01*
X81210960Y-109686944D01*
X81215378Y-109691851D01*
X81215379Y-109691852D01*
X81313994Y-109801375D01*
X81338747Y-109828866D01*
X81415919Y-109884935D01*
X81481724Y-109932745D01*
X81493248Y-109941118D01*
X81499276Y-109943802D01*
X81499278Y-109943803D01*
X81635151Y-110004297D01*
X81667712Y-110018794D01*
X81747342Y-110035720D01*
X81848056Y-110057128D01*
X81848061Y-110057128D01*
X81854513Y-110058500D01*
X82045487Y-110058500D01*
X82051939Y-110057128D01*
X82051944Y-110057128D01*
X82152658Y-110035720D01*
X82232288Y-110018794D01*
X82264849Y-110004297D01*
X82400722Y-109943803D01*
X82400724Y-109943802D01*
X82406752Y-109941118D01*
X82461885Y-109901061D01*
X82528754Y-109877203D01*
X82597905Y-109893284D01*
X82629583Y-109918689D01*
X82634328Y-109923960D01*
X82634336Y-109923968D01*
X82638747Y-109928866D01*
X82650269Y-109937237D01*
X82778912Y-110030702D01*
X82793248Y-110041118D01*
X82799276Y-110043802D01*
X82799278Y-110043803D01*
X82852456Y-110067479D01*
X82967712Y-110118794D01*
X83061112Y-110138647D01*
X83148056Y-110157128D01*
X83148061Y-110157128D01*
X83154513Y-110158500D01*
X83345487Y-110158500D01*
X83351939Y-110157128D01*
X83351944Y-110157128D01*
X83438888Y-110138647D01*
X83532288Y-110118794D01*
X83647544Y-110067479D01*
X83700722Y-110043803D01*
X83700724Y-110043802D01*
X83706752Y-110041118D01*
X83721089Y-110030702D01*
X83764302Y-109999305D01*
X83861253Y-109928866D01*
X83865675Y-109923955D01*
X83984621Y-109791852D01*
X83984622Y-109791851D01*
X83989040Y-109786944D01*
X84050076Y-109681226D01*
X84081223Y-109627279D01*
X84081224Y-109627278D01*
X84084527Y-109621556D01*
X84143542Y-109439928D01*
X84150036Y-109378146D01*
X84162814Y-109256565D01*
X84163504Y-109250000D01*
X84155574Y-109174553D01*
X84144232Y-109066635D01*
X84144232Y-109066633D01*
X84143542Y-109060072D01*
X84084527Y-108878444D01*
X83989040Y-108713056D01*
X83861253Y-108571134D01*
X83730368Y-108476040D01*
X83712094Y-108462763D01*
X83712093Y-108462762D01*
X83706752Y-108458882D01*
X83700724Y-108456198D01*
X83700722Y-108456197D01*
X83538319Y-108383891D01*
X83538318Y-108383891D01*
X83532288Y-108381206D01*
X83438887Y-108361353D01*
X83351944Y-108342872D01*
X83351939Y-108342872D01*
X83345487Y-108341500D01*
X83154513Y-108341500D01*
X83148061Y-108342872D01*
X83148056Y-108342872D01*
X83061113Y-108361353D01*
X82967712Y-108381206D01*
X82961682Y-108383891D01*
X82961681Y-108383891D01*
X82799278Y-108456197D01*
X82799276Y-108456198D01*
X82793248Y-108458882D01*
X82786354Y-108463891D01*
X82738114Y-108498939D01*
X82671246Y-108522797D01*
X82602095Y-108506716D01*
X82570417Y-108481311D01*
X82565672Y-108476040D01*
X82565664Y-108476032D01*
X82561253Y-108471134D01*
X82406752Y-108358882D01*
X82400724Y-108356198D01*
X82400722Y-108356197D01*
X82238319Y-108283891D01*
X82238318Y-108283891D01*
X82232288Y-108281206D01*
X82137307Y-108261017D01*
X82051944Y-108242872D01*
X82051939Y-108242872D01*
X82045487Y-108241500D01*
X81854513Y-108241500D01*
X81848061Y-108242872D01*
X81848056Y-108242872D01*
X81762693Y-108261017D01*
X81667712Y-108281206D01*
X81661682Y-108283891D01*
X81661681Y-108283891D01*
X81499278Y-108356197D01*
X81499276Y-108356198D01*
X81493248Y-108358882D01*
X81338747Y-108471134D01*
X81334326Y-108476044D01*
X81334325Y-108476045D01*
X81245210Y-108575018D01*
X81210960Y-108613056D01*
X81115473Y-108778444D01*
X81056458Y-108960072D01*
X81055768Y-108966633D01*
X81055768Y-108966635D01*
X81045948Y-109060072D01*
X81036496Y-109150000D01*
X71506186Y-109150000D01*
X71506364Y-107450000D01*
X77360996Y-107450000D01*
X77361686Y-107456565D01*
X77379629Y-107627279D01*
X77380958Y-107639928D01*
X77439973Y-107821556D01*
X77535460Y-107986944D01*
X77539878Y-107991851D01*
X77539879Y-107991852D01*
X77654178Y-108118794D01*
X77663247Y-108128866D01*
X77817748Y-108241118D01*
X77823776Y-108243802D01*
X77823778Y-108243803D01*
X77913818Y-108283891D01*
X77992212Y-108318794D01*
X78080870Y-108337639D01*
X78172556Y-108357128D01*
X78172561Y-108357128D01*
X78179013Y-108358500D01*
X78369987Y-108358500D01*
X78376439Y-108357128D01*
X78376444Y-108357128D01*
X78468130Y-108337639D01*
X78556788Y-108318794D01*
X78635182Y-108283891D01*
X78725222Y-108243803D01*
X78725224Y-108243802D01*
X78731252Y-108241118D01*
X78885753Y-108128866D01*
X78894822Y-108118794D01*
X79009121Y-107991852D01*
X79009122Y-107991851D01*
X79013540Y-107986944D01*
X79109027Y-107821556D01*
X79168042Y-107639928D01*
X79169372Y-107627279D01*
X79187314Y-107456565D01*
X79188004Y-107450000D01*
X79181651Y-107389553D01*
X79168732Y-107266635D01*
X79168732Y-107266633D01*
X79168042Y-107260072D01*
X79109027Y-107078444D01*
X79098253Y-107059782D01*
X79032679Y-106946206D01*
X79013540Y-106913056D01*
X79008565Y-106907530D01*
X78890175Y-106776045D01*
X78890174Y-106776044D01*
X78885753Y-106771134D01*
X78731252Y-106658882D01*
X78725224Y-106656198D01*
X78725222Y-106656197D01*
X78562819Y-106583891D01*
X78562818Y-106583891D01*
X78556788Y-106581206D01*
X78463388Y-106561353D01*
X78376444Y-106542872D01*
X78376439Y-106542872D01*
X78369987Y-106541500D01*
X78179013Y-106541500D01*
X78172561Y-106542872D01*
X78172556Y-106542872D01*
X78085612Y-106561353D01*
X77992212Y-106581206D01*
X77986182Y-106583891D01*
X77986181Y-106583891D01*
X77823778Y-106656197D01*
X77823776Y-106656198D01*
X77817748Y-106658882D01*
X77663247Y-106771134D01*
X77658826Y-106776044D01*
X77658825Y-106776045D01*
X77540436Y-106907530D01*
X77535460Y-106913056D01*
X77516321Y-106946206D01*
X77450748Y-107059782D01*
X77439973Y-107078444D01*
X77380958Y-107260072D01*
X77380268Y-107266633D01*
X77380268Y-107266635D01*
X77367349Y-107389553D01*
X77360996Y-107450000D01*
X71506364Y-107450000D01*
X71506469Y-106450000D01*
X80936496Y-106450000D01*
X80937186Y-106456565D01*
X80952379Y-106601114D01*
X80956458Y-106639928D01*
X81015473Y-106821556D01*
X81018776Y-106827278D01*
X81018777Y-106827279D01*
X81042581Y-106868508D01*
X81110960Y-106986944D01*
X81115378Y-106991851D01*
X81115379Y-106991852D01*
X81215112Y-107102617D01*
X81238747Y-107128866D01*
X81259181Y-107143712D01*
X81344394Y-107205623D01*
X81393248Y-107241118D01*
X81399276Y-107243802D01*
X81399278Y-107243803D01*
X81496175Y-107286944D01*
X81567712Y-107318794D01*
X81661112Y-107338647D01*
X81748056Y-107357128D01*
X81748061Y-107357128D01*
X81754513Y-107358500D01*
X81945487Y-107358500D01*
X81951939Y-107357128D01*
X81951944Y-107357128D01*
X82038887Y-107338647D01*
X82132288Y-107318794D01*
X82203825Y-107286944D01*
X82300722Y-107243803D01*
X82300724Y-107243802D01*
X82306752Y-107241118D01*
X82355607Y-107205623D01*
X82440819Y-107143712D01*
X82461253Y-107128866D01*
X82484888Y-107102617D01*
X82584621Y-106991852D01*
X82584622Y-106991851D01*
X82589040Y-106986944D01*
X82657419Y-106868508D01*
X82681223Y-106827279D01*
X82681224Y-106827278D01*
X82684527Y-106821556D01*
X82707777Y-106750000D01*
X86136496Y-106750000D01*
X86137186Y-106756565D01*
X86155399Y-106929848D01*
X86156458Y-106939928D01*
X86215473Y-107121556D01*
X86310960Y-107286944D01*
X86315378Y-107291851D01*
X86315379Y-107291852D01*
X86434325Y-107423955D01*
X86438747Y-107428866D01*
X86593248Y-107541118D01*
X86599276Y-107543802D01*
X86599278Y-107543803D01*
X86696081Y-107586902D01*
X86767712Y-107618794D01*
X86836263Y-107633365D01*
X86948056Y-107657128D01*
X86948061Y-107657128D01*
X86954513Y-107658500D01*
X87145487Y-107658500D01*
X87151939Y-107657128D01*
X87151944Y-107657128D01*
X87263737Y-107633365D01*
X87332288Y-107618794D01*
X87403919Y-107586902D01*
X87500722Y-107543803D01*
X87500724Y-107543802D01*
X87506752Y-107541118D01*
X87661253Y-107428866D01*
X87665675Y-107423955D01*
X87784621Y-107291852D01*
X87784622Y-107291851D01*
X87789040Y-107286944D01*
X87810370Y-107250000D01*
X89536496Y-107250000D01*
X89537186Y-107256565D01*
X89553746Y-107414121D01*
X89556458Y-107439928D01*
X89615473Y-107621556D01*
X89618776Y-107627278D01*
X89618777Y-107627279D01*
X89636803Y-107658500D01*
X89710960Y-107786944D01*
X89715378Y-107791851D01*
X89715379Y-107791852D01*
X89834325Y-107923955D01*
X89838747Y-107928866D01*
X89927350Y-107993240D01*
X89970062Y-108024272D01*
X89993248Y-108041118D01*
X89999276Y-108043802D01*
X89999278Y-108043803D01*
X90158173Y-108114547D01*
X90167712Y-108118794D01*
X90233365Y-108132749D01*
X90348056Y-108157128D01*
X90348061Y-108157128D01*
X90354513Y-108158500D01*
X90545487Y-108158500D01*
X90551939Y-108157128D01*
X90551944Y-108157128D01*
X90666635Y-108132749D01*
X90732288Y-108118794D01*
X90741827Y-108114547D01*
X90900722Y-108043803D01*
X90900724Y-108043802D01*
X90906752Y-108041118D01*
X90929939Y-108024272D01*
X90972650Y-107993240D01*
X91061253Y-107928866D01*
X91065675Y-107923955D01*
X91184621Y-107791852D01*
X91184622Y-107791851D01*
X91189040Y-107786944D01*
X91263197Y-107658500D01*
X91281223Y-107627279D01*
X91281224Y-107627278D01*
X91284527Y-107621556D01*
X91343542Y-107439928D01*
X91346255Y-107414121D01*
X91362814Y-107256565D01*
X91363504Y-107250000D01*
X91358282Y-107200316D01*
X91344232Y-107066635D01*
X91344232Y-107066633D01*
X91343542Y-107060072D01*
X91284527Y-106878444D01*
X91278791Y-106868508D01*
X91227466Y-106779612D01*
X91189040Y-106713056D01*
X91140525Y-106659174D01*
X91118137Y-106634310D01*
X91087419Y-106570303D01*
X91096184Y-106499849D01*
X91118137Y-106465690D01*
X91184621Y-106391852D01*
X91184622Y-106391851D01*
X91189040Y-106386944D01*
X91284527Y-106221556D01*
X91343542Y-106039928D01*
X91347254Y-106004616D01*
X91362814Y-105856565D01*
X91363504Y-105850000D01*
X91345434Y-105678069D01*
X91344232Y-105666635D01*
X91344232Y-105666633D01*
X91343542Y-105660072D01*
X91284527Y-105478444D01*
X91269976Y-105453240D01*
X91236046Y-105394473D01*
X91189040Y-105313056D01*
X91164844Y-105286183D01*
X91065675Y-105176045D01*
X91065674Y-105176044D01*
X91061253Y-105171134D01*
X90919210Y-105067933D01*
X90912094Y-105062763D01*
X90912093Y-105062762D01*
X90906752Y-105058882D01*
X90900724Y-105056198D01*
X90900722Y-105056197D01*
X90738319Y-104983891D01*
X90738318Y-104983891D01*
X90732288Y-104981206D01*
X90634658Y-104960454D01*
X90551944Y-104942872D01*
X90551939Y-104942872D01*
X90545487Y-104941500D01*
X90354513Y-104941500D01*
X90348061Y-104942872D01*
X90348056Y-104942872D01*
X90265342Y-104960454D01*
X90167712Y-104981206D01*
X90161682Y-104983891D01*
X90161681Y-104983891D01*
X89999278Y-105056197D01*
X89999276Y-105056198D01*
X89993248Y-105058882D01*
X89987907Y-105062762D01*
X89987906Y-105062763D01*
X89980790Y-105067933D01*
X89838747Y-105171134D01*
X89834326Y-105176044D01*
X89834325Y-105176045D01*
X89735157Y-105286183D01*
X89710960Y-105313056D01*
X89663954Y-105394473D01*
X89630025Y-105453240D01*
X89615473Y-105478444D01*
X89556458Y-105660072D01*
X89555768Y-105666633D01*
X89555768Y-105666635D01*
X89554566Y-105678069D01*
X89536496Y-105850000D01*
X89537186Y-105856565D01*
X89552747Y-106004616D01*
X89556458Y-106039928D01*
X89615473Y-106221556D01*
X89710960Y-106386944D01*
X89715378Y-106391851D01*
X89715379Y-106391852D01*
X89781863Y-106465690D01*
X89812581Y-106529697D01*
X89803816Y-106600151D01*
X89781863Y-106634310D01*
X89759476Y-106659174D01*
X89710960Y-106713056D01*
X89672534Y-106779612D01*
X89621210Y-106868508D01*
X89615473Y-106878444D01*
X89556458Y-107060072D01*
X89555768Y-107066633D01*
X89555768Y-107066635D01*
X89541718Y-107200316D01*
X89536496Y-107250000D01*
X87810370Y-107250000D01*
X87884527Y-107121556D01*
X87943542Y-106939928D01*
X87944602Y-106929848D01*
X87962814Y-106756565D01*
X87963504Y-106750000D01*
X87959105Y-106708148D01*
X87944232Y-106566635D01*
X87944232Y-106566633D01*
X87943542Y-106560072D01*
X87884527Y-106378444D01*
X87878059Y-106367240D01*
X87812560Y-106253794D01*
X87789040Y-106213056D01*
X87661253Y-106071134D01*
X87554289Y-105993420D01*
X87512094Y-105962763D01*
X87512093Y-105962762D01*
X87506752Y-105958882D01*
X87500724Y-105956198D01*
X87500722Y-105956197D01*
X87338319Y-105883891D01*
X87338318Y-105883891D01*
X87332288Y-105881206D01*
X87238887Y-105861353D01*
X87151944Y-105842872D01*
X87151939Y-105842872D01*
X87145487Y-105841500D01*
X86954513Y-105841500D01*
X86948061Y-105842872D01*
X86948056Y-105842872D01*
X86861113Y-105861353D01*
X86767712Y-105881206D01*
X86761682Y-105883891D01*
X86761681Y-105883891D01*
X86599278Y-105956197D01*
X86599276Y-105956198D01*
X86593248Y-105958882D01*
X86587907Y-105962762D01*
X86587906Y-105962763D01*
X86545711Y-105993420D01*
X86438747Y-106071134D01*
X86310960Y-106213056D01*
X86287440Y-106253794D01*
X86221942Y-106367240D01*
X86215473Y-106378444D01*
X86156458Y-106560072D01*
X86155768Y-106566633D01*
X86155768Y-106566635D01*
X86140895Y-106708148D01*
X86136496Y-106750000D01*
X82707777Y-106750000D01*
X82743542Y-106639928D01*
X82747622Y-106601114D01*
X82762814Y-106456565D01*
X82763504Y-106450000D01*
X82758905Y-106406246D01*
X82744232Y-106266635D01*
X82744232Y-106266633D01*
X82743542Y-106260072D01*
X82684527Y-106078444D01*
X82657627Y-106031851D01*
X82640220Y-106001703D01*
X82589040Y-105913056D01*
X82576372Y-105898986D01*
X82465675Y-105776045D01*
X82465674Y-105776044D01*
X82461253Y-105771134D01*
X82306752Y-105658882D01*
X82300724Y-105656198D01*
X82300722Y-105656197D01*
X82138319Y-105583891D01*
X82138318Y-105583891D01*
X82132288Y-105581206D01*
X82031412Y-105559764D01*
X81951944Y-105542872D01*
X81951939Y-105542872D01*
X81945487Y-105541500D01*
X81754513Y-105541500D01*
X81748061Y-105542872D01*
X81748056Y-105542872D01*
X81668588Y-105559764D01*
X81567712Y-105581206D01*
X81561682Y-105583891D01*
X81561681Y-105583891D01*
X81399278Y-105656197D01*
X81399276Y-105656198D01*
X81393248Y-105658882D01*
X81238747Y-105771134D01*
X81234326Y-105776044D01*
X81234325Y-105776045D01*
X81123629Y-105898986D01*
X81110960Y-105913056D01*
X81059780Y-106001703D01*
X81042374Y-106031851D01*
X81015473Y-106078444D01*
X80956458Y-106260072D01*
X80955768Y-106266633D01*
X80955768Y-106266635D01*
X80941095Y-106406246D01*
X80936496Y-106450000D01*
X71506469Y-106450000D01*
X71506874Y-102577885D01*
X100716900Y-102577885D01*
X100721375Y-102593124D01*
X100722765Y-102594329D01*
X100730448Y-102596000D01*
X101802785Y-102596000D01*
X101818024Y-102591525D01*
X101819229Y-102590135D01*
X101820900Y-102582452D01*
X101820900Y-102577885D01*
X102328900Y-102577885D01*
X102333375Y-102593124D01*
X102334765Y-102594329D01*
X102342448Y-102596000D01*
X103414784Y-102596000D01*
X103430023Y-102591525D01*
X103431228Y-102590135D01*
X103432899Y-102582452D01*
X103432899Y-101955331D01*
X103432529Y-101948510D01*
X103427005Y-101897648D01*
X103423379Y-101882396D01*
X103378224Y-101761946D01*
X103369686Y-101746351D01*
X103293185Y-101644276D01*
X103280624Y-101631715D01*
X103178549Y-101555214D01*
X103162954Y-101546676D01*
X103042506Y-101501522D01*
X103027251Y-101497895D01*
X102976386Y-101492369D01*
X102969572Y-101492000D01*
X102347015Y-101492000D01*
X102331776Y-101496475D01*
X102330571Y-101497865D01*
X102328900Y-101505548D01*
X102328900Y-102577885D01*
X101820900Y-102577885D01*
X101820900Y-101510116D01*
X101816425Y-101494877D01*
X101815035Y-101493672D01*
X101807352Y-101492001D01*
X101180231Y-101492001D01*
X101173410Y-101492371D01*
X101122548Y-101497895D01*
X101107296Y-101501521D01*
X100986846Y-101546676D01*
X100971251Y-101555214D01*
X100869176Y-101631715D01*
X100856615Y-101644276D01*
X100780114Y-101746351D01*
X100771576Y-101761946D01*
X100726422Y-101882394D01*
X100722795Y-101897649D01*
X100717269Y-101948514D01*
X100716900Y-101955328D01*
X100716900Y-102577885D01*
X71506874Y-102577885D01*
X71507451Y-97050000D01*
X75586496Y-97050000D01*
X75587186Y-97056565D01*
X75604958Y-97225652D01*
X75606458Y-97239928D01*
X75665473Y-97421556D01*
X75668776Y-97427278D01*
X75668777Y-97427279D01*
X75681762Y-97449769D01*
X75760960Y-97586944D01*
X75765378Y-97591851D01*
X75765379Y-97591852D01*
X75884325Y-97723955D01*
X75888747Y-97728866D01*
X75965221Y-97784428D01*
X76019126Y-97823592D01*
X76043248Y-97841118D01*
X76049276Y-97843802D01*
X76049278Y-97843803D01*
X76211681Y-97916109D01*
X76217712Y-97918794D01*
X76311113Y-97938647D01*
X76398056Y-97957128D01*
X76398061Y-97957128D01*
X76404513Y-97958500D01*
X76595487Y-97958500D01*
X76601939Y-97957128D01*
X76601944Y-97957128D01*
X76688888Y-97938647D01*
X76782288Y-97918794D01*
X76788319Y-97916109D01*
X76950722Y-97843803D01*
X76950724Y-97843802D01*
X76956752Y-97841118D01*
X76980875Y-97823592D01*
X77034779Y-97784428D01*
X77111253Y-97728866D01*
X77115675Y-97723955D01*
X77234621Y-97591852D01*
X77234622Y-97591851D01*
X77239040Y-97586944D01*
X77285231Y-97506939D01*
X77288828Y-97500709D01*
X77340211Y-97451716D01*
X77409924Y-97438280D01*
X77475835Y-97464666D01*
X77517780Y-97524773D01*
X77565473Y-97671556D01*
X77660960Y-97836944D01*
X77665378Y-97841851D01*
X77665379Y-97841852D01*
X77748274Y-97933916D01*
X77788747Y-97978866D01*
X77943248Y-98091118D01*
X77949276Y-98093802D01*
X77949278Y-98093803D01*
X78082613Y-98153167D01*
X78117712Y-98168794D01*
X78211112Y-98188647D01*
X78298056Y-98207128D01*
X78298061Y-98207128D01*
X78304513Y-98208500D01*
X78495487Y-98208500D01*
X78501939Y-98207128D01*
X78501944Y-98207128D01*
X78588888Y-98188647D01*
X78682288Y-98168794D01*
X78717387Y-98153167D01*
X78850722Y-98093803D01*
X78850724Y-98093802D01*
X78856752Y-98091118D01*
X79011253Y-97978866D01*
X79051726Y-97933916D01*
X79134621Y-97841852D01*
X79134622Y-97841851D01*
X79139040Y-97836944D01*
X79234527Y-97671556D01*
X79293542Y-97489928D01*
X79298971Y-97438280D01*
X79312814Y-97306565D01*
X79313504Y-97300000D01*
X79307190Y-97239928D01*
X79294232Y-97116635D01*
X79294232Y-97116633D01*
X79293542Y-97110072D01*
X79274023Y-97050000D01*
X96936496Y-97050000D01*
X96937186Y-97056565D01*
X96954958Y-97225652D01*
X96956458Y-97239928D01*
X97015473Y-97421556D01*
X97018776Y-97427278D01*
X97018777Y-97427279D01*
X97031762Y-97449769D01*
X97110960Y-97586944D01*
X97115378Y-97591851D01*
X97115379Y-97591852D01*
X97234325Y-97723955D01*
X97238747Y-97728866D01*
X97315221Y-97784428D01*
X97369126Y-97823592D01*
X97393248Y-97841118D01*
X97399276Y-97843802D01*
X97399278Y-97843803D01*
X97561681Y-97916109D01*
X97567712Y-97918794D01*
X97661113Y-97938647D01*
X97748056Y-97957128D01*
X97748061Y-97957128D01*
X97754513Y-97958500D01*
X97945487Y-97958500D01*
X97951939Y-97957128D01*
X97951944Y-97957128D01*
X98038888Y-97938647D01*
X98132288Y-97918794D01*
X98138319Y-97916109D01*
X98300722Y-97843803D01*
X98300724Y-97843802D01*
X98306752Y-97841118D01*
X98330875Y-97823592D01*
X98384779Y-97784428D01*
X98461253Y-97728866D01*
X98465675Y-97723955D01*
X98584621Y-97591852D01*
X98584622Y-97591851D01*
X98589040Y-97586944D01*
X98668238Y-97449769D01*
X98681223Y-97427279D01*
X98681224Y-97427278D01*
X98684527Y-97421556D01*
X98743542Y-97239928D01*
X98745043Y-97225652D01*
X98762814Y-97056565D01*
X98763504Y-97050000D01*
X98758028Y-96997894D01*
X98744232Y-96866635D01*
X98744232Y-96866633D01*
X98743542Y-96860072D01*
X98684527Y-96678444D01*
X98589040Y-96513056D01*
X98526685Y-96443803D01*
X98465675Y-96376045D01*
X98465674Y-96376044D01*
X98461253Y-96371134D01*
X98320717Y-96269028D01*
X98312094Y-96262763D01*
X98312093Y-96262762D01*
X98306752Y-96258882D01*
X98300724Y-96256198D01*
X98300722Y-96256197D01*
X98138319Y-96183891D01*
X98138318Y-96183891D01*
X98132288Y-96181206D01*
X98038887Y-96161353D01*
X97951944Y-96142872D01*
X97951939Y-96142872D01*
X97945487Y-96141500D01*
X97754513Y-96141500D01*
X97748061Y-96142872D01*
X97748056Y-96142872D01*
X97661113Y-96161353D01*
X97567712Y-96181206D01*
X97561682Y-96183891D01*
X97561681Y-96183891D01*
X97399278Y-96256197D01*
X97399276Y-96256198D01*
X97393248Y-96258882D01*
X97387907Y-96262762D01*
X97387906Y-96262763D01*
X97379283Y-96269028D01*
X97238747Y-96371134D01*
X97234326Y-96376044D01*
X97234325Y-96376045D01*
X97173316Y-96443803D01*
X97110960Y-96513056D01*
X97015473Y-96678444D01*
X96956458Y-96860072D01*
X96955768Y-96866633D01*
X96955768Y-96866635D01*
X96941972Y-96997894D01*
X96936496Y-97050000D01*
X79274023Y-97050000D01*
X79234527Y-96928444D01*
X79224872Y-96911720D01*
X79188828Y-96849291D01*
X79139040Y-96763056D01*
X79011253Y-96621134D01*
X78866699Y-96516109D01*
X78862094Y-96512763D01*
X78862093Y-96512762D01*
X78856752Y-96508882D01*
X78850724Y-96506198D01*
X78850722Y-96506197D01*
X78688319Y-96433891D01*
X78688318Y-96433891D01*
X78682288Y-96431206D01*
X78567002Y-96406701D01*
X78501944Y-96392872D01*
X78501939Y-96392872D01*
X78495487Y-96391500D01*
X78304513Y-96391500D01*
X78298061Y-96392872D01*
X78298056Y-96392872D01*
X78232998Y-96406701D01*
X78117712Y-96431206D01*
X78111682Y-96433891D01*
X78111681Y-96433891D01*
X77949278Y-96506197D01*
X77949276Y-96506198D01*
X77943248Y-96508882D01*
X77937907Y-96512762D01*
X77937906Y-96512763D01*
X77933301Y-96516109D01*
X77788747Y-96621134D01*
X77660960Y-96763056D01*
X77622797Y-96829156D01*
X77611172Y-96849291D01*
X77559789Y-96898284D01*
X77490076Y-96911720D01*
X77424165Y-96885334D01*
X77382220Y-96825227D01*
X77368096Y-96781759D01*
X77334527Y-96678444D01*
X77239040Y-96513056D01*
X77176685Y-96443803D01*
X77115675Y-96376045D01*
X77115674Y-96376044D01*
X77111253Y-96371134D01*
X76970717Y-96269028D01*
X76962094Y-96262763D01*
X76962093Y-96262762D01*
X76956752Y-96258882D01*
X76950724Y-96256198D01*
X76950722Y-96256197D01*
X76788319Y-96183891D01*
X76788318Y-96183891D01*
X76782288Y-96181206D01*
X76688887Y-96161353D01*
X76601944Y-96142872D01*
X76601939Y-96142872D01*
X76595487Y-96141500D01*
X76404513Y-96141500D01*
X76398061Y-96142872D01*
X76398056Y-96142872D01*
X76311113Y-96161353D01*
X76217712Y-96181206D01*
X76211682Y-96183891D01*
X76211681Y-96183891D01*
X76049278Y-96256197D01*
X76049276Y-96256198D01*
X76043248Y-96258882D01*
X76037907Y-96262762D01*
X76037906Y-96262763D01*
X76029283Y-96269028D01*
X75888747Y-96371134D01*
X75884326Y-96376044D01*
X75884325Y-96376045D01*
X75823316Y-96443803D01*
X75760960Y-96513056D01*
X75665473Y-96678444D01*
X75606458Y-96860072D01*
X75605768Y-96866633D01*
X75605768Y-96866635D01*
X75591972Y-96997894D01*
X75586496Y-97050000D01*
X71507451Y-97050000D01*
X71507686Y-94800000D01*
X72136496Y-94800000D01*
X72137186Y-94806565D01*
X72155129Y-94977279D01*
X72156458Y-94989928D01*
X72215473Y-95171556D01*
X72218776Y-95177278D01*
X72218777Y-95177279D01*
X72224526Y-95187237D01*
X72310960Y-95336944D01*
X72315378Y-95341851D01*
X72315379Y-95341852D01*
X72427730Y-95466630D01*
X72438747Y-95478866D01*
X72500577Y-95523788D01*
X72586829Y-95586454D01*
X72593248Y-95591118D01*
X72599276Y-95593802D01*
X72599278Y-95593803D01*
X72740245Y-95656565D01*
X72767712Y-95668794D01*
X72861112Y-95688647D01*
X72948056Y-95707128D01*
X72948061Y-95707128D01*
X72954513Y-95708500D01*
X73145487Y-95708500D01*
X73151939Y-95707128D01*
X73151944Y-95707128D01*
X73190201Y-95698996D01*
X73201457Y-95696603D01*
X73272248Y-95702005D01*
X73328880Y-95744822D01*
X73352964Y-95806680D01*
X73356458Y-95839928D01*
X73415473Y-96021556D01*
X73510960Y-96186944D01*
X73515378Y-96191851D01*
X73515379Y-96191852D01*
X73630217Y-96319393D01*
X73638747Y-96328866D01*
X73793248Y-96441118D01*
X73799276Y-96443802D01*
X73799278Y-96443803D01*
X73961681Y-96516109D01*
X73967712Y-96518794D01*
X74061113Y-96538647D01*
X74148056Y-96557128D01*
X74148061Y-96557128D01*
X74154513Y-96558500D01*
X74345487Y-96558500D01*
X74351939Y-96557128D01*
X74351944Y-96557128D01*
X74438887Y-96538647D01*
X74532288Y-96518794D01*
X74538319Y-96516109D01*
X74700722Y-96443803D01*
X74700724Y-96443802D01*
X74706752Y-96441118D01*
X74861253Y-96328866D01*
X74869783Y-96319393D01*
X74984621Y-96191852D01*
X74984622Y-96191851D01*
X74989040Y-96186944D01*
X75084527Y-96021556D01*
X75092959Y-95995604D01*
X101412787Y-95995604D01*
X101422567Y-96206899D01*
X101423971Y-96212724D01*
X101423971Y-96212725D01*
X101462148Y-96371134D01*
X101472125Y-96412534D01*
X101474607Y-96417992D01*
X101474608Y-96417996D01*
X101515598Y-96508148D01*
X101559674Y-96605087D01*
X101653331Y-96737120D01*
X101666109Y-96755132D01*
X101682054Y-96777611D01*
X101686381Y-96781753D01*
X101686386Y-96781759D01*
X101777317Y-96868806D01*
X101812694Y-96930361D01*
X101809175Y-97001270D01*
X101767879Y-97059021D01*
X101756496Y-97066965D01*
X101700652Y-97101522D01*
X101575695Y-97226697D01*
X101571855Y-97232927D01*
X101571854Y-97232928D01*
X101494056Y-97359140D01*
X101482885Y-97377262D01*
X101467805Y-97422726D01*
X101436739Y-97516390D01*
X101427203Y-97545139D01*
X101426503Y-97551975D01*
X101426502Y-97551978D01*
X101422920Y-97586944D01*
X101416500Y-97649600D01*
X101416500Y-98450400D01*
X101427474Y-98556166D01*
X101483450Y-98723946D01*
X101576522Y-98874348D01*
X101701697Y-98999305D01*
X101707927Y-99003145D01*
X101707928Y-99003146D01*
X101841015Y-99085182D01*
X101852262Y-99092115D01*
X101932005Y-99118564D01*
X102013611Y-99145632D01*
X102013613Y-99145632D01*
X102020139Y-99147797D01*
X102026975Y-99148497D01*
X102026978Y-99148498D01*
X102070031Y-99152909D01*
X102124600Y-99158500D01*
X103475400Y-99158500D01*
X103478646Y-99158163D01*
X103478650Y-99158163D01*
X103574313Y-99148237D01*
X103581166Y-99147526D01*
X103587699Y-99145346D01*
X103588905Y-99145086D01*
X103659712Y-99150259D01*
X103716483Y-99192892D01*
X103741193Y-99259450D01*
X103741500Y-99268247D01*
X103741500Y-112226641D01*
X103740763Y-112240248D01*
X103740281Y-112244690D01*
X103736676Y-112277872D01*
X103737213Y-112284007D01*
X103741050Y-112327872D01*
X103741379Y-112332698D01*
X103741500Y-112335170D01*
X103741500Y-112338253D01*
X103741801Y-112341321D01*
X103745690Y-112380990D01*
X103745812Y-112382303D01*
X103747935Y-112406565D01*
X103753913Y-112474897D01*
X103755400Y-112480016D01*
X103755920Y-112485317D01*
X103757703Y-112491221D01*
X103758126Y-112492623D01*
X103758165Y-112493557D01*
X103758899Y-112497263D01*
X103758325Y-112497377D01*
X103760751Y-112555223D01*
X103760629Y-112555799D01*
X103758765Y-112561674D01*
X103758171Y-112566970D01*
X103756613Y-112572066D01*
X103755466Y-112583365D01*
X103747218Y-112664555D01*
X103747089Y-112665761D01*
X103741500Y-112715595D01*
X103741500Y-112719122D01*
X103741445Y-112720107D01*
X103740998Y-112725787D01*
X103736626Y-112768830D01*
X103739779Y-112802180D01*
X103740941Y-112814477D01*
X103741500Y-112826335D01*
X103741500Y-119739475D01*
X103740763Y-119753082D01*
X103736676Y-119790706D01*
X103737213Y-119796841D01*
X103741050Y-119840706D01*
X103741379Y-119845532D01*
X103741500Y-119848004D01*
X103741500Y-119851087D01*
X103741801Y-119854155D01*
X103745690Y-119893824D01*
X103745812Y-119895137D01*
X103748282Y-119923365D01*
X103753913Y-119987731D01*
X103755400Y-119992850D01*
X103755920Y-119998151D01*
X103782791Y-120087152D01*
X103783126Y-120088285D01*
X103794376Y-120127005D01*
X103809091Y-120177654D01*
X103811544Y-120182386D01*
X103813084Y-120187487D01*
X103844357Y-120246305D01*
X103858676Y-120315841D01*
X103843520Y-120366156D01*
X103821538Y-120406141D01*
X103821535Y-120406149D01*
X103818567Y-120411547D01*
X103816955Y-120416629D01*
X103814438Y-120421323D01*
X103787238Y-120510291D01*
X103786918Y-120511319D01*
X103758765Y-120600066D01*
X103758171Y-120605362D01*
X103756613Y-120610458D01*
X103747841Y-120696817D01*
X103747218Y-120702947D01*
X103747089Y-120704153D01*
X103741500Y-120753987D01*
X103741500Y-120757514D01*
X103741445Y-120758499D01*
X103740998Y-120764179D01*
X103738011Y-120793585D01*
X103737432Y-120799292D01*
X103736626Y-120807222D01*
X103740623Y-120849501D01*
X103740941Y-120852869D01*
X103741500Y-120864727D01*
X103741500Y-125480091D01*
X103721498Y-125548212D01*
X103667842Y-125594705D01*
X103597568Y-125604809D01*
X103532988Y-125575315D01*
X103506381Y-125543092D01*
X103492341Y-125518774D01*
X103489040Y-125513056D01*
X103448020Y-125467498D01*
X103365675Y-125376045D01*
X103365674Y-125376044D01*
X103361253Y-125371134D01*
X103206752Y-125258882D01*
X103200724Y-125256198D01*
X103200722Y-125256197D01*
X103038319Y-125183891D01*
X103038318Y-125183891D01*
X103032288Y-125181206D01*
X102938887Y-125161353D01*
X102851944Y-125142872D01*
X102851939Y-125142872D01*
X102845487Y-125141500D01*
X102654513Y-125141500D01*
X102648061Y-125142872D01*
X102648056Y-125142872D01*
X102561113Y-125161353D01*
X102467712Y-125181206D01*
X102461682Y-125183891D01*
X102461681Y-125183891D01*
X102299278Y-125256197D01*
X102299276Y-125256198D01*
X102293248Y-125258882D01*
X102138747Y-125371134D01*
X102134326Y-125376044D01*
X102134325Y-125376045D01*
X102051981Y-125467498D01*
X102010960Y-125513056D01*
X101915473Y-125678444D01*
X101856458Y-125860072D01*
X101855768Y-125866633D01*
X101855768Y-125866635D01*
X101838471Y-126031206D01*
X101836496Y-126050000D01*
X101837186Y-126056565D01*
X101854483Y-126221134D01*
X101856458Y-126239928D01*
X101915473Y-126421556D01*
X101918776Y-126427278D01*
X101918777Y-126427279D01*
X101936061Y-126457216D01*
X102010960Y-126586944D01*
X102015378Y-126591851D01*
X102015379Y-126591852D01*
X102127734Y-126716635D01*
X102138747Y-126728866D01*
X102293248Y-126841118D01*
X102299276Y-126843802D01*
X102299278Y-126843803D01*
X102440245Y-126906565D01*
X102467712Y-126918794D01*
X102532203Y-126932502D01*
X102648056Y-126957128D01*
X102648061Y-126957128D01*
X102654513Y-126958500D01*
X102845487Y-126958500D01*
X102851939Y-126957128D01*
X102851944Y-126957128D01*
X102967797Y-126932502D01*
X103032288Y-126918794D01*
X103059755Y-126906565D01*
X103200722Y-126843803D01*
X103200724Y-126843802D01*
X103206752Y-126841118D01*
X103361253Y-126728866D01*
X103372266Y-126716635D01*
X103484621Y-126591852D01*
X103484622Y-126591851D01*
X103489040Y-126586944D01*
X103563939Y-126457216D01*
X103581223Y-126427279D01*
X103581224Y-126427278D01*
X103584527Y-126421556D01*
X103596712Y-126384053D01*
X103636783Y-126325451D01*
X103702180Y-126297813D01*
X103772137Y-126309919D01*
X103827796Y-126363839D01*
X103905934Y-126510796D01*
X103968039Y-126586944D01*
X104027040Y-126659287D01*
X104027043Y-126659290D01*
X104030935Y-126664062D01*
X104035682Y-126667989D01*
X104035684Y-126667991D01*
X104178575Y-126786201D01*
X104178579Y-126786203D01*
X104183325Y-126790130D01*
X104357299Y-126884198D01*
X104546232Y-126942682D01*
X104552357Y-126943326D01*
X104552358Y-126943326D01*
X104736796Y-126962711D01*
X104736798Y-126962711D01*
X104742925Y-126963355D01*
X104825424Y-126955847D01*
X104933749Y-126945989D01*
X104933752Y-126945988D01*
X104939888Y-126945430D01*
X104945794Y-126943692D01*
X104945798Y-126943691D01*
X105101441Y-126897883D01*
X105129619Y-126889590D01*
X105135077Y-126886737D01*
X105135081Y-126886735D01*
X105229760Y-126837237D01*
X105304890Y-126797960D01*
X105459025Y-126674032D01*
X105586154Y-126522526D01*
X105589121Y-126517128D01*
X105589125Y-126517123D01*
X105678467Y-126354608D01*
X105681433Y-126349213D01*
X105690147Y-126321745D01*
X105739373Y-126166564D01*
X105739373Y-126166563D01*
X105741235Y-126160694D01*
X105758500Y-126006773D01*
X105758500Y-125853317D01*
X106533026Y-125853317D01*
X106553022Y-126234849D01*
X106553708Y-126241387D01*
X106613477Y-126618750D01*
X106614848Y-126625200D01*
X106713730Y-126994232D01*
X106715771Y-127000514D01*
X106852682Y-127357180D01*
X106855364Y-127363205D01*
X107028814Y-127703619D01*
X107032111Y-127709329D01*
X107240195Y-128029751D01*
X107244065Y-128035077D01*
X107437420Y-128273851D01*
X107449675Y-128282316D01*
X107460766Y-128275982D01*
X109873920Y-125862828D01*
X109881534Y-125848884D01*
X109881403Y-125847051D01*
X109877152Y-125840436D01*
X107461632Y-123424916D01*
X107448556Y-123417775D01*
X107438189Y-123425232D01*
X107244065Y-123664955D01*
X107240195Y-123670281D01*
X107032111Y-123990703D01*
X107028814Y-123996413D01*
X106855364Y-124336827D01*
X106852682Y-124342852D01*
X106715771Y-124699518D01*
X106713730Y-124705800D01*
X106614848Y-125074832D01*
X106613477Y-125081282D01*
X106553708Y-125458645D01*
X106553022Y-125465183D01*
X106533026Y-125846715D01*
X106533026Y-125853317D01*
X105758500Y-125853317D01*
X105758500Y-123053749D01*
X107813642Y-123053749D01*
X107819976Y-123064840D01*
X110233130Y-125477994D01*
X110247074Y-125485608D01*
X110248907Y-125485477D01*
X110255522Y-125481226D01*
X112671042Y-123065706D01*
X112678183Y-123052630D01*
X112670726Y-123042263D01*
X112431007Y-122848142D01*
X112425670Y-122844265D01*
X112105257Y-122636186D01*
X112099548Y-122632889D01*
X111759131Y-122459438D01*
X111753106Y-122456756D01*
X111396440Y-122319845D01*
X111390158Y-122317804D01*
X111021126Y-122218922D01*
X111014676Y-122217551D01*
X110637313Y-122157782D01*
X110630775Y-122157096D01*
X110249243Y-122137100D01*
X110242641Y-122137100D01*
X109861109Y-122157096D01*
X109854571Y-122157782D01*
X109477208Y-122217551D01*
X109470758Y-122218922D01*
X109101726Y-122317804D01*
X109095444Y-122319845D01*
X108738778Y-122456756D01*
X108732753Y-122459438D01*
X108392339Y-122632888D01*
X108386629Y-122636185D01*
X108066207Y-122844269D01*
X108060881Y-122848139D01*
X107822107Y-123041494D01*
X107813642Y-123053749D01*
X105758500Y-123053749D01*
X105758500Y-121280684D01*
X105778502Y-121212563D01*
X105795405Y-121191589D01*
X105918154Y-121068840D01*
X105980466Y-121034814D01*
X106051281Y-121039879D01*
X106108117Y-121082426D01*
X106123992Y-121110530D01*
X106128311Y-121121168D01*
X106255772Y-121329165D01*
X106415492Y-121513552D01*
X106603183Y-121669376D01*
X106813804Y-121792452D01*
X107041698Y-121879477D01*
X107046764Y-121880508D01*
X107046765Y-121880508D01*
X107275667Y-121927079D01*
X107275671Y-121927079D01*
X107280746Y-121928112D01*
X107285922Y-121928302D01*
X107285924Y-121928302D01*
X107519363Y-121936862D01*
X107519367Y-121936862D01*
X107524527Y-121937051D01*
X107529647Y-121936395D01*
X107529649Y-121936395D01*
X107606377Y-121926566D01*
X107766494Y-121906054D01*
X107771443Y-121904569D01*
X107771449Y-121904568D01*
X107995200Y-121837439D01*
X107995199Y-121837439D01*
X108000150Y-121835954D01*
X108219219Y-121728633D01*
X108223424Y-121725633D01*
X108223430Y-121725630D01*
X108413614Y-121589973D01*
X108413616Y-121589971D01*
X108417818Y-121586974D01*
X108590614Y-121414780D01*
X108732966Y-121216676D01*
X108746559Y-121189174D01*
X108838756Y-121002625D01*
X108838757Y-121002623D01*
X108841050Y-120997983D01*
X108870841Y-120899932D01*
X108910462Y-120769526D01*
X108910463Y-120769520D01*
X108911966Y-120764574D01*
X108929372Y-120632358D01*
X108943370Y-120526037D01*
X108943370Y-120526033D01*
X108943807Y-120522716D01*
X108943889Y-120519364D01*
X108945502Y-120453364D01*
X108945502Y-120453360D01*
X108945584Y-120449999D01*
X108925596Y-120206875D01*
X108871988Y-119993452D01*
X108867426Y-119975291D01*
X108867426Y-119975290D01*
X108866167Y-119970279D01*
X108785423Y-119784580D01*
X108770954Y-119751304D01*
X108770952Y-119751301D01*
X108768894Y-119746567D01*
X108652491Y-119566635D01*
X108639200Y-119546090D01*
X108639198Y-119546087D01*
X108636390Y-119541747D01*
X108585410Y-119485720D01*
X108475690Y-119365140D01*
X108475688Y-119365139D01*
X108472212Y-119361318D01*
X108468161Y-119358119D01*
X108468157Y-119358115D01*
X108284825Y-119213328D01*
X108284821Y-119213326D01*
X108280770Y-119210126D01*
X108263643Y-119200671D01*
X108224759Y-119179206D01*
X108067205Y-119092232D01*
X108062336Y-119090508D01*
X108062332Y-119090506D01*
X107842127Y-119012527D01*
X107842123Y-119012526D01*
X107837252Y-119010801D01*
X107832159Y-119009894D01*
X107832156Y-119009893D01*
X107602177Y-118968927D01*
X107602171Y-118968926D01*
X107597088Y-118968021D01*
X107517380Y-118967047D01*
X107358332Y-118965104D01*
X107358330Y-118965104D01*
X107353162Y-118965041D01*
X107112024Y-119001940D01*
X106880150Y-119077728D01*
X106663769Y-119190369D01*
X106659636Y-119193472D01*
X106659633Y-119193474D01*
X106475943Y-119331393D01*
X106468690Y-119336839D01*
X106422925Y-119384729D01*
X106364418Y-119445954D01*
X106300153Y-119513203D01*
X106297239Y-119517475D01*
X106297238Y-119517476D01*
X106280682Y-119541747D01*
X106221708Y-119628200D01*
X106217571Y-119634264D01*
X106162660Y-119679267D01*
X106092135Y-119687438D01*
X106028388Y-119656184D01*
X106015015Y-119641873D01*
X106010187Y-119635826D01*
X106010180Y-119635818D01*
X106007983Y-119633066D01*
X106006163Y-119631246D01*
X106003571Y-119628200D01*
X105980157Y-119599287D01*
X105976274Y-119594492D01*
X105939511Y-119563862D01*
X105931071Y-119556154D01*
X105795405Y-119420488D01*
X105761379Y-119358176D01*
X105758500Y-119331393D01*
X105758500Y-116809976D01*
X105778502Y-116741855D01*
X105832158Y-116695362D01*
X105902432Y-116685258D01*
X105967012Y-116714752D01*
X106005396Y-116774478D01*
X106007417Y-116782275D01*
X106036533Y-116911473D01*
X106038475Y-116916255D01*
X106038476Y-116916259D01*
X106126367Y-117132708D01*
X106128311Y-117137495D01*
X106255772Y-117345492D01*
X106415492Y-117529879D01*
X106603183Y-117685703D01*
X106813804Y-117808779D01*
X107041698Y-117895804D01*
X107046764Y-117896835D01*
X107046765Y-117896835D01*
X107275667Y-117943406D01*
X107275671Y-117943406D01*
X107280746Y-117944439D01*
X107285922Y-117944629D01*
X107285924Y-117944629D01*
X107519363Y-117953189D01*
X107519367Y-117953189D01*
X107524527Y-117953378D01*
X107529647Y-117952722D01*
X107529649Y-117952722D01*
X107606377Y-117942893D01*
X107766494Y-117922381D01*
X107771443Y-117920896D01*
X107771449Y-117920895D01*
X107995200Y-117853766D01*
X107995199Y-117853766D01*
X108000150Y-117852281D01*
X108219219Y-117744960D01*
X108223424Y-117741960D01*
X108223430Y-117741957D01*
X108413614Y-117606300D01*
X108413616Y-117606298D01*
X108417818Y-117603301D01*
X108590614Y-117431107D01*
X108732966Y-117233003D01*
X108770351Y-117157361D01*
X108838756Y-117018952D01*
X108838757Y-117018950D01*
X108841050Y-117014310D01*
X108872529Y-116910702D01*
X108910462Y-116785853D01*
X108910463Y-116785847D01*
X108911966Y-116780901D01*
X108942020Y-116552617D01*
X108943370Y-116542364D01*
X108943370Y-116542360D01*
X108943807Y-116539043D01*
X108944116Y-116526411D01*
X108945502Y-116469691D01*
X108945502Y-116469687D01*
X108945584Y-116466326D01*
X108925596Y-116223202D01*
X108866167Y-115986606D01*
X108777527Y-115782749D01*
X108770954Y-115767631D01*
X108770952Y-115767628D01*
X108768894Y-115762894D01*
X108636390Y-115558074D01*
X108618486Y-115538397D01*
X108475690Y-115381467D01*
X108475688Y-115381466D01*
X108472212Y-115377645D01*
X108468161Y-115374446D01*
X108468157Y-115374442D01*
X108284825Y-115229655D01*
X108284821Y-115229653D01*
X108280770Y-115226453D01*
X108273474Y-115222425D01*
X108203669Y-115183891D01*
X108067205Y-115108559D01*
X108062336Y-115106835D01*
X108062332Y-115106833D01*
X107842127Y-115028854D01*
X107842123Y-115028853D01*
X107837252Y-115027128D01*
X107832159Y-115026221D01*
X107832156Y-115026220D01*
X107602177Y-114985254D01*
X107602171Y-114985253D01*
X107597088Y-114984348D01*
X107517380Y-114983374D01*
X107358332Y-114981431D01*
X107358330Y-114981431D01*
X107353162Y-114981368D01*
X107112024Y-115018267D01*
X106880150Y-115094055D01*
X106875558Y-115096445D01*
X106875559Y-115096445D01*
X106709408Y-115182938D01*
X106663769Y-115206696D01*
X106659636Y-115209799D01*
X106659633Y-115209801D01*
X106475625Y-115347959D01*
X106468690Y-115353166D01*
X106400828Y-115424180D01*
X106321265Y-115507438D01*
X106300153Y-115529530D01*
X106297239Y-115533802D01*
X106297238Y-115533803D01*
X106230781Y-115631226D01*
X106162684Y-115731052D01*
X106139949Y-115780031D01*
X106073433Y-115923327D01*
X106059974Y-115952321D01*
X106026806Y-116071921D01*
X106005917Y-116147245D01*
X105968438Y-116207543D01*
X105904310Y-116238006D01*
X105833891Y-116228963D01*
X105779541Y-116183284D01*
X105758500Y-116113573D01*
X105758500Y-113231564D01*
X105778502Y-113163443D01*
X105787697Y-113150910D01*
X105826142Y-113104767D01*
X105830089Y-113100030D01*
X105831790Y-113096910D01*
X105834045Y-113094165D01*
X105860895Y-113044090D01*
X105910713Y-112993507D01*
X105979970Y-112977887D01*
X106046678Y-113002191D01*
X106088682Y-113056226D01*
X106128311Y-113153822D01*
X106255772Y-113361819D01*
X106415492Y-113546206D01*
X106603183Y-113702030D01*
X106813804Y-113825106D01*
X107041698Y-113912131D01*
X107046764Y-113913162D01*
X107046765Y-113913162D01*
X107275667Y-113959733D01*
X107275671Y-113959733D01*
X107280746Y-113960766D01*
X107285922Y-113960956D01*
X107285924Y-113960956D01*
X107519363Y-113969516D01*
X107519367Y-113969516D01*
X107524527Y-113969705D01*
X107529647Y-113969049D01*
X107529649Y-113969049D01*
X107628302Y-113956411D01*
X107766494Y-113938708D01*
X107771443Y-113937223D01*
X107771449Y-113937222D01*
X107995200Y-113870093D01*
X107995199Y-113870093D01*
X108000150Y-113868608D01*
X108219219Y-113761287D01*
X108223424Y-113758287D01*
X108223430Y-113758284D01*
X108413614Y-113622627D01*
X108413616Y-113622625D01*
X108417818Y-113619628D01*
X108590614Y-113447434D01*
X108732966Y-113249330D01*
X108741747Y-113231564D01*
X108838756Y-113035279D01*
X108838757Y-113035277D01*
X108841050Y-113030637D01*
X108868025Y-112941852D01*
X108910462Y-112802180D01*
X108910463Y-112802174D01*
X108911966Y-112797228D01*
X108938431Y-112596206D01*
X108943370Y-112558691D01*
X108943370Y-112558687D01*
X108943807Y-112555370D01*
X108945318Y-112493557D01*
X108945502Y-112486018D01*
X108945502Y-112486014D01*
X108945584Y-112482653D01*
X108925596Y-112239529D01*
X108866167Y-112002933D01*
X108791736Y-111831753D01*
X108770954Y-111783958D01*
X108770952Y-111783955D01*
X108768894Y-111779221D01*
X108677464Y-111637892D01*
X108639200Y-111578744D01*
X108639198Y-111578741D01*
X108636390Y-111574401D01*
X108562205Y-111492872D01*
X108475690Y-111397794D01*
X108475688Y-111397793D01*
X108472212Y-111393972D01*
X108468161Y-111390773D01*
X108468157Y-111390769D01*
X108284825Y-111245982D01*
X108284821Y-111245980D01*
X108280770Y-111242780D01*
X108067205Y-111124886D01*
X108062336Y-111123162D01*
X108062332Y-111123160D01*
X107842127Y-111045181D01*
X107842123Y-111045180D01*
X107837252Y-111043455D01*
X107832159Y-111042548D01*
X107832156Y-111042547D01*
X107602177Y-111001581D01*
X107602171Y-111001580D01*
X107597088Y-111000675D01*
X107517380Y-110999701D01*
X107358332Y-110997758D01*
X107358330Y-110997758D01*
X107353162Y-110997695D01*
X107112024Y-111034594D01*
X106880150Y-111110382D01*
X106663769Y-111223023D01*
X106659636Y-111226126D01*
X106659633Y-111226128D01*
X106472825Y-111366388D01*
X106468690Y-111369493D01*
X106465118Y-111373231D01*
X106350787Y-111492872D01*
X106300153Y-111545857D01*
X106297239Y-111550129D01*
X106297238Y-111550130D01*
X106203699Y-111687253D01*
X106162684Y-111747379D01*
X106123519Y-111831753D01*
X106062001Y-111964281D01*
X106015177Y-112017648D01*
X105946934Y-112037228D01*
X105878938Y-112016804D01*
X105843341Y-111981408D01*
X105841834Y-111978500D01*
X105839619Y-111975725D01*
X105837960Y-111972579D01*
X105834090Y-111967799D01*
X105834086Y-111967794D01*
X105786580Y-111909130D01*
X105759254Y-111843603D01*
X105758500Y-111829836D01*
X105758500Y-108842630D01*
X105778502Y-108774509D01*
X105832158Y-108728016D01*
X105902432Y-108717912D01*
X105967012Y-108747406D01*
X106005396Y-108807132D01*
X106007417Y-108814929D01*
X106036533Y-108944127D01*
X106038475Y-108948909D01*
X106038476Y-108948913D01*
X106120129Y-109150000D01*
X106128311Y-109170149D01*
X106255772Y-109378146D01*
X106415492Y-109562533D01*
X106603183Y-109718357D01*
X106813804Y-109841433D01*
X107041698Y-109928458D01*
X107046764Y-109929489D01*
X107046765Y-109929489D01*
X107275667Y-109976060D01*
X107275671Y-109976060D01*
X107280746Y-109977093D01*
X107285922Y-109977283D01*
X107285924Y-109977283D01*
X107519363Y-109985843D01*
X107519367Y-109985843D01*
X107524527Y-109986032D01*
X107529647Y-109985376D01*
X107529649Y-109985376D01*
X107606377Y-109975547D01*
X107766494Y-109955035D01*
X107771443Y-109953550D01*
X107771449Y-109953549D01*
X107995200Y-109886420D01*
X107995199Y-109886420D01*
X108000150Y-109884935D01*
X108219219Y-109777614D01*
X108223424Y-109774614D01*
X108223430Y-109774611D01*
X108413614Y-109638954D01*
X108413616Y-109638952D01*
X108417818Y-109635955D01*
X108590614Y-109463761D01*
X108732966Y-109265657D01*
X108739191Y-109253063D01*
X108838756Y-109051606D01*
X108838757Y-109051604D01*
X108841050Y-109046964D01*
X108857802Y-108991829D01*
X108910462Y-108818507D01*
X108910463Y-108818501D01*
X108911966Y-108813555D01*
X108939008Y-108608148D01*
X108943370Y-108575018D01*
X108943370Y-108575014D01*
X108943807Y-108571697D01*
X108943916Y-108567251D01*
X108945502Y-108502345D01*
X108945502Y-108502341D01*
X108945584Y-108498980D01*
X108925596Y-108255856D01*
X108866167Y-108019260D01*
X108768894Y-107795548D01*
X108656334Y-107621556D01*
X108639200Y-107595071D01*
X108639198Y-107595068D01*
X108636390Y-107590728D01*
X108618486Y-107571051D01*
X108475690Y-107414121D01*
X108475688Y-107414120D01*
X108472212Y-107410299D01*
X108468161Y-107407100D01*
X108468157Y-107407096D01*
X108284825Y-107262309D01*
X108284821Y-107262307D01*
X108280770Y-107259107D01*
X108271146Y-107253794D01*
X108224759Y-107228187D01*
X108067205Y-107141213D01*
X108062336Y-107139489D01*
X108062332Y-107139487D01*
X107842127Y-107061508D01*
X107842123Y-107061507D01*
X107837252Y-107059782D01*
X107832159Y-107058875D01*
X107832156Y-107058874D01*
X107602177Y-107017908D01*
X107602171Y-107017907D01*
X107597088Y-107017002D01*
X107517380Y-107016028D01*
X107358332Y-107014085D01*
X107358330Y-107014085D01*
X107353162Y-107014022D01*
X107112024Y-107050921D01*
X106880150Y-107126709D01*
X106875558Y-107129099D01*
X106875559Y-107129099D01*
X106709408Y-107215592D01*
X106663769Y-107239350D01*
X106659636Y-107242453D01*
X106659633Y-107242455D01*
X106475625Y-107380613D01*
X106468690Y-107385820D01*
X106465118Y-107389558D01*
X106323224Y-107538042D01*
X106300153Y-107562184D01*
X106297239Y-107566456D01*
X106297238Y-107566457D01*
X106263368Y-107616109D01*
X106162684Y-107763706D01*
X106145705Y-107800285D01*
X106083931Y-107933365D01*
X106059974Y-107984975D01*
X106022863Y-108118794D01*
X106005917Y-108179899D01*
X105968438Y-108240197D01*
X105904310Y-108270660D01*
X105833891Y-108261617D01*
X105779541Y-108215938D01*
X105758500Y-108146227D01*
X105758500Y-104858957D01*
X105778502Y-104790836D01*
X105832158Y-104744343D01*
X105902432Y-104734239D01*
X105967012Y-104763733D01*
X106005396Y-104823459D01*
X106007417Y-104831256D01*
X106036533Y-104960454D01*
X106038475Y-104965236D01*
X106038476Y-104965240D01*
X106120549Y-105167361D01*
X106128311Y-105186476D01*
X106255772Y-105394473D01*
X106415492Y-105578860D01*
X106603183Y-105734684D01*
X106813804Y-105857760D01*
X106818629Y-105859602D01*
X106818630Y-105859603D01*
X106875202Y-105881206D01*
X107041698Y-105944785D01*
X107046764Y-105945816D01*
X107046765Y-105945816D01*
X107275667Y-105992387D01*
X107275671Y-105992387D01*
X107280746Y-105993420D01*
X107285922Y-105993610D01*
X107285924Y-105993610D01*
X107519363Y-106002170D01*
X107519367Y-106002170D01*
X107524527Y-106002359D01*
X107529647Y-106001703D01*
X107529649Y-106001703D01*
X107606377Y-105991874D01*
X107766494Y-105971362D01*
X107771443Y-105969877D01*
X107771449Y-105969876D01*
X107995200Y-105902747D01*
X107995199Y-105902747D01*
X108000150Y-105901262D01*
X108219219Y-105793941D01*
X108223424Y-105790941D01*
X108223430Y-105790938D01*
X108413614Y-105655281D01*
X108413616Y-105655279D01*
X108417818Y-105652282D01*
X108590614Y-105480088D01*
X108732966Y-105281984D01*
X108792097Y-105162342D01*
X108838756Y-105067933D01*
X108838757Y-105067931D01*
X108841050Y-105063291D01*
X108877637Y-104942872D01*
X108910462Y-104834834D01*
X108910463Y-104834828D01*
X108911966Y-104829882D01*
X108943807Y-104588024D01*
X108944534Y-104558277D01*
X108945502Y-104518672D01*
X108945502Y-104518668D01*
X108945584Y-104515307D01*
X108925596Y-104272183D01*
X108866167Y-104035587D01*
X108768894Y-103811875D01*
X108636390Y-103607055D01*
X108472212Y-103426626D01*
X108468161Y-103423427D01*
X108468157Y-103423423D01*
X108284825Y-103278636D01*
X108284821Y-103278634D01*
X108280770Y-103275434D01*
X108067205Y-103157540D01*
X108062336Y-103155816D01*
X108062332Y-103155814D01*
X107842127Y-103077835D01*
X107842123Y-103077834D01*
X107837252Y-103076109D01*
X107832159Y-103075202D01*
X107832156Y-103075201D01*
X107602177Y-103034235D01*
X107602171Y-103034234D01*
X107597088Y-103033329D01*
X107517380Y-103032355D01*
X107358332Y-103030412D01*
X107358330Y-103030412D01*
X107353162Y-103030349D01*
X107112024Y-103067248D01*
X106880150Y-103143036D01*
X106663769Y-103255677D01*
X106659636Y-103258780D01*
X106659633Y-103258782D01*
X106478178Y-103395023D01*
X106468690Y-103402147D01*
X106300153Y-103578511D01*
X106297239Y-103582783D01*
X106297238Y-103582784D01*
X106277719Y-103611398D01*
X106162684Y-103780033D01*
X106059974Y-104001302D01*
X106006495Y-104194142D01*
X106005917Y-104196226D01*
X105968438Y-104256524D01*
X105904310Y-104286987D01*
X105833891Y-104277944D01*
X105779541Y-104232265D01*
X105758500Y-104162554D01*
X105758500Y-100875284D01*
X105778502Y-100807163D01*
X105832158Y-100760670D01*
X105902432Y-100750566D01*
X105967012Y-100780060D01*
X106005396Y-100839786D01*
X106007417Y-100847583D01*
X106036533Y-100976781D01*
X106038475Y-100981563D01*
X106038476Y-100981567D01*
X106126367Y-101198016D01*
X106128311Y-101202803D01*
X106255772Y-101410800D01*
X106415492Y-101595187D01*
X106603183Y-101751011D01*
X106813804Y-101874087D01*
X106818629Y-101875929D01*
X106818630Y-101875930D01*
X106875506Y-101897649D01*
X107041698Y-101961112D01*
X107046764Y-101962143D01*
X107046765Y-101962143D01*
X107275667Y-102008714D01*
X107275671Y-102008714D01*
X107280746Y-102009747D01*
X107285922Y-102009937D01*
X107285924Y-102009937D01*
X107519363Y-102018497D01*
X107519367Y-102018497D01*
X107524527Y-102018686D01*
X107529647Y-102018030D01*
X107529649Y-102018030D01*
X107606377Y-102008201D01*
X107766494Y-101987689D01*
X107771443Y-101986204D01*
X107771449Y-101986203D01*
X107995200Y-101919074D01*
X107995199Y-101919074D01*
X108000150Y-101917589D01*
X108219219Y-101810268D01*
X108223424Y-101807268D01*
X108223430Y-101807265D01*
X108413614Y-101671608D01*
X108413616Y-101671606D01*
X108417818Y-101668609D01*
X108590614Y-101496415D01*
X108593787Y-101492000D01*
X108649330Y-101414703D01*
X108732966Y-101298311D01*
X108841050Y-101079618D01*
X108873827Y-100971739D01*
X108910462Y-100851161D01*
X108910463Y-100851155D01*
X108911966Y-100846209D01*
X108928886Y-100717688D01*
X108943370Y-100607672D01*
X108943370Y-100607668D01*
X108943807Y-100604351D01*
X108945584Y-100531634D01*
X108925596Y-100288510D01*
X108866167Y-100051914D01*
X108768894Y-99828202D01*
X108636390Y-99623382D01*
X108618486Y-99603705D01*
X108475690Y-99446775D01*
X108475688Y-99446774D01*
X108472212Y-99442953D01*
X108468161Y-99439754D01*
X108468157Y-99439750D01*
X108284825Y-99294963D01*
X108284821Y-99294961D01*
X108280770Y-99291761D01*
X108067205Y-99173867D01*
X108062336Y-99172143D01*
X108062332Y-99172141D01*
X107842127Y-99094162D01*
X107842123Y-99094161D01*
X107837252Y-99092436D01*
X107832159Y-99091529D01*
X107832156Y-99091528D01*
X107602177Y-99050562D01*
X107602171Y-99050561D01*
X107597088Y-99049656D01*
X107517380Y-99048682D01*
X107358332Y-99046739D01*
X107358330Y-99046739D01*
X107353162Y-99046676D01*
X107112024Y-99083575D01*
X106880150Y-99159363D01*
X106794773Y-99203807D01*
X106709408Y-99248246D01*
X106663769Y-99272004D01*
X106659636Y-99275107D01*
X106659633Y-99275109D01*
X106475625Y-99413267D01*
X106468690Y-99418474D01*
X106465118Y-99422212D01*
X106323224Y-99570696D01*
X106300153Y-99594838D01*
X106297239Y-99599110D01*
X106297238Y-99599111D01*
X106277719Y-99627725D01*
X106162684Y-99796360D01*
X106059974Y-100017629D01*
X106058592Y-100022613D01*
X106005917Y-100212553D01*
X105968438Y-100272851D01*
X105904310Y-100303314D01*
X105833891Y-100294271D01*
X105779541Y-100248592D01*
X105758500Y-100178881D01*
X105758500Y-98300231D01*
X105744080Y-98153167D01*
X105686916Y-97963831D01*
X105594066Y-97789204D01*
X105502782Y-97677279D01*
X105472960Y-97640713D01*
X105472957Y-97640710D01*
X105469065Y-97635938D01*
X105443533Y-97614816D01*
X105321425Y-97513799D01*
X105321421Y-97513797D01*
X105316675Y-97509870D01*
X105142701Y-97415802D01*
X104953768Y-97357318D01*
X104947643Y-97356674D01*
X104947642Y-97356674D01*
X104763204Y-97337289D01*
X104763202Y-97337289D01*
X104757075Y-97336645D01*
X104674576Y-97344153D01*
X104566251Y-97354011D01*
X104566248Y-97354012D01*
X104560112Y-97354570D01*
X104554206Y-97356308D01*
X104554202Y-97356309D01*
X104487114Y-97376054D01*
X104370381Y-97410410D01*
X104364920Y-97413265D01*
X104364915Y-97413267D01*
X104295093Y-97449769D01*
X104225457Y-97463603D01*
X104159397Y-97437593D01*
X104124571Y-97388413D01*
X104121973Y-97389630D01*
X104118869Y-97383004D01*
X104116550Y-97376054D01*
X104023478Y-97225652D01*
X103898303Y-97100695D01*
X103846764Y-97068925D01*
X103799271Y-97016154D01*
X103787847Y-96946082D01*
X103816121Y-96880958D01*
X103835045Y-96862582D01*
X103842920Y-96856396D01*
X103846852Y-96851865D01*
X103846855Y-96851862D01*
X103977621Y-96701167D01*
X103981552Y-96696637D01*
X103984552Y-96691451D01*
X103984555Y-96691447D01*
X104084437Y-96518794D01*
X104087473Y-96513546D01*
X104088152Y-96511592D01*
X105968860Y-96511592D01*
X105969157Y-96516744D01*
X105969157Y-96516748D01*
X105978151Y-96672721D01*
X105982903Y-96755132D01*
X105984040Y-96760178D01*
X105984041Y-96760184D01*
X106006552Y-96860072D01*
X106036533Y-96993108D01*
X106038475Y-96997890D01*
X106038476Y-96997894D01*
X106084027Y-97110072D01*
X106128311Y-97219130D01*
X106200667Y-97337204D01*
X106250628Y-97418732D01*
X106255772Y-97427127D01*
X106415492Y-97611514D01*
X106603183Y-97767338D01*
X106813804Y-97890414D01*
X107041698Y-97977439D01*
X107046764Y-97978470D01*
X107046765Y-97978470D01*
X107275667Y-98025041D01*
X107275671Y-98025041D01*
X107280746Y-98026074D01*
X107285922Y-98026264D01*
X107285924Y-98026264D01*
X107519363Y-98034824D01*
X107519367Y-98034824D01*
X107524527Y-98035013D01*
X107529647Y-98034357D01*
X107529649Y-98034357D01*
X107606377Y-98024528D01*
X107766494Y-98004016D01*
X107771443Y-98002531D01*
X107771449Y-98002530D01*
X107995200Y-97935401D01*
X107995199Y-97935401D01*
X108000150Y-97933916D01*
X108219219Y-97826595D01*
X108223424Y-97823595D01*
X108223430Y-97823592D01*
X108413614Y-97687935D01*
X108413616Y-97687933D01*
X108417818Y-97684936D01*
X108590614Y-97512742D01*
X108611724Y-97483365D01*
X108625924Y-97463603D01*
X108732966Y-97314638D01*
X108740201Y-97300000D01*
X108838756Y-97100587D01*
X108838757Y-97100585D01*
X108841050Y-97095945D01*
X108875304Y-96983204D01*
X108910462Y-96867488D01*
X108910463Y-96867482D01*
X108911966Y-96862536D01*
X108928886Y-96734015D01*
X108943370Y-96623999D01*
X108943370Y-96623995D01*
X108943807Y-96620678D01*
X108944321Y-96599632D01*
X108945502Y-96551326D01*
X108945502Y-96551322D01*
X108945584Y-96547961D01*
X108925596Y-96304837D01*
X108866167Y-96068241D01*
X108768894Y-95844529D01*
X108671059Y-95693299D01*
X108639200Y-95644052D01*
X108639198Y-95644049D01*
X108636390Y-95639709D01*
X108548566Y-95543191D01*
X108475690Y-95463102D01*
X108475688Y-95463101D01*
X108472212Y-95459280D01*
X108468161Y-95456081D01*
X108468157Y-95456077D01*
X108284825Y-95311290D01*
X108284821Y-95311288D01*
X108280770Y-95308088D01*
X108067205Y-95190194D01*
X108062336Y-95188470D01*
X108062332Y-95188468D01*
X107842127Y-95110489D01*
X107842123Y-95110488D01*
X107837252Y-95108763D01*
X107832159Y-95107856D01*
X107832156Y-95107855D01*
X107602177Y-95066889D01*
X107602171Y-95066888D01*
X107597088Y-95065983D01*
X107517380Y-95065009D01*
X107358332Y-95063066D01*
X107358330Y-95063066D01*
X107353162Y-95063003D01*
X107112024Y-95099902D01*
X106880150Y-95175690D01*
X106855604Y-95188468D01*
X106698664Y-95270166D01*
X106663769Y-95288331D01*
X106659636Y-95291434D01*
X106659633Y-95291436D01*
X106472825Y-95431696D01*
X106468690Y-95434801D01*
X106300153Y-95611165D01*
X106297239Y-95615437D01*
X106297238Y-95615438D01*
X106269183Y-95656565D01*
X106162684Y-95812687D01*
X106147125Y-95846206D01*
X106065730Y-96021556D01*
X106059974Y-96033956D01*
X105994783Y-96269028D01*
X105968860Y-96511592D01*
X104088152Y-96511592D01*
X104156861Y-96313729D01*
X104162598Y-96274165D01*
X104186352Y-96110336D01*
X104186352Y-96110333D01*
X104187213Y-96104396D01*
X104177433Y-95893101D01*
X104127875Y-95687466D01*
X104120010Y-95670166D01*
X104048719Y-95513372D01*
X104040326Y-95494913D01*
X103917946Y-95322389D01*
X103783623Y-95193803D01*
X103769480Y-95180264D01*
X103765150Y-95176119D01*
X103760119Y-95172870D01*
X103760112Y-95172865D01*
X103732393Y-95154967D01*
X103686016Y-95101211D01*
X103676063Y-95030915D01*
X103705696Y-94966398D01*
X103722909Y-94950030D01*
X103837857Y-94859738D01*
X103846506Y-94851501D01*
X103977212Y-94700877D01*
X103984147Y-94691153D01*
X104084010Y-94518533D01*
X104088984Y-94507669D01*
X104154407Y-94319273D01*
X104154648Y-94318284D01*
X104153180Y-94307992D01*
X104139615Y-94304000D01*
X101464598Y-94304000D01*
X101451067Y-94307973D01*
X101449712Y-94317399D01*
X101471194Y-94406537D01*
X101475083Y-94417832D01*
X101557629Y-94599382D01*
X101563576Y-94609724D01*
X101678968Y-94772397D01*
X101686761Y-94781425D01*
X101830831Y-94919342D01*
X101840200Y-94926741D01*
X101867577Y-94944418D01*
X101913955Y-94998172D01*
X101923909Y-95068468D01*
X101894278Y-95132985D01*
X101877063Y-95149356D01*
X101757080Y-95243604D01*
X101753148Y-95248135D01*
X101753145Y-95248138D01*
X101634554Y-95384802D01*
X101618448Y-95403363D01*
X101615448Y-95408549D01*
X101615445Y-95408553D01*
X101554806Y-95513372D01*
X101512527Y-95586454D01*
X101443139Y-95786271D01*
X101442278Y-95792206D01*
X101442278Y-95792208D01*
X101436311Y-95833365D01*
X101412787Y-95995604D01*
X75092959Y-95995604D01*
X75143542Y-95839928D01*
X75145912Y-95817384D01*
X75162814Y-95656565D01*
X75163504Y-95650000D01*
X75143542Y-95460072D01*
X75084527Y-95278444D01*
X75077406Y-95266109D01*
X75035659Y-95193803D01*
X74989040Y-95113056D01*
X74961752Y-95082749D01*
X74865675Y-94976045D01*
X74865674Y-94976044D01*
X74861253Y-94971134D01*
X74706752Y-94858882D01*
X74700724Y-94856198D01*
X74700722Y-94856197D01*
X74538319Y-94783891D01*
X74538318Y-94783891D01*
X74532288Y-94781206D01*
X74438888Y-94761353D01*
X74351944Y-94742872D01*
X74351939Y-94742872D01*
X74345487Y-94741500D01*
X74154513Y-94741500D01*
X74148061Y-94742872D01*
X74148056Y-94742872D01*
X74109799Y-94751004D01*
X74098543Y-94753397D01*
X74027752Y-94747995D01*
X73971120Y-94705178D01*
X73947036Y-94643319D01*
X73944232Y-94616635D01*
X73944232Y-94616633D01*
X73943542Y-94610072D01*
X73884527Y-94428444D01*
X73868105Y-94400000D01*
X77036496Y-94400000D01*
X77056458Y-94589928D01*
X77115473Y-94771556D01*
X77118776Y-94777278D01*
X77118777Y-94777279D01*
X77126080Y-94789928D01*
X77210960Y-94936944D01*
X77215378Y-94941851D01*
X77215379Y-94941852D01*
X77334325Y-95073955D01*
X77338747Y-95078866D01*
X77493248Y-95191118D01*
X77499276Y-95193802D01*
X77499278Y-95193803D01*
X77661681Y-95266109D01*
X77667712Y-95268794D01*
X77733365Y-95282749D01*
X77848056Y-95307128D01*
X77848061Y-95307128D01*
X77854513Y-95308500D01*
X78045487Y-95308500D01*
X78051939Y-95307128D01*
X78051944Y-95307128D01*
X78166635Y-95282749D01*
X78232288Y-95268794D01*
X78238319Y-95266109D01*
X78400722Y-95193803D01*
X78400724Y-95193802D01*
X78406752Y-95191118D01*
X78561253Y-95078866D01*
X78565675Y-95073955D01*
X78684621Y-94941852D01*
X78684622Y-94941851D01*
X78689040Y-94936944D01*
X78773920Y-94789928D01*
X78781223Y-94777279D01*
X78781224Y-94777278D01*
X78784527Y-94771556D01*
X78840269Y-94600000D01*
X79536496Y-94600000D01*
X79537186Y-94606565D01*
X79555129Y-94777279D01*
X79556458Y-94789928D01*
X79615473Y-94971556D01*
X79710960Y-95136944D01*
X79715378Y-95141851D01*
X79715379Y-95141852D01*
X79829678Y-95268794D01*
X79838747Y-95278866D01*
X79993248Y-95391118D01*
X79999276Y-95393802D01*
X79999278Y-95393803D01*
X80134021Y-95453794D01*
X80167712Y-95468794D01*
X80233365Y-95482749D01*
X80348056Y-95507128D01*
X80348061Y-95507128D01*
X80354513Y-95508500D01*
X80545487Y-95508500D01*
X80551939Y-95507128D01*
X80551944Y-95507128D01*
X80666635Y-95482749D01*
X80732288Y-95468794D01*
X80765979Y-95453794D01*
X80900722Y-95393803D01*
X80900724Y-95393802D01*
X80906752Y-95391118D01*
X81061253Y-95278866D01*
X81070322Y-95268794D01*
X81184621Y-95141852D01*
X81184622Y-95141851D01*
X81189040Y-95136944D01*
X81284527Y-94971556D01*
X81343542Y-94789928D01*
X81344872Y-94777279D01*
X81362814Y-94606565D01*
X81363504Y-94600000D01*
X81345473Y-94428444D01*
X81344232Y-94416635D01*
X81344232Y-94416633D01*
X81343542Y-94410072D01*
X81284527Y-94228444D01*
X81189040Y-94063056D01*
X81158208Y-94028813D01*
X81065675Y-93926045D01*
X81065674Y-93926044D01*
X81061253Y-93921134D01*
X80906752Y-93808882D01*
X80900724Y-93806198D01*
X80900722Y-93806197D01*
X80845736Y-93781716D01*
X101445352Y-93781716D01*
X101446820Y-93792008D01*
X101460385Y-93796000D01*
X102527885Y-93796000D01*
X102543124Y-93791525D01*
X102544329Y-93790135D01*
X102546000Y-93782452D01*
X102546000Y-93777885D01*
X103054000Y-93777885D01*
X103058475Y-93793124D01*
X103059865Y-93794329D01*
X103067548Y-93796000D01*
X104135402Y-93796000D01*
X104148933Y-93792027D01*
X104150288Y-93782601D01*
X104128806Y-93693463D01*
X104124917Y-93682168D01*
X104042371Y-93500618D01*
X104036424Y-93490276D01*
X103921032Y-93327603D01*
X103913239Y-93318575D01*
X103769169Y-93180658D01*
X103759804Y-93173262D01*
X103592259Y-93065079D01*
X103581655Y-93059583D01*
X103396688Y-92985039D01*
X103385230Y-92981645D01*
X103188072Y-92943143D01*
X103179209Y-92942066D01*
X103176500Y-92942000D01*
X103072115Y-92942000D01*
X103056876Y-92946475D01*
X103055671Y-92947865D01*
X103054000Y-92955548D01*
X103054000Y-93777885D01*
X102546000Y-93777885D01*
X102546000Y-92960115D01*
X102541525Y-92944876D01*
X102540135Y-92943671D01*
X102532452Y-92942000D01*
X102475168Y-92942000D01*
X102469192Y-92942285D01*
X102320506Y-92956471D01*
X102308772Y-92958730D01*
X102117401Y-93014872D01*
X102106325Y-93019302D01*
X101929022Y-93110619D01*
X101918976Y-93117069D01*
X101762143Y-93240262D01*
X101753494Y-93248499D01*
X101622788Y-93399123D01*
X101615853Y-93408847D01*
X101515990Y-93581467D01*
X101511016Y-93592331D01*
X101445593Y-93780727D01*
X101445352Y-93781716D01*
X80845736Y-93781716D01*
X80738319Y-93733891D01*
X80738318Y-93733891D01*
X80732288Y-93731206D01*
X80638888Y-93711353D01*
X80551944Y-93692872D01*
X80551939Y-93692872D01*
X80545487Y-93691500D01*
X80354513Y-93691500D01*
X80348061Y-93692872D01*
X80348056Y-93692872D01*
X80261112Y-93711353D01*
X80167712Y-93731206D01*
X80161682Y-93733891D01*
X80161681Y-93733891D01*
X79999278Y-93806197D01*
X79999276Y-93806198D01*
X79993248Y-93808882D01*
X79838747Y-93921134D01*
X79834326Y-93926044D01*
X79834325Y-93926045D01*
X79741793Y-94028813D01*
X79710960Y-94063056D01*
X79615473Y-94228444D01*
X79556458Y-94410072D01*
X79555768Y-94416633D01*
X79555768Y-94416635D01*
X79554527Y-94428444D01*
X79536496Y-94600000D01*
X78840269Y-94600000D01*
X78843542Y-94589928D01*
X78863504Y-94400000D01*
X78851660Y-94287310D01*
X78844232Y-94216635D01*
X78844232Y-94216633D01*
X78843542Y-94210072D01*
X78784527Y-94028444D01*
X78689040Y-93863056D01*
X78678306Y-93851134D01*
X78565675Y-93726045D01*
X78565674Y-93726044D01*
X78561253Y-93721134D01*
X78406752Y-93608882D01*
X78400724Y-93606198D01*
X78400722Y-93606197D01*
X78238319Y-93533891D01*
X78238318Y-93533891D01*
X78232288Y-93531206D01*
X78138887Y-93511353D01*
X78051944Y-93492872D01*
X78051939Y-93492872D01*
X78045487Y-93491500D01*
X77854513Y-93491500D01*
X77848061Y-93492872D01*
X77848056Y-93492872D01*
X77761113Y-93511353D01*
X77667712Y-93531206D01*
X77661682Y-93533891D01*
X77661681Y-93533891D01*
X77499278Y-93606197D01*
X77499276Y-93606198D01*
X77493248Y-93608882D01*
X77338747Y-93721134D01*
X77334326Y-93726044D01*
X77334325Y-93726045D01*
X77221695Y-93851134D01*
X77210960Y-93863056D01*
X77115473Y-94028444D01*
X77056458Y-94210072D01*
X77055768Y-94216633D01*
X77055768Y-94216635D01*
X77048340Y-94287310D01*
X77036496Y-94400000D01*
X73868105Y-94400000D01*
X73789040Y-94263056D01*
X73747243Y-94216635D01*
X73665675Y-94126045D01*
X73665674Y-94126044D01*
X73661253Y-94121134D01*
X73549879Y-94040216D01*
X73512094Y-94012763D01*
X73512093Y-94012762D01*
X73506752Y-94008882D01*
X73500724Y-94006198D01*
X73500722Y-94006197D01*
X73338319Y-93933891D01*
X73338318Y-93933891D01*
X73332288Y-93931206D01*
X73238888Y-93911353D01*
X73151944Y-93892872D01*
X73151939Y-93892872D01*
X73145487Y-93891500D01*
X72954513Y-93891500D01*
X72948061Y-93892872D01*
X72948056Y-93892872D01*
X72861112Y-93911353D01*
X72767712Y-93931206D01*
X72761682Y-93933891D01*
X72761681Y-93933891D01*
X72599278Y-94006197D01*
X72599276Y-94006198D01*
X72593248Y-94008882D01*
X72587907Y-94012762D01*
X72587906Y-94012763D01*
X72550121Y-94040216D01*
X72438747Y-94121134D01*
X72434326Y-94126044D01*
X72434325Y-94126045D01*
X72352758Y-94216635D01*
X72310960Y-94263056D01*
X72215473Y-94428444D01*
X72156458Y-94610072D01*
X72155768Y-94616633D01*
X72155768Y-94616635D01*
X72138471Y-94781206D01*
X72136496Y-94800000D01*
X71507686Y-94800000D01*
X71507984Y-91950000D01*
X89036496Y-91950000D01*
X89056458Y-92139928D01*
X89115473Y-92321556D01*
X89210960Y-92486944D01*
X89215378Y-92491851D01*
X89215379Y-92491852D01*
X89308703Y-92595499D01*
X89338747Y-92628866D01*
X89493248Y-92741118D01*
X89499276Y-92743802D01*
X89499278Y-92743803D01*
X89603798Y-92790338D01*
X89667712Y-92818794D01*
X89761112Y-92838647D01*
X89848056Y-92857128D01*
X89848061Y-92857128D01*
X89854513Y-92858500D01*
X90045487Y-92858500D01*
X90051939Y-92857128D01*
X90051944Y-92857128D01*
X90138888Y-92838647D01*
X90232288Y-92818794D01*
X90296202Y-92790338D01*
X90400722Y-92743803D01*
X90400724Y-92743802D01*
X90406752Y-92741118D01*
X90561253Y-92628866D01*
X90591297Y-92595499D01*
X90684621Y-92491852D01*
X90684622Y-92491851D01*
X90689040Y-92486944D01*
X90784527Y-92321556D01*
X90843542Y-92139928D01*
X90863504Y-91950000D01*
X90860513Y-91921544D01*
X91461996Y-91921544D01*
X91481958Y-92111472D01*
X91540973Y-92293100D01*
X91544276Y-92298822D01*
X91544277Y-92298823D01*
X91560706Y-92327279D01*
X91636460Y-92458488D01*
X91764247Y-92600410D01*
X91918748Y-92712662D01*
X91924776Y-92715346D01*
X91924778Y-92715347D01*
X92087181Y-92787653D01*
X92093212Y-92790338D01*
X92186613Y-92810191D01*
X92273556Y-92828672D01*
X92273561Y-92828672D01*
X92280013Y-92830044D01*
X92470987Y-92830044D01*
X92477439Y-92828672D01*
X92477444Y-92828672D01*
X92564387Y-92810191D01*
X92657788Y-92790338D01*
X92663819Y-92787653D01*
X92826222Y-92715347D01*
X92826224Y-92715346D01*
X92832252Y-92712662D01*
X92986753Y-92600410D01*
X93052024Y-92527919D01*
X105968860Y-92527919D01*
X105969157Y-92533071D01*
X105969157Y-92533075D01*
X105976521Y-92660784D01*
X105982903Y-92771459D01*
X105984040Y-92776505D01*
X105984041Y-92776511D01*
X106007107Y-92878863D01*
X106036533Y-93009435D01*
X106038475Y-93014217D01*
X106038476Y-93014221D01*
X106103056Y-93173262D01*
X106128311Y-93235457D01*
X106255772Y-93443454D01*
X106415492Y-93627841D01*
X106603183Y-93783665D01*
X106813804Y-93906741D01*
X106818629Y-93908583D01*
X106818630Y-93908584D01*
X106851495Y-93921134D01*
X107041698Y-93993766D01*
X107046764Y-93994797D01*
X107046765Y-93994797D01*
X107275667Y-94041368D01*
X107275671Y-94041368D01*
X107280746Y-94042401D01*
X107285922Y-94042591D01*
X107285924Y-94042591D01*
X107519363Y-94051151D01*
X107519367Y-94051151D01*
X107524527Y-94051340D01*
X107529647Y-94050684D01*
X107529649Y-94050684D01*
X107606377Y-94040855D01*
X107766494Y-94020343D01*
X107771443Y-94018858D01*
X107771449Y-94018857D01*
X107995200Y-93951728D01*
X107995199Y-93951728D01*
X108000150Y-93950243D01*
X108219219Y-93842922D01*
X108223424Y-93839922D01*
X108223430Y-93839919D01*
X108413614Y-93704262D01*
X108413616Y-93704260D01*
X108417818Y-93701263D01*
X108590614Y-93529069D01*
X108732966Y-93330965D01*
X108739090Y-93318575D01*
X108838756Y-93116914D01*
X108838757Y-93116912D01*
X108841050Y-93112272D01*
X108880738Y-92981645D01*
X108910462Y-92883815D01*
X108910463Y-92883809D01*
X108911966Y-92878863D01*
X108934358Y-92708781D01*
X108943370Y-92640326D01*
X108943370Y-92640322D01*
X108943807Y-92637005D01*
X108944202Y-92620836D01*
X108945502Y-92567653D01*
X108945502Y-92567649D01*
X108945584Y-92564288D01*
X108925596Y-92321164D01*
X108866167Y-92084568D01*
X108795282Y-91921544D01*
X108770954Y-91865593D01*
X108770952Y-91865590D01*
X108768894Y-91860856D01*
X108685285Y-91731616D01*
X108639200Y-91660379D01*
X108639198Y-91660376D01*
X108636390Y-91656036D01*
X108548980Y-91559973D01*
X108475690Y-91479429D01*
X108475688Y-91479428D01*
X108472212Y-91475607D01*
X108468161Y-91472408D01*
X108468157Y-91472404D01*
X108284825Y-91327617D01*
X108284821Y-91327615D01*
X108280770Y-91324415D01*
X108067205Y-91206521D01*
X108062336Y-91204797D01*
X108062332Y-91204795D01*
X107842127Y-91126816D01*
X107842123Y-91126815D01*
X107837252Y-91125090D01*
X107832159Y-91124183D01*
X107832156Y-91124182D01*
X107602177Y-91083216D01*
X107602171Y-91083215D01*
X107597088Y-91082310D01*
X107517380Y-91081336D01*
X107358332Y-91079393D01*
X107358330Y-91079393D01*
X107353162Y-91079330D01*
X107112024Y-91116229D01*
X106880150Y-91192017D01*
X106663769Y-91304658D01*
X106659636Y-91307761D01*
X106659633Y-91307763D01*
X106472825Y-91448023D01*
X106468690Y-91451128D01*
X106465118Y-91454866D01*
X106364676Y-91559973D01*
X106300153Y-91627492D01*
X106297239Y-91631764D01*
X106297238Y-91631765D01*
X106277719Y-91660379D01*
X106162684Y-91829014D01*
X106145705Y-91865593D01*
X106103477Y-91956565D01*
X106059974Y-92050283D01*
X105994783Y-92285355D01*
X105968860Y-92527919D01*
X93052024Y-92527919D01*
X93114540Y-92458488D01*
X93190294Y-92327279D01*
X93206723Y-92298823D01*
X93206724Y-92298822D01*
X93210027Y-92293100D01*
X93269042Y-92111472D01*
X93289004Y-91921544D01*
X93282170Y-91856518D01*
X93269732Y-91738179D01*
X93269732Y-91738177D01*
X93269042Y-91731616D01*
X93210027Y-91549988D01*
X93114540Y-91384600D01*
X92986753Y-91242678D01*
X92832252Y-91130426D01*
X92826224Y-91127742D01*
X92826222Y-91127741D01*
X92663819Y-91055435D01*
X92663818Y-91055435D01*
X92657788Y-91052750D01*
X92564387Y-91032897D01*
X92477444Y-91014416D01*
X92477439Y-91014416D01*
X92470987Y-91013044D01*
X92280013Y-91013044D01*
X92273561Y-91014416D01*
X92273556Y-91014416D01*
X92186613Y-91032897D01*
X92093212Y-91052750D01*
X92087182Y-91055435D01*
X92087181Y-91055435D01*
X91924778Y-91127741D01*
X91924776Y-91127742D01*
X91918748Y-91130426D01*
X91764247Y-91242678D01*
X91636460Y-91384600D01*
X91540973Y-91549988D01*
X91481958Y-91731616D01*
X91481268Y-91738177D01*
X91481268Y-91738179D01*
X91468830Y-91856518D01*
X91461996Y-91921544D01*
X90860513Y-91921544D01*
X90843542Y-91760072D01*
X90784527Y-91578444D01*
X90689040Y-91413056D01*
X90612111Y-91327617D01*
X90565675Y-91276045D01*
X90565674Y-91276044D01*
X90561253Y-91271134D01*
X90406752Y-91158882D01*
X90400724Y-91156198D01*
X90400722Y-91156197D01*
X90238319Y-91083891D01*
X90238318Y-91083891D01*
X90232288Y-91081206D01*
X90111046Y-91055435D01*
X90051944Y-91042872D01*
X90051939Y-91042872D01*
X90045487Y-91041500D01*
X89854513Y-91041500D01*
X89848061Y-91042872D01*
X89848056Y-91042872D01*
X89788954Y-91055435D01*
X89667712Y-91081206D01*
X89661682Y-91083891D01*
X89661681Y-91083891D01*
X89499278Y-91156197D01*
X89499276Y-91156198D01*
X89493248Y-91158882D01*
X89338747Y-91271134D01*
X89334326Y-91276044D01*
X89334325Y-91276045D01*
X89287890Y-91327617D01*
X89210960Y-91413056D01*
X89115473Y-91578444D01*
X89056458Y-91760072D01*
X89036496Y-91950000D01*
X71507984Y-91950000D01*
X71508209Y-89797386D01*
X72567759Y-89797386D01*
X72575216Y-89807753D01*
X72814935Y-90001874D01*
X72820272Y-90005751D01*
X73140685Y-90213830D01*
X73146394Y-90217127D01*
X73486811Y-90390578D01*
X73492836Y-90393260D01*
X73849502Y-90530171D01*
X73855784Y-90532212D01*
X74224816Y-90631094D01*
X74231266Y-90632465D01*
X74608629Y-90692234D01*
X74615167Y-90692920D01*
X74996699Y-90712916D01*
X75003301Y-90712916D01*
X75384833Y-90692920D01*
X75391371Y-90692234D01*
X75768734Y-90632465D01*
X75775184Y-90631094D01*
X76144216Y-90532212D01*
X76150498Y-90530171D01*
X76507164Y-90393260D01*
X76513189Y-90390578D01*
X76853606Y-90217127D01*
X76859315Y-90213830D01*
X77179728Y-90005751D01*
X77185065Y-90001874D01*
X77423835Y-89808522D01*
X77432300Y-89796267D01*
X77425966Y-89785176D01*
X75012812Y-87372022D01*
X74998868Y-87364408D01*
X74997035Y-87364539D01*
X74990420Y-87368790D01*
X72574900Y-89784310D01*
X72567759Y-89797386D01*
X71508209Y-89797386D01*
X71508309Y-88839557D01*
X71528318Y-88771438D01*
X71581979Y-88724951D01*
X71652254Y-88714854D01*
X71716831Y-88744354D01*
X71746576Y-88782367D01*
X71782872Y-88853603D01*
X71786169Y-88859313D01*
X71994253Y-89179735D01*
X71998123Y-89185061D01*
X72191478Y-89423835D01*
X72203733Y-89432300D01*
X72214824Y-89425966D01*
X74639658Y-87001132D01*
X75364408Y-87001132D01*
X75364539Y-87002965D01*
X75368790Y-87009580D01*
X77784310Y-89425100D01*
X77797386Y-89432241D01*
X77807753Y-89424784D01*
X78001877Y-89185061D01*
X78005747Y-89179735D01*
X78213831Y-88859313D01*
X78217128Y-88853603D01*
X78218964Y-88850000D01*
X78636496Y-88850000D01*
X78656458Y-89039928D01*
X78715473Y-89221556D01*
X78810960Y-89386944D01*
X78815378Y-89391851D01*
X78815379Y-89391852D01*
X78851799Y-89432300D01*
X78938747Y-89528866D01*
X79093248Y-89641118D01*
X79099276Y-89643802D01*
X79099278Y-89643803D01*
X79146396Y-89664781D01*
X79267712Y-89718794D01*
X79361113Y-89738647D01*
X79448056Y-89757128D01*
X79448061Y-89757128D01*
X79454513Y-89758500D01*
X79645487Y-89758500D01*
X79651939Y-89757128D01*
X79651944Y-89757128D01*
X79738887Y-89738647D01*
X79832288Y-89718794D01*
X79953604Y-89664781D01*
X80000722Y-89643803D01*
X80000724Y-89643802D01*
X80006752Y-89641118D01*
X80161253Y-89528866D01*
X80193908Y-89492599D01*
X81213700Y-89492599D01*
X81228583Y-89659362D01*
X81287863Y-89876051D01*
X81384578Y-90078818D01*
X81515671Y-90261254D01*
X81519703Y-90265161D01*
X81672562Y-90413292D01*
X81676999Y-90417592D01*
X81863462Y-90542890D01*
X82069167Y-90633188D01*
X82074618Y-90634497D01*
X82074622Y-90634498D01*
X82282154Y-90684322D01*
X82287611Y-90685632D01*
X82371675Y-90690479D01*
X82506283Y-90698240D01*
X82506286Y-90698240D01*
X82511890Y-90698563D01*
X82734915Y-90671575D01*
X82949635Y-90605518D01*
X82954615Y-90602948D01*
X82954619Y-90602946D01*
X83144281Y-90505054D01*
X83144282Y-90505054D01*
X83149264Y-90502482D01*
X83327492Y-90365723D01*
X83478685Y-90199564D01*
X83502649Y-90161363D01*
X83595085Y-90014005D01*
X83598064Y-90009256D01*
X83625414Y-89941222D01*
X83669378Y-89885480D01*
X83736503Y-89862355D01*
X83805474Y-89879192D01*
X83856045Y-89933976D01*
X83922597Y-90073503D01*
X83928282Y-90083116D01*
X84052775Y-90256367D01*
X84060083Y-90264833D01*
X84213282Y-90413292D01*
X84221979Y-90420335D01*
X84399044Y-90539319D01*
X84408842Y-90544705D01*
X84604190Y-90630457D01*
X84614782Y-90634022D01*
X84740584Y-90664224D01*
X84754670Y-90663519D01*
X84758200Y-90654640D01*
X84758200Y-90654011D01*
X85266200Y-90654011D01*
X85270305Y-90667993D01*
X85279928Y-90669486D01*
X85280173Y-90669434D01*
X85484083Y-90606702D01*
X85494429Y-90602481D01*
X85684014Y-90504629D01*
X85693445Y-90498643D01*
X85862701Y-90368768D01*
X85870924Y-90361207D01*
X86014512Y-90203406D01*
X86021264Y-90194511D01*
X86060963Y-90131225D01*
X86114107Y-90084148D01*
X86184266Y-90073276D01*
X86249165Y-90102060D01*
X86288200Y-90161363D01*
X86293700Y-90198182D01*
X86293700Y-90233734D01*
X86300455Y-90295916D01*
X86351585Y-90432305D01*
X86438939Y-90548861D01*
X86555495Y-90636215D01*
X86691884Y-90687345D01*
X86754066Y-90694100D01*
X88350334Y-90694100D01*
X88412516Y-90687345D01*
X88548905Y-90636215D01*
X88665461Y-90548861D01*
X88752815Y-90432305D01*
X88803945Y-90295916D01*
X88810700Y-90233734D01*
X88810700Y-89797386D01*
X107817759Y-89797386D01*
X107825216Y-89807753D01*
X108064935Y-90001874D01*
X108070272Y-90005751D01*
X108390685Y-90213830D01*
X108396394Y-90217127D01*
X108736811Y-90390578D01*
X108742836Y-90393260D01*
X109099502Y-90530171D01*
X109105784Y-90532212D01*
X109474816Y-90631094D01*
X109481266Y-90632465D01*
X109858629Y-90692234D01*
X109865167Y-90692920D01*
X110246699Y-90712916D01*
X110253301Y-90712916D01*
X110634833Y-90692920D01*
X110641371Y-90692234D01*
X111018734Y-90632465D01*
X111025184Y-90631094D01*
X111394216Y-90532212D01*
X111400498Y-90530171D01*
X111757164Y-90393260D01*
X111763189Y-90390578D01*
X112103606Y-90217127D01*
X112109315Y-90213830D01*
X112429728Y-90005751D01*
X112435065Y-90001874D01*
X112673835Y-89808522D01*
X112682300Y-89796267D01*
X112675966Y-89785176D01*
X110262812Y-87372022D01*
X110248868Y-87364408D01*
X110247035Y-87364539D01*
X110240420Y-87368790D01*
X107824900Y-89784310D01*
X107817759Y-89797386D01*
X88810700Y-89797386D01*
X88810700Y-88250000D01*
X92036496Y-88250000D01*
X92037186Y-88256565D01*
X92042608Y-88308148D01*
X92056458Y-88439928D01*
X92115473Y-88621556D01*
X92210960Y-88786944D01*
X92215378Y-88791851D01*
X92215379Y-88791852D01*
X92261825Y-88843435D01*
X92338747Y-88928866D01*
X92493248Y-89041118D01*
X92499276Y-89043802D01*
X92499278Y-89043803D01*
X92661681Y-89116109D01*
X92667712Y-89118794D01*
X92761112Y-89138647D01*
X92848056Y-89157128D01*
X92848061Y-89157128D01*
X92854513Y-89158500D01*
X93045487Y-89158500D01*
X93051939Y-89157128D01*
X93051944Y-89157128D01*
X93138888Y-89138647D01*
X93232288Y-89118794D01*
X93238319Y-89116109D01*
X93400722Y-89043803D01*
X93400724Y-89043802D01*
X93406752Y-89041118D01*
X93561253Y-88928866D01*
X93638175Y-88843435D01*
X93684621Y-88791852D01*
X93684622Y-88791851D01*
X93689040Y-88786944D01*
X93784527Y-88621556D01*
X93843542Y-88439928D01*
X93857393Y-88308148D01*
X93862814Y-88256565D01*
X93863504Y-88250000D01*
X93843542Y-88060072D01*
X93784527Y-87878444D01*
X93689040Y-87713056D01*
X93600305Y-87614505D01*
X93565675Y-87576045D01*
X93565674Y-87576044D01*
X93561253Y-87571134D01*
X93406752Y-87458882D01*
X93400724Y-87456198D01*
X93400722Y-87456197D01*
X93238319Y-87383891D01*
X93238318Y-87383891D01*
X93232288Y-87381206D01*
X93138887Y-87361353D01*
X93051944Y-87342872D01*
X93051939Y-87342872D01*
X93045487Y-87341500D01*
X92854513Y-87341500D01*
X92848061Y-87342872D01*
X92848056Y-87342872D01*
X92761113Y-87361353D01*
X92667712Y-87381206D01*
X92661682Y-87383891D01*
X92661681Y-87383891D01*
X92499278Y-87456197D01*
X92499276Y-87456198D01*
X92493248Y-87458882D01*
X92338747Y-87571134D01*
X92334326Y-87576044D01*
X92334325Y-87576045D01*
X92299696Y-87614505D01*
X92210960Y-87713056D01*
X92115473Y-87878444D01*
X92056458Y-88060072D01*
X92036496Y-88250000D01*
X88810700Y-88250000D01*
X88810700Y-87637466D01*
X88803945Y-87575284D01*
X88752815Y-87438895D01*
X88665461Y-87322339D01*
X88548905Y-87234985D01*
X88412516Y-87183855D01*
X88350334Y-87177100D01*
X86754066Y-87177100D01*
X86691884Y-87183855D01*
X86555495Y-87234985D01*
X86438939Y-87322339D01*
X86351585Y-87438895D01*
X86300455Y-87575284D01*
X86293700Y-87637466D01*
X86293700Y-87671777D01*
X86273698Y-87739898D01*
X86220042Y-87786391D01*
X86149768Y-87796495D01*
X86085188Y-87767001D01*
X86065377Y-87745303D01*
X85971625Y-87614833D01*
X85964317Y-87606367D01*
X85811118Y-87457908D01*
X85802421Y-87450865D01*
X85625356Y-87331881D01*
X85615558Y-87326495D01*
X85420210Y-87240743D01*
X85409618Y-87237178D01*
X85283816Y-87206976D01*
X85269730Y-87207681D01*
X85266200Y-87216560D01*
X85266200Y-90654011D01*
X84758200Y-90654011D01*
X84758200Y-87217189D01*
X84754095Y-87203207D01*
X84744472Y-87201714D01*
X84744227Y-87201766D01*
X84540317Y-87264498D01*
X84529971Y-87268719D01*
X84340386Y-87366571D01*
X84330955Y-87372557D01*
X84161699Y-87502432D01*
X84153476Y-87509993D01*
X84009888Y-87667794D01*
X84003133Y-87676694D01*
X83889766Y-87857415D01*
X83884689Y-87867381D01*
X83859533Y-87929958D01*
X83815567Y-87985703D01*
X83748442Y-88008828D01*
X83679471Y-87991991D01*
X83628900Y-87937207D01*
X83603869Y-87884729D01*
X83559822Y-87792382D01*
X83428729Y-87609946D01*
X83320926Y-87505477D01*
X83271429Y-87457511D01*
X83271426Y-87457509D01*
X83267401Y-87453608D01*
X83080938Y-87328310D01*
X82875233Y-87238012D01*
X82869782Y-87236703D01*
X82869778Y-87236702D01*
X82662246Y-87186878D01*
X82662245Y-87186878D01*
X82656789Y-87185568D01*
X82572725Y-87180721D01*
X82438117Y-87172960D01*
X82438114Y-87172960D01*
X82432510Y-87172637D01*
X82209485Y-87199625D01*
X81994765Y-87265682D01*
X81989785Y-87268252D01*
X81989781Y-87268254D01*
X81803486Y-87364408D01*
X81795136Y-87368718D01*
X81616908Y-87505477D01*
X81465715Y-87671636D01*
X81462737Y-87676383D01*
X81462735Y-87676386D01*
X81419504Y-87745303D01*
X81346336Y-87861944D01*
X81262544Y-88070383D01*
X81216987Y-88290367D01*
X81213700Y-88347375D01*
X81213700Y-89492599D01*
X80193908Y-89492599D01*
X80248201Y-89432300D01*
X80284621Y-89391852D01*
X80284622Y-89391851D01*
X80289040Y-89386944D01*
X80384527Y-89221556D01*
X80443542Y-89039928D01*
X80463504Y-88850000D01*
X80457506Y-88792934D01*
X80444232Y-88666635D01*
X80444232Y-88666633D01*
X80443542Y-88660072D01*
X80384527Y-88478444D01*
X80289040Y-88313056D01*
X80272764Y-88294979D01*
X80165675Y-88176045D01*
X80165674Y-88176044D01*
X80161253Y-88171134D01*
X80017423Y-88066635D01*
X80012094Y-88062763D01*
X80012093Y-88062762D01*
X80006752Y-88058882D01*
X80000724Y-88056198D01*
X80000722Y-88056197D01*
X79838319Y-87983891D01*
X79838318Y-87983891D01*
X79832288Y-87981206D01*
X79738887Y-87961353D01*
X79651944Y-87942872D01*
X79651939Y-87942872D01*
X79645487Y-87941500D01*
X79454513Y-87941500D01*
X79448061Y-87942872D01*
X79448056Y-87942872D01*
X79361113Y-87961353D01*
X79267712Y-87981206D01*
X79261682Y-87983891D01*
X79261681Y-87983891D01*
X79099278Y-88056197D01*
X79099276Y-88056198D01*
X79093248Y-88058882D01*
X79087907Y-88062762D01*
X79087906Y-88062763D01*
X79082577Y-88066635D01*
X78938747Y-88171134D01*
X78934326Y-88176044D01*
X78934325Y-88176045D01*
X78827237Y-88294979D01*
X78810960Y-88313056D01*
X78715473Y-88478444D01*
X78656458Y-88660072D01*
X78655768Y-88666633D01*
X78655768Y-88666635D01*
X78642494Y-88792934D01*
X78636496Y-88850000D01*
X78218964Y-88850000D01*
X78390578Y-88513189D01*
X78393260Y-88507164D01*
X78530171Y-88150498D01*
X78532212Y-88144216D01*
X78631094Y-87775184D01*
X78632465Y-87768734D01*
X78692234Y-87391371D01*
X78692920Y-87384833D01*
X78712916Y-87003301D01*
X106537084Y-87003301D01*
X106557080Y-87384833D01*
X106557766Y-87391371D01*
X106617535Y-87768734D01*
X106618906Y-87775184D01*
X106717788Y-88144216D01*
X106719829Y-88150498D01*
X106856740Y-88507164D01*
X106859422Y-88513189D01*
X107032872Y-88853603D01*
X107036169Y-88859313D01*
X107244253Y-89179735D01*
X107248123Y-89185061D01*
X107441478Y-89423835D01*
X107453733Y-89432300D01*
X107464824Y-89425966D01*
X109877978Y-87012812D01*
X109885592Y-86998868D01*
X109885461Y-86997035D01*
X109881210Y-86990420D01*
X107465690Y-84574900D01*
X107452614Y-84567759D01*
X107442247Y-84575216D01*
X107248123Y-84814939D01*
X107244253Y-84820265D01*
X107036169Y-85140687D01*
X107032872Y-85146397D01*
X106859422Y-85486811D01*
X106856740Y-85492836D01*
X106719829Y-85849502D01*
X106717788Y-85855784D01*
X106618906Y-86224816D01*
X106617535Y-86231266D01*
X106557766Y-86608629D01*
X106557080Y-86615167D01*
X106537084Y-86996699D01*
X106537084Y-87003301D01*
X78712916Y-87003301D01*
X78712916Y-86996699D01*
X78692920Y-86615167D01*
X78692234Y-86608629D01*
X78632465Y-86231266D01*
X78631094Y-86224816D01*
X78532212Y-85855784D01*
X78530171Y-85849502D01*
X78393260Y-85492836D01*
X78390578Y-85486811D01*
X78217128Y-85146397D01*
X78213831Y-85140687D01*
X78005747Y-84820265D01*
X78001877Y-84814939D01*
X77808522Y-84576165D01*
X77796267Y-84567700D01*
X77785176Y-84574034D01*
X75372022Y-86987188D01*
X75364408Y-87001132D01*
X74639658Y-87001132D01*
X77425100Y-84215690D01*
X77432241Y-84202614D01*
X77424784Y-84192247D01*
X77185065Y-83998126D01*
X77179728Y-83994249D01*
X76859315Y-83786170D01*
X76853606Y-83782874D01*
X76782743Y-83746767D01*
X76731128Y-83698019D01*
X76714062Y-83629104D01*
X76736963Y-83561902D01*
X76792560Y-83517750D01*
X76839946Y-83508500D01*
X78716994Y-83508500D01*
X78785115Y-83528502D01*
G37*
G04 #@! TD.AperFunction*
G04 #@! TA.AperFunction,Conductor*
G36*
X111496298Y-126757264D02*
G01*
X111541361Y-126786225D01*
X112703845Y-127948709D01*
X112737871Y-128011021D01*
X112732806Y-128081836D01*
X112703845Y-128126899D01*
X112522825Y-128307919D01*
X112460513Y-128341945D01*
X112389698Y-128336880D01*
X112344635Y-128307919D01*
X111182151Y-127145435D01*
X111148125Y-127083123D01*
X111153190Y-127012308D01*
X111182151Y-126967245D01*
X111363171Y-126786225D01*
X111425483Y-126752199D01*
X111496298Y-126757264D01*
G37*
G04 #@! TD.AperFunction*
G04 #@! TA.AperFunction,Conductor*
G36*
X73833650Y-126756749D02*
G01*
X73878713Y-126785710D01*
X74059733Y-126966730D01*
X74093759Y-127029042D01*
X74088694Y-127099857D01*
X74059733Y-127144920D01*
X72897249Y-128307404D01*
X72834937Y-128341430D01*
X72764122Y-128336365D01*
X72719059Y-128307404D01*
X72538039Y-128126384D01*
X72504013Y-128064072D01*
X72509078Y-127993257D01*
X72538039Y-127948194D01*
X73700523Y-126785710D01*
X73762835Y-126751684D01*
X73833650Y-126756749D01*
G37*
G04 #@! TD.AperFunction*
G04 #@! TA.AperFunction,Conductor*
G36*
X72852186Y-123362637D02*
G01*
X72897249Y-123391598D01*
X74059733Y-124554082D01*
X74093759Y-124616394D01*
X74088694Y-124687209D01*
X74059733Y-124732272D01*
X73878713Y-124913292D01*
X73816401Y-124947318D01*
X73745586Y-124942253D01*
X73700523Y-124913292D01*
X72538039Y-123750808D01*
X72504013Y-123688496D01*
X72509078Y-123617681D01*
X72538039Y-123572618D01*
X72719059Y-123391598D01*
X72781371Y-123357572D01*
X72852186Y-123362637D01*
G37*
G04 #@! TD.AperFunction*
G04 #@! TA.AperFunction,Conductor*
G36*
X112481820Y-84513136D02*
G01*
X112526883Y-84542097D01*
X112707903Y-84723117D01*
X112741929Y-84785429D01*
X112736864Y-84856244D01*
X112707903Y-84901307D01*
X111545419Y-86063791D01*
X111483107Y-86097817D01*
X111412292Y-86092752D01*
X111367229Y-86063791D01*
X111186209Y-85882771D01*
X111152183Y-85820459D01*
X111157248Y-85749644D01*
X111186209Y-85704581D01*
X112348693Y-84542097D01*
X112411005Y-84508071D01*
X112481820Y-84513136D01*
G37*
G04 #@! TD.AperFunction*
G04 #@! TA.AperFunction,Conductor*
G36*
X72856244Y-84513136D02*
G01*
X72901307Y-84542097D01*
X74063791Y-85704581D01*
X74097817Y-85766893D01*
X74092752Y-85837708D01*
X74063791Y-85882771D01*
X73882771Y-86063791D01*
X73820459Y-86097817D01*
X73749644Y-86092752D01*
X73704581Y-86063791D01*
X72542097Y-84901307D01*
X72508071Y-84838995D01*
X72513136Y-84768180D01*
X72542097Y-84723117D01*
X72723117Y-84542097D01*
X72785429Y-84508071D01*
X72856244Y-84513136D01*
G37*
G04 #@! TD.AperFunction*
M02*
